<svg 
 xmlns="http://www.w3.org/2000/svg"
 xmlns:xlink="http://www.w3.org/1999/xlink"
 width="18px" height="18px">
<path fill-rule="evenodd"
 d="M17.213,16.484 L10.506,16.484 L17.524,9.600 C17.825,9.305 17.825,8.818 17.524,8.523 C17.222,8.227 16.727,8.227 16.425,8.523 L9.768,15.054 L9.768,0.762 C9.768,0.343 9.418,-0.000 8.990,-0.000 C8.563,-0.000 8.213,0.343 8.213,0.762 L8.213,15.054 L1.565,8.513 C1.263,8.218 0.768,8.218 0.466,8.513 C0.165,8.809 0.165,9.295 0.466,9.591 L7.484,16.474 L0.778,16.474 C0.350,16.474 -0.000,16.817 -0.000,17.237 C-0.000,17.656 0.350,18.000 0.778,18.000 L17.222,18.000 C17.650,18.000 18.000,17.656 18.000,17.237 C18.000,16.817 17.650,16.484 17.213,16.484 L17.213,16.484 Z"/>
</svg>