<svg xmlns="http://www.w3.org/2000/svg" xmlns:xlink="http://www.w3.org/1999/xlink" width="23px" height="26px">
<path fill-rule="evenodd" d="M9.112,25.1000 C6.912,25.1000 4.843,25.115 3.287,23.507 C1.731,21.899 0.875,19.761 0.875,17.487 C0.875,15.214 1.731,13.076 3.287,11.468 C4.843,9.860 6.912,8.975 9.112,8.975 C9.519,8.975 9.849,9.316 9.849,9.736 L9.849,13.816 C9.849,14.237 9.519,14.578 9.112,14.578 C7.559,14.578 6.296,15.883 6.296,17.487 C6.296,19.092 7.559,20.397 9.112,20.397 C10.664,20.397 11.927,19.092 11.927,17.487 L11.927,0.762 C11.927,0.341 12.257,0.000 12.664,0.000 L16.612,0.000 C17.019,0.000 17.349,0.341 17.349,0.762 C17.349,3.491 19.497,5.711 22.138,5.711 C22.545,5.711 22.875,6.052 22.875,6.473 L22.875,10.552 C22.875,10.973 22.545,11.314 22.138,11.314 C20.448,11.314 18.816,10.892 17.349,10.084 L17.349,17.487 C17.349,19.761 16.492,21.899 14.936,23.507 C13.381,25.115 11.312,25.1000 9.112,25.1000 ZM8.375,10.539 C4.991,10.920 2.349,13.891 2.349,17.487 C2.349,21.341 5.383,24.477 9.112,24.477 C12.841,24.477 15.875,21.341 15.875,17.487 L15.875,8.714 C15.875,8.429 16.030,8.167 16.276,8.036 C16.522,7.906 16.818,7.929 17.042,8.096 C18.333,9.056 19.828,9.624 21.401,9.759 L21.401,7.190 C18.536,6.841 16.255,4.485 15.918,1.523 L13.402,1.523 L13.402,17.487 C13.402,19.932 11.477,21.921 9.112,21.921 C6.746,21.921 4.822,19.932 4.822,17.487 C4.822,15.302 6.359,13.482 8.375,13.120 L8.375,10.539 Z"></path>
</svg>