<svg xmlns="http://www.w3.org/2000/svg" xmlns:xlink="http://www.w3.org/1999/xlink" width="27px" height="22px">
<path fill-rule="evenodd" d="M22.251,0.826 L5.330,0.826 C2.828,0.826 0.797,2.843 0.797,5.329 L0.797,17.336 C0.797,19.822 2.828,21.839 5.330,21.839 L22.251,21.839 C24.753,21.839 26.784,19.822 26.784,17.336 L26.784,5.329 C26.784,2.843 24.753,0.826 22.251,0.826 ZM5.330,2.627 L22.251,2.627 C23.218,2.627 24.064,3.131 24.548,3.888 L13.948,10.192 C13.851,10.252 13.730,10.252 13.634,10.192 L3.033,3.888 C3.517,3.131 4.363,2.627 5.330,2.627 ZM22.251,20.038 L5.330,20.038 C3.831,20.038 2.610,18.825 2.610,17.336 L2.610,5.737 L12.703,11.741 C13.041,11.945 13.416,12.041 13.791,12.041 C14.165,12.041 14.540,11.945 14.879,11.741 L24.971,5.737 L24.971,17.336 C24.971,18.825 23.750,20.038 22.251,20.038 Z"></path>
</svg>