<svg xmlns="http://www.w3.org/2000/svg" xmlns:xlink="http://www.w3.org/1999/xlink" width="26px" height="26px">
<path fill-rule="evenodd" d="M16.628,26.000 L16.326,26.000 L10.884,26.000 L9.372,26.000 C2.803,26.000 -0.000,23.197 -0.000,16.628 L-0.000,9.372 C-0.000,2.803 2.803,-0.000 9.372,-0.000 L16.628,-0.000 C23.197,-0.000 26.000,2.803 26.000,9.372 L26.000,16.628 C26.000,23.197 23.197,26.000 16.628,26.000 ZM14.512,24.186 L14.512,15.419 L17.704,15.419 L17.946,14.209 L14.524,14.209 L14.524,9.735 C14.524,9.034 15.092,8.466 15.794,8.465 L18.152,8.465 L18.152,6.651 L15.419,6.651 C13.917,6.653 12.700,7.870 12.698,9.372 L12.698,14.209 L10.279,14.209 L10.279,15.419 L12.698,15.419 L12.698,24.186 L14.512,24.186 ZM24.186,9.372 C24.186,3.792 22.209,1.814 16.628,1.814 L9.372,1.814 C3.792,1.814 1.814,3.792 1.814,9.372 L1.814,16.628 C1.814,22.208 3.792,24.186 9.372,24.186 L10.884,24.186 L10.884,17.233 L9.735,17.233 C9.034,17.232 8.466,16.664 8.465,15.963 L8.465,13.665 C8.466,12.964 9.034,12.396 9.735,12.395 L10.884,12.395 L10.884,9.372 C10.887,6.869 12.915,4.840 15.419,4.837 L18.684,4.837 C19.385,4.838 19.953,5.406 19.954,6.107 L19.954,9.009 C19.953,9.710 19.385,10.278 18.684,10.279 L16.326,10.279 L16.326,12.395 L18.599,12.395 C19.299,12.394 19.867,12.961 19.868,13.661 C19.869,13.743 19.861,13.826 19.845,13.907 L19.385,16.205 C19.263,16.795 18.743,17.219 18.140,17.221 L16.326,17.221 L16.326,24.186 L16.628,24.186 C22.208,24.186 24.186,22.208 24.186,16.628 L24.186,9.372 Z"></path>
</svg>