<svg xmlns="http://www.w3.org/2000/svg" xmlns:xlink="http://www.w3.org/1999/xlink" width="26px" height="22px">
<path fill-rule="evenodd" d="M4.635,21.083 L4.635,17.416 L2.781,17.416 C1.245,17.416 -0.000,16.185 -0.000,14.666 L-0.000,2.750 C-0.000,1.231 1.245,-0.000 2.781,-0.000 L21.320,-0.000 C22.856,-0.000 24.101,1.231 24.101,2.750 L24.101,5.500 L22.247,5.500 L22.247,2.750 C22.247,2.244 21.832,1.833 21.320,1.833 L2.781,1.833 C2.269,1.833 1.854,2.244 1.854,2.750 L1.854,14.666 C1.854,15.173 2.269,15.583 2.781,15.583 L5.562,15.583 C6.074,15.583 6.489,15.993 6.489,16.500 L6.489,19.126 L10.530,15.794 C10.697,15.657 10.907,15.583 11.123,15.583 L13.904,15.583 L13.904,17.416 L11.457,17.416 L6.155,21.789 C5.549,22.285 4.635,21.858 4.635,21.083 ZM18.075,5.500 L6.025,5.500 L6.025,7.333 L18.075,7.333 L18.075,5.500 ZM13.904,10.541 L6.025,10.541 L6.025,12.375 L13.904,12.375 L13.904,10.541 ZM19.192,17.146 L25.218,11.188 C26.310,10.035 26.250,8.225 25.084,7.145 C23.972,6.115 22.242,6.115 21.130,7.145 L15.105,13.103 C14.931,13.275 14.832,13.507 14.831,13.750 L14.831,16.500 C14.831,17.006 15.246,17.416 15.758,17.416 L18.539,17.416 C18.784,17.415 19.019,17.318 19.192,17.146 ZM16.685,14.130 L22.437,8.438 C22.858,8.049 23.518,8.073 23.911,8.489 C24.284,8.885 24.284,9.499 23.911,9.895 L18.154,15.583 L16.685,15.583 L16.685,14.130 Z"></path>
</svg>