<svg xmlns="http://www.w3.org/2000/svg" xmlns:xlink="http://www.w3.org/1999/xlink" width="26px" height="26px">
<path fill-rule="evenodd" d="M13.000,25.1000 C5.820,25.1000 0.000,20.180 0.000,13.000 C0.000,5.820 5.820,0.000 13.000,0.000 C20.180,0.000 25.1000,5.820 25.1000,13.000 C25.1000,20.180 20.180,25.1000 13.000,25.1000 ZM13.000,2.000 C6.925,2.000 2.000,6.925 2.000,13.000 C2.000,19.075 6.925,23.1000 13.000,23.1000 C19.075,23.1000 23.1000,19.075 23.1000,13.000 C23.1000,6.925 19.075,2.000 13.000,2.000 ZM16.083,12.781 C16.083,12.018 15.871,11.406 15.166,11.406 C13.965,11.406 13.965,12.781 13.965,12.781 L13.965,16.906 L11.142,16.906 L11.142,9.344 L13.965,9.344 L13.965,10.568 C13.965,10.568 14.220,9.344 16.337,9.344 C17.947,9.344 18.907,10.629 18.907,12.781 L18.907,16.906 L16.083,16.906 L16.083,12.781 ZM8.318,8.656 C7.539,8.656 6.906,8.041 6.906,7.281 C6.906,6.522 7.539,5.906 8.318,5.906 C9.098,5.906 9.730,6.522 9.730,7.281 C9.730,8.041 9.098,8.656 8.318,8.656 ZM9.730,16.906 L6.906,16.906 L6.906,9.344 L9.730,9.344 L9.730,16.906 Z"></path>
</svg>