<?xml version="1.0" encoding="UTF-8"?>
<svg xmlns="http://www.w3.org/2000/svg" viewBox="0 0 26 26">
  <g id="chain">
    <path id="background" class="cls-1" d="m13,1.52c6.34,0,11.48,5.14,11.47,11.48,0,4.61-2.76,8.77-7.01,10.57-5.84,2.47-12.58-.27-15.04-6.11C-.04,11.63,2.69,4.89,8.53,2.42c1.41-.6,2.93-.9,4.47-.9m0-1.52C5.82,0,0,5.82,0,13s5.82,13,13,13,13-5.82,13-13S20.18,0,13,0Z"/>
    <path class="cls-1" d="m10.65,18.28c-2.52.04-3.92-3.17-2.1-4.98.48-.49,1.01-1.02,1.66-1.66,1.06-1.1,3.02-1.09,4.08,0,.55.49.19,1.42-.53,1.41-.62,0-.75-.64-1.51-.62-.34,0-.68.14-.94.41-.56.55-1.06,1.05-1.57,1.57-.77.7-.35,2.07.68,2.21.65.14,1.09-.26,1.51-.72.25-.25.52-.58.91-.56.67-.02,1.07.87.6,1.34-.72.82-1.64,1.64-2.79,1.6h0Z"/>
    <path class="cls-1" d="m13.84,15.18c-.89.03-2.49-.55-2.4-1.55.04-.26.2-.48.43-.6.31-.17.7-.1.96.15s.55.37.89.37c.36,0,.67-.11.92-.36.5-.49,1.08-1.07,1.65-1.65.49-.5.48-1.31-.02-1.82-.24-.25-.58-.38-.92-.38-.7-.02-1.11.6-1.57,1.03-.32.34-.86.37-1.19.04-.34-.32-.31-.86.03-1.19.23-.23.45-.47.69-.69,1.65-1.66,4.66-.64,4.93,1.68.15.91-.11,1.74-.73,2.4-.51.54-1.08,1.11-1.79,1.79-.5.48-1.17.76-1.87.76Z"/>
  </g>
</svg>