<svg xmlns="http://www.w3.org/2000/svg" xmlns:xlink="http://www.w3.org/1999/xlink" width="17px" height="27px">
<path fill-rule="evenodd" d="M14.000,26.1000 L2.1000,26.1000 C0.303,26.975 0.002,24.560 -0.000,22.620 L-0.000,3.380 C0.002,1.440 1.373,0.002 3.203,-0.000 L13.685,0.000 C15.515,0.002 16.998,1.700 17.000,3.640 L17.000,22.620 C16.998,24.560 16.260,27.029 14.000,26.1000 ZM15.275,3.640 C15.274,2.751 14.599,1.784 13.797,1.820 L3.203,1.820 C2.612,1.858 1.726,2.269 1.725,3.380 L1.725,22.620 C1.690,23.545 1.788,24.983 2.1000,25.000 L14.000,25.000 C15.274,25.015 15.239,23.471 15.275,22.620 L15.275,3.640 ZM10.625,4.506 L6.375,4.506 C5.984,4.506 5.667,4.170 5.667,3.755 C5.667,3.340 5.984,3.004 6.375,3.004 L10.625,3.004 C11.016,3.004 11.333,3.340 11.333,3.755 C11.333,4.170 11.016,4.506 10.625,4.506 ZM8.500,19.992 C9.282,19.992 9.917,20.664 9.917,21.494 C9.917,22.324 9.282,22.996 8.500,22.996 C7.717,22.996 7.083,22.324 7.083,21.494 C7.083,20.664 7.717,19.992 8.500,19.992 Z"></path>
</svg>