<svg xmlns="http://www.w3.org/2000/svg" xmlns:xlink="http://www.w3.org/1999/xlink" width="23px" height="27px">
<path fill-rule="evenodd" d="M21.589,13.923 C20.759,12.256 20.085,10.510 19.577,8.710 C19.345,6.817 18.639,5.019 17.529,3.496 C16.591,2.163 14.892,0.471 11.579,0.447 L11.579,0.445 L11.575,0.445 C8.367,0.453 6.921,2.086 5.623,3.494 C4.515,5.018 3.810,6.815 3.577,8.708 C3.069,10.509 2.395,12.255 1.565,13.923 C0.813,15.507 0.473,17.267 0.579,19.029 C0.660,19.486 0.972,19.863 1.396,20.015 C2.033,20.147 2.689,19.911 3.112,19.400 C3.268,20.416 3.588,21.398 4.060,22.303 C3.011,22.951 2.475,24.218 2.726,25.457 C2.1000,26.287 3.907,26.437 5.589,26.437 C6.927,26.420 8.252,26.165 9.507,25.684 C9.863,25.536 12.153,25.438 12.535,25.394 C12.922,25.440 13.302,25.539 13.664,25.691 C14.914,26.168 16.233,26.420 17.565,26.437 C19.247,26.437 20.155,26.287 20.428,25.457 C20.679,24.218 20.143,22.951 19.094,22.303 C19.571,21.401 19.894,20.420 20.050,19.404 C20.472,19.913 21.126,20.147 21.760,20.015 C22.183,19.862 22.494,19.484 22.573,19.027 C22.679,17.265 22.340,15.506 21.589,13.923 ZM19.102,16.488 C18.821,16.463 18.544,16.573 18.350,16.786 C18.150,16.990 18.042,17.272 18.052,17.562 L18.072,18.171 C18.078,19.542 17.677,20.881 16.923,22.007 C16.601,22.478 16.708,23.130 17.162,23.464 C17.193,23.487 17.226,23.508 17.259,23.528 C17.631,23.743 17.970,24.015 18.263,24.335 C18.031,24.347 17.798,24.352 17.565,24.352 C16.442,24.334 15.331,24.115 14.279,23.705 C13.723,23.475 13.133,23.341 12.535,23.309 C11.930,23.342 9.418,23.477 8.855,23.709 C7.810,24.117 6.705,24.335 5.589,24.352 C5.356,24.352 5.123,24.347 4.891,24.335 C5.186,24.015 5.525,23.743 5.897,23.526 C6.383,23.247 6.560,22.613 6.292,22.109 C6.273,22.073 6.252,22.038 6.229,22.005 C5.470,20.855 5.070,19.490 5.084,18.096 L5.102,17.562 C5.112,17.272 5.004,16.990 4.804,16.786 C4.613,16.569 4.334,16.457 4.052,16.486 C3.549,16.536 3.073,16.739 2.682,17.070 C2.770,16.351 2.974,15.652 3.285,15.003 C4.235,13.138 4.992,11.175 5.545,9.146 C5.727,7.626 6.260,6.173 7.098,4.912 C8.022,3.938 9.394,2.595 11.577,2.531 C13.880,2.459 15.132,3.938 16.056,4.912 C16.895,6.173 17.428,7.626 17.609,9.146 C18.161,11.175 18.919,13.139 19.869,15.003 C20.180,15.654 20.385,16.353 20.477,17.072 C20.084,16.741 19.606,16.537 19.102,16.488 L19.102,16.488 Z"></path>
</svg>