<svg xmlns="http://www.w3.org/2000/svg" xmlns:xlink="http://www.w3.org/1999/xlink" width="26px" height="26px">
<path fill-rule="evenodd" d="M25.116,18.858 L18.888,25.218 C18.670,25.441 18.392,25.587 18.085,25.640 L16.068,25.988 C15.986,26.001 15.903,26.008 15.821,26.008 C15.432,26.008 15.054,25.851 14.774,25.567 C14.434,25.220 14.279,24.726 14.358,24.242 L14.700,22.181 C14.752,21.869 14.895,21.586 15.114,21.362 L21.341,15.002 C22.349,13.972 24.108,13.972 25.116,15.002 C26.157,16.064 26.157,17.793 25.116,18.858 ZM20.658,18.082 L16.318,22.514 L16.025,24.285 L17.760,23.986 L22.099,19.554 L20.658,18.082 ZM23.950,16.192 L23.950,16.191 C23.566,15.798 22.895,15.797 22.509,16.192 L21.825,16.890 L23.267,18.362 L23.950,17.664 C24.347,17.259 24.347,16.599 23.950,16.192 ZM6.536,13.359 C6.080,13.359 5.711,12.981 5.711,12.516 C5.711,12.051 6.080,11.674 6.536,11.674 L7.371,11.674 C7.826,11.674 8.197,12.051 8.197,12.516 C8.197,12.981 7.827,13.359 7.372,13.359 L6.536,13.359 ZM7.372,18.467 L6.536,18.467 C6.080,18.467 5.711,18.090 5.711,17.625 C5.711,17.160 6.080,16.783 6.536,16.783 L7.371,16.783 C7.826,16.783 8.197,17.160 8.197,17.625 C8.197,18.090 7.827,18.467 7.372,18.467 ZM9.852,12.515 C9.852,12.050 10.221,11.673 10.676,11.673 L16.835,11.673 C17.291,11.673 17.660,12.050 17.660,12.515 C17.660,12.981 17.292,13.358 16.835,13.358 L10.676,13.358 C10.221,13.358 9.852,12.980 9.852,12.515 ZM14.757,18.466 L10.679,18.466 C10.224,18.466 9.854,18.089 9.854,17.624 C9.854,17.159 10.224,16.782 10.679,16.782 L14.757,16.782 C15.213,16.782 15.582,17.159 15.582,17.624 C15.582,18.089 15.213,18.466 14.757,18.466 ZM21.649,12.374 C21.194,12.374 20.825,11.997 20.825,11.532 L20.825,5.991 C20.825,4.753 19.839,3.745 18.625,3.745 L16.965,3.745 C16.987,4.167 16.888,4.590 16.649,4.949 C16.292,5.487 15.698,5.809 15.061,5.809 L8.311,5.809 C7.674,5.809 7.080,5.488 6.723,4.949 C6.485,4.590 6.386,4.167 6.408,3.745 L4.750,3.745 C3.537,3.745 2.551,4.753 2.551,5.991 L2.551,22.080 C2.551,23.318 3.537,24.325 4.750,24.325 L11.550,24.325 C12.006,24.325 12.375,24.703 12.375,25.168 C12.375,25.633 12.006,26.010 11.551,26.010 L4.751,26.010 C2.628,26.010 0.902,24.246 0.902,22.080 L0.902,5.992 C0.902,3.825 2.628,2.062 4.751,2.062 L6.944,2.062 L7.271,1.227 C7.563,0.478 8.263,-0.006 9.052,-0.006 L14.321,-0.006 C15.110,-0.006 15.809,0.477 16.102,1.226 L16.429,2.061 L18.625,2.061 C20.748,2.061 22.474,3.824 22.474,5.991 L22.474,11.532 C22.474,11.997 22.105,12.374 21.649,12.374 ZM15.311,3.747 L14.569,1.851 C14.529,1.747 14.431,1.678 14.320,1.678 L9.051,1.678 C8.942,1.678 8.843,1.747 8.802,1.851 L8.061,3.747 C8.015,3.865 8.058,3.959 8.087,4.004 C8.118,4.049 8.185,4.124 8.310,4.124 L15.060,4.124 C15.185,4.124 15.254,4.049 15.283,4.004 C15.313,3.959 15.356,3.865 15.311,3.747 Z"></path>
</svg>