<svg xmlns="http://www.w3.org/2000/svg" xmlns:xlink="http://www.w3.org/1999/xlink" width="26px" height="23px">
<path fill-rule="evenodd" d="M11.280,3.141 C12.143,3.141 12.869,3.411 13.381,3.920 C13.946,4.483 14.211,5.305 14.146,6.297 L14.127,6.581 L14.401,6.494 C15.374,6.184 16.270,6.028 17.064,6.028 C18.356,6.028 19.131,6.441 19.593,6.888 L19.627,6.922 C19.665,6.961 19.702,7.001 19.738,7.042 L19.768,7.076 C19.772,7.082 19.777,7.088 19.782,7.093 L19.809,7.127 L19.836,7.161 L19.861,7.195 C19.865,7.201 19.870,7.206 19.874,7.212 L19.898,7.245 L19.919,7.276 L19.939,7.307 C19.943,7.312 19.946,7.318 19.950,7.323 L19.971,7.356 L19.991,7.389 L20.002,7.406 L20.022,7.442 L20.042,7.478 L20.062,7.515 L20.081,7.553 L20.100,7.592 L20.119,7.632 L20.137,7.673 C20.140,7.680 20.143,7.687 20.146,7.694 L20.164,7.736 L20.181,7.780 C20.184,7.787 20.186,7.795 20.189,7.802 L20.205,7.847 C20.211,7.862 20.216,7.878 20.221,7.893 L20.236,7.940 C20.241,7.956 20.245,7.972 20.250,7.988 L20.264,8.038 C20.266,8.046 20.268,8.054 20.270,8.063 L20.283,8.113 C20.289,8.139 20.294,8.165 20.300,8.191 L20.310,8.245 C20.315,8.272 20.320,8.299 20.324,8.327 L20.332,8.383 C20.389,8.808 20.364,9.324 20.189,9.941 L20.141,10.110 L20.306,10.174 C22.318,10.949 23.471,12.427 23.471,14.228 C23.470,17.963 18.480,22.125 11.320,22.125 C5.755,22.125 -0.001,19.334 -0.001,14.663 C-0.001,12.328 1.408,9.639 3.965,7.092 C6.413,4.655 9.216,3.141 11.280,3.141 ZM11.280,4.867 C9.763,4.867 7.357,6.166 5.207,8.306 C2.946,10.559 1.748,12.846 1.748,14.663 C1.748,16.215 2.690,17.595 4.482,18.671 C6.303,19.765 8.809,20.399 11.320,20.399 C14.351,20.399 17.078,19.570 19.065,18.172 C20.781,16.965 21.722,15.479 21.723,14.228 C21.723,13.190 21.058,12.329 19.711,11.798 L19.670,11.782 L19.504,11.718 C18.677,11.399 18.224,10.518 18.449,9.673 L18.456,9.647 L18.505,9.475 C18.613,9.093 18.632,8.796 18.592,8.564 C18.567,8.421 18.521,8.314 18.460,8.229 C18.388,8.125 18.287,8.035 18.137,7.957 C17.894,7.832 17.548,7.754 17.064,7.754 C16.479,7.754 15.781,7.873 14.997,8.118 L14.938,8.136 L14.665,8.224 C13.502,8.594 12.328,7.705 12.380,6.508 L12.382,6.472 L12.401,6.186 C12.435,5.659 12.327,5.323 12.139,5.136 C11.972,4.969 11.696,4.867 11.280,4.867 L11.280,4.867 ZM17.560,14.466 C17.746,17.099 14.894,19.441 11.188,19.696 C7.483,19.952 4.328,18.025 4.142,15.392 C3.955,12.759 6.808,10.417 10.513,10.161 C14.218,9.906 17.373,11.833 17.560,14.466 ZM10.635,11.883 C7.793,12.079 5.777,13.734 5.886,15.272 C5.995,16.809 8.224,18.171 11.066,17.975 C13.909,17.779 15.924,16.124 15.815,14.586 C15.707,13.049 13.477,11.687 10.635,11.883 ZM9.626,13.869 C10.628,13.676 11.573,14.191 11.736,15.019 C11.899,15.847 11.219,16.673 10.216,16.866 C9.213,17.058 8.268,16.543 8.105,15.715 C7.942,14.888 8.623,14.061 9.626,13.869 ZM18.465,0.127 C23.820,0.357 26.413,3.294 25.945,8.593 C25.903,9.067 25.479,9.419 24.998,9.377 C24.517,9.336 24.161,8.918 24.203,8.443 C24.585,4.121 22.746,2.039 18.389,1.851 C17.907,1.831 17.533,1.428 17.554,0.952 C17.575,0.476 17.983,0.107 18.465,0.127 L18.465,0.127 ZM18.854,3.138 C21.824,3.282 23.250,4.992 22.803,7.880 C22.730,8.351 22.284,8.674 21.807,8.602 C21.330,8.530 21.002,8.090 21.075,7.619 C21.365,5.746 20.706,4.956 18.769,4.862 C18.286,4.839 17.915,4.434 17.938,3.958 C17.962,3.482 18.372,3.115 18.854,3.138 Z"></path>
</svg>