<?xml version="1.0" encoding="UTF-8"?>
<svg xmlns="http://www.w3.org/2000/svg" viewBox="0 0 26 26">
  <g id="Color">
    <g id="_13.Skype" data-name=" 13.Skype">
      <g id="Background">
        <path class="cls-1" d="m13,26C5.83,26,0,20.17,0,13S5.83,0,13,0s13,5.83,13,13-5.83,13-13,13Zm0-24.58C6.61,1.42,1.42,6.61,1.42,13s5.2,11.58,11.58,11.58,11.58-5.2,11.58-11.58S19.39,1.42,13,1.42Z"/>
      </g>
      <g id="Icon">
        <path class="cls-1" d="m19.08,14.37c.94-4.2-2.75-8.03-7.08-7.3-2.35-1.46-5.48.19-5.48,2.99,0,.63.17,1.24.49,1.78-.87,4.22,2.85,7.98,7.17,7.2,3.06,1.62,6.44-1.6,4.9-4.67Zm-4.11,2.54c-1.13.47-3,.47-4.14-.12-1.62-.86-1.9-2.8-.51-2.8,1.05,0,.72,1.22,1.78,1.72.49.22,1.53.25,2.14-.16s.54-1.03.21-1.33c-.86-.8-3.33-.49-4.46-1.88-.54-.73-.53-1.73.02-2.45,1.05-1.35,4.14-1.44,5.46-.41,1.22.95.89,2.21-.1,2.21-1.19,0-.56-1.56-2.48-1.56-1.39,0-1.94.99-.96,1.47,1.33.66,4.72.44,4.72,3.02,0,1.07-.66,1.87-1.68,2.29h0Z"/>
      </g>
    </g>
  </g>
</svg>