<svg xmlns="http://www.w3.org/2000/svg" xmlns:xlink="http://www.w3.org/1999/xlink" width="22px" height="27px">
<path fill-rule="evenodd" d="M21.633,21.024 C21.515,20.567 21.275,20.154 20.942,19.831 L17.808,16.632 C17.560,16.381 17.287,16.158 16.993,15.967 C16.370,15.542 15.586,15.457 14.891,15.738 C14.504,15.881 14.140,16.083 13.812,16.339 L12.926,16.950 C12.525,16.616 12.160,16.239 11.835,15.826 C11.416,15.317 10.970,14.726 10.441,13.978 C10.030,13.376 9.622,12.735 9.200,12.024 C8.935,11.590 8.707,11.132 8.520,10.656 C8.516,10.632 8.510,10.605 8.504,10.576 L9.355,9.915 C9.676,9.683 9.966,9.408 10.217,9.098 C10.495,8.770 10.680,8.369 10.749,7.940 C10.798,7.599 10.780,7.251 10.697,6.917 C10.614,6.561 10.491,6.217 10.328,5.892 L8.425,1.872 C8.227,1.441 7.921,1.073 7.538,0.806 C7.190,0.558 6.792,0.393 6.374,0.323 C5.321,0.165 4.251,0.452 3.406,1.121 C2.692,1.612 2.092,2.260 1.649,3.020 C1.231,3.747 0.950,4.549 0.823,5.385 C0.631,6.744 0.703,8.130 1.035,9.460 C1.403,10.946 1.927,12.386 2.598,13.754 C3.320,15.226 4.148,16.639 5.075,17.982 C6.014,19.318 7.048,20.581 8.168,21.758 C9.214,22.865 10.378,23.845 11.637,24.680 C12.744,25.434 13.988,25.948 15.292,26.191 C16.109,26.333 16.945,26.306 17.752,26.112 C18.587,25.906 19.366,25.506 20.029,24.941 C20.440,24.604 20.798,24.205 21.094,23.757 C21.396,23.309 21.597,22.797 21.683,22.258 C21.744,21.847 21.727,21.428 21.633,21.024 L21.633,21.024 ZM19.758,22.806 C19.553,23.118 19.304,23.395 19.019,23.629 C18.542,24.037 17.983,24.327 17.382,24.478 C15.664,24.770 13.905,24.332 12.505,23.262 C11.349,22.495 10.281,21.595 9.321,20.579 C8.260,19.463 7.281,18.267 6.391,17.001 C5.514,15.731 4.731,14.394 4.048,13.002 C3.431,11.747 2.950,10.426 2.612,9.063 C2.331,7.951 2.267,6.792 2.424,5.654 C2.518,5.028 2.728,4.426 3.041,3.881 C3.366,3.328 3.805,2.856 4.328,2.500 C4.830,2.083 5.474,1.895 6.113,1.980 C6.296,2.010 6.470,2.082 6.623,2.191 C6.772,2.293 6.890,2.436 6.967,2.604 L8.876,6.637 C8.983,6.850 9.064,7.075 9.119,7.308 C9.151,7.426 9.161,7.549 9.149,7.670 C9.123,7.804 9.061,7.928 8.970,8.027 C8.801,8.231 8.608,8.411 8.394,8.564 L7.462,9.288 C7.154,9.514 6.948,9.861 6.893,10.248 C6.866,10.434 6.865,10.623 6.890,10.810 L6.971,11.159 C7.198,11.765 7.480,12.347 7.815,12.897 C8.260,13.645 8.685,14.315 9.124,14.959 C9.686,15.753 10.156,16.374 10.602,16.915 C11.003,17.419 11.453,17.880 11.945,18.288 L12.208,18.465 C12.711,18.760 13.332,18.734 13.810,18.399 L14.755,17.704 C14.966,17.538 15.200,17.405 15.450,17.312 C15.674,17.174 15.959,17.209 16.146,17.398 C16.338,17.524 16.516,17.671 16.679,17.836 L19.809,21.033 C19.924,21.135 20.010,21.268 20.056,21.417 C20.102,21.604 20.110,21.798 20.082,21.988 C20.035,22.283 19.924,22.562 19.758,22.806 L19.758,22.806 Z"></path>
</svg>