<?xml version="1.0" encoding="UTF-8"?>
<svg id="svg879" xmlns="http://www.w3.org/2000/svg" xmlns:xlink="http://www.w3.org/1999/xlink" viewBox="0 0 26 26">
  <defs>
    <mask id="mask" x="0" y="0" width="26" height="26" maskUnits="userSpaceOnUse">
      <g id="custom">
        <rect id="bg" class="cls-1" x="0" width="26" height="26"/>
        <g>
          <path id="path901" class="cls-1" d="m14.27,13c0,.7-.57,1.27-1.27,1.27s-1.27-.57-1.27-1.27.57-1.27,1.27-1.27,1.27.57,1.27,1.27"/>
          <path id="path905" class="cls-1" d="m19.35,13c0,.7-.57,1.27-1.27,1.27s-1.27-.57-1.27-1.27.57-1.27,1.27-1.27,1.27.57,1.27,1.27"/>
          <path id="path909" class="cls-1" d="m9.19,13c0,.7-.57,1.27-1.27,1.27s-1.27-.57-1.27-1.27.57-1.27,1.27-1.27,1.27.57,1.27,1.27"/>
        </g>
      </g>
    </mask>
  </defs>
  <g class="cls-2">
    <g id="g885">
      <g id="g887">
        <g id="g889">
          <g id="g895">
            <g id="path897">
              <path class="cls-3" d="m1.02,26c-.27,0-.52-.1-.72-.3-.27-.27-.37-.67-.25-1.03l1.68-5.2C.59,17.51,0,15.28,0,13,0,11.25.34,9.54,1.02,7.94c.65-1.55,1.59-2.94,2.79-4.13S6.39,1.68,7.94,1.02c1.6-.68,3.31-1.02,5.06-1.02s3.46.34,5.06,1.02c1.55.65,2.94,1.59,4.13,2.79s2.13,2.58,2.79,4.13c.68,1.6,1.02,3.31,1.02,5.06s-.34,3.46-1.02,5.06c-.65,1.55-1.59,2.94-2.79,4.13s-2.58,2.13-4.13,2.79c-1.6.68-3.31,1.02-5.06,1.02-2.28,0-4.51-.59-6.47-1.72l-5.2,1.68c-.1.03-.21.05-.31.05Zm5.64-3.85c.19,0,.38.05.54.15,1.74,1.09,3.75,1.66,5.81,1.66,6.05,0,10.97-4.92,10.97-10.97S19.05,2.03,13,2.03,2.03,6.95,2.03,13c0,2.06.57,4.07,1.66,5.81.16.25.2.56.11.85l-1.21,3.75,3.75-1.21c.1-.03.21-.05.31-.05Z"/>
            </g>
          </g>
          <g id="g899">
            <g id="path901-2" data-name="path901">
              <path class="cls-3" d="m14.27,13c0,.7-.57,1.27-1.27,1.27s-1.27-.57-1.27-1.27.57-1.27,1.27-1.27,1.27.57,1.27,1.27"/>
            </g>
          </g>
          <g id="g903">
            <g id="path905-2" data-name="path905">
              <path class="cls-3" d="m19.35,13c0,.7-.57,1.27-1.27,1.27s-1.27-.57-1.27-1.27.57-1.27,1.27-1.27,1.27.57,1.27,1.27"/>
            </g>
          </g>
          <g id="g907">
            <g id="path909-2" data-name="path909">
              <path class="cls-3" d="m9.19,13c0,.7-.57,1.27-1.27,1.27s-1.27-.57-1.27-1.27.57-1.27,1.27-1.27,1.27.57,1.27,1.27"/>
            </g>
          </g>
        </g>
      </g>
    </g>
  </g>
</svg>