<svg xmlns="http://www.w3.org/2000/svg" xmlns:xlink="http://www.w3.org/1999/xlink" width="28px" height="24px">
<path fill-rule="evenodd" d="M25.003,20.915 L25.557,22.923 C25.762,23.666 24.973,24.280 24.336,23.873 L22.094,22.440 C21.117,22.751 20.092,22.908 19.040,22.908 C16.673,22.908 14.442,22.108 12.757,20.656 C11.886,19.904 11.212,19.025 10.758,18.064 C10.613,18.069 10.467,18.072 10.322,18.072 C9.142,18.072 7.987,17.899 6.881,17.557 L3.898,19.384 C3.768,19.464 3.623,19.503 3.479,19.503 C3.299,19.503 3.120,19.442 2.972,19.323 C2.706,19.107 2.595,18.745 2.694,18.411 L3.468,15.794 C1.256,14.079 -0.000,11.647 -0.000,9.036 C-0.000,6.593 1.093,4.306 3.077,2.596 C5.019,0.922 7.592,0.000 10.322,0.000 C15.282,0.000 19.509,3.086 20.449,7.280 C22.282,7.533 23.976,8.276 25.322,9.436 C27.049,10.924 28.000,12.917 28.000,15.046 C28.000,17.315 26.916,19.424 25.003,20.915 ZM10.322,1.691 C5.535,1.691 1.641,4.986 1.641,9.036 C1.641,11.262 2.821,13.345 4.879,14.752 C5.181,14.959 5.316,15.345 5.210,15.703 L4.881,16.815 L6.359,15.909 C6.565,15.783 6.813,15.756 7.040,15.835 C8.051,16.185 9.115,16.368 10.207,16.380 C10.123,15.944 10.079,15.498 10.079,15.046 C10.079,12.917 11.030,10.924 12.757,9.436 C14.368,8.048 16.477,7.256 18.727,7.189 C17.751,3.994 14.325,1.691 10.322,1.691 ZM19.707,8.900 C19.706,8.900 19.706,8.900 19.705,8.900 C19.486,8.883 19.264,8.874 19.040,8.874 C15.003,8.874 11.720,11.643 11.720,15.046 C11.720,15.678 11.833,16.289 12.044,16.864 C12.046,16.870 12.048,16.875 12.050,16.881 C12.979,19.390 15.761,21.217 19.040,21.217 C20.042,21.217 21.014,21.049 21.928,20.717 C22.016,20.684 22.109,20.668 22.201,20.668 C22.352,20.668 22.502,20.711 22.633,20.795 L23.399,21.285 L23.266,20.801 C23.168,20.446 23.305,20.066 23.605,19.863 C25.356,18.681 26.359,16.925 26.359,15.046 C26.359,11.832 23.431,9.185 19.707,8.900 ZM21.561,13.843 C21.345,13.843 21.134,13.752 20.981,13.595 C20.828,13.438 20.741,13.220 20.741,12.997 C20.741,12.775 20.828,12.557 20.981,12.400 C21.133,12.242 21.345,12.152 21.561,12.152 C21.777,12.152 21.988,12.242 22.141,12.400 C22.294,12.557 22.381,12.775 22.381,12.997 C22.381,13.220 22.294,13.438 22.141,13.595 C21.988,13.752 21.777,13.843 21.561,13.843 ZM16.518,13.843 C16.302,13.843 16.091,13.752 15.938,13.595 C15.785,13.438 15.697,13.220 15.697,12.998 C15.697,12.775 15.785,12.557 15.938,12.400 C16.091,12.242 16.302,12.152 16.518,12.152 C16.734,12.152 16.945,12.242 17.098,12.400 C17.251,12.557 17.338,12.775 17.338,12.998 C17.338,13.220 17.251,13.438 17.098,13.595 C16.945,13.752 16.734,13.843 16.518,13.843 ZM12.897,5.838 C13.050,5.681 13.262,5.590 13.478,5.590 C13.693,5.590 13.905,5.681 14.057,5.838 C14.210,5.996 14.298,6.213 14.298,6.436 C14.298,6.658 14.211,6.877 14.057,7.034 C13.905,7.191 13.694,7.281 13.478,7.281 C13.262,7.281 13.050,7.191 12.897,7.034 C12.745,6.877 12.657,6.658 12.657,6.436 C12.657,6.213 12.745,5.996 12.897,5.838 ZM7.167,7.281 C6.951,7.281 6.739,7.191 6.587,7.034 C6.434,6.877 6.346,6.658 6.346,6.436 C6.346,6.213 6.434,5.996 6.587,5.838 C6.739,5.681 6.951,5.590 7.167,5.590 C7.382,5.590 7.594,5.681 7.746,5.838 C7.900,5.996 7.987,6.214 7.987,6.436 C7.987,6.658 7.900,6.877 7.746,7.034 C7.594,7.191 7.383,7.281 7.167,7.281 Z"></path>
</svg>