<svg xmlns="http://www.w3.org/2000/svg" xmlns:xlink="http://www.w3.org/1999/xlink" width="26px" height="26px">
<path fill-rule="evenodd" d="M13.000,25.1000 C5.820,25.1000 0.000,20.180 0.000,13.000 C0.000,5.820 5.820,0.000 13.000,0.000 C20.180,0.000 25.1000,5.820 25.1000,13.000 C25.1000,20.180 20.180,25.1000 13.000,25.1000 ZM13.000,2.000 C6.925,2.000 2.000,6.925 2.000,13.000 C2.000,19.075 6.925,23.1000 13.000,23.1000 C19.075,23.1000 23.1000,19.075 23.1000,13.000 C23.1000,6.925 19.075,2.000 13.000,2.000 ZM16.135,13.921 C15.651,13.921 15.259,13.529 15.259,13.045 C15.259,12.561 15.651,12.169 16.135,12.169 C16.135,12.169 16.136,12.169 16.136,12.169 C17.358,12.168 18.349,11.177 18.349,9.954 C18.349,8.732 17.357,7.741 16.135,7.741 C14.912,7.741 13.921,8.733 13.921,9.955 L13.921,16.079 L13.919,16.079 C13.897,18.250 12.132,20.004 9.955,20.004 C7.765,20.004 5.989,18.229 5.989,16.038 C5.989,13.847 7.765,12.072 9.955,12.072 C10.439,12.072 10.831,12.464 10.831,12.948 C10.831,13.432 10.439,13.824 9.955,13.824 C9.955,13.824 9.955,13.824 9.955,13.824 C8.732,13.825 7.741,14.816 7.742,16.038 C7.742,17.261 8.733,18.252 9.955,18.252 C11.178,18.252 12.169,17.261 12.169,16.038 L12.169,9.866 L12.173,9.866 C12.221,7.717 13.975,5.989 16.135,5.989 C18.326,5.989 20.101,7.765 20.101,9.955 C20.101,12.145 18.326,13.921 16.135,13.921 Z"></path>
</svg>