<svg xmlns="http://www.w3.org/2000/svg" xmlns:xlink="http://www.w3.org/1999/xlink" width="26px" height="26px">
<path fill-rule="evenodd" d="M20.953,11.837 C20.868,11.845 20.782,11.838 20.697,11.838 C20.291,11.842 20.291,11.842 20.290,11.475 C20.290,11.389 20.285,11.301 20.295,11.216 C20.333,10.902 20.612,10.674 20.936,10.688 C21.242,10.701 21.517,10.960 21.527,11.244 C21.539,11.539 21.281,11.807 20.953,11.837 ZM21.528,14.068 C21.528,14.456 21.532,14.844 21.527,15.231 C21.519,15.818 21.114,16.214 20.481,16.261 C19.562,16.328 19.466,16.270 19.165,15.469 C19.149,15.426 19.146,15.379 19.127,15.289 C19.402,15.289 19.655,15.289 19.907,15.289 C20.235,15.287 20.285,15.242 20.287,14.951 C20.288,14.729 20.287,14.508 20.285,14.286 C20.283,14.081 20.169,13.946 19.949,13.935 C19.616,13.917 19.280,13.926 18.946,13.925 C18.690,13.924 18.435,13.925 18.142,13.925 C18.142,14.155 18.142,14.358 18.142,14.560 C18.142,15.051 18.136,15.541 18.145,16.031 C18.148,16.201 18.098,16.279 17.900,16.269 C17.652,16.257 17.402,16.258 17.154,16.269 C16.962,16.278 16.898,16.209 16.900,16.036 C16.908,15.427 16.891,14.817 16.908,14.209 C16.915,13.973 16.830,13.904 16.587,13.923 C16.365,13.941 16.141,13.923 15.918,13.928 C15.764,13.931 15.703,13.870 15.707,13.728 C15.714,13.475 15.713,13.222 15.707,12.969 C15.704,12.827 15.765,12.769 15.920,12.772 C16.186,12.779 16.452,12.785 16.717,12.767 C16.783,12.762 16.888,12.669 16.895,12.609 C16.917,12.413 16.917,12.213 16.894,12.017 C16.887,11.956 16.780,11.905 16.716,11.851 C16.706,11.843 16.682,11.850 16.665,11.849 C16.110,11.833 16.108,11.833 16.111,11.328 C16.112,11.139 16.051,10.893 16.155,10.779 C16.248,10.676 16.529,10.710 16.727,10.701 C16.863,10.695 16.915,10.641 16.901,10.525 C16.877,10.327 16.989,10.283 17.178,10.291 C17.409,10.301 17.642,10.305 17.872,10.290 C18.089,10.277 18.172,10.353 18.146,10.547 C18.142,10.584 18.154,10.623 18.161,10.681 C18.436,10.695 18.686,10.692 18.930,10.724 C19.662,10.818 20.074,11.234 20.119,11.915 C20.135,12.144 20.115,12.375 20.137,12.602 C20.144,12.664 20.240,12.759 20.307,12.769 C21.202,12.898 21.527,13.238 21.528,14.068 ZM18.995,11.530 C18.941,11.455 18.874,11.348 18.797,11.336 C18.617,11.308 18.428,11.327 18.229,11.327 C18.229,11.646 18.229,11.934 18.229,12.235 C19.001,12.341 19.005,12.338 19.001,11.669 C19.001,11.622 19.019,11.562 18.995,11.530 ZM15.834,16.063 C15.837,16.190 15.792,16.254 15.644,16.253 C14.408,16.249 13.172,16.248 11.936,16.245 C11.912,16.245 11.888,16.231 11.809,16.206 C11.982,15.859 12.137,15.527 12.315,15.206 C12.345,15.151 12.471,15.119 12.554,15.115 C12.828,15.104 13.102,15.111 13.387,15.111 C13.400,15.041 13.418,14.989 13.418,14.937 C13.418,13.995 13.410,13.053 13.418,12.112 C13.420,11.899 13.358,11.820 13.114,11.827 C12.625,11.842 12.666,11.884 12.665,11.406 C12.665,11.231 12.672,11.057 12.664,10.883 C12.658,10.744 12.711,10.684 12.871,10.685 C13.660,10.689 14.450,10.689 15.240,10.685 C15.382,10.684 15.444,10.733 15.441,10.865 C15.437,11.118 15.436,11.371 15.442,11.624 C15.445,11.774 15.383,11.832 15.215,11.837 C14.685,11.854 14.684,11.860 14.684,12.345 C14.684,13.168 14.684,13.991 14.685,14.814 C14.685,14.900 14.685,14.985 14.685,15.110 C14.997,15.110 15.285,15.119 15.573,15.107 C15.775,15.098 15.849,15.163 15.837,15.351 C15.821,15.588 15.829,15.826 15.834,16.063 ZM11.479,11.811 C11.750,11.815 12.022,11.812 12.359,11.812 C12.037,12.480 11.741,13.095 11.413,13.777 C11.716,13.777 11.942,13.777 12.238,13.777 C12.073,14.111 11.938,14.397 11.788,14.675 C11.767,14.713 11.669,14.733 11.607,14.734 C11.230,14.738 10.852,14.744 10.475,14.731 C10.030,14.717 9.858,14.472 10.023,14.093 C10.157,13.785 10.312,13.485 10.455,13.181 C10.494,13.097 10.525,13.009 10.576,12.883 C10.390,12.883 10.247,12.892 10.105,12.881 C9.712,12.851 9.540,12.626 9.690,12.295 C9.977,11.661 10.288,11.036 10.598,10.411 C10.623,10.359 10.709,10.301 10.769,10.299 C11.127,10.289 11.485,10.294 11.903,10.294 C11.811,10.486 11.741,10.633 11.670,10.781 C11.545,11.041 11.418,11.300 11.297,11.562 C11.200,11.770 11.227,11.808 11.479,11.811 ZM10.076,15.083 C10.507,15.133 10.947,15.120 11.383,15.131 C11.483,15.134 11.584,15.131 11.749,15.131 C11.560,15.517 11.403,15.849 11.231,16.174 C11.205,16.221 11.107,16.261 11.043,16.262 C10.572,16.268 10.100,16.273 9.629,16.259 C9.304,16.249 9.271,16.183 9.403,15.916 C9.510,15.701 9.622,15.487 9.715,15.266 C9.785,15.102 9.864,15.058 10.076,15.083 ZM8.457,15.471 C8.156,14.989 8.012,14.465 7.966,13.915 C7.914,13.309 7.864,12.703 7.816,12.097 C7.809,12.013 7.815,11.928 7.815,11.813 C8.186,11.813 8.544,11.806 8.899,11.821 C8.949,11.824 9.027,11.936 9.033,12.003 C9.091,12.585 9.131,13.168 9.187,13.749 C9.208,13.968 9.255,14.185 9.290,14.403 C9.296,14.440 9.312,14.485 9.297,14.516 C9.106,14.919 8.911,15.320 8.695,15.767 C8.593,15.641 8.514,15.562 8.457,15.471 ZM5.936,16.261 C5.552,16.281 5.346,16.169 5.241,15.838 C5.187,15.668 5.092,15.510 4.985,15.283 C5.195,15.283 5.322,15.284 5.449,15.283 C5.788,15.282 5.808,15.264 5.808,14.942 C5.810,13.763 5.812,12.584 5.814,11.405 C5.814,11.120 5.820,10.835 5.812,10.551 C5.807,10.395 5.875,10.341 6.040,10.345 C6.305,10.353 6.572,10.352 6.837,10.344 C6.997,10.340 7.045,10.404 7.045,10.543 C7.043,12.125 7.054,13.708 7.039,15.290 C7.033,15.919 6.626,16.223 5.936,16.261 ZM4.465,15.327 C4.413,15.470 4.294,15.593 4.161,15.794 C3.932,15.327 3.738,14.934 3.547,14.539 C3.531,14.506 3.536,14.462 3.540,14.424 C3.625,13.632 3.720,12.839 3.794,12.046 C3.811,11.863 3.872,11.795 4.071,11.804 C4.327,11.816 4.585,11.812 4.842,11.806 C4.998,11.802 5.058,11.856 5.044,12.002 C4.978,12.711 4.949,13.424 4.843,14.127 C4.782,14.536 4.610,14.932 4.465,15.327 ZM13.000,0.000 C20.180,0.000 25.1000,5.820 25.1000,13.000 C25.1000,20.180 20.180,25.1000 13.000,25.1000 C5.820,25.1000 0.000,20.180 0.000,13.000 C0.000,5.820 5.820,0.000 13.000,0.000 ZM13.000,2.000 C19.075,2.000 23.1000,6.925 23.1000,13.000 C23.1000,19.075 19.075,23.1000 13.000,23.1000 C6.925,23.1000 2.000,19.075 2.000,13.000 C2.000,6.925 6.925,2.000 13.000,2.000 Z"></path>
</svg>