<svg xmlns="http://www.w3.org/2000/svg" xmlns:xlink="http://www.w3.org/1999/xlink" width="26px" height="18px">
<path fill-rule="evenodd" d="M25.983,10.033 C25.959,10.806 25.919,11.576 25.855,12.302 C25.768,13.302 25.643,14.136 25.466,14.762 C25.095,16.091 24.004,17.136 22.614,17.490 C21.795,17.698 20.185,17.828 17.921,17.911 C16.845,17.950 15.693,17.975 14.541,17.989 C13.724,18.000 11.426,17.988 11.459,17.989 C10.307,17.975 9.155,17.950 8.079,17.911 C5.815,17.831 4.205,17.701 3.386,17.490 C1.996,17.136 0.905,16.089 0.534,14.762 C0.360,14.136 0.232,13.302 0.145,12.302 C0.081,11.576 0.041,10.806 0.017,10.033 C0.013,9.812 -0.014,8.924 0.017,7.967 C0.041,7.194 0.081,6.424 0.145,5.698 C0.232,4.698 0.357,3.864 0.534,3.238 C0.905,1.909 1.999,0.864 3.386,0.510 C4.205,0.302 5.815,0.172 8.079,0.089 C9.155,0.050 10.307,0.025 11.459,0.011 C11.426,0.012 13.724,-0.000 14.541,0.011 C15.693,0.025 16.845,0.050 17.921,0.089 C20.185,0.169 21.792,0.299 22.614,0.510 C24.004,0.867 25.095,1.911 25.466,3.238 C25.640,3.864 25.768,4.698 25.855,5.698 C25.919,6.424 25.959,7.194 25.983,7.967 C25.995,8.525 25.982,10.059 25.983,10.033 ZM23.893,8.025 C23.870,7.288 23.832,6.551 23.771,5.867 C23.693,4.975 23.583,4.244 23.446,3.754 C23.267,3.114 22.738,2.610 22.071,2.438 C21.464,2.283 19.927,2.161 17.840,2.083 C16.781,2.044 15.646,2.019 14.512,2.006 C14.536,2.006 12.291,1.994 11.488,2.006 C10.354,2.019 9.216,2.044 8.160,2.083 C6.073,2.158 4.538,2.283 3.929,2.438 C3.262,2.607 2.733,3.114 2.554,3.754 C2.417,4.244 2.307,4.975 2.229,5.867 C2.168,6.551 2.127,7.288 2.107,8.025 C2.094,8.592 2.106,9.947 2.107,9.975 C2.130,10.712 2.168,11.449 2.229,12.133 C2.307,13.025 2.417,13.756 2.554,14.247 C2.733,14.886 3.262,15.391 3.929,15.562 C4.535,15.717 6.073,15.839 8.160,15.917 C9.219,15.956 10.354,15.981 11.488,15.994 C11.464,15.994 13.709,16.006 14.512,15.994 C15.646,15.981 16.784,15.956 17.840,15.917 C19.927,15.842 21.462,15.717 22.071,15.562 C22.738,15.393 23.267,14.886 23.446,14.247 C23.583,13.756 23.693,13.025 23.771,12.133 C23.832,11.449 23.873,10.712 23.893,9.975 C23.898,9.753 23.924,8.925 23.893,8.025 ZM10.417,5.288 L17.150,8.972 L10.417,12.712 L10.417,5.288 Z"></path>
</svg>