<svg t="1660184452409" viewBox="0 0 1024 1024" version="1.1" xmlns="http://www.w3.org/2000/svg" p-id="3471" xmlns:xlink="http://www.w3.org/1999/xlink"><defs><style type="text/css">
</style></defs><path d="M842.42 131.29H180.55c-18.2 0-33.1-14.89-33.1-33.09 0-18.2 14.89-33.1 33.1-33.1h661.88c18.2 0 33.09 14.89 33.09 33.1-0.01 18.2-14.9 33.09-33.1 33.09zM511.49 958.64c-18.2 0-33.1-14.89-33.1-33.09V263.67c0-18.2 14.89-33.1 33.1-33.1 18.2 0 33.09 14.89 33.09 33.1v661.88c0 18.19-14.9 33.09-33.09 33.09z m330.93-364.03c-8.28 0-16.55-3.31-23.17-9.93L511.49 276.9 203.71 584.68c-13.24 13.23-33.09 13.23-46.33 0-13.24-13.24-13.24-33.1 0-46.34L488.32 207.4c13.24-13.23 33.1-13.23 46.33 0l330.94 330.94c13.24 13.24 13.24 33.1 0 46.34-6.62 6.61-14.9 9.93-23.17 9.93z" p-id="3472"></path></svg>