<svg t="1665214902849"  viewBox="0 0 1024 1024" version="1.1" xmlns="http://www.w3.org/2000/svg" p-id="6336"><path d="M888.832 743.0144H138.4448c-15.29173333 0-27.8528-12.56106667-27.8528-27.8528V203.9808c0-15.29173333 12.56106667-27.8528 27.8528-27.8528H888.832c15.29173333 0 27.8528 12.56106667 27.8528 27.8528v510.63466667c0 15.83786667-12.56106667 28.39893333-27.8528 28.39893333z m-722.5344-55.7056h694.6816V232.37973333H166.2976v454.92906667z"  p-id="6337"></path><path d="M513.6384 232.37973333c-15.29173333 0-27.8528-12.56106667-27.8528-27.8528v-65.536c0-15.29173333 12.56106667-27.8528 27.8528-27.8528s27.8528 12.56106667 27.8528 27.8528v64.98986667c0 15.83786667-12.56106667 28.39893333-27.8528 28.39893333z m-344.064 698.50453334c-7.09973333 0-13.65333333-2.73066667-19.11466667-7.64586667-10.92266667-10.92266667-11.4688-28.39893333-0.54613333-39.3216L320.85333333 705.87733333c10.92266667-10.92266667 28.39893333-11.4688 39.3216-0.54613333s11.4688 28.39893333 0.54613334 39.3216L189.78133333 922.69226667c-6.00746667 4.9152-13.1072 8.192-20.20693333 8.192z m691.95093333 0c-7.09973333 0-14.7456-2.73066667-20.20693333-8.73813334L670.37866667 744.10666667c-10.92266667-10.92266667-10.37653333-28.94506667 0.54613333-39.3216s28.94506667-10.37653333 39.3216 0.54613333L881.18613333 883.37066667c10.92266667 10.92266667 10.37653333 28.94506667-0.54613333 39.3216-5.46133333 5.46133333-12.56106667 8.192-19.11466667 8.192zM456.2944 576.44373333c-7.09973333 0-14.7456-1.6384-20.75306667-5.46133333-13.65333333-8.192-21.84533333-22.9376-21.84533333-41.50613333V400.5888c0-18.56853333 8.192-33.31413333 21.84533333-41.50613333s31.1296-7.09973333 46.96746667 1.6384L593.92 425.1648c15.83786667 9.28426667 25.12213333 23.48373333 25.12213333 39.86773333s-9.28426667 30.58346667-25.12213333 39.86773334L481.96266667 569.344c-8.73813333 4.9152-17.47626667 7.09973333-25.66826667 7.09973333z m12.56106667-158.37866666v94.48106666l81.92-46.96746666-81.92-47.5136z"  p-id="6338"></path></svg>