<svg t="1665286257522"  viewBox="0 0 1024 1024" version="1.1" xmlns="http://www.w3.org/2000/svg" p-id="3551">
<path d="M112 195.84A83.84 83.84 0 0 1 195.84 112h202.992a83.84 83.84 0 0 1 83.84 83.84v202.992a83.84 83.84 0 0 1-83.84 
 83.84H195.84A83.84 83.84 0 0 1 112 398.832V195.84zM195.84 176A19.84 19.84 0 0 0 176 195.84v202.992c0 10.96 8.88 19.84 19.84 
  19.84h202.992a19.84 19.84 0 0 0 19.84-19.84V195.84A19.84 19.84 0 0 0 398.832 176H195.84z m345.488 19.84A83.84 83.84 0 0 1 
   625.168 112H828.16A83.84 83.84 0 0 1 912 195.84v202.992a83.84 83.84 0 0 1-83.84 83.84H625.184a83.84 83.84 0 0 1-83.84-83.84V195.84z 
    m83.84-19.84a19.84 19.84 0 0 0-19.84 19.84v202.992c0 10.96 8.88 19.84 19.84 19.84H828.16A19.84 19.84 0 0 0 848 398.832V195.84A19.84 
     19.84 0 0 0 828.16 176H625.184zM112 625.168a83.84 83.84 0 0 1 83.84-83.84h202.992a83.84 83.84 0 0 1 83.84 83.84V828.16A83.84 83.84 0 0 
      1 398.832 912H195.84A83.84 83.84 0 0 1 112 828.16V625.184z m83.84-19.84a19.84 19.84 0 0 0-19.84 19.84V828.16c0 10.944 8.88 19.824 19.84  
      19.824h202.992a19.84 19.84 0 0 0 19.84-19.84V625.184a19.84 19.84 0 0 0-19.84-19.84H195.84z m345.488-32a32 32 0 0 1 32-32h88.16a32 32 0 0 1 32 32v86.832h49.088v-86.832a32 32 0 0 1 32-32h95.84a32 32 0 0 1 0 64h-63.84v86.832a32 32 0 0 1-32 32h-113.072a32 32 0 0 1-32-32v-86.832h-24.16v92.592a32 32 0 1 1-64 0v-124.592z m329.088 54.256a32 32 0 0 1 32 32v53.184a32 32 0 0 1-64 0v-53.184a32 32 0 0 1 32-32z m-240.912 150.832a32 32 0 0 1 32-32h134.16a32 32 0 0 1 0 64h-102.16v29.92H838.4v-21.184a32 32
       0 0 1 64 0v53.184a32 32 0 0 1-32 32H661.504a32 32 0 0 1-32-32v-93.92z m-56.16-12.832a32 32 0 0
       1 32 32v74.752a32 32 0 1 1-64 0v-74.752a32 32 0 0 1 32-32z" p-id="3552"></path></svg>