<svg t="1660184905875" viewBox="0 0 1024 1024" version="1.1" xmlns="http://www.w3.org/2000/svg" p-id="24474" xmlns:xlink="http://www.w3.org/1999/xlink" width="200" height="200"><defs><style type="text/css">
</style></defs><path d="M804.867649 519.752294c-18.652828 0-36.709604 18.665472-36.709605 37.330944 0 18.652828 18.056776 
37.3183 36.709605 37.3183 28.308878 0 45.756958-19.274168 45.756957-37.3183 
0-18.06942-17.446274-37.330944-45.756957-37.330944zM612.841233 519.752294c-18.665472
 0-37.330944 18.665472-37.330944 37.330944 0 18.652828 18.665472 37.3183 37.330944 37.3183 
 28.296234 0 45.756958-19.274168 45.756957-37.3183 0-18.06942-17.460724-37.330944-45.756957-37.330944z" p-id="24475">
 </path>
 <path d="M904.809384 843.033066c7.62044 25.079357 15.253523 50.162327 22.873963 75.24349 1.811638 7.210428 0 
 14.446143-6.020129 19.261525-3.001937 3.003743-7.224878 4.206685-11.442401 4.206685-3.001937 0-6.020129-1.202942-8.426013-2.393241l-89.69144-48.77515c-34.314557 8.42782-68.629115 16.259588-102.336783 16.259587-133.647597 0-252.850856-72.837606-297.390422-181.205355-9.022066 4.219329-36.724054 6.627019-43.957963 6.627019-38.521242 0-69.819413-6.627019-105.934771-13.850091h-0.60689l-13.851897-3.016386c-38.918611 19.471046-77.849865 38.945704-116.781119 58.404106-6.020129 3.003743-14.446143 2.407691-19.870221-2.40769-5.411434-4.826218-7.817318-12.038453-5.411433-19.272362 10.226815-30.889965 20.466273-61.790768 30.691281-92.693377C46.961706 593.792842 0 509.512836 0 416.808622 0 242.824532 164.962024 101.357811 368.41639 101.357811c179.406361 0 338.333805 111.980188 370.240672 260.063091v3.623276c75.853993 6.614376 147.48685 37.3183 201.062932 87.28375 54.184778 50.559695 84.2782 115.578177 84.2782 183.016993 0.001806 72.8358-42.740571 146.874542-119.18881 207.688145z m68.618277-207.093899c0-121.61095-121.002254-223.945926-264.874859-223.945926-146.282102 0-265.472718 100.537788-265.472718 223.945926s119.190616 223.933283 265.472718 223.933283c31.906867 0 64.42243-8.426014 95.722407-16.243332 1.204748-0.596052 3.01458-0.596052 4.219328-0.596052 3.003743 0 6.020129 1.190299 8.42782 2.393241 18.056776 9.831253 36.113552 19.671536 54.168522 29.500982-4.206685-14.245653-8.426014-28.494918-12.632699-42.740571-2.407691-6.614376 0-14.446143 6.020129-18.665472 71.034999-52.969192 109.556242-116.188679 108.949352-177.582079zM161.335135 711.77871c26.695924-13.440079 53.379204-26.880158 80.073321-40.320237 3.612439-1.215586 7.831768-1.811638 11.4424-1.215586 6.415692 1.215586 12.833189 2.420334 19.261525 3.623276 31.906867 6.628825 61.406043 12.647149 95.707957 12.647149 10.237652 0 20.47711-0.60689 30.107872-1.217392h2.40769c-5.424077-19.261524-7.831768-38.521242-7.831767-57.186714 0-141.466721 133.040707-258.26229 297.392228-261.860279C659.788489 241.62159 521.932401 147.712628 367.820338 147.712628c-176.375524 0-319.655689 121.002254-319.65569 269.70469 0 82.466562 42.742377 154.112063 127.022384 213.097772 6.612569 4.829831 9.03471 12.647149 6.612569 19.87022-6.811254 20.464467-13.636957 40.928933-20.464466 61.3934z" fill="#231815" p-id="24476"></path><path d="M299.798113 311.468097c0-27.093292-18.663666-45.758764-45.756958-45.758764-26.48279 0-54.779024 17.44808-54.779024 45.758764 0 28.281784 28.296234 45.742508 54.779024 45.742507 27.701988 0.597859 45.756958-18.05497 45.756958-45.742507zM499.063856 357.808463c27.685732 0 45.756958-18.652828 45.756958-45.74612
  0-27.091486-18.665472-45.744314-45.756958-45.744314-26.486402 0-54.78083 17.449886-54.78083 45.744314
   0 27.687538 28.294428 45.74612 54.78083 45.74612z" p-id="24477"></path></svg>