<svg 
 xmlns="http://www.w3.org/2000/svg"
 xmlns:xlink="http://www.w3.org/1999/xlink"
 width="20px" height="25px">
<path 
 d="M19.715,10.541 C17.868,10.541 16.72,9.921 14.595,8.775 L14.595,16.772 C14.595,20.855 11.548,24.163 7.788,24.163 C4.28,24.163 0.981,20.855 0.981,16.772 C0.981,12.689 4.28,9.381 7.788,9.381 C8.163,9.381 8.529,9.414 8.886,9.478 L8.886,13.714 C8.545,13.575 8.182,13.505 7.816,13.505 C6.139,13.505 4.779,14.980 4.779,16.804 C4.779,18.623 6.139,20.102 7.818,20.102 C9.494,20.102 10.854,18.623 10.854,16.804 L10.854,0.921 L14.651,0.921 C14.651,3.975 16.931,6.450 19.744,6.450 L19.744,10.541 L19.715,10.541 "/>
</svg>