<svg 
 xmlns="http://www.w3.org/2000/svg"
 xmlns:xlink="http://www.w3.org/1999/xlink"
 width="28px" height="24px">
<path 
 d="M8.929,23.708 C19.276,23.708 24.934,14.767 24.934,7.15 C24.934,6.761 24.929,6.508 24.918,6.256 C26.16,5.428 26.971,4.395 27.724,3.218 C26.716,3.684 25.632,3.999 24.494,4.141 C25.655,3.415 26.547,2.266 26.967,0.896 C25.880,1.569 24.677,2.57 23.396,2.320 C22.369,1.180 20.907,0.466 19.290,0.466 C16.183,0.466 13.663,3.94 13.663,6.333 C13.663,6.794 13.713,7.242 13.810,7.671 C9.134,7.427 4.989,5.91 2.215,1.541 C1.731,2.408 1.453,3.415 1.453,4.490 C1.453,6.526 2.446,8.322 3.956,9.374 C3.33,9.345 2.167,9.80 1.408,8.639 C1.407,8.665 1.407,8.689 1.407,8.715 C1.407,11.557 3.346,13.928 5.920,14.467 C5.448,14.601 4.950,14.674 4.437,14.674 C4.75,14.674 3.722,14.636 3.380,14.568 C4.96,16.898 6.173,18.595 8.635,18.642 C6.709,20.216 4.284,21.154 1.648,21.154 C1.194,21.154 0.747,21.127 0.306,21.73 C2.796,22.736 5.752,23.708 8.929,23.708 "/>
</svg>