<svg 
 xmlns="http://www.w3.org/2000/svg"
 xmlns:xlink="http://www.w3.org/1999/xlink"
 width="30px" height="24px">
<path 
 d="M29.331,10.500 C29.240,10.774 29.46,11.6 28.788,11.147 C28.516,11.287 28.245,11.303 27.941,11.210 C27.660,11.121 27.427,10.923 27.304,10.659 C27.162,10.390 27.146,10.124 27.224,9.824 C27.527,8.958 27.576,8.28 27.382,7.68 C27.198,6.124 26.752,5.252 26.89,4.548 C25.420,3.808 24.622,3.302 23.698,3.19 C22.796,2.735 21.833,2.687 20.905,2.875 C20.614,2.941 20.307,2.885 20.59,2.719 C19.803,2.563 19.645,2.324 19.580,2.24 C19.516,1.725 19.564,1.458 19.739,1.206 C19.894,0.957 20.149,0.784 20.443,0.731 C21.768,0.448 23.74,0.511 24.383,0.919 C25.675,1.327 26.791,2.38 27.734,3.76 C28.665,4.74 29.292,5.306 29.554,6.638 C29.825,7.993 29.760,9.269 29.331,10.500 ZM21.668,6.383 C21.416,6.438 21.154,6.393 20.934,6.259 C20.711,6.116 20.566,5.927 20.537,5.660 C20.488,5.408 20.521,5.172 20.666,4.948 C20.808,4.726 21.2,4.586 21.258,4.538 C22.566,4.268 23.924,4.707 24.812,5.691 C25.259,6.195 25.562,6.778 25.688,7.425 C25.815,8.72 25.785,8.702 25.575,9.299 C25.495,9.550 25.336,9.726 25.97,9.849 C24.858,9.961 24.619,9.994 24.380,9.914 C24.137,9.843 23.937,9.671 23.837,9.442 C23.723,9.206 23.694,8.970 23.772,8.732 C23.979,8.53 23.853,7.469 23.391,6.950 C22.912,6.447 22.337,6.256 21.668,6.383 ZM22.40,8.135 C22.518,8.814 22.518,9.757 22.40,10.988 C22.30,11.95 22.4,11.204 21.959,11.303 C21.927,11.379 21.959,11.442 22.40,11.507 C22.101,11.555 22.166,11.596 22.230,11.634 C22.279,11.650 22.376,11.681 22.502,11.729 C23.87,11.908 23.643,12.159 24.160,12.484 C24.654,12.797 25.87,13.224 25.452,13.791 C25.818,14.349 26.12,14.998 26.18,15.670 C26.18,16.393 25.824,17.137 25.427,17.907 C25.29,18.665 24.438,19.405 23.672,20.100 C22.844,20.832 21.927,21.459 20.944,21.972 C19.907,22.523 18.695,22.964 17.292,23.294 C15.905,23.623 14.438,23.783 12.922,23.798 C11.426,23.805 9.936,23.623 8.485,23.263 C7.50,22.900 5.741,22.412 4.610,21.781 C3.460,21.151 2.535,20.348 1.834,19.371 C1.132,18.376 0.780,17.322 0.780,16.171 C0.780,14.945 1.145,13.638 1.895,12.248 C2.645,10.859 3.715,9.489 5.85,8.119 C6.905,6.322 8.737,5.63 10.608,4.338 C12.460,3.631 13.798,3.662 14.580,4.449 C15.279,5.125 15.392,6.243 14.897,7.788 C14.849,7.928 14.849,8.41 14.881,8.104 C14.910,8.167 14.972,8.209 15.39,8.215 C15.120,8.234 15.201,8.228 15.279,8.199 C15.356,8.186 15.430,8.167 15.501,8.135 L15.598,8.104 C17.98,7.473 18.423,7.157 19.571,7.157 C20.715,7.157 21.545,7.489 22.40,8.135 ZM11.798,10.812 C9.409,11.64 7.415,11.803 5.835,13.80 C4.258,14.339 3.540,15.756 3.699,17.318 C3.792,18.344 4.274,19.259 5.134,20.46 C5.993,20.832 7.112,21.416 8.498,21.794 C9.884,22.173 11.352,22.282 12.932,22.126 C15.321,21.874 17.315,21.136 18.895,19.857 C20.476,18.580 21.193,17.162 21.31,15.604 C20.938,14.578 20.456,13.663 19.596,12.877 C18.737,12.90 17.618,11.507 16.232,11.128 C14.845,10.764 13.378,10.656 11.798,10.812 ZM13.436,20.565 C12.224,21.84 11.12,21.147 9.817,20.753 C8.669,20.389 7.871,19.714 7.441,18.736 C7.11,17.745 7.44,16.754 7.554,15.745 C8.65,14.752 8.876,14.10 9.994,13.523 C11.125,13.36 12.260,12.925 13.391,13.224 C14.590,13.539 15.433,14.167 15.944,15.130 C16.471,16.91 16.487,17.98 15.990,18.167 C15.511,19.259 14.648,20.61 13.436,20.565 ZM11.843,17.290 C11.733,16.912 11.491,16.642 11.109,16.486 C10.731,16.339 10.311,16.334 9.930,16.470 C9.516,16.610 9.180,16.847 8.957,17.210 C8.718,17.573 8.653,17.932 8.750,18.312 C8.847,18.676 9.86,18.939 9.451,19.115 C9.817,19.287 10.217,19.302 10.647,19.162 C11.93,19.7 11.429,18.755 11.668,18.391 C11.892,18.29 11.956,17.665 11.843,17.290 ZM13.249,16.32 C13.204,15.894 13.97,15.786 12.961,15.731 C12.648,15.636 12.308,15.767 12.147,16.46 C11.972,16.375 12.37,16.613 12.354,16.770 C12.502,16.818 12.664,16.818 12.816,16.770 C12.978,16.718 13.113,16.604 13.184,16.454 C13.265,16.311 13.298,16.167 13.249,16.32 Z"/>
</svg>