<svg 
 xmlns="http://www.w3.org/2000/svg"
 xmlns:xlink="http://www.w3.org/1999/xlink"
 width="17px" height="17px">
<path
 d="M8.933,16.123 C4.517,16.123 0.936,12.541 0.936,8.123 L0.936,8.111 C0.939,3.697 4.519,0.120 8.931,0.123 L8.933,0.123 L8.933,0.123 C13.349,0.123 16.930,3.705 16.930,8.124 C16.930,12.541 13.349,16.123 8.933,16.123 ZM12.673,8.922 C12.667,8.771 12.545,8.653 12.395,8.652 L12.395,8.653 L8.933,8.653 L8.933,5.191 C8.933,5.44 8.817,4.925 8.671,4.921 L8.139,4.921 C7.993,4.922 7.876,5.42 7.877,5.189 L7.877,9.454 C7.877,9.602 7.992,9.716 8.140,9.725 L12.403,9.725 C12.551,9.724 12.672,9.603 12.673,9.454 L12.673,8.922 Z"/>
</svg>