<svg 
 xmlns="http://www.w3.org/2000/svg"
 xmlns:xlink="http://www.w3.org/1999/xlink"
 width="30px" height="24px">
<path
 d="M29.139,16.261 L29.139,16.260 C29.47,17.593 28.545,18.767 27.718,19.807 C27.286,20.350 26.785,20.831 26.226,21.242 C25.914,21.474 25.854,21.640 25.953,22.11 C26.83,22.501 26.213,22.987 26.349,23.478 C26.388,23.618 26.383,23.749 26.256,23.841 C26.134,23.939 26.9,23.908 25.886,23.837 C25.278,23.487 24.666,23.141 24.62,22.789 C23.809,22.633 23.499,22.593 23.213,22.680 C20.863,23.309 18.559,23.178 16.333,22.193 C14.710,21.477 13.402,20.391 12.533,18.833 C11.969,17.838 11.702,16.703 11.762,15.562 C11.832,14.134 12.364,12.876 13.279,11.780 C14.417,10.414 15.889,9.545 17.588,9.44 C18.585,8.758 19.619,8.625 20.657,8.647 C22.137,8.657 23.596,9.6 24.918,9.669 C26.480,10.447 27.726,11.564 28.512,13.133 C29.5,14.120 29.214,15.169 29.139,16.261 ZM17.556,12.395 C17.89,12.400 16.670,12.682 16.492,13.110 C16.314,13.537 16.412,14.30 16.741,14.360 C16.957,14.575 17.250,14.693 17.556,14.693 C17.864,14.694 18.160,14.573 18.376,14.356 C18.593,14.138 18.713,13.845 18.709,13.540 C18.707,12.909 18.192,12.397 17.556,12.395 ZM23.354,12.395 C22.718,12.400 22.203,12.909 22.197,13.540 C22.223,14.152 22.728,14.636 23.346,14.640 C23.964,14.643 24.476,14.164 24.508,13.553 C24.509,12.917 23.994,12.401 23.354,12.395 ZM16.777,8.580 C14.988,9.210 13.473,10.219 12.334,11.742 C11.545,12.776 11.69,14.11 10.962,15.304 C10.887,16.162 10.986,17.25 11.253,17.845 C11.286,17.950 11.277,17.976 11.157,17.978 L11.160,17.979 C9.863,18.24 8.568,17.868 7.321,17.515 C7.25,17.429 6.706,17.469 6.443,17.629 L4.253,18.887 L4.164,18.937 C4.21,19.20 3.880,19.31 3.744,18.921 C3.609,18.817 3.592,18.673 3.633,18.521 C3.682,18.327 3.739,18.134 3.791,17.942 C3.904,17.526 4.19,17.108 4.129,16.688 C4.229,16.305 4.144,16.68 3.822,15.831 C3.220,15.393 2.672,14.886 2.190,14.323 C1.228,13.188 0.585,11.904 0.362,10.433 C0.116,8.883 0.386,7.295 1.130,5.912 C1.992,4.269 3.295,3.54 4.908,2.153 C6.205,1.434 7.632,0.971 9.107,0.793 C9.642,0.725 10.180,0.691 10.719,0.692 C12.409,0.679 14.82,1.28 15.625,1.710 C17.492,2.545 19.25,3.771 20.87,5.533 C20.517,6.250 20.820,7.18 20.989,7.837 C21.23,7.981 21.20,7.981 20.872,7.976 C19.481,7.920 18.91,8.123 16.777,8.580 ZM7.236,5.188 C6.491,5.223 5.905,5.833 5.907,6.573 C5.909,7.312 6.498,7.920 7.243,7.949 C7.988,7.915 8.574,7.306 8.572,6.567 C8.570,5.826 7.981,5.220 7.236,5.188 ZM14.181,5.191 C13.436,5.228 12.852,5.839 12.857,6.579 C12.861,7.319 13.453,7.924 14.198,7.951 L14.195,7.949 C14.947,7.923 15.541,7.309 15.537,6.563 C15.533,5.818 14.933,5.210 14.181,5.191 Z"/>
</svg>