<?xml version="1.0" standalone="no"?><!DOCTYPE svg PUBLIC "-//W3C//DTD SVG 1.1//EN" "http://www.w3.org/Graphics/SVG/1.1/DTD/svg11.dtd"><svg t="1688029611175" viewBox="0 0 1024 1024" version="1.1" xmlns="http://www.w3.org/2000/svg" p-id="9151" xmlns:xlink="http://www.w3.org/1999/xlink" width="200" height="200"><path d="M796.949333 736.896c47.36-19.242667 80.768-64.853333 80.768-118.229333 0-70.826667-58.816-128-131.050666-128-7.253333 0-14.378667 0.576-21.333334 1.706666V213.248A85.269333 85.269333 0 0 0 640.064 128H213.269333A85.248 85.248 0 0 0 128 213.12V597.226667C128 620.864 147.008 640 170.453333 640h34.048l-59.584 59.584a21.333333 21.333333 0 0 0 30.165334 30.165333l64.874666-64.874666A21.333333 21.333333 0 0 0 243.84 640h373.589333c7.552 43.968 38.037333 80.277333 78.933334 96.896-85.824 21.738667-149.333333 97.770667-149.333334 188.437333h42.666667c0-83.818667 70.165333-152 156.970667-152 86.826667 0 156.949333 68.181333 156.949333 152h42.666667c0-90.666667-63.488-166.698667-149.333334-188.437333zM617.429333 597.333333H170.453333C170.666667 597.333333 170.666667 213.12 170.666667 213.12 170.666667 189.738667 189.781333 170.666667 213.269333 170.666667h426.794667C663.594667 170.666667 682.666667 189.738667 682.666667 213.269333v293.674667c-33.92 18.581333-58.56 51.477333-65.237334 90.389333zM576 682.666667H277.333333v42.666666h298.666667v-42.666666z m-309.333333-149.333334a32 32 0 1 0 0-64 32 32 0 0 0 0 64z m320 0a32 32 0 1 0 0-64 32 32 0 0 0 0 64z m96-149.333333H170.666667v42.666667h512v-42.666667z m-24.384 234.666667c0-46.997333 39.445333-85.333333 88.384-85.333334 48.938667 0 88.384 38.336 88.384 85.333334 0 46.997333-39.445333 85.333333-88.384 85.333333-48.938667 0-88.384-38.336-88.384-85.333333z" fill="#3D3D3D" p-id="9152"></path></svg>