<?xml version="1.0" standalone="no"?><!DOCTYPE svg PUBLIC "-//W3C//DTD SVG 1.1//EN" "http://www.w3.org/Graphics/SVG/1.1/DTD/svg11.dtd"><svg t="1688029804939" viewBox="0 0 1024 1024" version="1.1" xmlns="http://www.w3.org/2000/svg" p-id="14415" xmlns:xlink="http://www.w3.org/1999/xlink" width="200" height="200"><path d="M512 128C170.666667 128 42.666667 512 42.666667 512s128 383.978667 469.333333 384c341.333333 0.021333 469.333333-384 469.333333-384S853.333333 128 512 128z m0.042667 725.333333H512c-126.976 0-237.141333-58.432-327.488-173.610666C130.474667 610.794667 99.584 540.693333 88.213333 512 113.941333 447.104 239.637333 170.666667 512 170.666667c126.976 0 237.141333 58.410667 327.488 173.610666 54.037333 68.906667 84.928 139.029333 96.298667 167.722667-11.392 28.736-42.282667 98.837333-96.298667 167.744C749.162667 794.944 638.997333 853.333333 512.042667 853.333333zM512 256c-141.376 0-256 114.624-256 256s114.624 256 256 256 256-114.624 256-256-114.624-256-256-256z m0 469.333333c-117.632 0-213.333333-95.701333-213.333333-213.333333s95.701333-213.333333 213.333333-213.333333 213.333333 95.701333 213.333333 213.333333-95.701333 213.333333-213.333333 213.333333z m0-362.666666a21.333333 21.333333 0 0 0 0 42.666666c58.816 0 106.666667 47.850667 106.666667 106.666667a21.333333 21.333333 0 0 0 42.666666 0c0-82.346667-66.986667-149.333333-149.333333-149.333333z" fill="#3D3D3D" p-id="14416"></path></svg>