<?xml version="1.0" standalone="no"?><!DOCTYPE svg PUBLIC "-//W3C//DTD SVG 1.1//EN" "http://www.w3.org/Graphics/SVG/1.1/DTD/svg11.dtd"><svg t="1688029847820" viewBox="0 0 1024 1024" version="1.1" xmlns="http://www.w3.org/2000/svg" p-id="15586" xmlns:xlink="http://www.w3.org/1999/xlink" width="200" height="200"><path d="M770.602667 725.333333c-2.218667 85.525333-17.728 160.426667-43.178667 207.402667 94.314667-26.453333 165.013333-108.202667 173.952-207.402667h-130.773333z m0-42.666666h130.773333c-5.696-63.104-36.522667-120.725333-85.504-161.152a21.333333 21.333333 0 1 1 27.157333-32.896c64.149333 52.949333 101.973333 131.114667 101.973334 215.381333 0 154.944-127.061333 280.469333-283.669334 280.469333S377.664 858.944 377.664 704v-21.333333h174.4c0.64-22.72 2.218667-44.949333 4.736-66.282667a21.333333 21.333333 0 1 1 42.368 5.013333c-2.325333 19.690667-3.818667 40.234667-4.416 61.269334h133.162667c-1.237333-43.477333-6.272-84.608-14.506667-119.957334a21.333333 21.333333 0 1 1 41.557333-9.685333c8.981333 38.549333 14.378667 82.944 15.637334 129.642667z m-42.709334 42.666666h-133.12c3.626667 121.493333 37.546667 216.469333 66.56 216.469334S724.266667 846.826667 727.893333 725.333333z m-175.829333 0h-130.773333c8.938667 99.2 79.637333 180.928 173.952 207.402667-25.450667-46.976-40.96-121.877333-43.178667-207.402667zM331.562667 121.856l271.146666 154.794667 210.922667-121.792a106.688 106.688 0 0 1 106.773333 184.704L252.992 724.885333a21.333333 21.333333 0 0 1-24.64-2.346666l-188.117333-163.349334c-20.608-16.853333-18.346667-45.738667 4.757333-59.093333l74.602667-43.072a21.333333 21.333333 0 0 1 16.128-2.133333l108.544 28.693333 135.232-78.08-187.946667-181.205333c-18.645333-17.962667-15.296-46.293333 7.189333-59.306667l74.730667-43.136c16.682667-9.621333 41.472-9.642667 58.090667 0zM133.333333 498.389333l-58.88 33.984 170.410667 147.968 654.229333-377.728a64.021333 64.021333 0 0 0-64.106666-110.805333l-221.525334 127.914667a21.333333 21.333333 0 0 1-21.248 0.042666L310.293333 158.826667c-3.52-2.026667-12.010667-2.026667-15.488 0L226.176 198.4l203.328 196.053333a21.333333 21.333333 0 0 1-4.138667 33.834667l-167.381333 96.64a21.333333 21.333333 0 0 1-16.106667 2.133333l-108.565333-28.693333z" fill="#3D3D3D" p-id="15587"></path></svg>