<?xml version="1.0" standalone="no"?><!DOCTYPE svg PUBLIC "-//W3C//DTD SVG 1.1//EN" "http://www.w3.org/Graphics/SVG/1.1/DTD/svg11.dtd"><svg t="1688030007427" viewBox="0 0 1024 1024" version="1.1" xmlns="http://www.w3.org/2000/svg" p-id="19103" xmlns:xlink="http://www.w3.org/1999/xlink" width="200" height="200"><path d="M128.576 490.666667H192c11.776 0 21.333333 9.472 21.333333 21.333333 0 11.776-9.472 21.333333-21.333333 21.333333H128.576C139.264 728.426667 295.573333 884.736 490.666667 895.424V832c0-11.861333 9.557333-21.333333 21.333333-21.333333 11.861333 0 21.333333 9.557333 21.333333 21.333333v63.424c195.093333-10.688 351.402667-166.997333 362.090667-362.090667H832c-11.776 0-21.333333-9.472-21.333333-21.333333 0-11.776 9.472-21.333333 21.333333-21.333333h63.424C884.736 295.573333 728.426667 139.264 533.333333 128.576V192c0 11.776-9.472 21.333333-21.333333 21.333333-11.776 0-21.333333-9.472-21.333333-21.333333V128.576C295.573333 139.264 139.264 295.573333 128.576 490.666667zM512 938.666667C276.352 938.666667 85.333333 747.648 85.333333 512S276.352 85.333333 512 85.333333s426.666667 191.018667 426.666667 426.666667-191.018667 426.666667-426.666667 426.666667z m185.621333-632.32a14.464 14.464 0 0 1 20.053334 20.053333l-154.666667 232.533333a14.72 14.72 0 0 1-4.053333 4.053334l-232.597334 154.709333a14.485333 14.485333 0 0 1-20.053333-20.053333l154.709333-232.597334a14.4 14.4 0 0 1 4.053334-4.032L697.6 306.346667zM370.218667 653.781333l170.304-113.28-57.024-57.002666-113.28 170.282666z" fill="#3D3D3D" p-id="19104"></path></svg>