<?xml version="1.0" standalone="no"?><!DOCTYPE svg PUBLIC "-//W3C//DTD SVG 1.1//EN" "http://www.w3.org/Graphics/SVG/1.1/DTD/svg11.dtd"><svg t="1688029657534" viewBox="0 0 1024 1024" version="1.1" xmlns="http://www.w3.org/2000/svg" p-id="10027" xmlns:xlink="http://www.w3.org/1999/xlink" width="200" height="200"><path d="M586.048 264.170667a68.032 68.032 0 0 0-68.053333-117.781334L407.594667 210.346667 263.893333 128.298667c-12.032-6.976-29.290667-6.976-41.408 0.021333L181.546667 151.936c-17.877333 10.325333-20.608 33.493333-5.802667 47.765333l93.909333 90.026667s-57.770667 35.093333-60.416 34.389333l-54.848-14.570666a21.333333 21.333333 0 0 0-16.128 2.133333l-40.832 23.594667c-18.474667 10.666667-20.373333 34.645333-3.882666 48.149333l102.698666 89.173333a21.333333 21.333333 0 0 0 24.661334 2.368l140.992-81.386666 102.890666-59.413334 60.608-34.986666 60.629334-35.008z m-142.570667 33.045333l-102.890666 59.413333-127.466667 74.133334-78.4-67.733334 17.344-9.962666 55.466667 14.656a21.333333 21.333333 0 0 0 16.128-2.133334l91.562666-52.885333a21.333333 21.333333 0 0 0 4.138667-33.834667l-103.104-97.685333 27.52-15.914667c-1.066667 0.64 153.088 88.106667 153.088 88.106667a21.333333 21.333333 0 0 0 21.248-0.064l121.194667-69.973333a25.365333 25.365333 0 0 1 25.386666 43.882666l-60.608 34.986667-60.608 35.008zM521.152 896a79.466667 79.466667 0 0 1-78.016 64c-40.384 0-73.130667-28.8-79.381333-66.410667A85.333333 85.333333 0 0 1 298.666667 810.56V668.8c0-23.637333 18.986667-42.794667 32-42.794667L426.666667 426.666667h384l96 199.317333c17.664 0 32 18.986667 32 42.794667v141.781333a85.397333 85.397333 0 0 1-65.066667 83.029333A79.466667 79.466667 0 0 1 795.136 960a79.893333 79.893333 0 0 1-78.933333-64h-195.050667z m195.029333-42.666667h35.029334l6.826666 34.346667c3.392 17.066667 18.517333 29.653333 36.16 29.653333 19.072 0 34.389333-13.098667 37.312-30.72l4.586667-27.818666 27.413333-6.677334A42.709333 42.709333 0 0 0 896 810.56V668.8l-16.149333-0.128-11.626667-24.149333L784.106667 469.333333l-330.986667 0.725334-84.010667 174.442666-11.626666 24.149334S341.333333 668.032 341.333333 668.8v141.781333a42.666667 42.666667 0 0 0 32.490667 41.578667l27.392 6.634667 4.608 27.818666A36.949333 36.949333 0 0 0 442.197333 917.333333c18.666667 0 33.706667-12.522667 37.098667-29.589333L486.08 853.333333h230.101333zM442.666667 638.357333h342.848v45.952H442.666667v-45.952zM426.666667 800.938667c17.664 0 32-14.229333 32-31.786667 0-17.578667-14.336-31.829333-32-31.829333s-32 14.250667-32 31.808c0 17.578667 14.336 31.808 32 31.808z m384 0c17.664 0 32-14.229333 32-31.786667 0-17.578667-14.336-31.829333-32-31.829333s-32 14.250667-32 31.808c0 17.578667 14.336 31.808 32 31.808zM533.333333 384c0 0.085333 170.773333 0 170.773334 0-0.042667 0-0.106667 21.333333-0.106667 21.333333h42.666667v-21.333333c0-23.616-19.029333-42.666667-42.56-42.666667h-170.88A42.752 42.752 0 0 0 490.666667 384v21.333333h42.666666v-21.333333z" fill="#3D3D3D" p-id="10028"></path></svg>