<?xml version="1.0" standalone="no"?><!DOCTYPE svg PUBLIC "-//W3C//DTD SVG 1.1//EN" "http://www.w3.org/Graphics/SVG/1.1/DTD/svg11.dtd"><svg t="1688030020608" viewBox="0 0 1024 1024" version="1.1" xmlns="http://www.w3.org/2000/svg" p-id="19541" xmlns:xlink="http://www.w3.org/1999/xlink" width="200" height="200"><path d="M981.333333 521.706667a120.234667 120.234667 0 0 1-116.8 120.192c-50.517333 148.48-190.997333 252.16-352.533333 252.16-161.536 0-302.016-103.68-352.533333-252.16a120.234667 120.234667 0 0 1 0-240.405334C209.984 253.013333 350.464 149.333333 512 149.333333c161.536 0 302.016 103.68 352.533333 252.16A120.234667 120.234667 0 0 1 981.333333 521.706667zM512 192c-157.141333 0-288.618667 109.952-321.685333 257.109333a77.568 77.568 0 1 0 0 145.194667c33.066667 147.157333 164.544 257.088 321.685333 257.088 157.141333 0 288.618667-109.930667 321.685333-257.109333a77.568 77.568 0 1 0 0-145.194667C800.618667 301.973333 669.141333 192 512 192z m170.666667 320a42.666667 42.666667 0 1 1 0-85.333333 42.666667 42.666667 0 0 1 0 85.333333z m-319.466667 104.725333a21.333333 21.333333 0 0 1 42.496 3.882667c-0.234667 2.666667-0.362667 5.333333-0.362667 8.021333 0 52.586667 47.36 96 106.666667 96s106.666667-43.413333 106.666667-96c0-2.496-0.106667-4.992-0.32-7.466666a21.333333 21.333333 0 1 1 42.517333-3.626667c0.32 3.690667 0.469333 7.381333 0.469333 11.093333 0 77.013333-67.242667 138.666667-149.333333 138.666667s-149.333333-61.653333-149.333333-138.666667c0-3.989333 0.192-7.957333 0.533333-11.904z m69.76-345.706666c0 39.018667 66.624 97.706667 110.506667 97.706666 1.472-6.613333 3.584-15.018667 6.058666-22.677333 6.101333-18.901333 9.834667-26.709333 19.370667-43.370667a122.453333 122.453333 0 0 0 5.034667-9.450666c3.157333-6.762667 5.973333-15.018667 9.002666-27.306667a21.333333 21.333333 0 1 1 41.429334 10.197333c-3.669333 14.869333-7.36 25.749333-11.797334 35.2a161.472 161.472 0 0 1-6.634666 12.586667c-8.192 14.293333-10.773333 19.669333-15.808 35.264-4.181333 12.906667-8.085333 34.645333-8.512 35.797333-4.032 10.88-12.970667 16.106667-23.552 16.64-2.346667 0.106667-12.16-0.213333-14.890667-0.213333-66.026667 0-152.853333-76.501333-152.853333-140.373333a21.333333 21.333333 0 1 1 42.666666 0zM341.333333 512a42.666667 42.666667 0 1 1 0-85.333333 42.666667 42.666667 0 0 1 0 85.333333z" fill="#3D3D3D" p-id="19542"></path></svg>