<?xml version="1.0" standalone="no"?><!DOCTYPE svg PUBLIC "-//W3C//DTD SVG 1.1//EN" "http://www.w3.org/Graphics/SVG/1.1/DTD/svg11.dtd"><svg t="1688029621094" viewBox="0 0 1024 1024" version="1.1" xmlns="http://www.w3.org/2000/svg" p-id="9443" xmlns:xlink="http://www.w3.org/1999/xlink" width="200" height="200"><path d="M127.530667 576a64.042667 64.042667 0 0 1-63.978667-64c0-35.413333 28.608-64 64.085333-64H383.573333a21.333333 21.333333 0 0 0 18.432-10.581333L565.653333 157.226667c2.112-3.648 9.472-7.893333 13.504-7.893334l79.232 0.128-78.058666 271.296A21.333333 21.333333 0 0 0 600.832 448h193.365333a21.333333 21.333333 0 0 0 15.018667-6.186667L888.533333 362.666667l68.266667-0.234667-53.653333 142.037333a21.333333 21.333333 0 0 0 0 15.061334l53.333333 141.802666-66.858667 0.682667-80.405333-79.829333a21.333333 21.333333 0 0 0-15.018667-6.186667h-193.365333a21.333333 21.333333 0 0 0-20.501333 27.242667L658.282667 874.666667h-79.146667c-4.096 0-11.349333-4.202667-13.397333-7.765334l-163.754667-280.32a21.333333 21.333333 0 0 0-36.842667 21.504l163.669334 280.213334c9.6 16.661333 30.954667 29.034667 50.346666 29.034666h86.336c25.813333 0 43.050667-22.826667 35.882667-47.765333L628.416 618.666667l156.544-0.426667 80.149333 79.573333a21.333333 21.333333 0 0 0 15.018667 6.186667h86.186667c26.666667 0 43.093333-23.850667 33.685333-48.789333l-54.293333-142.656 54.293333-143.786667c9.386667-24.896-6.997333-48.768-33.664-48.768h-86.186667a21.333333 21.333333 0 0 0-15.04 6.186667L785.408 405.333333l-156.373333 0.512 72.32-251.413333C708.544 129.536 691.477333 106.666667 665.514667 106.666667h-86.336c-19.285333 0-40.746667 12.373333-50.410667 29.141333L371.648 405.333333H127.637333A106.624 106.624 0 0 0 20.906667 512c0 58.837333 47.786667 106.666667 106.645333 106.666667h128.021333a21.333333 21.333333 0 0 0 0-42.666667H127.530667z" fill="#3D3D3D" p-id="9444"></path></svg>