<?xml version="1.0" standalone="no"?><!DOCTYPE svg PUBLIC "-//W3C//DTD SVG 1.1//EN" "http://www.w3.org/Graphics/SVG/1.1/DTD/svg11.dtd"><svg t="1688030011807" viewBox="0 0 1024 1024" version="1.1" xmlns="http://www.w3.org/2000/svg" p-id="19249" xmlns:xlink="http://www.w3.org/1999/xlink" width="200" height="200"><path d="M508.266667 283.093333c1.6 1.024 2.986667 2.218667 4.202666 3.541334a21.333333 21.333333 0 0 1 33.258667 2.858666l80.405333 120.853334 135.957334-39.189334a21.333333 21.333333 0 0 1 26.88 24.384l-65.856 355.008a21.333333 21.333333 0 0 1-20.970667 17.450667H321.856a21.333333 21.333333 0 0 1-20.970667-17.450667l-65.856-355.008a21.333333 21.333333 0 0 1 26.773334-24.426666l138.88 39.253333 78.08-120.917333a21.333333 21.333333 0 0 1 29.504-6.357334zM331.690667 682.666667l7.893333 42.666666h344.810667l56.32-303.616-117.781334 33.941334a21.333333 21.333333 0 0 1-23.68-8.661334l-86.976-130.752-84.266666 130.496a21.333333 21.333333 0 0 1-23.744 8.96l-121.024-34.197333L323.776 640H618.666667a21.333333 21.333333 0 0 1 0 42.666667H331.690667zM675.328 117.717333a21.333333 21.333333 0 0 1-16.341333 39.402667A382.762667 382.762667 0 0 0 512 128C299.925333 128 128 299.925333 128 512s171.925333 384 384 384 384-171.925333 384-384c0-51.114667-9.984-100.8-29.12-146.986667a21.333333 21.333333 0 0 1 39.402667-16.341333A425.429333 425.429333 0 0 1 938.666667 512c0 235.648-191.018667 426.666667-426.666667 426.666667S85.333333 747.648 85.333333 512 276.352 85.333333 512 85.333333c56.746667 0 112 11.093333 163.328 32.384zM512 320a64 64 0 1 1 0-128 64 64 0 0 1 0 128z m0-42.666667a21.333333 21.333333 0 1 0 0-42.666666 21.333333 21.333333 0 0 0 0 42.666666z" fill="#3D3D3D" p-id="19250"></path></svg>