<?xml version="1.0" standalone="no"?><!DOCTYPE svg PUBLIC "-//W3C//DTD SVG 1.1//EN" "http://www.w3.org/Graphics/SVG/1.1/DTD/svg11.dtd"><svg t="1688030092106" viewBox="0 0 1024 1024" version="1.1" xmlns="http://www.w3.org/2000/svg" p-id="21445" xmlns:xlink="http://www.w3.org/1999/xlink" width="200" height="200"><path d="M853.333333 213.333333V170.666667a42.666667 42.666667 0 0 0-42.666666-42.666667H213.333333a42.666667 42.666667 0 0 0-42.666666 42.666667v42.666666h682.666666z m0 42.666667H170.666667v597.333333a42.666667 42.666667 0 0 0 42.666666 42.666667h597.333334a42.666667 42.666667 0 0 0 42.666666-42.666667V256zM213.333333 85.333333h597.333334a85.333333 85.333333 0 0 1 85.333333 85.333334v682.666666a85.333333 85.333333 0 0 1-85.333333 85.333334H213.333333a85.333333 85.333333 0 0 1-85.333333-85.333334V170.666667a85.333333 85.333333 0 0 1 85.333333-85.333334z m298.666667 746.666667c-141.376 0-256-114.624-256-256s114.624-256 256-256 256 114.624 256 256-114.624 256-256 256z m211.818667-230.4a138.666667 138.666667 0 0 1-224.597334-5.866667l-0.362666 0.213334a96 96 0 0 0-168.32 92.224c60.352 97.792 187.946667 130.453333 288.128 72.597333A213.013333 213.013333 0 0 0 723.84 601.6zM696.746667 469.333333c-58.922667-102.037333-189.397333-137.002667-291.413334-78.08a213.205333 213.205333 0 0 0-106.602666 178.133334 138.666667 138.666667 0 0 1 231.381333-3.84l0.341333-0.213334a96 96 0 1 0 166.293334-96z" fill="#3D3D3D" p-id="21446"></path></svg>