<?xml version="1.0" standalone="no"?><!DOCTYPE svg PUBLIC "-//W3C//DTD SVG 1.1//EN" "http://www.w3.org/Graphics/SVG/1.1/DTD/svg11.dtd"><svg t="1688029831147" viewBox="0 0 1024 1024" version="1.1" xmlns="http://www.w3.org/2000/svg" p-id="15148" xmlns:xlink="http://www.w3.org/1999/xlink" width="200" height="200"><path d="M512 853.333333h384V597.226667C896 573.802667 876.8 554.666667 853.12 554.666667H554.88C531.2 554.666667 512 573.802667 512 597.226667V853.333333z m-42.666667 42.666667V597.226667C469.333333 550.165333 507.733333 512 554.88 512h298.24A85.418667 85.418667 0 0 1 938.666667 597.226667V896h-55.168l54.101333 54.101333a21.333333 21.333333 0 0 1-30.165333 30.165334L823.168 896H584.832l-84.266667 84.266667a21.333333 21.333333 0 0 1-30.165333-30.165334L524.501333 896H469.333333z m426.666667-170.666667v42.581334H512V725.333333h384zM618.666667 426.666667h-137.92l-109.866667 164.778666C360.448 607.146667 338.773333 618.666667 319.829333 618.666667h-42.282666c-25.664 0-43.242667-21.952-37.696-46.869334l38.016-171.093333a21.333333 21.333333 0 0 1 41.642666 9.258667L282.581333 576h37.226667c4.736 0 13.056-4.437333 15.573333-8.213333l116.202667-174.293334A21.333333 21.333333 0 0 1 469.333333 384h149.333334c23.530667 0 42.666667-19.136 42.666666-42.666667 0-23.509333-19.178667-42.666667-42.666666-42.666666h-149.333334a21.333333 21.333333 0 0 1-17.749333-9.493334l-116.181333-174.293333C332.8 110.997333 324.693333 106.666667 319.786667 106.666667h-37.205334l36.906667 166.037333A21.333333 21.333333 0 0 1 298.666667 298.666667h-85.333334a21.333333 21.333333 0 0 1-9.536-2.261334L122.944 256h-6.101333l30.954666 77.418667a21.333333 21.333333 0 0 1 0 15.829333L116.842667 426.666667h6.122666l80.832-40.405334a21.333333 21.333333 0 0 1 19.072 38.144l-85.333333 42.666667A21.333333 21.333333 0 0 1 128 469.333333H106.666667c-26.944 0-43.2-24.106667-33.216-49.066666l31.573333-78.933334-31.573333-78.933333C63.424 237.312 79.786667 213.333333 106.666667 213.333333h21.333333a21.333333 21.333333 0 0 1 9.536 2.261334L218.389333 256h53.674667l-32.234667-145.130667C234.282667 85.888 252.010667 64 277.525333 64h42.282667c19.136 0 40.576 11.434667 51.093333 27.221333L480.768 256H618.666667c47.04 0 85.333333 38.229333 85.333333 85.333333 0 47.082667-38.229333 85.333333-85.333333 85.333334z m96.981333-279.68a21.333333 21.333333 0 1 1 19.370667-37.973334c78.357333 39.957333 141.205333 102.890667 180.053333 180.053334a21.333333 21.333333 0 0 1-38.122667 19.2c-34.752-69.056-91.008-125.397333-161.301333-161.28zM308.352 877.013333a21.333333 21.333333 0 1 1-19.370667 37.973334c-78.357333-39.957333-141.205333-102.890667-180.053333-180.053334a21.333333 21.333333 0 1 1 38.122667-19.2c34.752 69.056 91.008 125.397333 161.301333 161.28zM106.666667 640a21.333333 21.333333 0 1 1 0-42.666667 21.333333 21.333333 0 0 1 0 42.666667z m810.666666-213.333333a21.333333 21.333333 0 1 1 0-42.666667 21.333333 21.333333 0 0 1 0 42.666667z" fill="#3D3D3D" p-id="15149"></path></svg>