<?xml version="1.0" standalone="no"?><!DOCTYPE svg PUBLIC "-//W3C//DTD SVG 1.1//EN" "http://www.w3.org/Graphics/SVG/1.1/DTD/svg11.dtd"><svg t="1688029536885" viewBox="0 0 1024 1024" version="1.1" xmlns="http://www.w3.org/2000/svg" p-id="7107" xmlns:xlink="http://www.w3.org/1999/xlink" width="200" height="200"><path d="M784.384 678.72v66.026667c0 43.029333-34.432 78.016-76.757333 78.016h-87.210667V938.666667l-372.288 2.453333V688.170667C171.648 623.104 128 528.554667 128 426.944 128 238.933333 278.698667 86.08 463.850667 86.08c107.456 0 203.029333 51.669333 264.512 131.541333l7.914666-17.322666a24.362667 24.362667 0 0 1 22.186667-14.421334h111.957333c13.482667 0 24.490667 11.136 24.490667 24.853334V653.866667a24.618667 24.618667 0 0 1-24.448 24.853333h-86.08z m-44.970667-9.322667a24.682667 24.682667 0 0 1-4.757333-10.048l-16.896-57.045333h-60.373333c-2.176 0-4.330667-0.298667-6.4-0.896-64.661333-6.464-118.741333-49.045333-143.146667-106.901333H180.672a294.485333 294.485333 0 0 0 103.850667 164.842666l8.64 6.848v226.986667h282.282666v-116.096h132.181334c17.493333 0 31.786667-14.485333 31.786666-32.298667v-75.392z m-243.989333-220.586666a178.496 178.496 0 0 1-0.256-44.949334H174.208a295.253333 295.253333 0 0 0-1.173333 23.125334c0 7.296 0.682667 14.549333 1.173333 21.824h321.216z m11.648-90.688c24.064-58.837333 78.634667-102.272 144.064-108.842667 1.962667-0.554667 4.053333-0.853333 6.229333-0.853333h37.546667c-53.184-70.741333-136.832-116.693333-231.061333-116.693334-136.981333 0-251.882667 96.810667-282.538667 226.389334h325.76z" fill="#3D3D3D" p-id="7108"></path></svg>