<?xml version="1.0" standalone="no"?><!DOCTYPE svg PUBLIC "-//W3C//DTD SVG 1.1//EN" "http://www.w3.org/Graphics/SVG/1.1/DTD/svg11.dtd"><svg t="1688029959980" viewBox="0 0 1024 1024" version="1.1" xmlns="http://www.w3.org/2000/svg" p-id="18373" xmlns:xlink="http://www.w3.org/1999/xlink" width="200" height="200"><path d="M675.328 117.717333A425.429333 425.429333 0 0 0 512 85.333333C276.352 85.333333 85.333333 276.352 85.333333 512s191.018667 426.666667 426.666667 426.666667 426.666667-191.018667 426.666667-426.666667c0-56.746667-11.093333-112-32.384-163.328a21.333333 21.333333 0 0 0-39.402667 16.341333A382.762667 382.762667 0 0 1 896 512c0 212.074667-171.925333 384-384 384S128 724.074667 128 512 299.925333 128 512 128c51.114667 0 100.8 9.984 146.986667 29.12a21.333333 21.333333 0 0 0 16.341333-39.402667z m48.384 532.928A234.538667 234.538667 0 0 1 520.405333 768a234.538667 234.538667 0 0 1-203.264-117.333333 21.333333 21.333333 0 0 0-36.949333 21.333333 277.184 277.184 0 0 0 240.213333 138.666667c100.16 0 190.997333-53.546667 240.213334-138.666667a21.333333 21.333333 0 0 0-36.906667-21.333333zM341.333333 426.624c0-23.552 18.944-42.624 42.666667-42.624 23.573333 0 42.666667 19.157333 42.666667 42.624v42.752A42.538667 42.538667 0 0 1 384 512c-23.573333 0-42.666667-19.157333-42.666667-42.624v-42.752z m256 0c0-23.552 18.944-42.624 42.666667-42.624 23.573333 0 42.666667 19.157333 42.666667 42.624v42.752A42.538667 42.538667 0 0 1 640 512c-23.573333 0-42.666667-19.157333-42.666667-42.624v-42.752z" fill="#3D3D3D" p-id="18374"></path></svg>