<?xml version="1.0" standalone="no"?><!DOCTYPE svg PUBLIC "-//W3C//DTD SVG 1.1//EN" "http://www.w3.org/Graphics/SVG/1.1/DTD/svg11.dtd"><svg t="1688029985594" viewBox="0 0 1024 1024" version="1.1" xmlns="http://www.w3.org/2000/svg" p-id="18811" xmlns:xlink="http://www.w3.org/1999/xlink" width="200" height="200"><path d="M192 384v-85.141333C192 228.117333 249.429333 170.666667 320 170.666667c70.613333 0 128 57.429333 128 128.042666v5.504a21.333333 21.333333 0 1 0 42.666667 0v-5.504C490.666667 204.544 414.208 128 320 128c-94.144 0-170.666667 76.565333-170.666667 170.858667v241.557333a21.333333 21.333333 0 1 0 42.666667 0V426.666667h341.333333v113.749333a21.333333 21.333333 0 1 0 42.666667 0V298.858667C576 228.117333 633.429333 170.666667 704 170.666667c70.613333 0 128 57.429333 128 128.042666v5.504a21.333333 21.333333 0 1 0 42.666667 0v-5.504C874.666667 204.544 798.208 128 704 128c-94.144 0-170.666667 76.565333-170.666667 170.858667V384H192zM98.474667 685.696a21.333333 21.333333 0 1 1 27.306666-32.768c1.194667 0.96 3.84 2.986667 7.893334 5.76 6.912 4.714667 14.933333 9.472 23.808 13.909333 52.864 26.410667 108.629333 29.610667 162.816-4.608 69.653333-44.010667 137.514667-44.010667 196.330666-17.344 14.890667 6.762667 25.749333 13.653333 32.042667 18.666667 2.645333 2.090667 8.789333 5.909333 18.026667 9.92 41.536 17.962667 92.117333 16.64 150.805333-18.261333 70.464-41.941333 133.845333-41.941333 185.258667-15.936 13.248 6.72 22.677333 13.610667 28.117333 18.730666a21.333333 21.333333 0 0 1-29.226667 31.061334c-2.666667-2.474667-8.832-6.997333-18.133333-11.712-38.848-19.648-86.784-19.648-144.213333 14.506666-70.997333 42.261333-135.957333 43.946667-189.546667 20.757334-12.906667-5.589333-22.186667-11.349333-27.626667-15.658667-3.733333-2.965333-11.669333-8.021333-23.125333-13.226667-46.592-21.12-99.456-21.12-155.925333 14.570667-68.522667 43.285333-139.626667 39.189333-204.650667 6.72-18.432-9.216-32.064-18.517333-39.957333-25.088z m0 192a21.333333 21.333333 0 1 1 27.306666-32.768c1.194667 0.96 3.84 2.986667 7.893334 5.76 6.912 4.714667 14.933333 9.472 23.808 13.909333 52.864 26.410667 108.629333 29.610667 162.816-4.608 69.653333-44.010667 137.514667-44.010667 196.330666-17.344 14.890667 6.762667 25.749333 13.653333 32.042667 18.666667 2.645333 2.090667 8.789333 5.909333 18.026667 9.92 41.536 17.962667 92.117333 16.64 150.805333-18.261333 70.464-41.941333 133.845333-41.941333 185.258667-15.936 13.248 6.72 22.677333 13.610667 28.117333 18.730666a21.333333 21.333333 0 0 1-29.226667 31.061334c-2.666667-2.474667-8.832-6.997333-18.133333-11.712-38.848-19.648-86.784-19.648-144.213333 14.506666-70.997333 42.261333-135.957333 43.946667-189.546667 20.757334-12.906667-5.589333-22.186667-11.349333-27.626667-15.658667-3.733333-2.965333-11.669333-8.021333-23.125333-13.226667-46.592-21.12-99.456-21.12-155.925333 14.570667-68.522667 43.285333-139.626667 39.189333-204.650667 6.72-18.432-9.216-32.064-18.517333-39.957333-25.088z" fill="#3D3D3D" p-id="18812"></path></svg>