<?xml version="1.0" standalone="no"?><!DOCTYPE svg PUBLIC "-//W3C//DTD SVG 1.1//EN" "http://www.w3.org/Graphics/SVG/1.1/DTD/svg11.dtd"><svg t="1688030015857" viewBox="0 0 1024 1024" version="1.1" xmlns="http://www.w3.org/2000/svg" p-id="19395" xmlns:xlink="http://www.w3.org/1999/xlink" width="200" height="200"><path d="M981.333333 521.706667a120.234667 120.234667 0 0 1-116.8 120.192c-50.517333 148.48-190.997333 252.16-352.533333 252.16-161.536 0-302.016-103.68-352.533333-252.16a120.234667 120.234667 0 0 1 0-240.405334C209.984 253.013333 350.464 149.333333 512 149.333333c161.536 0 302.016 103.68 352.533333 252.16A120.234667 120.234667 0 0 1 981.333333 521.706667zM682.666667 512a42.666667 42.666667 0 1 1 0-85.333333 42.666667 42.666667 0 0 1 0 85.333333z m-341.333334 0a42.666667 42.666667 0 1 1 0-85.333333 42.666667 42.666667 0 0 1 0 85.333333z m91.648-240.981333c0 39.018667 66.602667 97.706667 110.506667 97.706666 1.450667-6.613333 3.562667-15.018667 6.037333-22.677333 6.101333-18.901333 9.834667-26.709333 19.370667-43.370667a122.453333 122.453333 0 0 0 5.034667-9.450666c3.157333-6.762667 5.973333-15.018667 9.002666-27.306667a21.333333 21.333333 0 1 1 41.429334 10.197333c-3.669333 14.869333-7.36 25.749333-11.797334 35.2a161.472 161.472 0 0 1-6.634666 12.586667c-8.192 14.293333-10.773333 19.669333-15.808 35.264-4.181333 12.906667-8.085333 34.645333-8.512 35.797333-4.032 10.88-12.970667 16.106667-23.552 16.64-2.346667 0.106667-12.16-0.213333-14.890667-0.213333-66.026667 0-152.853333-76.501333-152.853333-140.373333a21.333333 21.333333 0 1 1 42.666666 0z m-7.573333 397.525333a21.333333 21.333333 0 1 1-40.149333-14.421333c3.925333-10.944 12.757333-25.792 28.288-40.341334C438.826667 590.08 473.749333 576 518.826667 576c45.034667 0 80 14.08 105.237333 37.76 15.530667 14.570667 24.362667 29.418667 28.309333 40.362667a21.333333 21.333333 0 1 1-40.149333 14.421333c-1.834667-5.056-7.274667-14.208-17.344-23.658667C577.450667 628.565333 552.896 618.666667 518.826667 618.666667c-34.112 0-58.666667 9.898667-76.053334 26.24-10.069333 9.429333-15.530667 18.581333-17.344 23.637333zM512 192c-157.141333 0-288.618667 109.952-321.685333 257.109333a77.568 77.568 0 1 0 0 145.194667c33.066667 147.157333 164.544 257.088 321.685333 257.088 157.141333 0 288.618667-109.930667 321.685333-257.109333a77.568 77.568 0 1 0 0-145.194667C800.618667 301.973333 669.141333 192 512 192z" fill="#3D3D3D" p-id="19396"></path></svg>