<?xml version="1.0" standalone="no"?><!DOCTYPE svg PUBLIC "-//W3C//DTD SVG 1.1//EN" "http://www.w3.org/Graphics/SVG/1.1/DTD/svg11.dtd"><svg t="1688030086781" viewBox="0 0 1024 1024" version="1.1" xmlns="http://www.w3.org/2000/svg" p-id="21299" xmlns:xlink="http://www.w3.org/1999/xlink" width="200" height="200"><path d="M893.44 680.597333c-9.386667 63.957333-43.626667 122.56-90.581333 162.432l51.584 58.453334c3.498667 4.224 5.610667 10.538667 5.610666 16.149333a20.096 20.096 0 0 1-7.018666 15.424 20.117333 20.117333 0 0 1-15.424 6.314667c-5.610667 0-11.925333-2.816-16.128-7.018667l-52.608-60.309333a21.482667 21.482667 0 0 1-2.325334-3.434667C736.149333 885.973333 702.506667 896 667.904 896H360.149333c-32.085333 0-63.146667-7.36-91.605333-20.416l-48.128 56.064c-4.906667 5.610667-11.242667 7.722667-18.24 7.722667-6.314667 0-10.517333-2.112-14.72-6.314667a20.096 20.096 0 0 1-7.04-15.424c0-6.314667 2.133333-11.946667 6.314667-16.128l42.816-48.533333c-55.829333-39.765333-95.189333-103.125333-100.842667-172.8a85.376 85.376 0 0 1 0.213333-165.717334 20.565333 20.565333 0 0 1-0.917333-6.016V209.92C128 149.632 171.008 106.666667 230.656 106.666667c56.192 0 102.677333 51.968 102.677333 115.733333 0 11.776-10.410667 22.186667-22.186666 22.186667-12.501333 0-22.208-9.706667-22.208-22.186667 0-34.645333-23.594667-72.064-58.282667-72.064-35.370667 0-58.261333 23.552-58.261333 59.584v298.517333a20.266667 20.266667 0 0 1-0.32 3.562667H874.666667a85.333333 85.333333 0 0 1 18.773333 168.597333zM849.130667 682.666667H172.330667c10.602667 92.16 93.909333 169.621333 187.818666 169.621333h305.706667c84.565333 0 165.418667-78.293333 183.296-169.621333zM149.333333 554.666667a42.666667 42.666667 0 1 0 0 85.333333h725.333334a42.666667 42.666667 0 1 0 0-85.333333H149.333333z" fill="#3D3D3D" p-id="21300"></path></svg>