<?xml version="1.0" standalone="no"?><!DOCTYPE svg PUBLIC "-//W3C//DTD SVG 1.1//EN" "http://www.w3.org/Graphics/SVG/1.1/DTD/svg11.dtd"><svg t="1688029841335" viewBox="0 0 1024 1024" version="1.1" xmlns="http://www.w3.org/2000/svg" p-id="15440" xmlns:xlink="http://www.w3.org/1999/xlink" width="200" height="200"><path d="M130.688 649.621333C114.965333 672.917333 106.666667 698.026667 106.666667 723.904 106.666667 846.485333 289.664 938.666667 512 938.666667s405.333333-92.181333 405.333333-214.762667c0-26.005333-8.362667-51.178667-24.213333-74.538667a21.333333 21.333333 0 1 0-35.306667 23.936c11.221333 16.554667 16.853333 33.493333 16.853334 50.602667C874.666667 814.976 713.813333 896 512 896S149.333333 814.976 149.333333 723.904c0-17.024 5.568-33.92 16.704-50.389333a21.333333 21.333333 0 0 0-35.349333-23.893334z m0-213.333333C114.965333 459.584 106.666667 484.693333 106.666667 510.570667 106.666667 633.152 289.664 725.333333 512 725.333333s405.333333-92.181333 405.333333-214.762666c0-26.005333-8.362667-51.178667-24.213333-74.538667a21.333333 21.333333 0 1 0-35.306667 23.936c11.221333 16.554667 16.853333 33.493333 16.853334 50.602667C874.666667 601.642667 713.813333 682.666667 512 682.666667S149.333333 601.642667 149.333333 510.570667c0-17.024 5.568-33.92 16.704-50.389334a21.333333 21.333333 0 0 0-35.349333-23.893333zM512 512c222.357333 0 405.333333-91.498667 405.333333-213.333333S734.357333 85.333333 512 85.333333 106.666667 176.832 106.666667 298.666667s182.976 213.333333 405.333333 213.333333z m0-42.666667c-201.813333 0-362.666667-80.426667-362.666667-170.666666s160.853333-170.666667 362.666667-170.666667 362.666667 80.426667 362.666667 170.666667-160.853333 170.666667-362.666667 170.666666z" fill="#3D3D3D" p-id="15441"></path></svg>