<?xml version="1.0" standalone="no"?><!DOCTYPE svg PUBLIC "-//W3C//DTD SVG 1.1//EN" "http://www.w3.org/Graphics/SVG/1.1/DTD/svg11.dtd"><svg t="1688029872949" viewBox="0 0 1024 1024" version="1.1" xmlns="http://www.w3.org/2000/svg" p-id="16170" xmlns:xlink="http://www.w3.org/1999/xlink" width="200" height="200"><path d="M844.885333 554.666667L776.32 177.706667c-0.533333-2.858667-5.525333-7.04-8.490667-7.04H277.482667c-3.029333 0-7.957333 4.096-8.490667 7.04L200.448 554.666667h644.437333zM227.029333 170.069333C231.232 146.816 253.824 128 277.482667 128h490.368c23.637333 0 46.272 18.986667 50.453333 42.069333l70.058667 385.194667c4.202667 23.253333-11.562667 42.069333-35.2 42.069333H192.170667c-23.637333 0-39.36-18.986667-35.178667-42.069333l70.058667-385.194667z" fill="#3D3D3D" p-id="16171"></path><path d="M490.666667 576l42.666666 0 0 341.333333-42.666666 0 0-341.333333Z" fill="#3D3D3D" p-id="16172"></path><path d="M661.333333 618.666667h42.666667v128h-42.666667zM256 896h512v42.666667H256z" fill="#3D3D3D" p-id="16173"></path></svg>