<?xml version="1.0" standalone="no"?><!DOCTYPE svg PUBLIC "-//W3C//DTD SVG 1.1//EN" "http://www.w3.org/Graphics/SVG/1.1/DTD/svg11.dtd"><svg t="1688029859731" viewBox="0 0 1024 1024" version="1.1" xmlns="http://www.w3.org/2000/svg" p-id="15878" xmlns:xlink="http://www.w3.org/1999/xlink" width="200" height="200"><path d="M896 170.794667V362.666667a42.666667 42.666667 0 0 1 42.666667 42.624v106.752A42.645333 42.645333 0 0 1 896 554.666667v255.872A42.666667 42.666667 0 0 1 853.333333 853.333333a85.333333 85.333333 0 0 1-85.546666 85.333334h-42.24A85.418667 85.418667 0 0 1 640 853.333333H384a85.333333 85.333333 0 0 1-85.546667 85.333334h-42.24A85.418667 85.418667 0 0 1 170.666667 853.333333c-23.552 0-42.666667-19.136-42.666667-42.794666V554.666667a42.666667 42.666667 0 0 1-42.666667-42.624v-106.752C85.333333 381.738667 104.426667 362.666667 128 362.666667V170.794667A85.269333 85.269333 0 0 1 213.12 85.333333h597.76A85.290667 85.290667 0 0 1 896 170.794667zM896 512v-106.709333L853.333333 405.333333V170.794667C853.333333 147.114667 834.282667 128 810.88 128H213.12C189.696 128 170.666667 147.114667 170.666667 170.794667V405.333333H128v106.709334L170.666667 512v85.333333h682.666666v-85.333333h42.666667zM170.666667 810.538667L853.333333 810.666667v-170.752H170.666667v170.624zM213.333333 746.666667v-42.666667h128v42.666667h-128z m469.333334 0v-42.666667h128v42.666667h-128z m42.88 149.333333h42.24c23.786667 0 42.88-19.072 42.88-42.666667h-128c0 23.552 19.157333 42.666667 42.88 42.666667z m-469.333334 0h42.24c23.786667 0 42.88-19.072 42.88-42.666667h-128c0 23.552 19.157333 42.666667 42.88 42.666667z" fill="#3D3D3D" p-id="15879"></path></svg>