<?xml version="1.0" standalone="no"?><!DOCTYPE svg PUBLIC "-//W3C//DTD SVG 1.1//EN" "http://www.w3.org/Graphics/SVG/1.1/DTD/svg11.dtd"><svg t="1688029784436" viewBox="0 0 1024 1024" version="1.1" xmlns="http://www.w3.org/2000/svg" p-id="13830" xmlns:xlink="http://www.w3.org/1999/xlink" width="200" height="200"><path d="M273.728 404.053333c0.128-11.733333 9.6-22.037333 21.290667-23.04l36.586666-3.114666c46.997333-3.989333 115.626667-30.122667 153.472-58.517334l11.968-8.96c9.386667-7.04 25.322667-7.701333 35.413334-1.642666l29.952 17.962666c40.426667 24.256 111.296 47.637333 158.122666 52.202667l18.645334 1.813333c11.690667 1.130667 21.056 11.52 20.949333 23.296l-0.512 51.306667c-1.344 134.549333-103.445333 284.032-228.522667 334.058667l-17.088 6.826666-17.109333-6.826666c-124.864-49.962667-225.002667-199.253333-223.68-334.08l0.512-51.285334z m42.154667 51.712c-1.152 117.12 88.256 250.581333 196.864 294.037334l1.258666 0.490666 1.258667-0.490666c108.928-43.584 200.533333-177.536 201.685333-294.869334l0.341334-33.450666c-54.058667-5.269333-131.008-30.656-176.853334-58.154667l-23.786666-14.293333-5.973334 4.48c-44.202667 33.173333-120.448 62.229333-175.445333 66.901333l-19.008 1.621333-0.341333 33.728zM298.666667 127.957333C298.666667 104.405333 317.824 85.333333 341.12 85.333333h341.76C706.304 85.333333 725.333333 104.490667 725.333333 127.957333v42.752A42.645333 42.645333 0 0 1 682.88 213.333333H341.12C317.696 213.333333 298.666667 194.176 298.666667 170.709333V127.957333zM341.333333 170.666667h341.333334V128H341.333333v42.666667z m-105.173333-42.666667v42.666667S170.666667 170.688 170.666667 170.773333V896s682.666667 0.042667 682.666666-0.106667C853.333333 895.893333 853.333333 170.666667 853.205333 170.666667h-63.296V128h63.296C876.842667 128 896 147.072 896 170.773333v725.12C896 919.509333 877.013333 938.666667 853.333333 938.666667H170.666667a42.666667 42.666667 0 0 1-42.666667-42.773334V170.773333C128 147.157333 147.114667 128 170.752 128h65.408z m205.312 411.306667l49.685333 47.893333 89.642667-110.016a21.333333 21.333333 0 0 1 33.066667 26.965333l-104.298667 128a21.333333 21.333333 0 0 1-31.338667 1.877334l-66.368-64a21.333333 21.333333 0 0 1 29.610667-30.72z" fill="#3D3D3D" p-id="13831"></path></svg>