<?xml version="1.0" standalone="no"?><!DOCTYPE svg PUBLIC "-//W3C//DTD SVG 1.1//EN" "http://www.w3.org/Graphics/SVG/1.1/DTD/svg11.dtd"><svg t="1688029652962" viewBox="0 0 1024 1024" version="1.1" xmlns="http://www.w3.org/2000/svg" p-id="9881" xmlns:xlink="http://www.w3.org/1999/xlink" width="200" height="200"><path d="M426.837333 515.029333c0-28.970667-15.061333-67.2-34.837333-88.490666L179.690667 198.229333C160.490667 177.066667 163.306667 170.666667 191.893333 170.666667h640.213334c28.522667 0 31.36 6.4 12.096 27.712l-211.498667 225.493333c-19.754667 21.056-34.816 59.221333-34.816 88.106667v298.794666a21.333333 21.333333 0 1 0 42.666667 0V512c0-18.048 10.944-45.76 23.253333-58.901333l211.776-225.792C919.872 178.325333 897.706667 128 832.106667 128H191.893333c-65.728 0-87.744 50.346667-43.648 99.072l212.501334 228.522667c12.458667 13.397333 23.424 41.258667 23.424 59.434666v359.381334a21.333333 21.333333 0 1 0 42.666666 0V515.029333z" fill="#3D3D3D" p-id="9882"></path></svg>