<?xml version="1.0" standalone="no"?><!DOCTYPE svg PUBLIC "-//W3C//DTD SVG 1.1//EN" "http://www.w3.org/Graphics/SVG/1.1/DTD/svg11.dtd"><svg t="1688029887068" viewBox="0 0 1024 1024" version="1.1" xmlns="http://www.w3.org/2000/svg" p-id="16464" xmlns:xlink="http://www.w3.org/1999/xlink" width="200" height="200"><path d="M384 853.333333a85.44 85.44 0 0 1-85.546667 85.333334h-42.24A85.44 85.44 0 0 1 170.666667 853.333333a85.333333 85.333333 0 0 1-85.333334-85.482666V533.333333a42.666667 42.666667 0 0 1 42.666667-42.666666l128-256h512l128 256c23.573333 0 42.666667 18.986667 42.666667 42.666666v234.517334A85.482667 85.482667 0 0 1 853.333333 853.333333a85.44 85.44 0 0 1-85.546666 85.333334h-42.24A85.44 85.44 0 0 1 640 853.333333H384z m-101.632-576l-128 256H128v234.517334A42.666667 42.666667 0 0 0 170.666667 810.666667h42.56L213.333333 853.226667A42.773333 42.773333 0 0 0 256.213333 896h42.24A42.773333 42.773333 0 0 0 341.333333 853.226667L341.44 810.666667h341.12L682.666667 853.226667A42.773333 42.773333 0 0 0 725.546667 896h42.24A42.773333 42.773333 0 0 0 810.666667 853.226667L810.773333 810.666667H853.333333c23.466667 0 42.666667-19.2 42.666667-42.816V533.333333c0-0.064-26.368 0-26.368 0l-128-256H282.368zM384 170.666667V138.666667c0-5.973333 4.693333-10.666667 10.517333-10.666667h256.298667c5.845333 0 10.517333 4.693333 10.517333 10.666667V170.666667h42.666667V138.666667C704 109.141333 680.234667 85.333333 650.816 85.333333H394.517333A53.205333 53.205333 0 0 0 341.333333 138.666667V170.666667h42.666667z m-128 554.666666a42.666667 42.666667 0 1 0 0-85.333333 42.666667 42.666667 0 0 0 0 85.333333z m21.333333-213.333333c0-11.776 9.386667-21.333333 21.376-21.333333h426.581334A21.312 21.312 0 0 1 746.666667 512c0 11.776-9.386667 21.333333-21.376 21.333333H298.709333A21.312 21.312 0 0 1 277.333333 512z m490.666667 213.333333a42.666667 42.666667 0 1 0 0-85.333333 42.666667 42.666667 0 0 0 0 85.333333z" fill="#3D3D3D" p-id="16465"></path></svg>