<?xml version="1.0" standalone="no"?><!DOCTYPE svg PUBLIC "-//W3C//DTD SVG 1.1//EN" "http://www.w3.org/Graphics/SVG/1.1/DTD/svg11.dtd"><svg t="1688029616049" viewBox="0 0 1024 1024" version="1.1" xmlns="http://www.w3.org/2000/svg" p-id="9297" xmlns:xlink="http://www.w3.org/1999/xlink" width="200" height="200"><path d="M256 128H127.786667C104.405333 128 85.333333 147.093333 85.333333 170.666667v682.666666c0 23.68 19.157333 42.666667 42.773334 42.666667h767.786666A42.730667 42.730667 0 0 0 938.666667 853.333333V170.666667c0-23.68-19.029333-42.666667-42.517334-42.666667H768v42.666667h128.149333C896.085333 170.666667 896 853.333333 896 853.333333c0-0.042667-767.893333 0-767.893333 0C127.957333 853.333333 128 170.666667 128 170.666667h128V128z m42.666667-21.397333c0-11.733333 9.472-21.269333 21.333333-21.269334 11.776 0 21.333333 9.664 21.333333 21.269334v128.128c0 11.733333-9.472 21.269333-21.333333 21.269333-11.776 0-21.333333-9.664-21.333333-21.269333V106.602667zM384 128h256v42.666667H384V128z m298.666667-21.397333c0-11.733333 9.472-21.269333 21.333333-21.269334 11.776 0 21.333333 9.664 21.333333 21.269334v128.128c0 11.733333-9.472 21.269333-21.333333 21.269333-11.776 0-21.333333-9.664-21.333333-21.269333V106.602667zM362.666667 597.333333c-61.653333 0-111.146667-60.309333-111.146667-134.101333C251.52 389.44 301.013333 341.333333 362.666667 341.333333s111.146667 48.106667 111.146666 121.898667C473.813333 537.045333 424.32 597.333333 362.666667 597.333333z m0-213.333333c-39.552 0-68.48 30.613333-68.48 79.232C294.186667 515.285333 326.698667 554.666667 362.666667 554.666667s68.48-39.381333 68.48-91.434667C431.146667 414.613333 402.24 384 362.666667 384z m186.133333 342.4c4.608 22.976-10.944 41.6-34.389333 41.6H211.008c-23.594667 0-40.490667-18.922667-34.389333-41.6 0 0-7.616-107.733333 186.090666-107.733333s186.090667 107.733333 186.090667 107.733333z m-318.933333-26.666667c-8.341333 10.112-10.816 19.626667-10.624 24.682667 0-0.384 0-0.384-0.064-1.024l0.512 7.168-1.877334 6.933333c1.578667-5.866667-3.754667-12.16-6.805333-12.16h303.402667c-3.306667 0-8.149333 5.845333-7.445334 9.450667l-1.130666-5.653333 0.426666-5.738667c-0.064 0.64-0.064 0.64-0.064 1.024 0.170667-5.056-2.282667-14.570667-10.666666-24.661333C476.650667 676.906667 435.733333 661.333333 362.730667 661.333333s-113.92 15.573333-132.821334 38.4zM597.333333 426.666667h234.666667v42.666666H597.333333v-42.666666z m0 128h170.666667v42.666666h-170.666667v-42.666666z" fill="#3D3D3D" p-id="9298"></path></svg>