<?xml version="1.0" standalone="no"?><!DOCTYPE svg PUBLIC "-//W3C//DTD SVG 1.1//EN" "http://www.w3.org/Graphics/SVG/1.1/DTD/svg11.dtd"><svg t="1688029548871" viewBox="0 0 1024 1024" version="1.1" xmlns="http://www.w3.org/2000/svg" p-id="7399" xmlns:xlink="http://www.w3.org/1999/xlink" width="200" height="200"><path d="M85.376 256h597.248c23.594667 0 42.709333 18.986667 42.709333 42.752v447.829333C725.333333 770.197333 706.346667 789.333333 682.624 789.333333H85.376A42.624 42.624 0 0 1 42.666667 746.581333V298.752C42.666667 275.136 61.653333 256 85.376 256z m597.269333 490.666667V298.666667H85.333333v448h597.333334z m-159.296-204.437334l91.52 128.426667a21.333333 21.333333 0 1 1-34.773333 24.746667l-106.666667-149.333334h-74.88v141.44a21.333333 21.333333 0 0 1-38.826666 12.16l-227.84-324.693333a21.376 21.376 0 0 1 34.986666-24.533333l189.013334 269.866666v-256a21.333333 21.333333 0 0 1 21.333333-21.333333h118.613333a106.666667 106.666667 0 0 1 104.96 87.04c1.173333 2.901333 1.770667 6.016 1.706667 9.173333v10.24a23.04 23.04 0 0 1-1.706667 9.173334 106.666667 106.666667 0 0 1-77.44 83.626666z m-124.8-38.826666l97.493334 0.213333a64 64 0 0 0 64-58.88 64 64 0 0 0-64-58.88h-97.493334v117.546667z m398.890667-11.648l169.237333-177.706667c8.106667-8.490667 14.656-6.016 14.656 5.930667V725.333333c0 11.776-6.613333 14.357333-14.656 5.909334L797.44 553.6a45.269333 45.269333 0 0 1 0-61.824z" fill="#3D3D3D" p-id="7400"></path></svg>