<?xml version="1.0" standalone="no"?><!DOCTYPE svg PUBLIC "-//W3C//DTD SVG 1.1//EN" "http://www.w3.org/Graphics/SVG/1.1/DTD/svg11.dtd"><svg t="1688029594811" viewBox="0 0 1024 1024" version="1.1" xmlns="http://www.w3.org/2000/svg" p-id="8713" xmlns:xlink="http://www.w3.org/1999/xlink" width="200" height="200"><path d="M278.4 592.277333a21.333333 21.333333 0 0 0-15.829333-21.952 170.666667 170.666667 0 1 1 73.386666-333.12 21.333333 21.333333 0 0 0 22.293334-7.466666C396.330667 180.992 454.528 149.333333 512 149.333333c59.285333 0 124.202667 33.28 160.896 80.362667a21.333333 21.333333 0 0 0 21.354667 7.786667 170.666667 170.666667 0 0 1 74.88 332.842666 21.546667 21.546667 0 0 0-2.261334 0.746667 21.333333 21.333333 0 0 0-17.344 21.12l1.621334 244.544c0 0.533333 0.021333 1.066667 0.064 1.578667v0.106666c0 22.016-15.850667 36.245333-40.832 36.245334h-0.021334v-0.021334h-3.285333L704.213333 874.666667H323.114667l-3.264-0.021334h-0.768A42.624 42.624 0 0 1 277.333333 832c0-23.488 19.2-42.666667 42.624-42.666667h336.917334v-42.666666H319.957333A85.44 85.44 0 0 0 234.666667 832c0 47.061333 38.122667 85.333333 85.141333 85.333333H707.008a2502.805333 2502.805333 0 0 1 3.370667 0c47.573333 0 83.498667-32.213333 83.498666-78.933333a21.632 21.632 0 0 0-0.064-1.941333l-1.514666-228.522667A213.44 213.44 0 0 0 938.666667 405.333333c0-117.824-95.509333-213.333333-213.333334-213.333333-9.045333 0-18.005333 0.554667-26.88 1.685333C653.013333 141.76 580.522667 106.666667 512 106.666667c-67.285333 0-133.546667 33.984-179.285333 86.933333A215.253333 215.253333 0 0 0 306.410667 192c-117.824 0-213.333333 95.509333-213.333334 213.333333 0 92.288 59.093333 172.8 144.256 201.898667l-0.725333 60.416 42.666667 0.533333 0.917333-75.882666-1.770667-0.021334z" fill="#3D3D3D" p-id="8714"></path></svg>