<?xml version="1.0" standalone="no"?><!DOCTYPE svg PUBLIC "-//W3C//DTD SVG 1.1//EN" "http://www.w3.org/Graphics/SVG/1.1/DTD/svg11.dtd"><svg t="1688030047401" viewBox="0 0 1024 1024" version="1.1" xmlns="http://www.w3.org/2000/svg" p-id="20273" xmlns:xlink="http://www.w3.org/1999/xlink" width="200" height="200"><path d="M953.322667 557.525333a21.333333 21.333333 0 0 1 1.28 5.738667c3.776 46.613333-0.085333 120.746667-11.52 223.061333a21.333333 21.333333 0 0 1-21.205334 18.986667H823.253333a21.333333 21.333333 0 1 1 0-42.666667h79.509334c6.912-65.28 10.453333-117.674667 10.602666-156.949333a98.453333 98.453333 0 0 1-64.213333 14.186667A351.210667 351.210667 0 0 1 512 872.746667 351.210667 351.210667 0 0 1 174.890667 619.882667a98.453333 98.453333 0 0 1-60.458667-11.946667c1.493333 43.178667 4.757333 96.981333 9.770667 154.688h74.666666a21.333333 21.333333 0 0 1 0 42.666667H104.704a21.333333 21.333333 0 0 1-21.248-19.370667c-8.362667-90.581333-12.544-173.802667-12.672-225.813333 0-0.704 0.042667-1.408 0.106667-2.133334a98.645333 98.645333 0 0 1-6.869334-36.266666c0-18.112 4.864-35.072 13.354667-49.664 1.088-2.346667 1.706667-3.818667 1.6-3.328 13.717333-68.586667 38.357333-139.861333 77.632-193.024 99.370667-134.528 189.546667-187.562667 274.474667-153.216 126.634667-72.746667 255.466667-38.357333 380.928 99.157333 61.184 67.072 103.082667 145.877333 125.568 236.16l0.341333 1.578667A98.496 98.496 0 0 1 960 521.706667c0 12.629333-2.368 24.704-6.677333 35.818666z m-69.674667-132.16a490.048 490.048 0 0 0-103.168-174.954666C664.533333 123.306667 554.261333 96.170667 443.690667 164.608a21.333333 21.333333 0 0 1-20.693334 0.981333c-64.042667-31.701333-139.306667 9.813333-232.106666 135.466667-25.557333 34.602667-44.736 79.786667-58.090667 126.4a98.858667 98.858667 0 0 1 42.090667-3.946667c2.261333-7.786667 4.8-15.488 7.594666-23.082666a21.333333 21.333333 0 0 1 20.202667-13.973334c45.184 0.362667 87.552-12.117333 127.552-37.674666 38.272-24.448 64.554667-66.944 78.570667-128.789334 4.778667-21.12 34.346667-22.485333 41.088-1.92 17.898667 54.826667 70.058667 97.92 158.72 128.533334 91.370667 31.552 160.853333 43.093333 207.530666 35.285333a21.333333 21.333333 0 0 1 23.402667 13.376c3.584 9.258667 6.784 18.688 9.557333 28.245333a99.712 99.712 0 0 1 34.538667 1.856zM113.813333 494.229333a56.234667 56.234667 0 0 0 68.949334 80.106667 21.333333 21.333333 0 0 1 28.373333 15.274667C242.496 729.194667 367.018667 830.08 512 830.08c144.981333 0 269.504-100.864 300.864-240.426667a21.333333 21.333333 0 0 1 28.373333-15.296 56.234667 56.234667 0 1 0 0-105.28 21.333333 21.333333 0 0 1-28.373333-15.274666c-2.090667-9.344-4.629333-18.56-7.573333-27.626667-53.269333 4.181333-123.242667-9.066667-210.581334-39.232-74.496-25.728-128.170667-60.864-160.106666-105.706667-18.261333 45.802667-45.333333 80.490667-81.386667 103.530667-42.325333 27.029333-87.552 41.770667-135.36 44.074667-2.581333 8.192-4.821333 16.533333-6.72 24.96a21.333333 21.333333 0 0 1-28.373333 15.274666 56.213333 56.213333 0 0 0-68.949334 25.173334zM682.666667 533.333333a42.666667 42.666667 0 1 1 26.197333-76.330666l36.416 3.285333L725.333333 490.666667a42.666667 42.666667 0 0 1-42.666666 42.666666z m-344.106667 0a42.666667 42.666667 0 0 1-42.666667-42.666666l-19.946666-30.378667 36.394666-3.285333A42.666667 42.666667 0 1 1 338.56 533.333333z m78.954667 188.501334a21.333333 21.333333 0 0 1 21.034666-37.12A148.544 148.544 0 0 0 512 704c25.386667 0 49.813333-6.314667 71.552-18.218667a21.333333 21.333333 0 0 1 20.48 37.418667A191.210667 191.210667 0 0 1 512 746.666667a191.210667 191.210667 0 0 1-94.485333-24.832z" fill="#3D3D3D" p-id="20274"></path></svg>