<?xml version="1.0" standalone="no"?><!DOCTYPE svg PUBLIC "-//W3C//DTD SVG 1.1//EN" "http://www.w3.org/Graphics/SVG/1.1/DTD/svg11.dtd"><svg t="1688030043464" viewBox="0 0 1024 1024" version="1.1" xmlns="http://www.w3.org/2000/svg" p-id="20127" xmlns:xlink="http://www.w3.org/1999/xlink" width="200" height="200"><path d="M508.928 590.101333a54.528 54.528 0 0 1 46.976-13.098666c2.944 0.554667 59.370667 19.882667 86.058667 27.136 38.144 10.346667 77.461333 13.781333 118.08 10.304 21.312-1.834667 31.765333 25.322667 14.72 38.250666-41.301333 31.36-89.002667 49.536-142.656 54.442667-32.106667 2.944-61.376 1.258667-87.808-5.205333a70.058667 70.058667 0 0 1-35.370667-21.056 70.058667 70.058667 0 0 1-35.370667 21.056c-26.410667 6.464-55.68 8.149333-87.786666 5.205333-53.653333-4.906667-101.354667-23.104-142.677334-54.442667-17.024-12.928-6.570667-40.106667 14.72-38.250666 40.618667 3.477333 79.957333 0.042667 118.101334-10.304 26.666667-7.253333 83.114667-26.581333 86.058666-27.136a54.528 54.528 0 0 1 46.954667 13.098666zM981.333333 521.706667a120.234667 120.234667 0 0 1-116.8 120.192c-50.517333 148.48-190.997333 252.16-352.533333 252.16-161.536 0-302.016-103.68-352.533333-252.16a120.234667 120.234667 0 0 1 0-240.405334C209.984 253.013333 350.464 149.333333 512 149.333333c161.536 0 302.016 103.68 352.533333 252.16A120.234667 120.234667 0 0 1 981.333333 521.706667zM512 192c-157.141333 0-288.618667 109.952-321.685333 257.109333a77.568 77.568 0 1 0 0 145.194667c33.066667 147.157333 164.544 257.088 321.685333 257.088 157.141333 0 288.618667-109.930667 321.685333-257.109333a77.568 77.568 0 1 0 0-145.194667C800.618667 301.973333 669.141333 192 512 192z m170.666667 320a42.666667 42.666667 0 1 1 0-85.333333 42.666667 42.666667 0 0 1 0 85.333333z m-341.333334 0a42.666667 42.666667 0 1 1 0-85.333333 42.666667 42.666667 0 0 1 0 85.333333z m48.341334 152.661333c27.584 2.517333 52.16 1.088 73.749333-4.181333a27.669333 27.669333 0 0 0 20.608-32.128 11.946667 11.946667 0 0 0-13.994667-9.472c-0.64 0.128-55.04 18.837333-82.944 26.432-15.658667 4.245333-31.488 7.466667-47.509333 9.642667 15.893333 4.864 32.576 8.106667 50.090667 9.706666z m241.109333-19.349333c-27.904-7.594667-82.325333-26.304-82.965333-26.432a11.946667 11.946667 0 0 0-13.973334 9.472c-2.794667 14.506667 6.272 28.629333 20.608 32.128 21.568 5.269333 46.144 6.698667 73.749334 4.181333a248.32 248.32 0 0 0 50.090666-9.706666 373.994667 373.994667 0 0 1-47.509333-9.642667zM278.122667 384.256c-10.453333-2.773333-17.322667-14.229333-15.317334-25.621333 2.005333-11.392 12.117333-18.410667 22.570667-15.658667 51.370667 13.504 107.733333 14.677333 163.264 1.856 68.672-15.850667 127.253333-47.466667 174.016-94.976 7.637333-7.765333 19.84-6.933333 27.264 1.856 7.402667 8.789333 7.232 22.208-0.426667 29.973333-51.498667 52.330667-116.010667 87.36-191.274666 104.746667-61.056 14.08-123.178667 12.8-180.096-2.176z" fill="#000000" p-id="20128"></path></svg>