<?xml version="1.0" standalone="no"?><!DOCTYPE svg PUBLIC "-//W3C//DTD SVG 1.1//EN" "http://www.w3.org/Graphics/SVG/1.1/DTD/svg11.dtd"><svg t="1688029769919" viewBox="0 0 1024 1024" version="1.1" xmlns="http://www.w3.org/2000/svg" p-id="13390" xmlns:xlink="http://www.w3.org/1999/xlink" width="200" height="200"><path d="M170.666667 853.333333c0 23.509333 19.072 42.666667 42.453333 42.666667h597.76c23.445333 0 42.453333-19.050667 42.453333-42.624V291.370667l12.522667 30.186666-206.485333-206.016L689.514667 128H213.290667A42.624 42.624 0 0 0 170.666667 170.666667v682.666666zM213.290667 85.333333H689.493333L896 291.370667v562.005333A85.184 85.184 0 0 1 810.88 938.666667H213.12A85.312 85.312 0 0 1 128 853.333333V170.666667c0-47.146667 38.144-85.333333 85.290667-85.333334z" fill="#3D3D3D" p-id="13391"></path><path d="M512 746.666667a42.666667 42.666667 0 1 0 0-85.333334 42.666667 42.666667 0 0 0 0 85.333334z m0-192a148.906667 148.906667 0 0 0-105.6 43.733333 21.333333 21.333333 0 0 0 30.165333 30.165333A106.24 106.24 0 0 1 512 597.333333a106.24 106.24 0 0 1 75.434667 31.232 21.333333 21.333333 0 0 0 30.165333-30.165333A148.906667 148.906667 0 0 0 512 554.666667z m0-106.666667c-68.8 0-133.333333 27.306667-181.013333 74.986667a21.333333 21.333333 0 0 0 30.165333 30.165333A212.565333 212.565333 0 0 1 512 490.666667a212.565333 212.565333 0 0 1 150.848 62.485333 21.333333 21.333333 0 0 0 30.165333-30.165333A255.210667 255.210667 0 0 0 512 448z m0-106.666667c-97.493333 0-188.885333 38.656-256.426667 106.24a21.333333 21.333333 0 0 0 30.144 30.144A318.869333 318.869333 0 0 1 512 384c86.037333 0 166.634667 34.090667 226.282667 93.717333a21.333333 21.333333 0 0 0 30.165333-30.165333A361.536 361.536 0 0 0 512 341.333333z" fill="#3D3D3D" p-id="13392"></path></svg>