<?xml version="1.0" standalone="no"?><!DOCTYPE svg PUBLIC "-//W3C//DTD SVG 1.1//EN" "http://www.w3.org/Graphics/SVG/1.1/DTD/svg11.dtd"><svg t="1688029514608" viewBox="0 0 1024 1024" version="1.1" xmlns="http://www.w3.org/2000/svg" p-id="6523" xmlns:xlink="http://www.w3.org/1999/xlink" width="200" height="200"><path d="M170.666667 822.528V618.666667a21.333333 21.333333 0 0 0-42.666667 0v256a21.333333 21.333333 0 0 0 21.333333 21.333333h256a21.333333 21.333333 0 0 0 0-42.666667H200.213333L463.573333 589.973333a21.333333 21.333333 0 0 0-30.165333-30.165333L170.666667 822.528zM853.333333 201.472L590.592 464.192a21.333333 21.333333 0 1 1-30.165333-30.165333L823.786667 170.666667H618.666667a21.333333 21.333333 0 0 1 0-42.666667h256a21.333333 21.333333 0 0 1 21.333333 21.333333v256a21.333333 21.333333 0 0 1-42.666667 0V201.472z" fill="#3D3D3D" p-id="6524"></path></svg>