<?xml version="1.0" standalone="no"?><!DOCTYPE svg PUBLIC "-//W3C//DTD SVG 1.1//EN" "http://www.w3.org/Graphics/SVG/1.1/DTD/svg11.dtd"><svg t="1688030082955" viewBox="0 0 1024 1024" version="1.1" xmlns="http://www.w3.org/2000/svg" p-id="21153" xmlns:xlink="http://www.w3.org/1999/xlink" width="200" height="200"><path d="M490.666667 746.666667v-128a21.333333 21.333333 0 0 1 42.666666 0v128h128a42.666667 42.666667 0 0 0 42.666667-42.666667V341.333333a42.666667 42.666667 0 0 0-42.666667-42.666666h-128v128a21.333333 21.333333 0 0 1-42.666666 0v-128h-128a42.666667 42.666667 0 0 0-42.666667 42.666666v362.666667a42.666667 42.666667 0 0 0 42.666667 42.666667h128z m0 127.936V832a21.333333 21.333333 0 0 1 42.666666 0v42.602667l23.914667-23.914667a21.333333 21.333333 0 0 1 30.186667 30.165333l-45.269334 45.248a42.666667 42.666667 0 0 1-60.330666 0l-45.269334-45.248a21.333333 21.333333 0 1 1 30.186667-30.165333L490.666667 874.581333zM533.333333 149.333333v64a21.333333 21.333333 0 0 1-42.666666 0V149.333333l-23.914667 23.914667a21.333333 21.333333 0 0 1-30.186667-30.165333l45.269334-45.248a42.666667 42.666667 0 0 1 60.330666 0l45.269334 45.248a21.333333 21.333333 0 1 1-30.186667 30.165333L533.333333 149.333333zM149.333333 106.666667a21.333333 21.333333 0 1 1 42.666667 0v810.666666a21.333333 21.333333 0 0 1-42.666667 0V106.666667z m213.333334 149.333333h298.666666a85.333333 85.333333 0 0 1 85.333334 85.333333v362.666667a85.333333 85.333333 0 0 1-85.333334 85.333333H362.666667a85.333333 85.333333 0 0 1-85.333334-85.333333V341.333333a85.333333 85.333333 0 0 1 85.333334-85.333333z m469.333333-149.333333a21.333333 21.333333 0 0 1 42.666667 0v810.666666a21.333333 21.333333 0 0 1-42.666667 0V106.666667z" fill="#3D3D3D" p-id="21154"></path></svg>