<?xml version="1.0" standalone="no"?><!DOCTYPE svg PUBLIC "-//W3C//DTD SVG 1.1//EN" "http://www.w3.org/Graphics/SVG/1.1/DTD/svg11.dtd"><svg t="1688030001612" viewBox="0 0 1024 1024" version="1.1" xmlns="http://www.w3.org/2000/svg" p-id="18957" xmlns:xlink="http://www.w3.org/1999/xlink" width="200" height="200"><path d="M684.864 938.666667a21.589333 21.589333 0 0 1-4.394667 0H149.397333A64.128 64.128 0 0 1 85.333333 874.602667V149.397333a21.333333 21.333333 0 1 1 42.666667 0v725.205334C128 886.357333 137.621333 896 149.397333 896H213.333333V533.226667c0-23.466667 19.114667-42.56 42.453334-42.56h85.76c23.445333 0 42.453333 19.157333 42.453333 42.56V896h42.666667V639.893333c0-23.466667 19.114667-42.56 42.453333-42.56h85.76c23.445333 0 42.453333 19.157333 42.453333 42.56V896h64v-170.773333c0-23.466667 19.114667-42.56 42.453334-42.56h85.76c23.445333 0 42.453333 19.157333 42.453333 42.56V896h85.269333a21.333333 21.333333 0 0 1 0 42.666667h-104.405333a21.589333 21.589333 0 0 1-4.394667 0h-123.605333zM789.333333 896v-170.666667s-85.333333 0-85.333333-0.064V896h85.333333z m-234.666666 0V640s-85.333333 0-85.333334-0.064V896h85.333334z m-213.333334 0V533.333333s-85.333333 0-85.333333-0.064V896h85.333333z m430.186667-381.098667l-85.44-80.533333-100.138667 93.226667a21.333333 21.333333 0 0 1-29.482666-0.362667l-332.8-326.336a21.333333 21.333333 0 0 1 29.866666-30.464l318.250667 312.064 99.84-92.970667a21.333333 21.333333 0 0 1 29.162667 0.085334l101.461333 95.616 32.085333-30.976a10.666667 10.666667 0 0 1 18.005334 6.357333l13.226666 105.813333a10.666667 10.666667 0 0 1-12.266666 11.882667l-105.322667-16.938667a10.666667 10.666667 0 0 1-5.717333-18.197333l29.269333-28.266667z" fill="#3D3D3D" p-id="18958"></path></svg>