<?xml version="1.0" standalone="no"?><!DOCTYPE svg PUBLIC "-//W3C//DTD SVG 1.1//EN" "http://www.w3.org/Graphics/SVG/1.1/DTD/svg11.dtd"><svg t="1688029809279" viewBox="0 0 1024 1024" version="1.1" xmlns="http://www.w3.org/2000/svg" p-id="14561" xmlns:xlink="http://www.w3.org/1999/xlink" width="200" height="200"><path d="M470.144 830.954667c32.618667 7.765333 57.770667-4.394667 73.557333-31.701334 3.136-5.461333 12.586667-25.088 13.973334-27.733333 5.76-11.072 11.925333-20.970667 20.053333-31.530667 6.592-8.448 9.984-10.816 26.197333-19.328 26.666667-13.973333 42.581333-28.778667 54.4-57.749333 1.322667-0.64 3.2-1.472 5.76-2.517333l5.504-2.197334c14.186667-5.632 22.037333-9.6 30.933334-17.621333 15.552-13.994667 22.741333-33.877333 19.392-55.594667 0.170667 1.130667 0.085333-0.917333 0-4.138666-0.213333-12.266667-0.362667-17.557333-1.088-25.493334-3.562667-39.445333-14.805333-66.581333-53.013334-72.170666-3.114667-0.469333-20.821333-13.888-27.690666-21.781334-20.650667-23.616-107.776-36.309333-152.106667-35.114666-4.778667-1.557333-11.306667-5.141333-18.581333-10.24-2.346667-1.642667-25.621333-21.098667-34.496-24.085334-10.901333-3.648-21.034667-7.573333-43.477334-16.618666l-15.701333-6.293334c0-0.192 0.042667-0.298667 0.064-0.512l0.853333-5.397333c2.858667-18.432 4.672-29.504 6.805334-41.045333 2.112-11.498667 4.949333-22.933333 8.490666-34.282667l2.325334 1.429333c8.576 5.312 12.48 7.701333 17.472 10.666667l9.216 5.525333c17.024 10.24 25.024 14.826667 35.626666 20.181334 33.493333 16.832 63.466667 0.618667 78.592-28.010667 5.397333-10.24 9.066667-21.952 11.477334-34.133333 15.104 3.904 28.330667 3.968 46.485333-1.514667 31.189333-9.408 57.472-47.509333 57.472-79.509333v-4.714667c0-18.837333-0.170667-28.458667-1.834667-36.501333 127.978667 47.274667 227.946667 167.317333 246.122667 315.541333 22.528 183.68-82.069333 352.917333-248.32 415.317333-162.496 60.992-347.584 2.282667-447.04-141.888-89.92-130.325333-91.605333-300.906667-11.114667-430.954666 1.109333 5.738667 2.048 13.162667 4.053334 31.189333 2.176 19.712 3.2 28.074667 4.970666 36.906667 10.346667 53.077333 36.757333 113.088 67.562667 124.330666 19.882667 7.253333 34.56 8.426667 60.373333 7.424 15.338667-0.597333 20.608-0.234667 27.669334 2.133334 8.021333 2.709333 10.346667 5.290667 11.669333 12.416 3.178667 17.088 7.893333 27.989333 18.389333 46.848 5.76 10.432 7.338667 14.165333 8.192 19.904 2.026667 13.632 8.256 24.064 17.322667 33.898666 4.842667 5.269333 9.258667 9.152 17.344 15.829334 3.626667 2.965333 5.589333 4.586667 6.912 5.717333-0.234667 3.072-1.066667 9.6-3.157333 21.354667-6.122667 33.962667-7.125333 50.304 1.834666 71.146666a80.426667 80.426667 0 0 1-1.237333 7.253334l-1.002667 4.672c-4.266667 19.477333-5.333333 26.752-3.776 39.488 3.093333 25.408 20.245333 44.928 46.570667 51.2m-0.277333-214.805334c-5.781333-12.8-36.224-27.776-38.336-42.005333-4.224-28.650667-21.546667-39.808-26.837334-68.309333-4.288-22.997333-17.941333-37.589333-39.978666-45.034667-32.512-10.965333-54.826667 2.538667-87.04-9.216-10.453333-3.797333-32.810667-53.888-40.341334-92.416-3.413333-17.450667-5.546667-50.24-8.981333-68.010667-13.546667-70.037333-38.677333-55.018667-49.621333-55.018666-115.157333 145.130667-127.573333 357.034667-16.277334 518.293333 110.485333 160.149333 316.16 225.514667 497.173334 157.589333 178.730667-67.093333 301.312-251.050667 275.626666-460.437333-21.866667-178.624-146.474667-308.138667-287.573333-354.858667l0.106667-0.256c-2.517333-0.832-5.034667-1.493333-7.552-2.261333a322.773333 322.773333 0 0 0-23.658667-6.378667c-3.285333-0.789333-6.506667-1.792-9.813333-2.496 1.322667 1.898667-44.010667 0-12.693334 44.522667 12.565333 17.856 11.904 17.749333 11.904 52.586667 0 13.418667-14.293333 34.794667-27.136 38.677333-26.026667 7.829333-25.045333-6.570667-51.370666 0-14.250667 3.541333-21.397333 11.648-23.36 26.133333-2.368 17.536-10.56 50.154667-30.293334 40.234667-14.506667-7.274667-28.288-15.978667-42.282666-24.277333-15.061333-8.938667-29.717333-18.666667-45.056-27.072-16.768-9.173333-31.488 20.544-37.333334 39.168a335.637333 335.637333 0 0 0-9.621333 39.061333c-4.117333 22.357333-7.338667 44.928-10.944 67.370667 1.685333 0.768-0.768 15.701333 0 15.957333 28.714667 9.728 62.058667 25.109333 90.837333 34.730667 2.069333 0.704 40.064 38.336 70.144 37.077333 20.629333-0.853333 106.496 8.618667 116.416 19.968 6.912 7.936 33.685333 33.002667 53.653334 35.925333 21.034667 3.072 16.554667 55.957333 18.112 66.090667 4.8 30.976-46.72 22.869333-57.6 51.904-17.237333 45.994667-46.336 32.021333-76.117334 70.506667-40.746667 52.608-32.021333 83.157333-64 75.541333-31.957333-7.616 1.28-51.370667-10.154666-75.541333-12.906667-27.328 12.437333-70.208 0-97.749334" fill="#3D3D3D" p-id="14562"></path></svg>