<?xml version="1.0" standalone="no"?><!DOCTYPE svg PUBLIC "-//W3C//DTD SVG 1.1//EN" "http://www.w3.org/Graphics/SVG/1.1/DTD/svg11.dtd"><svg t="1688029581580" viewBox="0 0 1024 1024" version="1.1" xmlns="http://www.w3.org/2000/svg" p-id="8275" xmlns:xlink="http://www.w3.org/1999/xlink" width="200" height="200"><path d="M341.333333 469.333333h-0.064C223.402667 469.333333 128 564.8 128 682.666667c0 117.845333 95.424 213.333333 213.141333 213.333333h11.2a160.106667 160.106667 0 0 1 108.586667-141.013333 106.666667 106.666667 0 1 1 102.186667 0A160.106667 160.106667 0 0 1 671.637333 896H682.666667c117.824 0 213.333333-95.509333 213.333333-213.333333a212.394667 212.394667 0 0 0-20.629333-91.626667 21.333333 21.333333 0 1 1 38.528-18.346667A255.061333 255.061333 0 0 1 938.666667 682.666667c0 141.376-114.624 256-256 256a21.333333 21.333333 0 0 1 0-42.666667h0.192v42.666667H341.12C199.850667 938.666667 85.333333 824.064 85.333333 682.666667c0-141.44 114.496-256 255.936-256h11.093334a160.106667 160.106667 0 0 1 108.544-141.013334 106.666667 106.666667 0 1 1 102.186666 0A160.106667 160.106667 0 0 1 671.658667 426.666667h11.072v42.666666H682.666667a21.333333 21.333333 0 0 1 0-42.666666c32.085333 0 63.36 5.909333 92.672 17.28a21.333333 21.333333 0 1 1-15.445334 39.786666A212.736 212.736 0 0 0 682.666667 469.333333H341.333333c-117.824 0-213.333333 95.509333-213.333333 213.333334s95.509333 213.333333 213.333333 213.333333v42.666667C199.957333 938.666667 85.333333 824.042667 85.333333 682.666667s114.624-256 256-256v42.666666z m287.530667 426.666667a117.333333 117.333333 0 0 0-233.728 0h233.728z m0-469.333333a117.333333 117.333333 0 0 0-233.728 0h233.728zM512 256a64 64 0 1 0 0-128 64 64 0 0 0 0 128z m0 469.333333a64 64 0 1 0 0-128 64 64 0 0 0 0 128z" fill="#3D3D3D" p-id="8276"></path></svg>