<?xml version="1.0" standalone="no"?><!DOCTYPE svg PUBLIC "-//W3C//DTD SVG 1.1//EN" "http://www.w3.org/Graphics/SVG/1.1/DTD/svg11.dtd"><svg t="1688029699323" viewBox="0 0 1024 1024" version="1.1" xmlns="http://www.w3.org/2000/svg" p-id="11196" xmlns:xlink="http://www.w3.org/1999/xlink" width="200" height="200"><path d="M770.176 896h122.773333a21.333333 21.333333 0 0 0 21.333334-21.333333c0-91.157333-23.786667-176.106667-64.725334-234.304l-6.378666 30.506666C914.986667 627.2 960 546.965333 960 458.666667c0-121.237333-84.693333-224.021333-198.506667-242.432a21.333333 21.333333 0 0 0-6.826666 42.112C847.552 273.365333 917.333333 358.08 917.333333 458.666667c0 73.408-37.269333 139.84-96.32 175.744a21.333333 21.333333 0 0 0-6.357333 30.506666c35.584 50.56 56.96 126.933333 56.96 209.749334l21.333333-21.333334h-148.48a21.333333 21.333333 0 0 0 0 42.666667h25.706667z m-516.352-45.290667H131.050667l21.333333 21.333334c0-82.816 21.376-159.189333 56.96-209.749334a21.333333 21.333333 0 0 0-6.357333-30.506666C143.936 595.882667 106.666667 529.450667 106.666667 456.042667c0-100.586667 69.802667-185.301333 162.645333-200.32a21.333333 21.333333 0 0 0-6.826667-42.112C148.693333 232.021333 64 334.805333 64 456.042667c0 88.298667 45.013333 168.533333 116.821333 212.202666l-6.378666-30.506666c-40.96 58.197333-64.725333 143.146667-64.725334 234.304a21.333333 21.333333 0 0 0 21.333334 21.333333h148.48a21.333333 21.333333 0 1 0 0-42.666667h-25.706667z" fill="#3D3D3D" p-id="11197"></path><path d="M518.4 85.333333C349.909333 85.333333 213.333333 221.909333 213.333333 390.4c0 110.08 58.837333 209.962667 152.362667 264.149333l-6.485333-31.146666C305.493333 696.213333 274.133333 802.837333 274.133333 917.333333a21.333333 21.333333 0 0 0 21.333334 21.333334h445.866666a21.333333 21.333333 0 0 0 21.333334-21.333334c0-114.538667-31.36-221.141333-85.12-293.909333l-6.442667 31.146667A304.96 304.96 0 0 0 823.466667 390.4C823.466667 221.909333 686.890667 85.333333 518.4 85.333333z m131.306667 532.309334a21.333333 21.333333 0 0 0-6.464 31.146666C691.264 713.770667 720 811.477333 720 917.333333l21.333333-21.333333h-445.866666l21.333333 21.333333c0-105.813333 28.736-203.541333 76.736-268.586666a21.333333 21.333333 0 0 0-6.464-31.125334A262.250667 262.250667 0 0 1 256 390.4C256 245.482667 373.482667 128 518.4 128c144.917333 0 262.4 117.482667 262.4 262.4 0 94.698667-50.56 180.522667-131.093333 227.242667z" fill="#3D3D3D" p-id="11198"></path><path d="M512.106667 554.666667c72.746667-0.384 136-42.496 168.853333-119.637334a21.333333 21.333333 0 1 0-39.253333-16.725333c-26.197333 61.482667-74.112 93.397333-129.813334 93.696-55.893333 0.32-103.552-31.36-129.536-93.568a21.333333 21.333333 0 1 0-39.381333 16.469333c32.64 78.122667 95.936 120.170667 169.130667 119.765334z" fill="#3D3D3D" p-id="11199"></path></svg>