<?xml version="1.0" standalone="no"?><!DOCTYPE svg PUBLIC "-//W3C//DTD SVG 1.1//EN" "http://www.w3.org/Graphics/SVG/1.1/DTD/svg11.dtd"><svg t="1688029694371" viewBox="0 0 1024 1024" version="1.1" xmlns="http://www.w3.org/2000/svg" p-id="11050" xmlns:xlink="http://www.w3.org/1999/xlink" width="200" height="200"><path d="M170.666667 724.544v21.333333H128l0.042667-42.666666h21.333333s14.421333 0.021333 21.632 0.789333c227.797333-0.490667 669.44 0.490667 669.44 0.490667l-130.986667-246.421334c-8.746667-16.512-8.96-41.130667-0.277333-57.664L840.789333 149.333333l-669.845333 0.042667L170.666667 724.544zM854.421333 108.16c27.584 0.064 43.264 25.429333 30.336 50.048l-137.813333 262.037333c-2.048 3.925333-2.026667 13.610667 0.213333 17.792l137.322667 258.346667c13.056 24.597333-2.154667 50.346667-30.122667 50.304L196.970667 746.666667H128V138.88C128 121.002667 142.421333 106.666667 160.213333 106.666667l694.208 1.472zM128 938.666667h42.666667v-192H128v192z" fill="#3D3D3D" p-id="11051"></path></svg>