<?xml version="1.0" standalone="no"?><!DOCTYPE svg PUBLIC "-//W3C//DTD SVG 1.1//EN" "http://www.w3.org/Graphics/SVG/1.1/DTD/svg11.dtd"><svg t="1688029563139" viewBox="0 0 1024 1024" version="1.1" xmlns="http://www.w3.org/2000/svg" p-id="7691" xmlns:xlink="http://www.w3.org/1999/xlink" width="200" height="200"><path d="M753.92 128h1.664c-0.490667 0-0.853333 0.021333-1.216-0.128 0.384 0.149333 0.725333 0.128 1.216 0.128h-1.685333l-0.853334-1.322667 0.853334 1.322667H250.581333l-142.08 237.653333 374.122667 486.528-29.546667-38.4L319.722667 384h-197.12l-14.08-18.346667 14.549333-24.32h183.402667l-62.677334-201.984 6.784-11.349333h34.368l59.754667 192.576L471.893333 128h79.765334l123.370666 186.794667L732.992 128h20.906667l16.192 24.405333L711.466667 341.333333h183.850666l19.562667 29.525334-10.197333 13.141333H698.24l-137.941333 444.522667-48.106667 62.08-29.546667-38.4 29.546667 38.4 402.709333-519.744L753.898667 128zM215.509333 103.488c5.973333-10.026667 20.394667-18.154667 32.085334-18.154667h507.946666c11.733333 0 26.538667 7.978667 33.024 17.770667l166.997334 251.925333c6.485333 9.813333 6.016 25.173333-1.365334 34.709334L538.154667 926.741333c-14.421333 18.602667-37.824 18.474667-52.202667-0.234666L70.144 385.749333c-7.253333-9.429333-8.256-25.237333-2.282667-35.221333l147.669334-247.04z m145.536 269.76l147.904 476.650667 149.696-482.432L511.786667 145.045333l-150.72 228.202667z" fill="#3D3D3D" p-id="7692"></path></svg>