<?xml version="1.0" standalone="no"?><!DOCTYPE svg PUBLIC "-//W3C//DTD SVG 1.1//EN" "http://www.w3.org/Graphics/SVG/1.1/DTD/svg11.dtd"><svg t="1688029715512" viewBox="0 0 1024 1024" version="1.1" xmlns="http://www.w3.org/2000/svg" p-id="11636" xmlns:xlink="http://www.w3.org/1999/xlink" width="200" height="200"><path d="M134.762667 921.216a681.258667 681.258667 0 0 0 37.44-36.970667c38.4-40.768 76.778667-89.685333 112.554666-146.816C386.773333 574.506667 448 378.453333 448 149.333333a21.333333 21.333333 0 0 0-42.666667 0c0 220.714667-58.794667 409.045333-156.757333 565.461334-34.218667 54.656-70.869333 101.376-107.434667 140.202666A638.848 638.848 0 0 1 106.069333 889.6c-6.186667 5.632-10.517333 9.301333-12.672 11.008a21.333333 21.333333 0 1 0 26.538667 33.408c2.858667-2.261333 7.893333-6.549333 14.826667-12.821333z m783.146666-31.573333a638.848 638.848 0 0 1-35.050666-34.645334c-36.565333-38.826667-73.216-85.546667-107.434667-140.202666C677.461333 558.378667 618.666667 370.048 618.666667 149.333333a21.333333 21.333333 0 0 0-42.666667 0c0 229.098667 61.226667 425.173333 163.242667 588.096 35.776 57.130667 74.133333 106.026667 112.554666 146.816 13.525333 14.357333 26.112 26.666667 37.44 36.970667 6.933333 6.272 11.968 10.56 14.826667 12.821333a21.333333 21.333333 0 1 0 26.538667-33.408c-2.133333-1.706667-6.464-5.376-12.672-11.008z" fill="#3D3D3D" p-id="11637"></path><path d="M661.333333 298.666667a21.333333 21.333333 0 0 0 0-42.666667H362.666667a21.333333 21.333333 0 0 0 0 42.666667h298.666666z m-170.666666-170.666667a21.333333 21.333333 0 0 0 42.666666 0V64a21.333333 21.333333 0 0 0-42.666666 0v64z" fill="#3D3D3D" p-id="11638"></path><path d="M597.333333 170.666667a21.333333 21.333333 0 0 0 0-42.666667h-170.666666a21.333333 21.333333 0 0 0 0 42.666667h170.666666z m192 490.666666a21.333333 21.333333 0 0 0 0-42.666666H234.666667a21.333333 21.333333 0 0 0 0 42.666666h554.666666z m-277.44 170.666667c55.68 0.298667 103.616 32.213333 129.813334 93.696a21.333333 21.333333 0 1 0 39.253333-16.725333c-32.853333-77.12-96.106667-119.253333-168.853333-119.637334-73.194667-0.405333-136.469333 41.664-169.130667 119.786667a21.333333 21.333333 0 1 0 39.381333 16.448c25.984-62.186667 73.642667-93.866667 129.536-93.568z" fill="#3D3D3D" p-id="11639"></path></svg>