<?xml version="1.0" standalone="no"?><!DOCTYPE svg PUBLIC "-//W3C//DTD SVG 1.1//EN" "http://www.w3.org/Graphics/SVG/1.1/DTD/svg11.dtd"><svg t="1688030106397" viewBox="0 0 1024 1024" version="1.1" xmlns="http://www.w3.org/2000/svg" p-id="21883" xmlns:xlink="http://www.w3.org/1999/xlink" width="200" height="200"><path d="M725.333333 426.666667V192a21.333333 21.333333 0 0 1 42.666667 0v234.666667h106.666667a85.333333 85.333333 0 0 1 85.333333 85.333333v256a85.333333 85.333333 0 0 1-85.333333 85.333333H149.333333a85.333333 85.333333 0 0 1-85.333333-85.333333V512a85.333333 85.333333 0 0 1 85.333333-85.333333h576zM149.333333 469.333333a42.666667 42.666667 0 0 0-42.666666 42.666667v256a42.666667 42.666667 0 0 0 42.666666 42.666667h725.333334a42.666667 42.666667 0 0 0 42.666666-42.666667V512a42.666667 42.666667 0 0 0-42.666666-42.666667H149.333333z m42.666667 277.333334a21.333333 21.333333 0 0 1 0-42.666667h640a21.333333 21.333333 0 0 1 0 42.666667H192z m21.333333-85.333334a42.666667 42.666667 0 1 1 0-85.333333 42.666667 42.666667 0 0 1 0 85.333333z m128 0a42.666667 42.666667 0 1 1 0-85.333333 42.666667 42.666667 0 0 1 0 85.333333z m128 0a42.666667 42.666667 0 1 1 0-85.333333 42.666667 42.666667 0 0 1 0 85.333333z" fill="#3D3D3D" p-id="21884"></path></svg>