<?xml version="1.0" standalone="no"?><!DOCTYPE svg PUBLIC "-//W3C//DTD SVG 1.1//EN" "http://www.w3.org/Graphics/SVG/1.1/DTD/svg11.dtd"><svg t="1688029724924" viewBox="0 0 1024 1024" version="1.1" xmlns="http://www.w3.org/2000/svg" p-id="11930" xmlns:xlink="http://www.w3.org/1999/xlink" width="200" height="200"><path d="M170.666667 128c-23.509333 0-42.666667 19.178667-42.666667 42.666667v682.666666c0 23.509333 19.178667 42.666667 42.666667 42.666667h682.666666c23.509333 0 42.666667-19.178667 42.666667-42.666667V170.666667c0-23.509333-19.178667-42.666667-42.666667-42.666667H170.666667z m682.666666-42.666667c47.018667 0 85.333333 38.186667 85.333334 85.333334v682.666666c0 47.018667-38.186667 85.333333-85.333334 85.333334H170.666667c-47.018667 0-85.333333-38.186667-85.333334-85.333334V170.666667c0-47.018667 38.186667-85.333333 85.333334-85.333334h682.666666zM597.333333 512a85.333333 85.333333 0 1 0-170.666666 0 85.333333 85.333333 0 0 0 170.666666 0z m-39.786666 119.658667a128 128 0 0 1-166.549334-161.493334l-134.677333-213.333333 212.458667 134.656a128 128 0 0 1 164.010666 162.986667l134.869334 212.949333-210.112-135.765333z" fill="#3D3D3D" p-id="11931"></path></svg>