<?xml version="1.0" standalone="no"?><!DOCTYPE svg PUBLIC "-//W3C//DTD SVG 1.1//EN" "http://www.w3.org/Graphics/SVG/1.1/DTD/svg11.dtd"><svg t="1688029947741" viewBox="0 0 1024 1024" version="1.1" xmlns="http://www.w3.org/2000/svg" p-id="18216" xmlns:xlink="http://www.w3.org/1999/xlink" width="200" height="200"><path d="M710.592 205.376A106.666667 106.666667 0 0 1 896 277.397333v661.205334a21.333333 21.333333 0 1 0 42.666667 0V277.397333a149.333333 149.333333 0 0 0-259.562667-100.8 21.333333 21.333333 0 1 0 31.488 28.8z" fill="#3D3D3D" p-id="18217"></path><path d="M694.826667 480.789333A210.837333 210.837333 0 0 0 757.333333 330.666667c0-116.778667-94.677333-211.456-211.456-211.456a210.816 210.816 0 0 0-148.416 60.821333 21.333333 21.333333 0 1 0 29.930667 30.4A168.789333 168.789333 0 0 1 664.746667 450.496a21.333333 21.333333 0 0 0 30.08 30.293333z" fill="#3D3D3D" p-id="18218"></path><path d="M396.736 214.506667L663.253333 481.984a21.333333 21.333333 0 1 0 30.229334-30.122667L426.965333 184.384a21.333333 21.333333 0 1 0-30.229333 30.122667z" fill="#3D3D3D" p-id="18219"></path><path d="M338.410667 319.253333m-30.691832-29.638757a42.666667 42.666667 0 1 0 61.383663 59.277514 42.666667 42.666667 0 1 0-61.383663-59.277514Z" fill="#3D3D3D" p-id="18220"></path><path d="M234.666667 426.666667m-30.691832-29.638757a42.666667 42.666667 0 1 0 61.383663 59.277514 42.666667 42.666667 0 1 0-61.383663-59.277514Z" fill="#3D3D3D" p-id="18221"></path><path d="M130.922667 534.08m-30.691832-29.638757a42.666667 42.666667 0 1 0 61.383663 59.277514 42.666667 42.666667 0 1 0-61.383663-59.277514Z" fill="#3D3D3D" p-id="18222"></path><path d="M445.077333 447.253333m-30.691831-29.638757a42.666667 42.666667 0 1 0 61.383663 59.277514 42.666667 42.666667 0 1 0-61.383663-59.277514Z" fill="#3D3D3D" p-id="18223"></path><path d="M341.333333 554.666667m-30.691831-29.638757a42.666667 42.666667 0 1 0 61.383663 59.277514 42.666667 42.666667 0 1 0-61.383663-59.277514Z" fill="#3D3D3D" p-id="18224"></path><path d="M237.589333 662.08m-30.691831-29.638757a42.666667 42.666667 0 1 0 61.383663 59.277514 42.666667 42.666667 0 1 0-61.383663-59.277514Z" fill="#3D3D3D" p-id="18225"></path><path d="M551.744 575.253333m-30.691831-29.638757a42.666667 42.666667 0 1 0 61.383662 59.277514 42.666667 42.666667 0 1 0-61.383662-59.277514Z" fill="#3D3D3D" p-id="18226"></path><path d="M448 682.666667m-30.691831-29.638757a42.666667 42.666667 0 1 0 61.383662 59.277514 42.666667 42.666667 0 1 0-61.383662-59.277514Z" fill="#3D3D3D" p-id="18227"></path><path d="M344.256 790.08m-30.691831-29.638757a42.666667 42.666667 0 1 0 61.383662 59.277514 42.666667 42.666667 0 1 0-61.383662-59.277514Z" fill="#3D3D3D" p-id="18228"></path></svg>