<?xml version="1.0" standalone="no"?><!DOCTYPE svg PUBLIC "-//W3C//DTD SVG 1.1//EN" "http://www.w3.org/Graphics/SVG/1.1/DTD/svg11.dtd"><svg t="1688029742326" viewBox="0 0 1024 1024" version="1.1" xmlns="http://www.w3.org/2000/svg" p-id="12514" xmlns:xlink="http://www.w3.org/1999/xlink" width="200" height="200"><path d="M170.666667 896.064L853.333333 896V127.936L170.666667 128v768.064zM299.733333 490.666667a213.504 213.504 0 0 1 128.490667-174.933334c-3.904 6.698667-7.594667 13.866667-11.072 21.504-18.901333 41.6-30.442667 95.488-32.725333 153.429334h-84.693334z m0 42.666666h84.693334c2.688 69.717333 18.581333 132.053333 43.733333 174.890667A213.504 213.504 0 0 1 299.733333 533.333333z m424.533334-42.666666h-84.693334c-2.688-69.717333-18.581333-132.053333-43.733333-174.890667A213.504 213.504 0 0 1 724.266667 490.666667z m0 42.666666a213.504 213.504 0 0 1-128.490667 174.933334c3.904-6.698667 7.594667-13.866667 11.072-21.504 18.901333-41.6 30.442667-95.488 32.725333-153.429334h84.693334z m-297.152-42.666666c2.24-52.010667 12.544-99.84 28.885333-135.765334C472.789333 317.952 493.525333 298.666667 512 298.666667c39.957333 0 80.149333 83.114667 84.864 192h-169.749333z m169.770666 42.666666c-2.24 52.010667-12.544 99.84-28.885333 135.765334C551.210667 706.048 530.474667 725.333333 512 725.333333c-39.957333 0-80.149333-83.114667-84.864-192h169.749333zM170.645333 85.333333H853.333333c23.573333 0 42.666667 19.029333 42.666667 42.602667v768.128C896 919.594667 877.013333 938.666667 853.333333 938.666667H170.666667c-23.573333 0-42.666667-19.029333-42.666667-42.602667V127.936C128 104.405333 146.986667 85.333333 170.666667 85.333333zM768 512c0-141.376-114.624-256-256-256s-256 114.624-256 256 114.624 256 256 256 256-114.624 256-256z" fill="#3D3D3D" p-id="12515"></path></svg>