<?xml version="1.0" standalone="no"?><!DOCTYPE svg PUBLIC "-//W3C//DTD SVG 1.1//EN" "http://www.w3.org/Graphics/SVG/1.1/DTD/svg11.dtd"><svg t="1688030124721" viewBox="0 0 1024 1024" version="1.1" xmlns="http://www.w3.org/2000/svg" p-id="22175" xmlns:xlink="http://www.w3.org/1999/xlink" width="200" height="200"><path d="M896 256a128 128 0 1 0-256 0h256z m-298.624 4.074667a170.666667 170.666667 0 1 1 341.248 0c24.874667 9.877333 42.709333 36.565333 42.709333 67.925333v240c0 31.36-17.813333 58.026667-42.666666 67.904V768a170.666667 170.666667 0 1 1-341.333334 0v-132.096c-24.853333-9.877333-42.666667-36.565333-42.666666-67.904v-240c0-31.36 17.834667-58.048 42.709333-67.925333zM640 640v128a128 128 0 1 0 256 0v-128H640zM384 256a128 128 0 1 0-256 0h256z m-298.624 4.074667a170.666667 170.666667 0 1 1 341.248 0c24.874667 9.877333 42.709333 36.565333 42.709333 67.925333v240c0 31.36-17.813333 58.026667-42.666666 67.904V768a170.666667 170.666667 0 1 1-341.333334 0v-132.096c-24.853333-9.877333-42.666667-36.565333-42.666666-67.904v-240c0-31.36 17.834667-58.048 42.709333-67.925333zM128 640v128a128 128 0 1 0 256 0v-128H128zM106.666667 298.666667c-11.776 0-21.333333 11.136-21.333334 24.896v248.874666C85.333333 586.197333 94.890667 597.333333 106.666667 597.333333h298.666666c11.776 0 21.333333-11.136 21.333334-24.896V323.562667c0-13.76-9.557333-24.896-21.333334-24.896H106.666667z m512 0c-11.776 0-21.333333 11.136-21.333334 24.896v248.874666c0 13.76 9.557333 24.896 21.333334 24.896h298.666666c11.776 0 21.333333-11.136 21.333334-24.896V323.562667c0-13.76-9.557333-24.896-21.333334-24.896H618.666667z" fill="#3D3D3D" p-id="22176"></path></svg>