<?xml version="1.0" standalone="no"?><!DOCTYPE svg PUBLIC "-//W3C//DTD SVG 1.1//EN" "http://www.w3.org/Graphics/SVG/1.1/DTD/svg11.dtd"><svg t="1688030066249" viewBox="0 0 1024 1024" version="1.1" xmlns="http://www.w3.org/2000/svg" p-id="20713" xmlns:xlink="http://www.w3.org/1999/xlink" width="200" height="200"><path d="M128 416v-42.666667h768v42.666667H128z m106.666667-117.333333a21.333333 21.333333 0 0 1 0-42.666667h128a21.333333 21.333333 0 0 1 0 42.666667h-128zM149.333333 128a21.333333 21.333333 0 0 0-21.333333 21.333333v469.333334a21.333333 21.333333 0 0 0 21.333333 21.333333h725.333334a21.333333 21.333333 0 0 0 21.333333-21.333333V149.333333a21.333333 21.333333 0 0 0-21.333333-21.333333H149.333333z m384 554.666667v234.666666a21.333333 21.333333 0 0 1-42.666666 0V682.666667H149.333333a64 64 0 0 1-64-64V149.333333a64 64 0 0 1 64-64h725.333334a64 64 0 0 1 64 64v469.333334a64 64 0 0 1-64 64H533.333333z" fill="#3D3D3D" p-id="20714"></path></svg>