<?xml version="1.0" standalone="no"?><!DOCTYPE svg PUBLIC "-//W3C//DTD SVG 1.1//EN" "http://www.w3.org/Graphics/SVG/1.1/DTD/svg11.dtd"><svg t="1689151200826" viewBox="0 0 1268 1024" version="1.1" xmlns="http://www.w3.org/2000/svg" p-id="31921" xmlns:xlink="http://www.w3.org/1999/xlink" width="247.65625" height="200"><path d="M502.371218 463.018806L116.382666 22.606705A66.145544 66.145544 0 1 0 20.932134 115.54538l430.364677 397.710548a153.223222 153.223222 0 0 0 41.864268 162.433361 139.826656 139.826656 0 0 0 192.575634 25.955846 139.826656 139.826656 0 0 0-20.932134-193.412919A154.060507 154.060507 0 0 0 502.371218 463.018806zM83.728536 83.728536a21.769419 21.769419 0 1 1 0-33.491414 21.769419 21.769419 0 0 1 0 33.491414z" fill="#2c2c2c" p-id="31922"></path><path d="M319.843009 251.185609l-46.050695-51.911692A669.828291 669.828291 0 0 0 167.457073 251.185609l50.237122 46.050695A653.082584 653.082584 0 0 1 319.843009 251.185609z" fill="#2c2c2c" p-id="31923"></path><path d="M1265.138185 424.503679c0-152.385936-277.141455-276.30417-618.753884-276.30417a1219.08749 1219.08749 0 0 0-339.100572 45.21341l46.88798 53.586263a1172.199509 1172.199509 0 0 1 292.212592-34.3287c343.286999 0 554.282911 123.918234 554.282911 212.670483S989.6713 636.336877 646.384301 636.336877 92.10139 513.255928 92.10139 424.503679c0-35.165985 32.654129-75.355683 92.938675-111.358953l-48.562551-45.21341a199.273917 199.273917 0 0 0-108.847097 156.572363 128.104661 128.104661 0 0 0 0 13.396566A568.516762 568.516762 0 0 0 418.642682 962.878168v61.121832h459.669665v-61.121832a568.516762 568.516762 0 0 0 389.337694-524.140637 128.104661 128.104661 0 0 0-2.511856-14.233852z" fill="#2c2c2c" p-id="31924"></path><path d="M984.647588 441.249387a370.917416 370.917416 0 0 1-196.762061-52.748978 190.063778 190.063778 0 0 0-178.341782-18.420278 19.257563 19.257563 0 0 1-17.582993-35.165985 227.741619 227.741619 0 0 1 216.856909 20.932134 357.52085 357.52085 0 0 0 218.53148 43.538839 19.257563 19.257563 0 0 1 22.606705 16.745707 19.257563 19.257563 0 0 1-16.745707 22.606705 344.124285 344.124285 0 0 1-48.562551 2.511856z" fill="#2c2c2c" p-id="31925"></path><path d="M984.647588 370.917416a370.917416 370.917416 0 0 1-196.762061-52.748978 190.063778 190.063778 0 0 0-178.341782-18.420278 19.257563 19.257563 0 0 1-17.582993-35.165985 228.578904 228.578904 0 0 1 216.856909 20.932134 356.683565 356.683565 0 0 0 218.53148 43.538839 19.257563 19.257563 0 0 1 22.606705 16.745707 19.257563 19.257563 0 0 1-16.745707 22.606705 344.124285 344.124285 0 0 1-48.562551 2.511856zM967.901881 508.232216a370.917416 370.917416 0 0 1-196.762061-52.748978 190.063778 190.063778 0 0 0-178.341782-18.420278 19.257563 19.257563 0 0 1-17.582993-35.165985 227.741619 227.741619 0 0 1 216.856909 16.745707 356.683565 356.683565 0 0 0 218.53148 43.538839 19.257563 19.257563 0 0 1 22.606705 16.745707 19.257563 19.257563 0 0 1-16.745707 22.606705 344.124285 344.124285 0 0 1-48.562551 6.698283z" fill="#2c2c2c" p-id="31926"></path></svg>