<?xml version="1.0" standalone="no"?><!DOCTYPE svg PUBLIC "-//W3C//DTD SVG 1.1//EN" "http://www.w3.org/Graphics/SVG/1.1/DTD/svg11.dtd"><svg t="1689151702369" viewBox="0 0 1024 1024" version="1.1" xmlns="http://www.w3.org/2000/svg" p-id="43486" xmlns:xlink="http://www.w3.org/1999/xlink" width="200" height="200"><path d="M488.770115 0m13.298035 0l19.876523 0q13.298035 0 13.298035 13.298035l0 167.232089q0 13.298035-13.298035 13.298035l-19.876523 0q-13.298035 0-13.298035-13.298035l0-167.232089q0-13.298035 13.298035-13.298035Z" p-id="43487"></path><path d="M970.933546 180.478511m9.403131 9.403131l14.054824 14.054824q9.403131 9.403131 0 18.806262l-118.250944 118.250944q-9.403131 9.403131-18.806261 0l-14.054825-14.054824q-9.403131-9.403131 0-18.806262l118.250945-118.250944q9.403131-9.403131 18.806261 0Z" p-id="43488"></path><path d="M190.134165 317.535872m-9.403131 9.403131l-14.054824 14.054825q-9.403131 9.403131-18.806262 0l-118.250944-118.250945q-9.403131-9.403131 0-18.806261l14.054824-14.054824q9.403131-9.403131 18.806262 0l118.250944 118.250944q9.403131 9.403131 0 18.806261Z" p-id="43489"></path><path d="M280.707801 829.19725H45.241531l49.460484-265.896585H171.91269L132.300703 786.08443h158.294065zM320.281317 829.19725l49.460484-265.896585h245.36606L609.196198 608.811491H442.951523l-11.861796 62.284047h154.331585L575.521521 714.272476H421.189937l-11.87462 71.811954h172.143514l-9.886968 43.125644zM632.906967 829.19725l49.473307-265.896585h124.657859q182.017657 2.41083 160.294541 134.134472-27.763015 131.78776-209.767849 131.762113z m120.708201-220.385759L719.966138 786.08443h41.561168q106.858753 2.423653 122.670207-88.636469 19.748287-91.047299-89.034-88.623646zM192.058508 501.208971a364.189198 364.189198 0 0 1 63.527932-85.36646 363.137665 363.137665 0 0 1 576.355052 85.36646h49.934956C817.220042 361.624485 675.878727 264.819406 512.006412 264.819406S206.779958 361.624485 142.123552 501.208971zM172.810339 905.305098h678.392146v40.330107H172.810339zM333.771706 983.65707h356.456588v40.330106H333.771706z" p-id="43490"></path></svg>