<?xml version="1.0" standalone="no"?><!DOCTYPE svg PUBLIC "-//W3C//DTD SVG 1.1//EN" "http://www.w3.org/Graphics/SVG/1.1/DTD/svg11.dtd"><svg t="1689150092506" viewBox="0 0 1024 1024" version="1.1" xmlns="http://www.w3.org/2000/svg" p-id="2189" xmlns:xlink="http://www.w3.org/1999/xlink" width="200" height="200"><path d="M882 470.5v180c0 99-81 180-180 180H322c-99 0-180-81-180-180v-180h15v120c0 99 81 180 180 180h350c99 0 180-81 180-180v-120h15z" fill="#2c2c2c" p-id="2190"></path><path d="M864 650.5c0 43.1-16.9 83.7-47.6 114.4-30.7 30.7-71.3 47.6-114.4 47.6H322c-43.1 0-83.7-16.9-114.4-47.6-30.7-30.7-47.6-71.3-47.6-114.4v-180h-36v180c0 52.7 20.7 102.4 58.2 139.8 37.5 37.5 87.2 58.2 139.8 58.2h380c52.7 0 102.4-20.7 139.8-58.2 37.5-37.5 58.2-87.2 58.2-139.8v-180h-36v180zM271 419.8h-69c-9.9 0-18-8.1-18-18V283.5c0-50.8 19-97.3 53.6-131 33.8-32.9 79.3-51 128.4-51 38.9 0 76 12.2 107.4 35.3 30.7 22.6 53.3 53.5 65.4 89.5 0 0.1 0.1 0.3 0.1 0.4 11.4 37.1-6.9 63.5-28.6 72.2-14.5 5.8-29.5 5.8-42.3-0.3-9-4.3-21.1-13.6-27.5-33.9-4.5-14.4-14.9-28.8-28.4-39.7-14.2-11.4-30.6-17.6-46.1-17.6-20.6 0-39.8 7.9-54.1 22.3-14.7 14.8-22.9 35.3-22.9 57.7v114.3c0 10-8.1 18.1-18 18.1z m-51-35h33v-97.3c0-65 49.6-116 113-116 23.7 0 48 9.1 68.6 25.5 19.3 15.4 33.6 35.6 40.3 57 2 6.3 4.8 10.4 8.5 12.1 3.5 1.7 8.4 1.4 13.4-0.6 10-4 11.1-17 7.7-28.1-9.5-28.4-28.2-53.8-52.5-71.7-25.2-18.5-55-28.3-86.1-28.3-39.6 0-76.3 14.5-103.3 40.8-27.6 26.9-42.7 64.2-42.7 105.2v101.4z" fill="#2c2c2c" p-id="2191"></path><path d="M922 407.9v1.6c0 22-18 40-40 40H142c-22 0-40-18-40-40v-1.6c-11.9 6.9-20 19.9-20 34.6v6c0 22 18 40 40 40h780c22 0 40-18 40-40v-6c0-14.7-8.1-27.6-20-34.6z" fill="#2c2c2c" p-id="2192"></path><path d="M902 384.5H122c-32 0-58 26-58 58v6c0 32 26 58 58 58h780c32 0 58-26 58-58v-6c0-32-26-58-58-58z m22 64c0 12.1-9.9 22-22 22H122c-12.1 0-22-9.9-22-22v-6c0-12.1 9.9-22 22-22h780c12.1 0 22 9.9 22 22v6zM345 922.5h-46c-30.3 0-55-24.7-55-55s24.7-55 55-55h46c30.3 0 55 24.7 55 55s-24.7 55-55 55z m-46-74c-10.5 0-19 8.5-19 19s8.5 19 19 19h46c10.5 0 19-8.5 19-19s-8.5-19-19-19h-46zM728 922.5h-52c-28.7 0-52-23.3-52-52v-6c0-28.7 23.3-52 52-52h52c28.7 0 52 23.3 52 52v6c0 28.7-23.3 52-52 52z m-52-74c-8.8 0-16 7.2-16 16v6c0 8.8 7.2 16 16 16h52c8.8 0 16-7.2 16-16v-6c0-8.8-7.2-16-16-16h-52z" fill="#2c2c2c" p-id="2193"></path></svg>