<svg 
 xmlns="http://www.w3.org/2000/svg"
 xmlns:xlink="http://www.w3.org/1999/xlink"
 width="25px" height="24px">
<path fill-rule="evenodd"  fill=""
 d="M21.169,17.167 L19.373,15.950 C19.47,15.728 18.970,15.293 19.200,14.979 C19.430,14.665 19.880,14.590 20.205,14.813 L23.855,17.284 C24.45,17.410 24.160,17.619 24.162,17.842 L24.162,17.863 C24.162,18.47 24.86,18.225 23.951,18.355 C23.816,18.486 23.632,18.560 23.441,18.560 L13.670,18.560 C13.272,18.560 12.949,18.248 12.949,17.864 C12.949,17.479 13.272,17.167 13.670,17.167 L21.169,17.167 ZM17.735,22.732 C18.61,22.953 18.140,23.387 17.911,23.702 C17.682,24.17 17.232,24.93 16.906,23.872 L13.256,21.400 C13.67,21.275 12.952,21.69 12.949,20.847 L12.949,20.822 C12.949,20.637 13.25,20.460 13.160,20.329 C13.295,20.198 13.479,20.125 13.670,20.125 L23.441,20.125 C23.839,20.125 24.162,20.437 24.162,20.821 C24.162,21.206 23.839,21.518 23.441,21.518 L15.942,21.518 L17.735,22.732 ZM15.472,14.105 L8.506,14.105 C8.210,14.105 7.937,13.953 7.789,13.706 C7.641,13.459 7.641,13.154 7.789,12.908 C7.937,12.660 8.210,12.507 8.506,12.507 L15.472,12.507 C15.846,12.507 16.221,12.540 16.591,12.603 C17.21,12.697 17.299,13.100 17.223,13.520 C17.147,13.939 16.744,14.227 16.306,14.175 C16.31,14.128 15.752,14.105 15.472,14.105 L15.472,14.105 ZM6.408,20.430 L9.197,20.430 C9.654,20.430 10.25,20.788 10.25,21.228 C10.25,21.670 9.654,22.27 9.197,22.27 L0.826,22.27 C0.593,22.27 0.370,21.932 0.213,21.766 C0.57,21.599 0.19,21.377 0.2,21.152 C0.444,16.707 4.260,12.509 8.505,12.509 C8.948,12.526 9.299,12.878 9.299,13.307 C9.299,13.736 8.948,14.88 8.505,14.105 C5.204,14.105 2.15,17.611 1.648,21.306 L0.826,20.430 L6.408,20.430 ZM11.807,11.436 C9.669,11.467 7.679,10.383 6.601,8.600 C5.523,6.818 5.524,4.614 6.602,2.832 C7.681,1.49 9.671,0.32 11.810,0.0 C15.33,0.65 17.610,2.606 17.610,5.718 C17.609,8.829 15.32,11.369 11.808,11.435 L11.807,11.436 ZM11.807,1.594 C10.281,1.594 8.870,2.381 8.107,3.656 C7.344,4.932 7.344,6.503 8.107,7.778 C8.870,9.54 10.281,9.840 11.807,9.840 C14.166,9.840 16.78,7.995 16.78,5.718 C16.78,3.441 14.166,1.596 11.807,1.596 L11.807,1.594 Z"/>
</svg>