<svg 
 xmlns="http://www.w3.org/2000/svg"
 xmlns:xlink="http://www.w3.org/1999/xlink"
 width="37px" height="37px">
<defs>
<filter filterUnits="userSpaceOnUse" id="Filter_0" x="0px" y="0px" width="37px" height="37px"  >
    <feOffset in="SourceAlpha" dx="2.5" dy="4.33" />
    <feGaussianBlur result="blurOut" stdDeviation="2.236" />
    <feFlood flood-color="rgb(0, 0, 0)" result="floodOut" />
    <feComposite operator="atop" in="floodOut" in2="blurOut" />
    <feComponentTransfer><feFuncA type="linear" slope="0.2"/></feComponentTransfer>
    <feMerge>
    <feMergeNode/>
    <feMergeNode in="SourceGraphic"/>
  </feMerge>
</filter>

</defs>
<g filter="url(#Filter_0)">
<path fill-rule="evenodd"  fill=""
 d="M26.656,16.336 C25.101,16.336 24.323,15.558 24.323,14.2 L24.323,11.668 C24.323,6.511 20.146,2.331 14.994,2.331 C9.841,2.331 5.664,6.511 5.664,11.668 L5.664,14.2 C5.664,15.558 4.887,16.336 3.332,16.336 C1.777,16.336 0.999,15.558 0.999,14.2 L0.999,11.668 C0.999,10.111 1.777,9.333 3.332,9.333 C3.419,9.333 3.479,9.361 3.561,9.366 C4.629,4.23 9.340,0.3 14.994,0.3 C20.647,0.3 25.358,4.23 26.427,9.366 C26.509,9.361 26.568,9.333 26.656,9.333 C28.211,9.333 28.988,10.111 28.988,11.668 L28.988,14.2 C28.988,15.558 28.211,16.336 26.656,16.336 ZM18.492,17.732 C16.327,18.983 13.660,18.983 11.495,17.732 C9.330,16.481 7.997,14.169 7.997,11.668 C7.997,7.800 11.129,4.665 14.994,4.665 C18.858,4.665 21.991,7.800 21.991,11.668 C21.991,14.169 20.657,16.481 18.492,17.732 ZM7.823,17.503 C9.618,19.593 12.239,20.792 14.994,20.780 C17.688,20.791 20.257,19.645 22.52,17.634 L22.165,17.503 C25.559,18.908 27.822,21.487 27.822,25.293 C27.822,25.974 26.963,26.743 25.886,27.45 C23.554,27.695 19.388,28.11 14.994,28.7 C10.886,28.3 7.82,27.747 4.659,27.213 C3.303,26.912 2.166,26.411 2.166,25.293 C2.166,21.487 4.428,18.908 7.823,17.503 Z"/>
</g>
</svg>