<svg 
 xmlns="http://www.w3.org/2000/svg"
 xmlns:xlink="http://www.w3.org/1999/xlink"
 width="22px" height="22px">
<path fill-rule="evenodd" fill=""
 d="M10.999,0.1 C4.934,0.1 0.0,4.933 0.0,10.998 C0.0,17.63 4.934,21.998 10.999,21.998 C17.65,21.998 21.999,17.63 21.999,10.998 C21.999,4.933 17.65,0.1 10.999,0.1 L10.999,0.1 ZM18.790,5.920 L16.271,5.920 C15.910,4.604 15.413,3.446 14.808,2.514 C16.433,3.247 17.815,4.428 18.790,5.920 L18.790,5.920 ZM15.230,10.998 C15.232,12.133 15.129,13.267 14.921,14.383 L7.77,14.383 C6.665,12.145 6.665,9.851 7.77,7.613 L14.921,7.613 C15.129,8.729 15.232,9.863 15.230,10.998 L15.230,10.998 ZM10.999,20.305 C9.703,20.305 8.315,18.696 7.495,16.75 L14.502,16.75 C13.684,18.696 12.295,20.305 10.999,20.305 L10.999,20.305 ZM7.495,5.920 C8.316,3.300 9.703,1.690 10.999,1.690 C12.295,1.690 13.684,3.300 14.504,5.920 L7.495,5.920 ZM7.190,2.514 C6.586,3.446 6.89,4.604 5.728,5.920 L3.208,5.920 C4.184,4.430 5.566,3.247 7.190,2.514 L7.190,2.514 ZM2.338,7.613 L5.353,7.613 C4.983,9.855 4.983,12.141 5.353,14.383 L2.338,14.383 C1.476,12.208 1.476,9.787 2.338,7.613 L2.338,7.613 ZM3.208,16.75 L5.728,16.75 C6.89,17.392 6.586,18.549 7.190,19.481 C5.566,18.749 4.184,17.566 3.208,16.75 L3.208,16.75 ZM14.808,19.481 C15.413,18.549 15.910,17.392 16.271,16.75 L18.790,16.75 C17.814,17.566 16.433,18.749 14.808,19.481 L14.808,19.481 ZM19.661,14.383 L16.645,14.383 C17.15,12.141 17.15,9.855 16.645,7.613 L19.661,7.613 C20.522,9.787 20.522,12.208 19.661,14.383 L19.661,14.383 Z"/>
</svg>