<svg 
 xmlns="http://www.w3.org/2000/svg"
 xmlns:xlink="http://www.w3.org/1999/xlink"
 width="" height="" viewBox="0 0 90 90">
<path fill-rule="evenodd"  fill=""
 d="M44.999,89.997 C20.159,89.997 0.0,69.837 0.0,44.997 C0.0,20.157 20.159,0.3 44.999,0.3 C69.839,0.3 89.999,20.157 89.999,44.997 C89.999,69.837 69.839,89.997 44.999,89.997 ZM44.999,3.11 C21.807,3.11 3.13,21.805 3.13,44.997 C3.13,68.189 21.807,86.982 44.999,86.982 C68.192,86.982 86.985,68.189 86.985,44.997 C86.985,21.805 68.192,3.11 44.999,3.11 ZM58.589,49.452 L43.874,58.586 C43.65,59.127 42.119,59.397 41.129,59.397 C40.319,59.397 39.554,59.218 38.834,58.857 C37.34,57.912 35.954,56.66 35.999,54.87 L35.999,35.862 C35.954,33.926 37.34,32.128 38.789,31.137 C40.364,30.327 42.299,30.417 43.829,31.361 L58.679,40.453 C60.254,41.443 61.199,43.107 61.154,44.907 C61.199,46.753 60.209,48.461 58.589,49.452 Z"/>
</svg>