<svg 
 xmlns="http://www.w3.org/2000/svg"
 xmlns:xlink="http://www.w3.org/1999/xlink"
 width="22px" height="22px">
<path fill-rule="evenodd"  fill=""
 d="M9.995,0.1 C15.516,0.1 19.992,4.473 19.992,9.995 C19.992,12.366 19.165,14.546 17.784,16.261 C17.898,16.282 18.3,16.337 18.85,16.420 L21.827,20.162 C22.56,20.392 22.56,20.764 21.827,20.994 L20.995,21.825 C20.766,22.55 20.393,22.55 20.164,21.825 L16.422,18.83 C16.339,18.1 16.283,17.896 16.261,17.783 C14.487,19.214 12.275,19.994 9.995,19.989 C4.475,19.989 0.0,15.515 0.0,9.995 C0.0,4.473 4.475,0.1 9.995,0.1 L9.995,0.1 ZM9.995,2.350 C5.773,2.350 2.351,5.772 2.351,9.995 C2.351,14.216 5.773,17.638 9.995,17.638 C14.217,17.638 17.639,14.216 17.639,9.995 C17.639,5.772 14.217,2.350 9.995,2.350 L9.995,2.350 Z"/>
</svg>