<svg 
 xmlns="http://www.w3.org/2000/svg"
 xmlns:xlink="http://www.w3.org/1999/xlink"
 width="22px" height="22px">
<path fill-rule="evenodd"  fill=""
 d="M11.6,21.999 C4.940,21.999 0.0,17.68 0.0,10.999 C0.0,4.930 4.927,0.0 10.993,0.0 C11.506,0.0 11.931,0.412 11.931,0.937 C11.931,1.463 11.519,1.876 10.993,1.876 C5.953,1.876 1.863,5.968 1.863,11.12 C1.863,16.55 5.953,20.134 10.993,20.134 C16.33,20.134 20.123,16.42 20.123,10.999 C20.98,10.486 20.486,10.48 21.11,10.10 C21.524,9.985 21.962,10.374 21.999,10.899 L21.999,10.999 C21.999,17.68 17.72,21.999 11.6,21.999 ZM17.947,8.359 C17.572,8.709 16.996,8.684 16.646,8.309 C16.321,7.958 16.321,7.408 16.646,7.57 L16.922,6.782 L15.746,6.782 C12.519,6.782 11.431,8.158 11.431,12.301 C11.431,12.814 11.18,13.214 10.518,13.214 C10.18,13.214 9.605,12.801 9.605,12.301 C9.605,7.170 11.481,4.942 15.758,4.942 L16.947,4.942 L16.646,4.680 C16.309,4.304 16.334,3.716 16.721,3.378 C17.72,3.65 17.610,3.65 17.960,3.391 L19.561,4.992 C20.48,5.480 20.48,6.269 19.561,6.744 L17.947,8.359 Z"/>
</svg>