<svg 
 xmlns="http://www.w3.org/2000/svg"
 xmlns:xlink="http://www.w3.org/1999/xlink"
 width="23px" height="21px">
<path fill-rule="evenodd"  fill=""
 d="M15.573,7.33 C15.838,7.33 16.99,7.54 16.357,7.84 C15.653,3.583 12.146,0.982 8.144,0.982 C3.669,0.982 0.3,4.238 0.3,8.372 C0.3,10.759 1.223,12.718 3.260,14.239 L2.446,16.853 L5.292,15.331 C6.311,15.544 7.128,15.766 8.144,15.766 C8.399,15.766 8.652,15.752 8.904,15.732 C8.745,15.151 8.652,14.541 8.652,13.910 C8.652,10.113 11.706,7.33 15.573,7.33 L15.573,7.33 ZM11.197,4.675 C11.810,4.675 12.216,5.107 12.216,5.761 C12.216,6.414 11.810,6.849 11.197,6.849 C10.586,6.849 9.975,6.414 9.975,5.761 C9.975,5.107 10.586,4.675 11.197,4.675 L11.197,4.675 ZM5.500,6.849 C4.889,6.849 4.273,6.414 4.273,5.761 C4.273,5.107 4.889,4.675 5.500,4.675 C6.109,4.675 6.516,5.107 6.516,5.761 C6.516,6.414 6.109,6.849 5.500,6.849 L5.500,6.849 ZM23.4,13.806 C23.4,10.332 19.747,7.500 16.89,7.500 C12.216,7.500 9.165,10.332 9.165,13.806 C9.165,17.285 12.216,20.111 16.89,20.111 C16.899,20.111 17.717,19.895 18.531,19.677 L20.765,20.982 L20.152,18.811 C21.787,17.501 23.4,15.766 23.4,13.806 L23.4,13.806 ZM13.844,12.718 C13.439,12.718 13.30,12.288 13.30,11.849 C13.30,11.416 13.439,10.981 13.844,10.981 C14.460,10.981 14.863,11.416 14.863,11.849 C14.863,12.288 14.460,12.718 13.844,12.718 L13.844,12.718 ZM18.322,12.718 C17.919,12.718 17.513,12.288 17.513,11.849 C17.513,11.416 17.919,10.981 18.322,10.981 C18.932,10.981 19.340,11.416 19.340,11.849 C19.340,12.288 18.932,12.718 18.322,12.718 L18.322,12.718 Z"/>
</svg>