<svg 
 xmlns="http://www.w3.org/2000/svg"
 xmlns:xlink="http://www.w3.org/1999/xlink"
 width="20px" height="22px">
<path fill-rule="evenodd"  fill="rgb(153, 153, 153)"
 d="M18.266,21.300 C18.050,21.426 17.806,21.501 17.556,21.516 L17.449,21.519 L1.803,21.434 C0.917,21.429 0.203,20.708 0.208,19.822 C0.209,19.576 0.267,19.334 0.378,19.114 L0.428,19.021 L2.071,16.222 C2.294,15.840 2.785,15.711 3.167,15.934 C3.531,16.144 3.669,16.601 3.484,16.978 L3.455,17.033 L1.812,19.832 L17.458,19.917 L15.734,16.967 C15.511,16.584 15.640,16.094 16.022,15.871 C16.384,15.660 16.847,15.763 17.085,16.106 L17.119,16.159 L18.843,19.109 C19.289,19.873 19.031,20.854 18.266,21.300 ZM15.656,12.018 L15.620,12.074 C15.583,12.129 15.541,12.181 15.494,12.229 L15.525,12.195 L10.849,17.659 C10.795,17.721 10.737,17.780 10.675,17.832 C10.004,18.410 8.991,18.334 8.414,17.663 L3.711,12.200 L3.693,12.180 C3.663,12.145 3.637,12.110 3.612,12.074 L3.575,12.018 L3.530,11.943 L3.453,11.834 C2.663,10.670 2.237,9.309 2.237,7.880 C2.255,3.900 5.555,0.701 9.631,0.701 C13.701,0.701 17.010,3.909 17.010,7.893 C16.993,9.381 16.528,10.790 15.699,11.948 C15.700,11.946 15.671,11.996 15.656,12.018 ZM9.631,2.303 C6.429,2.303 3.855,4.798 3.841,7.883 C3.839,9.019 4.195,10.125 4.858,11.046 L4.881,11.080 L4.927,11.156 L9.629,16.618 L14.304,11.157 L14.373,11.046 C15.035,10.123 15.396,9.019 15.407,7.883 C15.407,4.805 12.826,2.303 9.631,2.303 ZM9.638,11.233 C7.867,11.233 6.430,9.798 6.430,8.028 C6.430,6.259 7.866,4.824 9.637,4.824 C11.409,4.824 12.845,6.258 12.846,8.028 C12.846,9.797 11.410,11.232 9.638,11.233 ZM9.637,6.426 C8.752,6.425 8.033,7.142 8.033,8.028 C8.033,8.913 8.751,9.630 9.637,9.630 C10.523,9.630 11.241,8.914 11.241,8.028 C11.241,7.144 10.523,6.426 9.637,6.426 Z"/>
</svg>