<svg 
 xmlns="http://www.w3.org/2000/svg"
 xmlns:xlink="http://www.w3.org/1999/xlink"
 width="21px" height="20px">
<path fill-rule="evenodd"  fill="rgb(153, 153, 153)"
 d="M19.444,7.730 L17.733,7.730 C17.150,7.730 16.606,7.384 16.333,6.845 C16.294,6.768 16.255,6.653 16.217,6.576 C16.178,6.422 16.100,6.345 16.061,6.230 C15.905,5.922 15.750,5.692 15.556,5.460 C14.583,4.307 12.911,3.768 10.500,3.768 C8.089,3.806 6.494,4.383 5.522,5.537 C5.328,5.769 5.172,5.999 5.017,6.306 C5.017,6.345 4.939,6.422 4.900,6.538 C4.822,6.691 4.744,6.884 4.706,6.922 C4.433,7.384 3.889,7.691 3.344,7.691 L1.555,7.691 C0.700,7.691 -0.000,6.999 -0.000,6.153 L-0.000,3.922 C-0.000,3.423 0.233,2.999 0.622,2.692 C2.606,1.038 6.378,-0.001 10.500,-0.001 C14.583,-0.001 18.356,1.038 20.378,2.692 L20.417,2.731 C20.806,3.115 21.000,3.499 21.000,3.961 L21.000,6.192 C21.000,7.038 20.300,7.730 19.444,7.730 ZM19.444,3.961 C19.444,3.922 19.406,3.884 19.328,3.806 C17.617,2.422 14.156,1.538 10.500,1.538 C6.805,1.538 3.306,2.461 1.594,3.922 L1.555,3.961 L1.555,6.192 L3.383,6.192 C3.383,6.114 3.461,5.961 3.539,5.845 C3.578,5.730 3.617,5.614 3.656,5.576 C3.850,5.153 4.083,4.846 4.317,4.538 C5.600,2.999 7.622,2.230 10.500,2.192 C13.417,2.192 15.478,2.922 16.761,4.461 C17.033,4.768 17.267,5.115 17.461,5.499 L17.617,5.845 C17.656,5.845 17.656,5.884 17.656,5.884 C17.656,5.922 17.772,6.114 17.772,6.153 L19.444,6.153 L19.444,3.961 ZM4.278,9.692 C4.744,8.499 5.911,7.691 7.194,7.691 L7.778,7.691 L7.778,6.538 C7.778,6.114 8.128,5.769 8.556,5.769 C8.983,5.769 9.333,6.114 9.333,6.538 L9.333,7.691 L11.667,7.691 L11.667,6.538 C11.667,6.114 12.017,5.769 12.444,5.769 C12.872,5.769 13.222,6.114 13.222,6.538 L13.222,7.691 L13.767,7.691 C15.050,7.691 16.217,8.499 16.683,9.692 L19.017,15.846 C19.600,17.422 18.783,19.230 17.189,19.807 C16.839,19.922 16.489,19.999 16.100,19.999 L4.861,19.999 C3.150,19.999 1.750,18.615 1.750,16.922 C1.750,16.538 1.828,16.191 1.944,15.846 L4.278,9.692 ZM4.861,18.461 L16.139,18.461 C16.333,18.461 16.489,18.422 16.683,18.345 C17.461,18.076 17.889,17.191 17.539,16.384 L15.206,10.230 C15.011,9.615 14.428,9.230 13.767,9.230 L7.194,9.230 C6.572,9.230 5.989,9.615 5.756,10.230 L3.422,16.384 C3.344,16.538 3.306,16.730 3.306,16.922 C3.306,17.768 4.005,18.461 4.861,18.461 ZM10.500,10.769 C11.783,10.769 12.833,11.807 12.833,13.076 C12.833,14.345 11.783,15.384 10.500,15.384 C9.217,15.384 8.167,14.345 8.167,13.076 C8.167,11.807 9.217,10.769 10.500,10.769 ZM10.500,13.845 C10.928,13.845 11.278,13.499 11.278,13.076 C11.278,12.653 10.928,12.307 10.500,12.307 C10.072,12.307 9.722,12.653 9.722,13.076 C9.722,13.499 10.072,13.845 10.500,13.845 Z"/>
</svg>