<svg 
 xmlns="http://www.w3.org/2000/svg"
 xmlns:xlink="http://www.w3.org/1999/xlink"
 width="58px" height="48px">
<path fill-rule="evenodd"
 d="M53.655,18.790 C55.909,18.791 57.736,20.649 57.741,22.938 L57.741,43.634 L54.982,43.634 L54.982,45.893 C54.982,47.038 54.067,47.967 52.940,47.967 C51.812,47.967 50.898,47.038 50.898,45.893 L50.898,43.634 L8.221,43.634 L8.221,45.893 C8.221,46.632 7.832,47.318 7.200,47.688 C6.569,48.060 5.790,48.060 5.158,47.688 C4.526,47.318 4.137,46.632 4.137,45.893 L4.137,43.634 L0.876,43.634 L0.876,22.938 C0.876,20.649 2.708,18.790 4.960,18.790 L5.726,18.790 L6.149,17.332 L2.918,17.332 C1.790,17.332 0.876,16.403 0.876,15.258 C0.876,14.113 1.790,13.185 2.918,13.185 L7.355,13.185 L9.585,5.499 C10.541,2.852 13.325,0.952 16.102,0.952 L41.860,0.952 C44.637,0.952 47.422,2.852 48.335,5.369 L50.606,13.185 L55.699,13.185 C56.826,13.185 57.741,14.113 57.741,15.258 C57.741,16.403 56.826,17.332 55.699,17.332 L51.811,17.332 L52.233,18.790 L53.655,18.790 ZM4.960,39.484 L53.655,39.484 L53.655,30.323 L47.927,30.323 C46.228,30.319 44.708,29.250 44.106,27.635 L42.571,23.509 C42.501,23.320 42.493,23.129 42.478,22.938 L15.117,22.938 C15.103,23.129 15.095,23.320 15.025,23.509 L13.490,27.640 C12.894,29.245 11.358,30.323 9.669,30.323 L4.960,30.323 L4.960,39.484 ZM4.960,22.938 L4.960,26.177 L9.669,26.177 L10.874,22.938 L4.960,22.938 ZM44.459,6.671 C44.216,6.016 43.002,5.103 41.860,5.103 L16.102,5.103 C14.960,5.103 13.745,6.016 13.459,6.803 L10.917,15.565 C10.890,15.780 10.829,15.988 10.737,16.185 L9.984,18.787 L47.976,18.787 L44.459,6.671 ZM46.724,22.936 L47.927,26.172 L53.655,26.176 L53.655,22.936 L46.724,22.936 ZM22.105,29.105 L36.512,29.105 C37.640,29.105 38.554,30.036 38.554,31.180 C38.554,32.326 37.640,33.255 36.512,33.255 L22.105,33.255 C20.977,33.255 20.063,32.326 20.063,31.180 C20.063,30.036 20.977,29.105 22.105,29.105 Z"/>
</svg>