<svg 
 xmlns="http://www.w3.org/2000/svg"
 xmlns:xlink="http://www.w3.org/1999/xlink"
 width="58px" height="55px">
<path fill-rule="evenodd" 
 d="M35.970,15.043 L21.758,15.043 C18.857,15.034 16.497,17.457 16.485,20.459 L16.485,35.061 C16.497,38.062 18.857,40.487 21.758,40.478 L35.970,40.478 C38.872,40.487 41.231,38.062 41.244,35.061 L41.244,20.459 C41.231,17.457 38.872,15.034 35.970,15.043 L35.970,15.043 ZM37.097,35.061 C37.097,35.699 36.592,36.218 35.970,36.218 L21.758,36.218 C21.139,36.220 20.635,35.702 20.632,35.061 L20.632,20.459 C20.632,19.820 21.137,19.300 21.758,19.300 L35.970,19.300 C36.594,19.300 37.097,19.820 37.097,20.459 L37.097,35.061 ZM55.224,29.392 C55.772,29.393 56.299,29.169 56.688,28.771 C57.076,28.370 57.295,27.826 57.297,27.258 C57.295,26.693 57.076,26.150 56.687,25.751 C56.298,25.353 55.772,25.129 55.224,25.131 L48.973,25.131 L48.973,21.029 L55.224,21.029 C55.772,21.032 56.298,20.810 56.686,20.411 C57.075,20.011 57.294,19.469 57.297,18.904 C57.295,18.336 57.076,17.793 56.687,17.395 C56.298,16.995 55.772,16.773 55.224,16.774 L48.973,16.774 L48.973,8.822 C48.972,8.254 48.753,7.711 48.364,7.309 C47.974,6.910 47.447,6.687 46.899,6.690 L39.074,6.690 L39.074,2.532 C39.073,1.965 38.853,1.422 38.464,1.022 C38.075,0.624 37.548,0.400 37.000,0.404 C36.452,0.400 35.926,0.624 35.538,1.022 C35.149,1.423 34.929,1.965 34.928,2.532 L34.928,6.688 L30.937,6.688 L30.937,2.532 C30.935,1.965 30.716,1.423 30.327,1.022 C29.938,0.624 29.412,0.400 28.865,0.404 C28.317,0.400 27.790,0.624 27.402,1.022 C27.013,1.423 26.794,1.965 26.792,2.532 L26.792,6.688 L22.799,6.688 L22.799,2.532 C22.797,1.965 22.578,1.423 22.190,1.023 C21.802,0.625 21.276,0.404 20.728,0.404 C20.181,0.400 19.654,0.624 19.265,1.022 C18.875,1.422 18.655,1.965 18.654,2.532 L18.654,6.688 L15.916,6.688 C15.326,6.688 14.762,6.949 14.372,7.393 L9.288,13.225 C8.946,13.613 8.756,14.121 8.755,14.647 L8.755,16.777 L2.504,16.777 C1.957,16.777 1.431,17.000 1.042,17.398 C0.653,17.798 0.434,18.341 0.432,18.907 C0.432,20.086 1.359,21.038 2.504,21.038 L8.755,21.038 L8.755,25.137 L2.504,25.137 C1.957,25.136 1.431,25.358 1.042,25.758 C0.653,26.155 0.434,26.700 0.432,27.266 C0.432,28.444 1.359,29.397 2.504,29.397 L8.755,29.397 L8.755,33.495 L2.504,33.495 C1.956,33.494 1.430,33.716 1.041,34.117 C0.652,34.517 0.433,35.061 0.432,35.627 C0.432,36.804 1.359,37.755 2.504,37.755 L8.755,37.755 L8.755,45.876 C8.755,47.052 9.682,48.006 10.830,48.006 L18.654,48.006 L18.654,52.401 C18.654,53.579 19.581,54.532 20.728,54.532 C21.276,54.532 21.802,54.309 22.191,53.911 C22.580,53.510 22.799,52.968 22.801,52.401 L22.801,47.999 L26.792,47.999 L26.792,52.401 C26.792,53.579 27.718,54.532 28.865,54.532 C29.412,54.532 29.938,54.309 30.327,53.911 C30.716,53.510 30.935,52.968 30.937,52.401 L30.937,47.999 L34.928,47.999 L34.928,52.401 C34.928,53.579 35.855,54.532 37.000,54.532 C37.548,54.534 38.075,54.311 38.464,53.912 C38.853,53.510 39.073,52.968 39.074,52.401 L39.074,47.999 L41.198,47.999 C41.749,47.999 42.274,47.772 42.663,47.370 L48.362,41.518 C48.752,41.120 48.972,40.580 48.973,40.014 L48.973,37.748 L55.224,37.748 C55.772,37.750 56.298,37.528 56.686,37.129 C57.075,36.731 57.294,36.189 57.297,35.620 C57.295,35.054 57.076,34.509 56.688,34.110 C56.299,33.709 55.772,33.487 55.224,33.489 L48.973,33.489 L48.973,29.392 L55.224,29.392 ZM40.336,43.740 L12.903,43.740 L12.903,15.461 L16.841,10.949 L44.829,10.949 L44.829,39.124 L40.338,43.738 L40.336,43.740 Z"/>
</svg>