<svg 
 xmlns="http://www.w3.org/2000/svg"
 xmlns:xlink="http://www.w3.org/1999/xlink"
 width="58px" height="52px">
<path fill-rule="evenodd"
 d="M52.696,34.294 C55.127,34.302 57.127,36.239 57.248,38.705 L57.254,38.960 L57.254,46.507 C57.264,48.976 55.373,51.022 52.946,51.170 L52.698,51.177 L32.450,51.083 C28.985,52.293 30.697,38.960 30.697,38.960 C30.687,36.492 32.579,34.445 35.005,34.299 L35.254,34.294 L52.696,34.294 ZM20.826,38.031 C23.187,38.031 25.087,39.996 25.211,42.444 L25.218,42.701 L25.218,46.507 C25.218,48.984 23.394,51.035 21.068,51.170 L20.826,51.177 L10.503,51.177 C8.142,51.177 6.241,49.209 6.117,46.762 L6.111,46.507 L6.111,42.701 C6.111,40.221 7.933,38.175 10.261,38.040 L10.503,38.031 L20.826,38.031 ZM20.824,40.719 L10.503,40.719 C9.598,40.719 8.830,41.491 8.744,42.507 L8.736,42.702 L8.736,46.507 C8.736,47.550 9.451,48.384 10.335,48.476 L10.503,48.486 L20.824,48.486 C21.728,48.486 22.497,47.714 22.583,46.700 L22.593,46.507 L22.593,42.701 C22.593,41.655 21.879,40.823 20.992,40.729 L20.824,40.719 ZM52.696,36.983 L35.254,36.983 C34.250,36.983 33.745,36.871 33.651,37.876 L33.321,38.960 L33.321,46.507 C33.321,47.535 34.089,48.384 35.067,48.476 L35.254,48.486 L52.696,48.486 C53.700,48.486 54.527,47.702 54.619,46.700 L54.629,46.507 L54.629,38.960 C54.629,37.931 53.864,37.085 52.884,36.990 L52.696,36.980 L52.696,36.983 ZM26.508,0.604 C28.869,0.604 30.771,2.569 30.894,5.017 L30.900,5.271 L30.900,5.434 L26.298,32.114 C25.645,34.598 24.315,36.299 22.207,36.426 L21.951,36.434 L9.249,36.434 C7.070,36.434 5.797,34.985 4.991,32.398 L4.897,32.081 L0.391,5.431 L0.391,5.271 C0.391,2.796 2.214,0.744 4.540,0.613 L4.783,0.604 L26.509,0.604 L26.508,0.604 ZM4.783,3.288 C3.879,3.288 3.110,4.064 3.024,5.080 L3.021,5.133 L7.431,31.385 C7.866,32.895 8.333,33.577 8.980,33.717 L9.112,33.740 L9.249,33.746 L21.951,33.746 C22.672,33.746 23.276,33.060 23.679,31.721 L23.756,31.447 L28.269,5.132 L28.269,5.077 C28.192,4.191 27.593,3.489 26.839,3.325 L4.783,3.288 ZM48.121,23.477 C50.562,23.486 52.553,25.477 52.620,27.977 C52.687,30.476 50.804,32.578 48.370,32.726 L48.119,32.731 L39.824,32.731 C37.516,32.717 35.586,30.949 35.338,28.617 L35.316,28.363 L35.308,28.105 C35.298,25.657 37.172,23.628 39.577,23.482 L39.824,23.475 L48.121,23.475 L48.121,23.477 ZM48.121,26.163 L39.824,26.163 C38.842,26.163 38.034,26.935 37.940,27.884 L37.933,28.061 L37.936,28.234 C37.996,29.175 38.717,29.938 39.641,30.032 L39.824,30.043 L48.121,30.043 C49.129,30.030 49.952,29.219 49.996,28.196 C50.048,27.174 49.305,26.287 48.303,26.174 L48.119,26.165 L48.121,26.163 Z"/>
</svg>