<svg 
 xmlns="http://www.w3.org/2000/svg"
 xmlns:xlink="http://www.w3.org/1999/xlink"
 width="58px" height="53px">
<path fill-rule="evenodd"
 d="M18.165,47.626 L0.949,47.626 L0.949,0.605 L28.803,0.605 L28.803,8.295 C28.803,8.981 28.246,9.534 27.559,9.534 C26.872,9.534 26.315,8.981 26.315,8.295 L26.315,3.063 L3.438,3.063 L3.438,45.166 L18.165,45.166 C18.607,45.166 19.015,45.400 19.236,45.782 C19.457,46.163 19.457,46.630 19.236,47.013 C19.015,47.393 18.607,47.626 18.165,47.626 L18.165,47.626 ZM27.015,19.294 L2.135,19.294 C1.452,19.294 0.899,18.743 0.899,18.063 C0.899,17.383 1.452,16.833 2.135,16.833 L27.015,16.833 C27.698,16.833 28.251,17.383 28.251,18.063 C28.251,18.743 27.698,19.294 27.015,19.294 L27.015,19.294 ZM8.356,15.602 L5.868,15.602 L5.868,9.451 L8.355,9.451 L8.355,15.602 L8.356,15.602 ZM8.356,32.825 L5.868,32.825 L5.868,22.983 L8.355,22.983 L8.355,32.825 L8.356,32.825 ZM57.763,52.377 L17.527,52.377 L17.527,7.353 L57.763,7.353 L57.763,52.377 ZM20.015,49.919 L55.276,49.919 L55.276,9.815 L20.015,9.815 L20.015,49.919 ZM56.868,19.294 L18.306,19.294 L18.306,16.833 L56.869,16.833 L56.869,19.294 L56.868,19.294 ZM36.824,46.843 C30.118,46.803 24.709,41.370 24.736,34.698 C24.762,28.026 30.213,22.636 36.919,22.650 C43.626,22.662 49.055,28.074 49.056,34.745 C49.029,41.443 43.556,46.853 36.824,46.843 L36.824,46.843 ZM36.824,25.110 C31.482,25.138 27.173,29.469 27.194,34.783 C27.215,40.097 31.557,44.391 36.900,44.381 C42.242,44.371 46.568,40.061 46.568,34.745 C46.546,29.411 42.187,25.100 36.824,25.110 L36.824,25.110 ZM51.893,14.373 L46.918,14.373 L46.918,11.914 L51.893,11.914 L51.893,14.373 ZM45.674,14.373 L43.186,14.373 L43.186,11.914 L45.674,11.914 L45.674,14.373 ZM41.941,14.373 L39.454,14.373 L39.454,11.914 L41.942,11.914 L41.942,14.373 L41.941,14.373 ZM36.824,41.716 C32.959,41.694 29.842,38.565 29.857,34.718 C29.871,30.874 33.013,27.767 36.878,27.775 C40.743,27.781 43.873,30.901 43.873,34.745 C43.857,38.605 40.704,41.724 36.824,41.716 L36.824,41.716 ZM36.824,30.234 C34.323,30.249 32.305,32.275 32.315,34.762 C32.325,37.250 34.357,39.261 36.858,39.259 C39.360,39.252 41.384,37.234 41.385,34.745 C41.374,32.250 39.334,30.230 36.824,30.234 L36.824,30.234 Z"/>
</svg>