<svg 
 xmlns="http://www.w3.org/2000/svg"
 xmlns:xlink="http://www.w3.org/1999/xlink"
 width="57px" height="53px">
<path fill-rule="evenodd" 
 d="M55.238,11.227 C54.335,12.097 53.168,12.652 51.918,12.822 L51.918,16.203 C51.918,23.844 48.291,30.159 40.633,31.147 L40.633,42.955 C40.615,48.189 38.474,52.427 33.034,52.427 C27.581,52.427 23.160,48.171 23.160,42.922 L23.160,31.981 C23.160,28.483 20.213,25.646 16.578,25.646 C12.942,25.646 9.995,28.483 9.995,31.981 L9.995,33.133 C10.629,33.236 11.257,33.406 11.868,33.648 C15.057,34.916 17.137,37.910 17.137,41.232 C17.120,45.743 13.333,49.401 8.646,49.436 C5.196,49.450 2.077,47.458 0.747,44.393 C-0.582,41.329 0.139,37.795 2.574,35.440 C3.733,34.322 5.171,33.574 6.704,33.236 L6.704,31.981 C6.704,28.586 8.586,25.448 11.641,23.750 C14.696,22.052 18.460,22.052 21.515,23.750 C24.570,25.448 26.452,28.586 26.452,31.981 L26.452,42.955 C26.452,46.454 29.399,49.291 33.034,49.291 C36.669,49.291 37.342,46.454 37.342,42.955 L37.342,31.238 C29.259,30.643 25.168,24.139 25.168,16.203 L25.168,12.195 C23.511,11.667 22.132,10.470 21.433,8.863 C20.470,6.650 20.989,4.098 22.746,2.397 C24.504,0.695 27.153,0.184 29.458,1.099 C31.761,2.015 33.264,4.176 33.264,6.575 C33.264,9.400 31.210,11.761 28.459,12.355 L28.459,16.203 C28.223,20.602 30.526,24.765 34.447,27.030 C36.051,27.959 35.544,28.504 37.342,28.674 L37.342,28.655 L39.921,28.655 C41.658,28.468 43.363,27.926 44.914,27.030 C48.835,24.765 48.863,20.602 48.627,16.203 L48.627,12.355 C46.625,11.459 45.237,9.505 45.237,7.240 C45.237,4.127 47.860,1.601 51.096,1.601 C54.331,1.601 56.954,4.127 56.954,7.240 C56.954,8.736 56.337,10.170 55.238,11.227 ZM3.788,39.282 C2.967,41.163 3.407,43.334 4.901,44.782 C6.395,46.229 8.648,46.666 10.608,45.888 C12.567,45.111 13.846,43.273 13.846,41.232 C13.846,38.461 11.524,36.211 8.646,36.194 C6.526,36.182 4.608,37.400 3.788,39.282 ZM29.973,6.575 C29.955,5.080 28.698,3.867 27.143,3.850 C25.979,3.838 24.923,4.504 24.471,5.538 C24.019,6.570 24.262,7.763 25.086,8.557 C25.908,9.348 27.148,9.582 28.221,9.147 C29.294,8.712 29.986,7.695 29.973,6.575 ZM52.911,5.494 C52.429,5.029 51.777,4.769 51.096,4.769 C49.678,4.769 48.529,5.876 48.529,7.240 C48.529,8.606 49.678,9.711 51.096,9.711 C52.513,9.711 53.663,8.606 53.663,7.240 C53.663,6.584 53.392,5.956 52.911,5.494 Z"/>
</svg>