<?xml version="1.0" standalone="no"?><!DOCTYPE svg PUBLIC "-//W3C//DTD SVG 1.1//EN" "http://www.w3.org/Graphics/SVG/1.1/DTD/svg11.dtd"><svg t="1686993695651" viewBox="0 0 1024 1024" version="1.1" xmlns="http://www.w3.org/2000/svg" p-id="3873" xmlns:xlink="http://www.w3.org/1999/xlink" width="200" height="200"><path d="M762.88 889.6H261.12c-7.68 0-12.8-6.4-12.8-12.8V526.08l-26.88 25.6c-2.56 2.56-6.4 3.84-10.24 3.84-3.84 0-7.68-2.56-8.96-5.12L88.32 390.4c-3.84-5.12-3.84-11.52 1.28-16.64l212.48-234.24c5.12-5.12 12.8-6.4 19.2-1.28 5.12 5.12 6.4 14.08 1.28 19.2L116.48 384l97.28 136.96 38.4-35.84c3.84-3.84 10.24-5.12 14.08-2.56 5.12 2.56 7.68 6.4 7.68 12.8v367.36h473.6V495.36c0-5.12 2.56-10.24 7.68-12.8 5.12-2.56 10.24-1.28 14.08 2.56l38.4 35.84L907.52 384 701.44 156.16c-5.12-5.12-5.12-14.08 1.28-19.2 5.12-5.12 14.08-5.12 19.2 1.28L934.4 373.76c3.84 5.12 5.12 11.52 1.28 16.64l-112.64 158.72c-2.56 2.56-5.12 5.12-8.96 5.12-3.84 0-7.68-1.28-10.24-3.84l-26.88-25.6v350.72c-1.28 7.68-7.68 14.08-14.08 14.08z" fill="#231815" p-id="3874"></path><path d="M716.8 837.12H384c-3.84 0-6.4-2.56-6.4-6.4s2.56-6.4 6.4-6.4h326.4v-128c0-3.84 2.56-6.4 6.4-6.4s6.4 2.56 6.4 6.4v134.4c0 3.84-2.56 6.4-6.4 6.4zM350.72 837.12h-12.8c-3.84 0-6.4-2.56-6.4-6.4s2.56-6.4 6.4-6.4h12.8c3.84 0 6.4 2.56 6.4 6.4s-2.56 6.4-6.4 6.4zM512 477.44c-32 0-58.88-26.88-58.88-58.88s26.88-58.88 58.88-58.88c32 0 58.88 26.88 58.88 58.88s-26.88 58.88-58.88 58.88z m0-90.88c-17.92 0-32 14.08-32 32s14.08 32 32 32 32-14.08 32-32-14.08-32-32-32zM512 629.76c-32 0-58.88-26.88-58.88-58.88S480 512 512 512c32 0 58.88 26.88 58.88 58.88s-26.88 58.88-58.88 58.88z m0-90.88c-17.92 0-32 14.08-32 32s14.08 32 32 32 32-14.08 32-32c0-16.64-14.08-32-32-32zM709.12 161.28h-396.8c-7.68 0-12.8-6.4-12.8-12.8s6.4-12.8 12.8-12.8h396.8c7.68 0 12.8 6.4 12.8 12.8s-5.12 12.8-12.8 12.8z" fill="#231815" p-id="3875"></path><path d="M510.72 296.96c-81.92 0-149.76-66.56-149.76-149.76 0-7.68 6.4-12.8 12.8-12.8s12.8 6.4 12.8 12.8c0 67.84 55.04 122.88 122.88 122.88s122.88-55.04 122.88-122.88c0-7.68 6.4-12.8 12.8-12.8s12.8 6.4 12.8 12.8c2.56 83.2-65.28 149.76-147.2 149.76z" fill="#231815" p-id="3876"></path></svg>