<?xml version="1.0" standalone="no"?><!DOCTYPE svg PUBLIC "-//W3C//DTD SVG 1.1//EN" "http://www.w3.org/Graphics/SVG/1.1/DTD/svg11.dtd"><svg t="1686993429411" viewBox="0 0 1024 1024" version="1.1" xmlns="http://www.w3.org/2000/svg" p-id="1976" xmlns:xlink="http://www.w3.org/1999/xlink" width="200" height="200"><path d="M765.44 343.04H258.56c-7.68 0-12.8-6.4-12.8-12.8 0-62.72 19.2-113.92 56.32-151.04C364.8 116.48 456.96 116.48 460.8 116.48h104.96c3.84 0 96 0 158.72 62.72 37.12 37.12 56.32 87.04 56.32 151.04-1.28 7.68-7.68 12.8-15.36 12.8zM512 316.16h240.64c-2.56-48.64-17.92-88.32-47.36-117.76-55.04-53.76-138.24-55.04-139.52-55.04H460.8c-1.28 0-84.48 0-139.52 55.04-29.44 29.44-44.8 69.12-47.36 117.76H512z" fill="#231815" p-id="1977"></path><path d="M405.76 418.56c-7.68 0-12.8-6.4-12.8-12.8v-75.52c0-7.68 6.4-12.8 12.8-12.8s12.8 6.4 12.8 12.8v75.52c0 7.68-6.4 12.8-12.8 12.8zM405.76 550.4c-7.68 0-12.8-6.4-12.8-12.8v-69.12c0-7.68 6.4-12.8 12.8-12.8s12.8 6.4 12.8 12.8V537.6c0 6.4-6.4 12.8-12.8 12.8zM405.76 680.96c-7.68 0-12.8-6.4-12.8-12.8v-69.12c0-7.68 6.4-12.8 12.8-12.8s12.8 6.4 12.8 12.8v69.12c0 6.4-6.4 12.8-12.8 12.8zM512 907.52c-3.84 0-6.4-1.28-8.96-3.84L396.8 802.56c-2.56-2.56-3.84-6.4-3.84-10.24V729.6c0-7.68 6.4-12.8 12.8-12.8s12.8 6.4 12.8 12.8v57.6l93.44 88.32 93.44-88.32V330.24c0-7.68 6.4-12.8 12.8-12.8s12.8 6.4 12.8 12.8v462.08c0 3.84-1.28 7.68-3.84 10.24l-106.24 101.12c-2.56 2.56-5.12 3.84-8.96 3.84z" fill="#231815" p-id="1978"></path><path d="M512 843.52c-1.28 0-3.84 0-5.12-1.28L469.76 806.4c-2.56-2.56-2.56-6.4 0-8.96 2.56-2.56 6.4-2.56 8.96 0l32 30.72 58.88-56.32V597.76c0-3.84 2.56-6.4 6.4-6.4s6.4 2.56 6.4 6.4v176.64c0 1.28-1.28 3.84-2.56 5.12l-65.28 62.72c1.28 1.28-1.28 1.28-2.56 1.28zM454.4 789.76c-1.28 0-3.84 0-5.12-1.28l-8.96-7.68c-2.56-2.56-2.56-6.4 0-8.96 2.56-2.56 6.4-2.56 8.96 0l8.96 7.68c2.56 2.56 2.56 6.4 0 8.96 0 0-1.28 1.28-3.84 1.28z" fill="#231815" p-id="1979"></path><path d="M405.76 742.4c-5.12 0-10.24-2.56-12.8-7.68-2.56-6.4 0-14.08 6.4-17.92l129.28-58.88c6.4-2.56 14.08 0 17.92 6.4 2.56 6.4 0 14.08-6.4 17.92l-129.28 58.88c-1.28 1.28-3.84 1.28-5.12 1.28zM405.76 611.84c-5.12 0-10.24-2.56-12.8-7.68-2.56-6.4 0-14.08 6.4-17.92l129.28-58.88c6.4-2.56 14.08 0 17.92 6.4 2.56 6.4 0 14.08-6.4 17.92l-129.28 58.88c-1.28 0-3.84 1.28-5.12 1.28zM405.76 480c-5.12 0-10.24-2.56-12.8-7.68-2.56-6.4 0-14.08 6.4-17.92l129.28-58.88c6.4-2.56 14.08 0 17.92 6.4 2.56 6.4 0 14.08-6.4 17.92l-129.28 58.88c-1.28 1.28-3.84 1.28-5.12 1.28zM512 236.8c-7.68 0-12.8-6.4-12.8-12.8v-93.44c0-7.68 6.4-12.8 12.8-12.8s12.8 6.4 12.8 12.8v93.44c0 7.68-5.12 12.8-12.8 12.8z" fill="#231815" p-id="1980"></path></svg>