<?xml version="1.0" standalone="no"?><!DOCTYPE svg PUBLIC "-//W3C//DTD SVG 1.1//EN" "http://www.w3.org/Graphics/SVG/1.1/DTD/svg11.dtd"><svg t="1686993772586" viewBox="0 0 1024 1024" version="1.1" xmlns="http://www.w3.org/2000/svg" p-id="5476" xmlns:xlink="http://www.w3.org/1999/xlink" width="200" height="200"><path d="M839.68 637.44V755.2c0 47.36-38.4 87.04-87.04 87.04H268.8c-47.36 0-87.04-38.4-87.04-87.04V586.24h64l-90.88-120.32L64 586.24h64v167.68c0 76.8 62.72 140.8 140.8 140.8h485.12c76.8 0 140.8-62.72 140.8-140.8v-111.36L870.4 675.84l-30.72-38.4zM893.44 465.92V270.08c0-76.8-62.72-140.8-140.8-140.8H268.8c-76.8 0-140.8 62.72-140.8 140.8v142.08l26.88-35.84 26.88 35.84V270.08c0-47.36 38.4-87.04 87.04-87.04h485.12c47.36 0 87.04 38.4 87.04 87.04v195.84h-61.44l61.44 81.92 29.44 38.4 24.32-33.28 65.28-87.04h-66.56z" p-id="5477"></path><path d="M499.2 318.72h-23.04v139.52c0 30.72-7.68 37.12-42.24 39.68L409.6 499.2l-11.52-42.24 24.32-1.28c10.24-1.28 15.36-2.56 15.36-15.36v-122.88H277.76v-38.4H499.2v39.68z m-85.76 133.12h-116.48v-113.92h116.48v113.92z m-35.84-79.36h-42.24v42.24h42.24v-42.24zM736 492.8H528.64V279.04h207.36v213.76z m-40.96-171.52h-126.72v129.28h126.72V321.28zM584.96 435.2v-99.84h96V435.2h-96z m33.28-65.28v30.72h29.44v-30.72h-29.44zM508.16 718.08l-25.6 35.84c-16.64-11.52-30.72-25.6-43.52-40.96-12.8 15.36-28.16 28.16-47.36 42.24l-21.76-21.76v19.2H332.8v-49.92c-7.68 2.56-15.36 5.12-21.76 7.68-10.24 3.84-17.92 7.68-23.04 11.52l-15.36-39.68c8.96-6.4 11.52-11.52 11.52-24.32v-113.92l35.84 1.28v119.04l14.08-3.84V524.8l37.12 1.28v84.48c15.36-24.32 26.88-56.32 33.28-85.76l42.24 3.84c-2.56 8.96-3.84 16.64-6.4 24.32h60.16v40.96h-8.96c-5.12 33.28-12.8 61.44-26.88 85.76 10.24 12.8 25.6 25.6 43.52 38.4zM369.92 716.8c17.92-11.52 33.28-23.04 44.8-37.12-7.68-12.8-15.36-25.6-19.2-38.4-2.56 3.84-6.4 8.96-8.96 12.8L371.2 619.52V716.8z m52.48-124.16l-1.28 3.84c2.56 16.64 7.68 32 16.64 47.36 6.4-15.36 10.24-32 12.8-49.92H422.4zM739.84 551.68c-1.28 66.56-2.56 134.4-3.84 160-1.28 24.32-12.8 32-37.12 34.56l-15.36 1.28-12.8-39.68 12.8-1.28c12.8-1.28 17.92-2.56 17.92-17.92l1.28-34.56c-17.92 34.56-38.4 64-70.4 93.44l-28.16-28.16c46.08-35.84 83.2-85.76 101.12-130.56v-1.28H691.2c-14.08 39.68-38.4 72.96-70.4 99.84l-11.52-14.08v5.12l-12.8 3.84v70.4h-35.84V691.2c-14.08 3.84-26.88 7.68-35.84 10.24l-6.4-43.52c10.24-2.56 25.6-5.12 42.24-8.96v-39.68H550.4l-2.56 32-29.44-1.28c2.56-24.32 5.12-64 6.4-93.44h28.16c0 6.4 0 15.36-1.28 24.32h7.68v-43.52l35.84 1.28v42.24h12.8v19.2c15.36-19.2 24.32-39.68 32-62.72l37.12 3.84c-3.84 8.96-6.4 16.64-10.24 24.32h72.96z m-133.12 102.4c23.04-17.92 37.12-35.84 49.92-64h-11.52c-7.68 11.52-16.64 23.04-25.6 33.28L601.6 608h-6.4V640l11.52-3.84v17.92z" p-id="5478"></path></svg>