<?xml version="1.0" standalone="no"?><!DOCTYPE svg PUBLIC "-//W3C//DTD SVG 1.1//EN" "http://www.w3.org/Graphics/SVG/1.1/DTD/svg11.dtd"><svg t="1686993783856" viewBox="0 0 1024 1024" version="1.1" xmlns="http://www.w3.org/2000/svg" p-id="5620" xmlns:xlink="http://www.w3.org/1999/xlink" width="200" height="200"><path d="M330.24 366.08c0 74.24-6.4 92.16-20.48 134.4l-37.12-16.64c14.08-34.56 20.48-65.28 20.48-112.64v-93.44h204.8v35.84H330.24v52.48z m172.8 8.96h-12.8v93.44c0 23.04-7.68 28.16-33.28 30.72l-16.64 1.28-12.8-39.68 15.36-1.28c7.68-1.28 12.8-3.84 12.8-11.52v-10.24l-21.76 10.24c-2.56-8.96-10.24-26.88-15.36-42.24v19.2h-16.64l17.92 7.68c-2.56 6.4-7.68 15.36-11.52 24.32 5.12-1.28 10.24-1.28 15.36-1.28l-1.28 34.56c-20.48 1.28-74.24 3.84-92.16 6.4l-2.56-35.84c6.4 0 12.8-1.28 20.48-1.28-3.84-8.96-8.96-20.48-11.52-25.6l21.76-10.24h-19.2v-64h79.36v30.72l20.48-6.4c3.84 7.68 11.52 25.6 16.64 38.4v-48.64h-28.16v-38.4h28.16v-17.92h34.56v17.92h12.8v39.68z m-165.12-21.76V320h81.92v33.28h-81.92z m35.84 104.96c3.84-8.96 10.24-24.32 15.36-33.28h-24.32c3.84 6.4 8.96 17.92 12.8 24.32l-19.2 10.24 15.36-1.28z m-6.4-60.16h21.76v-12.8h-21.76v12.8zM654.08 419.84v44.8c0 28.16-7.68 34.56-33.28 35.84l-20.48 1.28-12.8-39.68L601.6 460.8c10.24-1.28 14.08-3.84 14.08-14.08v-26.88h-42.24l26.88 24.32c-14.08 15.36-39.68 35.84-57.6 49.92l-24.32-30.72c17.92-11.52 39.68-29.44 53.76-44.8h-43.52v-38.4H614.4v-15.36h-48.64v-14.08c-7.68 3.84-16.64 7.68-25.6 11.52l-19.2-37.12c42.24-15.36 66.56-29.44 90.88-53.76h43.52c21.76 23.04 48.64 38.4 89.6 53.76l-17.92 38.4c-8.96-3.84-17.92-7.68-26.88-12.8v14.08h-46.08v15.36h84.48v38.4h-84.48z m-51.2-89.6H665.6c-14.08-8.96-24.32-16.64-32-24.32-8.96 7.68-19.2 16.64-30.72 24.32z m80.64 92.16c19.2 10.24 44.8 25.6 61.44 37.12l-21.76 35.84c-19.2-15.36-44.8-33.28-62.72-43.52l23.04-29.44zM501.76 711.68v37.12H355.84V716.8c-21.76 6.4-56.32 15.36-70.4 19.2l-7.68-42.24c5.12-1.28 14.08-3.84 26.88-6.4v-62.72h-20.48v-40.96h20.48V524.8l37.12 1.28v58.88h19.2v40.96h-19.2V678.4c8.96-2.56 17.92-3.84 23.04-6.4l2.56 39.68h70.4l-16.64-5.12c2.56-5.12 5.12-12.8 7.68-20.48l-32 11.52c-7.68-28.16-17.92-64-25.6-84.48l35.84-10.24c7.68 21.76 16.64 51.2 24.32 76.8 8.96-26.88 17.92-58.88 21.76-78.08l39.68 11.52c-8.96 28.16-21.76 70.4-33.28 98.56h42.24z m-5.12-119.04H363.52v-38.4h47.36c-2.56-10.24-5.12-24.32-6.4-30.72H448c2.56 8.96 5.12 23.04 6.4 30.72h43.52v38.4zM724.48 751.36c-16.64-11.52-30.72-21.76-42.24-33.28-12.8 11.52-26.88 23.04-46.08 33.28l-20.48-23.04c-3.84 7.68-8.96 15.36-14.08 24.32l-33.28-19.2 7.68-11.52c-17.92 5.12-40.96 10.24-52.48 12.8l-6.4-42.24c3.84-1.28 12.8-2.56 24.32-5.12v-61.44H524.8v-42.24h17.92v-60.16l37.12 1.28v58.88h15.36v42.24h-15.36V678.4l12.8-2.56c1.28 5.12 1.28 8.96 1.28 16.64 10.24-25.6 15.36-51.2 16.64-89.6v-32h-15.36v-37.12h126.72v39.68l-14.08 24.32h26.88v37.12c-7.68 23.04-16.64 40.96-28.16 57.6 11.52 8.96 24.32 17.92 39.68 25.6l-21.76 33.28zM659.2 691.2c-7.68-8.96-12.8-20.48-17.92-32-2.56 20.48-8.96 38.4-16.64 57.6 12.8-7.68 23.04-16.64 34.56-25.6z m-14.08-121.6v8.96c10.24 37.12 20.48 64 37.12 84.48 6.4-10.24 12.8-20.48 16.64-33.28h-32v-30.72l16.64-30.72h-38.4z" p-id="5621"></path><path d="M752.64 893.44H271.36c-78.08 0-140.8-64-140.8-140.8V271.36c0-78.08 64-140.8 140.8-140.8h464.64v79.36h79.36v79.36h79.36v464.64c-1.28 76.8-64 139.52-142.08 139.52zM271.36 184.32c-48.64 0-87.04 39.68-87.04 87.04v481.28c0 48.64 39.68 87.04 87.04 87.04h481.28c48.64 0 87.04-39.68 87.04-87.04V341.76h-79.36v-79.36h-79.36v-79.36h-409.6z" p-id="5622"></path></svg>