<?xml version="1.0" standalone="no"?><!DOCTYPE svg PUBLIC "-//W3C//DTD SVG 1.1//EN" "http://www.w3.org/Graphics/SVG/1.1/DTD/svg11.dtd"><svg t="1686993833620" viewBox="0 0 1024 1024" version="1.1" xmlns="http://www.w3.org/2000/svg" p-id="6486" xmlns:xlink="http://www.w3.org/1999/xlink" width="200" height="200"><path d="M842.24 623.36v217.6H181.76V581.12h64L154.88 460.8 64 581.12h64v288c0 15.36 11.52 26.88 26.88 26.88h714.24c14.08 0 26.88-12.8 26.88-26.88V624.64l-26.88 35.84-26.88-37.12zM896 460.8V154.88c0-14.08-12.8-26.88-26.88-26.88H710.4c-15.36 0-26.88 11.52-26.88 26.88v99.84h-51.2v-42.24c0-15.36-11.52-26.88-26.88-26.88H418.56c-15.36 0-26.88 11.52-26.88 26.88v42.24h-51.2v-99.84c0-15.36-11.52-26.88-26.88-26.88H154.88c-15.36 0-26.88 12.8-26.88 26.88v262.4l26.88-35.84 26.88 35.84V181.76h104.96V281.6c0 15.36 11.52 26.88 26.88 26.88h104.96c15.36 0 26.88-11.52 26.88-26.88v-42.24h133.12V281.6c0 15.36 11.52 26.88 26.88 26.88h104.96c15.36 0 26.88-11.52 26.88-26.88v-99.84h104.96V460.8h-64l90.88 120.32L960 460.8h-64z" p-id="6487"></path><path d="M512 284.16m-17.92 0a17.92 17.92 0 1 0 35.84 0 17.92 17.92 0 1 0-35.84 0Z" p-id="6488"></path><path d="M499.2 573.44v33.28H279.04v-33.28H371.2v-11.52h-75.52v-29.44h14.08l-19.2-12.8c15.36-7.68 23.04-14.08 26.88-23.04h-28.16v-55.04l25.6 1.28v24.32h10.24v-30.72H281.6v-29.44h17.92c-2.56-7.68-6.4-16.64-8.96-20.48l34.56-1.28c2.56 5.12 7.68 15.36 8.96 21.76h5.12c3.84-7.68 7.68-16.64 8.96-21.76l37.12 1.28-10.24 20.48h14.08v29.44h-35.84v30.72h10.24v-25.6l24.32 1.28v52.48c7.68-12.8 10.24-25.6 10.24-52.48v-52.48h92.16v103.68c0 23.04-5.12 26.88-24.32 28.16l-14.08 1.28-11.52-25.6 7.68-1.28c6.4-1.28 7.68-2.56 7.68-8.96v-3.84h-23.04c-2.56 14.08-7.68 29.44-16.64 40.96l-7.68-2.56v10.24h75.52v29.44h-75.52v11.52H499.2z m-128-40.96v-11.52l34.56 1.28-26.88-12.8c3.84-3.84 6.4-7.68 8.96-11.52h-32c-2.56 14.08-8.96 24.32-21.76 34.56H371.2z m61.44-113.92v12.8h21.76v-12.8h-21.76z m21.76 44.8v-12.8h-21.76v12.8h21.76zM709.12 560.64V614.4h-38.4v-48.64l-61.44 6.4-1.28-12.8-12.8 12.8c-3.84-5.12-8.96-11.52-14.08-17.92v57.6h-37.12V550.4c-8.96 15.36-20.48 28.16-32 39.68l-8.96-47.36c11.52-11.52 23.04-25.6 32-40.96h-25.6v-37.12h34.56v-11.52l-24.32 5.12c-3.84-14.08-10.24-40.96-15.36-53.76l26.88-6.4c2.56 10.24 10.24 30.72 12.8 44.8V384l37.12 1.28v53.76c5.12-14.08 10.24-32 12.8-40.96l26.88 6.4c-2.56 11.52-12.8 40.96-17.92 53.76l-21.76-5.12v10.24h28.16v19.2l21.76-24.32c10.24 8.96 25.6 23.04 34.56 30.72l-24.32 29.44-30.72-30.72v12.8h-28.16v19.2l7.68-6.4 17.92 17.92v-2.56l64-7.68V435.2l-20.48 24.32c-8.96-10.24-25.6-25.6-34.56-33.28l23.04-26.88c8.96 7.68 21.76 17.92 30.72 28.16v-40.96l38.4 1.28v133.12l20.48-2.56 2.56 40.96-23.04 1.28z" p-id="6489"></path><path d="M339.2 704c10.24 12.8 23.04 23.04 38.4 32l-6.4 10.24c-15.36-10.24-28.16-21.76-37.12-34.56v38.4h-10.24v-38.4c-8.96 12.8-20.48 21.76-37.12 34.56l-6.4-10.24c17.92-10.24 30.72-20.48 39.68-32h-34.56v-10.24h38.4V678.4h-32v-10.24h32V652.8h10.24v14.08h32v11.52h-32v15.36h38.4v10.24h-33.28zM487.68 752.64c-19.2-3.84-34.56-7.68-46.08-12.8-11.52 5.12-25.6 10.24-44.8 14.08l-2.56-11.52c15.36-2.56 26.88-6.4 37.12-10.24-5.12-3.84-11.52-8.96-15.36-15.36l3.84-3.84h-7.68V704h62.72v8.96c-6.4 7.68-12.8 14.08-21.76 19.2 10.24 3.84 23.04 6.4 38.4 8.96l-3.84 11.52zM409.6 707.84h-10.24v-23.04h16.64c-2.56-3.84-5.12-10.24-6.4-12.8l5.12-2.56h-10.24l-1.28-8.96c21.76 0 58.88-2.56 78.08-5.12l2.56 10.24c-3.84 0-6.4 0-10.24 1.28l6.4 2.56c-2.56 5.12-6.4 10.24-8.96 15.36H486.4v23.04h-8.96v-12.8H409.6v12.8z m8.96-38.4c2.56 3.84 5.12 8.96 7.68 11.52l-5.12 2.56h20.48c-2.56-3.84-5.12-11.52-7.68-14.08l5.12-2.56-20.48 2.56z m7.68 43.52c3.84 5.12 8.96 10.24 16.64 14.08 7.68-3.84 12.8-8.96 17.92-14.08h-34.56z m32-30.72c2.56-3.84 6.4-11.52 10.24-16.64l-24.32 1.28 6.4 12.8-5.12 3.84H460.8l-2.56-1.28zM531.2 704c-5.12-5.12-15.36-12.8-21.76-16.64l5.12-8.96c5.12 3.84 15.36 10.24 21.76 15.36l-5.12 10.24z m-17.92 42.24c3.84-7.68 12.8-28.16 15.36-35.84l10.24 3.84c-2.56 7.68-11.52 29.44-15.36 37.12l-10.24-5.12z m21.76-67.84c-5.12-5.12-14.08-11.52-19.2-15.36l5.12-8.96c5.12 3.84 15.36 10.24 19.2 14.08l-5.12 10.24z m26.88 16.64l-2.56 11.52h37.12c0 5.12-1.28 24.32-2.56 28.16-1.28 11.52-6.4 14.08-19.2 15.36l-11.52 1.28-3.84-10.24 11.52-1.28c7.68 0 10.24-1.28 10.24-7.68 1.28-3.84 1.28-10.24 1.28-14.08h-38.4l3.84-21.76H537.6v-10.24h66.56v10.24h-42.24z m35.84-24.32h-52.48v-10.24h52.48v10.24zM716.8 750.08c-17.92-6.4-29.44-14.08-38.4-21.76v24.32h-10.24v-24.32c-8.96 8.96-21.76 15.36-39.68 21.76l-3.84-10.24c17.92-6.4 29.44-11.52 38.4-17.92h-34.56v-10.24h39.68v-10.24h10.24v10.24h38.4v10.24h-34.56c10.24 7.68 23.04 14.08 39.68 19.2l-5.12 8.96z m-72.96-62.72c-3.84-2.56-14.08-8.96-17.92-10.24l3.84-8.96c3.84 1.28 14.08 7.68 17.92 10.24l-3.84 8.96z m-16.64 12.8c7.68-5.12 17.92-11.52 23.04-16.64l5.12 7.68c-5.12 5.12-14.08 11.52-23.04 16.64l-5.12-7.68z m24.32-26.88c-5.12-3.84-14.08-8.96-17.92-11.52l3.84-7.68c3.84 2.56 14.08 7.68 17.92 10.24l-3.84 8.96z m-1.28 24.32c12.8-6.4 16.64-11.52 19.2-20.48h-11.52v-10.24h12.8v-12.8h10.24v11.52h21.76v25.6c0 2.56 1.28 2.56 2.56 2.56h2.56c2.56 0 2.56-1.28 3.84-2.56 0-2.56 1.28-6.4 1.28-10.24l8.96 2.56c0 3.84 0 7.68-1.28 10.24-1.28 6.4-3.84 8.96-11.52 8.96h-6.4c-7.68 0-10.24-2.56-10.24-10.24v-16.64h-11.52c-2.56 14.08-8.96 21.76-23.04 29.44l-7.68-7.68z" p-id="6490"></path></svg>