<?xml version="1.0" standalone="no"?><!DOCTYPE svg PUBLIC "-//W3C//DTD SVG 1.1//EN" "http://www.w3.org/Graphics/SVG/1.1/DTD/svg11.dtd"><svg t="1686993728100" viewBox="0 0 1024 1024" version="1.1" xmlns="http://www.w3.org/2000/svg" p-id="4451" xmlns:xlink="http://www.w3.org/1999/xlink" width="200" height="200"><path d="M847.36 893.44H176.64c-7.68 0-12.8-6.4-12.8-12.8v-486.4c0-7.68 6.4-12.8 12.8-12.8h672c7.68 0 12.8 6.4 12.8 12.8v485.12c0 7.68-6.4 14.08-14.08 14.08z m-657.92-26.88h645.12V408.32H189.44v458.24z" fill="#231815" p-id="4452"></path><path d="M271.36 577.28h70.4l14.08 74.24h2.56l16.64-74.24h67.84v149.76h-42.24v-108.8h-1.28l-21.76 84.48h-42.24l-20.48-84.48h-1.28v108.8h-40.96V577.28zM459.52 577.28h42.24v149.76h-42.24V577.28zM618.24 689.92v37.12h-98.56V577.28H563.2v112.64h55.04zM762.88 727.04h-51.2L674.56 665.6h-6.4v61.44h-42.24V577.28h42.24v53.76h6.4l35.84-53.76h48.64l-49.92 69.12 53.76 80.64z" fill="#231815" p-id="4453"></path><path d="M847.36 408.32H176.64c-7.68 0-12.8-6.4-12.8-12.8v-166.4c0-7.68 6.4-12.8 12.8-12.8h672c7.68 0 12.8 6.4 12.8 12.8v166.4c0 6.4-6.4 12.8-14.08 12.8z m-657.92-26.88h645.12v-140.8H189.44v140.8z" fill="#231815" p-id="4454"></path><path d="M334.08 355.84h-10.24c-3.84 0-6.4-2.56-6.4-6.4s2.56-6.4 6.4-6.4h10.24c3.84 0 6.4 2.56 6.4 6.4s-2.56 6.4-6.4 6.4zM802.56 355.84H377.6c-3.84 0-6.4-2.56-6.4-6.4s2.56-6.4 6.4-6.4h418.56v-69.12c0-3.84 2.56-6.4 6.4-6.4s6.4 2.56 6.4 6.4v75.52c0 2.56-2.56 6.4-6.4 6.4z" fill="#231815" p-id="4455"></path><path d="M847.36 240.64H176.64c-7.68 0-12.8-6.4-12.8-12.8v-83.2c0-7.68 6.4-12.8 12.8-12.8h672c7.68 0 12.8 6.4 12.8 12.8v83.2c0 7.68-6.4 12.8-14.08 12.8z m-657.92-26.88h645.12v-56.32H189.44v56.32z" fill="#231815" p-id="4456"></path></svg>