<?xml version="1.0" standalone="no"?><!DOCTYPE svg PUBLIC "-//W3C//DTD SVG 1.1//EN" "http://www.w3.org/Graphics/SVG/1.1/DTD/svg11.dtd"><svg t="1686993709992" viewBox="0 0 1024 1024" version="1.1" xmlns="http://www.w3.org/2000/svg" p-id="4163" xmlns:xlink="http://www.w3.org/1999/xlink" width="200" height="200"><path d="M581.12 893.44H207.36c-7.68 0-12.8-6.4-12.8-12.8V144.64c0-7.68 6.4-12.8 12.8-12.8h608c7.68 0 12.8 6.4 12.8 12.8v500.48c0 3.84-1.28 6.4-3.84 8.96L591.36 889.6c-2.56 2.56-6.4 3.84-10.24 3.84z m-359.68-26.88H576L802.56 640V157.44H221.44v709.12z" fill="#231815" p-id="4164"></path><path d="M303.36 840.96h-19.2c-3.84 0-6.4-2.56-6.4-6.4s2.56-6.4 6.4-6.4h19.2c3.84 0 6.4 2.56 6.4 6.4s-2.56 6.4-6.4 6.4zM512 840.96H339.2c-3.84 0-6.4-2.56-6.4-6.4s2.56-6.4 6.4-6.4H512c3.84 0 6.4 2.56 6.4 6.4s-2.56 6.4-6.4 6.4zM581.12 893.44c-7.68 0-12.8-6.4-12.8-12.8V645.12c0-7.68 6.4-12.8 12.8-12.8h234.24c7.68 0 12.8 6.4 12.8 12.8s-6.4 12.8-12.8 12.8H595.2v221.44c0 7.68-6.4 14.08-14.08 14.08zM700.16 302.08H323.84c-7.68 0-12.8-6.4-12.8-12.8s6.4-12.8 12.8-12.8h376.32c7.68 0 12.8 6.4 12.8 12.8s-5.12 12.8-12.8 12.8zM700.16 449.28H323.84c-7.68 0-12.8-6.4-12.8-12.8s6.4-12.8 12.8-12.8h376.32c7.68 0 12.8 6.4 12.8 12.8s-5.12 12.8-12.8 12.8zM464.64 596.48h-140.8c-7.68 0-12.8-6.4-12.8-12.8s6.4-12.8 12.8-12.8h140.8c7.68 0 12.8 6.4 12.8 12.8s-5.12 12.8-12.8 12.8z" fill="#231815" p-id="4165"></path></svg>