<?xml version="1.0" standalone="no"?><!DOCTYPE svg PUBLIC "-//W3C//DTD SVG 1.1//EN" "http://www.w3.org/Graphics/SVG/1.1/DTD/svg11.dtd"><svg t="1686993704482" viewBox="0 0 1024 1024" version="1.1" xmlns="http://www.w3.org/2000/svg" p-id="4018" xmlns:xlink="http://www.w3.org/1999/xlink" width="200" height="200"><path d="M641.28 262.4c-7.68 0-12.8-6.4-12.8-12.8v-90.88h-166.4v90.88c0 7.68-6.4 12.8-12.8 12.8s-12.8-6.4-12.8-12.8v-103.68c0-7.68 6.4-12.8 12.8-12.8h192c7.68 0 12.8 6.4 12.8 12.8v103.68c0 6.4-5.12 12.8-12.8 12.8z" fill="#231815" p-id="4019"></path><path d="M661.76 893.44H366.08c-1.28 0-3.84 0-5.12-1.28-84.48-35.84-126.72-131.84-126.72-293.12 0-153.6 134.4-250.88 149.76-261.12 14.08-10.24 12.8-28.16 12.8-28.16v-60.16c0-7.68 6.4-12.8 12.8-12.8h270.08c7.68 0 12.8 6.4 12.8 12.8V307.2c0 16.64 0 25.6 30.72 58.88 24.32 26.88 80.64 110.08 62.72 305.92-16.64 180.48-116.48 217.6-120.32 218.88-1.28 1.28-2.56 2.56-3.84 2.56z m-293.12-26.88h290.56c12.8-5.12 87.04-44.8 101.12-195.84 16.64-185.6-33.28-261.12-55.04-285.44-34.56-38.4-37.12-55.04-37.12-76.8v-46.08h-243.2V307.2c0 5.12 1.28 34.56-24.32 52.48-14.08 10.24-138.24 98.56-138.24 239.36-1.28 148.48 33.28 235.52 106.24 267.52z" fill="#231815" p-id="4020"></path><path d="M508.16 840.96H486.4c-3.84 0-6.4-2.56-6.4-6.4s2.56-6.4 6.4-6.4h21.76c3.84 0 6.4 2.56 6.4 6.4s-2.56 6.4-6.4 6.4zM651.52 840.96h-106.24c-3.84 0-6.4-2.56-6.4-6.4s2.56-6.4 6.4-6.4h103.68c16.64-10.24 61.44-48.64 71.68-160 15.36-175.36-30.72-240.64-44.8-256-40.96-44.8-48.64-69.12-48.64-104.96v-6.4h-83.2c-3.84 0-6.4-2.56-6.4-6.4s2.56-6.4 6.4-6.4h89.6c3.84 0 6.4 2.56 6.4 6.4v12.8c0 32 6.4 53.76 44.8 94.72 15.36 16.64 65.28 85.76 48.64 266.24-10.24 117.76-58.88 158.72-79.36 171.52 0 1.28-1.28 1.28-2.56 1.28zM378.88 709.12c-2.56 0-5.12 0-8.96-1.28-19.2-3.84-34.56-21.76-40.96-51.2-6.4-25.6-5.12-56.32 1.28-88.32s19.2-60.16 34.56-80.64c17.92-23.04 38.4-33.28 57.6-29.44 38.4 7.68 55.04 67.84 39.68 138.24-6.4 32-19.2 60.16-34.56 80.64-14.08 20.48-30.72 32-48.64 32z m37.12-225.28c-7.68 0-19.2 7.68-28.16 20.48-12.8 17.92-24.32 42.24-29.44 70.4s-6.4 55.04-1.28 76.8c3.84 17.92 11.52 29.44 20.48 30.72 8.96 1.28 20.48-5.12 30.72-19.2 12.8-17.92 24.32-42.24 29.44-70.4 11.52-56.32 0-102.4-19.2-107.52-1.28-1.28-2.56-1.28-2.56-1.28z" fill="#231815" p-id="4021"></path></svg>