<?xml version="1.0" standalone="no"?><!DOCTYPE svg PUBLIC "-//W3C//DTD SVG 1.1//EN" "http://www.w3.org/Graphics/SVG/1.1/DTD/svg11.dtd"><svg t="1686993633068" viewBox="0 0 1024 1024" version="1.1" xmlns="http://www.w3.org/2000/svg" p-id="2706" xmlns:xlink="http://www.w3.org/1999/xlink" width="200" height="200"><path d="M835.84 879.36c-7.68 0-12.8-6.4-12.8-12.8v-69.12l-19.2 12.8c-3.84 2.56-8.96 2.56-14.08 0-3.84-2.56-6.4-6.4-6.4-11.52v-58.88l-16.64 10.24c-3.84 2.56-8.96 2.56-12.8 0-3.84-2.56-6.4-6.4-6.4-11.52v-102.4c0-7.68 6.4-12.8 12.8-12.8s12.8 6.4 12.8 12.8v79.36l16.64-10.24c3.84-2.56 8.96-2.56 12.8 0 3.84 2.56 6.4 6.4 6.4 11.52v56.32l19.2-12.8c3.84-2.56 8.96-2.56 14.08 0s6.4 6.4 6.4 11.52v93.44c1.28 7.68-5.12 14.08-12.8 14.08zM640 879.36c-5.12 0-10.24-3.84-12.8-8.96-44.8-121.6-1.28-234.24 0-239.36 2.56-6.4 10.24-10.24 17.92-7.68 6.4 2.56 10.24 10.24 7.68 17.92 0 1.28-40.96 108.8 0 220.16 2.56 6.4-1.28 14.08-7.68 16.64-2.56 0-3.84 1.28-5.12 1.28zM759.04 567.04c-3.84 0-8.96-2.56-11.52-6.4-3.84-6.4-2.56-14.08 3.84-19.2 40.96-28.16 61.44-52.48 60.16-72.96-1.28-26.88-39.68-51.2-83.2-75.52-25.6-15.36-42.24-35.84-48.64-60.16-10.24-43.52 14.08-84.48 15.36-85.76 3.84-6.4 12.8-7.68 17.92-3.84 6.4 3.84 7.68 12.8 3.84 17.92 0 1.28-20.48 33.28-12.8 65.28 3.84 17.92 16.64 32 35.84 43.52 51.2 30.72 94.72 58.88 96 98.56 1.28 30.72-21.76 61.44-71.68 96 0 1.28-2.56 2.56-5.12 2.56zM887.04 550.4c-3.84 0-7.68-1.28-10.24-5.12-5.12-6.4-3.84-14.08 2.56-19.2 52.48-39.68 76.8-72.96 74.24-101.12-2.56-30.72-35.84-60.16-108.8-97.28-42.24-21.76-66.56-48.64-70.4-81.92-6.4-52.48 40.96-96 42.24-98.56 5.12-5.12 14.08-5.12 19.2 1.28 5.12 5.12 5.12 14.08-1.28 19.2 0 0-39.68 35.84-34.56 74.24 2.56 23.04 21.76 43.52 56.32 61.44 83.2 42.24 120.32 78.08 124.16 119.04 3.84 38.4-23.04 78.08-84.48 125.44-3.84 2.56-6.4 2.56-8.96 2.56z" fill="#231815" p-id="2707"></path><path d="M910.08 879.36H57.6c-7.68 0-12.8-6.4-12.8-12.8v-230.4c0-7.68 6.4-12.8 12.8-12.8h852.48c7.68 0 12.8 6.4 12.8 12.8v230.4c0 6.4-5.12 12.8-12.8 12.8zM71.68 852.48H896V648.96H71.68v203.52z" fill="#231815" p-id="2708"></path><path d="M103.68 765.44c-3.84 0-6.4-2.56-6.4-6.4v-14.08c0-3.84 2.56-6.4 6.4-6.4s6.4 2.56 6.4 6.4v14.08c0 2.56-2.56 6.4-6.4 6.4zM512 826.88H103.68c-3.84 0-6.4-2.56-6.4-6.4v-29.44c0-3.84 2.56-6.4 6.4-6.4s6.4 2.56 6.4 6.4v23.04H512c3.84 0 6.4 2.56 6.4 6.4s-2.56 6.4-6.4 6.4z" fill="#231815" p-id="2709"></path></svg>