<?xml version="1.0" standalone="no"?><!DOCTYPE svg PUBLIC "-//W3C//DTD SVG 1.1//EN" "http://www.w3.org/Graphics/SVG/1.1/DTD/svg11.dtd"><svg t="1686993803470" viewBox="0 0 1024 1024" version="1.1" xmlns="http://www.w3.org/2000/svg" p-id="5909" xmlns:xlink="http://www.w3.org/1999/xlink" width="200" height="200"><path d="M501.76 446.72H435.2c19.2 6.4 38.4 12.8 57.6 20.48l-15.36 33.28c-26.88-11.52-53.76-23.04-75.52-30.72l14.08-23.04h-49.92l15.36 23.04c-20.48 8.96-49.92 20.48-76.8 28.16l-16.64-33.28c24.32-5.12 46.08-11.52 64-19.2H281.6V409.6h32v-89.6h-24.32v-34.56h24.32v-14.08l39.68 1.28v14.08h76.8v-14.08l39.68 1.28v14.08h24.32v34.56h-24.32v89.6h32v34.56z m-148.48-125.44v10.24h76.8v-10.24h-76.8z m0 51.2h76.8v-11.52h-76.8v11.52z m0 38.4h76.8v-11.52h-76.8v11.52zM593.92 282.88c-5.12 15.36-10.24 29.44-15.36 43.52v170.24h-35.84v-106.24c-5.12 7.68-11.52 15.36-17.92 24.32l-8.96-52.48c17.92-23.04 33.28-55.04 43.52-89.6l34.56 10.24z m151.04 160c-1.28 5.12-2.56 14.08-5.12 24.32-5.12 20.48-11.52 25.6-35.84 26.88-25.6 1.28-52.48 1.28-76.8 0-20.48-1.28-32-8.96-32-34.56v-81.92l-10.24 2.56-3.84-42.24 12.8-2.56v-43.52l37.12 1.28v33.28l11.52-2.56v-49.92l37.12 1.28v40.96l48.64-11.52c-1.28 38.4-1.28 79.36-1.28 94.72-1.28 17.92-8.96 21.76-26.88 25.6l-8.96 1.28-10.24-38.4 5.12-1.28c6.4-1.28 7.68-2.56 8.96-10.24v-23.04l-15.36 3.84v87.04h-37.12v-78.08l-11.52 2.56v72.96c0 12.8 5.12 14.08 15.36 15.36 11.52 1.28 25.6 1.28 37.12 0 15.36-1.28 17.92-2.56 20.48-14.08 1.28-5.12 1.28-10.24 2.56-12.8l38.4 12.8zM501.76 711.68v37.12H357.12v-30.72c-21.76 6.4-55.04 15.36-70.4 19.2l-7.68-42.24c5.12-1.28 14.08-3.84 25.6-6.4V627.2h-20.48v-40.96h20.48v-58.88l37.12 1.28v57.6h19.2V627.2h-19.2v51.2c8.96-2.56 17.92-3.84 23.04-6.4l2.56 39.68h70.4l-16.64-5.12c2.56-5.12 5.12-12.8 7.68-20.48l-32 11.52c-7.68-28.16-17.92-62.72-25.6-84.48l35.84-10.24c7.68 21.76 16.64 49.92 24.32 76.8 8.96-25.6 16.64-58.88 21.76-76.8l39.68 11.52c-8.96 28.16-21.76 69.12-33.28 97.28h42.24z m-5.12-117.76H364.8v-37.12h47.36c-2.56-10.24-5.12-24.32-6.4-30.72H448c2.56 8.96 5.12 21.76 6.4 30.72h42.24v37.12zM723.2 751.36c-16.64-11.52-29.44-21.76-40.96-33.28-11.52 11.52-26.88 23.04-44.8 33.28l-20.48-23.04c-3.84 7.68-8.96 15.36-14.08 23.04l-33.28-17.92 7.68-11.52c-17.92 5.12-40.96 10.24-52.48 12.8l-6.4-42.24c3.84-1.28 12.8-2.56 24.32-5.12V627.2H524.8v-42.24h16.64v-58.88l37.12 1.28v57.6h14.08V627.2h-14.08v51.2l12.8-2.56c1.28 5.12 1.28 8.96 1.28 16.64 10.24-25.6 14.08-51.2 16.64-88.32v-30.72h-15.36v-37.12h125.44V576l-12.8 24.32h26.88v35.84c-7.68 23.04-16.64 40.96-28.16 57.6 11.52 8.96 24.32 16.64 39.68 25.6l-21.76 32zM657.92 691.2c-7.68-8.96-12.8-19.2-17.92-30.72-2.56 20.48-8.96 38.4-16.64 56.32 12.8-7.68 24.32-15.36 34.56-25.6z m-12.8-119.04v8.96c10.24 37.12 20.48 64 35.84 84.48 6.4-10.24 12.8-20.48 16.64-33.28h-30.72V601.6l16.64-29.44h-38.4z" p-id="5910"></path><path d="M753.92 184.32c47.36 0 87.04 38.4 87.04 87.04V755.2c0 47.36-38.4 87.04-87.04 87.04H270.08c-47.36 0-87.04-38.4-87.04-87.04V270.08c0-47.36 38.4-87.04 87.04-87.04h483.84m0-52.48H270.08c-76.8 0-140.8 62.72-140.8 140.8V755.2c0 76.8 62.72 140.8 140.8 140.8h483.84c76.8 0 140.8-62.72 140.8-140.8V270.08c-1.28-76.8-64-139.52-140.8-139.52z" p-id="5911"></path></svg>