<?xml version="1.0" standalone="no"?><!DOCTYPE svg PUBLIC "-//W3C//DTD SVG 1.1//EN" "http://www.w3.org/Graphics/SVG/1.1/DTD/svg11.dtd"><svg t="1686993815068" viewBox="0 0 1024 1024" version="1.1" xmlns="http://www.w3.org/2000/svg" p-id="6197" xmlns:xlink="http://www.w3.org/1999/xlink" width="200" height="200"><path d="M753.92 184.32c47.36 0 87.04 38.4 87.04 87.04V755.2c0 47.36-38.4 87.04-87.04 87.04H270.08c-47.36 0-87.04-38.4-87.04-87.04V270.08c0-47.36 38.4-87.04 87.04-87.04h483.84m0-52.48H270.08c-76.8 0-140.8 62.72-140.8 140.8V755.2c0 76.8 62.72 140.8 140.8 140.8h483.84c76.8 0 140.8-62.72 140.8-140.8V270.08c-1.28-76.8-64-139.52-140.8-139.52z" p-id="6198"></path><path d="M395.52 448c-23.04-17.92-56.32-43.52-75.52-55.04l37.12-53.76c23.04 14.08 53.76 35.84 74.24 52.48L395.52 448z m26.88 33.28c-6.4 29.44-26.88 104.96-34.56 134.4l-64-21.76c12.8-33.28 32-102.4 37.12-133.12l61.44 20.48z m-14.08-144.64c-16.64-12.8-52.48-38.4-74.24-51.2l34.56-52.48c19.2 10.24 55.04 33.28 71.68 46.08l-32 57.6z m294.4 211.2v60.16H418.56v-60.16h76.8v-24.32L460.8 541.44c-7.68-20.48-26.88-66.56-39.68-88.32l46.08-21.76c7.68 11.52 19.2 35.84 28.16 57.6v-70.4h57.6v129.28h19.2V418.56h56.32V486.4c10.24-21.76 21.76-44.8 26.88-57.6l44.8 23.04c-10.24 21.76-34.56 69.12-42.24 87.04L629.76 524.8v23.04h72.96z m-20.48-139.52H444.16v-166.4h238.08v166.4z m-176.64-116.48V307.2h116.48v-15.36h-116.48z m116.48 71.68V345.6h-116.48v17.92h116.48zM490.24 762.88v19.2h-78.08v-16.64c-11.52 3.84-29.44 7.68-38.4 10.24l-3.84-23.04c2.56-1.28 7.68-2.56 14.08-3.84V716.8h-10.24v-21.76h10.24v-32h20.48v32h10.24V716.8h-10.24v28.16c5.12-1.28 10.24-2.56 12.8-3.84l1.28 21.76h38.4l-8.96-2.56c1.28-2.56 2.56-6.4 3.84-11.52l-19.2 6.4c-3.84-15.36-10.24-34.56-14.08-46.08l19.2-6.4c3.84 11.52 8.96 26.88 12.8 40.96 5.12-14.08 8.96-32 11.52-42.24l21.76 6.4c-5.12 15.36-11.52 37.12-17.92 52.48h24.32z m-3.84-64h-71.68V678.4h25.6c-1.28-5.12-2.56-12.8-3.84-16.64H460.8c1.28 5.12 2.56 11.52 2.56 16.64H486.4v20.48zM643.84 784.64c-8.96-6.4-16.64-11.52-23.04-17.92-6.4 6.4-15.36 12.8-24.32 17.92l-11.52-12.8c-2.56 3.84-5.12 7.68-7.68 12.8l-17.92-10.24c1.28-2.56 2.56-3.84 3.84-6.4-10.24 2.56-21.76 5.12-28.16 6.4l-3.84-23.04c2.56 0 7.68-1.28 12.8-2.56V716.8h-8.96v-23.04h8.96v-32h20.48v32h7.68V716.8h-7.68v28.16l6.4-1.28c0 2.56 0 5.12 1.28 8.96 5.12-14.08 7.68-28.16 8.96-48.64v-16.64h-7.68v-20.48h67.84v21.76l-7.68 12.8h14.08v19.2c-3.84 12.8-8.96 21.76-15.36 30.72 6.4 5.12 12.8 8.96 21.76 14.08l-10.24 19.2z m-35.84-33.28c-3.84-5.12-7.68-10.24-10.24-16.64-1.28 11.52-5.12 20.48-8.96 30.72 7.68-3.84 12.8-8.96 19.2-14.08z m-7.68-64v5.12c5.12 20.48 11.52 34.56 19.2 46.08 3.84-5.12 6.4-11.52 8.96-17.92h-16.64V704l8.96-16.64h-20.48z" p-id="6199"></path></svg>