<?xml version="1.0" standalone="no"?><!DOCTYPE svg PUBLIC "-//W3C//DTD SVG 1.1//EN" "http://www.w3.org/Graphics/SVG/1.1/DTD/svg11.dtd"><svg t="1686993619652" viewBox="0 0 1024 1024" version="1.1" xmlns="http://www.w3.org/2000/svg" p-id="2561" xmlns:xlink="http://www.w3.org/1999/xlink" width="200" height="200"><path d="M231.68 814.08c-2.56 0-5.12-1.28-7.68-2.56l-35.84-24.32-23.04 16.64c-3.84 2.56-7.68 2.56-11.52 2.56-3.84-1.28-6.4-3.84-8.96-6.4-24.32-44.8-38.4-96-38.4-147.2 0-98.56 48.64-192 129.28-248.32 0 0 1.28 0 1.28-1.28 26.88-14.08 98.56-60.16 98.56-104.96v-75.52c0-7.68 6.4-12.8 12.8-12.8h325.12c7.68 0 12.8 6.4 12.8 12.8v75.52c0 43.52 70.4 90.88 98.56 104.96 0 0 1.28 0 1.28 1.28C869.12 460.8 917.76 554.24 917.76 652.8c0 33.28-5.12 66.56-16.64 98.56-1.28 3.84-5.12 7.68-8.96 8.96-3.84 1.28-8.96 0-12.8-3.84l-37.12-34.56-51.2 51.2c-2.56 2.56-6.4 3.84-8.96 3.84-3.84 0-6.4-1.28-8.96-3.84l-21.76-21.76-21.76 37.12c-2.56 3.84-6.4 6.4-11.52 6.4s-8.96-2.56-11.52-6.4l-71.68-107.52-70.4 29.44c-2.56 1.28-5.12 1.28-7.68 1.28l-40.96-8.96-60.16 65.28c-2.56 3.84-7.68 5.12-11.52 3.84-3.84 0-7.68-3.84-10.24-7.68l-26.88-51.2-57.6 90.88c-2.56 3.84-6.4 6.4-10.24 6.4-3.84 0-8.96-1.28-11.52-5.12l-43.52-53.76-43.52 56.32c-1.28 5.12-5.12 6.4-8.96 6.4z m-43.52-56.32c2.56 0 5.12 1.28 7.68 2.56l33.28 23.04 46.08-60.16c2.56-3.84 6.4-5.12 10.24-5.12 3.84 0 7.68 1.28 10.24 5.12l42.24 52.48 60.16-94.72c2.56-3.84 7.68-6.4 11.52-6.4 5.12 0 8.96 2.56 11.52 7.68l28.16 55.04 52.48-57.6c2.56-3.84 7.68-5.12 12.8-3.84l43.52 8.96 76.8-32c6.4-2.56 12.8 0 16.64 5.12L716.8 755.2l19.2-32c2.56-3.84 6.4-6.4 10.24-6.4 3.84 0 7.68 1.28 11.52 3.84l24.32 24.32 51.2-51.2c5.12-5.12 12.8-5.12 19.2 0l30.72 28.16c6.4-23.04 8.96-46.08 8.96-70.4 0-89.6-43.52-174.08-117.76-226.56-11.52-6.4-111.36-61.44-111.36-128v-62.72H362.24v62.72c0 66.56-101.12 121.6-111.36 128-74.24 51.2-117.76 135.68-117.76 226.56 0 40.96 8.96 83.2 28.16 120.32l19.2-12.8c1.28-1.28 3.84-1.28 7.68-1.28z" fill="#231815" p-id="2562"></path><path d="M684.8 655.36c-2.56 0-3.84-1.28-5.12-2.56l-6.4-10.24c-2.56-2.56-1.28-7.68 2.56-8.96 2.56-2.56 7.68-1.28 8.96 2.56l6.4 10.24c2.56 2.56 1.28 7.68-2.56 8.96h-3.84z" fill="#231815" p-id="2563"></path><path d="M721.92 711.68c-2.56 0-3.84-1.28-5.12-2.56l-21.76-34.56c-2.56-2.56-1.28-7.68 2.56-8.96 2.56-2.56 7.68-1.28 8.96 1.28l20.48 30.72L780.8 691.2l24.32-24.32c1.28-1.28 2.56-1.28 3.84-1.28h42.24v-11.52c0-76.8-37.12-148.48-99.84-193.28-29.44-15.36-129.28-75.52-129.28-161.28v-24.32H446.72c-3.84 0-6.4-2.56-6.4-6.4s2.56-6.4 6.4-6.4h181.76c3.84 0 6.4 2.56 6.4 6.4v30.72c0 78.08 94.72 134.4 122.88 149.76 66.56 47.36 106.24 124.16 106.24 204.8 0 6.4 0 12.8-1.28 19.2 0 3.84-2.56 6.4-6.4 6.4l-44.8-1.28-25.6 25.6c-1.28 1.28-3.84 1.28-5.12 2.56-1.28 0-2.56 0-3.84-1.28l-55.04 6.4c1.28 0 1.28 0 0 0z" fill="#231815" p-id="2564"></path></svg>