<?xml version="1.0" standalone="no"?><!DOCTYPE svg PUBLIC "-//W3C//DTD SVG 1.1//EN" "http://www.w3.org/Graphics/SVG/1.1/DTD/svg11.dtd"><svg t="1686993822793" viewBox="0 0 1024 1024" version="1.1" xmlns="http://www.w3.org/2000/svg" p-id="6341" xmlns:xlink="http://www.w3.org/1999/xlink" width="200" height="200"><path d="M277.76 570.88c19.2-2.56 65.28-7.68 85.76-11.52l1.28 38.4c-17.92 2.56-65.28 8.96-83.2 11.52l-3.84-38.4z m225.28-5.12c-1.28 8.96-3.84 15.36-6.4 24.32-6.4 17.92-14.08 23.04-25.6 23.04-15.36 0-30.72-14.08-33.28-56.32-1.28-14.08-1.28-28.16-2.56-43.52h-23.04v51.2l17.92-6.4 1.28 35.84-30.72 10.24c-8.96 2.56-17.92 7.68-23.04 8.96l-12.8-33.28c8.96-5.12 10.24-7.68 10.24-21.76v-117.76c-10.24 21.76-28.16 52.48-40.96 69.12l29.44-3.84v34.56c-14.08 2.56-35.84 5.12-47.36 7.68-8.96 1.28-17.92 2.56-23.04 3.84l-7.68-38.4c7.68-2.56 12.8-5.12 19.2-12.8 3.84-5.12 7.68-11.52 11.52-17.92l-12.8 1.28c-6.4 0-11.52 1.28-15.36 2.56l-7.68-37.12c3.84-2.56 10.24-6.4 14.08-12.8 3.84-6.4 16.64-32 24.32-52.48l30.72 14.08c-6.4 12.8-20.48 39.68-28.16 51.2h15.36c5.12-8.96 10.24-17.92 12.8-24.32l25.6 14.08v-38.4c35.84-1.28 81.92-5.12 112.64-8.96l7.68 38.4-26.88 2.56v43.52h28.16v38.4h-26.88c1.28 17.92 1.28 33.28 2.56 40.96 1.28 3.84 2.56 6.4 5.12 6.4s3.84-1.28 5.12-6.4c1.28-3.84 1.28-8.96 1.28-10.24l19.2 20.48z m-70.4-89.6V435.2l-20.48 1.28v39.68h20.48zM714.24 616.96c-46.08-8.96-75.52-20.48-96-38.4-16.64 16.64-47.36 26.88-96 38.4l-17.92-38.4c47.36-5.12 71.68-11.52 83.2-24.32h-72.96v-33.28h7.68L508.16 486.4c33.28-5.12 60.16-12.8 79.36-20.48h-70.4v-32h34.56c-7.68-8.96-17.92-17.92-23.04-21.76l24.32-21.76c10.24 7.68 25.6 20.48 33.28 29.44l-15.36 14.08h29.44v-43.52l38.4 1.28V435.2H665.6l-14.08-14.08c10.24-7.68 25.6-21.76 32-29.44l25.6 24.32-21.76 20.48h34.56v32h-83.2v37.12h-38.4v-8.96c-19.2 11.52-40.96 19.2-69.12 28.16h66.56v-12.8h40.96v8.96h74.24c-20.48-8.96-60.16-23.04-70.4-26.88l12.8-26.88c19.2 6.4 56.32 17.92 74.24 24.32l-10.24 29.44h5.12v33.28H640c17.92 12.8 44.8 20.48 93.44 24.32l-19.2 38.4z" p-id="6342"></path><path d="M339.2 705.28c10.24 12.8 23.04 23.04 38.4 32l-6.4 10.24c-15.36-10.24-28.16-21.76-37.12-34.56v38.4h-10.24v-38.4c-8.96 12.8-20.48 21.76-37.12 34.56l-6.4-10.24c17.92-10.24 30.72-20.48 39.68-32h-34.56v-10.24h38.4v-15.36h-32v-10.24h32v-15.36h10.24v14.08h32v10.24h-32v15.36h38.4v10.24h-33.28zM488.96 753.92c-19.2-3.84-34.56-7.68-46.08-12.8-11.52 5.12-25.6 10.24-44.8 14.08l-3.84-10.24c15.36-2.56 26.88-6.4 37.12-10.24-5.12-3.84-11.52-8.96-15.36-15.36l3.84-3.84h-7.68v-8.96h62.72v8.96c-6.4 7.68-12.8 14.08-21.76 19.2 10.24 3.84 23.04 6.4 38.4 8.96l-2.56 10.24zM409.6 707.84h-10.24v-23.04h16.64c-2.56-3.84-5.12-10.24-6.4-12.8l5.12-2.56h-10.24l-1.28-8.96c21.76 0 58.88-2.56 78.08-5.12l2.56 10.24c-3.84 0-6.4 0-10.24 1.28l6.4 2.56c-2.56 5.12-6.4 10.24-8.96 15.36H486.4v23.04h-8.96v-12.8H409.6v12.8z m10.24-37.12c2.56 3.84 5.12 8.96 7.68 11.52l-5.12 3.84h20.48c-2.56-3.84-5.12-11.52-7.68-14.08l5.12-2.56-20.48 1.28z m6.4 43.52c3.84 5.12 8.96 10.24 16.64 14.08 7.68-3.84 12.8-8.96 17.92-14.08h-34.56z m33.28-30.72c2.56-3.84 6.4-11.52 10.24-16.64l-24.32 1.28 6.4 12.8-5.12 3.84h15.36l-2.56-1.28zM531.2 705.28c-5.12-5.12-15.36-12.8-21.76-16.64l5.12-8.96c5.12 3.84 15.36 10.24 21.76 15.36l-5.12 10.24z m-16.64 42.24c3.84-7.68 12.8-28.16 15.36-35.84l10.24 3.84c-2.56 7.68-11.52 29.44-15.36 37.12l-10.24-5.12z m21.76-67.84c-5.12-5.12-14.08-11.52-19.2-15.36l5.12-8.96c5.12 3.84 15.36 10.24 19.2 14.08l-5.12 10.24z m25.6 16.64l-2.56 11.52h37.12c0 5.12-1.28 24.32-2.56 28.16-1.28 11.52-6.4 14.08-19.2 15.36l-11.52 1.28-3.84-10.24 11.52-1.28c7.68 0 10.24-1.28 10.24-7.68 1.28-3.84 1.28-10.24 1.28-14.08h-38.4l3.84-21.76H537.6v-10.24h66.56v10.24h-42.24z m37.12-24.32h-52.48v-10.24h52.48v10.24zM718.08 751.36c-17.92-6.4-29.44-14.08-38.4-21.76v24.32h-10.24V729.6c-8.96 8.96-21.76 15.36-39.68 21.76l-3.84-10.24c17.92-6.4 29.44-11.52 38.4-17.92h-34.56v-10.24h39.68v-10.24h10.24v10.24h38.4v10.24h-34.56c10.24 7.68 23.04 14.08 39.68 19.2l-5.12 8.96z m-74.24-62.72c-3.84-2.56-14.08-8.96-17.92-10.24l3.84-8.96c3.84 1.28 14.08 7.68 17.92 10.24l-3.84 8.96z m-16.64 12.8c7.68-5.12 17.92-11.52 23.04-16.64l5.12 7.68c-5.12 5.12-14.08 11.52-23.04 16.64l-5.12-7.68z m25.6-26.88c-5.12-3.84-14.08-8.96-17.92-11.52l3.84-7.68c3.84 2.56 14.08 7.68 17.92 10.24l-3.84 8.96z m-2.56 23.04c12.8-6.4 16.64-11.52 19.2-20.48h-11.52v-10.24h12.8v-12.8h10.24v11.52h21.76v24.32c0 2.56 1.28 2.56 2.56 2.56h2.56c2.56 0 2.56-1.28 3.84-2.56 0-2.56 1.28-6.4 1.28-10.24l8.96 2.56c0 3.84 0 7.68-1.28 10.24-1.28 6.4-3.84 8.96-11.52 8.96h-6.4c-7.68 0-10.24-2.56-10.24-10.24v-16.64h-11.52c-2.56 14.08-8.96 21.76-23.04 29.44l-7.68-6.4z" p-id="6343"></path><path d="M842.24 625.92v216.32H181.76V582.4h64l-25.6-33.28-38.4-51.2-26.88-35.84-26.88 35.84-38.4 49.92-25.6 33.28h64v285.44c0 15.36 12.8 28.16 28.16 28.16h711.68c15.36 0 28.16-12.8 28.16-28.16v-243.2l-28.16 37.12-25.6-34.56zM896 462.08V330.24v-1.28-1.28c0-7.68-3.84-14.08-8.96-19.2L715.52 136.96c-5.12-5.12-11.52-8.96-19.2-8.96h-1.28-538.88C140.8 128 128 140.8 128 156.16v263.68l26.88-35.84 26.88 35.84V181.76h486.4v147.2c0 15.36 11.52 26.88 26.88 26.88h147.2v106.24h-64l25.6 33.28 38.4 51.2 26.88 34.56 28.16-37.12 37.12-49.92 25.6-33.28h-64zM723.2 302.08v-81.92l81.92 81.92h-81.92z" p-id="6344"></path></svg>