<?xml version="1.0" standalone="no"?><!DOCTYPE svg PUBLIC "-//W3C//DTD SVG 1.1//EN" "http://www.w3.org/Graphics/SVG/1.1/DTD/svg11.dtd"><svg t="1686993568552" viewBox="0 0 1024 1024" version="1.1" xmlns="http://www.w3.org/2000/svg" p-id="2268" xmlns:xlink="http://www.w3.org/1999/xlink" width="200" height="200"><path d="M686.08 652.8H299.52c-5.12 0-8.96-2.56-11.52-6.4l-89.6-149.76c-3.84-6.4-1.28-14.08 5.12-17.92 6.4-3.84 14.08-1.28 17.92 5.12L307.2 627.2h371.2l79.36-143.36c3.84-6.4 11.52-8.96 17.92-5.12 6.4 3.84 8.96 11.52 5.12 17.92l-83.2 149.76c-2.56 3.84-6.4 6.4-11.52 6.4z" fill="#231815" p-id="2269"></path><path d="M659.2 601.6H528.64c-3.84 0-6.4-2.56-6.4-6.4s2.56-6.4 6.4-6.4h126.72l30.72-55.04c1.28-3.84 6.4-3.84 8.96-2.56 3.84 1.28 3.84 6.4 2.56 8.96L665.6 599.04c-2.56 1.28-3.84 2.56-6.4 2.56zM501.76 601.6h-11.52c-3.84 0-6.4-2.56-6.4-6.4s2.56-6.4 6.4-6.4h11.52c3.84 0 6.4 2.56 6.4 6.4s-2.56 6.4-6.4 6.4zM769.28 503.04H209.92c-7.68 0-12.8-6.4-12.8-12.8s6.4-12.8 12.8-12.8h559.36c7.68 0 12.8 6.4 12.8 12.8s-5.12 12.8-12.8 12.8z" fill="#231815" p-id="2270"></path><path d="M689.92 958.72H290.56c-6.4 0-11.52-5.12-12.8-11.52l-79.36-455.68c-1.28-7.68 3.84-14.08 11.52-15.36 7.68-1.28 14.08 3.84 15.36 11.52l78.08 444.16H678.4l78.08-444.16c1.28-7.68 7.68-12.8 15.36-11.52 7.68 1.28 12.8 7.68 11.52 15.36L702.72 947.2c-1.28 6.4-6.4 11.52-12.8 11.52z" fill="#231815" p-id="2271"></path><path d="M209.92 503.04c-3.84 0-6.4-1.28-8.96-3.84L57.6 360.96c-5.12-5.12-5.12-14.08 0-19.2 5.12-5.12 14.08-5.12 19.2 0l143.36 138.24c5.12 5.12 5.12 14.08 0 19.2-2.56 2.56-6.4 3.84-10.24 3.84zM769.28 503.04c-3.84 0-6.4-1.28-10.24-3.84-5.12-5.12-5.12-14.08 0-19.2l143.36-138.24c5.12-5.12 14.08-5.12 19.2 0 5.12 5.12 5.12 14.08 0 19.2L778.24 499.2c-2.56 2.56-5.12 3.84-8.96 3.84zM290.56 958.72c-3.84 0-6.4-1.28-8.96-3.84-5.12-5.12-5.12-14.08 0-19.2l194.56-207.36c5.12-5.12 14.08-5.12 19.2-1.28 5.12 5.12 5.12 14.08 0 19.2L299.52 954.88c-2.56 2.56-5.12 3.84-8.96 3.84z" fill="#231815" p-id="2272"></path><path d="M689.92 958.72c-3.84 0-7.68-1.28-10.24-3.84L389.12 648.96c-5.12-5.12-5.12-14.08 0-19.2 5.12-5.12 14.08-5.12 19.2 0l291.84 305.92c5.12 5.12 5.12 14.08 0 19.2-3.84 2.56-7.68 3.84-10.24 3.84z" fill="#231815" p-id="2273"></path><path d="M414.72 341.76c-1.28 0-3.84 0-5.12-1.28-3.84-1.28-6.4-3.84-7.68-7.68l-8.96-20.48c-2.56-6.4 0-14.08 7.68-17.92L929.28 66.56c3.84-1.28 6.4-1.28 10.24 0 3.84 1.28 6.4 3.84 7.68 7.68l11.52 25.6c2.56 6.4 0 14.08-7.68 17.92L419.84 340.48c-1.28 0-2.56 1.28-5.12 1.28zM928 96l-122.88 53.76 122.88-53.76zM400.64 404.48c-2.56 0-5.12 0-6.4-1.28-2.56-1.28-5.12-5.12-6.4-7.68l-5.12-21.76c-1.28-7.68 2.56-14.08 8.96-16.64L945.92 204.8c3.84-1.28 7.68 0 10.24 1.28 2.56 1.28 5.12 5.12 6.4 7.68l7.68 26.88c1.28 7.68-2.56 14.08-10.24 16.64L403.2 403.2c-1.28 0-2.56 1.28-2.56 1.28z m540.16-170.24l-130.56 35.84 130.56-35.84z" fill="#231815" p-id="2274"></path></svg>