<?xml version="1.0" standalone="no"?><!DOCTYPE svg PUBLIC "-//W3C//DTD SVG 1.1//EN" "http://www.w3.org/Graphics/SVG/1.1/DTD/svg11.dtd"><svg t="1686993797395" viewBox="0 0 1024 1024" version="1.1" xmlns="http://www.w3.org/2000/svg" p-id="5764" xmlns:xlink="http://www.w3.org/1999/xlink" width="200" height="200"><path d="M753.92 130.56H270.08c-76.8 0-140.8 62.72-140.8 140.8V755.2c0 76.8 62.72 140.8 140.8 140.8h483.84c76.8 0 140.8-62.72 140.8-140.8V270.08c-1.28-76.8-64-139.52-140.8-139.52zM270.08 839.68c-14.08 0-26.88-3.84-38.4-8.96l47.36-47.36-38.4-38.4-47.36 47.36c-6.4-11.52-8.96-24.32-8.96-38.4V270.08c0-14.08 3.84-26.88 8.96-38.4l47.36 47.36 38.4-38.4-47.36-47.36c11.52-6.4 24.32-8.96 38.4-8.96h483.84c14.08 0 26.88 3.84 38.4 8.96l-47.36 47.36 38.4 38.4 47.36-47.36c6.4 11.52 8.96 24.32 8.96 38.4v483.84c0 14.08-3.84 26.88-8.96 38.4l-47.36-47.36-38.4 38.4 47.36 47.36c-11.52 6.4-24.32 8.96-38.4 8.96H270.08z" p-id="5765"></path><path d="M311.04 408.32v88.32h39.68v-44.8h89.6v1.28c0 8.96-2.56 11.52-10.24 11.52l-20.48 1.28 10.24 33.28 28.16-2.56c23.04-2.56 32-8.96 32-30.72V336.64H371.2c2.56-3.84 5.12-8.96 7.68-12.8H499.2v-37.12h-102.4l5.12-14.08-46.08-1.28c-1.28 5.12-3.84 10.24-5.12 14.08h-64v37.12h43.52c-14.08 21.76-32 40.96-52.48 57.6l10.24 47.36c8.96-5.12 15.36-12.8 23.04-19.2z m40.96-38.4h89.6v11.52h-89.6v-11.52z m0 40.96h89.6v11.52h-89.6v-11.52zM613.12 423.68h-67.84v70.4h174.08v-70.4h-67.84v-8.96h87.04v-26.88h-87.04v-7.68H716.8V358.4h-65.28v-7.68h66.56v-19.2h16.64V281.6h-80.64l-2.56-10.24h-43.52c1.28 2.56 1.28 6.4 3.84 10.24h-81.92v49.92h16.64v19.2h66.56v7.68h-65.28v21.76h65.28v7.68h-87.04v26.88h87.04v8.96z m-43.52-96v-15.36h125.44v15.36h-43.52v-11.52h-38.4v11.52h-43.52z m110.08 122.88v15.36h-96v-15.36h96zM491.52 614.4l-39.68-11.52c-5.12 17.92-12.8 51.2-21.76 76.8-7.68-26.88-16.64-55.04-24.32-76.8l-35.84 10.24c7.68 20.48 17.92 56.32 25.6 83.2l32-11.52c-2.56 8.96-5.12 15.36-7.68 20.48l16.64 5.12h-69.12l-2.56-39.68c-5.12 1.28-12.8 3.84-23.04 6.4V627.2h19.2v-40.96h-19.2v-57.6l-37.12-1.28v58.88h-20.48V627.2h20.48v61.44c-11.52 2.56-21.76 5.12-25.6 6.4l7.68 42.24c14.08-3.84 48.64-12.8 69.12-19.2v30.72h144.64v-35.84h-43.52c12.8-29.44 25.6-70.4 34.56-98.56z" p-id="5766"></path><path d="M364.8 593.92h131.84v-37.12h-42.24c-1.28-8.96-3.84-21.76-6.4-30.72h-42.24c1.28 7.68 3.84 21.76 6.4 30.72h-47.36v37.12zM733.44 634.88v-35.84h-26.88l12.8-24.32v-39.68h-125.44v37.12h15.36v30.72c-2.56 37.12-6.4 62.72-16.64 88.32-1.28-7.68-1.28-11.52-1.28-16.64l-12.8 2.56v-51.2h14.08v-40.96h-14.08v-57.6l-37.12-1.28v58.88H524.8V627.2h16.64v60.16c-11.52 2.56-20.48 5.12-24.32 5.12l6.4 42.24c11.52-2.56 34.56-7.68 52.48-12.8l-7.68 11.52 33.28 17.92c5.12-8.96 10.24-16.64 14.08-23.04l20.48 23.04c17.92-11.52 33.28-21.76 44.8-33.28 11.52 10.24 24.32 21.76 40.96 33.28l21.76-34.56c-15.36-7.68-28.16-15.36-39.68-25.6 12.8-16.64 21.76-34.56 29.44-56.32zM622.08 716.8c8.96-19.2 14.08-35.84 16.64-56.32 5.12 11.52 11.52 21.76 17.92 30.72-10.24 10.24-20.48 17.92-34.56 25.6z m58.88-51.2c-15.36-20.48-26.88-46.08-35.84-83.2v-8.96h38.4L665.6 601.6v30.72h30.72c-3.84 12.8-8.96 23.04-15.36 33.28z" p-id="5767"></path></svg>