<?xml version="1.0" standalone="no"?><!DOCTYPE svg PUBLIC "-//W3C//DTD SVG 1.1//EN" "http://www.w3.org/Graphics/SVG/1.1/DTD/svg11.dtd"><svg t="1686993640512" viewBox="0 0 1024 1024" version="1.1" xmlns="http://www.w3.org/2000/svg" p-id="2851" xmlns:xlink="http://www.w3.org/1999/xlink" width="200" height="200"><path d="M474.88 883.2c-2.56 0-6.4-1.28-8.96-2.56l-75.52-60.16-81.92 51.2c-5.12 2.56-10.24 2.56-15.36 0l-79.36-57.6-80.64 53.76c-3.84 2.56-8.96 2.56-12.8 0-3.84-2.56-7.68-6.4-7.68-11.52v-448c0-148.48 74.24-268.8 165.12-268.8h467.2c90.88 0 165.12 120.32 165.12 268.8s-74.24 268.8-165.12 268.8c-7.68 0-12.8-6.4-12.8-12.8s6.4-12.8 12.8-12.8c76.8 0 138.24-108.8 138.24-241.92 0-133.12-62.72-241.92-138.24-241.92-76.8 0-138.24 108.8-138.24 241.92v368.64c0 3.84-1.28 7.68-5.12 10.24l-119.04 93.44c-2.56 1.28-5.12 1.28-7.68 1.28z m-84.48-93.44c2.56 0 6.4 1.28 8.96 2.56l75.52 60.16 104.96-83.2V408.32c0-106.24 38.4-198.4 93.44-241.92H279.04c-76.8 0-138.24 108.8-138.24 241.92v422.4l66.56-44.8c5.12-2.56 10.24-2.56 15.36 0l79.36 57.6 81.92-51.2c2.56-1.28 5.12-2.56 6.4-2.56z" fill="#231815" p-id="2852"></path><path d="M171.52 727.04c-3.84 0-6.4-2.56-6.4-6.4v-20.48c0-3.84 2.56-6.4 6.4-6.4s6.4 2.56 6.4 6.4v20.48c1.28 3.84-2.56 6.4-6.4 6.4z m0-64c-3.84 0-6.4-2.56-6.4-6.4V408.32c0-129.28 58.88-216.32 113.92-216.32h249.6c3.84 0 6.4 2.56 6.4 6.4s-2.56 6.4-6.4 6.4H279.04c-47.36 0-99.84 87.04-99.84 202.24v248.32c0 5.12-3.84 7.68-7.68 7.68zM746.24 497.92c-24.32 0-42.24-30.72-42.24-72.96 0-40.96 17.92-72.96 42.24-72.96s42.24 30.72 42.24 72.96c0 42.24-17.92 72.96-42.24 72.96z m0-119.04c-3.84 0-15.36 15.36-15.36 46.08s11.52 46.08 15.36 46.08 15.36-15.36 15.36-46.08-11.52-46.08-15.36-46.08z" fill="#231815" p-id="2853"></path><path d="M744.96 677.12c-90.88 0-165.12-120.32-165.12-268.8s74.24-268.8 165.12-268.8 165.12 120.32 165.12 268.8c1.28 148.48-72.96 268.8-165.12 268.8z m0-509.44c-76.8 0-138.24 108.8-138.24 241.92 0 133.12 62.72 241.92 138.24 241.92S883.2 542.72 883.2 409.6c1.28-134.4-61.44-241.92-138.24-241.92z" fill="#231815" p-id="2854"></path></svg>