<?xml version="1.0" standalone="no"?><!DOCTYPE svg PUBLIC "-//W3C//DTD SVG 1.1//EN" "http://www.w3.org/Graphics/SVG/1.1/DTD/svg11.dtd"><svg t="1686993760018" viewBox="0 0 1024 1024" version="1.1" xmlns="http://www.w3.org/2000/svg" p-id="5183" xmlns:xlink="http://www.w3.org/1999/xlink" width="200" height="200"><path d="M497.92 830.72c-78.08 0-120.32-64-135.68-106.24-35.84-1.28-85.76-19.2-121.6-53.76-33.28-32-48.64-74.24-43.52-120.32 10.24-94.72 87.04-135.68 125.44-152.32-15.36-21.76-33.28-60.16-20.48-107.52 14.08-52.48 64-69.12 98.56-71.68 3.84-43.52 23.04-97.28 64-128 29.44-21.76 65.28-28.16 104.96-15.36 83.2 25.6 102.4 115.2 102.4 170.24 28.16 6.4 90.88 28.16 116.48 93.44 24.32 62.72-6.4 113.92-26.88 138.24 37.12 25.6 81.92 80.64 61.44 161.28-25.6 101.12-145.92 111.36-184.32 111.36-11.52 24.32-47.36 79.36-134.4 81.92-2.56-1.28-5.12-1.28-6.4-1.28zM373.76 691.2c7.68 0 14.08 5.12 15.36 11.52 1.28 3.84 26.88 98.56 113.92 94.72 87.04-3.84 108.8-69.12 110.08-71.68 2.56-6.4 8.96-11.52 15.36-11.52 1.28 0 139.52 5.12 163.84-88.32 23.04-93.44-60.16-133.12-62.72-135.68-5.12-2.56-7.68-6.4-8.96-11.52-1.28-5.12 1.28-10.24 5.12-14.08 2.56-2.56 58.88-53.76 33.28-117.76-26.88-66.56-104.96-75.52-104.96-75.52-8.96-1.28-15.36-8.96-14.08-16.64 0-5.12 10.24-124.16-78.08-151.04-29.44-8.96-55.04-5.12-76.8 11.52-34.56 25.6-52.48 79.36-51.2 117.76 0 3.84-1.28 8.96-5.12 11.52-2.56 2.56-7.68 5.12-11.52 3.84-2.56 0-67.84-2.56-81.92 49.92-15.36 55.04 26.88 94.72 26.88 94.72 3.84 3.84 6.4 10.24 5.12 15.36-1.28 5.12-6.4 10.24-11.52 11.52-5.12 1.28-115.2 29.44-125.44 131.84-3.84 37.12 7.68 69.12 34.56 94.72 34.56 33.28 84.48 47.36 108.8 44.8-1.28 1.28-1.28 0 0 0z" fill="#231815" p-id="5184"></path><path d="M670.72 688.64c-3.84 0-7.68-2.56-7.68-6.4-1.28-3.84 2.56-8.96 6.4-8.96 33.28-5.12 74.24-19.2 83.2-55.04 6.4-26.88 0-53.76-19.2-72.96-5.12-5.12-11.52-10.24-19.2-14.08-15.36-10.24-33.28-21.76-34.56-46.08-1.28-20.48 10.24-37.12 23.04-53.76 15.36-20.48 29.44-40.96 19.2-67.84-16.64-43.52-70.4-49.92-72.96-51.2-15.36-2.56-44.8-15.36-46.08-46.08-1.28-32-5.12-49.92-5.12-49.92-1.28-8.96-2.56-16.64-5.12-24.32-1.28-3.84 1.28-8.96 5.12-10.24 3.84-1.28 8.96 1.28 10.24 5.12 2.56 7.68 5.12 16.64 6.4 26.88 0 0 3.84 19.2 5.12 52.48 1.28 26.88 30.72 30.72 32 32 2.56 0 64 8.96 84.48 60.16 14.08 34.56-5.12 60.16-20.48 81.92-10.24 15.36-20.48 29.44-19.2 43.52 1.28 16.64 14.08 25.6 28.16 34.56 7.68 5.12 15.36 10.24 21.76 16.64 23.04 23.04 32 55.04 23.04 87.04-12.8 44.8-60.16 61.44-98.56 66.56zM581.12 163.84c-2.56 0-3.84-1.28-6.4-2.56-3.84-3.84-7.68-7.68-11.52-10.24-3.84-2.56-5.12-7.68-2.56-11.52 2.56-3.84 7.68-5.12 11.52-2.56 5.12 3.84 10.24 7.68 15.36 12.8 2.56 3.84 2.56 7.68-1.28 11.52-1.28 2.56-2.56 2.56-5.12 2.56zM541.44 954.88c-6.4 0-12.8-3.84-15.36-11.52-81.92-252.16-16.64-734.72-14.08-755.2 1.28-8.96 8.96-14.08 17.92-14.08 8.96 1.28 14.08 8.96 14.08 17.92-1.28 5.12-66.56 495.36 12.8 741.12 2.56 7.68-1.28 16.64-10.24 20.48-2.56 1.28-3.84 1.28-5.12 1.28z" fill="#231815" p-id="5185"></path><path d="M517.12 317.44c-5.12 0-10.24-2.56-12.8-6.4-5.12-7.68-2.56-16.64 3.84-21.76 29.44-19.2 49.92-35.84 49.92-35.84 6.4-5.12 16.64-3.84 21.76 2.56 5.12 6.4 3.84 16.64-2.56 21.76-1.28 1.28-21.76 16.64-51.2 37.12-2.56 1.28-5.12 2.56-8.96 2.56zM506.88 509.44c-5.12 0-8.96-1.28-11.52-5.12-5.12-6.4-5.12-16.64 1.28-21.76l133.12-112.64c6.4-5.12 16.64-5.12 21.76 1.28 5.12 6.4 5.12 16.64-1.28 21.76l-133.12 112.64c-2.56 2.56-6.4 3.84-10.24 3.84zM508.16 687.36c-5.12 0-8.96-2.56-12.8-6.4-5.12-6.4-3.84-16.64 2.56-21.76l136.96-104.96c6.4-5.12 16.64-3.84 21.76 2.56 5.12 6.4 3.84 16.64-2.56 21.76l-136.96 104.96c-2.56 2.56-5.12 3.84-8.96 3.84z" fill="#231815" p-id="5186"></path><path d="M503.04 654.08c-1.28 0-3.84 0-5.12-1.28-15.36-5.12-151.04-55.04-186.88-87.04-6.4-5.12-7.68-15.36-1.28-21.76 5.12-6.4 15.36-7.68 21.76-1.28 26.88 23.04 136.96 66.56 177.92 80.64 7.68 2.56 12.8 11.52 8.96 20.48-2.56 6.4-8.96 10.24-15.36 10.24zM505.6 444.16c-2.56 0-5.12-1.28-7.68-2.56-3.84-2.56-88.32-55.04-117.76-81.92-6.4-6.4-6.4-15.36-1.28-21.76 6.4-6.4 15.36-6.4 21.76-1.28 26.88 24.32 111.36 76.8 112.64 78.08 7.68 5.12 10.24 14.08 5.12 21.76-2.56 5.12-7.68 7.68-12.8 7.68z" fill="#231815" p-id="5187"></path></svg>