<?xml version="1.0" standalone="no"?><!DOCTYPE svg PUBLIC "-//W3C//DTD SVG 1.1//EN" "http://www.w3.org/Graphics/SVG/1.1/DTD/svg11.dtd"><svg t="1686993604515" viewBox="0 0 1024 1024" version="1.1" xmlns="http://www.w3.org/2000/svg" p-id="2416" xmlns:xlink="http://www.w3.org/1999/xlink" width="200" height="200"><path d="M810.24 723.2c-33.28 0-70.4-7.68-111.36-16.64-53.76-11.52-113.92-24.32-186.88-24.32-71.68 0-133.12 12.8-186.88 24.32-84.48 17.92-152.32 32-209.92-19.2C42.24 622.08 44.8 523.52 46.08 512c0-11.52-3.84-108.8 70.4-175.36 57.6-51.2 125.44-37.12 209.92-19.2 53.76 11.52 113.92 24.32 186.88 24.32s133.12-12.8 186.88-24.32c84.48-17.92 152.32-32 209.92 19.2 74.24 65.28 70.4 163.84 70.4 175.36 0 11.52 3.84 108.8-70.4 175.36-32 26.88-64 35.84-99.84 35.84zM512 655.36c74.24 0 136.96 12.8 192 25.6 80.64 16.64 138.24 29.44 186.88-12.8 66.56-58.88 61.44-152.32 61.44-153.6v-1.28c0-1.28 5.12-94.72-61.44-153.6-47.36-42.24-106.24-29.44-186.88-12.8-55.04 11.52-117.76 25.6-192 25.6s-136.96-12.8-192-25.6c-80.64-16.64-138.24-29.44-186.88 12.8-66.56 58.88-61.44 152.32-61.44 153.6v1.28c0 1.28-5.12 94.72 61.44 153.6 47.36 42.24 106.24 29.44 186.88 12.8 55.04-12.8 117.76-25.6 192-25.6z" fill="#231815" p-id="2417"></path><path d="M268.8 669.44c-21.76 0-38.4-6.4-53.76-23.04-39.68-42.24-42.24-107.52-42.24-126.72V508.16v-5.12c0-19.2 2.56-83.2 42.24-126.72 32-34.56 74.24-24.32 136.96-7.68 43.52 11.52 97.28 25.6 160 25.6s116.48-14.08 160-25.6c62.72-16.64 104.96-26.88 136.96 7.68 39.68 42.24 42.24 107.52 42.24 126.72V519.68c0 19.2-2.56 83.2-42.24 126.72-32 34.56-74.24 24.32-136.96 7.68-43.52-11.52-97.28-25.6-160-25.6s-116.48 14.08-160 25.6c-33.28 7.68-60.16 15.36-83.2 15.36z m0-286.72c-15.36 0-25.6 3.84-34.56 14.08-33.28 35.84-35.84 92.16-35.84 107.52V519.68c0 16.64 2.56 71.68 35.84 107.52 19.2 20.48 44.8 16.64 110.08 0 44.8-11.52 101.12-25.6 167.68-25.6 66.56 0 122.88 14.08 167.68 26.88 66.56 17.92 90.88 21.76 110.08 0 33.28-35.84 35.84-92.16 35.84-107.52v-5.12-5.12-3.84c0-16.64-2.56-71.68-35.84-107.52-19.2-20.48-44.8-16.64-110.08 0-44.8 11.52-101.12 26.88-167.68 26.88-66.56 0-122.88-14.08-167.68-26.88-34.56-11.52-58.88-16.64-75.52-16.64z" fill="#231815" p-id="2418"></path><path d="M231.68 542.72c-3.84 0-6.4-2.56-6.4-6.4v-6.4c0-3.84 2.56-6.4 6.4-7.68 3.84 0 6.4 2.56 7.68 6.4v6.4c0 3.84-2.56 7.68-7.68 7.68 1.28 0 0 0 0 0zM268.8 616.96c-8.96 0-11.52-1.28-15.36-6.4-11.52-12.8-19.2-29.44-24.32-51.2-1.28-3.84 1.28-7.68 5.12-7.68 3.84-1.28 7.68 1.28 7.68 5.12 3.84 19.2 11.52 34.56 20.48 44.8l1.28 1.28h5.12c14.08 0 37.12-6.4 66.56-14.08 47.36-12.8 106.24-28.16 176.64-28.16 71.68 0 129.28 15.36 176.64 28.16 3.84 1.28 6.4 5.12 5.12 7.68s-5.12 5.12-7.68 5.12c-47.36-10.24-104.96-25.6-174.08-25.6s-126.72 15.36-174.08 26.88c-30.72 7.68-53.76 14.08-69.12 14.08zM664.32 350.72c-6.4 0-11.52-3.84-12.8-10.24l-17.92-76.8c-2.56-5.12-21.76-48.64-83.2-48.64h-76.8c-61.44 0-80.64 43.52-83.2 48.64l-17.92 76.8c-1.28 7.68-8.96 11.52-16.64 10.24-7.68-1.28-11.52-8.96-10.24-16.64l19.2-78.08c1.28-3.84 24.32-69.12 108.8-69.12h76.8c84.48 0 107.52 65.28 107.52 67.84l19.2 79.36c1.28 7.68-2.56 14.08-10.24 16.64h-2.56zM550.4 835.84h-76.8c-84.48 0-107.52-65.28-107.52-67.84L345.6 689.92c-1.28-7.68 2.56-14.08 10.24-16.64 7.68-1.28 14.08 2.56 16.64 10.24l17.92 76.8c2.56 5.12 21.76 48.64 83.2 48.64h76.8c65.28 0 83.2-48.64 83.2-49.92l17.92-76.8c1.28-7.68 8.96-11.52 16.64-10.24 7.68 1.28 11.52 8.96 10.24 16.64l-19.2 78.08c-1.28 5.12-24.32 69.12-108.8 69.12z" fill="#231815" p-id="2419"></path></svg>