<?xml version="1.0" standalone="no"?><!DOCTYPE svg PUBLIC "-//W3C//DTD SVG 1.1//EN" "http://www.w3.org/Graphics/SVG/1.1/DTD/svg11.dtd"><svg t="1686993683097" viewBox="0 0 1024 1024" version="1.1" xmlns="http://www.w3.org/2000/svg" p-id="3726" xmlns:xlink="http://www.w3.org/1999/xlink" width="200" height="200"><path d="M716.8 921.6H307.2c-7.68 0-12.8-6.4-12.8-12.8V183.04c0-7.68 6.4-12.8 12.8-12.8h409.6c7.68 0 12.8 6.4 12.8 12.8V908.8c1.28 6.4-5.12 12.8-12.8 12.8z m-396.8-26.88h384V195.84H320v698.88z" fill="#231815" p-id="3727"></path><path d="M518.4 869.12h-12.8c-3.84 0-6.4-2.56-6.4-6.4s2.56-6.4 6.4-6.4h12.8c3.84 0 6.4 2.56 6.4 6.4s-2.56 6.4-6.4 6.4zM672 869.12h-126.72c-3.84 0-6.4-2.56-6.4-6.4s2.56-6.4 6.4-6.4H665.6v-627.2c0-3.84 2.56-6.4 6.4-6.4s6.4 2.56 6.4 6.4v633.6c0 3.84-2.56 6.4-6.4 6.4zM605.44 195.84c-7.68 0-12.8-6.4-12.8-12.8v-53.76H431.36v53.76c0 7.68-6.4 12.8-12.8 12.8s-12.8-6.4-12.8-12.8V116.48c0-7.68 6.4-12.8 12.8-12.8h186.88c7.68 0 12.8 6.4 12.8 12.8v66.56c1.28 7.68-5.12 12.8-12.8 12.8z" fill="#231815" p-id="3728"></path><path d="M569.6 796.16h-115.2c-7.68 0-12.8-6.4-12.8-12.8s6.4-12.8 12.8-12.8h115.2c7.68 0 12.8 6.4 12.8 12.8s-5.12 12.8-12.8 12.8zM569.6 378.88h-115.2c-7.68 0-12.8-6.4-12.8-12.8s6.4-12.8 12.8-12.8h115.2c7.68 0 12.8 6.4 12.8 12.8s-5.12 12.8-12.8 12.8z" fill="#231815" p-id="3729"></path><path d="M569.6 378.88h-115.2c-7.68 0-12.8-6.4-12.8-12.8s6.4-12.8 12.8-12.8h115.2c7.68 0 12.8 6.4 12.8 12.8s-5.12 12.8-12.8 12.8z" fill="#231815" p-id="3730"></path><path d="M512 436.48c-7.68 0-12.8-6.4-12.8-12.8v-115.2c0-7.68 6.4-12.8 12.8-12.8s12.8 6.4 12.8 12.8v115.2c0 6.4-5.12 12.8-12.8 12.8z" fill="#231815" p-id="3731"></path></svg>