<?xml version="1.0" standalone="no"?><!DOCTYPE svg PUBLIC "-//W3C//DTD SVG 1.1//EN" "http://www.w3.org/Graphics/SVG/1.1/DTD/svg11.dtd"><svg t="1686993667191" viewBox="0 0 1024 1024" version="1.1" xmlns="http://www.w3.org/2000/svg" p-id="3434" xmlns:xlink="http://www.w3.org/1999/xlink" width="200" height="200"><path d="M736 249.6h-448c-7.68 0-12.8-6.4-12.8-12.8V116.48c0-7.68 6.4-12.8 12.8-12.8h448c7.68 0 12.8 6.4 12.8 12.8v120.32c0 7.68-5.12 12.8-12.8 12.8z m-433.92-26.88h421.12v-93.44H302.08v93.44zM358.4 556.8h305.92v107.52H358.4z" fill="#231815" p-id="3435"></path><path d="M458.24 456.96h107.52v305.92h-107.52z" fill="#231815" p-id="3436"></path><path d="M783.36 921.6H240.64c-7.68 0-12.8-6.4-12.8-12.8V313.6c0-7.68 6.4-12.8 12.8-12.8h542.72c7.68 0 12.8 6.4 12.8 12.8V908.8c0 6.4-5.12 12.8-12.8 12.8z m-529.92-26.88h515.84V326.4H253.44v568.32z" fill="#231815" p-id="3437"></path><path d="M533.76 869.12h-37.12c-3.84 0-6.4-2.56-6.4-6.4s2.56-6.4 6.4-6.4h37.12c3.84 0 6.4 2.56 6.4 6.4s-2.56 6.4-6.4 6.4zM737.28 869.12H567.04c-3.84 0-6.4-2.56-6.4-6.4s2.56-6.4 6.4-6.4h163.84V358.4c0-3.84 2.56-6.4 6.4-6.4s6.4 2.56 6.4 6.4v503.04c1.28 5.12-2.56 7.68-6.4 7.68zM682.24 326.4H341.76c-7.68 0-12.8-6.4-12.8-12.8v-76.8c0-7.68 6.4-12.8 12.8-12.8h339.2c7.68 0 12.8 6.4 12.8 12.8v76.8c1.28 7.68-5.12 12.8-11.52 12.8z m-326.4-26.88h312.32v-49.92H355.84v49.92z" fill="#231815" p-id="3438"></path><path d="M362.24 249.6c-7.68 0-12.8-6.4-12.8-12.8V116.48c0-7.68 6.4-12.8 12.8-12.8s12.8 6.4 12.8 12.8v120.32c1.28 7.68-5.12 12.8-12.8 12.8zM437.76 249.6c-7.68 0-12.8-6.4-12.8-12.8V116.48c0-7.68 6.4-12.8 12.8-12.8s12.8 6.4 12.8 12.8v120.32c0 7.68-5.12 12.8-12.8 12.8zM512 249.6c-7.68 0-12.8-6.4-12.8-12.8V116.48c0-7.68 6.4-12.8 12.8-12.8s12.8 6.4 12.8 12.8v120.32c0 7.68-5.12 12.8-12.8 12.8zM586.24 249.6c-7.68 0-12.8-6.4-12.8-12.8V116.48c0-7.68 6.4-12.8 12.8-12.8s12.8 6.4 12.8 12.8v120.32c1.28 7.68-5.12 12.8-12.8 12.8zM661.76 249.6c-7.68 0-12.8-6.4-12.8-12.8V116.48c0-7.68 6.4-12.8 12.8-12.8s12.8 6.4 12.8 12.8v120.32c0 7.68-6.4 12.8-12.8 12.8z" fill="#231815" p-id="3439"></path></svg>