<?xml version="1.0" standalone="no"?><!DOCTYPE svg PUBLIC "-//W3C//DTD SVG 1.1//EN" "http://www.w3.org/Graphics/SVG/1.1/DTD/svg11.dtd"><svg t="1686993659635" viewBox="0 0 1024 1024" version="1.1" xmlns="http://www.w3.org/2000/svg" p-id="3288" xmlns:xlink="http://www.w3.org/1999/xlink" width="200" height="200"><path d="M531.2 641.28c-3.84 0-6.4-1.28-8.96-3.84-101.12-101.12-101.12-264.96 0-364.8 101.12-101.12 264.96-101.12 364.8 0 2.56 2.56 3.84 6.4 3.84 8.96s-1.28 6.4-3.84 8.96L540.16 637.44c-2.56 2.56-5.12 3.84-8.96 3.84zM704 222.72c-58.88 0-119.04 23.04-163.84 67.84-87.04 87.04-89.6 226.56-8.96 317.44L857.6 281.6c-43.52-39.68-98.56-58.88-153.6-58.88z" fill="#231815" p-id="3289"></path><path d="M535.04 565.76s-1.28 0 0 0c-2.56 0-5.12-1.28-5.12-2.56-40.96-65.28-40.96-149.76-1.28-215.04 1.28-2.56 6.4-3.84 8.96-2.56 2.56 1.28 3.84 6.4 2.56 8.96-35.84 58.88-37.12 134.4-3.84 194.56l268.8-268.8c2.56-2.56 6.4-2.56 8.96 0 2.56 2.56 2.56 6.4 0 8.96L540.16 564.48c-1.28 1.28-3.84 1.28-5.12 1.28zM552.96 331.52c-1.28 0-2.56 0-3.84-1.28-2.56-2.56-2.56-6.4-1.28-8.96l11.52-11.52c2.56-2.56 6.4-2.56 8.96 0 2.56 2.56 2.56 6.4 0 8.96-3.84 3.84-6.4 7.68-10.24 11.52-1.28 0-3.84 1.28-5.12 1.28zM481.28 368.64c-3.84 0-6.4-1.28-8.96-3.84l-115.2-115.2c-5.12-5.12-5.12-14.08 0-19.2l124.16-124.16c5.12-5.12 14.08-5.12 19.2 0l115.2 115.2c5.12 5.12 5.12 14.08 0 19.2-5.12 5.12-14.08 5.12-19.2 0l-104.96-104.96-104.96 104.96 104.96 104.96c5.12 5.12 5.12 14.08 0 19.2-3.84 2.56-7.68 3.84-10.24 3.84z" fill="#231815" p-id="3290"></path><path d="M510.72 921.6c-3.84 0-6.4-1.28-8.96-3.84L136.96 552.96c-2.56-2.56-3.84-6.4-3.84-8.96s1.28-6.4 3.84-8.96l261.12-261.12c5.12-5.12 14.08-5.12 19.2 0 5.12 5.12 5.12 14.08 0 19.2L165.12 544l354.56 354.56c5.12 5.12 5.12 14.08 0 19.2-2.56 2.56-6.4 3.84-8.96 3.84z" fill="#231815" p-id="3291"></path><path d="M776.96 921.6h-537.6c-7.68 0-12.8-6.4-12.8-12.8s6.4-12.8 12.8-12.8h537.6c7.68 0 12.8 6.4 12.8 12.8s-6.4 12.8-12.8 12.8z" fill="#231815" p-id="3292"></path></svg>