<?xml version="1.0" standalone="no"?><!DOCTYPE svg PUBLIC "-//W3C//DTD SVG 1.1//EN" "http://www.w3.org/Graphics/SVG/1.1/DTD/svg11.dtd"><svg t="1686993652848" viewBox="0 0 1024 1024" version="1.1" xmlns="http://www.w3.org/2000/svg" p-id="3143" xmlns:xlink="http://www.w3.org/1999/xlink" width="200" height="200"><path d="M512 921.6c-28.16 0-51.2-23.04-51.2-51.2V732.16l-62.72-84.48c-1.28-2.56-2.56-5.12-2.56-7.68V220.16c0-64 52.48-116.48 116.48-116.48s116.48 52.48 116.48 116.48V640c0 2.56-1.28 5.12-2.56 7.68L563.2 732.16v136.96c0 29.44-23.04 52.48-51.2 52.48z m-89.6-285.44l62.72 84.48c1.28 2.56 2.56 5.12 2.56 7.68v140.8c0 14.08 11.52 25.6 25.6 25.6s25.6-11.52 25.6-25.6v-140.8c0-2.56 1.28-5.12 2.56-7.68l62.72-84.48V220.16c0-49.92-40.96-89.6-89.6-89.6-49.92 0-89.6 40.96-89.6 89.6v416z m193.28 3.84z" fill="#231815" p-id="3144"></path><path d="M569.6 369.92c-3.84 0-6.4-2.56-6.4-6.4V220.16c0-17.92-8.96-33.28-23.04-43.52-2.56-2.56-3.84-6.4-2.56-8.96 2.56-2.56 6.4-3.84 8.96-1.28 17.92 11.52 29.44 32 29.44 53.76v143.36c1.28 2.56-2.56 6.4-6.4 6.4zM519.68 168.96H512c-3.84 0-6.4-2.56-6.4-6.4s2.56-6.4 6.4-6.4h8.96c3.84 0 6.4 3.84 5.12 7.68 0 2.56-2.56 5.12-6.4 5.12zM450.56 267.52h-42.24c-7.68 0-12.8-6.4-12.8-12.8s6.4-12.8 12.8-12.8h42.24c7.68 0 12.8 6.4 12.8 12.8s-5.12 12.8-12.8 12.8zM450.56 376.32h-42.24c-7.68 0-12.8-6.4-12.8-12.8s6.4-12.8 12.8-12.8h42.24c7.68 0 12.8 6.4 12.8 12.8s-5.12 12.8-12.8 12.8zM450.56 485.12h-42.24c-7.68 0-12.8-6.4-12.8-12.8s6.4-12.8 12.8-12.8h42.24c7.68 0 12.8 6.4 12.8 12.8s-5.12 12.8-12.8 12.8zM450.56 593.92h-42.24c-7.68 0-12.8-6.4-12.8-12.8s6.4-12.8 12.8-12.8h42.24c7.68 0 12.8 6.4 12.8 12.8s-5.12 12.8-12.8 12.8z" fill="#231815" p-id="3145"></path><path d="M512 686.08c-7.68 0-12.8-6.4-12.8-12.8V215.04c0-7.68 6.4-12.8 12.8-12.8s12.8 6.4 12.8 12.8v458.24c0 7.68-5.12 12.8-12.8 12.8z" fill="#231815" p-id="3146"></path></svg>