<?xml version="1.0" standalone="no"?><!DOCTYPE svg PUBLIC "-//W3C//DTD SVG 1.1//EN" "http://www.w3.org/Graphics/SVG/1.1/DTD/svg11.dtd"><svg t="1686993879437" viewBox="0 0 1024 1024" version="1.1" xmlns="http://www.w3.org/2000/svg" p-id="7360" xmlns:xlink="http://www.w3.org/1999/xlink" width="200" height="200"><path d="M839.68 637.44V755.2c0 47.36-38.4 87.04-87.04 87.04H268.8c-47.36 0-87.04-38.4-87.04-87.04V586.24h64l-90.88-120.32L64 586.24h64v167.68c0 76.8 62.72 140.8 140.8 140.8h485.12c76.8 0 140.8-62.72 140.8-140.8v-111.36L870.4 675.84l-30.72-38.4zM893.44 465.92V270.08c0-76.8-62.72-140.8-140.8-140.8H268.8c-76.8 0-140.8 62.72-140.8 140.8v142.08l26.88-35.84 26.88 35.84V270.08c0-47.36 38.4-87.04 87.04-87.04h485.12c47.36 0 87.04 38.4 87.04 87.04v195.84h-61.44l61.44 81.92 29.44 38.4 24.32-33.28 65.28-87.04h-66.56z" p-id="7361"></path><path d="M275.2 456.96c19.2-2.56 66.56-8.96 87.04-11.52l1.28 39.68c-17.92 2.56-66.56 8.96-83.2 11.52l-5.12-39.68z m227.84-5.12c-1.28 10.24-3.84 15.36-6.4 24.32-6.4 17.92-14.08 23.04-26.88 23.04-15.36 0-30.72-14.08-34.56-56.32-1.28-14.08-1.28-28.16-2.56-44.8H409.6v52.48l19.2-6.4 1.28 35.84c-8.96 2.56-23.04 7.68-30.72 10.24-8.96 2.56-17.92 7.68-23.04 8.96l-14.08-33.28c10.24-5.12 10.24-7.68 10.24-21.76v-119.04c-10.24 21.76-29.44 53.76-40.96 70.4l29.44-3.84v34.56c-14.08 2.56-35.84 5.12-48.64 7.68-8.96 1.28-19.2 3.84-23.04 3.84l-7.68-38.4c7.68-2.56 12.8-5.12 19.2-12.8 3.84-5.12 8.96-11.52 11.52-17.92l-12.8 1.28c-6.4 0-11.52 1.28-15.36 2.56l-7.68-37.12c3.84-2.56 10.24-6.4 15.36-12.8 3.84-6.4 16.64-32 25.6-52.48l30.72 14.08c-6.4 14.08-20.48 39.68-29.44 51.2h15.36c5.12-10.24 10.24-17.92 12.8-25.6l25.6 14.08v-39.68c35.84-1.28 81.92-5.12 113.92-8.96l7.68 39.68-28.16 2.56v43.52h28.16v38.4h-26.88c1.28 17.92 1.28 33.28 2.56 42.24 1.28 3.84 2.56 6.4 5.12 6.4s3.84-1.28 5.12-6.4c1.28-3.84 1.28-8.96 1.28-10.24l21.76 20.48z m-70.4-90.88V320l-21.76 1.28v39.68h21.76zM618.24 341.76h115.2v154.88h-115.2v-60.16l-12.8 14.08-14.08-15.36v64h-35.84v-55.04c-8.96 11.52-17.92 21.76-25.6 28.16l-11.52-42.24c14.08-11.52 28.16-26.88 35.84-40.96h-24.32v-33.28h25.6v-15.36l-2.56 3.84-32-19.2c11.52-15.36 23.04-38.4 29.44-55.04l40.96 1.28-3.84 10.24h42.24v35.84h-19.2c2.56 5.12 5.12 11.52 6.4 14.08l-24.32 3.84v20.48h17.92v33.28h-17.92V409.6l6.4-7.68c3.84 2.56 12.8 10.24 20.48 16.64v-76.8z m-48.64-24.32c-3.84 6.4-7.68 11.52-11.52 17.92h23.04c-1.28-5.12-3.84-11.52-5.12-17.92h-6.4zM742.4 281.6v35.84h-26.88l6.4 15.36-35.84 5.12c-2.56-5.12-5.12-12.8-7.68-20.48h-7.68c-3.84 7.68-6.4 14.08-8.96 20.48l-35.84-11.52c10.24-19.2 19.2-40.96 23.04-55.04l40.96 1.28c-1.28 3.84-2.56 6.4-3.84 10.24H742.4z m-87.04 90.88v15.36h40.96v-15.36h-40.96z m40.96 53.76v-14.08h-40.96v14.08h40.96z m0 39.68v-15.36h-40.96v15.36h40.96zM492.8 744.96H284.16V532.48h207.36v212.48z m-42.24-170.24h-126.72V704h126.72V574.72z m-110.08 112.64v-99.84h96v99.84h-96z m33.28-64V652.8h29.44v-30.72h-29.44zM751.36 718.08l-25.6 35.84c-16.64-11.52-30.72-25.6-43.52-40.96-12.8 15.36-28.16 28.16-47.36 42.24l-21.76-21.76v19.2H576v-49.92c-7.68 2.56-15.36 5.12-21.76 7.68-10.24 3.84-17.92 7.68-23.04 11.52l-15.36-39.68c8.96-6.4 11.52-11.52 11.52-24.32v-113.92l35.84 1.28v119.04l14.08-3.84V524.8l37.12 1.28v84.48c15.36-24.32 26.88-56.32 33.28-85.76l42.24 3.84c-2.56 8.96-3.84 16.64-6.4 24.32H742.4v40.96h-8.96c-5.12 33.28-12.8 61.44-26.88 85.76 11.52 12.8 26.88 25.6 44.8 38.4zM613.12 716.8c17.92-11.52 33.28-23.04 44.8-37.12-7.68-12.8-15.36-25.6-19.2-38.4-2.56 3.84-6.4 8.96-8.96 12.8L614.4 619.52V716.8z m52.48-124.16l-1.28 3.84c2.56 16.64 7.68 32 16.64 47.36 6.4-15.36 10.24-32 12.8-49.92H665.6z" p-id="7362"></path></svg>