<?xml version="1.0" standalone="no"?><!DOCTYPE svg PUBLIC "-//W3C//DTD SVG 1.1//EN" "http://www.w3.org/Graphics/SVG/1.1/DTD/svg11.dtd"><svg t="1686993749242" viewBox="0 0 1024 1024" version="1.1" xmlns="http://www.w3.org/2000/svg" p-id="4892" xmlns:xlink="http://www.w3.org/1999/xlink" width="200" height="200"><path d="M524.8 928h-1.28c-102.4 0-151.04-47.36-174.08-87.04-38.4-64-30.72-148.48-5.12-195.84C384 572.16 380.16 512 332.8 454.4c-60.16-74.24 10.24-162.56 43.52-206.08 30.72-38.4 32-46.08 33.28-64 0-5.12 1.28-10.24 2.56-15.36 0-6.4 1.28-32 21.76-51.2 17.92-16.64 43.52-24.32 76.8-21.76 52.48 3.84 128 42.24 171.52 108.8 24.32 37.12 48.64 97.28 21.76 175.36-52.48 152.32-57.6 179.2-15.36 248.32 30.72 51.2 39.68 148.48 1.28 216.32-23.04 37.12-69.12 83.2-165.12 83.2zM499.2 122.88c-20.48 0-35.84 5.12-46.08 15.36-14.08 14.08-14.08 33.28-14.08 33.28v2.56c-1.28 6.4-1.28 10.24-2.56 15.36-2.56 23.04-5.12 34.56-38.4 76.8-47.36 58.88-85.76 121.6-44.8 171.52 53.76 65.28 57.6 139.52 14.08 220.16-21.76 40.96-26.88 115.2 5.12 168.96 28.16 47.36 80.64 72.96 152.32 74.24h1.28c66.56 0 113.92-24.32 140.8-70.4 33.28-60.16 25.6-144.64-1.28-189.44-48.64-80.64-38.4-120.32 14.08-270.08 23.04-66.56 2.56-119.04-19.2-151.04-38.4-58.88-107.52-93.44-151.04-96-5.12-1.28-7.68-1.28-10.24-1.28z" fill="#231815" p-id="4893"></path><path d="M515.84 637.44c-43.52 0-79.36-10.24-103.68-17.92-3.84-1.28-5.12-5.12-3.84-8.96 1.28-3.84 5.12-5.12 8.96-3.84 44.8 16.64 133.12 35.84 230.4-15.36 3.84-1.28 7.68 0 8.96 2.56 1.28 3.84 0 7.68-2.56 8.96-51.2 25.6-97.28 34.56-138.24 34.56zM505.6 477.44c-56.32 0-102.4-12.8-133.12-24.32-3.84-1.28-5.12-5.12-3.84-8.96 1.28-3.84 5.12-5.12 8.96-3.84 56.32 21.76 170.24 47.36 294.4-17.92 3.84-1.28 7.68 0 8.96 2.56 1.28 3.84 0 7.68-2.56 8.96-62.72 32-121.6 43.52-172.8 43.52zM529.92 320c-39.68 0-75.52-6.4-104.96-15.36-6.4-2.56-14.08-3.84-19.2-6.4l-11.52-3.84c-3.84-1.28-5.12-5.12-3.84-8.96 1.28-3.84 5.12-5.12 8.96-3.84l11.52 3.84c6.4 2.56 12.8 3.84 19.2 6.4 62.72 17.92 160 28.16 264.96-26.88 3.84-1.28 7.68 0 8.96 2.56 1.28 3.84 0 7.68-2.56 8.96-62.72 33.28-120.32 43.52-171.52 43.52zM520.96 780.8c-44.8 0-84.48-7.68-116.48-17.92-3.84-1.28-5.12-5.12-3.84-7.68 1.28-3.84 5.12-5.12 7.68-3.84 67.84 20.48 174.08 33.28 289.28-28.16 3.84-1.28 7.68 0 8.96 2.56s0 7.68-2.56 8.96C638.72 768 576 780.8 520.96 780.8zM381.44 753.92h-2.56c-3.84-1.28-7.68-2.56-11.52-5.12-3.84-1.28-5.12-5.12-3.84-8.96 1.28-3.84 5.12-5.12 8.96-3.84 3.84 1.28 6.4 2.56 10.24 3.84 3.84 1.28 5.12 5.12 3.84 8.96 0 3.84-2.56 5.12-5.12 5.12z" fill="#231815" p-id="4894"></path><path d="M499.2 919.04c-1.28 0-3.84-1.28-5.12-2.56-67.84-76.8-81.92-180.48-34.56-275.2 33.28-67.84 21.76-94.72-2.56-151.04-6.4-15.36-14.08-32-20.48-52.48-23.04-62.72 3.84-98.56 29.44-131.84 14.08-19.2 29.44-38.4 35.84-62.72 2.56-10.24 2.56-20.48 1.28-30.72 0-3.84 2.56-6.4 6.4-7.68 3.84 0 6.4 2.56 7.68 6.4 1.28 11.52 1.28 24.32-2.56 35.84-6.4 26.88-23.04 48.64-38.4 67.84-25.6 32-48.64 62.72-28.16 119.04 7.68 19.2 14.08 37.12 20.48 51.2 24.32 57.6 38.4 88.32 2.56 161.28-44.8 89.6-32 186.88 33.28 259.84 2.56 2.56 2.56 6.4 0 8.96-1.28 2.56-3.84 3.84-5.12 3.84zM496.64 177.92c-2.56 0-5.12-1.28-6.4-3.84-3.84-6.4-7.68-12.8-12.8-19.2-2.56-2.56-1.28-7.68 1.28-8.96 2.56-2.56 7.68-1.28 8.96 1.28 5.12 6.4 10.24 14.08 14.08 21.76 1.28 3.84 0 7.68-2.56 8.96h-2.56zM556.8 919.04c-2.56 0-3.84-1.28-5.12-2.56-1.28-2.56-1.28-7.68 2.56-8.96 29.44-17.92 67.84-151.04 25.6-239.36-25.6-53.76-17.92-93.44-12.8-125.44 3.84-21.76 7.68-40.96 0-58.88l-3.84-7.68c-19.2-43.52-24.32-55.04 17.92-158.72 11.52-28.16 14.08-58.88 7.68-90.88-1.28-3.84 1.28-7.68 5.12-7.68 3.84-1.28 7.68 1.28 7.68 5.12 7.68 34.56 3.84 67.84-7.68 98.56-39.68 98.56-35.84 108.8-17.92 148.48l3.84 7.68c10.24 21.76 5.12 43.52 1.28 66.56-6.4 30.72-12.8 66.56 11.52 116.48 46.08 94.72 6.4 234.24-30.72 257.28h-5.12zM578.56 185.6c-2.56 0-5.12-1.28-6.4-3.84-2.56-6.4-6.4-12.8-10.24-19.2-1.28-2.56-1.28-7.68 2.56-8.96 2.56-1.28 7.68-1.28 8.96 2.56 3.84 6.4 7.68 14.08 10.24 20.48 1.28 3.84 0 7.68-3.84 8.96 1.28-1.28 0 0-1.28 0z" fill="#231815" p-id="4895"></path></svg>