<?xml version="1.0" standalone="no"?><!DOCTYPE svg PUBLIC "-//W3C//DTD SVG 1.1//EN" "http://www.w3.org/Graphics/SVG/1.1/DTD/svg11.dtd"><svg t="1686993737446" viewBox="0 0 1024 1024" version="1.1" xmlns="http://www.w3.org/2000/svg" p-id="4598" xmlns:xlink="http://www.w3.org/1999/xlink" width="200" height="200"><path d="M874.24 797.44c-26.88 0-48.64-21.76-48.64-48.64 0-26.88 21.76-48.64 48.64-48.64 26.88 0 48.64 21.76 48.64 48.64 0 26.88-21.76 48.64-48.64 48.64z m0-70.4c-11.52 0-21.76 10.24-21.76 21.76 0 11.52 10.24 21.76 21.76 21.76 11.52 0 21.76-10.24 21.76-21.76 0-12.8-10.24-21.76-21.76-21.76zM216.32 816.64c-20.48 0-37.12-16.64-37.12-37.12s16.64-37.12 37.12-37.12c20.48 0 37.12 16.64 37.12 37.12s-16.64 37.12-37.12 37.12z m0-46.08c-5.12 0-10.24 5.12-10.24 10.24s5.12 10.24 10.24 10.24 10.24-5.12 10.24-10.24-3.84-10.24-10.24-10.24zM130.56 793.6c-20.48 0-37.12-16.64-37.12-37.12s16.64-37.12 37.12-37.12c20.48 0 37.12 16.64 37.12 37.12S151.04 793.6 130.56 793.6z m0-46.08c-5.12 0-10.24 5.12-10.24 10.24s5.12 10.24 10.24 10.24 10.24-5.12 10.24-10.24-3.84-10.24-10.24-10.24z" fill="#231815" p-id="4599"></path><path d="M279.04 335.36c-26.88 0-48.64-21.76-48.64-48.64s21.76-48.64 48.64-48.64 48.64 21.76 48.64 48.64-21.76 48.64-48.64 48.64z m0-70.4c-11.52 0-21.76 10.24-21.76 21.76s10.24 21.76 21.76 21.76 21.76-10.24 21.76-21.76-8.96-21.76-21.76-21.76zM650.24 271.36c-23.04 0-42.24-19.2-42.24-42.24s19.2-42.24 42.24-42.24c23.04 0 42.24 19.2 42.24 42.24s-19.2 42.24-42.24 42.24z m0-58.88c-8.96 0-16.64 7.68-16.64 16.64s7.68 16.64 16.64 16.64c8.96 0 16.64-7.68 16.64-16.64s-7.68-16.64-16.64-16.64zM739.84 350.72c-23.04 0-40.96-17.92-40.96-40.96 0-23.04 17.92-40.96 40.96-40.96s40.96 17.92 40.96 40.96c0 23.04-17.92 40.96-40.96 40.96z m0-55.04c-7.68 0-14.08 6.4-14.08 14.08 0 7.68 6.4 14.08 14.08 14.08s14.08-6.4 14.08-14.08c0-7.68-6.4-14.08-14.08-14.08zM419.84 285.44c-20.48 0-37.12-16.64-37.12-37.12s16.64-37.12 37.12-37.12c20.48 0 37.12 16.64 37.12 37.12s-16.64 37.12-37.12 37.12z m0-46.08c-5.12 0-10.24 5.12-10.24 10.24s5.12 10.24 10.24 10.24 10.24-5.12 10.24-10.24-3.84-10.24-10.24-10.24zM520.96 352c-20.48 0-37.12-16.64-37.12-37.12s16.64-37.12 37.12-37.12 37.12 16.64 37.12 37.12-17.92 37.12-37.12 37.12z m0-47.36c-5.12 0-10.24 5.12-10.24 10.24s5.12 10.24 10.24 10.24 10.24-5.12 10.24-10.24-5.12-10.24-10.24-10.24z" fill="#231815" p-id="4600"></path><path d="M677.12 838.4H346.88c-7.68 0-12.8-6.4-12.8-12.8v-38.4C176.64 715.52 76.8 560.64 76.8 387.84c0-7.68 6.4-12.8 12.8-12.8h844.8c7.68 0 12.8 6.4 12.8 12.8 0 172.8-101.12 327.68-257.28 398.08v38.4c0 7.68-6.4 14.08-12.8 14.08z m-316.16-26.88h303.36v-34.56c0-5.12 2.56-10.24 7.68-12.8C819.2 701.44 916.48 559.36 921.6 400.64H103.68c5.12 158.72 102.4 300.8 249.6 363.52 5.12 2.56 7.68 6.4 7.68 12.8v34.56z" fill="#231815" p-id="4601"></path><path d="M629.76 783.36H588.8c-3.84 0-6.4-2.56-6.4-6.4s2.56-6.4 6.4-6.4h37.12L652.8 729.6c1.28-1.28 1.28-2.56 2.56-2.56 96-40.96 170.24-120.32 204.8-218.88 1.28-3.84 5.12-5.12 8.96-3.84 3.84 1.28 5.12 5.12 3.84 8.96-34.56 101.12-111.36 184.32-209.92 226.56l-28.16 42.24c-1.28 0-3.84 1.28-5.12 1.28z" fill="#231815" p-id="4602"></path><path d="M552.96 783.36h-11.52c-3.84 0-6.4-2.56-6.4-6.4s2.56-6.4 6.4-6.4h11.52c3.84 0 6.4 2.56 6.4 6.4s-2.56 6.4-6.4 6.4z" fill="#231815" p-id="4603"></path></svg>