<?xml version="1.0" standalone="no"?><!DOCTYPE svg PUBLIC "-//W3C//DTD SVG 1.1//EN" "http://www.w3.org/Graphics/SVG/1.1/DTD/svg11.dtd"><svg t="1686993856671" viewBox="0 0 1024 1024" version="1.1" xmlns="http://www.w3.org/2000/svg" p-id="6778" xmlns:xlink="http://www.w3.org/1999/xlink" width="200" height="200"><path d="M483.84 613.12c-17.92-8.96-32-17.92-44.8-26.88-11.52 8.96-25.6 17.92-42.24 26.88l-16.64-25.6c-2.56 8.96-7.68 16.64-12.8 26.88l-30.72-20.48 2.56-3.84c-17.92 2.56-47.36 7.68-60.16 10.24l-1.28-39.68 23.04-2.56v-44.8h-14.08v-37.12h14.08v-39.68h-16.64v-37.12h69.12v37.12h-15.36v39.68h14.08v37.12h-14.08v38.4l7.68-1.28v25.6c11.52-25.6 14.08-46.08 14.08-103.68v-64h51.2v-21.76l38.4 1.28v20.48h46.08v37.12l-2.56 17.92H460.8l2.56-20.48H448V473.6h40.96v37.12c-6.4 19.2-12.8 34.56-23.04 48.64 11.52 7.68 24.32 12.8 39.68 17.92l-21.76 35.84z m-71.68-52.48c-7.68-8.96-14.08-17.92-19.2-29.44-1.28 16.64-3.84 30.72-8.96 44.8 11.52-5.12 20.48-8.96 28.16-15.36z m-19.2-51.2v12.8l26.88-12.8h-26.88z m1.28-65.28v30.72h17.92v-30.72h-17.92z m57.6 65.28h-32c5.12 10.24 10.24 20.48 17.92 28.16 6.4-8.96 11.52-17.92 14.08-28.16zM560.64 476.16h11.52v37.12h-11.52v40.96c3.84-1.28 7.68-1.28 10.24-1.28v38.4c-15.36 2.56-47.36 7.68-61.44 11.52l-3.84-38.4 21.76-3.84v-46.08h-12.8v-37.12h12.8V435.2H512v-38.4h60.16v38.4h-10.24v40.96z m170.24-44.8h-51.2l8.96 12.8c-3.84 2.56-8.96 5.12-14.08 8.96 6.4 2.56 11.52 5.12 14.08 7.68l-8.96 16.64h10.24v-38.4l29.44 1.28v65.28h-49.92l-3.84 8.96h58.88v75.52c0 19.2-3.84 21.76-24.32 23.04l-10.24 1.28-6.4-19.2-7.68 2.56-2.56-7.68-35.84 3.84c-7.68 1.28-16.64 2.56-17.92 2.56l-6.4-32c5.12-2.56 7.68-6.4 12.8-16.64l1.28-5.12h-17.92v69.12h-29.44v-98.56h53.76l2.56-10.24h-49.92v-65.28l30.72 1.28v38.4h8.96l-7.68-14.08c3.84-1.28 14.08-5.12 23.04-8.96-6.4-3.84-14.08-6.4-19.2-10.24l8.96-12.8h-48.64v-33.28h52.48l-7.68-11.52h43.52c1.28 2.56 2.56 7.68 3.84 11.52h56.32v33.28z m-56.32 46.08l-19.2-10.24c-6.4 3.84-14.08 7.68-21.76 10.24h40.96z m-1.28-46.08h-38.4c6.4 2.56 12.8 5.12 20.48 10.24 6.4-3.84 11.52-6.4 17.92-10.24z m21.76 112.64H652.8c-2.56 5.12-3.84 11.52-7.68 17.92l16.64-1.28-2.56-7.68 19.2-6.4c2.56 5.12 7.68 17.92 12.8 29.44 2.56-1.28 3.84-3.84 3.84-8.96v-23.04z" p-id="6779"></path><path d="M337.92 705.28c10.24 12.8 23.04 23.04 38.4 32l-6.4 10.24c-15.36-10.24-28.16-21.76-37.12-34.56v38.4h-10.24v-38.4c-8.96 12.8-20.48 21.76-37.12 34.56l-6.4-10.24c17.92-10.24 30.72-20.48 39.68-32h-34.56v-10.24h38.4v-15.36h-32v-10.24h32v-15.36h10.24v14.08h32v10.24H332.8v15.36h38.4v10.24h-33.28zM487.68 753.92c-19.2-3.84-34.56-7.68-46.08-12.8-11.52 5.12-25.6 10.24-44.8 14.08l-3.84-10.24c15.36-2.56 26.88-6.4 37.12-10.24-5.12-3.84-11.52-8.96-15.36-15.36l3.84-3.84h-7.68v-8.96H473.6v8.96c-6.4 7.68-12.8 14.08-21.76 19.2 10.24 3.84 23.04 6.4 38.4 8.96l-2.56 10.24z m-79.36-46.08h-10.24v-23.04h16.64c-2.56-3.84-5.12-10.24-7.68-12.8l5.12-2.56h-10.24l-1.28-8.96c21.76 0 58.88-2.56 78.08-5.12l2.56 10.24c-3.84 0-6.4 0-10.24 1.28l6.4 2.56c-2.56 5.12-6.4 10.24-8.96 15.36h16.64v23.04h-8.96v-12.8h-67.84v12.8z m10.24-37.12c2.56 3.84 5.12 8.96 7.68 11.52l-5.12 2.56h20.48c-2.56-3.84-5.12-11.52-7.68-14.08l5.12-2.56-20.48 2.56z m6.4 43.52c3.84 5.12 8.96 10.24 16.64 14.08 7.68-3.84 12.8-8.96 17.92-14.08h-34.56z m33.28-30.72c2.56-3.84 6.4-11.52 10.24-16.64l-24.32 1.28 6.4 12.8-5.12 3.84H460.8l-2.56-1.28zM529.92 705.28c-5.12-5.12-15.36-12.8-21.76-16.64l5.12-8.96c5.12 3.84 15.36 10.24 21.76 15.36l-5.12 10.24z m-16.64 42.24c3.84-7.68 12.8-28.16 15.36-35.84l10.24 3.84c-2.56 7.68-11.52 29.44-15.36 37.12l-10.24-5.12z m21.76-67.84c-5.12-5.12-14.08-11.52-19.2-15.36l5.12-8.96c5.12 3.84 15.36 10.24 19.2 14.08l-5.12 10.24z m25.6 16.64l-2.56 11.52h37.12c0 5.12-1.28 24.32-2.56 28.16-1.28 11.52-6.4 14.08-19.2 15.36l-10.24 1.28-3.84-10.24 11.52-1.28c7.68 0 10.24-1.28 10.24-7.68 1.28-3.84 1.28-10.24 1.28-14.08h-38.4l3.84-21.76H537.6v-10.24h66.56v10.24h-43.52z m37.12-24.32h-52.48v-10.24h52.48v10.24zM716.8 751.36c-17.92-6.4-29.44-14.08-38.4-21.76v24.32h-10.24V729.6c-8.96 8.96-21.76 15.36-39.68 21.76l-3.84-10.24c17.92-6.4 29.44-11.52 38.4-17.92H627.2v-10.24h39.68v-10.24h10.24v10.24h38.4v10.24h-34.56c10.24 7.68 23.04 14.08 39.68 19.2l-3.84 8.96z m-72.96-62.72c-3.84-2.56-14.08-8.96-17.92-10.24l3.84-8.96c3.84 1.28 14.08 7.68 17.92 10.24l-3.84 8.96z m-16.64 12.8c7.68-5.12 17.92-11.52 23.04-16.64l5.12 7.68c-5.12 5.12-14.08 11.52-23.04 16.64l-5.12-7.68z m24.32-26.88c-5.12-3.84-14.08-8.96-17.92-11.52l3.84-7.68c3.84 2.56 14.08 7.68 17.92 10.24l-3.84 8.96z m-2.56 23.04c12.8-6.4 16.64-11.52 19.2-20.48h-11.52v-10.24h12.8v-12.8h10.24v11.52h21.76v24.32c0 2.56 1.28 2.56 2.56 2.56h2.56c2.56 0 2.56-1.28 3.84-2.56 0-2.56 1.28-6.4 1.28-10.24l8.96 2.56c0 3.84 0 7.68-1.28 10.24-1.28 6.4-3.84 8.96-11.52 8.96h-6.4c-7.68 0-10.24-2.56-10.24-10.24v-16.64h-12.8c-2.56 14.08-8.96 21.76-23.04 29.44l-6.4-6.4z" p-id="6780"></path><path d="M842.24 625.92v216.32H181.76V582.4h64l-25.6-33.28-38.4-51.2-26.88-35.84-26.88 35.84-38.4 49.92-25.6 33.28h64v285.44c0 15.36 12.8 28.16 28.16 28.16h711.68c15.36 0 28.16-12.8 28.16-28.16v-243.2l-28.16 37.12-25.6-34.56zM896 462.08V156.16c0-15.36-12.8-28.16-28.16-28.16H156.16C140.8 128 128 140.8 128 156.16v263.68l26.88-35.84 26.88 35.84V181.76h410.88l112.64 153.6c5.12 7.68 14.08 11.52 21.76 11.52 5.12 0 11.52-1.28 16.64-5.12 11.52-8.96 14.08-25.6 5.12-38.4l-89.6-121.6h181.76v79.36l-32-44.8c-8.96-11.52-25.6-14.08-38.4-5.12-11.52 8.96-14.08 25.6-5.12 38.4l76.8 103.68v110.08h-64l25.6 33.28 38.4 51.2 26.88 34.56 28.16-37.12 37.12-49.92 25.6-33.28h-64z" p-id="6781"></path></svg>