<?xml version="1.0" standalone="no"?><!DOCTYPE svg PUBLIC "-//W3C//DTD SVG 1.1//EN" "http://www.w3.org/Graphics/SVG/1.1/DTD/svg11.dtd"><svg t="1689152098961" viewBox="0 0 1024 1024" version="1.1" xmlns="http://www.w3.org/2000/svg" p-id="57022" xmlns:xlink="http://www.w3.org/1999/xlink" width="200" height="200"><path d="M902 575.2c-8.3 0-15-6.7-15-15V351.4c0-48-39-87-87-87.1l-573.8-0.2c-23.3 0-45.1 9.1-61.6 25.5S139 327.9 139 351.2v209.1c0 8.3-6.7 15-15 15s-15-6.7-15-15V351.2c0-31.3 12.2-60.7 34.3-82.8 22.1-22.1 51.5-34.3 82.8-34.3l573.8 0.2c64.5 0 117 52.5 117 117.1v208.9c0.1 8.2-6.6 14.9-14.9 14.9z" fill="" p-id="57023"></path><path d="M979.8 802.7c-8.3 0-15-6.7-15-15V631.4c0-31-25.2-56.2-56.2-56.2H117.4c-31 0-56.2 25.2-56.2 56.2v156.3c0 8.3-6.7 15-15 15s-15-6.7-15-15V631.4c0-47.5 38.7-86.2 86.2-86.2h791.2c47.5 0 86.2 38.7 86.2 86.2v156.3c0 8.3-6.7 15-15 15zM204.1 868c-8.3 0-15-6.7-15-15v-28.4c0-8.3 6.7-15 15-15s15 6.7 15 15V853c0 8.3-6.8 15-15 15zM821.9 868c-8.3 0-15-6.7-15-15v-28.4c0-8.3 6.7-15 15-15s15 6.7 15 15V853c0 8.3-6.7 15-15 15z" fill="" p-id="57024"></path><path d="M333.8 576.2h-0.2l-105.8-1.4c-5-0.1-9.6-2.6-12.3-6.7-2.7-4.1-3.3-9.4-1.4-14l4.7-11.4c17.9-43.8 16.4-109.6-3.3-149.7l-0.3-0.7c-2.5-5-1.9-11 1.3-15.5 3.3-4.5 8.8-6.8 14.3-6l72.3 10.7c26.9 4 54.1 4 81 0l73.3-10.8c5.5-0.8 11 1.5 14.3 6 3.3 4.5 3.8 10.5 1.3 15.5-19.9 40.5-21.2 106.6-3 150.4l4.7 11.3c1.9 4.6 1.4 9.9-1.3 14-2.7 4.2-7.4 6.7-12.4 6.7L334 576c-0.1 0.2-0.1 0.2-0.2 0.2zM249.9 545l83.9 1.1 105-1.2c-14.7-42.4-15.3-97.4-2.5-140.8l-47.9 7c-29.8 4.4-60 4.4-89.7-0.1l-46.8-6.9c13 43.4 12.5 98.5-2 140.9zM683.8 575.2l-117.9-0.5c-5 0-9.6-2.5-12.4-6.7-2.8-4.1-3.3-9.4-1.4-14l4.7-11.4c17.9-43.8 16.4-109.6-3.3-149.7l-0.3-0.7c-2.5-5-1.9-11 1.3-15.5 3.3-4.5 8.8-6.8 14.3-6l72.3 10.7c26.9 4 54.1 4 81 0l73.2-10.7c5.5-0.8 11 1.5 14.3 6 3.3 4.5 3.8 10.5 1.3 15.5-19.9 40.5-21.2 106.6-3 150.4l4.7 11.3c1.9 4.6 1.4 9.9-1.4 14.1s-7.4 6.7-12.4 6.7l-115 0.5z m-95.9-30.4l95.9 0.4 92.9-0.4c-14.7-42.4-15.3-97.3-2.4-140.6l-47.9 7c-29.8 4.4-60 4.4-89.7-0.1l-46.8-6.9c12.9 43.2 12.5 98.2-2 140.6zM904.3 790.6H124c-8.3 0-15-6.7-15-15s6.7-15 15-15h780.3c8.3 0 15 6.7 15 15s-6.7 15-15 15z" fill="" p-id="57025"></path></svg>