<?xml version="1.0" standalone="no"?><!DOCTYPE svg PUBLIC "-//W3C//DTD SVG 1.1//EN" "http://www.w3.org/Graphics/SVG/1.1/DTD/svg11.dtd"><svg t="1689152119195" viewBox="0 0 1024 1024" version="1.1" xmlns="http://www.w3.org/2000/svg" p-id="57467" xmlns:xlink="http://www.w3.org/1999/xlink" width="200" height="200"><path d="M894.7 212.5c-40.3 0-73.1 32.8-73.1 73.1v106.8c-8.8-4.3-18.3-6.8-28.4-6.8h-74.6c-21.6 0-41.4 10.9-53.4 27.9-12.6-16.9-32.5-27.9-55.1-27.9H184.4c-38 0-68.9 30.9-68.9 69v1.4c0 13.3 4 26.2 11 37.2-34.4 5.3-60.9 35-60.9 70.9 0 14.9 4.8 29.3 13.3 41.3H59.5v202.1h83.6l55-122.3h627.3l46.8 126.4h95.6v-526c0.1-40.3-32.7-73.1-73.1-73.1z m47.4 418.6v28.2H85.4v-28.2h856.7z m-263.9-186l1.7-3.9c0.7-1.7 1.4-3.2 1.5-3.6 5.7-15.6 20.6-26.1 37.2-26.1h74.6c10.5 0 20.4 4.1 27.9 11.6l0.5-0.5v69.6H668.7c6.7-10.7 10.4-23.2 10.4-36.3v-1.4c0-3.3-0.5-6.4-1-9.5l0.1 0.1z m-536.9 9.5c0-23.8 19.3-43.1 43.1-43.1h425.7c23.8 0 43.1 19.4 43.1 43.1v1.4c0 13.5-6.2 25.9-17 34.2-1 0.8-2.1 1.4-3.1 2.1H161c-0.8-0.5-1.6-1.1-2.4-1.7-10.9-8.2-17.5-21.1-17.5-34.6v-1.4zM91.4 564c0-25.4 20.6-46 46-46h684.2v87.3H107l3.2-4.3c-11.7-8.7-18.8-22.6-18.8-37z m35.1 217.7H85.4v-96.5h84.5l-43.4 96.5z m815.6 4h-51.8L853 685.2h89v100.5z m-94.7-180.4V285.6c0-26.1 21.2-47.3 47.3-47.3s47.3 21.2 47.3 47.3v319.7h-94.6z" fill="#231815" p-id="57468"></path></svg>