<?xml version="1.0" standalone="no"?><!DOCTYPE svg PUBLIC "-//W3C//DTD SVG 1.1//EN" "http://www.w3.org/Graphics/SVG/1.1/DTD/svg11.dtd"><svg t="1689150924966" viewBox="0 0 1024 1024" version="1.1" xmlns="http://www.w3.org/2000/svg" p-id="19591" xmlns:xlink="http://www.w3.org/1999/xlink" width="200" height="200"><path d="M318.7 955.2c-11 0-20-9-20-20v-848c0-11 9-20 20-20s20 9 20 20v848c0 11.1-9 20-20 20z" p-id="19592"></path><path d="M851.7 185.6h-602c-11 0-20-9-20-20s9-20 20-20h602c11 0 20 9 20 20s-9 20-20 20zM403.6 956.2H227c-11 0-20-9-20-20s9-20 20-20h176.6c11 0 20 9 20 20s-9 20-20 20z" p-id="19593"></path><path d="M682.4 151.3h40v131h-40z" p-id="19594"></path><path d="M810.6 494.2H594.4c-13.4 0-24.3-10.9-24.3-24.3v-69.6c0-73 59.4-132.4 132.4-132.4s132.4 59.4 132.4 132.4v69.6c0 13.4-10.9 24.3-24.3 24.3z m-200.5-40h184.8v-53.9c0-50.9-41.4-92.4-92.4-92.4s-92.4 41.4-92.4 92.4v53.9z" p-id="19595"></path></svg>