<?xml version="1.0" standalone="no"?><!DOCTYPE svg PUBLIC "-//W3C//DTD SVG 1.1//EN" "http://www.w3.org/Graphics/SVG/1.1/DTD/svg11.dtd"><svg t="1689150789207" viewBox="0 0 1310 1024" version="1.1" xmlns="http://www.w3.org/2000/svg" p-id="15373" xmlns:xlink="http://www.w3.org/1999/xlink" width="255.859375" height="200"><path d="M1264.3001 916.64046H45.774805a45.774805 45.774805 0 0 1-45.774805-45.774804V45.774805a45.774805 45.774805 0 0 1 45.774805-45.774805h1218.525295a45.774805 45.774805 0 0 1 45.774805 45.774805v825.090851a45.774805 45.774805 0 0 1-45.774805 45.774804zM45.774805 22.887402a22.887402 22.887402 0 0 0-22.887403 22.887403v825.090851a22.887402 22.887402 0 0 0 22.887403 22.887402h1218.525295a22.887402 22.887402 0 0 0 22.887403-22.887402V45.774805a22.887402 22.887402 0 0 0-22.887403-22.887403z" fill="" p-id="15374"></path><path d="M728.734888 1023.982377h-142.130768a36.848718 36.848718 0 0 1-34.10223-20.369788 30.897993 30.897993 0 0 1 4.119733-33.186734l71.637569-66.144592a40.96845 40.96845 0 0 1 59.278372 0l70.035451 64.3136a30.897993 30.897993 0 0 1 5.264102 34.331104 36.848718 36.848718 0 0 1-34.102229 21.05641z m-70.950947-109.859531a16.250056 16.250056 0 0 0-12.359198 5.264102 2.746488 2.746488 0 0 1-1.14437 0l-70.950947 65.686845a7.781717 7.781717 0 0 0 0 7.552843 14.190189 14.190189 0 0 0 13.503568 7.323968h142.130768a14.190189 14.190189 0 0 0 13.503567-7.323968 7.323969 7.323969 0 0 0-1.373244-8.697213l-68.662207-64.542475a17.6233 17.6233 0 0 0-14.647937-5.264102z m-21.05641-2.059866z" fill="" p-id="15375"></path></svg>