<?xml version="1.0" standalone="no"?><!DOCTYPE svg PUBLIC "-//W3C//DTD SVG 1.1//EN" "http://www.w3.org/Graphics/SVG/1.1/DTD/svg11.dtd"><svg t="1689150821474" viewBox="0 0 1024 1024" version="1.1" xmlns="http://www.w3.org/2000/svg" p-id="16004" xmlns:xlink="http://www.w3.org/1999/xlink" width="200" height="200"><path d="M957.139029 222.651047H668.057444L912.641864 40.162672c9.899369-7.399529 11.899242-21.298643 4.499713-31.198013C909.742048-0.93471 895.842934-2.934583 885.943564 4.464946L599.161833 218.551308 202.087127 2.765054c-10.799312-5.899624-24.298452-1.899879-30.198077 8.899433-5.899624 10.799312-1.899879 24.398446 8.899434 30.198076l332.578814 180.788484H66.795745C29.998089 222.651047 0 252.649136 0 289.446792v667.757463C0 994.001911 29.998089 1024 66.795745 1024h890.343284c36.797656 0 66.795745-29.998089 66.795745-66.795745V289.446792c0-36.797656-29.998089-66.795745-66.795745-66.795745z m22.29858 734.553208c0 12.299217-9.999363 22.29858-22.29858 22.29858H66.795745c-12.299217 0-22.29858-9.999363-22.29858-22.29858V289.446792c0-12.299217 9.999363-22.29858 22.29858-22.29858h890.343284c12.299217 0 22.29858 9.999363 22.29858 22.29858v667.757463z" fill="" p-id="16005"></path><path d="M623.260298 378.441123H178.088656c-36.797656 0-66.795745 29.998089-66.795745 66.795745v356.177311c0 36.797656 29.998089 66.795745 66.795745 66.795745h445.171642c36.797656 0 66.795745-29.998089 66.795745-66.795745V445.236868c0-36.797656-29.998089-66.795745-66.795745-66.795745z m22.298579 422.973056c0 12.299217-9.999363 22.29858-22.298579 22.29858H178.088656c-12.299217 0-22.29858-9.999363-22.29858-22.29858V445.236868c0-12.299217 9.999363-22.29858 22.29858-22.29858h445.171642c12.299217 0 22.29858 9.999363 22.298579 22.29858v356.177311zM845.846119 378.441123c-49.096872 0-88.994331 39.897458-88.994331 88.994331s39.897458 88.994331 88.994331 88.994331 88.994331-39.897458 88.994331-88.994331-39.897458-88.994331-88.994331-88.994331z m0 133.59149c-24.498439 0-44.497165-19.998726-44.497166-44.497166s19.998726-44.497165 44.497166-44.497165 44.497165 19.998726 44.497165 44.497165-19.898732 44.497165-44.497165 44.497166zM845.846119 690.121268c-49.096872 0-88.994331 39.897458-88.994331 88.994331s39.897458 88.994331 88.994331 88.994331 88.994331-39.897458 88.994331-88.994331c0.099994-49.096872-39.897458-88.994331-88.994331-88.994331z m0 133.591491c-24.498439 0-44.497165-19.998726-44.497166-44.497166s19.998726-44.497165 44.497166-44.497165 44.497165 19.998726 44.497165 44.497165-19.898732 44.497165-44.497165 44.497166z" fill="" p-id="16006"></path></svg>