<?xml version="1.0" standalone="no"?><!DOCTYPE svg PUBLIC "-//W3C//DTD SVG 1.1//EN" "http://www.w3.org/Graphics/SVG/1.1/DTD/svg11.dtd"><svg t="1689150983873" viewBox="0 0 1024 1024" version="1.1" xmlns="http://www.w3.org/2000/svg" p-id="21988" xmlns:xlink="http://www.w3.org/1999/xlink" width="200" height="200"><path d="M229.12 285.44h204.8v38.4h-204.8zM229.12 424.96h152.32v38.4H229.12zM229.12 701.44h204.8v38.4h-204.8zM229.12 563.2h152.32v38.4H229.12z" fill="#2c2c2c" p-id="21989"></path><path d="M560.64 788.48c-14.08 0-28.16-3.84-39.68-11.52-16.64-11.52-29.44-28.16-32-48.64-12.8-69.12-19.2-142.08-19.2-216.32 0-74.24 6.4-147.2 19.2-216.32 3.84-20.48 15.36-38.4 32-48.64 16.64-11.52 37.12-15.36 57.6-10.24 126.72 30.72 216.32 143.36 216.32 275.2 0 130.56-88.32 244.48-216.32 275.2-6.4 1.28-11.52 1.28-17.92 1.28z m0-514.56c-6.4 0-14.08 2.56-19.2 6.4-8.96 5.12-14.08 14.08-15.36 24.32-11.52 66.56-17.92 136.96-17.92 208.64 0 71.68 6.4 142.08 17.92 208.64 1.28 10.24 7.68 17.92 15.36 24.32 7.68 5.12 17.92 7.68 28.16 5.12 110.08-26.88 186.88-124.16 186.88-236.8 0-113.92-76.8-211.2-186.88-238.08-3.84-2.56-6.4-2.56-8.96-2.56z" fill="#2c2c2c" p-id="21990"></path></svg>