<?xml version="1.0" standalone="no"?><!DOCTYPE svg PUBLIC "-//W3C//DTD SVG 1.1//EN" "http://www.w3.org/Graphics/SVG/1.1/DTD/svg11.dtd"><svg t="1689151316574" viewBox="0 0 1024 1024" version="1.1" xmlns="http://www.w3.org/2000/svg" p-id="37715" xmlns:xlink="http://www.w3.org/1999/xlink" width="200" height="200"><path d="M914.3 355.4c-19.5 0-37.6 6-52.6 16.1v-3.8c0-11.4-9.3-20.7-20.7-20.7H182.6c-11.4 0-20.7 9.3-20.7 20.7v3.6c-14.9-10-32.9-15.9-52.2-15.9-51.8 0-94 42.1-94 94 0 11.4 9.3 20.7 20.7 20.7s20.7-9.3 20.7-20.7c0-29 23.6-52.5 52.6-52.5 27.8 0 50.4 21.7 52.2 49v289.7c0 11.4 9.3 20.7 20.7 20.7h658.5c11.4 0 20.7-9.3 20.7-20.7V449.3c0-29 23.6-52.5 52.6-52.5s52.5 23.6 52.5 52.5c0 11.4 9.3 20.7 20.7 20.7 11.4 0 20.7-9.3 20.7-20.7 0-51.8-42.1-93.9-94-93.9z m-93.9 359.4H203.3V451.1c0.1-0.6 0.4-1.1 0.4-1.7 0-1.2-0.3-2.3-0.4-3.5v-57.5h617.1v326.4zM731.3 810.8c-46.2 0-86.6 24.3-109.8 60.5-23.2-36.3-63.6-60.5-109.7-60.5s-86.5 24.3-109.7 60.5c-23.2-36.3-63.6-60.5-109.7-60.5-71.9 0-130.4 58.6-130.4 130.5 0 11.4 9.3 20.7 20.7 20.7 11.4 0 20.7-9.3 20.7-20.7 0-49.1 39.9-89.1 89-89.1s89 39.9 89 89.1c0 11.4 9.3 20.7 20.7 20.7 11.4 0 20.7-9.3 20.7-20.7 0-49.1 39.9-89.1 89-89.1s89 39.9 89 89.1c0 11.4 9.3 20.7 20.7 20.7 11.4 0 20.7-9.3 20.7-20.7 0-49.1 39.9-89.1 89.1-89.1 49.1 0 89 39.9 89 89.1 0 11.4 9.3 20.7 20.7 20.7 11.4 0 20.7-9.3 20.7-20.7 0.1-71.9-58.4-130.5-130.4-130.5zM153.1 313h717.5c7.7 0 14.7-4.2 18.3-11 3.6-6.8 3.2-14.9-1.1-21.3-2.9-4.3-71.8-102.8-255.6-135.1C625.3 98.7 574.3 62 511.8 62c-62.5 0-113.5 36.7-120.3 83.6-183.9 32.3-252.7 130.8-255.6 135.1-4.3 6.4-4.7 14.5-1.1 21.3 3.6 6.7 10.6 11 18.3 11z m358.7-209.6c34.6 0 64.9 15.2 75.9 35.8-24.7-2.6-50.1-3.9-75.9-3.9-25.8 0-51.2 1.3-75.9 3.9 11-20.6 41.3-35.8 75.9-35.8z m-97.4 80.1c62.3-9.1 132.7-9.1 194.9 0 110 16.2 177.2 58.2 212.6 88H201.8c35.4-29.8 102.6-71.8 212.6-88z" fill="" p-id="37716"></path></svg>