<?xml version="1.0" standalone="no"?><!DOCTYPE svg PUBLIC "-//W3C//DTD SVG 1.1//EN" "http://www.w3.org/Graphics/SVG/1.1/DTD/svg11.dtd"><svg t="1689151861487" viewBox="0 0 1024 1024" version="1.1" xmlns="http://www.w3.org/2000/svg" p-id="48484" xmlns:xlink="http://www.w3.org/1999/xlink" width="200" height="200"><path d="M505.790518 477.189269c-4.139655 0-7.526645-3.38699-7.526644-7.526645V106.878354c0-4.139655 3.38699-7.526645 7.526644-7.526645s7.526645 3.38699 7.526645 7.526645v362.78427c0 4.139655-3.38699 7.526645-7.526645 7.526645z" fill="#2c2c2c" p-id="48485"></path><path d="M842.231533 727.07387c-4.139655 0-7.526645-3.38699-7.526645-7.526645 0-133.597942-147.522234-242.357957-328.91437-242.357956S176.876148 585.949283 176.876148 719.547225c0 4.139655-3.38699 7.526645-7.526644 7.526645s-7.526645-3.38699-7.526645-7.526645c0-141.877251 154.296215-257.411246 343.967659-257.411246s343.967659 115.533995 343.967659 257.411246c0 4.139655-3.38699 7.526645-7.526644 7.526645z" fill="#2c2c2c" p-id="48486"></path><path d="M505.790518 779.007718c-51.933848 0-94.45939-62.847483-94.45939-140.371922s42.525542-140.371922 94.45939-140.371922 94.45939 62.847483 94.45939 140.371922-42.525542 140.371922-94.45939 140.371922z m0-265.690555c-43.654539 0-79.406101 56.073502-79.406101 125.318633s35.751562 125.318633 79.406101 125.318633c43.654539 0 79.406101-56.073502 79.406101-125.318633 0-68.868798-35.751562-125.318633-79.406101-125.318633zM277.733186 852.016171c-1.881661 0-4.139655-0.752664-5.644983-2.257994-3.010658-3.010658-2.634326-7.902977 0.376332-10.537302l68.492466-65.105476c3.010658-3.010658 7.902977-2.634326 10.537303 0.376332s2.634326 7.902977-0.376333 10.537302l-68.492466 65.105476c-1.128997 1.128997-3.010658 1.881661-4.892319 1.881662zM733.84785 852.016171c-1.881661 0-3.763322-0.752664-5.268651-2.257994l-68.116134-65.105476c-3.010658-3.010658-3.010658-7.526645-0.376332-10.537302 3.010658-3.010658 7.526645-3.010658 10.537302-0.376332l68.116134 65.105475c3.010658 3.010658 3.010658 7.526645 0.376332 10.537303-1.128997 1.881661-3.38699 2.634326-5.268651 2.634326zM504.661521 915.239985c-4.139655 0-7.526645-3.38699-7.526644-7.526644l-1.505329-94.45939c0-4.139655 3.38699-7.526645 7.526645-7.526645s7.526645 3.38699 7.526644 7.526645l1.505329 94.45939c0 4.139655-3.38699 7.526645-7.526645 7.526644z" fill="#2c2c2c" p-id="48487"></path></svg>