<?xml version="1.0" standalone="no"?><!DOCTYPE svg PUBLIC "-//W3C//DTD SVG 1.1//EN" "http://www.w3.org/Graphics/SVG/1.1/DTD/svg11.dtd"><svg t="1689151828436" viewBox="0 0 1024 1024" version="1.1" xmlns="http://www.w3.org/2000/svg" p-id="47063" xmlns:xlink="http://www.w3.org/1999/xlink" width="200" height="200"><path d="M518.1 264.85a10 10 0 0 1-10-10V145.42a10 10 0 1 1 20 0v109.43a10 10 0 0 1-10 10z" fill="#2c2c2c" p-id="47064"></path><path d="M650.53 752.05h-42a10 10 0 0 1 0-20h35.89a111.53 111.53 0 0 0 9.37-34.4c3.38-31.36-5.95-61.79-27.74-90.46-3.65-4.81-7.71-10-12-15.5-32.7-41.83-77.48-99.12-77.48-153.95V294.58a17.73 17.73 0 0 0-35.47 0v143.16c0 54.82-44.78 112.11-77.48 153.94-4.3 5.5-8.36 10.7-12 15.51-43.77 57.59-25.62 109.28-18.38 124.86h46.39a10 10 0 1 1 0 20h-52.47a10 10 0 0 1-8.52-4.77c-0.46-0.75-11.31-18.69-14.53-46.43-2.95-25.42 0.14-64.4 31.58-105.77 3.73-4.91 7.84-10.16 12.18-15.72 30.91-39.54 73.24-93.69 73.24-141.63V294.58a37.73 37.73 0 0 1 75.47 0v143.16c0 47.94 42.33 102.09 73.24 141.63 4.34 5.56 8.45 10.81 12.18 15.72 31.44 41.37 34.53 80.35 31.58 105.77-3.22 27.74-14.07 45.68-14.53 46.43a10 10 0 0 1-8.52 4.76z" fill="#2c2c2c" p-id="47065"></path><path d="M522.59 761.29a58.57 58.57 0 0 1-58.5-58.5 5 5 0 0 1 10 0 48.5 48.5 0 0 0 97 0 5 5 0 0 1 10 0 58.57 58.57 0 0 1-58.5 58.5z" fill="#2c2c2c" p-id="47066"></path><path d="M518.1 901.9a10 10 0 0 1-10-10v-58.2a10 10 0 0 1 20 0v58.2a10 10 0 0 1-10 10zM399.1 863.75a10 10 0 0 1-7.1-17.08l41.16-41.16a10 10 0 0 1 14.14 14.14l-41.16 41.16a10 10 0 0 1-7.04 2.94zM637.1 863.75a10 10 0 0 1-7.07-2.93l-41.16-41.16A10 10 0 0 1 603 805.52l41.16 41.16a10 10 0 0 1-7.07 17.07z" fill="#2c2c2c" p-id="47067"></path></svg>