<?xml version="1.0" standalone="no"?><!DOCTYPE svg PUBLIC "-//W3C//DTD SVG 1.1//EN" "http://www.w3.org/Graphics/SVG/1.1/DTD/svg11.dtd"><svg t="1689150767502" viewBox="0 0 1024 1024" version="1.1" xmlns="http://www.w3.org/2000/svg" p-id="13937" xmlns:xlink="http://www.w3.org/1999/xlink" width="200" height="200"><path d="M975.453142 299.560456H108.383682c-6.021316 0-11.289967-5.268651-11.289966-11.289967V188.91878c0-6.021316 5.268651-11.289967 11.289966-11.289967h867.06946c6.397648 0 11.289967 4.892319 11.289967 11.289967v98.975377c0 6.77398-4.892319 11.666299-11.289967 11.666299z m-863.306137-15.05329h859.542815V192.682102H112.147005v91.825064z" fill="#2c2c2c" p-id="13938"></path><path d="M147.145902 972.818817c-4.139655 0-7.526645-3.38699-7.526644-7.526645V299.936788c0-4.139655 3.38699-7.526645 7.526644-7.526645s7.526645 3.38699 7.526645 7.526645v665.355384c0 4.139655-3.38699 7.526645-7.526645 7.526645zM932.9276 970.937155c-4.139655 0-7.526645-3.38699-7.526644-7.526644V301.818449c0-4.139655 3.38699-7.526645 7.526644-7.526645s7.526645 3.38699 7.526645 7.526645V963.410511c0 4.139655-3.38699 7.526645-7.526645 7.526644zM884.757075 406.062477h-269.83021c-6.397648 0-11.289967-4.892319-11.289967-11.289967v-56.449835c0-6.397648 4.892319-11.289967 11.289967-11.289966h269.83021c6.397648 0 11.289967 4.892319 11.289967 11.289966v56.449835c0 6.397648-4.892319 11.289967-11.289967 11.289967z m-266.066888-15.053289h262.303565v-48.92319h-262.303565v48.92319z" fill="#2c2c2c" p-id="13939"></path><path d="M760.567438 374.074237h-21.074604c-4.139655 0-7.526645-3.38699-7.526645-7.526644s3.38699-7.526645 7.526645-7.526645h21.074604c4.139655 0 7.526645 3.38699 7.526645 7.526645s-3.38699 7.526645-7.526645 7.526644zM884.757075 502.027196h-269.83021c-6.397648 0-11.289967-4.892319-11.289967-11.289967v-56.449835c0-6.397648 4.892319-11.289967 11.289967-11.289967h269.83021c6.397648 0 11.289967 4.892319 11.289967 11.289967v56.449835c0 6.397648-4.892319 11.289967-11.289967 11.289967z m-266.066888-15.053289h262.303565v-48.92319h-262.303565v48.92319z" fill="#2c2c2c" p-id="13940"></path><path d="M760.567438 470.038956h-21.074604c-4.139655 0-7.526645-3.38699-7.526645-7.526644s3.38699-7.526645 7.526645-7.526645h21.074604c4.139655 0 7.526645 3.38699 7.526645 7.526645s-3.38699 7.526645-7.526645 7.526644zM884.757075 597.991915h-269.83021c-6.397648 0-11.289967-4.892319-11.289967-11.289967v-56.449835c0-6.397648 4.892319-11.289967 11.289967-11.289967h269.83021c6.397648 0 11.289967 4.892319 11.289967 11.289967v56.449835c0 6.397648-4.892319 11.289967-11.289967 11.289967z m-266.066888-15.053289h262.303565v-48.92319h-262.303565v48.92319z" fill="#2c2c2c" p-id="13941"></path><path d="M760.567438 566.003675h-21.074604c-4.139655 0-7.526645-3.38699-7.526645-7.526644s3.38699-7.526645 7.526645-7.526645h21.074604c4.139655 0 7.526645 3.38699 7.526645 7.526645s-3.38699 7.526645-7.526645 7.526644z" fill="#2c2c2c" p-id="13942"></path></svg>