<?xml version="1.0" standalone="no"?><!DOCTYPE svg PUBLIC "-//W3C//DTD SVG 1.1//EN" "http://www.w3.org/Graphics/SVG/1.1/DTD/svg11.dtd"><svg t="1689151843143" viewBox="0 0 1024 1024" version="1.1" xmlns="http://www.w3.org/2000/svg" p-id="47935" xmlns:xlink="http://www.w3.org/1999/xlink" width="200" height="200"><path d="M 174.293 195.466 c -4.16 0 -8 -1.6 -10.9867 -4.37333 l -0.106667 -0.106667 l -57.92 -56.4267 c -3.52 -3.30667 -4.58667 -8.32 -2.77333 -12.8 c 1.81333 -4.48 6.08 -7.36 10.88 -7.36 h 795.733 c 4.69333 0 8.96 2.88 10.7733 7.25333 c 1.81333 4.37333 0.853333 9.38663 -2.56 12.6933 l -0.106667 0.106667 l -57.3867 55.2533 c -2.98667 2.98667 -7.14667 4.69333 -11.4133 4.69333 l -674.133 1.06667 Z M 172.8 181.066 c 0.426667 0.426667 0.96 0.533333 1.49333 0.64 l 674.133 -1.06667 c 0.64 0 1.17333 -0.213333 1.6 -0.64 l 0.106667 -0.106667 l 53.44 -51.52 H 118.72 L 172.8 181.066 Z" fill="#2c2c2c" p-id="47936"></path><path d="M 282.347 156.139 l 13.8667 -0.0586667 l 0.858667 201.28 l -13.8667 0.0586667 Z" fill="#2c2c2c" p-id="47937"></path><path d="M 289.92 675.466 c -12.9067 0 -77.12 -1.17333 -77.12 -23.4667 c 0 -1.6 0.32 -3.2 1.06667 -4.69333 L 272 435.893 l -25.8133 -86.6133 l 87.7867 -0.533333 l -24.96 86.72 l 57.3867 211.84 c 0.64 1.49333 1.06667 3.09333 1.06667 4.69333 c 0 22.2933 -64.5333 23.4667 -77.5467 23.4667 Z M 227.093 651.466 c 4.69333 3.84 26.3467 10.1333 62.8267 10.1333 c 36.6933 0 58.4533 -6.29333 63.2533 -10.1333 l -58.56 -216.107 l 20.9067 -72.64 l -50.7733 0.32 l 21.6533 72.7467 L 227.093 651.466 Z" fill="#2c2c2c" p-id="47938"></path><path d="M 289.92 675.466 c -12.9067 0 -77.12 -1.17333 -77.12 -23.4667 s 64.32 -23.4667 77.12 -23.4667 c 12.9067 0 77.5467 1.17333 77.5467 23.4667 s -64.5333 23.4667 -77.5467 23.4667 Z m -62.08 -23.4667 c 5.97333 3.84 27.2 9.6 62.1867 9.6 s 56.4267 -5.76 62.5067 -9.6 c -6.08 -3.84 -27.52 -9.6 -62.5067 -9.6 c -34.9867 -0.106667 -56.2133 5.76 -62.1867 9.6 Z" fill="#2c2c2c" p-id="47939"></path><path d="M 289.92 654.773 c -17.28 0 -37.12 -4.8 -39.8933 -15.2533 l -1.17333 -4.58667 l 4.69333 -0.64 c 11.0933 -1.6 23.7867 -2.45333 36.6933 -2.45333 c 12.5867 0 25.0667 0.746667 35.9467 2.24 l 4.69333 0.64 l -1.06667 4.58667 c -2.45333 10.56 -22.4 15.4667 -39.8933 15.4667 Z m -26.3467 -13.2267 c 5.22667 2.45333 14.1867 4.69333 26.3467 4.69333 c 12.16 0 21.12 -2.24 26.4533 -4.69333 c -8.21333 -0.746667 -17.0667 -1.17333 -26.0267 -1.17333 c -9.28 -0.106667 -18.3467 0.32 -26.7733 1.17333 Z" fill="#2c2c2c" p-id="47940"></path><path d="M 270.933 155.253 l 17.1733 -12.2667 l 16.7467 11.7333 l -15.36 12.2667 Z" fill="#2c2c2c" p-id="47941"></path><path d="M 310.4 154.613 l -21.2267 15.36 l -22.08 -14.5067 l 20.9067 -15.36 l 22.4 14.5067 Z m -21.12 9.49331 l 11.6267 -9.28 l -12.6933 -8.85333 l -11.6267 9.28 l 12.6933 8.85333 Z" fill="#2c2c2c" p-id="47942"></path><path d="M 497.605 159.232 l 13.8667 -0.0586667 l 1.06667 252.907 l -13.8667 0.0586667 Z" fill="#2c2c2c" p-id="47943"></path><path d="M 505.387 809.866 c -9.6 0 -94.1869 -0.746667 -94.1869 -27.7333 c 0 -1.81333 0.426667 -3.52 1.17333 -5.22667 L 484.8 510.667 L 453.333 403.573 l 104.533 -0.64 l -30.6133 107.2 l 71.4667 266.88 c 0.746667 1.70667 1.17333 3.41333 1.17333 5.22667 c 0 9.49331 -10.1333 16.5333 -31.1467 21.44 c -16.96 3.94667 -39.5733 6.18667 -63.36 6.18667 Z m -80 -27.84 c 1.6 1.70667 7.78667 5.54667 23.4667 8.85333 c 15.5733 3.30667 35.6267 5.12 56.5333 5.12 c 21.0133 0 41.0667 -1.81333 56.7467 -5.12 c 15.7867 -3.30667 22.08 -7.14667 23.68 -8.85333 l -0.213333 -0.853333 l -72.7467 -271.253 l 26.56 -93.0133 l -67.6267 0.426667 l 27.4133 93.12 l -73.8133 271.573 Z" fill="#2c2c2c" p-id="47944"></path><path d="M 505.387 809.866 c -9.6 0 -94.1869 -0.746667 -94.1869 -27.7333 s 84.5867 -27.7333 94.1869 -27.7333 c 23.8933 0 46.4 2.24 63.4667 6.29333 c 20.9067 4.90667 31.1467 11.9467 31.1467 21.44 c 0 9.49331 -10.1333 16.5333 -31.1467 21.44 c -17.0667 4.05333 -39.68 6.29333 -63.4667 6.29333 Z m -80 -27.7333 c 1.70667 1.81333 8 5.44 23.36 8.74667 c 15.5733 3.30667 35.6267 5.12 56.5333 5.12 c 21.0133 0 41.0667 -1.81333 56.7467 -5.12 c 15.4667 -3.30667 21.76 -6.93333 23.5733 -8.74667 c -1.81333 -1.81333 -8.10667 -5.54667 -23.5733 -8.74667 c -15.68 -3.30667 -35.7333 -5.12 -56.7467 -5.12 c -20.9067 0 -41.0667 1.81333 -56.5333 5.12 c -15.36 3.2 -21.5467 6.93333 -23.36 8.74667 Z" fill="#2c2c2c" p-id="47945"></path><path d="M 505.387 784.587 c -21.12 0 -45.3333 -5.76 -48.5333 -18.4533 l -1.17333 -4.58667 l 4.69333 -0.64 c 13.76 -1.92 29.44 -2.98667 45.44 -2.98667 c 15.68 0 31.04 0.96 44.5867 2.88 l 4.58667 0.64 l -1.06667 4.58667 c -2.98667 12.6933 -27.2 18.56 -48.5333 18.56 Z m -36.2667 -16.2133 c 6.08 3.94667 18.88 7.68 36.2667 7.68 c 17.6 0 30.4 -3.84 36.48 -7.78667 c -11.2 -1.17333 -23.5733 -1.81333 -35.9467 -1.81333 c -12.9067 -0.106667 -25.3867 0.64 -36.8 1.92 Z" fill="#2c2c2c" p-id="47946"></path><path d="M 481.707 158.026 l 21.3333 -15.36 l 20.8 14.72 l -19.0933 15.36 Z" fill="#2c2c2c" p-id="47947"></path><path d="M 530.88 157.28 l -26.4533 19.3067 l -27.52 -18.24 l 26.0267 -19.3067 l 27.9467 18.24 Z M 504.533 169.12 l 14.4 -11.6267 l -15.7867 -11.2 l -14.4 11.6267 l 15.7867 11.2 Z" fill="#2c2c2c" p-id="47948"></path><path d="M 726.919 163.707 l 13.8667 -0.0512 l 1.10507 295.573 l -13.8667 0.0512 Z" fill="#2c2c2c" p-id="47949"></path><path d="M 734.72 922.932 c -24.7467 0 -48.1067 -2.66667 -65.7067 -7.36 c -21.0133 -5.65333 -31.5733 -13.6533 -31.5733 -23.8933 c 0 -1.81333 0.426667 -3.73333 1.17333 -5.44 l 75.2 -311.893 l -32.32 -123.947 l 107.093 -0.746667 l -31.36 124.053 l 74.24 312.533 c 0.746667 1.81333 1.17333 3.62667 1.17333 5.44 c 0 10.24 -10.7733 18.24 -31.8933 23.8933 c -17.8133 4.69333 -41.28 7.36 -66.0267 7.36 Z m -35.4133 -458.773 l 28.6933 110.08 l -76.3733 316.587 l -0.32 0.64 c -0.106667 0.106667 -0.106667 0.213333 -0.106667 0.213333 c 0.213333 1.06667 4.69333 6.18667 22.8267 10.88 c 16.32 4.16 37.8667 6.50667 60.6933 6.50667 c 22.72 0 44.3733 -2.34667 60.8 -6.50667 c 18.0267 -4.58667 22.8267 -9.70669 23.1467 -10.88 c 0 0 0 -0.106667 -0.106667 -0.106667 l -0.32 -0.746667 L 742.827 573.599 l 27.84 -109.973 l -71.36 0.533333 Z" fill="#2c2c2c" p-id="47950"></path><path d="M 734.72 922.932 c -24.7467 0 -48.1067 -2.66667 -65.7067 -7.36 c -21.0133 -5.65333 -31.5733 -13.6533 -31.5733 -23.8933 s 10.6667 -18.24 31.5733 -23.8933 c 17.6 -4.8 40.96 -7.36 65.7067 -7.36 c 24.7467 0 48.2133 2.66667 65.92 7.36 c 21.12 5.65333 31.8933 13.6533 31.8933 23.8933 s -10.7733 18.24 -31.8933 23.8933 c -17.7067 4.69333 -41.1733 7.36 -65.92 7.36 Z m 0 -48.64 c -22.8267 0 -44.3733 2.34667 -60.6933 6.50667 c -18.1333 4.69333 -22.6133 9.81338 -22.8267 10.88 c 0.213333 1.06667 4.69333 6.18667 22.8267 10.88 c 16.32 4.16 37.8667 6.50667 60.6933 6.50667 c 22.72 0 44.3733 -2.34667 60.8 -6.50667 c 18.1333 -4.58667 22.8267 -9.70669 23.1467 -10.88 c -0.32 -1.17333 -5.12 -6.29333 -23.1467 -10.88 c -16.5333 -4.26667 -38.08 -6.50667 -60.8 -6.50667 Z" fill="#2c2c2c" p-id="47951"></path><path d="M 734.72 893.813 c -26.3467 0 -47.4667 -8.85333 -50.24 -21.12 l -0.96 -4.48 l 4.48 -0.746667 c 14.1867 -2.34667 30.5067 -3.52 47.2533 -3.52 c 16.2133 0 32.2133 1.17333 46.2933 3.30667 l 4.48 0.64 l -0.96 4.37333 c -2.98667 14.1867 -27.6267 21.5467 -50.3467 21.5467 Z m -39.1467 -18.7733 c 5.97333 5.44 20.6933 10.24 39.04 10.24 c 18.6667 0 33.3867 -4.8 39.2533 -10.3467 c -12.0533 -1.6 -25.28 -2.34667 -38.72 -2.34667 c -13.76 0 -27.3067 0.853333 -39.5733 2.45333 Z" fill="#2c2c2c" p-id="47952"></path><path d="M 710.187 162.293 l 22.08 -17.92 l 21.5467 17.1733 l -19.7333 18.0267 Z" fill="#2c2c2c" p-id="47953"></path><path d="M 761.067 161.44 l -27.4133 22.5067 l -28.48 -21.3333 l 26.9867 -22.5067 l 28.9067 21.3333 Z m -27.3067 13.8667 l 14.9333 -13.5467 l -16.32 -13.0133 l -14.9333 13.5467 l 16.32 13.0133 Z" fill="#2c2c2c" p-id="47954"></path></svg>