<?xml version="1.0" standalone="no"?><!DOCTYPE svg PUBLIC "-//W3C//DTD SVG 1.1//EN" "http://www.w3.org/Graphics/SVG/1.1/DTD/svg11.dtd"><svg t="1689151850805" viewBox="0 0 1024 1024" version="1.1" xmlns="http://www.w3.org/2000/svg" p-id="48140" xmlns:xlink="http://www.w3.org/1999/xlink" width="200" height="200"><path d="M513.3 261.1c-11 0-20-9-20-20V85.7c0-11 9-20 20-20s20 9 20 20v155.4c0 11-8.9 20-20 20z" p-id="48141"></path><path d="M513.3 439.7c-11 0-20-9-20-20V263.3c0-11 9-20 20-20s20 9 20 20v156.4c0 11-8.9 20-20 20z" p-id="48142"></path><path d="M513.3 959.4c-49.3 0-97.1-9.7-142.2-28.7-43.5-18.4-82.5-44.7-116.1-78.3s-59.9-72.6-78.3-116.1c-19-45-28.7-92.9-28.7-142.2s9.7-97.1 28.7-142.2c18.4-43.5 44.7-82.5 78.3-116.1 33.5-33.5 72.6-59.9 116.1-78.3 45-19 92.9-28.7 142.2-28.7 49.3 0 97.1 9.7 142.2 28.7C699 276.1 738 302.4 771.6 336c33.5 33.5 59.9 72.6 78.3 116.1 19 45 28.7 92.9 28.7 142.2s-9.7 97.1-28.7 142.2c-18.4 43.5-44.7 82.5-78.3 116.1s-72.6 59.9-116.1 78.3c-45 18.8-92.9 28.5-142.2 28.5z m0-690.4C334 269 188.1 414.9 188.1 594.2c0 179.3 145.9 325.2 325.2 325.2 179.3 0 325.2-145.9 325.2-325.2 0-179.3-145.9-325.2-325.2-325.2z" p-id="48143"></path><path d="M382 784.7c-4.8 0-9.5-1.7-13.3-5.1-46-41.2-72.4-100.1-72.4-161.8 0-58 22.6-112.5 63.6-153.5s95.5-63.6 153.5-63.6 112.5 22.6 153.5 63.6 63.6 95.5 63.6 153.5c0 61.7-26.4 120.7-72.4 161.8-7.6 6.8-19.1 6.8-26.7 0-32.5-29.1-74.4-45.1-118-45.1s-85.5 16-118 45.1c-3.9 3.4-8.7 5.1-13.4 5.1z m131.3-90.2c47.2 0 92.7 15.3 130.1 43.3 30-32.6 46.9-75.5 46.9-120.1 0-97.6-79.4-177.1-177.1-177.1-97.6 0-177.1 79.4-177.1 177.1 0 44.6 16.9 87.5 46.9 120.1 37.6-28 83.2-43.3 130.3-43.3z" p-id="48144"></path><path d="M513.3 837.7c-54.9 0-99.5-44.6-99.5-99.5 0-11 9-20 20-20s20 9 20 20c0 32.8 26.7 59.5 59.5 59.5s59.5-26.7 59.5-59.5c0-11 9-20 20-20s20 9 20 20c0 54.9-44.6 99.5-99.5 99.5z" p-id="48145"></path></svg>