<?xml version="1.0" standalone="no"?><!DOCTYPE svg PUBLIC "-//W3C//DTD SVG 1.1//EN" "http://www.w3.org/Graphics/SVG/1.1/DTD/svg11.dtd"><svg t="1689151279093" viewBox="0 0 1024 1024" version="1.1" xmlns="http://www.w3.org/2000/svg" p-id="34895" xmlns:xlink="http://www.w3.org/1999/xlink" width="200" height="200"><path d="M625.087835 926.15362H313.86108c-71.126792 0-129.081955-57.955164-129.081955-129.081955V382.729879c0-4.139655 3.38699-7.526645 7.526645-7.526645s7.526645 3.38699 7.526645 7.526645v414.341786c0 62.847483 51.181183 114.028666 114.028665 114.028666h311.226755c62.847483 0 114.028666-51.181183 114.028666-114.028666V382.729879c0-4.139655 3.38699-7.526645 7.526645-7.526645s7.526645 3.38699 7.526645 7.526645v414.341786c0 71.126792-57.955164 129.081955-129.081956 129.081955z" fill="#2c2c2c" p-id="34896"></path><path d="M785.781698 382.353546H153.167218c-6.397648 0-11.289967-4.892319-11.289967-11.289966v-56.449835c0-6.397648 4.892319-11.289967 11.289967-11.289967h632.61448c6.397648 0 11.289967 4.892319 11.289967 11.289967v56.449835c0 6.021316-5.268651 11.289967-11.289967 11.289966z m-628.851158-15.053289h625.087836v-48.92319H156.93054v48.92319z" fill="#2c2c2c" p-id="34897"></path><path d="M778.255053 311.603087c-4.139655 0-7.526645-3.38699-7.526644-7.526645 0-40.643881-121.931643-84.29842-303.323778-84.298419S164.080853 263.432562 164.080853 304.076442c0 4.139655-3.38699 7.526645-7.526645 7.526645s-7.526645-3.38699-7.526645-7.526645c0-28.60125 33.493569-53.439177 96.341051-72.255788 59.460492-17.687615 138.113929-27.095921 222.036017-27.09592s162.575524 9.784638 222.036016 27.09592c63.223815 18.440279 96.341051 43.654539 96.341051 72.255788 0 4.139655-3.38699 7.526645-7.526645 7.526645z" fill="#2c2c2c" p-id="34898"></path><path d="M458.748989 211.498714c-21.827269 0-39.514884-17.687615-39.514884-39.514885s17.687615-39.514884 39.514884-39.514884 39.514884 17.687615 39.514885 39.514884-17.687615 39.514884-39.514885 39.514885z m0-63.97648c-13.54796 0-24.461595 10.913635-24.461595 24.461595s10.913635 24.461595 24.461595 24.461595 24.461595-10.913635 24.461595-24.461595-10.913635-24.461595-24.461595-24.461595zM956.260198 787.287027h-44.783535c-6.021316 0-11.289967-5.268651-11.289967-11.289967v-266.066887h-149.780228c-6.397648 0-11.289967-4.892319-11.289967-11.289967v-34.998898c0-6.021316 5.268651-11.289967 11.289967-11.289967h205.85373c6.397648 0 11.289967 4.892319 11.289967 11.289967v312.355752c0 6.021316-5.268651 11.289967-11.289967 11.289967z m-41.020213-15.053289h37.256891v-304.829107h-198.327085v27.472252h161.070194v277.356855z" fill="#2c2c2c" p-id="34899"></path></svg>