<?xml version="1.0" standalone="no"?><!DOCTYPE svg PUBLIC "-//W3C//DTD SVG 1.1//EN" "http://www.w3.org/Graphics/SVG/1.1/DTD/svg11.dtd"><svg t="1689150742554" viewBox="0 0 1024 1024" version="1.1" xmlns="http://www.w3.org/2000/svg" p-id="13336" xmlns:xlink="http://www.w3.org/1999/xlink" width="200" height="200"><path d="M937.8 914.3H86.2V109.7h851.6v804.6z m-831.6-20h811.6V129.7H106.2v764.6z" fill="#000042" p-id="13337"></path><path d="M927.8 368.1H96.2c-5.5 0-10-4.5-10-10s4.5-10 10-10h831.6c5.5 0 10 4.5 10 10s-4.5 10-10 10zM927.7 600.7H96.2c-5.5 0-10-4.5-10-10s4.5-10 10-10h831.6c5.5 0 10 4.5 10 10s-4.5 10-10.1 10zM927.7 833.3H96.2c-5.5 0-10-4.5-10-10s4.5-10 10-10h831.6c5.5 0 10 4.5 10 10s-4.5 10-10.1 10zM659.8 722.3h-296c-5.5 0-10-4.5-10-10s4.5-10 10-10h296c5.5 0 10 4.5 10 10s-4.5 10-10 10z" fill="#000042" p-id="13338"></path><path d="M511.8 238.6m-15 0a15 15 0 1 0 30 0 15 15 0 1 0-30 0Z" p-id="13339"></path><path d="M511.8 474.8m-15 0a15 15 0 1 0 30 0 15 15 0 1 0-30 0Z" p-id="13340"></path></svg>