<?xml version="1.0" standalone="no"?><!DOCTYPE svg PUBLIC "-//W3C//DTD SVG 1.1//EN" "http://www.w3.org/Graphics/SVG/1.1/DTD/svg11.dtd"><svg t="1689151646252" viewBox="0 0 1024 1024" version="1.1" xmlns="http://www.w3.org/2000/svg" p-id="42056" xmlns:xlink="http://www.w3.org/1999/xlink" width="200" height="200"><path d="M512 588.8c-120.533333 0-243.2-26.666667-243.2-78.933333 0-7.466667 3.2-14.933333 8.533333-20.266667 20.266667-20.266667 74.666667-19.2 156.8-17.066667 24.533333 0 50.133333 1.066667 76.8 1.066667s52.266667-1.066667 76.8-1.066667c84.266667-1.066667 138.666667-2.133333 158.933334 18.133334 5.333333 5.333333 8.533333 12.8 8.533333 20.266666 0 51.2-122.666667 77.866667-243.2 77.866667z m-134.4-94.933333c-41.6 0-74.666667 2.133333-84.266667 11.733333-1.066667 1.066667-2.133333 3.2-2.133333 4.266667 0 23.466667 84.266667 57.6 221.866667 57.6s221.866667-33.066667 221.866666-57.6c0-2.133333-1.066667-3.2-2.133333-4.266667-13.866667-13.866667-75.733333-12.8-141.866667-10.666667-24.533333 0-50.133333 1.066667-77.866666 1.066667-27.733333 0-53.333333-1.066667-77.866667-1.066667-20.266667-1.066667-40.533333-1.066667-57.6-1.066666z" fill="#251E1C" p-id="42057"></path><path d="M550.4 493.866667h-76.8v-69.333334h76.8v69.333334z m-55.466667-21.333334h34.133334v-26.666666h-34.133334v26.666666z" fill="#251E1C" p-id="42058"></path><path d="M616.533333 445.866667H404.266667c-33.066667 0-61.866667-11.733333-77.866667-33.066667-11.733333-14.933333-16-33.066667-11.733333-51.2l41.6-183.466667c6.4-25.6 41.6-45.866667 83.2-45.866666h142.933333c41.6 0 77.866667 19.2 83.2 45.866666l41.6 183.466667c4.266667 18.133333 0 36.266667-11.733333 51.2-17.066667 21.333333-45.866667 33.066667-78.933334 33.066667zM439.466667 154.666667c-33.066667 0-59.733333 14.933333-62.933334 28.8l-41.6 183.466666c-3.2 11.733333 0 23.466667 8.533334 33.066667 12.8 16 35.2 24.533333 61.866666 24.533333h212.266667c26.666667 0 49.066667-9.6 61.866667-24.533333 7.466667-9.6 10.666667-21.333333 7.466666-33.066667l-41.6-183.466666c-3.2-13.866667-29.866667-28.8-62.933333-28.8H439.466667zM542.933333 760.533333h-61.866666V565.333333h61.866666v195.2z m-40.533333-21.333333h19.2V586.666667h-19.2v152.533333z" fill="#251E1C" p-id="42059"></path><path d="M689.066667 832c-1.066667 0-3.2 0-4.266667-1.066667-54.4-22.4-112-34.133333-171.733333-34.133333-59.733333 0-118.4 11.733333-173.866667 34.133333-3.2 1.066667-7.466667 1.066667-9.6-1.066666-3.2-2.133333-4.266667-5.333333-4.266667-8.533334v-41.6c0-4.266667 3.2-8.533333 7.466667-9.6 116.266667-40.533333 244.266667-40.533333 360.533333 0 4.266667 1.066667 7.466667 5.333333 7.466667 9.6V821.333333c0 3.2-2.133333 6.4-4.266667 8.533334-3.2 1.066667-5.333333 2.133333-7.466666 2.133333z m-343.466667-44.8v18.133333c53.333333-20.266667 109.866667-29.866667 167.466667-29.866666 56.533333 0 112 10.666667 164.266666 29.866666v-18.133333c-106.666667-36.266667-224-36.266667-331.733333 0z" fill="#251E1C" p-id="42060"></path><path d="M307.2 890.666667c-21.333333 0-38.4-17.066667-38.4-38.4s17.066667-38.4 38.4-38.4 38.4 17.066667 38.4 38.4-17.066667 38.4-38.4 38.4z m0-55.466667c-9.6 0-17.066667 7.466667-17.066667 17.066667s7.466667 17.066667 17.066667 17.066666 17.066667-7.466667 17.066667-17.066666-7.466667-17.066667-17.066667-17.066667zM716.8 890.666667c-21.333333 0-38.4-17.066667-38.4-38.4s17.066667-38.4 38.4-38.4 38.4 17.066667 38.4 38.4-17.066667 38.4-38.4 38.4z m0-55.466667c-9.6 0-17.066667 7.466667-17.066667 17.066667s7.466667 17.066667 17.066667 17.066666 17.066667-7.466667 17.066667-17.066666-7.466667-17.066667-17.066667-17.066667zM512 881.066667c-21.333333 0-38.4-17.066667-38.4-38.4s17.066667-38.4 38.4-38.4 38.4 17.066667 38.4 38.4-17.066667 38.4-38.4 38.4z m0-56.533334c-9.6 0-17.066667 7.466667-17.066667 17.066667s7.466667 17.066667 17.066667 17.066667 17.066667-7.466667 17.066667-17.066667-7.466667-17.066667-17.066667-17.066667z" fill="#251E1C" p-id="42061"></path><path d="M334.933333 857.6c-6.4 0-10.666667-4.266667-10.666666-10.666667V821.333333c0-6.4 4.266667-10.666667 10.666666-10.666666s10.666667 4.266667 10.666667 10.666666v25.6c0 5.333333-4.266667 10.666667-10.666667 10.666667zM689.066667 854.4c-6.4 0-10.666667-4.266667-10.666667-10.666667v-25.6c0-6.4 4.266667-10.666667 10.666667-10.666666s10.666667 4.266667 10.666666 10.666666v25.6c0 6.4-5.333333 10.666667-10.666666 10.666667zM512 823.466667c-6.4 0-10.666667-4.266667-10.666667-10.666667v-25.6c0-6.4 4.266667-10.666667 10.666667-10.666667s10.666667 4.266667 10.666667 10.666667v25.6c0 5.333333-4.266667 10.666667-10.666667 10.666667zM280.533333 523.733333h-37.333333c-25.6 0-45.866667-20.266667-45.866667-45.866666V384c0-6.4 4.266667-10.666667 10.666667-10.666667s10.666667 4.266667 10.666667 10.666667v93.866667c0 13.866667 10.666667 24.533333 24.533333 24.533333h37.333333c6.4 0 10.666667 4.266667 10.666667 10.666667s-5.333333 10.666667-10.666667 10.666666zM781.866667 523.733333h-37.333334c-6.4 0-10.666667-4.266667-10.666666-10.666666s4.266667-10.666667 10.666666-10.666667h37.333334c13.866667 0 24.533333-10.666667 24.533333-24.533333V384c0-6.4 4.266667-10.666667 10.666667-10.666667s10.666667 4.266667 10.666666 10.666667v93.866667c0 25.6-20.266667 45.866667-45.866666 45.866666z" fill="#251E1C" p-id="42062"></path><path d="M219.733333 395.733333h-26.666666c-14.933333 0-27.733333-12.8-27.733334-27.733333s12.8-27.733333 27.733334-27.733333h26.666666c14.933333 0 27.733333 12.8 27.733334 27.733333s-12.8 27.733333-27.733334 27.733333z m-26.666666-35.2c-3.2 0-6.4 3.2-6.4 6.4s3.2 6.4 6.4 6.4h26.666666c3.2 0 6.4-3.2 6.4-6.4s-3.2-6.4-6.4-6.4h-26.666666zM830.933333 395.733333h-26.666666c-14.933333 0-27.733333-12.8-27.733334-27.733333s12.8-27.733333 27.733334-27.733333h26.666666c14.933333 0 27.733333 12.8 27.733334 27.733333s-11.733333 27.733333-27.733334 27.733333z m-26.666666-35.2c-3.2 0-6.4 3.2-6.4 6.4s3.2 6.4 6.4 6.4h26.666666c3.2 0 6.4-3.2 6.4-6.4s-3.2-6.4-6.4-6.4h-26.666666z" fill="#251E1C" p-id="42063"></path></svg>