<?xml version="1.0" standalone="no"?><!DOCTYPE svg PUBLIC "-//W3C//DTD SVG 1.1//EN" "http://www.w3.org/Graphics/SVG/1.1/DTD/svg11.dtd"><svg t="1689151247676" viewBox="0 0 1024 1024" version="1.1" xmlns="http://www.w3.org/2000/svg" p-id="34065" xmlns:xlink="http://www.w3.org/1999/xlink" width="200" height="200"><path d="M674.3552 787.9936c-1.28512-2.4064-2.93376-4.67456-5.02272-6.41536-3.35872-3.54816-7.57248-6.94272-12.544-10.1632-10.74176-11.10528-23.56736-30.91968-23.06048-55.79264 0.128-6.31296 1.024-11.53024 2.64192-15.98464-30.7456 12.75392-75.5712 20.80256-125.52192 20.80256-49.9456 0-94.7712-8.04352-125.52192-20.80256 1.61792 4.4544 2.51392 9.67168 2.64192 15.98464 0.512 24.87296-12.3136 44.69248-23.06048 55.79264-4.97152 3.22048-9.18528 6.61504-12.544 10.1632-2.08896 1.7408-3.7376 4.00896-5.02272 6.41536-2.81088 4.48512-4.34176 9.14944-4.34176 13.952 0 34.1504 75.14624 61.83424 167.84896 61.83424s167.84896-27.68384 167.84896-61.83424c0-4.79744-1.53088-9.46176-4.34176-13.952z" fill="#FFFFFF" p-id="34066"></path><path d="M510.848 871.45984c-100.06528 0-175.52896-29.88544-175.52896-69.51424 0-6.04672 1.80736-12.03712 5.37088-17.80224a28.94336 28.94336 0 0 1 6.38976-8.15616c3.5072-3.64544 7.8336-7.18336 12.88704-10.5216 6.72768-7.12192 20.82816-25.04704 20.32128-49.6896-0.10752-5.36064-0.82432-9.7792-2.18112-13.5168a7.68512 7.68512 0 0 1 10.1632-9.72288c30.97088 12.84608 75.648 20.21376 122.57792 20.21376 46.9248 0 91.60192-7.36768 122.58304-20.21376a7.67488 7.67488 0 1 1 10.15296 9.72288c-1.36192 3.73248-2.06848 8.15616-2.176 13.50656-0.50688 24.64256 13.5936 42.5728 20.3264 49.69984 5.05344 3.34336 9.38496 6.88128 12.88192 10.52672 2.46272 2.13504 4.61312 4.87424 6.38976 8.15104 3.56352 5.77536 5.37088 11.76064 5.37088 17.80224 0 39.6288-75.46368 69.51424-175.52896 69.51424z m-115.37408-159.85152c0.08704 1.24928 0.14336 2.5344 0.16896 3.85536 0.64 31.14496-17.42336 53.23776-25.22112 61.29152a7.71072 7.71072 0 0 1-1.34144 1.10592c-4.50048 2.91328-8.24832 5.94432-11.14112 9.00096a7.56224 7.56224 0 0 1-0.66048 0.61952c-1.14688 0.95744-2.21184 2.34496-3.16416 4.13184-0.08704 0.1536-0.17408 0.31232-0.27136 0.46592-2.12992 3.39968-3.16928 6.6304-3.16928 9.87136 0 25.61536 65.77664 54.15424 160.16896 54.15424 94.3872 0 160.16896-28.53888 160.16896-54.15424 0-3.23584-1.03424-6.46656-3.16928-9.87648a5.95456 5.95456 0 0 1-0.26624-0.4608c-0.95232-1.78688-2.01728-3.16928-3.16416-4.13184a7.68 7.68 0 0 1-0.6656-0.62464c-2.88256-3.05152-6.6304-6.07744-11.136-8.99584a7.55712 7.55712 0 0 1-1.34656-1.10592c-7.79264-8.05376-25.856-30.1568-25.22112-61.29152 0.03072-1.32096 0.08704-2.60608 0.16896-3.85536-31.55968 10.56256-72.68352 16.512-115.37408 16.512-42.68032 0-83.80416-5.94432-115.36384-16.512z" fill="#1D1E21" p-id="34067"></path><path d="M863.04256 445.58848c-5.12-5.12-11.68896-8.4736-18.7904-9.89696-94.63296-19.00544-170.29632-110.60736-216.81152-208.36864-34.75456 12.95872-74.6496 20.60288-117.15584 21.1968-41.88672 0.5888-81.42336-5.74976-116.15744-17.40288-46.65344 96.32768-121.58976 185.81504-214.99904 204.5696-7.10144 1.42336-13.6704 4.77696-18.7904 9.89696l-6.91712 6.91712s149.26336 54.33856 359.51616 54.33856c235.93472 0 359.51616-52.26496 359.51616-52.26496l-9.41056-8.9856z" fill="#FFFFFF" p-id="34068"></path><path d="M512.93696 514.51904c-209.18784 0-360.64256-54.25664-362.14272-54.80448a7.68 7.68 0 0 1-2.80064-12.6464l6.91712-6.91712c6.08768-6.08768 13.94176-10.24 22.71232-11.99616 79.22688-15.90784 155.6224-88.94976 209.59744-200.38656a7.69024 7.69024 0 0 1 9.35424-3.93216c35.24096 11.82208 73.45664 17.56672 113.60768 17.00352 40.12032-0.55808 79.744-7.72096 114.57536-20.7104a7.68 7.68 0 0 1 9.62048 3.89632c54.05696 113.60768 131.0976 188.01664 211.38432 204.13952 8.77056 1.75616 16.62464 5.90336 22.71744 11.99616l9.28256 8.86272a7.68 7.68 0 0 1-2.31936 12.62592c-5.10464 2.15552-127.71328 52.86912-362.50624 52.86912zM167.79264 449.18272c39.07072 12.38528 171.94496 49.97632 345.14432 49.97632 192.2816 0 310.12352-35.22048 345.34912-47.49824l-0.54272-0.51712a29.07136 29.07136 0 0 0-15.0016-7.92064c-83.56352-16.78336-163.19488-91.83744-219.20768-206.33088-34.82624 12.09344-73.7792 18.75456-113.13664 19.30752-39.43936 0.55808-77.2096-4.75648-112.30208-15.72864C342.15936 352.896 263.16288 426.6496 180.63872 443.21792a29.31712 29.31712 0 0 0-12.84608 5.9648z" fill="#1D1E21" p-id="34069"></path><path d="M623.39072 189.5936a11.3664 11.3664 0 0 0-11.37152-11.37152c-1.73568 0-3.36384 0.41984-4.8384 1.11616-26.85952 10.22976-59.56608 15.14496-94.15168 15.3856-35.87072 0.24576-69.8624-4.36224-97.46432-14.88384l-0.06144 0.10752a11.77088 11.77088 0 0 0-4.19328-0.80384 11.8272 11.8272 0 1 0-1.44896 23.54688l-0.01536 0.03584c30.93504 8.76544 65.20832 13.55776 101.28384 13.30688 36.7616-0.256 71.58272-5.70368 102.84544-15.22176 0.03584-0.01024 0.05632-0.04608 0.08704-0.05632a11.35104 11.35104 0 0 0 9.32864-11.1616z" fill="#FFFFFF" p-id="34070"></path><path d="M508.416 223.72352c-34.87744 0-68.68992-4.56192-100.50048-13.55776a19.5072 19.5072 0 0 1-16.09216-19.21024 19.5072 19.5072 0 0 1 19.48672-19.48672c1.78176 0 3.56864 0.26112 5.33504 0.77312 0.55808 0.08192 1.11616 0.22016 1.65888 0.42496 24.69888 9.41568 56.51968 14.39232 92.02688 14.39232l2.65216-0.01024c34.80064-0.24576 66.34496-5.35552 91.22816-14.79168a18.84672 18.84672 0 0 1 7.81312-1.71008 19.072 19.072 0 0 1 19.05152 19.05152 19.01056 19.01056 0 0 1-14.89408 18.56512c-33.29536 10.10688-68.5056 15.29856-104.99072 15.55456l-2.77504 0.00512z m-95.72352-28.17536c30.27968 8.50432 62.48448 12.81024 95.72864 12.81024l2.6624-0.01024c34.944-0.24064 68.62336-5.1968 100.11136-14.72l0.4352-0.15872c0.34304-0.11776 0.70656-0.20992 1.06496-0.27648a3.66592 3.66592 0 0 0 3.0208-3.60448c0-2.54464-2.52416-4.59264-5.25312-3.30752l-0.5376 0.2304c-26.61888 10.1376-60.10368 15.63136-96.82944 15.89248l-2.75968 0.01024c-36.75136 0-69.97504-5.15584-96.2048-14.91456a7.6032 7.6032 0 0 1-1.35168-0.37888c-3.21536-1.2032-5.58592 1.11104-5.58592 3.82976 0 2.0992 1.55136 3.8656 3.60448 4.11648 0.65024 0.08192 1.28512 0.24064 1.8944 0.48128z" fill="#1D1E21" p-id="34071"></path><path d="M293.80608 287.04768m-20.57216 0a20.57216 20.57216 0 1 0 41.14432 0 20.57216 20.57216 0 1 0-41.14432 0Z" fill="#FFFFFF" p-id="34072"></path><path d="M293.80608 315.29984c-15.57504 0-28.25216-12.67712-28.25216-28.25216s12.672-28.25216 28.25216-28.25216 28.25216 12.67712 28.25216 28.25216-12.67712 28.25216-28.25216 28.25216z m0-41.14432c-7.10656 0-12.89216 5.78048-12.89216 12.89216s5.78048 12.89216 12.89216 12.89216 12.89216-5.78048 12.89216-12.89216-5.7856-12.89216-12.89216-12.89216z" fill="#1D1E21" p-id="34073"></path><path d="M715.6736 176.02048m-29.6448 0a29.6448 29.6448 0 1 0 59.2896 0 29.6448 29.6448 0 1 0-59.2896 0Z" fill="#FFFFFF" p-id="34074"></path><path d="M715.6736 213.34528c-20.5824 0-37.3248-16.74752-37.3248-37.3248s16.74752-37.3248 37.3248-37.3248 37.3248 16.74752 37.3248 37.3248-16.7424 37.3248-37.3248 37.3248z m0-59.2896c-12.1088 0-21.9648 9.85088-21.9648 21.9648s9.856 21.9648 21.9648 21.9648 21.9648-9.85088 21.9648-21.9648-9.85088-21.9648-21.9648-21.9648z" fill="#1D1E21" p-id="34075"></path><path d="M892.288 567.07072m-18.69312 0a18.69312 18.69312 0 1 0 37.38624 0 18.69312 18.69312 0 1 0-37.38624 0Z" fill="#FFFFFF" p-id="34076"></path><path d="M892.288 593.44384a26.40384 26.40384 0 0 1-26.37312-26.37312c0-14.5408 11.83232-26.368 26.37312-26.368s26.368 11.83232 26.368 26.368a26.3936 26.3936 0 0 1-26.368 26.37312z m0-37.38624a11.02336 11.02336 0 0 0-11.01312 11.008c0 6.07744 4.9408 11.01312 11.01312 11.01312s11.008-4.9408 11.008-11.01312a11.01824 11.01824 0 0 0-11.008-11.008z" fill="#1D1E21" p-id="34077"></path><path d="M80.6912 588.17536l45.21472 45.21472-45.21472 45.21984-45.21984-45.21984z" fill="#FFFFFF" p-id="34078"></path><path d="M80.6912 686.28992c-2.03776 0-3.98848-0.80896-5.43232-2.24768l-45.21984-45.21984a7.68 7.68 0 0 1 0-10.86464l45.21984-45.21472a7.68 7.68 0 0 1 10.85952 0l45.21984 45.21472a7.68 7.68 0 0 1 0 10.86464l-45.21984 45.21984a7.67488 7.67488 0 0 1-5.4272 2.24768z m-34.36032-52.89984l34.3552 34.36032 34.3552-34.36032-34.3552-34.3552-34.3552 34.3552z" fill="#1D1E21" p-id="34079"></path><path d="M512.94208 543.68768c-147.1744 0-280.52992-23.296-377.69728-61.04064a6.49728 6.49728 0 0 0-1.65376 4.31616c0 3.61984 2.93888 6.55872 6.55872 6.55872h2.92864c-4.50048 12.032 0.24064 23.2448 10.7008 33.9456 1.57696 1.61792 3.28192 3.22048 5.10976 4.81792 0 0 33.72544 26.7008 51.99872 68.15744 17.71008 40.18176 64.90624 71.89504 107.88352 87.02976 45.52704 22.20544 114.432 36.36224 191.55456 36.36224 53.77024 0 103.54176-6.88128 144.18432-18.57536h0.4608l0.83968-0.384a317.10208 317.10208 0 0 0 32.4352-11.29472l1.1008-0.34304 2.54464-0.79872 3.968-1.2544c2.3296-0.7424 4.71552-1.5104 7.18336-2.32448 44.032-14.52032 93.68576-46.96064 111.95904-88.41728 18.26816-41.45664 51.99872-68.15744 51.99872-68.15744 0.91136-0.79872 1.792-1.59744 2.64704-2.39616l0.03072-0.03072c0.83968-0.7936 1.64864-1.5872 2.42688-2.3808l0.00512-0.00512c10.46016-10.70592 15.20128-21.9136 10.7008-33.9456h2.92864c3.61984 0 6.55872-2.93888 6.55872-6.55872a6.5024 6.5024 0 0 0-1.65376-4.31616c-97.1776 37.73952-230.528 61.03552-377.7024 61.03552z" fill="#FFFFFF" p-id="34080"></path><path d="M510.32576 731.51488c-75.27936 0-146.14016-13.46048-194.52416-36.94592-41.23136-14.61248-92.16-46.14144-111.94368-91.02336-17.3056-39.26528-49.41312-64.98304-49.73568-65.23904a94.78656 94.78656 0 0 1-5.84192-5.47328c-10.6496-10.89536-15.488-22.00064-14.46912-33.11616a14.24896 14.24896 0 0 1-7.90528-12.75392c0-3.44064 1.26976-6.77888 3.57376-9.39008a7.68 7.68 0 0 1 8.54016-2.08384c100.48 39.02976 233.6256 60.52352 374.91712 60.52352 141.27616 0 274.42688-21.49376 374.92224-60.5184a7.69024 7.69024 0 0 1 8.54016 2.08384c2.304 2.61632 3.57376 5.94944 3.57376 9.39008 0 5.5808-3.2256 10.4192-7.9104 12.75392 1.024 11.1104-3.8144 22.2208-14.464 33.12128-0.87552 0.88576-1.7408 1.7408-2.64704 2.60096l-0.16384 0.14848c-0.88064 0.8192-1.792 1.6384-2.72384 2.46272-0.61952 0.50688-32.80384 26.368-50.03776 65.4848-20.61824 46.78656-75.68896 79.1296-116.58752 92.61568-2.4832 0.8192-4.89472 1.59744-7.2448 2.34496l-7.35232 2.31424a323.5328 323.5328 0 0 1-32.35328 11.27424 11.1104 11.1104 0 0 1-2.65728 0.77824c-42.7264 12.20096-93.02528 18.64704-145.50528 18.64704zM150.20032 496.39936c-1.8944 5.19168-2.8928 13.45536 9.06752 25.70752 1.43872 1.47456 2.9952 2.93376 4.66432 4.38784 1.16224 0.90624 35.15904 28.13952 53.98016 70.85568 17.8944 40.59648 66.88768 70.02112 103.40352 82.88256 0.2816 0.1024 0.55296 0.21504 0.8192 0.33792 46.36672 22.61504 114.95424 35.584 188.1856 35.584 51.38944 0 100.51584-6.31808 142.05952-18.27328 0.22528-0.06656 0.45056-0.11776 0.68096-0.16384 0.2304-0.09216 0.45056-0.16896 0.59392-0.21504a309.7856 309.7856 0 0 0 31.64672-11.01312c0.22528-0.09728 0.45568-0.17408 0.6912-0.25088l7.53664-2.36544c2.29888-0.7424 4.6592-1.49504 7.10144-2.29888 40.89856-13.4912 89.94816-44.75904 107.3408-84.21888 18.82624-42.71616 52.82304-69.94944 54.26688-71.08608 0.54272-0.49664 1.36704-1.23392 2.16576-1.98656l0.12288-0.11264c0.78848-0.75264 1.4592-1.41824 2.11456-2.07872 11.93984-12.22656 10.94144-20.49024 9.04704-25.68192-99.8656 35.51744-227.7376 54.9632-362.74176 54.9632-135.01952-0.00512-262.89664-19.45088-362.74688-54.97344z" fill="#1D1E21" p-id="34081"></path></svg>