<?xml version="1.0" standalone="no"?><!DOCTYPE svg PUBLIC "-//W3C//DTD SVG 1.1//EN" "http://www.w3.org/Graphics/SVG/1.1/DTD/svg11.dtd"><svg t="1689151665950" viewBox="0 0 1024 1024" version="1.1" xmlns="http://www.w3.org/2000/svg" p-id="42362" xmlns:xlink="http://www.w3.org/1999/xlink" width="200" height="200"><path d="M722.133333 564.266667H301.866667c-19.2 0-35.2-16-35.2-35.2v-5.333334c0-19.2 16-35.2 35.2-35.2h420.266666c19.2 0 35.2 16 35.2 35.2v5.333334c0 19.2-16 35.2-35.2 35.2z m-420.266666-54.4c-7.466667 0-13.866667 6.4-13.866667 13.866666v5.333334c0 7.466667 6.4 13.866667 13.866667 13.866666h420.266666c7.466667 0 13.866667-6.4 13.866667-13.866666v-5.333334c0-7.466667-6.4-13.866667-13.866667-13.866666H301.866667z" fill="#251E1C" p-id="42363"></path><path d="M325.333333 910.933333c-17.066667 0-29.866667-13.866667-29.866666-29.866666L298.666667 554.666667c0-6.4 4.266667-10.666667 10.666666-10.666667s10.666667 5.333333 10.666667 10.666667l-3.2 326.4c0 5.333333 4.266667 8.533333 8.533333 8.533333s8.533333-4.266667 8.533334-8.533333l12.8-327.466667c0-6.4 5.333333-10.666667 10.666666-10.666667 6.4 0 10.666667 5.333333 10.666667 10.666667l-12.8 326.4c0 17.066667-12.8 30.933333-29.866667 30.933333zM698.666667 910.933333c-17.066667 0-29.866667-13.866667-29.866667-29.866666L656 554.666667c0-6.4 4.266667-10.666667 10.666667-10.666667 5.333333-1.066667 10.666667 4.266667 10.666666 10.666667l12.8 326.4c0 5.333333 4.266667 9.6 8.533334 9.6s8.533333-4.266667 8.533333-8.533334L704 555.733333c0-6.4 4.266667-10.666667 10.666667-10.666666 5.333333 0 10.666667 4.266667 10.666666 10.666666l3.2 326.4c0 14.933333-12.8 28.8-29.866666 28.8zM716.8 509.866667c-5.333333 0-9.6-4.266667-10.666667-9.6-2.133333-20.266667-19.2-35.2-39.466666-35.2h-309.333334c-20.266667 0-37.333333 16-39.466666 35.2-1.066667 5.333333-5.333333 10.666667-11.733334 9.6-5.333333-1.066667-9.6-5.333333-9.6-11.733334 3.2-30.933333 28.8-54.4 60.8-54.4h309.333334c30.933333 0 57.6 23.466667 60.8 54.4 1.066667 5.333333-3.2 10.666667-9.6 11.733334h-1.066667z" fill="#251E1C" p-id="42364"></path><path d="M405.333333 465.066667h-51.2V334.933333H405.333333v130.133334z m-28.8-21.333334h7.466667v-87.466666h-8.533333v87.466666zM669.866667 465.066667H618.666667V334.933333h51.2v130.133334z m-29.866667-21.333334h8.533333v-87.466666H640v87.466666z" fill="#251E1C" p-id="42365"></path><path d="M695.466667 356.266667H328.533333c-18.133333 0-33.066667-14.933333-33.066666-33.066667V208c0-52.266667 42.666667-94.933333 94.933333-94.933333h243.2c52.266667 0 94.933333 42.666667 94.933333 94.933333v114.133333c0 19.2-14.933333 34.133333-33.066666 34.133334zM390.4 134.4c-40.533333 0-73.6 33.066667-73.6 73.6v114.133333c0 6.4 5.333333 11.733333 11.733333 11.733334h366.933334c6.4 0 11.733333-5.333333 11.733333-11.733334V208c0-40.533333-33.066667-73.6-73.6-73.6H390.4zM672 698.666667H352c-6.4 0-10.666667-4.266667-10.666667-10.666667s4.266667-10.666667 10.666667-10.666667h320c6.4 0 10.666667 4.266667 10.666667 10.666667s-5.333333 10.666667-10.666667 10.666667zM672 731.733333H350.933333c-6.4 0-10.666667-4.266667-10.666666-10.666666s4.266667-10.666667 10.666666-10.666667H672c6.4 0 10.666667 4.266667 10.666667 10.666667s-5.333333 10.666667-10.666667 10.666666z" fill="#251E1C" p-id="42366"></path></svg>