<?xml version="1.0" standalone="no"?><!DOCTYPE svg PUBLIC "-//W3C//DTD SVG 1.1//EN" "http://www.w3.org/Graphics/SVG/1.1/DTD/svg11.dtd"><svg t="1689150652836" viewBox="0 0 1024 1024" version="1.1" xmlns="http://www.w3.org/2000/svg" p-id="11805" xmlns:xlink="http://www.w3.org/1999/xlink" width="200" height="200"><path d="M491.6 696c-81.9 0-158.9-31.9-216.8-89.8-57.9-57.9-89.8-134.9-89.8-216.8s31.9-158.9 89.8-216.8c57.9-57.9 134.9-89.8 216.8-89.8s158.9 31.9 216.8 89.8c57.9 57.9 89.8 134.9 89.8 216.8s-31.9 158.9-89.8 216.8S573.5 696 491.6 696z m0-583.2c-73.9 0-143.3 28.8-195.6 81-52.2 52.2-81 121.7-81 195.6s28.8 143.3 81 195.6c52.2 52.2 121.7 81 195.6 81 73.9 0 143.3-28.8 195.6-81 52.2-52.2 81-121.7 81-195.6s-28.8-143.3-81-195.6c-52.3-52.2-121.7-81-195.6-81z" p-id="11806"></path><path d="M259.7 415.8c-7.9 0-14.5-6.1-15-14.1-3.9-64.1 17.3-125.8 59.9-173.9 42.5-48.1 101.2-76.8 165.3-80.7 8.3-0.5 15.4 5.8 15.9 14 0.5 8.3-5.8 15.4-14 15.9-56.1 3.5-107.4 28.6-144.7 70.7s-55.8 96.2-52.4 152.2c0.5 8.3-5.8 15.4-14.1 15.9h-0.9z" p-id="11807"></path><path d="M493.8 756.7c-50.1 0-98.8-9.8-144.6-29.2-44.3-18.7-84-45.5-118.1-79.6-34.1-34.1-60.9-73.8-79.6-118.1-19.4-45.8-29.2-94.5-29.2-144.6 0-8.3 6.7-15 15-15s15 6.7 15 15c0 91.2 35.5 177 100.1 241.5 64.5 64.5 150.3 100 241.5 100 91.2 0 177-35.5 241.5-100s100-150.3 100-241.5c0-8.3 6.7-15 15-15s15 6.7 15 15c0 50.1-9.8 98.8-29.2 144.6-18.7 44.2-45.5 84-79.6 118.1-34.1 34.1-73.8 60.9-118.1 79.6-45.9 19.4-94.6 29.2-144.7 29.2z" p-id="11808"></path><path d="M136 398.5c-26.2 0-47.6-22.3-47.6-49.8 0-27.5 21.4-49.8 47.6-49.8s47.6 22.3 47.6 49.8c0 27.5-21.4 49.8-47.6 49.8z m0-69.6c-9.7 0-17.6 8.9-17.6 19.8s7.9 19.8 17.6 19.8 17.6-8.9 17.6-19.8-7.9-19.8-17.6-19.8zM849.4 398.5c-26.2 0-47.6-22.3-47.6-49.8 0-27.5 21.4-49.8 47.6-49.8 26.2 0 47.6 22.3 47.6 49.8 0 27.5-21.4 49.8-47.6 49.8z m0-69.6c-9.7 0-17.6 8.9-17.6 19.8s7.9 19.8 17.6 19.8c9.7 0 17.6-8.9 17.6-19.8s-7.9-19.8-17.6-19.8zM480 741h30v124h-30z" p-id="11809"></path><path d="M674 878H308c-8.3 0-15-6.7-15-15s6.7-15 15-15h366c8.3 0 15 6.7 15 15s-6.7 15-15 15z" p-id="11810"></path><path d="M265.5 451m-15 0a15 15 0 1 0 30 0 15 15 0 1 0-30 0Z" p-id="11811"></path></svg>