<?xml version="1.0" standalone="no"?><!DOCTYPE svg PUBLIC "-//W3C//DTD SVG 1.1//EN" "http://www.w3.org/Graphics/SVG/1.1/DTD/svg11.dtd"><svg t="1689150493686" viewBox="0 0 1024 1024" version="1.1" xmlns="http://www.w3.org/2000/svg" p-id="8490" xmlns:xlink="http://www.w3.org/1999/xlink" width="200" height="200"><path d="M732.8 698.666667H291.2c-88.533333 0-161.066667-72.533333-161.066667-161.066667v-44.8h21.333334v44.8c0 76.8 62.933333 139.733333 139.733333 139.733333h441.6c76.8 0 139.733333-62.933333 139.733333-139.733333v-44.8h21.333334v44.8c0 89.6-72.533333 161.066667-161.066667 161.066667z" fill="#251E1C" p-id="8491"></path><path d="M896 504.533333H128c-13.866667 0-25.6-11.733333-25.6-25.6 0-25.6 21.333333-46.933333 46.933333-46.933333h726.4c25.6 0 46.933333 21.333333 46.933334 46.933333-1.066667 13.866667-11.733333 25.6-26.666667 25.6z m-747.733333-51.2c-13.866667 0-25.6 11.733333-25.6 25.6 0 2.133333 2.133333 4.266667 4.266666 4.266667H896c2.133333 0 4.266667-2.133333 4.266667-4.266667 0-13.866667-11.733333-25.6-25.6-25.6H148.266667zM550.4 760.533333h-76.8c-13.866667 0-25.6-11.733333-25.6-25.6V704c0-13.866667 11.733333-25.6 25.6-25.6h76.8c13.866667 0 25.6 11.733333 25.6 25.6v30.933333c0 13.866667-11.733333 25.6-25.6 25.6z m-76.8-61.866666c-2.133333 0-4.266667 2.133333-4.266667 4.266666v30.933334c0 2.133333 2.133333 4.266667 4.266667 4.266666h76.8c2.133333 0 4.266667-2.133333 4.266667-4.266666V704c0-2.133333-2.133333-4.266667-4.266667-4.266667h-76.8z" fill="#251E1C" p-id="8492"></path><path d="M483.2 688h21.333333v61.866667h-21.333333zM520.533333 688h21.333334v61.866667h-21.333334z" fill="#251E1C" p-id="8493"></path><path d="M512 945.066667c-19.2 0-35.2-16-35.2-35.2V743.466667h71.466667v165.333333c-1.066667 20.266667-17.066667 36.266667-36.266667 36.266667z m-13.866667-180.266667v144c0 7.466667 6.4 13.866667 13.866667 13.866667 7.466667 0 13.866667-6.4 13.866667-13.866667V764.8h-27.733334zM540.8 442.666667l-21.333333-1.066667V218.666667c0-54.4 43.733333-98.133333 98.133333-98.133334s98.133333 43.733333 98.133333 98.133334v10.666666h21.333334v-3.2-7.466666c0-66.133333-53.333333-119.466667-119.466667-119.466667s-119.466667 53.333333-119.466667 119.466667v221.866666h-21.333333V219.733333c0-77.866667 62.933333-140.8 140.8-140.8S757.333333 141.866667 757.333333 219.733333v7.466667c0 8.533333 0 14.933333-4.266666 19.2-5.333333 5.333333-11.733333 5.333333-22.4 5.333333h-10.666667c-8.533333 0-16 0-21.333333-5.333333-5.333333-6.4-5.333333-13.866667-5.333334-26.666667 0-42.666667-34.133333-76.8-76.8-76.8s-76.8 34.133333-76.8 76.8l1.066667 222.933334zM377.6 453.333333h-41.6c-13.866667 0-25.6-11.733333-25.6-25.6v-48c0-13.866667 11.733333-25.6 25.6-25.6h41.6c13.866667 0 25.6 11.733333 25.6 25.6v48c0 13.866667-10.666667 25.6-25.6 25.6z m-41.6-77.866666c-2.133333 0-4.266667 2.133333-4.266667 4.266666v48c0 2.133333 2.133333 4.266667 4.266667 4.266667h41.6c2.133333 0 4.266667-2.133333 4.266667-4.266667v-48c0-2.133333-2.133333-4.266667-4.266667-4.266666h-41.6z" fill="#251E1C" p-id="8494"></path><path d="M352 375.466667h-83.2c-6.4 0-10.666667-4.266667-10.666667-10.666667s4.266667-10.666667 10.666667-10.666667H352c6.4 0 10.666667 4.266667 10.666667 10.666667s-4.266667 10.666667-10.666667 10.666667zM688 453.333333h-41.6c-13.866667 0-25.6-11.733333-25.6-25.6v-48c0-13.866667 11.733333-25.6 25.6-25.6h41.6c13.866667 0 25.6 11.733333 25.6 25.6v48c-1.066667 13.866667-11.733333 25.6-25.6 25.6z m-42.666667-77.866666c-2.133333 0-4.266667 2.133333-4.266666 4.266666v48c0 2.133333 2.133333 4.266667 4.266666 4.266667h41.6c2.133333 0 4.266667-2.133333 4.266667-4.266667v-48c0-2.133333-2.133333-4.266667-4.266667-4.266666h-41.6z" fill="#251E1C" p-id="8495"></path><path d="M755.2 375.466667H672c-6.4 0-10.666667-4.266667-10.666667-10.666667s4.266667-10.666667 10.666667-10.666667h83.2c6.4 0 10.666667 4.266667 10.666667 10.666667s-5.333333 10.666667-10.666667 10.666667zM704 201.6h42.666667v21.333333h-42.666667z" fill="#251E1C" p-id="8496"></path></svg>