<?xml version="1.0" standalone="no"?><!DOCTYPE svg PUBLIC "-//W3C//DTD SVG 1.1//EN" "http://www.w3.org/Graphics/SVG/1.1/DTD/svg11.dtd"><svg t="1689151241305" viewBox="0 0 1024 1024" version="1.1" xmlns="http://www.w3.org/2000/svg" p-id="33877" xmlns:xlink="http://www.w3.org/1999/xlink" width="200" height="200"><path d="M827.8 652.5c41-41.1 73.2-88.9 95.7-142.1 23.3-55.1 35.1-113.7 35.1-174.1 0-8.8-7.2-16-16-16H81.3c-8.8 0-16 7.2-16 16 0 60.4 11.8 118.9 35.1 174.1 22.5 53.2 54.7 101.1 95.7 142.1 41 41.1 88.8 73.3 142 95.8 3.1 1.3 6.2 2.6 9.4 3.8h-32.8c-5.5 0-10.6 2.8-13.5 7.4L191.1 933.1c-4.7 7.5-2.5 17.3 4.9 22.1 2.7 1.7 5.6 2.5 8.6 2.5 5.3 0 10.5-2.6 13.5-7.4l105.4-166.1h377l105.4 166.1c4.7 7.5 14.6 9.7 22.1 4.9 7.5-4.7 9.7-14.6 4.9-22.1L722.8 759.6c-2.9-4.6-8-7.4-13.5-7.4h-32.8c3.1-1.2 6.3-2.5 9.4-3.8 53.2-22.6 100.9-54.8 141.9-95.9zM97.6 352.3h828.7c-8.4 221.6-191 399.2-414.3 399.2S106.1 573.9 97.6 352.3z" fill="#2c2c2c" p-id="33878"></path><path d="M512 255.6c-8.8 0-16-7.2-16-16V82.3c0-8.8 7.2-16 16-16s16 7.2 16 16v157.3c0 8.9-7.2 16-16 16zM592.4 255.6c-8.8 0-16-7.2-16-16v-94.5c0-8.8 7.2-16 16-16s16 7.2 16 16v94.5c0 8.9-7.2 16-16 16zM431.6 255.6c-8.8 0-16-7.2-16-16v-94.5c0-8.8 7.2-16 16-16s16 7.2 16 16v94.5c0 8.9-7.1 16-16 16z" fill="#2c2c2c" p-id="33879"></path></svg>