<?xml version="1.0" standalone="no"?><!DOCTYPE svg PUBLIC "-//W3C//DTD SVG 1.1//EN" "http://www.w3.org/Graphics/SVG/1.1/DTD/svg11.dtd"><svg t="1689151289618" viewBox="0 0 1024 1024" version="1.1" xmlns="http://www.w3.org/2000/svg" p-id="36030" xmlns:xlink="http://www.w3.org/1999/xlink" width="200" height="200"><path d="M158.539518 662.655288c-5.889425 0-11.588868-3.039703-14.818553-8.549166-7.124304-12.253803-13.488683-24.98256-19.093136-37.806308-3.799629-8.644156 0.189981-18.713173 8.929128-22.512801 8.644156-3.799629 18.713173 0.189981 22.512802 8.929128 5.034508 11.588868 10.828942 23.177737 17.288312 34.19666 4.749536 8.169202 1.994805 18.618182-6.174398 23.367718-2.849722 1.709833-5.794434 2.374768-8.644155 2.374769z" fill="" p-id="36031"></path><path d="M508.675325 855.581447c-63.168831 0-123.962894-12.823748-180.577366-38.186271-54.049722-24.222635-102.684972-59.654174-140.681261-102.684972-6.269388-7.029314-5.604453-17.858256 1.519851-24.127644 7.029314-6.269388 17.858256-5.604453 24.127644 1.519852 72.667904 82.166976 180.387384 129.282375 295.516141 129.282375 202.425232 0 368.279035-144.670872 378.15807-325.818182H130.517254c0.759926 14.533581 2.56475 28.972171 5.414471 43.125788 1.804824 9.309091-4.179592 18.238219-13.488682 20.138034-9.309091 1.804824-18.238219-4.179592-20.043043-13.488683-4.369573-21.942857-6.55436-44.455659-6.55436-66.873469 0-9.404082 7.694249-17.09833 17.09833-17.098331H904.311688c9.404082 0 17.09833 7.694249 17.098331 17.098331 0 50.915028-11.018924 100.405195-32.866791 147.04564-20.99295 44.930612-50.915028 85.206679-89.006308 119.878293-37.996289 34.576623-82.071985 61.64898-131.182189 80.647124-50.630056 19.568089-104.394805 29.542115-159.679406 29.542115z" fill="" p-id="36032"></path><path d="M743.777365 1024H273.478293c-11.398887 0-21.467904-5.129499-28.307235-14.43859-9.974026-13.678664-11.77885-35.146568-4.749537-57.374397l53.194806-167.848609c1.519852-4.844527 5.129499-8.739147 9.879035-10.638961 4.654545-1.899814 9.974026-1.614842 14.53358 0.759926 57.75436 30.776994 123.677922 47.020408 190.646383 47.020408s132.797032-16.243414 190.646382-47.020408c4.464564-2.374768 9.784045-2.65974 14.533581-0.759926 4.654545 1.899814 8.264193 5.794434 9.879035 10.638961l53.194805 167.848609c7.029314 22.227829 5.319481 43.695733-4.749536 57.374397-6.934323 9.309091-17.00334 14.43859-28.402227 14.43859z m-470.584044-34.19666H744.157328c1.519852-1.234879 5.319481-10.733952 0.094991-27.262338l-47.115399-148.755473c-58.134323 27.452319-122.823006 41.795918-188.366605 41.795918s-130.232282-14.43859-188.366604-41.890909L273.09833 962.541002c-5.22449 16.528386-1.519852 26.027458 0.094991 27.262338zM661.135436 495.566605H356.120223c-2.089796 0-4.179592-0.379963-6.174397-1.139889-17.763265-6.839332-24.98256-31.726902-17.953247-61.933952l51.105009-218.858627c4.179592-18.048237 18.33321-31.156957 33.531726-31.156957h183.90204c15.198516 0 29.352134 13.10872 33.531726 31.156957L685.26308 432.492764c7.029314 30.20705-0.189981 55.09462-17.953247 61.933952-1.994805 0.759926-3.98961 1.139889-6.174397 1.139889z m-297.035993-34.196661h288.961781c0.759926-4.084601 1.044898-11.398887-1.234879-21.182931l-51.105009-218.858627c-0.474954-2.184787-1.614842-3.799629-2.279778-4.654546H418.8141c-0.759926 0.854917-1.804824 2.469759-2.279777 4.654546l-51.105009 218.858627c-2.374768 9.784045-2.089796 17.09833-1.329871 21.182931zM508.675325 115.318738c-9.404082 0-17.09833-7.694249-17.098331-17.09833v-81.122078c0-9.404082 7.694249-17.09833 17.098331-17.09833s17.09833 7.694249 17.09833 17.09833v81.122078c0 9.404082-7.694249 17.09833-17.09833 17.09833zM216.768831 393.926531c-9.404082 0-17.09833-7.694249-17.09833-17.098331V295.706122c0-9.404082 7.694249-17.09833 17.09833-17.09833s17.09833 7.694249 17.09833 17.09833v81.122078c0 9.499072-7.694249 17.09833-17.09833 17.098331zM800.486827 393.926531c-9.404082 0-17.09833-7.694249-17.09833-17.098331V295.706122c0-9.404082 7.694249-17.09833 17.09833-17.09833s17.09833 7.694249 17.098331 17.09833v81.122078c0 9.499072-7.599258 17.09833-17.098331 17.098331z" fill="" p-id="36033"></path></svg>