<?xml version="1.0" standalone="no"?><!DOCTYPE svg PUBLIC "-//W3C//DTD SVG 1.1//EN" "http://www.w3.org/Graphics/SVG/1.1/DTD/svg11.dtd"><svg t="1689151673262" viewBox="0 0 1024 1024" version="1.1" xmlns="http://www.w3.org/2000/svg" p-id="42512" xmlns:xlink="http://www.w3.org/1999/xlink" width="200" height="200"><path d="M722.133333 178.133333H301.866667c-24.533333 0-44.8-20.266667-44.8-44.8 0-24.533333 20.266667-44.8 44.8-44.8h421.333333c24.533333 0 44.8 20.266667 44.8 44.8-1.066667 24.533333-21.333333 44.8-45.866667 44.8z m-420.266666-68.266666c-12.8 0-23.466667 10.666667-23.466667 23.466666 0 12.8 10.666667 23.466667 23.466667 23.466667h421.333333c12.8 0 23.466667-10.666667 23.466667-23.466667 0-12.8-10.666667-23.466667-23.466667-23.466666H301.866667z" fill="#251E1C" p-id="42513"></path><path d="M267.733333 857.6c-2.133333 0-4.266667 0-6.4-1.066667-8.533333-2.133333-17.066667-6.4-21.333333-14.933333s-7.466667-17.066667-5.333333-25.6l97.066666-650.666667c1.066667-5.333333 6.4-9.6 11.733334-8.533333 5.333333 1.066667 9.6 6.4 8.533333 11.733333l-97.066667 650.666667c-1.066667 4.266667 0 7.466667 2.133334 9.6s5.333333 4.266667 8.533333 5.333333c3.2 1.066667 6.4 0 9.6-2.133333 3.2-2.133333 4.266667-5.333333 5.333333-8.533333L394.666667 165.333333c1.066667-5.333333 6.4-9.6 12.8-8.533333 5.333333 1.066667 9.6 6.4 8.533333 12.8L300.8 829.866667c-2.133333 9.6-6.4 17.066667-14.933333 22.4-5.333333 3.2-11.733333 5.333333-18.133334 5.333333zM756.266667 857.6c-6.4 0-12.8-2.133333-19.2-5.333333-7.466667-5.333333-12.8-12.8-14.933334-21.333334l-113.066666-661.333333c-1.066667-5.333333 3.2-11.733333 8.533333-12.8 5.333333-1.066667 11.733333 3.2 12.8 8.533333l114.133333 660.266667c1.066667 3.2 2.133333 6.4 5.333334 7.466667 3.2 2.133333 6.4 2.133333 9.6 2.133333 7.466667-1.066667 11.733333-8.533333 10.666666-14.933333l-98.133333-650.666667c-1.066667-5.333333 3.2-11.733333 8.533333-11.733333 5.333333-1.066667 11.733333 3.2 11.733334 8.533333l97.066666 650.666667c3.2 18.133333-8.533333 36.266667-26.666666 39.466666-2.133333 1.066667-4.266667 1.066667-6.4 1.066667zM522.666667 935.466667c-8.533333 0-17.066667-3.2-23.466667-9.6-6.4-6.4-10.666667-14.933333-10.666667-23.466667l-6.4-733.866667c0-6.4 4.266667-10.666667 10.666667-10.666666 5.333333 0 10.666667 4.266667 10.666667 10.666666l6.4 733.866667c0 3.2 1.066667 6.4 4.266666 8.533333 2.133333 2.133333 5.333333 4.266667 9.6 3.2 3.2 0 6.4-1.066667 8.533334-4.266666s3.2-5.333333 3.2-9.6l-3.2-732.8c0-6.4 4.266667-10.666667 10.666666-10.666667s10.666667 4.266667 10.666667 10.666667l3.2 732.8c0 8.533333-3.2 17.066667-9.6 24.533333-6.4 6.4-14.933333 9.6-24.533333 10.666667z" fill="#251E1C" p-id="42514"></path><path d="M494.933333 515.2c-2.133333 0-4.266667 0-5.333333-1.066667l-134.4-81.066666c-5.333333-3.2-6.4-9.6-3.2-14.933334 3.2-5.333333 9.6-6.4 14.933333-3.2L501.333333 496c5.333333 3.2 6.4 9.6 3.2 14.933333-2.133333 2.133333-5.333333 4.266667-9.6 4.266667zM544 515.2c-3.2 0-6.4-2.133333-8.533333-4.266667-3.2-5.333333-2.133333-11.733333 3.2-14.933333l119.466666-81.066667c5.333333-3.2 11.733333-2.133333 14.933334 3.2 3.2 5.333333 2.133333 11.733333-3.2 14.933334l-119.466667 81.066666c-2.133333 1.066667-4.266667 1.066667-6.4 1.066667z" fill="#251E1C" p-id="42515"></path><path d="M360.533333 434.133333c-4.266667 0-8.533333-2.133333-9.6-6.4-2.133333-5.333333 0-11.733333 5.333334-13.866666l132.266666-55.466667c5.333333-2.133333 11.733333 0 13.866667 5.333333 2.133333 5.333333 0 11.733333-5.333333 13.866667l-132.266667 55.466667c-1.066667 1.066667-3.2 1.066667-4.266667 1.066666zM663.466667 434.133333c-1.066667 0-3.2 0-4.266667-1.066666l-119.466667-55.466667c-5.333333-2.133333-7.466667-8.533333-5.333333-13.866667 2.133333-5.333333 8.533333-7.466667 13.866667-5.333333l119.466666 55.466667c5.333333 2.133333 7.466667 8.533333 5.333334 13.866666-2.133333 4.266667-5.333333 6.4-9.6 6.4zM492.8 556.8c-2.133333 0-3.2 0-5.333333-1.066667l-139.733334-81.066666c-5.333333-3.2-6.4-9.6-4.266666-14.933334 3.2-5.333333 9.6-6.4 14.933333-4.266666l139.733333 81.066666c5.333333 3.2 6.4 9.6 4.266667 14.933334-2.133333 3.2-6.4 5.333333-9.6 5.333333zM544 556.8c-3.2 0-6.4-1.066667-8.533333-4.266667-3.2-5.333333-2.133333-11.733333 2.133333-14.933333l125.866667-87.466667c5.333333-3.2 11.733333-2.133333 14.933333 2.133334 3.2 5.333333 2.133333 11.733333-2.133333 14.933333L550.4 554.666667c-2.133333 1.066667-4.266667 2.133333-6.4 2.133333zM366.933333 394.666667c-4.266667 0-8.533333-2.133333-9.6-6.4-2.133333-5.333333 0-11.733333 5.333334-13.866667l126.933333-52.266667c5.333333-2.133333 11.733333 0 13.866667 5.333334 2.133333 5.333333 0 11.733333-5.333334 13.866666l-126.933333 53.333334h-4.266667zM657.066667 394.666667c-1.066667 0-3.2 0-4.266667-1.066667L540.8 341.333333c-5.333333-2.133333-7.466667-8.533333-5.333333-13.866666 2.133333-5.333333 8.533333-7.466667 13.866666-5.333334L661.333333 374.4c5.333333 2.133333 7.466667 8.533333 5.333334 13.866667-2.133333 4.266667-6.4 6.4-9.6 6.4z" fill="#251E1C" p-id="42516"></path></svg>