<?xml version="1.0" standalone="no"?><!DOCTYPE svg PUBLIC "-//W3C//DTD SVG 1.1//EN" "http://www.w3.org/Graphics/SVG/1.1/DTD/svg11.dtd"><svg t="1689150636101" viewBox="0 0 1024 1024" version="1.1" xmlns="http://www.w3.org/2000/svg" p-id="10530" xmlns:xlink="http://www.w3.org/1999/xlink" width="200" height="200"><path d="M196.2 507V375l16.2 18.4c9.8 11.1 24.7 16.3 40.1 12.3l11.6-3v76.5l-11.6-3c-15.3-4-30.3 1.2-40.1 12.3L196.2 507z m18.5-88.4v44.9c9.3-5 20-7.6 30.9-6.9v-31c-10.9 0.5-21.5-2-30.9-7zM779.5 425.6c-32.3 0-58.6-26.3-58.6-58.6s26.3-58.6 58.6-58.6 58.6 26.3 58.6 58.6-26.3 58.6-58.6 58.6z m0-98.7c-22.1 0-40.1 18-40.1 40.1s18 40.1 40.1 40.1 40.1-18 40.1-40.1-18-40.1-40.1-40.1z" fill="#353535" p-id="10531"></path><path d="M825.8 358.9l-16.2-18.4c-11.1-12.6-29.6-17-45.1-10.7l-12.7 5.2v-79.1c0-12.1-9.5-21.6-21.6-21.6H285.7c-12.1 0-21.6 9.5-21.6 21.6v75.3l-11.6-3c-15.3-4-30.3 1.2-40.1 12.3l-16.2 18.4V225c0-39.1 31.8-71 71-71h487.6c39.1 0 71 31.8 71 71v133.9zM267.2 172.6c-28.9 0-52.5 23.5-52.5 52.5v90.4c9.3-5 20-7.6 30.9-6.9v-52.5c0-22.5 17.6-40.1 40.1-40.1h444.4c22.5 0 40.1 17.6 40.1 40.1v53.2c12.6-2 25.9 0.3 37 6.3V225c0-28.9-23.5-52.5-52.5-52.5H267.2zM779.5 573.7c-32.3 0-58.6-26.3-58.6-58.6s26.3-58.6 58.6-58.6 58.6 26.3 58.6 58.6-26.3 58.6-58.6 58.6z m0-98.7c-22.1 0-40.1 18-40.1 40.1s18 40.1 40.1 40.1 40.1-18 40.1-40.1-18-40.1-40.1-40.1z" fill="#353535" p-id="10532"></path><path d="M825.8 507.1l-16.2-18.4c-11.1-12.6-29.6-17-45.1-10.7l-12.7 5.2V399l12.7 5.2c15.6 6.3 34 1.9 45.1-10.7l16.2-18.4v132z m-46.3-50.6c9.8 0 19.3 2.5 27.8 7v-44.9c-11.2 6-24.4 8.3-37 6.3v32.3c3-0.5 6.1-0.7 9.2-0.7zM779.5 721.9c-32.3 0-58.6-26.3-58.6-58.6s26.3-58.6 58.6-58.6 58.6 26.3 58.6 58.6-26.3 58.6-58.6 58.6z m0-98.8c-22.1 0-40.1 18-40.1 40.1s18 40.1 40.1 40.1 40.1-18 40.1-40.1-18-40.1-40.1-40.1z" fill="#353535" p-id="10533"></path><path d="M825.8 655.2l-16.2-18.4c-11.1-12.6-29.6-17-45.1-10.7l-12.7 5.2v-84.1l12.7 5.2c15.6 6.3 34 1.9 45.1-10.7l16.2-18.4v131.9z m-46.3-50.6c9.8 0 19.3 2.5 27.8 7v-44.9c-11.2 6-24.4 8.3-37 6.3v32.3c3-0.4 6.1-0.7 9.2-0.7zM242.5 425.6c-32.3 0-58.6-26.3-58.6-58.6s26.3-58.6 58.6-58.6 58.6 26.3 58.6 58.6-26.3 58.6-58.6 58.6z m0-98.7c-22.1 0-40.1 18-40.1 40.1s18 40.1 40.1 40.1 40.1-18 40.1-40.1-18-40.1-40.1-40.1zM242.5 573.7c-32.3 0-58.6-26.3-58.6-58.6s26.3-58.6 58.6-58.6 58.6 26.3 58.6 58.6-26.3 58.6-58.6 58.6z m0-98.7c-22.1 0-40.1 18-40.1 40.1s18 40.1 40.1 40.1 40.1-18 40.1-40.1-18-40.1-40.1-40.1zM242.5 721.9c-32.3 0-58.6-26.3-58.6-58.6s26.3-58.6 58.6-58.6 58.6 26.3 58.6 58.6c0.1 32.3-26.3 58.6-58.6 58.6z m0-98.8c-22.1 0-40.1 18-40.1 40.1s18 40.1 40.1 40.1 40.1-18 40.1-40.1-18-40.1-40.1-40.1z" fill="#353535" p-id="10534"></path><path d="M196.2 655.2v-132l16.2 18.4c9.8 11.1 24.7 16.3 40.1 12.3l11.6-3v76.5l-11.6-3c-15.3-4-30.3 1.2-40.1 12.3l-16.2 18.5z m18.5-88.5v44.9c9.3-5 20-7.6 30.9-6.9v-31c-10.9 0.5-21.5-1.9-30.9-7zM754.8 870H267.2c-39.1 0-71-31.8-71-71V671.3l16.2 18.4c9.8 11.1 24.7 16.3 40.1 12.3l11.6-3v75.3c0 12.1 9.5 21.6 21.6 21.6h444.4c12.1 0 21.6-9.5 21.6-21.6v-79.1l12.7 5.2c15.6 6.3 34 1.9 45.1-10.7l16.2-18.4V799c0.1 39.2-31.8 71-70.9 71zM214.7 714.8V799c0 28.9 23.5 52.5 52.5 52.5h487.6c28.9 0 52.5-23.5 52.5-52.5v-84.2c-11.2 6-24.4 8.3-37 6.3v53.2c0 22.5-17.6 40.1-40.1 40.1H285.7c-22.5 0-40.1-17.6-40.1-40.1v-52.5c-10.9 0.6-21.5-1.9-30.9-7zM377.948 434.495l86.408-86.408 13.081 13.082-86.407 86.407z" fill="#353535" p-id="10535"></path><path d="M396.47 483.899l86.407-86.408 13.082 13.082-86.408 86.407z" fill="#353535" p-id="10536"></path></svg>