<?xml version="1.0" standalone="no"?><!DOCTYPE svg PUBLIC "-//W3C//DTD SVG 1.1//EN" "http://www.w3.org/Graphics/SVG/1.1/DTD/svg11.dtd"><svg t="1689150622294" viewBox="0 0 1024 1024" version="1.1" xmlns="http://www.w3.org/2000/svg" p-id="10382" xmlns:xlink="http://www.w3.org/1999/xlink" width="200" height="200"><path d="M813.5 872.1L774.3 780V145.5c0-5.5-4.5-10-10-10H259.7c-5.5 0-10 4.5-10 10V780l-39.2 92.1c-1.3 3.1-1 6.6 0.9 9.4s5 4.5 8.3 4.5h584.7c3.4 0 6.5-1.7 8.3-4.5 1.8-2.8 2.1-6.3 0.8-9.4zM269.7 155.5h484.7V772h-50.9v-23h17.9c5.5 0 10-4.5 10-10V188.5c0-5.5-4.5-10-10-10H302.7c-5.5 0-10 4.5-10 10V739c0 5.5 4.5 10 10 10h304.5v23H436.7c-0.1-0.1-0.2-0.2-0.2-0.3-0.1-0.2-0.2-0.3-0.4-0.5-0.2-0.3-0.5-0.6-0.7-0.9-0.1-0.2-0.3-0.3-0.4-0.5l-0.9-0.9-0.3-0.3c-0.4-0.4-0.9-0.8-1.3-1.2-0.1-0.1-0.2-0.2-0.4-0.3-0.3-0.3-0.7-0.6-1.1-0.9-0.2-0.1-0.4-0.3-0.6-0.4-0.3-0.2-0.6-0.5-1-0.7-0.2-0.1-0.4-0.3-0.6-0.4-0.3-0.2-0.7-0.5-1.1-0.7-0.2-0.1-0.4-0.3-0.6-0.4-0.4-0.3-0.9-0.5-1.4-0.8-0.1-0.1-0.3-0.1-0.4-0.2l-1.8-0.9c-0.2-0.1-0.4-0.2-0.7-0.3-0.4-0.2-0.9-0.4-1.3-0.6-0.3-0.1-0.5-0.2-0.8-0.3-0.4-0.2-0.8-0.3-1.3-0.5-0.3-0.1-0.6-0.2-0.8-0.3-0.4-0.2-0.9-0.3-1.4-0.5-0.3-0.1-0.5-0.2-0.8-0.3-0.7-0.2-1.4-0.5-2.1-0.7-0.1 0-0.3-0.1-0.5-0.1-0.6-0.2-1.3-0.4-1.9-0.6-0.3-0.1-0.6-0.2-0.9-0.2-0.5-0.1-1-0.3-1.5-0.4-0.3-0.1-0.6-0.2-1-0.2-0.5-0.1-1-0.2-1.5-0.4-0.3-0.1-0.6-0.1-0.9-0.2-0.6-0.1-1.1-0.2-1.7-0.4-0.3-0.1-0.5-0.1-0.8-0.2-0.8-0.2-1.6-0.3-2.5-0.5-0.2 0-0.4-0.1-0.7-0.1-0.6-0.1-1.2-0.2-1.9-0.3-0.3 0-0.6-0.1-1-0.1-0.5-0.1-1.1-0.2-1.6-0.2-0.3 0-0.7-0.1-1-0.1-0.6-0.1-1.1-0.1-1.7-0.2-0.3 0-0.6-0.1-1-0.1-0.7-0.1-1.4-0.1-2.1-0.2-0.2 0-0.4 0-0.6-0.1-0.9-0.1-1.8-0.2-2.6-0.2-0.3 0-0.5 0-0.8-0.1-0.6 0-1.3-0.1-1.9-0.1h-1c-0.6 0-1.2-0.1-1.8-0.1h-13c-0.6 0-1.2 0-1.8 0.1h-1c-0.7 0-1.3 0.1-2 0.1h-0.7c-0.9 0.1-1.8 0.1-2.7 0.2h-0.4c-0.8 0.1-1.5 0.1-2.2 0.2-0.3 0-0.6 0.1-0.8 0.1-0.6 0.1-1.2 0.1-1.8 0.2-0.3 0-0.6 0.1-0.9 0.1l-1.8 0.3c-0.3 0-0.5 0.1-0.8 0.1-0.7 0.1-1.5 0.2-2.2 0.4-0.1 0-0.2 0-0.4 0.1-0.9 0.2-1.7 0.3-2.5 0.5-0.2 0-0.3 0.1-0.5 0.1-0.7 0.1-1.3 0.3-2 0.4-0.3 0.1-0.5 0.1-0.8 0.2-0.6 0.1-1.1 0.3-1.7 0.4-0.3 0.1-0.5 0.1-0.8 0.2-0.6 0.1-1.2 0.3-1.7 0.5-0.2 0.1-0.4 0.1-0.6 0.2-1.6 0.4-3.1 0.9-4.5 1.4-0.2 0.1-0.4 0.1-0.5 0.2-0.5 0.2-1.1 0.4-1.6 0.6-0.2 0.1-0.4 0.2-0.7 0.3l-1.5 0.6-0.6 0.3c-0.5 0.2-1 0.5-1.5 0.7-0.1 0.1-0.3 0.1-0.4 0.2-0.6 0.3-1.3 0.6-1.9 1 0 0-0.1 0-0.1 0.1-0.6 0.3-1.1 0.6-1.6 0.9-0.2 0.1-0.3 0.2-0.5 0.3-0.4 0.2-0.8 0.5-1.2 0.8-0.2 0.1-0.4 0.2-0.5 0.4-0.4 0.3-0.7 0.5-1.1 0.8-0.2 0.1-0.3 0.2-0.5 0.4-0.4 0.3-0.8 0.6-1.2 1-0.1 0.1-0.2 0.1-0.2 0.2-0.5 0.4-0.9 0.8-1.3 1.2l-0.3 0.3c-0.3 0.3-0.6 0.7-0.9 1-0.1 0.1-0.2 0.3-0.4 0.4-0.2 0.3-0.5 0.6-0.7 0.9-0.1 0.2-0.2 0.3-0.4 0.5-0.1 0.1-0.2 0.2-0.2 0.3h-45V155.5zM701 699.9l-18.2-20.7v-16.9c0-5.5-4.5-10-10-10h-7.4V637c8.7-2 13.8-6.9 13.8-13.7 0-9.1-9.1-14.7-23.8-14.7-11.7 0-19.9 3.6-22.7 9.7h-15.5c-1.4 0-2.8 0.6-3.7 1.6l-6.1 6.7c-1.9 2-1.7 5.2 0.3 7.1 1 0.9 2.2 1.3 3.4 1.3 1.4 0 2.7-0.6 3.7-1.6l4.6-5h13.2c1.9 4.2 6.3 7.2 12.7 8.7v15.3h-7.4c-5.5 0-10 4.5-10 10v16.9L609.7 700c-1.6 1.8-2.5 4.2-2.5 6.6V729H312.7V198.5h398.7V729h-7.9v-22.5c0-2.4-0.9-4.8-2.5-6.6zM627.2 782v-71.7l18.2-20.7c1.6-1.8 2.5-4.2 2.5-6.6v-10.7h14.9V683c0 2.4 0.9 4.8 2.5 6.6l18.2 20.7v119.1c-3.6 2-13.6 4.7-28.1 4.7-14.5 0-24.5-2.7-28.2-4.7V782z m-294.7 0c0.1-0.1 0.2-0.1 0.3-0.2 0.1 0 0.1-0.1 0.2-0.1 0.1-0.1 0.2-0.2 0.3-0.2 0.1 0 0.1-0.1 0.2-0.1 0.1-0.1 0.3-0.2 0.4-0.3 0.1 0 0.1-0.1 0.2-0.1 0.2-0.1 0.4-0.2 0.5-0.3l0.1-0.1c0.5-0.3 1-0.5 1.6-0.8 0 0 0.1 0 0.1-0.1 0.2-0.1 0.5-0.2 0.7-0.3 0.1 0 0.2-0.1 0.3-0.1 0.2-0.1 0.5-0.2 0.7-0.3 0.1 0 0.2-0.1 0.3-0.1 0.2-0.1 0.5-0.2 0.7-0.3 0.1 0 0.3-0.1 0.4-0.2 0.2-0.1 0.5-0.2 0.7-0.3 0.1-0.1 0.3-0.1 0.4-0.2 0.2-0.1 0.5-0.2 0.7-0.3 0.2-0.1 0.3-0.1 0.5-0.2 0.3-0.1 0.5-0.2 0.8-0.2 0.2-0.1 0.3-0.1 0.5-0.2 0.3-0.1 0.5-0.2 0.8-0.2 0.2-0.1 0.3-0.1 0.5-0.2 0.3-0.1 0.6-0.2 0.9-0.2 0.2 0 0.3-0.1 0.5-0.1 0.3-0.1 0.6-0.2 1-0.2 0.2 0 0.3-0.1 0.5-0.1 0.4-0.1 0.8-0.2 1.1-0.3 0.1 0 0.2-0.1 0.4-0.1 1-0.2 2.1-0.5 3.3-0.7 0.1 0 0.3-0.1 0.4-0.1 0.4-0.1 0.8-0.2 1.3-0.2 0.2 0 0.4-0.1 0.6-0.1 0.4-0.1 0.8-0.1 1.1-0.2 0.2 0 0.5-0.1 0.7-0.1 0.4-0.1 0.7-0.1 1.1-0.2 0.3 0 0.5-0.1 0.8-0.1 0.4 0 0.7-0.1 1.1-0.1 0.3 0 0.6-0.1 0.8-0.1 0.4 0 0.8-0.1 1.1-0.1 0.3 0 0.6-0.1 0.9-0.1 0.4 0 0.8-0.1 1.2-0.1 0.3 0 0.6-0.1 0.9-0.1 0.4 0 0.8-0.1 1.2-0.1 0.3 0 0.6 0 0.9-0.1 0.4 0 0.8-0.1 1.3-0.1h0.9c0.4 0 0.9 0 1.4-0.1H381c0.5 0 0.9 0 1.4 0.1h0.9c0.4 0 0.9 0 1.3 0.1 0.3 0 0.6 0 0.9 0.1 0.4 0 0.8 0.1 1.2 0.1 0.3 0 0.6 0.1 0.9 0.1 0.4 0 0.8 0.1 1.2 0.1 0.3 0 0.6 0.1 0.9 0.1 0.4 0 0.8 0.1 1.1 0.1 0.3 0 0.6 0.1 0.8 0.1 0.4 0 0.8 0.1 1.1 0.1 0.3 0 0.5 0.1 0.8 0.1 0.4 0.1 0.7 0.1 1.1 0.2 0.2 0 0.5 0.1 0.7 0.1 0.4 0.1 0.8 0.1 1.2 0.2 0.2 0 0.4 0.1 0.6 0.1 0.4 0.1 0.9 0.2 1.3 0.2 0.1 0 0.3 0.1 0.4 0.1 1.1 0.2 2.2 0.4 3.3 0.7 0.1 0 0.3 0.1 0.4 0.1 0.4 0.1 0.8 0.2 1.1 0.3 0.2 0 0.3 0.1 0.5 0.1 0.3 0.1 0.6 0.2 1 0.2 0.2 0 0.3 0.1 0.5 0.1 0.3 0.1 0.6 0.2 0.9 0.2 0.2 0.1 0.4 0.1 0.5 0.2 0.3 0.1 0.5 0.2 0.8 0.2 0.2 0.1 0.3 0.1 0.5 0.2 0.3 0.1 0.5 0.2 0.8 0.2 0.2 0.1 0.3 0.1 0.5 0.2s0.5 0.2 0.7 0.2c0.2 0.1 0.3 0.1 0.5 0.2s0.5 0.2 0.7 0.3c0.1 0.1 0.3 0.1 0.4 0.2 0.2 0.1 0.4 0.2 0.7 0.3 0.1 0 0.3 0.1 0.4 0.2l0.6 0.3c0.1 0 0.2 0.1 0.3 0.1 0.2 0.1 0.5 0.2 0.7 0.3 0.1 0 0.1 0.1 0.2 0.1 0.6 0.3 1.1 0.5 1.6 0.8 0.1 0 0.1 0.1 0.2 0.1 0.2 0.1 0.3 0.2 0.5 0.3 0.1 0 0.2 0.1 0.2 0.1 0.1 0.1 0.3 0.2 0.4 0.2 0.1 0.1 0.2 0.1 0.2 0.2 0.1 0.1 0.2 0.1 0.3 0.2l0.2 0.2c0.1 0.1 0.2 0.1 0.3 0.2l0.2 0.2 0.1 0.1c-0.1 0-0.1 0.1-0.2 0.1l-0.2 0.2c-0.1 0.1-0.2 0.1-0.3 0.2l-0.2 0.2c-0.1 0.1-0.2 0.1-0.3 0.2-0.1 0.1-0.2 0.1-0.2 0.2-0.2 0.1-0.3 0.2-0.5 0.3-0.1 0.1-0.3 0.1-0.4 0.2-0.1 0.1-0.3 0.2-0.4 0.2-0.1 0.1-0.2 0.1-0.3 0.2-0.1 0.1-0.3 0.1-0.4 0.2-0.1 0.1-0.3 0.1-0.4 0.2-0.1 0.1-0.3 0.1-0.4 0.2-0.1 0.1-0.3 0.1-0.4 0.2-0.2 0.1-0.3 0.1-0.5 0.2s-0.3 0.1-0.5 0.2-0.3 0.1-0.5 0.2-0.3 0.1-0.5 0.2-0.3 0.1-0.5 0.2-0.4 0.1-0.5 0.2c-0.2 0.1-0.4 0.1-0.6 0.2-0.2 0.1-0.4 0.1-0.6 0.2-0.2 0.1-0.4 0.1-0.6 0.2-0.2 0.1-0.4 0.1-0.6 0.2-0.2 0.1-0.4 0.1-0.6 0.2-0.2 0.1-0.4 0.1-0.6 0.2-0.2 0.1-0.5 0.1-0.7 0.2-0.2 0.1-0.4 0.1-0.6 0.2-0.2 0.1-0.5 0.1-0.7 0.2-0.2 0.1-0.4 0.1-0.6 0.2-0.3 0.1-0.6 0.1-0.8 0.2-0.2 0.1-0.4 0.1-0.6 0.2-0.4 0.1-0.9 0.2-1.3 0.3-0.2 0-0.3 0.1-0.5 0.1-0.4 0.1-0.8 0.2-1.3 0.3-0.2 0-0.4 0.1-0.7 0.1-0.3 0.1-0.7 0.1-1 0.2-0.2 0-0.5 0.1-0.7 0.1-0.3 0.1-0.6 0.1-1 0.2-0.3 0-0.5 0.1-0.8 0.1-0.3 0.1-0.7 0.1-1 0.2-0.3 0-0.5 0.1-0.8 0.1-0.3 0-0.7 0.1-1 0.1-0.3 0-0.6 0.1-0.9 0.1-0.3 0-0.7 0.1-1.1 0.1-0.3 0-0.6 0.1-0.9 0.1-0.4 0-0.7 0.1-1.1 0.1-0.3 0-0.6 0.1-0.9 0.1-0.4 0-0.7 0.1-1.1 0.1-0.3 0-0.6 0.1-0.9 0.1-0.4 0-0.8 0.1-1.2 0.1-0.3 0-0.6 0-0.9 0.1-0.4 0-0.8 0-1.2 0.1h-0.9c-0.4 0-0.9 0-1.4 0.1H370c-0.5 0-0.9 0-1.4-0.1h-0.9c-0.4 0-0.8 0-1.3-0.1-0.3 0-0.6 0-0.9-0.1-0.4 0-0.8-0.1-1.2-0.1-0.3 0-0.6-0.1-0.9-0.1-0.4 0-0.8-0.1-1.2-0.1-0.3 0-0.6-0.1-0.9-0.1-0.4 0-0.7-0.1-1.1-0.1-0.3 0-0.6-0.1-0.9-0.1-0.4 0-0.7-0.1-1.1-0.1-0.3 0-0.5-0.1-0.8-0.1-0.4 0-0.7-0.1-1.1-0.2-0.3 0-0.5-0.1-0.8-0.1-0.4-0.1-0.7-0.1-1.1-0.2-0.2 0-0.5-0.1-0.7-0.1-0.4-0.1-0.7-0.1-1.1-0.2-0.2 0-0.4-0.1-0.6-0.1-0.4-0.1-0.8-0.2-1.2-0.2-0.2 0-0.3-0.1-0.5-0.1-1.1-0.2-2.1-0.5-3.1-0.7-0.1 0-0.3-0.1-0.4-0.1-0.4-0.1-0.7-0.2-1-0.3-0.2 0-0.3-0.1-0.5-0.1-0.3-0.1-0.6-0.2-0.9-0.2-0.2-0.1-0.4-0.1-0.5-0.2-0.3-0.1-0.5-0.2-0.8-0.2-0.2-0.1-0.4-0.1-0.5-0.2-0.2-0.1-0.5-0.2-0.7-0.2-0.2-0.1-0.3-0.1-0.5-0.2s-0.5-0.2-0.7-0.2c-0.2-0.1-0.3-0.1-0.5-0.2s-0.4-0.2-0.6-0.2c-0.2-0.1-0.3-0.1-0.5-0.2s-0.4-0.2-0.6-0.2c-0.1-0.1-0.3-0.1-0.4-0.2-0.2-0.1-0.4-0.2-0.5-0.2-0.1-0.1-0.3-0.1-0.4-0.2-0.2-0.1-0.3-0.2-0.5-0.2-0.1-0.1-0.3-0.1-0.4-0.2-0.2-0.1-0.3-0.2-0.5-0.2-0.1-0.1-0.2-0.1-0.3-0.2-0.2-0.1-0.3-0.2-0.5-0.3-0.1 0-0.2-0.1-0.3-0.1-0.2-0.1-0.4-0.2-0.5-0.3-0.1 0-0.1-0.1-0.2-0.1l-0.6-0.3c-0.1-0.1-0.1-0.1-0.2-0.1-0.1-0.1-0.2-0.1-0.3-0.2l-0.2-0.2c-0.1-0.1-0.2-0.1-0.3-0.2l-0.2-0.2c-0.1 0-0.1-0.1-0.2-0.1l0.1-0.1c0.3-0.3 0.4-0.3 0.4-0.4z m-1 22.5c0.2 0.1 0.3 0.1 0.5 0.2l1.5 0.6c0.2 0.1 0.4 0.2 0.6 0.2l4.5 1.5c0.2 0.1 0.5 0.1 0.7 0.2 0.6 0.2 1.1 0.3 1.7 0.5 0.3 0.1 0.6 0.1 0.8 0.2 0.5 0.1 1.1 0.3 1.6 0.4 0.3 0.1 0.6 0.1 0.8 0.2 0.6 0.1 1.2 0.3 1.9 0.4 0.2 0 0.4 0.1 0.6 0.1 0.8 0.2 1.7 0.3 2.6 0.5 0.1 0 0.3 0 0.4 0.1 0.7 0.1 1.4 0.2 2.2 0.4 0.3 0 0.6 0.1 0.8 0.1l1.8 0.3c0.3 0 0.6 0.1 0.9 0.1 0.6 0.1 1.2 0.2 1.8 0.2 0.3 0 0.6 0.1 0.9 0.1 0.7 0.1 1.5 0.2 2.2 0.2h0.5c0.9 0.1 1.8 0.2 2.7 0.2 0.2 0 0.5 0 0.7 0.1 0.7 0 1.3 0.1 2 0.1h1c0.6 0 1.2 0.1 1.8 0.1h1c0.6 0 1.3 0 1.9 0.1h7.4c0.6 0 1.3 0 1.9-0.1h1c0.6 0 1.2-0.1 1.8-0.1h1c0.7 0 1.3-0.1 2-0.1 0.2 0 0.5 0 0.7-0.1 0.9-0.1 1.8-0.1 2.7-0.2h0.5c0.7-0.1 1.5-0.1 2.2-0.2 0.3 0 0.6-0.1 0.9-0.1 0.6-0.1 1.2-0.1 1.8-0.2 0.3 0 0.6-0.1 0.9-0.1l1.8-0.3c0.3 0 0.6-0.1 0.8-0.1 0.7-0.1 1.5-0.2 2.2-0.4 0.1 0 0.3 0 0.4-0.1 0.9-0.2 1.7-0.3 2.6-0.5 0.2 0 0.4-0.1 0.6-0.1 0.6-0.1 1.3-0.3 1.9-0.4 0.3-0.1 0.5-0.1 0.8-0.2 0.6-0.1 1.1-0.3 1.7-0.4 0.3-0.1 0.6-0.1 0.8-0.2 0.6-0.2 1.1-0.3 1.7-0.5 0.2-0.1 0.5-0.1 0.7-0.2 1.6-0.5 3.1-0.9 4.5-1.5 0.2-0.1 0.4-0.2 0.6-0.2l1.5-0.6c0.2-0.1 0.3-0.1 0.5-0.2V824c-2.6 3.2-17.8 10.1-44.2 10.1s-41.7-6.9-44.2-10.1v-19.5zM234.8 866l31.5-74h45.2v32.8c0 20.3 32.3 29.4 64.2 29.4s64.2-9.1 64.2-29.4V792h167.2v40c0 16.3 24.9 22.1 48.2 22.1s48.1-5.8 48.1-22.1v-40h54.2l31.5 74H234.8z" fill="" p-id="10383"></path><path d="M636.8 244.6l-276 276c-3.9 3.9-3.9 10.2 0 14.1 2 2 4.5 2.9 7.1 2.9s5.1-1 7.1-2.9l276-276c3.9-3.9 3.9-10.2 0-14.1-4-3.9-10.3-3.9-14.2 0zM379.7 435.4c2.6 0 5.1-1 7.1-2.9l161.8-161.8c3.9-3.9 3.9-10.2 0-14.1-3.9-3.9-10.2-3.9-14.1 0L372.7 418.3c-3.9 3.9-3.9 10.2 0 14.1 1.9 2 4.5 3 7 3z" fill="" p-id="10384"></path></svg>