<?xml version="1.0" standalone="no"?><!DOCTYPE svg PUBLIC "-//W3C//DTD SVG 1.1//EN" "http://www.w3.org/Graphics/SVG/1.1/DTD/svg11.dtd"><svg t="1689152383051" viewBox="0 0 1024 1024" version="1.1" xmlns="http://www.w3.org/2000/svg" p-id="68566" xmlns:xlink="http://www.w3.org/1999/xlink" width="200" height="200"><path d="M789.333333 362.666667H426.666667a64 64 0 0 0-51.2 25.6L341.333333 433.706667V106.666667a64 64 0 0 0-64-64h-42.666666a64 64 0 0 0-64 64v490.666666a213.333333 213.333333 0 0 0 213.333333 213.333334h42.666667v106.666666a64 64 0 0 0 64 64h42.666666a64 64 0 0 0 64-64v-106.666666h42.666667a213.333333 213.333333 0 0 0 213.333333-213.333334v-170.666666a64 64 0 0 0-64-64zM213.333333 106.666667a21.333333 21.333333 0 0 1 21.333334-21.333334h42.666666a21.333333 21.333333 0 0 1 21.333334 21.333334v341.333333h-85.333334V106.666667z m341.333334 810.666666a21.333333 21.333333 0 0 1-21.333334 21.333334h-42.666666a21.333333 21.333333 0 0 1-21.333334-21.333334v-21.333333h85.333334v21.333333z m0-64h-85.333334v-42.666666h85.333334v42.666666z m256-256a170.666667 170.666667 0 0 1-170.666667 170.666667H384a170.666667 170.666667 0 0 1-170.666667-170.666667v-106.666666h597.333334v106.666666z m-426.666667-149.333333l25.6-34.133333a21.333333 21.333333 0 0 1 17.066667-8.533334h362.666666a21.333333 21.333333 0 0 1 21.333334 21.333334v21.333333H384z" fill="#2c2c2c" p-id="68567"></path></svg>