<?xml version="1.0" standalone="no"?><!DOCTYPE svg PUBLIC "-//W3C//DTD SVG 1.1//EN" "http://www.w3.org/Graphics/SVG/1.1/DTD/svg11.dtd"><svg t="1689151526098" viewBox="0 0 1024 1024" version="1.1" xmlns="http://www.w3.org/2000/svg" p-id="39012" xmlns:xlink="http://www.w3.org/1999/xlink" width="200" height="200"><path d="M181.1 405.8h-15.3V148.2c0-30.1 24.5-54.7 54.7-54.7h581.2c30.1 0 54.7 24.5 54.7 54.7v244.6H841V148.2c0-21.7-17.6-39.3-39.3-39.3H220.4c-21.7 0-39.3 17.6-39.3 39.3v257.6zM200.1 541.8l-7.3-13.5c328.9-178.2 633.7-1.7 636.8 0.1l-7.8 13.2c-3.1-1.7-300.6-173.7-621.7 0.2z" fill="#023544" p-id="39013"></path><path d="M890.2 790.7H124.1c-32 0-58.1-27-58.1-60.1V447.8c0-33.1 26-60.1 58.1-60.1h19.3c32 0 58.1 27 58.1 60.1v138.5c0 5.8 4.4 10.5 9.8 10.5h599.6c5.4 0 9.8-4.7 9.8-10.5V438.8c0-33.1 26-60.1 58.1-60.1H898c32 0 58.1 27 58.1 60.1v283.5c0 37.7-29.6 68.4-65.9 68.4zM124.1 403c-23.6 0-42.7 20.1-42.7 44.8v282.8c0 24.7 19.2 44.8 42.7 44.8h766.1c27.9 0 50.6-23.7 50.6-52.9V438.8c0-24.7-19.2-44.8-42.7-44.8h-19.3c-23.6 0-42.7 20.1-42.7 44.8v147.5c0 14.3-11.3 25.9-25.2 25.9H211.2c-13.9 0-25.2-11.6-25.2-25.9V447.8c0-24.7-19.2-44.8-42.7-44.8h-19.2zM334 240.6c-9.2 0-16.7-7.5-16.7-16.7s7.5-16.7 16.7-16.7 16.7 7.5 16.7 16.7c-0.1 9.2-7.5 16.7-16.7 16.7z m0-29.5c-7.1 0-12.8 5.8-12.8 12.8 0 7.1 5.8 12.8 12.8 12.8 7.1 0 12.8-5.8 12.8-12.8 0-7-5.8-12.8-12.8-12.8zM506.1 240.6c-9.2 0-16.7-7.5-16.7-16.7s7.5-16.7 16.7-16.7 16.7 7.5 16.7 16.7-7.5 16.7-16.7 16.7z m0-29.5c-7.1 0-12.8 5.8-12.8 12.8 0 7.1 5.8 12.8 12.8 12.8 7.1 0 12.8-5.8 12.8-12.8 0.1-7-5.7-12.8-12.8-12.8zM672.2 233.5c-9.5 0-17.3-7.7-17.3-17.3 0-9.5 7.7-17.3 17.3-17.3 9.5 0 17.3 7.7 17.3 17.3-0.1 9.6-7.8 17.3-17.3 17.3z m0-30.7c-7.4 0-13.4 6-13.4 13.4s6 13.4 13.4 13.4 13.4-6 13.4-13.4c0-7.3-6-13.4-13.4-13.4zM334 329.2c-9.2 0-16.7-7.5-16.7-16.7s7.5-16.7 16.7-16.7 16.7 7.5 16.7 16.7-7.5 16.7-16.7 16.7z m0-29.6c-7.1 0-12.8 5.8-12.8 12.8s5.8 12.8 12.8 12.8c7.1 0 12.8-5.8 12.8-12.8s-5.8-12.8-12.8-12.8zM506.1 325.6c-9.5 0-17.3-7.7-17.3-17.3 0-9.5 7.7-17.3 17.3-17.3s17.3 7.7 17.3 17.3c0 9.6-7.8 17.3-17.3 17.3z m0-30.7c-7.4 0-13.4 6-13.4 13.4s6 13.4 13.4 13.4 13.4-6 13.4-13.4-6-13.4-13.4-13.4zM672.2 325.6c-9.5 0-17.3-7.7-17.3-17.3 0-9.5 7.7-17.3 17.3-17.3 9.5 0 17.3 7.7 17.3 17.3-0.1 9.6-7.8 17.3-17.3 17.3z m0-30.7c-7.4 0-13.4 6-13.4 13.4s6 13.4 13.4 13.4 13.4-6 13.4-13.4-6-13.4-13.4-13.4z" fill="#023544" p-id="39014"></path><path d="M334 417.7c-9.2 0-16.7-7.5-16.7-16.7s7.5-16.7 16.7-16.7 16.7 7.5 16.7 16.7c-0.1 9.2-7.5 16.7-16.7 16.7z m0-29.5c-7.1 0-12.8 5.8-12.8 12.8 0 7.1 5.8 12.8 12.8 12.8 7.1 0 12.8-5.8 12.8-12.8 0-7.1-5.8-12.8-12.8-12.8zM506.1 417.7c-9.5 0-17.3-7.7-17.3-17.3s7.7-17.3 17.3-17.3 17.3 7.7 17.3 17.3-7.8 17.3-17.3 17.3z m0-30.7c-7.4 0-13.4 6-13.4 13.4s6 13.4 13.4 13.4 13.4-6 13.4-13.4-6-13.4-13.4-13.4zM672.2 417.7c-9.5 0-17.3-7.7-17.3-17.3s7.7-17.3 17.3-17.3c9.5 0 17.3 7.7 17.3 17.3s-7.8 17.3-17.3 17.3z m0-30.7c-7.4 0-13.4 6-13.4 13.4s6 13.4 13.4 13.4 13.4-6 13.4-13.4-6-13.4-13.4-13.4z" fill="#023544" p-id="39015"></path><path d="M782.5 876.2h-51.8c-23.8 0-43.2-19.4-43.2-43.2l15.5-83.9c-0.1-22.4 19.2-41.8 43-41.8h21.1c23.8 0 43.2 19.4 43.2 43.2l15.2 81.1c0.1 25.2-19.2 44.6-43 44.6zM746 722.7c-15.3 0-27.8 12.5-27.8 27.8l-15.5 83.9c0.1 13.9 12.6 26.4 27.9 26.4h51.8c15.3 0 27.8-12.5 27.8-27.8L795 751.9c-0.1-16.7-12.6-29.2-27.9-29.2H746z" fill="#023544" p-id="39016"></path><path d="M276 876.2h-51.8c-23.8 0-43.2-19.4-43.2-43.2l15.5-83.9c-0.1-22.4 19.2-41.8 43-41.8h21.1c23.8 0 43.2 19.4 43.2 43.2l15.2 81.1c0.2 25.2-19.2 44.6-43 44.6z m-36.4-153.5c-15.3 0-27.8 12.5-27.8 27.8l-15.5 83.9c0.1 13.9 12.6 26.4 27.9 26.4H276c15.3 0 27.8-12.5 27.8-27.8l-15.2-81.1c-0.1-16.7-12.6-29.2-27.9-29.2h-21.1z" fill="#023544" p-id="39017"></path></svg>