<?xml version="1.0" standalone="no"?><!DOCTYPE svg PUBLIC "-//W3C//DTD SVG 1.1//EN" "http://www.w3.org/Graphics/SVG/1.1/DTD/svg11.dtd"><svg t="1689151534983" viewBox="0 0 1024 1024" version="1.1" xmlns="http://www.w3.org/2000/svg" p-id="39163" xmlns:xlink="http://www.w3.org/1999/xlink" width="200" height="200"><path d="M660.48 468.309333H358.4c-24.576 0-44.714667-20.138667-44.714667-44.714666V159.744c0-30.378667 24.917333-55.296 55.296-55.296h280.917334c30.378667 0 55.296 24.917333 55.296 55.296v264.192c0 24.576-19.797333 44.373333-44.714667 44.373333zM368.981333 121.514667c-21.162667 0-38.229333 17.066667-38.229333 38.229333v264.192c0 15.36 12.288 27.648 27.648 27.648h302.421333c15.36 0 27.648-12.288 27.648-27.648V159.744c0-21.162667-17.066667-38.229333-38.229333-38.229333h-281.258667z" fill="" p-id="39164"></path><path d="M728.405333 584.021333H290.474667c-28.330667 0-51.2-22.869333-51.2-51.2v-5.12c0-41.984 34.133333-76.458667 76.458666-76.458666H703.146667c41.984 0 76.458667 34.133333 76.458666 76.458666v5.12c0 28.330667-22.869333 51.2-51.2 51.2zM315.733333 468.309333c-32.768 0-59.392 26.624-59.392 59.392v5.12c0 18.773333 15.36 34.133333 34.133334 34.133334h437.930666c18.773333 0 34.133333-15.36 34.133334-34.133334v-5.12c0-32.768-26.624-59.392-59.392-59.392H315.733333z" fill="" p-id="39165"></path><path d="M924.330667 751.274667H109.909333c-30.037333 0-54.613333-24.576-54.613333-54.613334V316.074667c0-30.037333 24.576-54.613333 54.613333-54.613334h56.32c37.205333 0 67.584 30.378667 67.584 67.584v188.757334c0 36.181333 29.696 65.877333 65.877334 65.877333h407.552c36.181333 0 65.877333-29.696 65.877333-65.877333V337.237333c0-41.984 34.133333-76.117333 76.117333-76.117333h75.093334c30.037333 0 54.613333 24.576 54.613333 54.613333V696.32c0.341333 30.72-24.234667 54.954667-54.613333 54.954667zM109.909333 278.528c-20.821333 0-37.546667 16.725333-37.546666 37.546667v380.586666c0 20.821333 16.725333 37.546667 37.546666 37.546667h814.421334c20.821333 0 37.546667-16.725333 37.546666-37.546667V316.074667c0-20.821333-16.725333-37.546667-37.546666-37.546667h-75.093334c-32.426667 0-59.050667 26.282667-59.050666 59.050667v180.224c0 45.738667-37.205333 82.944-82.944 82.944H300.032c-45.738667 0-82.944-37.205333-82.944-82.944V329.045333c0-27.989333-22.869333-50.517333-50.517333-50.517333H109.909333z" fill="" p-id="39166"></path><path d="M738.304 852.650667c-10.922667 0-19.456-8.874667-19.456-19.456v-67.242667c0-10.922667 8.874667-19.456 19.456-19.456 10.922667 0 19.456 8.874667 19.456 19.456V832.853333c0 10.922667-8.874667 19.797333-19.456 19.797334z m0-89.429334c-1.365333 0-2.389333 1.024-2.389333 2.389334V832.853333c0 1.365333 1.024 2.389333 2.389333 2.389334 1.365333 0 2.389333-1.024 2.389333-2.389334v-67.242666c0-1.365333-1.024-2.389333-2.389333-2.389334zM278.869333 852.650667c-10.922667 0-19.456-8.874667-19.456-19.456v-67.242667c0-10.922667 8.874667-19.456 19.456-19.456 10.922667 0 19.456 8.874667 19.456 19.456V832.853333c0.341333 10.922667-8.533333 19.797333-19.456 19.797334z m0-89.429334c-1.365333 0-2.389333 1.024-2.389333 2.389334V832.853333c0 1.365333 1.024 2.389333 2.389333 2.389334 1.365333 0 2.389333-1.024 2.389334-2.389334v-67.242666c0.341333-1.365333-1.024-2.389333-2.389334-2.389334z" fill="" p-id="39167"></path></svg>