<?xml version="1.0" standalone="no"?><!DOCTYPE svg PUBLIC "-//W3C//DTD SVG 1.1//EN" "http://www.w3.org/Graphics/SVG/1.1/DTD/svg11.dtd"><svg t="1689150383430" viewBox="0 0 1024 1024" version="1.1" xmlns="http://www.w3.org/2000/svg" p-id="5245" xmlns:xlink="http://www.w3.org/1999/xlink" width="200" height="200"><path d="M361.278942 917.121646H274.346196c-6.77398 0-12.418964-5.644983-12.418963-12.418963v-153.167218c-89.190739-69.621463-139.99559-173.865491-139.99559-286.76516v-7.526645h728.202866v7.526645c0 200.585079-163.328188 363.913267-363.913267 363.913267-38.385888 0-76.019111-6.021316-112.523337-17.687615v93.706726c0 6.77398-5.644983 12.418964-12.418963 12.418963z m-83.922088-15.053289h81.287762v-112.147005l10.16097 3.763323c37.633223 13.54796 77.148107 20.32194 117.415656 20.32194 190.047777 0 344.720323-152.414553 348.859978-341.333333H137.361264c2.257993 106.502021 51.933848 204.724734 136.984932 269.830209l3.010658 2.257994v157.306872z" fill="#666666" p-id="5246"></path><path d="M233.325983 472.29695H133.974274c-6.397648 0-11.289967-4.892319-11.289967-11.289967v-312.355752c0-6.397648 4.892319-11.289967 11.289967-11.289967H233.325983c6.397648 0 11.289967 4.892319 11.289967 11.289967v312.355752c0 6.397648-5.268651 11.289967-11.289967 11.289967z m-95.588387-15.05329H229.562661v-304.829107H137.737596v304.829107z" fill="#666666" p-id="5247"></path><path d="M194.187431 322.893054c-4.139655 0-7.526645-3.38699-7.526645-7.526645V229.938993c0-4.139655 3.38699-7.526645 7.526645-7.526645s7.526645 3.38699 7.526645 7.526645v85.427416c0 4.139655-3.38699 7.526645-7.526645 7.526645zM839.597207 429.771408H305.958104c-13.171628 0-23.708931-10.537302-23.708931-23.708931s10.537302-23.708931 23.708931-23.708931h533.639103c13.171628 0 23.708931 10.537302 23.70893 23.708931s-10.537302 23.708931-23.70893 23.708931z m-533.639103-32.364572c-4.892319 0-8.655641 3.763322-8.655642 8.655641s3.763322 8.655641 8.655642 8.655641h533.639103c4.892319 0 8.655641-3.763322 8.655641-8.655641s-3.763322-8.655641-8.655641-8.655641H305.958104zM490.360897 728.202867c-43.654539 0-89.943403-13.924293-89.943403-39.514885 0-10.16097 7.526645-19.569276 21.827269-26.343256-4.892319-6.021316-6.021316-11.666299-6.021316-16.182286 0-11.666299 8.655641-22.203602 24.461595-29.730246-1.881661-4.139655-3.010658-8.655641-3.010658-13.171628 0-22.203602 23.332598-39.514884 53.062845-39.514884s53.062845 17.311283 53.062845 39.514884c0 4.515987-1.128997 9.031974-3.010658 13.171628 15.429621 7.150312 24.461595 17.687615 24.461595 29.730246 0 4.515987-1.128997 10.16097-6.021316 16.182286 14.300625 7.150312 21.827269 16.182286 21.827269 26.343256-0.752664 25.966924-47.041529 39.514884-90.696067 39.514885z m0-149.027564c-20.698273 0-38.009555 11.289967-38.009556 24.461595 0 4.139655 1.505329 7.902977 4.892319 11.666299l7.150313 8.279309-10.537303 3.763323c-13.924293 4.892319-22.956266 12.042631-22.956266 18.816611 0 5.268651 5.644983 10.16097 9.031974 12.418964l12.795296 8.655641-14.300625 4.892319c-16.93495 5.644983-23.332598 12.795296-23.332598 16.934951 0 10.16097 29.353914 24.461595 74.890113 24.461595s74.890114-14.676957 74.890114-24.461595c0-4.139655-6.021316-11.289967-23.332598-16.934951l-14.300625-4.892319 12.795296-8.655641c3.38699-2.257993 9.031974-6.77398 9.031974-12.418964 0-6.77398-9.031974-14.300625-22.956266-18.816611l-10.537303-3.763323 7.150313-8.279309c3.38699-3.763322 4.892319-7.526645 4.892319-11.666299 0.376332-13.54796-16.93495-24.461595-37.256891-24.461595z" fill="#666666" p-id="5248"></path><path d="M506.919515 579.175303h-57.578831l17.311282-13.54796s7.902977-7.150312 7.902977-26.343256c0-9.408306 4.139655-12.795296 7.902977-13.924293 6.397648-1.881661 13.171628 3.010658 20.32194 14.676957 2.634326 4.139655 15.429621 26.343256 6.021316 36.504227l-1.881661 2.634325z m-21.450937-15.053289h12.042631c-1.128997-4.515987-4.515987-12.042631-7.902977-17.311283-0.752664 7.150312-2.257993 12.795296-4.139654 17.311283z" fill="#666666" p-id="5249"></path></svg>