<?xml version="1.0" standalone="no"?><!DOCTYPE svg PUBLIC "-//W3C//DTD SVG 1.1//EN" "http://www.w3.org/Graphics/SVG/1.1/DTD/svg11.dtd"><svg t="1689152374873" viewBox="0 0 1024 1024" version="1.1" xmlns="http://www.w3.org/2000/svg" p-id="68378" xmlns:xlink="http://www.w3.org/1999/xlink" width="200" height="200"><path d="M505.790518 981.85079l-201.714076-1.505329v-305.581771c-94.083058-71.879456-147.898567-180.639471-147.898566-298.807791v-7.526645h751.535465v7.526645c0 87.309078-48.170526 175.747152-135.855936 248.755604-75.642778 63.223815-174.618155 108.383682-266.066887 122.684307v234.45498z m-186.660786-16.558618l171.607497 1.128997V733.84785l6.397648-0.752664c90.319735-12.418964 189.671444-57.202499 264.93789-120.049982 81.664094-67.739802 127.576626-149.027563 130.210952-229.562661H171.231165c2.257993 111.770673 54.944506 214.133039 144.887909 281.496509l3.010658 2.257993v298.055127z" fill="#2c2c2c" p-id="68379"></path><path d="M255.153252 374.45057H156.177876V124.565968h98.975376v48.92319h156.930541v56.826167H255.153252v144.135245z m-83.922087-15.05329h68.868798V214.885704h156.93054V188.166115H240.099963V139.242925H171.231165v220.154355z" fill="#2c2c2c" p-id="68380"></path></svg>