<?xml version="1.0" standalone="no"?><!DOCTYPE svg PUBLIC "-//W3C//DTD SVG 1.1//EN" "http://www.w3.org/Graphics/SVG/1.1/DTD/svg11.dtd"><svg t="1689150659213" viewBox="0 0 1024 1024" version="1.1" xmlns="http://www.w3.org/2000/svg" p-id="11959" xmlns:xlink="http://www.w3.org/1999/xlink" width="200" height="200"><path d="M677.1 835.4V888H343.9v-52.6h333.2m19.4-30h-372c-5.8 0-10.6 4.8-10.6 10.6v91.5c0 5.8 4.8 10.6 10.6 10.6h372.1c5.8 0 10.6-4.8 10.6-10.6V816c-0.1-5.9-4.8-10.6-10.7-10.6z" p-id="11960"></path><path d="M536.7 761.1v40.7H484v-40.7h52.7m30-30H454v100.7h112.8V731.1h-0.1zM510.5 136c33.9 0 66.8 6.6 97.7 19.7 29.9 12.6 56.7 30.7 79.8 53.8s41.2 49.9 53.8 79.8c13.1 30.9 19.7 63.8 19.7 97.7 0 33.9-6.6 66.8-19.7 97.7-12.6 29.9-30.7 56.7-53.8 79.8s-49.9 41.2-79.8 53.8c-30.9 13.1-63.8 19.7-97.7 19.7-33.9 0-66.8-6.6-97.7-19.7-29.9-12.6-56.7-30.7-79.8-53.8s-41.2-49.9-53.8-79.8c-13.1-30.9-19.7-63.8-19.7-97.7 0-33.9 6.6-66.8 19.7-97.7 12.6-29.9 30.7-56.7 53.8-79.8 23.1-23.1 49.9-41.2 79.8-53.8 30.9-13.1 63.8-19.7 97.7-19.7m0-30c-155.2 0-281 125.8-281 281s125.8 281 281 281 281-125.8 281-281-125.8-281-281-281z" p-id="11961"></path><path d="M711.3 380.6c-7.6 0-14.1-5.7-14.9-13.4-4.6-44-24.9-85.1-57.1-115.7-6-5.7-6.2-15.2-0.5-21.2s15.2-6.2 21.2-0.5c37.4 35.5 60.9 83.2 66.3 134.3 0.9 8.2-5.1 15.6-13.3 16.5h-1.7zM606.2 224.1c-2.4 0-4.8-0.6-7.1-1.8-17.8-9.6-36.9-16.2-56.8-19.6-8.2-1.4-13.6-9.2-12.2-17.3s9.2-13.6 17.3-12.2c23.1 4 45.3 11.6 65.9 22.8 7.3 3.9 10 13 6.1 20.3-2.7 5-7.8 7.8-13.2 7.8z" p-id="11962"></path><path d="M512 746.1c-47.6 0-93.8-9.3-137.2-27.7-42-17.8-79.7-43.2-112.1-75.5-32.4-32.4-57.8-70.1-75.5-112.1-18.4-43.5-27.7-89.6-27.7-137.2v-0.2l0.1-6.6c0.1-8.2 6.8-14.8 15-14.8h65.8c8.3 0 15 6.7 15 15s-6.7 15-15 15h-50.8c2.1 83 35.4 160.7 94.4 219.7 60.9 60.9 141.9 94.5 228.1 94.5 86.2 0 167.1-33.5 228.1-94.5 58.8-59 92.1-136.7 94.2-219.7h-55.7c-8.3 0-15-6.7-15-15s6.7-15 15-15h70.7c8.2 0 14.9 6.6 15 14.8l0.1 6.6v0.2c0 47.6-9.3 93.8-27.7 137.2-17.8 42-43.2 79.7-75.5 112.1-32.4 32.4-70.1 57.8-112.1 75.5-43.4 18.4-89.6 27.7-137.2 27.7z" p-id="11963"></path></svg>