<?xml version="1.0" standalone="no"?><!DOCTYPE svg PUBLIC "-//W3C//DTD SVG 1.1//EN" "http://www.w3.org/Graphics/SVG/1.1/DTD/svg11.dtd"><svg t="1689150441473" viewBox="0 0 1024 1024" version="1.1" xmlns="http://www.w3.org/2000/svg" p-id="6650" xmlns:xlink="http://www.w3.org/1999/xlink" width="200" height="200"><path d="M485.618016 0h52.51282v105.025641h-52.51282z" fill="#2c2c2c" p-id="6651"></path><path d="M89.488696 532.422921l844.77146 0 0 52.51282-844.77146 0 0-52.51282Z" fill="#2c2c2c" p-id="6652"></path><path d="M533.324771 692.061895a25.514381 25.514381 0 1 1-51.017346 0c0-18.265329 25.502965-51.017347 25.502965-51.017347s25.514381 31.998573 25.514381 51.017347zM669.641204 763.422252a25.514381 25.514381 0 0 1-51.028763 0c0-18.265329 25.514381-51.017347 25.514382-51.017347s25.514381 31.987157 25.514381 51.017347zM805.957637 692.061895a25.514381 25.514381 0 1 1-51.017347 0c0-18.265329 25.514381-51.017347 25.514381-51.017347S805.957637 673.043122 805.957637 692.061895zM260.691906 692.061895a25.514381 25.514381 0 1 1-51.017346 0c0-18.265329 25.514381-51.017347 25.514381-51.017347s25.502965 31.998573 25.502965 51.017347zM533.324771 884.213155a25.514381 25.514381 0 1 1-51.017346 0c0-18.265329 25.502965-51.017347 25.502965-51.017347s25.514381 31.998573 25.514381 51.017347zM805.957637 884.213155a25.514381 25.514381 0 1 1-51.017347 0c0-18.265329 25.514381-51.017347 25.514381-51.017347S805.957637 865.194381 805.957637 884.213155zM260.691906 884.213155a25.514381 25.514381 0 1 1-51.017346 0c0-18.265329 25.514381-51.017347 25.514381-51.017347s25.502965 31.998573 25.502965 51.017347zM397.008339 763.422252a25.514381 25.514381 0 0 1-51.017347 0c0-18.265329 25.514381-51.017347 25.514381-51.017347s25.502965 31.987157 25.502966 51.017347zM669.641204 952.719554a25.514381 25.514381 0 0 1-51.028763 0c0-18.265329 25.514381-51.017347 25.514382-51.017347s25.514381 31.987157 25.514381 51.017347zM397.008339 952.719554a25.514381 25.514381 0 1 1-51.017347 0c0-18.265329 25.514381-51.017347 25.514381-51.017347s25.502965 31.987157 25.502966 51.017347zM511.874426 118.028272a386.642765 386.642765 0 0 1 386.049141 359.598662H125.825284a386.642765 386.642765 0 0 1 386.049142-359.598662m0-27.397993c-228.864571 0-414.394649 185.530078-414.394649 414.394649h828.789298c0-228.864571-185.530078-414.394649-414.394649-414.394649z" fill="#2c2c2c" p-id="6653"></path></svg>