<?xml version="1.0" standalone="no"?><!DOCTYPE svg PUBLIC "-//W3C//DTD SVG 1.1//EN" "http://www.w3.org/Graphics/SVG/1.1/DTD/svg11.dtd"><svg t="1689152313085" viewBox="0 0 1024 1024" version="1.1" xmlns="http://www.w3.org/2000/svg" p-id="65396" xmlns:xlink="http://www.w3.org/1999/xlink" width="200" height="200"><path d="M592 682.5H432c-42.6 0-82.7-16.7-113-47-30.3-30.3-47-70.4-47-113v-10.4l10-0.1h469.9l0.1 10.5c0 42.6-16.7 82.7-47 113s-70.4 47-113 47zM292.3 532c2.3 33.7 16.6 65.1 40.8 89.4 26.5 26.5 61.6 41.1 98.9 41.1h160c37.2 0 72.3-14.6 98.9-41.1 24.3-24.3 38.5-55.7 40.8-89.4H292.3z" fill="#2c2c2c" p-id="65397"></path><path d="M742 532c-5.5 0-10-4.5-10-10V394c0-59-48-107-107-107-47.3 0-89.6 31.8-102.8 77.4-1.5 5.3-7.1 8.4-12.4 6.8-5.3-1.5-8.4-7.1-6.8-12.4 15.7-54.1 65.8-91.9 122-91.9 70 0 127 57 127 127v128c0 5.6-4.5 10.1-10 10.1z" fill="#2c2c2c" p-id="65398"></path><path d="M536.2 431.6h-46.4c-7.2 0-13.7-3.7-17.3-10-3.6-6.3-3.6-13.8 0-20l23.2-40c3.6-6.2 10.1-10 17.3-10 7.2 0 13.7 3.7 17.3 10l23.2 40c3.6 6.3 3.6 13.8 0 20-3.6 6.3-10.1 10-17.3 10zM513 371.7l-23.2 40h46.4l-23.2-40zM470 443h20v20h-20zM502 443h20v20h-20zM534 443h20v20h-20zM390 669h20v40h-20zM621 669h20v40h-20z" fill="#2c2c2c" p-id="65399"></path></svg>