<?xml version="1.0" standalone="no"?><!DOCTYPE svg PUBLIC "-//W3C//DTD SVG 1.1//EN" "http://www.w3.org/Graphics/SVG/1.1/DTD/svg11.dtd"><svg t="1689150537636" viewBox="0 0 1024 1024" version="1.1" xmlns="http://www.w3.org/2000/svg" p-id="10233" xmlns:xlink="http://www.w3.org/1999/xlink" width="200" height="200"><path d="M499.2 956.2c-11 0-20-9-20-20V659.3c0-11 9-20 20-20s20 9 20 20v276.9c0 11-9 20-20 20z" p-id="10234"></path><path d="M600.9 957.4H397.4c-11 0-20-9-20-20s9-20 20-20H601c11 0 20 9 20 20s-9 20-20.1 20zM499.2 600.4c-71.6 0-138.9-27.4-189.6-77.3-50.7-49.9-78.7-116.3-78.7-187s27.9-137 78.7-187c50.7-49.8 118-77.3 189.6-77.3s138.9 27.4 189.6 77.3c50.7 49.9 78.7 116.3 78.7 187s-27.9 137-78.7 187c-50.7 49.8-118 77.3-189.6 77.3z m0-488.5C373.3 111.9 271 212.5 271 336.2s102.4 224.3 228.2 224.3c125.9 0 228.2-100.6 228.2-224.3S625 111.9 499.2 111.9z" p-id="10235"></path><path d="M499.2 679.7c-47.1 0-92.7-9.1-135.7-27-41.5-17.3-78.8-42-110.9-73.6-32.1-31.5-57.2-68.3-74.8-109.2-18.2-42.4-27.5-87.4-27.5-133.9 0-11 9-20 20-20s20 9 20 20c0 167.4 138.6 303.6 308.9 303.6S808 503.5 808 336.1c0-11 9-20 20-20s20 9 20 20c0 46.4-9.2 91.5-27.5 133.9-17.6 40.9-42.8 77.7-74.8 109.2s-69.3 56.3-110.9 73.6c-42.9 17.8-88.6 26.9-135.6 26.9z" p-id="10236"></path></svg>