<?xml version="1.0" standalone="no"?><!DOCTYPE svg PUBLIC "-//W3C//DTD SVG 1.1//EN" "http://www.w3.org/Graphics/SVG/1.1/DTD/svg11.dtd"><svg t="1689150452325" viewBox="0 0 1024 1024" version="1.1" xmlns="http://www.w3.org/2000/svg" p-id="6851" xmlns:xlink="http://www.w3.org/1999/xlink" width="200" height="200"><path d="M876.8 202L611.9 64.2c-7.4-3.9-16.6-2.5-22.5 3.5L482 175.1C405.8 104 352.9 96.7 350.5 96.5c-4.1-0.5-8.3 0.3-11.9 2.4l-120.7 69.3c-5.2 3-8.7 8.2-9.5 14.2-0.8 6 1.2 11.9 5.5 16.2l76.5 76.5c3.8 3.8 8.7 5.7 13.6 5.7s9.9-1.9 13.6-5.7c7.5-7.5 7.5-19.7 0-27.3L258.9 189l92.4-53c15 4.3 58.5 20.9 117.2 79.6 58.9 58.9 75.4 102.5 79.6 117.2l-53 92.4-58.7-58.7c-7.5-7.5-19.8-7.5-27.3 0s-7.5 19.7 0 27.3l76.5 76.5c3.6 3.6 8.6 5.7 13.6 5.7 0.9 0 1.7-0.1 2.6-0.2 5.9-0.8 11.2-4.3 14.2-9.5l69.3-120.7c2.1-3.6 2.9-7.8 2.4-11.9-0.3-2.4-7.5-55.2-78.5-131.2l97.4-97.4L848.5 231v711.9c0 10.6 8.6 19.3 19.3 19.3 10.6 0 19.3-8.6 19.3-19.3V219.1c0.1-7.2-3.9-13.7-10.3-17.1z" fill="#231815" p-id="6852"></path><path d="M169 271.9m-32.2 0a32.2 32.2 0 1 0 64.4 0 32.2 32.2 0 1 0-64.4 0Z" fill="#231815" p-id="6853"></path><path d="M169 514.7m-32.2 0a32.2 32.2 0 1 0 64.4 0 32.2 32.2 0 1 0-64.4 0Z" fill="#231815" p-id="6854"></path><path d="M169 393.3m-16.1 0a16.1 16.1 0 1 0 32.2 0 16.1 16.1 0 1 0-32.2 0Z" fill="#231815" p-id="6855"></path><path d="M300.3 397.4m-32.2 0a32.2 32.2 0 1 0 64.4 0 32.2 32.2 0 1 0-64.4 0Z" fill="#231815" p-id="6856"></path><path d="M300.3 640.2m-32.2 0a32.2 32.2 0 1 0 64.4 0 32.2 32.2 0 1 0-64.4 0Z" fill="#231815" p-id="6857"></path><path d="M300.3 518.8m-16.1 0a16.1 16.1 0 1 0 32.2 0 16.1 16.1 0 1 0-32.2 0Z" fill="#231815" p-id="6858"></path><path d="M431.6 522.9m-32.2 0a32.2 32.2 0 1 0 64.4 0 32.2 32.2 0 1 0-64.4 0Z" fill="#231815" p-id="6859"></path><path d="M431.6 765.7m-32.2 0a32.2 32.2 0 1 0 64.4 0 32.2 32.2 0 1 0-64.4 0Z" fill="#231815" p-id="6860"></path><path d="M431.6 644.3m-16.1 0a16.1 16.1 0 1 0 32.2 0 16.1 16.1 0 1 0-32.2 0Z" fill="#231815" p-id="6861"></path></svg>