<?xml version="1.0" standalone="no"?><!DOCTYPE svg PUBLIC "-//W3C//DTD SVG 1.1//EN" "http://www.w3.org/Graphics/SVG/1.1/DTD/svg11.dtd"><svg t="1689150390990" viewBox="0 0 1024 1024" version="1.1" xmlns="http://www.w3.org/2000/svg" p-id="5395" xmlns:xlink="http://www.w3.org/1999/xlink" width="200" height="200"><path d="M494.592 912.725333h-145.066667c-25.941333 0-47.104-21.162667-47.104-47.104v-41.301333c0-12.288-7.509333-23.210667-19.114666-27.989333-121.173333-48.128-202.752-129.706667-224.256-224.256-3.072-13.994667 0-28.672 9.216-39.936 8.874667-11.264 22.528-17.749333 36.864-17.749334h813.738666c14.336 0 27.989333 6.485333 36.864 17.749334 8.874667 10.922667 12.288 25.258667 9.216 39.253333-26.965333 121.514667-217.429333 195.242667-343.04 244.053333-18.090667 7.168-35.498667 13.653333-49.834666 19.797334-21.162667 8.874667-30.037333 17.749333-30.037334 30.378666-0.341333 25.941333-21.504 47.104-47.445333 47.104zM105.130667 531.797333c-9.216 0-17.749333 4.096-23.552 11.264-5.802667 7.168-7.850667 16.384-5.802667 25.6 20.138667 88.746667 97.962667 166.229333 213.674667 211.968 18.090667 7.168 29.696 24.234667 29.696 43.690667v41.301333c0 16.384 13.312 30.037333 30.037333 30.037334h145.066667c16.384 0 30.037333-13.312 30.037333-30.037334 0-26.282667 23.210667-38.912 40.618667-46.421333 14.677333-6.144 32.085333-12.629333 50.176-19.797333 122.538667-47.445333 307.541333-119.125333 332.8-231.765334 2.048-8.533333-0.341333-17.749333-5.802667-24.576a30.1056 30.1056 0 0 0-23.552-11.264H105.130667z" fill="" p-id="5396"></path><path d="M256.682667 521.898667H145.749333c-25.941333 0-47.104-21.162667-47.104-47.104V170.666667c0-25.941333 21.162667-47.104 47.104-47.104h110.933334C282.624 123.562667 303.786667 144.725333 303.786667 170.666667v303.786666c-0.341333 26.282667-21.162667 47.445333-47.104 47.445334zM145.749333 140.629333c-16.384 0-30.037333 13.312-30.037333 30.037334v303.786666c0 16.384 13.312 30.037333 30.037333 30.037334h110.933334c16.384 0 30.037333-13.312 30.037333-30.037334V170.666667c0-16.384-13.312-30.037333-30.037333-30.037334H145.749333z" fill="" p-id="5397"></path><path d="M183.978667 282.965333c-1.706667 0-3.413333-0.682667-5.12-1.706666-3.754667-2.730667-4.778667-8.192-2.048-11.946667l34.474666-47.786667c2.730667-3.754667 8.192-4.778667 11.946667-2.048 3.754667 2.730667 4.778667 8.192 2.048 11.946667l-34.474667 47.786667c-1.706667 2.730667-4.096 3.754667-6.826666 3.754666zM283.306667 199.68H120.490667c-4.778667 0-8.533333-3.754667-8.533334-8.533333s3.754667-8.533333 8.533334-8.533334H283.306667c4.778667 0 8.533333 3.754667 8.533333 8.533334s-4.096 8.533333-8.533333 8.533333zM821.589333 533.162667l-416.426666-0.682667c-20.821333 0-38.912-10.581333-45.056-26.282667-4.778667-11.946667-1.024-24.917333 9.216-34.474666 21.162667-19.114667 52.224-30.378667 85.333333-30.378667H771.413333c33.792 0 65.194667 11.264 86.357334 31.061333 10.24 9.557333 13.653333 22.528 8.874666 34.474667-6.144 16.042667-24.234667 26.282667-45.056 26.282667z m-366.592-74.752c-29.013333 0-55.637333 9.557333-73.728 25.941333-5.12 4.778667-6.826667 10.24-4.778666 15.701333 2.730667 7.168 13.312 15.36 29.013333 15.36l416.085333 0.682667c16.042667 0 26.282667-7.850667 29.013334-15.018667 2.048-5.461333 0.682667-10.922667-4.778667-16.042666-18.090667-17.066667-45.397333-26.624-74.752-26.624h-316.074667z" fill="" p-id="5398"></path></svg>