<?xml version="1.0" standalone="no"?><!DOCTYPE svg PUBLIC "-//W3C//DTD SVG 1.1//EN" "http://www.w3.org/Graphics/SVG/1.1/DTD/svg11.dtd"><svg t="1689151136981" viewBox="0 0 1024 1024" version="1.1" xmlns="http://www.w3.org/2000/svg" p-id="28402" xmlns:xlink="http://www.w3.org/1999/xlink" width="200" height="200"><path d="M917.333333 365.866667H110.933333c-17.066667 0-30.933333-13.866667-30.933333-30.933334s13.866667-30.933333 30.933333-30.933333H917.333333c17.066667 0 30.933333 13.866667 30.933334 30.933333s-13.866667 30.933333-30.933334 30.933334z m-806.4-40.533334c-5.333333 0-9.6 4.266667-9.6 9.6s4.266667 9.6 9.6 9.6H917.333333c5.333333 0 9.6-4.266667 9.6-9.6s-4.266667-9.6-9.6-9.6H110.933333z" fill="" p-id="28403"></path><path d="M693.333333 744.533333H334.933333c-6.4 0-10.666667-4.266667-10.666666-10.666666v-41.6c-39.466667-18.133333-62.933333-53.333333-83.2-88.533334l-106.666667-193.066666c-11.733333-20.266667-13.866667-40.533333-6.4-52.266667 4.266667-7.466667 11.733333-11.733333 21.333333-11.733333h729.6c9.6 0 17.066667 4.266667 21.333334 11.733333 7.466667 12.8 4.266667 32-6.4 52.266667l-106.666667 193.066666c-19.2 35.2-43.733333 70.4-83.2 88.533334v41.6c0 6.4-5.333333 10.666667-10.666667 10.666666z m-347.733333-21.333333H682.666667v-38.4c0-4.266667 3.2-8.533333 6.4-9.6 29.866667-11.733333 53.333333-36.266667 78.933333-82.133333l106.666667-193.066667c9.6-16 9.6-27.733333 7.466666-32 0-1.066667-1.066667-1.066667-3.2-1.066667H149.333333c-2.133333 0-3.2 1.066667-3.2 1.066667-2.133333 3.2-2.133333 14.933333 7.466667 32l106.666667 193.066667c25.6 46.933333 48 70.4 78.933333 82.133333 4.266667 2.133333 6.4 5.333333 6.4 9.6v38.4z" fill="" p-id="28404"></path><path d="M779.733333 522.666667c-2.133333 0-3.2 0-5.333333-1.066667-5.333333-3.2-7.466667-9.6-4.266667-14.933333l64-120.533334c3.2-5.333333 9.6-7.466667 14.933334-4.266666s7.466667 9.6 4.266666 14.933333l-64 120.533333c-2.133333 3.2-5.333333 5.333333-9.6 5.333334zM756.266667 568.533333c-2.133333 0-3.2 0-5.333334-1.066666-5.333333-3.2-7.466667-9.6-4.266666-14.933334l10.666666-19.2c3.2-5.333333 9.6-7.466667 14.933334-4.266666 5.333333 3.2 7.466667 9.6 4.266666 14.933333l-9.6 19.2c-3.2 3.2-6.4 5.333333-10.666666 5.333333z" fill="" p-id="28405"></path></svg>