<?xml version="1.0" standalone="no"?><!DOCTYPE svg PUBLIC "-//W3C//DTD SVG 1.1//EN" "http://www.w3.org/Graphics/SVG/1.1/DTD/svg11.dtd"><svg t="1689152156410" viewBox="0 0 1024 1024" version="1.1" xmlns="http://www.w3.org/2000/svg" p-id="59209" xmlns:xlink="http://www.w3.org/1999/xlink" width="200" height="200"><path d="M445.1 144.1c-1.7 0-3.5-0.5-5.1-1.4-4.7-2.8-6.3-9-3.4-13.7l7.9-13.1c5.9-9.9 2.7-22.8-7.2-28.7l-10.8-6.5c-4.8-2.9-10.4-3.7-15.9-2.3-5.5 1.4-10 4.7-12.9 9.5l-6.9 11.5c-2.8 4.7-9 6.3-13.7 3.4-4.7-2.8-6.3-9-3.4-13.7l6.9-11.5c5.6-9.4 14.5-16 25.2-18.6 10.6-2.7 21.6-1 31 4.6l10.8 6.5c19.4 11.6 25.7 36.8 14.1 56.2l-7.9 13.1c-2 3-5.3 4.7-8.7 4.7z" fill="#2c2c2c" p-id="59210"></path><path d="M442.5 179.9l-17.2-10.3 4.3-7.3c5.1-8.5 6.6-18.5 4.1-28.2-2.4-9.7-8.4-17.8-16.9-22.9l-3.4-2.1c-17.6-10.6-40.6-4.8-51.1 12.8L358 129l-17.2-10.3 4.3-7.1c16.2-27.1 51.5-35.9 78.6-19.7l3.4 2.1c13.1 7.8 22.3 20.3 26.1 35.2s1.5 30.3-6.4 43.3l-4.3 7.4z" fill="#2c2c2c" p-id="59211"></path><path d="M410.5 343.9c-2.4 0-4.7-0.8-6.6-2.5-4.1-3.7-4.5-10-0.8-14.1 22.3-25.2 35.3-68.6 30.9-103.2l-3.7-28.8c-2.8-22-19.4-41-34.6-50.1-15.2-9.1-39.8-14.8-60.5-6.9L308 148.6c-37 14.1-78.4 56.6-81.2 97.5-0.4 5.5-5.2 9.7-10.7 9.3-5.5-0.4-9.7-5.2-9.3-10.7 1.6-23 12.9-47.8 31.9-69.8 17.4-20.1 40-36.5 62.2-44.9l27.1-10.3c23.7-9 54.3-5.8 77.9 8.4 23.6 14.1 40.9 39.6 44.2 64.8l3.7 28.8c5.2 40.5-9.6 89.4-35.8 119-2 2.1-4.8 3.2-7.5 3.2z" fill="#2c2c2c" p-id="59212"></path><path d="M764.9 896c-0.4 0-0.8 0-1.3-0.1-5.5-0.7-9.4-5.7-8.7-11.2 15.5-124.3-6.8-265.1-63-396.4-58.4-136.6-148.6-252.8-254.1-327.4-4.5-3.2-5.6-9.4-2.4-13.9 3.2-4.5 9.4-5.6 13.9-2.4 108.4 76.7 201.1 195.9 260.9 335.9 29.3 68.5 49.6 138.9 60.4 209.4 10.5 68.2 11.8 134.6 4 197.4-0.5 5-4.8 8.7-9.7 8.7z" fill="#2c2c2c" p-id="59213"></path><path d="M680.5 930c-36.1 0-70.2-3-95.9-8.4-31.9-6.7-46.8-16.1-46.8-29.6s14.9-22.9 46.8-29.6c25.7-5.4 59.8-8.4 95.9-8.4s70.2 3 95.9 8.4c31.9 6.7 46.8 16.1 46.8 29.6s-14.9 22.9-46.8 29.6c-25.8 5.5-59.8 8.4-95.9 8.4z m-121.2-38c3.9 2.7 14.1 7.3 35.7 11.3 23.6 4.4 54 6.8 85.5 6.8s61.9-2.4 85.5-6.8c21.6-4 31.8-8.6 35.7-11.3-3.9-2.7-14.1-7.3-35.7-11.3-23.6-4.4-54-6.8-85.5-6.8-31.6 0-61.9 2.4-85.5 6.8-21.6 4.1-31.9 8.7-35.7 11.3z" fill="#2c2c2c" p-id="59214"></path><path d="M679.5 966.4c-35.6 0-69.6-3-95-8.6-31.3-6.8-46.3-16.2-46.3-29.6v-37.9c0-5.5 4.5-10 10-10s10 4.5 10 10V927c3 2.2 12 7.7 36.6 12.4 23.2 4.4 53.4 6.9 84.5 6.9 31.3 0 60.9-2.3 83.9-6.5 24.6-4.5 34-9.8 36-12v-37.6c0-5.5 4.5-10 10-10s10 4.5 10 10V929c0 13.4-14.2 22.7-45.6 29.2-25.1 5.3-58.2 8.2-94.1 8.2zM405.7 345.2c-3.1 0-6.1-0.6-7.8-0.9-5.8-1.2-13.7-3.5-23.4-6.9-19.4-6.7-44.3-17.2-70.3-29.3-26-12.2-50-24.7-67.6-35.2-8.8-5.3-15.6-9.8-20.3-13.6-3.5-2.8-12.8-10.3-8.6-19.4 4.3-9.1 16-6.8 20.4-5.9 5.8 1.2 13.7 3.5 23.4 6.9 19.4 6.7 44.3 17.2 70.3 29.3 26 12.2 50 24.7 67.6 35.2 8.8 5.3 15.6 9.8 20.3 13.6 3.5 2.8 12.8 10.3 8.6 19.4-2.6 5.4-7.9 6.8-12.6 6.8z m-131.2-74.1c11.1 5.8 23.9 12.2 38.1 18.8 14.2 6.6 27.2 12.4 38.8 17.1-11.1-5.8-23.9-12.2-38.1-18.8-14.1-6.6-27.2-12.3-38.8-17.1z" fill="#2c2c2c" p-id="59215"></path><path d="M216 327.7m-15.1 0a15.1 15.1 0 1 0 30.2 0 15.1 15.1 0 1 0-30.2 0Z" p-id="59216" fill="#2c2c2c"></path><path d="M349 383.7m-15.1 0a15.1 15.1 0 1 0 30.2 0 15.1 15.1 0 1 0-30.2 0Z" p-id="59217" fill="#2c2c2c"></path></svg>