<?xml version="1.0" standalone="no"?><!DOCTYPE svg PUBLIC "-//W3C//DTD SVG 1.1//EN" "http://www.w3.org/Graphics/SVG/1.1/DTD/svg11.dtd"><svg t="1689152280032" viewBox="0 0 1024 1024" version="1.1" xmlns="http://www.w3.org/2000/svg" p-id="64553" xmlns:xlink="http://www.w3.org/1999/xlink" width="200" height="200"><path d="M930.133333 469.333333H213.333333V277.333333a64 64 0 0 1 128 0 21.333333 21.333333 0 0 0 42.666667 0 106.666667 106.666667 0 0 0-213.333333 0V469.333333H93.866667a8.533333 8.533333 0 0 0-8.533334 8.533334v25.6a8.533333 8.533333 0 0 0 8.533334 8.533333H170.666667v213.333333a85.333333 85.333333 0 0 0 85.333333 85.333334v34.133333a8.533333 8.533333 0 0 0 8.533333 8.533333h25.6a8.533333 8.533333 0 0 0 8.533334-8.533333V810.666667h426.666666v34.133333a8.533333 8.533333 0 0 0 8.533334 8.533333h25.6a8.533333 8.533333 0 0 0 8.533333-8.533333V810.666667a85.333333 85.333333 0 0 0 85.333333-85.333334v-213.333333h76.8a8.533333 8.533333 0 0 0 8.533334-8.533333v-25.6a8.533333 8.533333 0 0 0-8.533334-8.533334zM213.333333 512h597.333334v42.666667H213.333333v-42.666667z m554.666667 256H256a42.666667 42.666667 0 0 1-42.666667-42.666667v-128h597.333334v128a42.666667 42.666667 0 0 1-42.666667 42.666667z" p-id="64554"></path></svg>