<?xml version="1.0" standalone="no"?><!DOCTYPE svg PUBLIC "-//W3C//DTD SVG 1.1//EN" "http://www.w3.org/Graphics/SVG/1.1/DTD/svg11.dtd"><svg t="1689152187058" viewBox="0 0 1024 1024" version="1.1" xmlns="http://www.w3.org/2000/svg" p-id="60678" xmlns:xlink="http://www.w3.org/1999/xlink" width="200" height="200"><path d="M879.38 251.61a160.46 160.46 0 0 0-147.91-98H292.53A160.4 160.4 0 0 0 132 314.1v11.54a19.48 19.48 0 0 0 19.49 19.49h316.87V659.2c-49.92 4.85-96 17.19-133.08 35.92-24.8 12.54-44.48 27.39-58.48 44.13-15.75 18.82-23.73 39.19-23.73 60.56 0 6.43 1.89 16.07 10.91 25.47 5.19 5.41 12.11 10.15 21.15 14.47 14.42 6.91 34.67 12.82 60.16 17.56 45.43 8.46 106.31 13.12 171.44 13.12s126-4.66 171.43-13.12c25.5-4.74 45.74-10.65 60.17-17.56 9-4.32 16-9.06 21.15-14.47 9-9.4 10.91-19 10.91-25.47 0-21.37-8-41.74-23.73-60.56-14-16.74-33.68-31.59-58.48-44.13-37.07-18.73-83.18-31.07-133.08-35.92V345.13h307.41A19.48 19.48 0 0 0 892 325.64V314.1a159.64 159.64 0 0 0-12.62-62.49zM545.61 348v307.78h-57.76V348zM760.9 799.81c0 34.08-122.09 51.13-244.17 51.13s-244.17-17.05-244.17-51.13c0-68.18 109.32-123.45 244.17-123.45S760.9 731.63 760.9 799.81z m111.61-474.17h-721V314.1a141 141 0 0 1 141-141h438.96a141 141 0 0 1 141 141z" p-id="60679"></path><path d="M549.85 781.46h-63.49a42.67 42.67 0 1 1 0-85.33h63.49a42.67 42.67 0 0 1 0 85.33z m-63.49-65.84a23.18 23.18 0 1 0 0 46.35h63.49a23.18 23.18 0 0 0 0-46.35z" p-id="60680"></path></svg>