<?xml version="1.0" standalone="no"?><!DOCTYPE svg PUBLIC "-//W3C//DTD SVG 1.1//EN" "http://www.w3.org/Graphics/SVG/1.1/DTD/svg11.dtd"><svg t="1689151539484" viewBox="0 0 1024 1024" version="1.1" xmlns="http://www.w3.org/2000/svg" p-id="39313" xmlns:xlink="http://www.w3.org/1999/xlink" width="200" height="200"><path d="M864.888456 390.546517c-16.958597 0-32.420848 5.486605-44.890404 14.963468L819.998052 158.11398c0-42.396493-29.926936-76.81247-66.836824-76.81247L267.846079 81.30151c-36.909888 0-66.836824 34.415977-66.836824 76.81247l0 247.396006c-12.469557-9.476863-27.931807-14.963468-44.890404-14.963468-40.900146 0-74.81734 33.418412-74.81734 74.81734l0 384.062348c0 40.900146 33.418412 74.81734 74.81734 74.81734s74.81734-33.418412 74.81734-74.81734l0-12.469557 559.633707 0 0 12.469557c0 40.900146 33.418412 74.81734 74.81734 74.81734s74.81734-33.418412 74.81734-74.81734l0-384.062348C939.705796 423.964929 906.287384 390.546517 864.888456 390.546517zM230.936191 557.139795l559.633707 0 0 64.841695L230.936191 621.981491 230.936191 557.139795zM230.936191 158.11398c0-25.437896 16.958597-46.885533 36.909888-46.885533l485.813931 0c19.951291 0 36.909888 21.447638 36.909888 46.885533l0 307.249878 0 61.849001L230.936191 527.212859 230.936191 465.363858 230.936191 158.11398zM201.009255 849.426206c0 24.440331-19.951291 44.890404-44.890404 44.890404s-44.890404-19.951291-44.890404-44.890404l0-384.062348c0-24.440331 19.951291-44.890404 44.890404-44.890404s44.890404 19.951291 44.890404 44.890404l0 76.81247L201.009255 849.426206zM230.936191 807.029713l0-155.121286 559.633707 0 0 155.121286L230.936191 807.029713zM909.77886 849.426206c0 24.440331-19.951291 44.890404-44.890404 44.890404s-44.890404-19.951291-44.890404-44.890404l0-307.249878L819.998052 465.363858c0-24.440331 19.951291-44.890404 44.890404-44.890404s44.890404 19.951291 44.890404 44.890404L909.77886 849.426206z" p-id="39314"></path></svg>