<?xml version="1.0" standalone="no"?><!DOCTYPE svg PUBLIC "-//W3C//DTD SVG 1.1//EN" "http://www.w3.org/Graphics/SVG/1.1/DTD/svg11.dtd"><svg t="1689152192755" viewBox="0 0 1024 1024" version="1.1" xmlns="http://www.w3.org/2000/svg" p-id="60828" xmlns:xlink="http://www.w3.org/1999/xlink" width="200" height="200"><path d="M909.443031 531.814107c-55.912267-94.118983-192.281338-347.524748-187.400861-445.039532 0.063178-1.137199-0.236916-2.21122-0.379066-3.31683 0.931871-2.969352 1.468882-6.065059 1.468881-9.302916 0-54.380208-135.326639-68.895285-215.278022-68.895285-77.487452 0-206.575293 13.74115-214.519889 64.06219-0.489627 1.263554-1.121404 2.448136-1.295143 3.85384-19.569293 151.010504-70.66426 378.68715-133.605047 394.765876l-13.172551 3.364212 0.205327 13.583206c0.031589 2.258603 3.680101 55.95965 48.836365 88.322429C217.141764 589.590116 236.916385 597.139852 284.299662 596.002653v109.850231c0 3.901223-7.70768 8.702729-7.70768 14.151805 0 12.477596 8.955439 22.601823 21.448831 22.601823s22.917712-10.124227 22.917711-22.601823c0-5.449077-5.070011-10.250582-5.07001-14.151805v-113.514538c15.794426-1.721592 20.122098-3.838045 31.351935-6.791603 6.475715-1.705798 12.840868 0.379066 17.184335 5.464871 19.490321 22.807151 61.250783 55.296284 141.123193 58.834236-1.295143 23.944349-0.947666 71.801459 0.615983 170.785125-15.683865 0.331683-25.01837 1.263554-31.652029 5.21216-9.871516 5.891321-15.210032 14.467694-16.457792 17.105363-1.800565 3.790662-2.779819 7.233847-3.206268 10.661238-16.473586-1.200376-47.241127-0.221122-72.907069 21.859485-26.108186 22.507057-44.445514 64.046396-28.540527 93.2187 2.432342 4.485617 5.528049 4.517206 9.539833 8.197307 36.706245 33.499977 142.639458 31.288757 163.551278 31.288757h1.374115c11.593108 0 89.064766 4.501411 161.213702-21.796307 4.438234-1.626826 7.56553 0.173739 8.702729-0.852899l-0.031589 0.537011c5.180572-4.580383 8.339457-11.687875 9.002823-18.779573 4.343467-46.877855-28.161461-75.544738-29.551371-76.745114-29.851465-25.934447-80.662132-33.531566-100.057686-35.047831a34.621381 34.621381 0 0 0-0.473833-7.881418c-0.568599-3.348418-1.78477-10.282171-7.660297-16.252464-2.969352-3.03253-6.949547-5.559638-17.563401-7.976185a110.023969 110.023969 0 0 0-10.913948-1.879537c-0.884488-60.761156-1.64262-142.892169-0.82131-172.143445 65.689016-5.038422 104.037882-32.741844 123.938858-54.269647a17.05798 17.05798 0 0 1 19.900977-4.011784c45.709068 21.259297 141.312727 48.741598 223.664862-38.712137l8.860672-9.397683-6.633658-11.150865zM507.853963 39.707186c114.351642 0 172.869989 23.5179 180.435519 34.447643-7.56553 10.929743-66.083877 34.447642-180.435519 34.447642S334.983974 85.084571 327.418444 74.154829c7.56553-10.929743 66.083877-34.447642 180.435519-34.447643z m35.158392 818.451344c1.24776 2.637669 0.047383 5.070011-0.315889 7.42338-1.310937 8.52899 8.039363 16.678914 9.097589 17.610785 3.553746 3.127296 9.223945 6.428331 19.727238 6.538892 9.745161 0.063178 59.402835 6.444126 82.952324 26.913702 0.82131 0.726544 19.158638 17.547607 18.147795 44.587663-69.495473 24.102294-145.056005 23.581078-145.75096 23.581078-43.245138-0.552805-119.705952-8.607962-140.665155-27.735012a12.698718 12.698718 0 0 1-2.590286-3.222062c-6.159826-11.308809 4.343467-37.25905 20.785464-51.42665 13.835917-11.908997 30.957074-14.214983 42.107939-14.214984 3.143091 0 5.812349-0.505422 7.802446-0.300094 13.046196 4.548795 24.62351 9.745161 31.320346-6.049265h0.015795c3.790662 0 4.201317-15.162649 3.838045-19.885182-0.236916-3.095707-0.789721-4.517206 0.410655-6.31777 1.990098-3.000941 6.207209-1.958509 20.453782-2.337575 9.002823-0.236916 10.566471-0.584394 16.868446-0.268505 4.548795 0.221122 8.355251 0.726544 11.119276 1.121404a8.434223 8.434223 0 0 1 4.67515 3.980195z m318.320855-310.328875c-80.030355 62.403776-166.346891 12.256474-182.315056 1.974303-14.009656-53.258803-63.477797-246.203507-66.794626-328.697793a17.215924 17.215924 0 0 0-16.189286-16.647325h-0.015795a17.247513 17.247513 0 0 0-18.132 18.116207c3.99599 90.581031 55.56479 289.8593 68.658368 339.201086-11.608903 16.568353-48.188793 55.95965-132.625792 54.17488-93.455617-1.690004-125.218207-46.89365-131.709716-58.155076 11.340398-56.623016 52.690204-267.131121 57.491709-347.177271a17.089569 17.089569 0 0 0-18.053028-17.98985 17.010596 17.010596 0 0 0-16.252464 15.983958c-3.648512 64.536023-36.090263 238.559005-56.512455 340.290902-60.745361 17.831907-107.875927 16.836858-136.527016-3.45898-14.783582-10.471704-22.83874-24.734071-27.22959-36.8326a16.536764 16.536764 0 0 1 5.464872-18.937517c74.928755-55.580584 115.078185-270.084679 130.919994-378.150139 44.113831 24.039116 129.245785 31.541468 186.342634 31.541468 55.075162 0 136.416455-6.902164 181.699073-28.951182 14.862555 121.727639 132.894298 335.93164 176.392146 411.492172 4.311878 7.486558 2.21122 16.900035-4.611972 22.222757z" fill="#020000" p-id="60829"></path></svg>