<?xml version="1.0" standalone="no"?><!DOCTYPE svg PUBLIC "-//W3C//DTD SVG 1.1//EN" "http://www.w3.org/Graphics/SVG/1.1/DTD/svg11.dtd"><svg t="1689151520551" viewBox="0 0 1024 1024" version="1.1" xmlns="http://www.w3.org/2000/svg" p-id="38865" xmlns:xlink="http://www.w3.org/1999/xlink" width="200" height="200"><path d="M696.39 579.33c33.65-32.49 49.31-85.44 46.01-159.77-74.17-5.9-127.64 7.91-161.28 40.4-33.65 32.49-49.31 85.44-46.01 159.77 74.17 5.9 127.63-7.91 161.28-40.4z m32.47 13.94c-3 3.45-6.14 6.76-9.42 9.93-10.79 10.42-23.02 19.22-36.67 26.43h46.09v-36.36zM294.62 762.39c-4.97 14.18-16.19 25.39-30.39 30.38v85.78c0 9.16-7.43 16.59-16.59 16.59h-99.57c-9.16 0-16.59-7.43-16.59-16.59v-85.82c-19.31-6.86-33.19-25.33-33.19-46.83V546.56c0-27.48 22.2-49.68 49.78-49.68h6.23V281.16c0-64.1 52.15-116.16 116.19-116.16h483.24c64.27 0 116.19 51.8 116.19 116.16v215.72h8.3c27.42 0 49.78 22.4 49.78 49.68v199.33c0 21.68-13.82 40.08-33.19 46.87v85.78c0 9.16-7.43 16.59-16.59 16.59h-99.57c-9.16 0-16.59-7.43-16.59-16.59v-85.82c-14.12-5.02-25.34-16.25-30.35-30.34H294.62z m2.8-99.57v66.38h431.45v-66.38H297.42z m0-33.19H502.4c-5.33-87.35 12.86-152.21 55.66-193.55 43.86-42.36 111.5-58.02 201.85-48.21 7.96 0.86 14.17 7.29 14.76 15.28 2.56 34.95 1.46 66.38-3.38 94.25 2.4-0.35 4.85-0.53 7.35-0.53h58.09V281.16c0-46.02-37.05-82.98-83-82.98H270.48c-45.73 0-83 37.22-83 82.98v215.72h60.16c27.42 0 49.78 22.4 49.78 49.68v83.07z m514.42 132.76h66.38c9.25 0 16.59-7.34 16.59-16.5V546.56c0-8.97-7.51-16.5-16.59-16.5h-99.58c-9.25 0-16.59 7.34-16.59 16.5v199.33c0 8.97 7.51 16.5 16.59 16.5h33.2z m0 33.18h-16.59v66.38h66.38v-66.38H811.84z m-630.58 0h-16.59v66.38h66.38v-66.38H181.26z m33.18-33.18h33.19c9.25 0 16.59-7.34 16.59-16.5V546.56c0-8.97-7.51-16.5-16.59-16.5h-99.58c-9.25 0-16.59 7.34-16.59 16.5v199.33c0 8.97 7.51 16.5 16.59 16.5h66.39z" fill="#1A1A1A" p-id="38866"></path></svg>