<?xml version="1.0" standalone="no"?><!DOCTYPE svg PUBLIC "-//W3C//DTD SVG 1.1//EN" "http://www.w3.org/Graphics/SVG/1.1/DTD/svg11.dtd"><svg t="1689152151667" viewBox="0 0 1024 1024" version="1.1" xmlns="http://www.w3.org/2000/svg" p-id="59059" xmlns:xlink="http://www.w3.org/1999/xlink" width="200" height="200"><path d="M466.5 537c-3.1 0-6.1-1.2-8.3-3.4L214.3 298.3c-2.3-2.2-3.6-5.2-3.7-8.4s1.2-6.3 3.4-8.5c69.5-72 184.6-74.1 256.6-4.6 72 69.5 74.1 184.6 4.6 256.6-2.2 2.3-5.2 3.6-8.4 3.7-0.1-0.1-0.2-0.1-0.3-0.1zM239.9 289.7l226 218.1c52-62.7 47.6-156.3-12-213.7-59.6-57.6-153.2-58.6-214-4.4z" fill="#020202" p-id="59060"></path><path d="M401 318.4c-2.8 0-5.6-1-7.8-2.9-17.5-15.1-63.5-18.9-85-6.9-5.8 3.2-13.1 1.2-16.3-4.6-3.2-5.8-1.2-13.1 4.6-16.3 30.4-17 87.1-12.1 112.4 9.7 5 4.3 5.6 11.9 1.2 16.9-2.4 2.7-5.7 4.1-9.1 4.1zM342.2 494.3c-21.6 0-43.3-8.2-59.7-24.7-32.9-32.9-32.9-86.5 0-119.5l17 17c-11.4 11.4-17.7 26.6-17.7 42.8s6.3 31.3 17.7 42.8c23.6 23.6 61.9 23.6 85.5 0l17 17c-16.6 16.4-38.2 24.6-59.8 24.6zM503.7 338.7l-17-17 63.9-63.9c8.2-8.2 12.7-19 12.7-30.5s-4.5-22.4-12.7-30.5c-8.2-8.2-19-12.6-30.5-12.6s-22.4 4.5-30.5 12.6l-63.9 63.9-17-17 63.9-63.9c12.7-12.7 29.6-19.7 47.5-19.7s34.8 7 47.5 19.7c12.7 12.7 19.7 29.6 19.7 47.5s-7 34.8-19.7 47.5l-63.9 63.9z" fill="#020202" p-id="59061"></path><path d="M528.276 297.61l16.467-17.46 250.405 236.155-16.466 17.46zM592.463 742.682l180.033-190.896 17.46 16.466-180.033 190.896z" fill="#020202" p-id="59062"></path><path d="M795 587.8c-24.7 0-44.7-20.1-44.7-44.7 0-24.7 20.1-44.7 44.7-44.7s44.7 20.1 44.7 44.7-20 44.7-44.7 44.7z m0-65.5c-11.4 0-20.7 9.3-20.7 20.7s9.3 20.7 20.7 20.7 20.7-9.3 20.7-20.7-9.3-20.7-20.7-20.7zM708.9 844.9h-286c-6.6 0-12-5.4-12-12v-13.6c0-41.8 34-75.9 75.9-75.9H645c41.8 0 75.9 34 75.9 75.9v13.6c0 6.7-5.4 12-12 12z m-274-24h261.9v-1.6c0-28.6-23.3-51.9-51.9-51.9H486.8c-28.6 0-51.9 23.3-51.9 51.9v1.6z" fill="#020202" p-id="59063"></path></svg>