<?xml version="1.0" standalone="no"?><!DOCTYPE svg PUBLIC "-//W3C//DTD SVG 1.1//EN" "http://www.w3.org/Graphics/SVG/1.1/DTD/svg11.dtd"><svg t="1689151546658" viewBox="0 0 1024 1024" version="1.1" xmlns="http://www.w3.org/2000/svg" p-id="39460" xmlns:xlink="http://www.w3.org/1999/xlink" width="200" height="200"><path d="M890.842791 929.186919H133.157209A96.837352 96.837352 0 0 1 36.425166 832.454876V465.968325a96.837352 96.837352 0 0 1 96.732043-96.732043h74.699088a96.837352 96.837352 0 0 1 96.732043 96.732043v62.963h-40.953447v-62.963a55.8371 55.8371 0 0 0-55.778596-55.778595H133.157209A55.8371 55.8371 0 0 0 77.378614 465.968325v366.498252a55.8371 55.8371 0 0 0 55.778595 55.778595h757.685582a55.8371 55.8371 0 0 0 55.778595-55.778595V465.968325a55.8371 55.8371 0 0 0-55.778595-55.778595h-74.699088a55.8371 55.8371 0 0 0-55.778596 55.778595v62.963h-40.953447v-62.963a96.837352 96.837352 0 0 1 96.732043-96.732043h74.699088a96.837352 96.837352 0 0 1 96.732043 96.732043v366.498252a96.837352 96.837352 0 0 1-96.732043 96.720342z" p-id="39461"></path><path d="M187.379574 908.710195h40.953447v115.278104h-40.953447zM783.80218 908.710195h40.953448v115.278104h-40.953448zM821.806979 714.169619H227.923487a33.663734 33.663734 0 0 1-33.628631-33.628631V554.334164a33.663734 33.663734 0 0 1 33.628631-33.628631h593.883492a33.663734 33.663734 0 0 1 33.628631 33.628631v126.218525a33.663734 33.663734 0 0 1-33.628631 33.61693z m-586.558676-40.953448h579.198757v-111.557191h-579.198757zM842.084786 408.247366h-40.953447V204.767237a164.352035 164.352035 0 0 0-163.81379-163.81379h-251.571177a164.352035 164.352035 0 0 0-163.81379 163.81379v197.126494h-40.953447V204.767237a205.305483 205.305483 0 0 1 204.767237-204.767237h251.571177a205.305483 205.305483 0 0 1 204.767237 204.767237z" p-id="39462"></path></svg>