<?xml version="1.0" standalone="no"?><!DOCTYPE svg PUBLIC "-//W3C//DTD SVG 1.1//EN" "http://www.w3.org/Graphics/SVG/1.1/DTD/svg11.dtd"><svg t="1689151564499" viewBox="0 0 1024 1024" version="1.1" xmlns="http://www.w3.org/2000/svg" p-id="39755" xmlns:xlink="http://www.w3.org/1999/xlink" width="200" height="200"><path d="M390.4 448C396.8 448 396.8 454.4 403.2 454.4c6.4 0 12.8 0 12.8-6.4l19.2-19.2C454.4 454.4 480 473.6 512 473.6c32 0 57.6-19.2 76.8-44.8L601.6 448C608 448 614.4 454.4 620.8 454.4c6.4 0 12.8 0 12.8-6.4 6.4-6.4 6.4-19.2 0-32L608 390.4l25.6-25.6c6.4-6.4 6.4-19.2 0-32C627.2 320 614.4 320 601.6 332.8L588.8 345.6C569.6 320 544 300.8 512 300.8 480 300.8 454.4 320 435.2 345.6L422.4 332.8C409.6 320 396.8 320 390.4 332.8 384 339.2 384 352 390.4 358.4l25.6 25.6L390.4 416C384 422.4 384 435.2 390.4 448zM512 345.6c25.6 0 44.8 19.2 44.8 44.8l0 0c0 25.6-19.2 44.8-44.8 44.8-25.6 0-44.8-19.2-44.8-44.8 0 0 0 0 0 0C467.2 364.8 486.4 345.6 512 345.6z" p-id="39756"></path><path d="M915.2 518.4c-25.6 0-57.6 6.4-76.8 19.2L870.4 320c12.8-76.8-12.8-160-64-224-51.2-64-128-96-211.2-96L428.8 0C345.6 0 268.8 38.4 217.6 102.4c-51.2 64-76.8 147.2-64 224l32 211.2C160 524.8 134.4 518.4 108.8 518.4 51.2 518.4 0 563.2 0 620.8c0 44.8 25.6 83.2 64 96 12.8 6.4 19.2 19.2 19.2 32L83.2 832c0 83.2 64 147.2 147.2 147.2l0 0 0 25.6C236.8 1017.6 243.2 1024 256 1024s19.2-6.4 19.2-19.2l0-25.6 467.2 0 0 25.6c0 12.8 6.4 19.2 19.2 19.2 12.8 0 19.2-6.4 19.2-19.2l0-25.6c83.2 0 147.2-64 147.2-147.2l0-83.2c0-12.8 6.4-25.6 19.2-32 38.4-19.2 64-57.6 64-96C1024 563.2 979.2 518.4 915.2 518.4zM249.6 128c44.8-51.2 108.8-83.2 179.2-83.2l172.8 0c70.4 0 134.4 32 179.2 83.2 44.8 51.2 64 121.6 51.2 192l-38.4 256c-25.6 32-38.4 70.4-38.4 108.8l0 32C704 704 640 684.8 512 684.8c-121.6 0-204.8 19.2-236.8 32l0-32c0-44.8-19.2-83.2-44.8-115.2L192 313.6C185.6 249.6 204.8 179.2 249.6 128zM940.8 678.4c-25.6 12.8-44.8 38.4-44.8 70.4L896 832c0 57.6-51.2 102.4-108.8 102.4L236.8 934.4C172.8 940.8 128 896 128 832l0-83.2c0-32-19.2-57.6-44.8-70.4-25.6-12.8-38.4-32-38.4-57.6 0-32 25.6-64 64-64 70.4 0 128 57.6 128 128l0 102.4L268.8 768c0 0 64-38.4 243.2-38.4 179.2 0 243.2 38.4 243.2 38.4l32 19.2 0-102.4c0-70.4 57.6-128 128-128 38.4 0 64 25.6 64 64C979.2 646.4 966.4 672 940.8 678.4z" p-id="39757"></path></svg>