<?xml version="1.0" standalone="no"?><!DOCTYPE svg PUBLIC "-//W3C//DTD SVG 1.1//EN" "http://www.w3.org/Graphics/SVG/1.1/DTD/svg11.dtd"><svg t="1689151728295" viewBox="0 0 1024 1024" version="1.1" xmlns="http://www.w3.org/2000/svg" p-id="45582" xmlns:xlink="http://www.w3.org/1999/xlink" width="200" height="200"><path d="M994.678 783.298h-965.356c-11.651 0-20.805-9.154-20.805-20.805s9.154-20.805 20.805-20.805h965.356c11.651 0 20.805 9.154 20.805 20.805s-9.154 20.805-20.805 20.805zM994.678 282.313h-965.356c-11.651 0-20.805-9.154-20.805-20.805s9.154-20.805 20.805-20.805h965.356c11.651 0 20.805 9.154 20.805 20.805s-9.154 20.805-20.805 20.805zM132.516 635.999c-68.24 0-123.999-55.758-123.999-123.999s55.758-123.999 123.999-123.999 123.999 55.758 123.999 123.999-54.925 123.999-123.999 123.999zM132.516 429.613c-45.772 0-82.387 37.449-82.387 82.387s37.449 82.387 82.387 82.387 82.387-37.449 82.387-82.387-36.618-82.387-82.387-82.387zM891.484 635.999c-68.24 0-123.999-55.758-123.999-123.999s55.758-123.999 123.999-123.999 123.999 55.758 123.999 123.999-55.758 123.999-123.999 123.999zM891.484 429.613c-45.772 0-82.387 37.449-82.387 82.387s37.449 82.387 82.387 82.387 82.387-37.449 82.387-82.387-37.449-82.387-82.387-82.387zM512 635.999c-68.24 0-123.999-55.758-123.999-123.999s55.758-123.999 123.999-123.999 123.999 55.758 123.999 123.999-55.758 123.999-123.999 123.999zM512 429.613c-45.772 0-82.387 37.449-82.387 82.387s37.449 82.387 82.387 82.387 82.387-37.449 82.387-82.387-36.618-82.387-82.387-82.387z" fill="" p-id="45583"></path></svg>