<?xml version="1.0" standalone="no"?><!DOCTYPE svg PUBLIC "-//W3C//DTD SVG 1.1//EN" "http://www.w3.org/Graphics/SVG/1.1/DTD/svg11.dtd"><svg t="1689152019907" viewBox="0 0 1024 1024" version="1.1" xmlns="http://www.w3.org/2000/svg" p-id="52557" xmlns:xlink="http://www.w3.org/1999/xlink" width="200" height="200"><path d="M321.79 332.17c-56.26 0-102.03-45.77-102.03-102.03 0-56.24 45.77-102.02 102.03-102.02 56.25 0 102.02 45.77 102.02 102.02 0.01 56.26-45.76 102.03-102.02 102.03z m0-158.6c-31.2 0-56.58 25.37-56.58 56.57s25.39 56.58 56.58 56.58 56.58-25.39 56.58-56.58-25.38-56.57-56.58-56.57zM697.43 332.17c-56.25 0-102.02-45.77-102.02-102.03 0-56.24 45.77-102.02 102.02-102.02 56.25 0 102.02 45.77 102.02 102.02 0.01 56.26-45.76 102.03-102.02 102.03z m0-158.6c-31.2 0-56.58 25.37-56.58 56.57s25.38 56.58 56.58 56.58 56.58-25.39 56.58-56.58-25.38-56.57-56.58-56.57zM281.79 945.1c-11.35 0-21.17-8.51-22.54-20.06L231.7 691.82h-80.3c-7.29 0-14.14-3.49-18.41-9.41a22.706 22.706 0 0 1-3.17-20.43l94.07-285.36a22.725 22.725 0 0 1 13.46-14.1l10.01-3.83c52.74-20.24 110.56-19.57 162.81 1.89a22.746 22.746 0 0 1 13.04 14.19l90.64 287.6a22.74 22.74 0 0 1-3.35 20.27 22.709 22.709 0 0 1-18.32 9.29h-78.66l-23.58 232.74c-1.26 12.49-12.35 21.79-24.9 20.31-12.49-1.26-21.58-12.41-20.31-24.9l25.65-253.17c1.18-11.6 10.94-20.43 22.6-20.43h68.2l-78.01-247.52c-38.85-13.33-80.9-12.68-119.51 2.15L182.8 646.38h69.07c11.52 0 21.21 8.62 22.57 20.06l29.93 253.28c1.47 12.46-7.44 23.76-19.9 25.22-0.89 0.12-1.8 0.16-2.68 0.16zM744.19 945.1c-0.97 0-1.95-0.06-2.93-0.19-12.45-1.6-21.24-12.99-19.64-25.43L754.2 666.2c1.46-11.33 11.11-19.82 22.54-19.82h25.33V412.05l-52.49-18.18c-33.57-11.63-70.56-11.58-104.15 0.16l-57.71 20.21v232.14h30.42c11.55 0 21.26 8.65 22.57 20.13l29.11 253.28c1.43 12.46-7.52 23.73-19.98 25.16-12.51 1.43-23.74-7.52-25.17-19.99l-26.79-233.14H565c-12.55 0-22.72-10.18-22.72-22.72V398.12c0-9.66 6.1-18.26 15.21-21.45l72.93-25.53c43.22-15.1 90.81-15.16 134.03-0.19l67.77 23.46a22.719 22.719 0 0 1 15.29 21.47V669.1c0 12.54-10.17 22.72-22.72 22.72h-28.06L766.7 925.28c-1.47 11.46-11.25 19.82-22.51 19.82z" fill="#040000" p-id="52558"></path></svg>