<?xml version="1.0" standalone="no"?><!DOCTYPE svg PUBLIC "-//W3C//DTD SVG 1.1//EN" "http://www.w3.org/Graphics/SVG/1.1/DTD/svg11.dtd"><svg t="1689152213621" viewBox="0 0 1024 1024" version="1.1" xmlns="http://www.w3.org/2000/svg" p-id="62239" xmlns:xlink="http://www.w3.org/1999/xlink" width="200" height="200"><path d="M802.38 499.51c-0.11 0-0.22 0-0.33-0.01L217 493.85c-10.28-0.1-19.7-4.9-25.84-13.2-6.14-8.29-8.02-18.73-5.17-28.66l94.86-330.09c4-13.94 16.89-23.67 31.34-23.67H693.7c14.18 0 26.64 9.09 31.02 22.63L833.38 456.6c3.24 10 1.48 21.04-4.72 29.53-6.13 8.38-15.94 13.38-26.28 13.38z m-490.2-376.93c-3.72 0-7.03 2.5-8.06 6.08l-94.86 330.09a8.361 8.361 0 0 0 1.33 7.35c0.93 1.26 3.03 3.37 6.64 3.4l585.07 5.65c3.59 0.57 5.21-1.25 6.83-3.44 1.62-2.21 2.06-4.98 1.22-7.59L701.67 128.39a8.36 8.36 0 0 0-7.98-5.8H312.18zM681.41 928.29H334.27c-12.35 0-22.41-10.11-22.41-22.55v-20.71c0-12.44 10.06-22.55 22.41-22.55h347.14c12.38 0 22.44 10.11 22.44 22.55v20.71c0 12.45-10.06 22.55-22.44 22.55zM336.1 903.94h343.52v-17.09H336.1v17.09z" fill="#231815" p-id="62240"></path><path d="M490.24 496.32h24.22v380.92h-24.22zM695.97 496.32h24.22v68.8h-24.22z" fill="#231815" p-id="62241"></path><path d="M708.09 631.19c-20.77 0-37.65-16.97-37.65-37.83 0-20.87 16.89-37.84 37.65-37.84 20.76 0 37.64 16.97 37.64 37.84 0 20.85-16.89 37.83-37.64 37.83z m0-51.32c-7.41 0-13.42 6.04-13.42 13.49 0 7.43 6.01 13.47 13.42 13.47 7.4 0 13.41-6.04 13.41-13.47-0.01-7.45-6.02-13.49-13.41-13.49zM311.71 407.46c-0.78 0-1.57-0.15-2.34-0.48-3.08-1.31-4.53-4.88-3.24-7.98l99.6-238.7c1.31-3.12 4.96-4.5 7.93-3.27 3.09 1.31 4.54 4.88 3.25 7.98l-99.6 238.7c-0.99 2.34-3.24 3.75-5.6 3.75zM628.4 394.1c-2.82 0-5.34-1.99-5.93-4.86l-18.39-89.14c-0.67-3.28 1.43-6.51 4.71-7.2 3.35-0.64 6.47 1.43 7.16 4.73l18.39 89.14c0.67 3.28-1.43 6.51-4.71 7.2-0.41 0.08-0.83 0.13-1.23 0.13z" fill="#231815" p-id="62242"></path></svg>