<?xml version="1.0" standalone="no"?><!DOCTYPE svg PUBLIC "-//W3C//DTD SVG 1.1//EN" "http://www.w3.org/Graphics/SVG/1.1/DTD/svg11.dtd"><svg t="1689152031919" viewBox="0 0 1024 1024" version="1.1" xmlns="http://www.w3.org/2000/svg" p-id="53024" xmlns:xlink="http://www.w3.org/1999/xlink" width="200" height="200"><path d="M656 327.9c-2.2-1.9-55.3-47.5-144-47.5S370.2 326 368 327.9c-4.1 3.6-6.5 8.8-6.5 14.3v285.9c0 10.5 8.5 19.1 19.1 19.1h40.5l24.5 297.4c0.8 10 9.1 17.5 19 17.5 0.5 0 1.1 0 1.6-0.1 10.5-0.9 18.3-10.1 17.4-20.6l-26-314.9c-0.8-9.9-9.1-17.5-19-17.5h-39V351.6c14.8-10.3 54.3-33.2 112.4-33.2 57.6 0 97.5 23 112.4 33.3V609h-39c-9.9 0-18.2 7.6-19 17.5l-26 314.9c-0.9 10.5 6.9 19.7 17.4 20.6 0.5 0.1 1.1 0.1 1.6 0.1 9.8 0 18.1-7.5 19-17.5l24.5-297.4h40.5c10.5 0 19.1-8.5 19.1-19.1V342.2c0-5.5-2.4-10.7-6.5-14.3zM512 248.4c51.4 0 93.2-41.8 93.2-93.2S563.4 62 512 62c-51.4 0-93.2 41.8-93.2 93.2s41.8 93.2 93.2 93.2z m0-148.3c30.4 0 55.1 24.7 55.1 55.1s-24.7 55.1-55.1 55.1c-30.4 0-55.1-24.7-55.1-55.1s24.7-55.1 55.1-55.1z" fill="#231815" p-id="53025"></path></svg>