<?xml version="1.0" standalone="no"?><!DOCTYPE svg PUBLIC "-//W3C//DTD SVG 1.1//EN" "http://www.w3.org/Graphics/SVG/1.1/DTD/svg11.dtd"><svg t="1689152205904" viewBox="0 0 1024 1024" version="1.1" xmlns="http://www.w3.org/2000/svg" p-id="62078" xmlns:xlink="http://www.w3.org/1999/xlink" width="200" height="200"><path d="M522.8 77c-187.3 0-339.7 152.4-339.7 339.7 0 4.5 0.2 9 0.3 13.4l0.5 14.1h260.2V768h-60.9v78.8c-24.9 9.4-48.6 21.4-70.6 36-7.6 5-11 14.1-8.5 22.6 2.7 9 11.2 15 21.1 15h395.2c9.9 0 18.4-6 21.1-15 2.6-8.5-0.9-17.5-8.5-22.6-22-14.6-45.7-26.5-70.6-36V768h-60.9V444.2h122.7v77c-24.1 6.5-42 28.4-42 54.5 0 31.3 25.4 56.7 56.7 56.7s56.7-25.4 56.7-56.7c0-26.1-17.9-48-42-54.5v-77h108.1l0.6-14.1c0.2-4.5 0.3-8.9 0.3-13.4C862.5 229.4 710.1 77 522.8 77z m166.3 814H356.5c49.4-25.8 107.3-39.8 166.3-39.8s116.9 14 166.3 39.8zM633 797.4v39.7c-35-10-72-15.2-110.2-15.2s-75.2 5.2-110.2 15.2v-39.7H633zM473.5 768V444.2h34.6V768h-34.6z m64 0V444.2h34.6V768h-34.6z m228.7-192.2c0 15.1-12.3 27.3-27.3 27.3s-27.3-12.3-27.3-27.3c0-15.1 12.3-27.3 27.3-27.3s27.3 12.2 27.3 27.3zM212.5 414.9c1-170.3 139.8-308.5 310.3-308.5s309.3 138.2 310.3 308.5H212.5z" fill="#231815" p-id="62079"></path></svg>