<?xml version="1.0" standalone="no"?><!DOCTYPE svg PUBLIC "-//W3C//DTD SVG 1.1//EN" "http://www.w3.org/Graphics/SVG/1.1/DTD/svg11.dtd"><svg t="1689152196847" viewBox="0 0 1024 1024" version="1.1" xmlns="http://www.w3.org/2000/svg" p-id="60979" xmlns:xlink="http://www.w3.org/1999/xlink" width="200" height="200"><path d="M890.953488 559.385639L807.937417 143.899929a80.259679 80.259679 0 0 0-78.39506-64.288813H542.350844V0h-59.829942v79.611116H294.356544a80.259679 80.259679 0 0 0-78.395059 64.288813L132.945413 559.385639a80.016467 80.016467 0 0 0 78.39506 95.663051H488.114758v312.202042H388.479258v56.749268h259.425224v-56.749268H548.025771V654.643338H812.396288A80.016467 80.016467 0 0 0 890.953488 559.385639zM836.717403 594.570184a31.212097 31.212097 0 0 1-24.321115 11.430924H211.340473a31.293168 31.293168 0 0 1-30.644605-37.454516l83.016072-415.080358a31.374238 31.374238 0 0 1 30.644604-25.212889h435.185813a31.455308 31.455308 0 0 1 30.725675 25.212889l83.016071 415.080358a31.455308 31.455308 0 0 1-6.5667 26.023592z" fill="" p-id="60980"></path></svg>