<?xml version="1.0" standalone="no"?><!DOCTYPE svg PUBLIC "-//W3C//DTD SVG 1.1//EN" "http://www.w3.org/Graphics/SVG/1.1/DTD/svg11.dtd"><svg t="1689152028665" viewBox="0 0 1024 1024" version="1.1" xmlns="http://www.w3.org/2000/svg" p-id="52867" xmlns:xlink="http://www.w3.org/1999/xlink" width="200" height="200"><path d="M702.3 622.6l-84.7-285.5c-0.7-2.3-16.9-56.7-105.7-56.7-88.8 0-105 54.4-105.6 56.5l-84.7 285.8c-1.7 5.8-0.6 12 3 16.8 3.6 4.8 9.3 7.7 15.3 7.7H421l24.5 297.4c0.8 10 9.2 17.5 19 17.5 0.5 0 1.1 0 1.6-0.1 10.5-0.9 18.3-10.1 17.4-20.6l-26-314.9c-0.8-9.9-9.1-17.5-19-17.5h-73.1l77.4-261.1c0.4-1.2 10.8-29.4 69.1-29.4s68.7 28.2 69 29.1L658.5 609h-73.1c-9.9 0-18.2 7.6-19 17.5l-26 314.9c-0.9 10.5 7 19.7 17.4 20.6 0.5 0.1 1.1 0.1 1.6 0.1 9.8 0 18.2-7.5 19-17.5l24.5-297.4H684c6 0 11.7-2.9 15.3-7.7 3.6-4.9 4.8-11.1 3-16.9zM512 248.4c51.4 0 93.2-41.8 93.2-93.2S563.4 62 512 62s-93.2 41.8-93.2 93.2 41.8 93.2 93.2 93.2z m0-148.2c30.4 0 55 24.7 55 55s-24.7 55-55 55c-30.4 0-55-24.7-55-55s24.6-55 55-55z" fill="#231815" p-id="52868"></path></svg>