<?xml version="1.0" standalone="no"?><!DOCTYPE svg PUBLIC "-//W3C//DTD SVG 1.1//EN" "http://www.w3.org/Graphics/SVG/1.1/DTD/svg11.dtd"><svg t="1689150992344" viewBox="0 0 1024 1024" version="1.1" xmlns="http://www.w3.org/2000/svg" p-id="22176" xmlns:xlink="http://www.w3.org/1999/xlink" width="200" height="200"><path d="M511.998 0C229.23 0 0 229.228 0 512c0 282.77 229.23 512 511.998 512C794.77 1024 1024 794.77 1024 512 1024 229.228 794.77 0 511.998 0z m0 993.808C245.904 993.808 30.192 778.094 30.192 512c0-266.096 215.712-481.808 481.806-481.808 266.1 0 481.81 215.712 481.81 481.808 0 266.094-215.71 481.808-481.81 481.808z" fill="#2c2c2c" p-id="22177"></path><path d="M796.876 512c0 122.054-98.946 221-221 221s-139-98.946-139-221 16.946-221 139-221 221 98.946 221 221zM242.126 416h140c8.25 0 15-6.75 15-15s-6.75-15-15-15h-140c-8.25 0-15 6.75-15 15s6.75 15 15 15zM382.126 499.5h-140c-8.25 0-15 6.75-15 15s6.75 15 15 15h140c8.25 0 15-6.75 15-15s-6.75-15-15-15zM382.126 613h-140c-8.25 0-15 6.75-15 15s6.75 15 15 15h140c8.25 0 15-6.75 15-15s-6.75-15-15-15z" fill="#2c2c2c" p-id="22178"></path><path d="M291.986 307c-7.212 0-13.114 5.9-13.114 13.114v81.488c0 7.212 5.9 13.114 13.114 13.114 7.212 0 13.114-5.9 13.114-13.114v-81.488c0-7.214-5.9-13.114-13.114-13.114zM332.264 408.666c-7.212 0-13.114 5.9-13.114 13.114v81.488c0 7.212 5.9 13.114 13.114 13.114 7.212 0 13.114-5.9 13.114-13.114V421.78c-0.002-7.214-5.902-13.114-13.114-13.114zM291.986 512.634c-7.212 0-13.114 5.9-13.114 13.114v81.488c0 7.212 5.9 13.114 13.114 13.114 7.212 0 13.114-5.9 13.114-13.114v-81.488c0-7.214-5.9-13.114-13.114-13.114zM332.264 621.286c-7.212 0-13.114 5.9-13.114 13.114v81.488c0 7.212 5.9 13.114 13.114 13.114 7.212 0 13.114-5.9 13.114-13.114V634.4c-0.002-7.214-5.902-13.114-13.114-13.114z" fill="#2c2c2c" p-id="22179"></path></svg>