<?xml version="1.0" standalone="no"?><!DOCTYPE svg PUBLIC "-//W3C//DTD SVG 1.1//EN" "http://www.w3.org/Graphics/SVG/1.1/DTD/svg11.dtd"><svg t="1689151131718" viewBox="0 0 1024 1024" version="1.1" xmlns="http://www.w3.org/2000/svg" p-id="28254" xmlns:xlink="http://www.w3.org/1999/xlink" width="200" height="200"><path d="M670.7 724.3H353.3c-139 0-252-113-252-252V313.7c0-51.5 41.9-93.3 93.3-93.3h634.7c51.5 0 93.3 41.9 93.3 93.3v158.7c0.1 138.9-113 251.9-251.9 251.9z m-476-476c-36 0-65.3 29.3-65.3 65.3v158.7c0 123.5 100.5 224 224 224h317.3c123.5 0 224-100.5 224-224V313.7c0-36-29.3-65.3-65.3-65.3H194.7z" fill="" p-id="28255"></path><path d="M670.7 645c-7.7 0-14-6.3-14-14s6.3-14 14-14c79.8 0 144.7-64.9 144.7-144.7 0-7.7 6.3-14 14-14s14 6.3 14 14c-0.1 95.2-77.5 172.7-172.7 172.7zM631 803.7H393c-29.6 0-53.7-24.1-53.7-53.7v-53.7h345.3V750c0.1 29.6-24 53.7-53.6 53.7z m-263.7-79.4V750c0 14.2 11.5 25.7 25.7 25.7h238c14.2 0 25.7-11.5 25.7-25.7v-25.7H367.3zM829.3 426.8c-7.7 0-14-6.3-14-14V393c0-7.7 6.3-14 14-14s14 6.3 14 14v19.8c0 7.8-6.2 14-14 14z" fill="" p-id="28256"></path></svg>