<?xml version="1.0" standalone="no"?><!DOCTYPE svg PUBLIC "-//W3C//DTD SVG 1.1//EN" "http://www.w3.org/Graphics/SVG/1.1/DTD/svg11.dtd"><svg t="1689150966963" viewBox="0 0 1024 1024" version="1.1" xmlns="http://www.w3.org/2000/svg" p-id="21689" xmlns:xlink="http://www.w3.org/1999/xlink" width="200" height="200"><path d="M605.2 959.1H401.7c-11 0-20-9-20-20s9-20 20-20h203.6c11 0 20 9 20 20s-9 20-20.1 20z" p-id="21690"></path><path d="M503.5 939.4c-11 0-20-9-20-20V469.2c0-11 9-20 20-20s20 9 20 20v450.2c0 11-9 20-20 20z" p-id="21691"></path><path d="M744.2 522.1c-24.3 0-47.8-8.8-66.2-24.8-5.1-4.4-9.7-9.3-13.8-14.6-4.1 5.3-8.7 10.2-13.8 14.6-18.3 16-41.8 24.8-66.2 24.8-33 0-62.4-16-80.8-40.6-18.4 24.6-47.8 40.6-80.8 40.6-24.3 0-47.8-8.8-66.2-24.8-5.1-4.4-9.7-9.3-13.8-14.6-4.1 5.3-8.7 10.2-13.8 14.6-18.3 16-41.8 24.8-66.2 24.8-55.6 0-100.8-45.2-100.8-100.8 0-13.4 2.6-26.4 7.7-38.8L238 91.1c1.5-14.5 13.8-25.9 28.7-25.9h477.2c14.9 0 27.2 11.4 28.7 25.9l72 307.7c0.8 3.4 0.7 6.8-0.2 10.1 0.5 4.1 0.8 8.3 0.8 12.4-0.2 55.6-45.4 100.8-101 100.8z m-63.9-100.8c1.9 2.6 3.2 5.6 3.7 9 4.4 29.6 30.2 51.9 60.2 51.9 33.5 0 60.8-27.3 60.8-60.8 0-4.5-0.5-9-1.5-13.5-0.7-2.9-0.6-5.9 0-8.7l-68.7-293.9h-459l-67.5 288.1c-0.3 1.2-0.7 2.4-1.2 3.5-3.4 7.7-5.1 16-5.1 24.4 0 33.5 27.3 60.8 60.8 60.8 29.9 0 55.8-22.3 60.2-51.9 0.5-3.3 1.8-6.4 3.7-9-1.9-2.6-3.2-5.6-3.7-9-0.2-1.6-0.5-3.2-1-4.9-1.4-5.9 0-12.2 3.8-17 3.8-4.8 9.6-7.6 15.7-7.6h2.5c6.1 0 11.9 2.8 15.7 7.6 3.8 4.8 5.2 11 3.8 17-0.4 1.7-0.7 3.4-1 4.9-0.5 3.3-1.8 6.4-3.7 9 1.9 2.6 3.2 5.6 3.7 9 4.4 29.6 30.2 51.9 60.2 51.9 33.5 0 60.8-27.3 60.8-60.8 0-4.6-0.5-9.2-1.6-13.8-1.4-5.9 0-12.2 3.8-17 3.8-4.8 9.6-7.5 15.6-7.5h4.2c6.1 0 11.8 2.8 15.6 7.6s5.2 11 3.8 16.9c-1.1 4.5-1.6 9.2-1.6 13.8 0 33.5 27.3 60.8 60.8 60.8 29.9 0 55.8-22.3 60.2-51.9 0.5-3.3 1.8-6.4 3.7-9-1.9-2.6-3.2-5.6-3.7-9-0.2-1.4-0.5-3-0.9-4.7-1.4-5.9 0.1-12.2 3.9-16.9 3.8-4.8 9.5-7.5 15.6-7.5h2.4c6.1 0 11.8 2.8 15.6 7.5s5.2 11 3.9 16.9c-0.4 1.7-0.7 3.2-0.9 4.7-0.4 3.5-1.7 6.5-3.6 9.1z" p-id="21692"></path></svg>