<?xml version="1.0" standalone="no"?><!DOCTYPE svg PUBLIC "-//W3C//DTD SVG 1.1//EN" "http://www.w3.org/Graphics/SVG/1.1/DTD/svg11.dtd"><svg t="1689151169677" viewBox="0 0 1024 1024" version="1.1" xmlns="http://www.w3.org/2000/svg" p-id="30280" xmlns:xlink="http://www.w3.org/1999/xlink" width="200" height="200"><path d="M868.4 752.5c-3.4 0-6.9-1-10-3-8.5-5.5-11-17-5.4-25.5 1-1.5 2-3.1 2.9-4.6 5.3-8.7 16.7-11.4 25.4-6 8.7 5.3 11.4 16.7 6 25.4-1.1 1.8-2.2 3.6-3.4 5.3-3.5 5.4-9.4 8.4-15.5 8.4z" fill="#2c2c2c" p-id="30281"></path><path d="M572.6 882.7H451.9c-215.2 0-354.2-115.1-354.2-293.1l-0.5-105.8c0-53.6 43.6-97.2 97.1-97.2h634.9c53.5 0 97.1 43.6 97.1 97.1l0.5 105.8c0 7.6-0.2 15.1-0.7 22.3-0.7 10.2-9.2 17.8-19.6 17.2-10.2-0.7-17.8-9.4-17.2-19.6 0.4-6.4 0.6-13.1 0.6-19.8l-0.5-105.8c0-33.3-27-60.3-60.2-60.3H194.3c-33.2 0-60.2 27-60.2 60.2l0.5 105.8c0 124 83.4 256.4 317.4 256.4h120.7c81.4 0 153.2-17.9 207.6-51.8 30.3-18.8 54.7-42.4 72.7-70.1 5.6-8.5 17-11 25.5-5.4 8.5 5.5 10.9 17 5.4 25.5-21 32.2-49.3 59.5-84.2 81.3-60.3 37.5-138.8 57.3-227.1 57.3z" fill="#2c2c2c" p-id="30282"></path><path d="M710.6 959.7H313.4c-10.2 0-18.4-8.3-18.4-18.4v-87.5c0-10.2 8.3-18.4 18.4-18.4 10.2 0 18.4 8.3 18.4 18.4v69.1h360.4v-64.4c0-10.2 8.3-18.4 18.4-18.4s18.4 8.3 18.4 18.4v82.8c0.1 10.2-8.2 18.4-18.4 18.4zM841.6 508.6H192.1c-10.2 0-18.4-8.3-18.4-18.4 0-10.2 8.3-18.4 18.4-18.4h649.6c10.2 0 18.4 8.3 18.4 18.4 0 10.1-8.3 18.4-18.5 18.4z" fill="#2c2c2c" p-id="30283"></path><path d="M189.518294 358.481944a77.8 89.1 73.842 1 0 171.160733-49.590761 77.8 89.1 73.842 1 0-171.160733 49.590761Z" fill="#2c2c2c" p-id="30284"></path><path d="M268.7 417c-38.9 0-73.6-22.2-83.7-57.3-12.6-43.6 17.5-90.9 67.1-105.2 23.9-6.9 48.8-5.3 70.1 4.6 21.5 10 36.7 27.2 42.9 48.5 6.2 21.3 2.5 43.9-10.3 63.9-12.7 19.7-32.8 34.4-56.8 41.4-9.8 2.8-19.7 4.1-29.3 4.1z m12.9-157.5c-8.9 0-17.9 1.3-26.9 3.9-44.8 13-72 55-60.8 93.8C205.1 396 250.6 417 295.4 404c21.8-6.3 40.1-19.6 51.6-37.5 11.3-17.7 14.6-37.7 9.2-56.3-5.4-18.7-18.9-33.8-37.9-42.7-11.3-5.3-23.9-8-36.7-8z" fill="#2c2c2c" p-id="30285"></path><path d="M271.1 374.3c-9.8 0-19.3-5.2-24.3-14.4-7.3-13.4-2.4-30.2 11-37.5L723.7 67.6c13.4-7.3 30.2-2.4 37.5 11 7.3 13.4 2.4 30.2-11 37.5L284.3 370.9c-4.2 2.3-8.7 3.4-13.2 3.4z" fill="#2c2c2c" p-id="30286"></path></svg>