<?xml version="1.0" standalone="no"?><!DOCTYPE svg PUBLIC "-//W3C//DTD SVG 1.1//EN" "http://www.w3.org/Graphics/SVG/1.1/DTD/svg11.dtd"><svg t="1689151082746" viewBox="0 0 1026 1024" version="1.1" xmlns="http://www.w3.org/2000/svg" p-id="26449" xmlns:xlink="http://www.w3.org/1999/xlink" width="200.390625" height="200"><path d="M126.4 124h40.8v40.8h-40.8v-40.8z m82.4 0h40.8v40.8h-40.8v-40.8z" fill="" p-id="26450"></path><path d="M848 994.4H176c-64.8 0-116.8-52.8-116.8-116.8V147.2C59.2 82.4 112 30.4 176 30.4h672c64.8 0 116.8 52.8 116.8 116.8v729.6c0.8 64.8-52 117.6-116.8 117.6zM176 77.6c-38.4 0-68.8 31.2-68.8 68.8v729.6c0 38.4 31.2 68.8 68.8 68.8h672c38.4 0 68.8-31.2 68.8-68.8V147.2c0-38.4-31.2-68.8-68.8-68.8l-672-0.8z" fill="" p-id="26451"></path><path d="M924 254.4H107.2c-9.6 0-16.8-8-16.8-16.8 0-9.6 8-16.8 16.8-16.8h817.6c9.6 0 16.8 8 16.8 16.8s-8 16.8-17.6 16.8z m-648-130.4h50.4v40.8h-50.4v-40.8z m78.4-55.2h16.8v151.2h-16.8V68.8z m188.8 132h145.6c28 0 52-16.8 63.2-40.8 6.4-13.6-3.2-28-17.6-28H498.4c-14.4 0-24 15.2-17.6 28 10.4 24 34.4 40.8 62.4 40.8z" fill="" p-id="26452"></path></svg>