<?xml version="1.0" standalone="no"?><!DOCTYPE svg PUBLIC "-//W3C//DTD SVG 1.1//EN" "http://www.w3.org/Graphics/SVG/1.1/DTD/svg11.dtd"><svg t="1689151071631" viewBox="0 0 1024 1024" version="1.1" xmlns="http://www.w3.org/2000/svg" p-id="26259" xmlns:xlink="http://www.w3.org/1999/xlink" width="200" height="200"><path d="M845.3 944.7h-668c-31.4 0-57-25.6-57-57v-751c0-31.4 25.6-57 57-57h668c31.4 0 57 25.6 57 57v751c0 31.5-25.5 57-57 57z m-668-831c-12.7 0-23 10.3-23 23v751c0 12.7 10.3 23 23 23h668c12.7 0 23-10.3 23-23v-751c0-12.7-10.3-23-23-23h-668z" fill="#2c2c2c" p-id="26260"></path><path d="M510.8 862.7c-69.8 0-135.5-27.2-184.9-76.6-49.4-49.4-76.6-115.1-76.6-184.9 0-69.8 27.2-135.5 76.6-184.9 49.4-49.4 115.1-76.6 184.9-76.6s135.5 27.2 184.9 76.6c49.4 49.4 76.6 115.1 76.6 184.9 0 69.8-27.2 135.5-76.6 184.9s-115 76.6-184.9 76.6z m0-489c-60.8 0-117.9 23.7-160.9 66.6-43 43-66.6 100.1-66.6 160.9S307 719.1 350 762.1s100.1 66.6 160.9 66.6c60.8 0 117.9-23.7 160.9-66.6s66.6-100.1 66.6-160.9-23.7-117.9-66.6-160.9c-43.1-42.9-100.2-66.6-161-66.6z" fill="#2c2c2c" p-id="26261"></path><path d="M756.3 191.7m-26 0a26 26 0 1 0 52 0 26 26 0 1 0-52 0Z" fill="#2c2c2c" p-id="26262"></path><path d="M137.3 257.7h748v34h-748zM635.3 208.7h-239c-9.4 0-17-7.6-17-17s7.6-17 17-17h239c9.4 0 17 7.6 17 17s-7.6 17-17 17zM292.3 208.7h-72c-9.4 0-17-7.6-17-17s7.6-17 17-17h72c9.4 0 17 7.6 17 17s-7.6 17-17 17zM417.4 674.8c-62.9 0-95.2-33.1-123.7-62.2-11.4-11.7-22.2-22.7-34.7-31.7l19.9-27.6c14.8 10.7 27.2 23.3 39.1 35.5 27.2 27.9 50.8 52 99.3 52 48.6 0 72.1-24.1 99.3-52 28.5-29.2 60.8-62.2 123.7-62.2 62.9 0 95.2 33.1 123.7 62.2 1.3 1.3 2.6 2.7 3.9 4l-24.3 23.8c-1.3-1.3-2.6-2.7-4-4-27.2-27.9-50.7-52-99.3-52-48.6 0-72.1 24.1-99.3 52-28.4 29.2-60.7 62.2-123.6 62.2z" fill="#2c2c2c" p-id="26263"></path></svg>