<?xml version="1.0" standalone="no"?><!DOCTYPE svg PUBLIC "-//W3C//DTD SVG 1.1//EN" "http://www.w3.org/Graphics/SVG/1.1/DTD/svg11.dtd"><svg t="1689151090900" viewBox="0 0 1024 1024" version="1.1" xmlns="http://www.w3.org/2000/svg" p-id="26598" xmlns:xlink="http://www.w3.org/1999/xlink" width="200" height="200"><path d="M271.92 271.92c-8.84 0-16.01-7.17-16.01-16.01s7.17-16.01 16.01-16.01h64.02c8.84 0 16.01 7.17 16.01 16.01s-7.17 16.01-16.01 16.01h-64.02z m272.09-16.01c17.68 0 32.01-14.33 32.01-32.01s-14.33-32.01-32.01-32.01S512 206.22 512 223.9s14.33 32.01 32.01 32.01z m0 32.01c-35.36 0-64.02-28.66-64.02-64.02s28.66-64.02 64.02-64.02 64.02 28.66 64.02 64.02-28.66 64.02-64.02 64.02z m160.06-32.01c17.68 0 32.01-14.33 32.01-32.01s-14.33-32.01-32.01-32.01-32.01 14.33-32.01 32.01 14.33 32.01 32.01 32.01z m0 32.01c-35.36 0-64.02-28.66-64.02-64.02s28.66-64.02 64.02-64.02 64.02 28.66 64.02 64.02-28.66 64.02-64.02 64.02z m-55.74 337.06c-0.77 8.81-8.53 15.32-17.34 14.55-8.81-0.77-15.32-8.53-14.55-17.34 3.85-44.03-28.72-82.85-72.75-86.7-8.81-0.77-15.32-8.53-14.55-17.34 0.77-8.81 8.53-15.32 17.34-14.55 61.64 5.39 107.24 59.74 101.85 121.38zM508.7 859.66c114.92 0 208.07-93.16 208.07-208.07S623.62 443.52 508.7 443.52c-114.92 0-208.07 93.16-208.07 208.07s93.16 208.07 208.07 208.07z m0 32.02c-132.6 0-240.08-107.49-240.08-240.08S376.11 411.51 508.7 411.51c132.59 0 240.08 107.49 240.08 240.08S641.3 891.68 508.7 891.68zM191.89 111.63c0-26.35 21.56-47.79 47.85-47.79h544.53c26.41 0 47.85 21.43 47.85 47.79v800.73c0 26.35-21.56 47.79-47.85 47.79H239.74c-26.41 0-47.85-21.43-47.85-47.79V111.63z m32.01 224.31h48.02c8.84 0 16.01 7.17 16.01 16.01s-7.17 16.01-16.01 16.01H223.9v544.42c0 8.68 7.11 15.78 15.84 15.78h544.53c8.65 0 15.84-7.15 15.84-15.78V367.95H333.36c-8.84 0-16.01-7.17-16.01-16.01s7.17-16.01 16.01-16.01H800.1v-224.3c0-8.68-7.11-15.78-15.84-15.78H239.74c-8.65 0-15.84 7.15-15.84 15.78v224.31z" p-id="26599"></path></svg>