<?xml version="1.0" standalone="no"?><!DOCTYPE svg PUBLIC "-//W3C//DTD SVG 1.1//EN" "http://www.w3.org/Graphics/SVG/1.1/DTD/svg11.dtd"><svg t="1689151610291" viewBox="0 0 1024 1024" version="1.1" xmlns="http://www.w3.org/2000/svg" p-id="41164" xmlns:xlink="http://www.w3.org/1999/xlink" width="200" height="200"><path d="M805.6 534h-18.2L814 109.7c0.7-12.6-3.5-23.1-11.8-31.9C793.1 68.1 780 64 765.5 64H267.3c-13.5 0-26.5 4-35.6 13.7-9.1 9.7-13.7 22-12.9 35.4L245.4 534h-23.9c-24.8 0-46.5 19.1-46.5 43.9v45c0 24.8 21.7 46.1 46.5 46.1h16.1l-18.9 267.2c-0.9 12.4 8.5 22.8 20.8 23.7 0.5 0 1.1-0.1 1.6-0.1 11.7 0 21.6-8.5 22.4-20.4L282.7 669h35.1l19 211c1.1 11.7 10.8 20.2 22.4 20.2 0.7 0 1.3-0.2 2-0.2 12.4-1.1 21.5-11.5 20.4-23.9l-18.6-207h307l-18.6 207c-1.1 12.4 8 23 20.4 24.1 0.7 0.1 1.4-0.1 2-0.1 11.5 0 21.3-8.3 22.4-20L715 669h35.1l19.1 270.3c0.8 11.9 10.7 20.6 22.4 20.6 0.5 0 1.1-0.2 1.6-0.2 12.4-0.9 21.7-11.1 20.8-23.5L795.2 669h10.5c24.8 0 43.4-21.3 43.4-46.1v-45c-0.1-24.8-18.6-43.9-43.5-43.9zM267.3 106h498.1c2.4 0 3.8 1.2 3.7 1l-26.8 427H290.5l-26.1-426.4c0.5-0.5 1.4-1.6 2.9-1.6zM805 624H219v-44h586v44z" fill="#2c2c2c" p-id="41165"></path><path d="M381.6 465h269.6c12.4 0 22.5-8.6 22.5-21s-10.1-21-22.5-21H381.6c-12.4 0-22.5 8.6-22.5 21s10.1 21 22.5 21z" fill="#2c2c2c" p-id="41166"></path></svg>