<?xml version="1.0" standalone="no"?><!DOCTYPE svg PUBLIC "-//W3C//DTD SVG 1.1//EN" "http://www.w3.org/Graphics/SVG/1.1/DTD/svg11.dtd"><svg t="1689151620538" viewBox="0 0 1024 1024" version="1.1" xmlns="http://www.w3.org/2000/svg" p-id="41360" xmlns:xlink="http://www.w3.org/1999/xlink" width="200" height="200"><path d="M675.01 572.94H346.44c-48.82 0-88.53-39.71-88.53-88.53V306.73c0-63.95 24.9-124.07 70.12-169.3 45.22-45.22 105.34-70.12 169.3-70.12h26.79c63.95 0 124.08 24.9 169.29 70.12 45.22 45.22 70.12 105.34 70.12 169.3v177.68c0.01 48.81-39.7 88.53-88.52 88.53zM497.33 94.55c-116.99 0-212.17 95.18-212.17 212.17V484.4c0 33.79 27.49 61.28 61.28 61.28h328.57c33.79 0 61.28-27.49 61.28-61.28V306.73c0-116.99-95.18-212.17-212.17-212.17h-26.79z" fill="#2c2c2c" p-id="41361"></path><path d="M633.42 654.17H388.04V545.69h245.38v108.48z m-218.14-27.24h190.89v-53.99H415.28v53.99z" fill="#2c2c2c" p-id="41362"></path><path d="M708.55 732.4H312.9c-29.08 0-52.74-23.66-52.74-52.74s23.66-52.74 52.74-52.74h395.65c29.08 0 52.74 23.66 52.74 52.74s-23.66 52.74-52.74 52.74zM312.9 654.17c-14.06 0-25.49 11.43-25.49 25.49s11.43 25.49 25.49 25.49h395.65c14.06 0 25.49-11.43 25.49-25.49s-11.43-25.49-25.49-25.49H312.9z" fill="#2c2c2c" p-id="41363"></path><path d="M566.47 839.21H454.98V705.15h111.49v134.06z m-84.24-27.25h57V732.4h-57v79.56z" fill="#2c2c2c" p-id="41364"></path><path d="M683.21 887.27H338.25v-13.62c0-34.01 27.67-61.68 61.68-61.68h221.61c34.01 0 61.68 27.67 61.68 61.68v13.62zM368.3 860.02h284.85c-5.29-12.23-17.47-20.81-31.62-20.81H399.92c-14.15 0-26.33 8.58-31.62 20.81z" fill="#2c2c2c" p-id="41365"></path><path d="M351.87 953.12c-25.55 0-46.34-20.79-46.34-46.34s20.79-46.34 46.34-46.34 46.34 20.79 46.34 46.34-20.79 46.34-46.34 46.34z m0-65.44c-10.53 0-19.1 8.57-19.1 19.1s8.57 19.1 19.1 19.1 19.1-8.57 19.1-19.1-8.57-19.1-19.1-19.1zM510.73 953.12c-25.55 0-46.34-20.79-46.34-46.34s20.79-46.34 46.34-46.34 46.34 20.79 46.34 46.34-20.79 46.34-46.34 46.34z m0-65.44c-10.53 0-19.1 8.57-19.1 19.1s8.57 19.1 19.1 19.1c10.53 0 19.1-8.57 19.1-19.1s-8.57-19.1-19.1-19.1zM669.59 953.12c-25.55 0-46.34-20.79-46.34-46.34s20.79-46.34 46.34-46.34 46.34 20.79 46.34 46.34-20.79 46.34-46.34 46.34z m0-65.44c-10.53 0-19.1 8.57-19.1 19.1s8.57 19.1 19.1 19.1 19.1-8.57 19.1-19.1-8.57-19.1-19.1-19.1z" fill="#2c2c2c" p-id="41366"></path></svg>