<?xml version="1.0" standalone="no"?><!DOCTYPE svg PUBLIC "-//W3C//DTD SVG 1.1//EN" "http://www.w3.org/Graphics/SVG/1.1/DTD/svg11.dtd"><svg t="1689151721403" viewBox="0 0 1024 1024" version="1.1" xmlns="http://www.w3.org/2000/svg" p-id="45389" xmlns:xlink="http://www.w3.org/1999/xlink" width="200" height="200"><path d="M187.824 631.328c14.872 0 24.784 9.896 24.784 24.768v99.048c0 14.88-9.92 24.792-24.784 24.792-14.856 0-24.752-9.92-24.752-24.792V656.096c0-14.88 9.896-24.792 24.752-24.792v0.024z m594.4 0c14.848 0 24.76 9.896 24.76 24.768v99.048c0 14.88-9.912 24.792-24.784 24.792-14.856 0-24.752-9.92-24.752-24.792V656.096c0-14.88 9.896-24.792 24.768-24.792v0.024z m-198.128 0c14.848 0 24.768 9.896 24.768 24.768v99.048c0 14.88-9.92 24.792-24.792 24.792-14.848 0-24.744-9.92-24.744-24.792V656.096c0-14.88 9.896-24.792 24.768-24.792v0.024z m-198.128 0c14.856 0 24.752 9.896 24.752 24.768v99.048c0 14.88-9.896 24.792-24.752 24.792-14.88 0-24.784-9.92-24.784-24.792V656.096c0-14.88 9.912-24.792 24.784-24.792v0.024z m-297.2 198.104h842.024c14.856 0 24.768 9.92 24.768 24.784 0 14.856-9.92 24.768-24.768 24.768H88.792c-14.88 0-24.792-9.928-24.792-24.784 0-14.856 9.92-24.752 24.768-24.752v-0.016z m842.024-247.64H88.792c-14.88 0-24.792-9.92-24.792-24.768 0-14.856 9.92-24.768 24.768-24.768h842.024c14.856 0 24.768 9.912 24.768 24.784 0 14.832-9.92 24.752-24.768 24.752z" p-id="45390" fill="#2c2c2c"></path><path d="M227.464 249.92a23.944 23.944 0 0 1 34.664 0l104.008 104.016a23.944 23.944 0 0 1 0 34.68 23.944 23.944 0 0 1-34.664 0L227.464 289.528c-9.92-9.896-9.92-29.72 0-39.624v0.024zM792.112 249.92a23.944 23.944 0 0 1 0 34.672L688.104 388.616a23.944 23.944 0 0 1-34.664 0 23.944 23.944 0 0 1 0-34.68L757.44 249.928c9.896-4.96 24.768-4.96 34.664 0zM509.792 136c14.848 0 24.768 9.92 24.768 24.768V309.36c0 14.872-9.92 24.784-24.768 24.784-14.856 0-24.768-9.92-24.768-24.784V160.784c0-14.872 9.912-24.784 24.768-24.784z" p-id="45391" fill="#2c2c2c"></path><path d="M64.96 68.608h14.848V147.2h49.408V160H64.96V68.608z m75.776 0h65.92v12.8h-50.944v25.344h47.872v12.8h-47.872V147.2h53.12V160h-68.096V68.608z m82.176 0h33.408c14.76 0 25.984 4.096 33.664 12.288 7.336 7.76 11.008 18.904 11.008 33.408 0 14.424-3.672 25.56-11.008 33.408C282.304 155.904 271.08 160 256.32 160h-33.408V68.608z m14.976 12.8V147.2h15.616c11.352 0 19.672-2.64 24.96-7.936 5.12-5.376 7.68-13.696 7.68-24.96 0-11.6-2.56-19.968-7.68-25.088-5.2-5.2-13.52-7.808-24.96-7.808h-15.616z" p-id="45392" fill="#2c2c2c"></path></svg>