<?xml version="1.0" standalone="no"?><!DOCTYPE svg PUBLIC "-//W3C//DTD SVG 1.1//EN" "http://www.w3.org/Graphics/SVG/1.1/DTD/svg11.dtd"><svg t="1689152255559" viewBox="0 0 1024 1024" version="1.1" xmlns="http://www.w3.org/2000/svg" p-id="63917" xmlns:xlink="http://www.w3.org/1999/xlink" width="200" height="200"><path d="M920.8 496.1c0-22.1-18-40.2-40.2-40.2h-73.3v-1.2c0-23-18.7-41.7-41.7-41.7H640.7c-0.4 0-0.8 0.2-1.2 0.2v-0.2h-9.7c-23.9 0-43.3 19.2-43.8 42.9H275.4V309.4c0-20.2 13.3-37.9 31.7-41.9 13.4-3 25.3 1.7 36.2 14.1l-36 36c-5.1 5.1-6.6 12.7-3.8 19.4 2.8 6.7 9.2 11 16.4 11h76.3c7.3 0 13.7-4.3 16.5-11.1 2.7-6.7 1.2-14.3-4-19.4l-42.5-41.6c-22-31-46.8-33.1-63.7-29.3-28.1 6.2-48.5 32.7-48.5 62.9V456h-57.4c-22.1 0-40.2 18-40.2 40.2 0 19.6 14.2 35.9 32.8 39.4v43.2c0 77.4 52.3 142.7 123.3 162.8-7 6.7-11.5 16.1-11.5 26.6 0 20.3 16.5 36.8 36.8 36.8 20.3 0 36.8-16.5 36.8-36.8 0-7.4-2.2-14.3-6-20.1h339.8c-3.8 5.8-6 12.7-6 20.1 0 20.3 16.5 36.8 36.8 36.8s36.8-16.5 36.8-36.8c0-10.5-4.5-19.9-11.5-26.6C835.7 721.4 888 656.1 888 578.7v-43.2c18.6-3.5 32.8-19.8 32.8-39.4zM328.7 326.4l29-28.9 29.6 28.9h-58.6z m321.5 246.8h135.6v20.5H650.2v-20.5z m115.4-138.8c11.2 0 20.3 9.1 20.3 20.3v97H650.2V434.4h115.4z m-136.8 0.1v21.4h-21.3c0.5-11.6 9.7-20.9 21.3-21.4z m-451 61.6c0-10.3 8.4-18.7 18.7-18.7h432.2v37.5H196.6c-10.4-0.1-18.8-8.5-18.8-18.8z m160.1 287.5c-8.5 0-15.4-6.9-15.4-15.4s6.9-15.4 15.4-15.4 15.4 6.9 15.4 15.4-6.9 15.4-15.4 15.4z m401.4 0c-8.5 0-15.4-6.9-15.4-15.4s6.9-15.4 15.4-15.4 15.4 6.9 15.4 15.4-6.9 15.4-15.4 15.4z m-20.7-56.9h-360c-81.6 0-147.9-66.4-147.9-147.9v-42.5h418.2v67c0 6.5 5.3 11.9 11.9 11.9h154.7c6.5 0 11.9-5.3 11.9-11.9v-67h59.2v42.5c-0.1 81.5-66.4 147.9-148 147.9z m162-211.9h-73.3v-37.5h73.3c10.3 0 18.7 8.4 18.7 18.7s-8.4 18.8-18.7 18.8z" fill="#231815" p-id="63918"></path></svg>