<?xml version="1.0" standalone="no"?><!DOCTYPE svg PUBLIC "-//W3C//DTD SVG 1.1//EN" "http://www.w3.org/Graphics/SVG/1.1/DTD/svg11.dtd"><svg t="1689152266063" viewBox="0 0 1024 1024" version="1.1" xmlns="http://www.w3.org/2000/svg" p-id="64211" xmlns:xlink="http://www.w3.org/1999/xlink" width="200" height="200"><path d="M964.367059 421.647059 165.647059 421.647059 165.647059 201.185882c0-83.124706 67.463529-150.588235 150.588235-150.588235 83.124706 0 150.588235 67.463529 150.588235 150.588235 0 10.24 7.830588 18.070588 18.070588 18.070588s18.070588-7.830588 18.070588-18.070588c0-103.002353-83.727059-186.729412-186.729412-186.729412-103.002353 0-186.729412 83.727059-186.729412 186.729412L129.505882 421.647059 57.825882 421.647059c-25.901176 0-47.585882 21.082353-47.585882 47.585882s21.082353 47.585882 47.585882 47.585882L78.305882 516.818824l0 218.654118c0 106.616471 75.896471 195.764706 176.489412 216.244706l-74.691765 37.345882c-9.035294 4.216471-12.649412 15.058824-7.830588 24.094118 3.011765 6.625882 9.637647 10.24 16.263529 10.24 3.011765 0 5.421176-0.602353 7.830588-1.807059l130.108235-65.054118L728.847059 956.536471l130.108235 65.054118c2.409412 1.204706 5.421176 1.807059 7.830588 1.807059 6.625882 0 13.251765-3.614118 16.263529-10.24 4.216471-9.035294 0.602353-19.877647-7.830588-24.094118l-82.522353-41.562353c92.16-26.503529 159.623529-111.435294 159.623529-212.028235L952.32 516.818824l12.649412 0c25.901176 0 47.585882-21.082353 47.585882-47.585882S990.870588 421.647059 964.367059 421.647059zM915.576471 735.472941c0 101.797647-82.522353 184.32-184.32 184.32L298.767059 919.792941C196.969412 919.792941 114.447059 837.270588 114.447059 735.472941L114.447059 516.818824l801.129412 0L915.576471 735.472941zM964.367059 480.677647 951.717647 480.677647 78.305882 480.677647 57.825882 480.677647c-6.023529 0-11.444706-4.818824-11.444706-11.444706S51.802353 457.788235 57.825882 457.788235l906.541176 0c6.023529 0 11.444706 4.818824 11.444706 11.444706S970.992941 480.677647 964.367059 480.677647z" p-id="64212"></path><path d="M442.729412 231.303529l-43.971765 27.105882c-5.421176 3.614118-7.228235 10.842353-4.216471 16.865882 2.409412 3.614118 6.023529 6.023529 10.24 6.023529 2.409412 0 4.216471-0.602353 6.023529-1.807059l43.971765-27.105882c5.421176-3.614118 7.228235-10.842353 4.216471-16.865882C455.981176 229.496471 448.752941 227.689412 442.729412 231.303529z" p-id="64213"></path><path d="M512 251.783529l43.971765 27.105882c1.807059 1.204706 4.216471 1.807059 6.023529 1.807059 4.216471 0 7.830588-1.807059 10.24-6.023529 3.614118-5.421176 1.807059-13.251765-4.216471-16.865882l-43.971765-27.105882c-5.421176-3.614118-13.251765-1.807059-16.865882 4.216471C504.771765 240.941176 506.578824 248.169412 512 251.783529z" p-id="64214"></path><path d="M471.642353 261.421176l0 34.936471c0 6.625882 5.421176 12.047059 12.047059 12.047059s12.047059-5.421176 12.047059-12.047059l0-34.936471c0-6.625882-5.421176-12.047059-12.047059-12.047059S471.642353 254.795294 471.642353 261.421176z" p-id="64215"></path></svg>