<?xml version="1.0" standalone="no"?><!DOCTYPE svg PUBLIC "-//W3C//DTD SVG 1.1//EN" "http://www.w3.org/Graphics/SVG/1.1/DTD/svg11.dtd"><svg t="1689152344111" viewBox="0 0 1024 1024" version="1.1" xmlns="http://www.w3.org/2000/svg" p-id="66965" xmlns:xlink="http://www.w3.org/1999/xlink" width="200" height="200"><path d="M760.2 917.3H263.8c-86.6 0-157.1-70.5-157.1-157.1V490.7h810.7v269.6c-0.1 86.6-70.5 157-157.2 157z m-610.9-384v226.9c0 63.1 51.3 114.4 114.4 114.4h496.5c63.1 0 114.4-51.3 114.4-114.4V533.3H149.3z" fill="#222222" p-id="66966"></path><path d="M298.7 960c-11.8 0-21.3-9.6-21.3-21.3V896c0-11.8 9.6-21.3 21.3-21.3S320 884.2 320 896v42.7c0 11.7-9.6 21.3-21.3 21.3zM725.3 960c-11.8 0-21.3-9.6-21.3-21.3V896c0-11.8 9.6-21.3 21.3-21.3s21.3 9.6 21.3 21.3v42.7c0.1 11.7-9.5 21.3-21.3 21.3zM405.3 661.3H298.7c-11.8 0-21.3-9.6-21.3-21.3s9.6-21.3 21.3-21.3h106.7c11.8 0 21.3 9.6 21.3 21.3s-9.6 21.3-21.4 21.3zM512 768H405.3c-11.8 0-21.3-9.6-21.3-21.3s9.6-21.3 21.3-21.3H512c11.8 0 21.3 9.6 21.3 21.3S523.8 768 512 768zM938.7 533.3H85.3c-11.8 0-21.3-9.6-21.3-21.3s9.6-21.3 21.3-21.3h853.3c11.8 0 21.3 9.6 21.3 21.3s-9.5 21.3-21.2 21.3z" fill="#222222" p-id="66967"></path><path d="M128 597.3c-11.8 0-21.3-9.6-21.3-21.3V234.7c0-70.6 52.6-128 117.3-128 71.3 0 117.3 41.9 117.3 106.7 0 11.8-9.6 21.3-21.3 21.3s-21.3-9.6-21.3-21.3c0-55.7-46.8-64-74.7-64-41.2 0-74.7 38.3-74.7 85.3V576c0 11.8-9.5 21.3-21.3 21.3z" fill="#222222" p-id="66968"></path><path d="M330.9 341.3h-21.7c-29.3 0-53.1-23.8-53.1-53.1v-43.1c0-29.3 23.8-53.1 53.1-53.1h21.7c29.3 0 53.1 23.8 53.1 53.1v43.1c0 29.3-23.8 53.1-53.1 53.1z m-21.8-106.6c-5.7 0-10.5 4.8-10.5 10.5v43.1c0 5.7 4.8 10.5 10.5 10.5h21.7c5.7 0 10.5-4.8 10.5-10.5v-43.1c0-5.7-4.8-10.5-10.5-10.5h-21.7z" fill="#222222" p-id="66969"></path></svg>