<?xml version="1.0" standalone="no"?><!DOCTYPE svg PUBLIC "-//W3C//DTD SVG 1.1//EN" "http://www.w3.org/Graphics/SVG/1.1/DTD/svg11.dtd"><svg t="1689152296278" viewBox="0 0 1024 1024" version="1.1" xmlns="http://www.w3.org/2000/svg" p-id="65091" xmlns:xlink="http://www.w3.org/1999/xlink" width="200" height="200"><path d="M918.193548 588.387097H114.064516c-10.83871 0-19.612903 8.774194-19.612903 19.612903v299.354839c0 10.83871 8.774194 19.612903 19.612903 19.612903H918.709677c10.83871 0 19.612903-8.774194 19.612904-19.612903v-299.354839c0-10.83871-9.290323-19.612903-20.129033-19.612903z m-804.129032 14.451613H918.709677c3.096774 0 5.16129 2.580645 5.161291 5.16129v88.258065H108.387097v-88.258065c0-3.096774 2.580645-5.16129 5.677419-5.16129z m804.129032 310.193548H114.064516c-3.096774 0-5.16129-2.580645-5.16129-5.16129v-196.645162h815.483871v196.645162c-0.516129 2.580645-3.096774 5.16129-6.193549 5.16129zM680.774194 224c4.129032 0 7.225806-3.096774 7.225806-7.225806 0-61.419355 50.064516-112 112-112h106.322581c3.096774 0 5.16129 2.580645 5.16129 5.16129V562.580645c0 4.129032 3.096774 7.225806 7.225806 7.225807s7.225806-3.096774 7.225807-7.225807V110.451613c0-10.83871-8.774194-19.612903-19.612903-19.612903H800c-69.677419 0-126.451613 56.774194-126.451613 126.451613 0 3.612903 3.096774 6.709677 7.225807 6.709677z" fill="#040000" p-id="65092"></path><path d="M585.290323 374.193548c1.548387 1.548387 3.096774 2.580645 5.16129 2.580646h180.645161c2.064516 0 4.129032-1.032258 5.161291-2.580646l12.387096-13.935483c1.548387-1.548387 2.064516-3.612903 2.064516-5.67742-6.709677-55.225806-54.193548-97.032258-109.935483-97.032258s-103.225806 41.806452-109.935484 97.032258c-0.516129 2.064516 0.516129 4.129032 2.064516 5.67742l12.387097 13.935483z m95.483871-102.193548c47.483871 0 87.741935 34.580645 95.483871 81.032258l-8.258065 8.774194H593.548387l-8.258064-8.774194c7.741935-46.451613 48-81.032258 95.483871-81.032258zM618.83871 422.193548c0-4.129032-3.096774-7.225806-7.225807-7.225806s-7.225806 3.096774-7.225806 7.225806v43.354839c0 4.129032 3.096774 7.225806 7.225806 7.225807s7.225806-3.096774 7.225807-7.225807v-43.354839zM696.258065 433.032258c0-4.129032-3.096774-7.225806-7.225807-7.225806s-7.225806 3.096774-7.225806 7.225806v51.612903c0 4.129032 3.096774 7.225806 7.225806 7.225807s7.225806-3.096774 7.225807-7.225807v-51.612903zM760.774194 433.032258c0-4.129032-3.096774-7.225806-7.225807-7.225806s-7.225806 3.096774-7.225806 7.225806v32.516129c0 4.129032 3.096774 7.225806 7.225806 7.225807s7.225806-3.096774 7.225807-7.225807v-32.516129zM611.612903 514.580645c-4.129032 0-7.225806 3.096774-7.225806 7.225807v43.354838c0 4.129032 3.096774 7.225806 7.225806 7.225807s7.225806-3.096774 7.225807-7.225807V521.290323c0-3.612903-3.096774-6.709677-7.225807-6.709678zM689.032258 535.741935c-4.129032 0-7.225806 3.096774-7.225806 7.225807v29.935484c0 4.129032 3.096774 7.225806 7.225806 7.225806s7.225806-3.096774 7.225807-7.225806v-29.935484c0-3.612903-3.096774-7.225806-7.225807-7.225807zM753.548387 514.580645c-4.129032 0-7.225806 3.096774-7.225806 7.225807v54.193548c0 4.129032 3.096774 7.225806 7.225806 7.225806s7.225806-3.096774 7.225807-7.225806V521.290323c0-3.612903-3.096774-6.709677-7.225807-6.709678z" fill="#040000" p-id="65093"></path></svg>