<?xml version="1.0" standalone="no"?><!DOCTYPE svg PUBLIC "-//W3C//DTD SVG 1.1//EN" "http://www.w3.org/Graphics/SVG/1.1/DTD/svg11.dtd"><svg t="1689152251691" viewBox="0 0 1024 1024" version="1.1" xmlns="http://www.w3.org/2000/svg" p-id="63768" xmlns:xlink="http://www.w3.org/1999/xlink" width="200" height="200"><path d="M666.282667 792.917333H330.410667c-136.192 0-246.784-110.592-246.784-246.784 0-17.066667 1.706667-34.133333 5.461333-51.2 0.682667-3.754667 4.096-6.826667 8.192-6.826666l799.402667-9.557334c3.754667 0 7.168 2.730667 8.192 6.485334 5.461333 20.821333 8.192 41.301333 8.192 61.098666 0 136.192-110.592 246.784-246.784 246.784zM104.448 505.173333c-2.389333 13.653333-3.754667 27.306667-3.754667 40.96 0 126.634667 103.082667 229.717333 229.717334 229.717334h335.872c126.634667 0 229.717333-103.082667 229.717333-229.717334 0-16.384-2.048-33.450667-5.802667-50.517333L104.448 505.173333z" fill="" p-id="63769"></path><path d="M178.517333 860.842667c-2.048 0-3.754667-0.682667-5.461333-2.048-3.754667-3.072-4.096-8.533333-1.024-11.946667L242.346667 764.245333c3.072-3.754667 8.533333-4.096 11.946666-1.024 3.754667 3.072 4.096 8.533333 1.024 11.946667l-70.314666 82.602667c-1.706667 2.048-4.096 3.072-6.485334 3.072zM813.738667 860.842667c-2.389333 0-5.12-1.024-6.826667-3.072L741.717333 774.826667c-3.072-3.754667-2.389333-9.216 1.365334-11.946667 3.754667-3.072 9.216-2.389333 11.946666 1.365333l65.194667 82.602667c3.072 3.754667 2.389333 9.216-1.365333 11.946667-1.365333 1.365333-3.072 2.048-5.12 2.048zM679.253333 359.424c-3.754667 0-7.168-2.730667-8.192-6.144-2.048-7.509333-3.072-14.336-3.072-20.821333 0-40.277333 29.696-73.045333 65.877334-73.045334s65.877333 32.768 65.877333 73.045334c0 5.802667-0.682667 11.605333-2.389333 18.432-1.024 3.754667-4.096 6.485333-8.192 6.485333l-109.909334 2.048zM733.866667 276.48c-26.965333 0-48.810667 24.917333-48.810667 55.978667 0 3.072 0.341333 6.485333 1.024 9.898666l95.914667-2.048c0.341333-2.730667 0.682667-5.461333 0.682666-7.850666 0-31.061333-21.845333-55.978667-48.810666-55.978667z" fill="" p-id="63770"></path><path d="M881.322667 494.250667h-0.682667c-4.778667-0.341333-8.192-4.437333-7.850667-9.216 0.341333-3.754667 0.341333-7.850667 0.341334-11.946667V283.306667c0-54.613333-30.378667-100.693333-65.877334-100.693334-31.402667 0-59.392 35.498667-64.853333 82.602667-0.682667 4.778667-4.778667 7.850667-9.557333 7.509333-4.778667-0.682667-7.850667-4.778667-7.509334-9.557333 6.826667-56.661333 41.301333-97.621333 81.92-97.621333 45.738667 0 82.944 52.906667 82.944 117.76v189.781333c0 4.437333-0.341333 8.874667-0.682666 13.312 0 4.437333-3.754667 7.850667-8.192 7.850667z" fill="" p-id="63771"></path></svg>