<?xml version="1.0" standalone="no"?><!DOCTYPE svg PUBLIC "-//W3C//DTD SVG 1.1//EN" "http://www.w3.org/Graphics/SVG/1.1/DTD/svg11.dtd"><svg t="1689152286216" viewBox="0 0 1024 1024" version="1.1" xmlns="http://www.w3.org/2000/svg" p-id="64700" xmlns:xlink="http://www.w3.org/1999/xlink" width="200" height="200"><path d="M900.9 512H891V214.8c0-54.6-44.4-99-99.1-99-54.6 0-99.1 45.2-99.1 99.2H673c-10.9 0-19.8 8.5-19.8 19.5S662.1 254 673 254h79.3c10.9 0 19.8-8.5 19.8-19.5s-8.9-19.5-19.8-19.5h-19.8c0-33 26.5-59.5 59.2-59.5 32.8 0 59.2 26.6 59.2 59.3V512H128.2c-32.8 0-64.6 26.6-64.6 59.4s34.3 59.4 54.3 59.4v99.1c0 76.5 72.4 139.1 148.9 139.1h9.1v19.4c0 11 9.6 19.8 20.5 19.8s20.5-8.9 20.5-19.8V869h415v19.4c0 11 9.1 19.8 20 19.8s20-8.9 20-19.8v-23.1c62-13.7 99-69.1 99-135.4V631h29.9c32.8 0 59.4-26.7 59.4-59.5S933.7 512 900.9 512zM831 729.9c0 54.6-34 99.1-88.6 99.1H266.9c-54.6 0-108.9-44.5-108.9-99.1V631h673v98.9zM900.9 591H128.2c-10.9 0-19.8-9.1-19.8-20s8.9-20 19.8-20h772.7c10.9 0 19.8 9.1 19.8 20s-8.9 20-19.8 20z" fill="#2c2c2c" p-id="64701"></path></svg>