<?xml version="1.0" standalone="no"?><!DOCTYPE svg PUBLIC "-//W3C//DTD SVG 1.1//EN" "http://www.w3.org/Graphics/SVG/1.1/DTD/svg11.dtd"><svg t="1689152271362" viewBox="0 0 1024 1024" version="1.1" xmlns="http://www.w3.org/2000/svg" p-id="64361" xmlns:xlink="http://www.w3.org/1999/xlink" width="200" height="200"><path d="M782.77104 853.897832H318.000735c-114.028666 0-206.982727-92.954061-206.982727-206.982727 0-4.139655 3.38699-7.526645 7.526645-7.526645s7.526645 3.38699 7.526644 7.526645c0 105.749357 86.180081 191.929438 191.929438 191.929437H782.77104c105.749357 0 191.929438-86.180081 191.929438-191.929437 0-4.139655 3.38699-7.526645 7.526644-7.526645s7.526645 3.38699 7.526645 7.526645c0 114.404998-92.954061 206.982727-206.982727 206.982727z" fill="#2c2c2c" p-id="64362"></path><path d="M902.444689 933.680265c-2.257993 0-4.515987-1.128997-6.021315-3.010658l-65.858141-86.932746c-2.634326-3.38699-1.881661-7.902977 1.505329-10.537302 3.38699-2.634326 7.902977-1.881661 10.537303 1.505329l65.85814 86.932745c2.634326 3.38699 1.881661 7.902977-1.505329 10.537303-1.505329 1.128997-3.010658 1.505329-4.515987 1.505329zM245.368614 941.206909c-1.505329 0-3.010658-0.376332-4.515986-1.505329-3.38699-2.634326-4.139655-7.150312-1.505329-10.537302l65.85814-87.309078c2.634326-3.38699 7.150312-4.139655 10.537303-1.505329 3.38699 2.634326 4.139655 7.150312 1.505329 10.537303l-65.858141 87.309077c-1.505329 2.257993-3.763322 3.010658-6.021316 3.010658zM981.85079 654.441749H118.544653c-4.139655 0-7.526645-3.38699-7.526645-7.526644s3.38699-7.526645 7.526645-7.526645h863.306137c4.139655 0 7.526645 3.38699 7.526645 7.526645s-3.38699 7.526645-7.526645 7.526644z" fill="#2c2c2c" p-id="64363"></path><path d="M129.081955 654.441749c-4.139655 0-7.526645-3.38699-7.526644-7.526644V195.69276c0-4.139655 3.38699-7.526645 7.526644-7.526645s7.526645 3.38699 7.526645 7.526645v451.222345c0 4.139655-3.38699 7.526645-7.526645 7.526644z" fill="#2c2c2c" p-id="64364"></path><path d="M129.081955 203.219405c-9.784638 0-18.063947-8.279309-18.063947-18.063947 0-9.784638 8.279309-18.063947 18.063947-18.063948 9.784638 0 18.063947 8.279309 18.063947 18.063948 0 10.16097-8.279309 18.063947-18.063947 18.063947z m0-21.074605c-1.505329 0-3.010658 1.505329-3.010658 3.010658s1.505329 3.010658 3.010658 3.010657 3.010658-1.505329 3.010658-3.010657-1.505329-3.010658-3.010658-3.010658z" fill="#2c2c2c" p-id="64365"></path><path d="M139.99559 192.682102c-3.763322 0-6.77398-2.634326-7.526645-6.397648-0.752664-4.139655 2.257993-7.902977 6.021316-8.655641l127.576626-21.450937c4.139655-0.752664 7.902977 2.257993 8.655641 6.021315s-2.257993 7.902977-6.021315 8.655642l-127.576626 21.450937c-0.376332 0.376332-0.752664 0.376332-1.128997 0.376332z" fill="#2c2c2c" p-id="64366"></path><path d="M273.593532 224.670342c-25.966924 0-46.288864-14.676957-46.288865-33.493569s20.32194-33.493569 46.288865-33.493568S319.882396 172.360162 319.882396 191.176773s-20.32194 33.493569-46.288864 33.493569z m0-51.933848c-16.558618 0-31.235575 8.655641-31.235575 18.440279s14.676957 18.440279 31.235575 18.44028 31.235575-8.655641 31.235575-18.44028-14.676957-18.440279-31.235575-18.440279zM257.034914 242.734289c-1.128997 0-2.257993-0.376332-3.38699-1.505329-0.752664-0.752664-1.505329-1.881661-1.505329-3.38699 0-1.128997 0.376332-2.257993 1.505329-3.38699 1.881661-1.881661 4.892319-1.881661 6.397647 0 0.752664 0.752664 1.505329 1.881661 1.505329 3.38699 0 1.128997-0.376332 2.257993-1.505329 3.38699-0.752664 1.128997-1.881661 1.505329-3.010657 1.505329zM257.034914 278.109519c-2.634326 0-4.515987-1.881661-4.515987-4.515987v-5.644984c0-2.634326 1.881661-4.515987 4.515987-4.515986s4.515987 1.881661 4.515986 4.515986v5.644984c0 2.634326-1.881661 4.515987-4.515986 4.515987zM264.185226 328.161705c-2.634326 0-4.515987-1.881661-4.515987-4.515987v-21.074604c0-2.634326 1.881661-4.515987 4.515987-4.515987s4.515987 1.881661 4.515987 4.515987V323.645718c0 2.634326-1.881661 4.515987-4.515987 4.515987zM288.270489 272.464535c-2.634326 0-4.515987-1.881661-4.515987-4.515987V259.669239c0-2.634326 1.881661-4.515987 4.515987-4.515987s4.515987 1.881661 4.515987 4.515987v8.279309c0 2.634326-1.881661 4.515987-4.515987 4.515987zM299.560456 328.161705c-2.634326 0-4.515987-1.881661-4.515987-4.515987v-21.074604c0-2.634326 1.881661-4.515987 4.515987-4.515987s4.515987 1.881661 4.515986 4.515987V323.645718c0 2.634326-1.881661 4.515987-4.515986 4.515987zM237.84197 317.624403c-2.634326 0-4.515987-1.881661-4.515987-4.515987v-10.537302c0-2.634326 1.881661-4.515987 4.515987-4.515987s4.515987 1.881661 4.515987 4.515987v10.537302c0 2.634326-1.881661 4.515987-4.515987 4.515987zM299.560456 242.734289c-1.128997 0-2.257993-0.376332-3.38699-1.505329-0.752664-0.752664-1.505329-1.881661-1.505329-3.38699 0-1.128997 0.376332-2.257993 1.505329-3.38699 1.881661-1.881661 4.892319-1.881661 6.397648 0 0.752664 0.752664 1.505329 1.881661 1.505328 3.38699 0 1.128997-0.376332 2.257993-1.505328 3.38699-0.752664 1.128997-1.881661 1.505329-3.010658 1.505329zM321.011393 307.0871c-2.634326 0-4.515987-1.881661-4.515987-4.515986v-21.450938c0-2.634326 1.881661-4.515987 4.515987-4.515986s4.515987 1.881661 4.515987 4.515986v21.450938c0 2.634326-1.881661 4.515987-4.515987 4.515986zM299.560456 371.06358c-2.634326 0-4.515987-1.881661-4.515987-4.515987v-10.913635c0-2.634326 1.881661-4.515987 4.515987-4.515987s4.515987 1.881661 4.515986 4.515987v10.913635c0 2.634326-1.881661 4.515987-4.515986 4.515987zM257.034914 365.418596c-2.634326 0-4.515987-1.881661-4.515987-4.515987v-5.268651c0-2.634326 1.881661-4.515987 4.515987-4.515987s4.515987 1.881661 4.515986 4.515987v5.268651c0 2.634326-1.881661 4.515987-4.515986 4.515987z" fill="#2c2c2c" p-id="64367"></path></svg>