<?xml version="1.0" standalone="no"?><!DOCTYPE svg PUBLIC "-//W3C//DTD SVG 1.1//EN" "http://www.w3.org/Graphics/SVG/1.1/DTD/svg11.dtd"><svg t="1689152327644" viewBox="0 0 1024 1024" version="1.1" xmlns="http://www.w3.org/2000/svg" p-id="66462" xmlns:xlink="http://www.w3.org/1999/xlink" width="200" height="200"><path d="M255.82336 461.69088h-45.056v-235.904c0-75.008 61.696-136.704 136.704-136.704s136.704 61.568 136.704 136.704h-45.056c0-51.072-40.576-91.648-91.648-91.648-51.072 0-91.648 40.576-91.648 91.648v235.904z" fill="#2c2c2c" p-id="66463"></path><path d="M96.59136 446.71488h830.72v171.264c0 145.664-118.656 264.448-264.448 264.448h-301.824c-145.664 0-264.448-118.656-264.448-264.448v-171.264z m785.664 45.056h-740.608v126.208c0 121.728 97.664 219.264 219.264 219.264h301.952c121.728 0 219.264-97.664 219.264-219.264l0.128-126.208z" fill="#2c2c2c" p-id="66464"></path><path d="M328.01536 934.90688l-31.488-31.488 69.12-69.12 31.488 31.488-69.12 69.12zM696.01536 934.90688l-69.12-69.12 31.488-31.488 69.12 69.12-31.488 31.488z" fill="#2c2c2c" p-id="66465"></path></svg>