<?xml version="1.0" standalone="no"?><!DOCTYPE svg PUBLIC "-//W3C//DTD SVG 1.1//EN" "http://www.w3.org/Graphics/SVG/1.1/DTD/svg11.dtd"><svg t="1689151006878" viewBox="0 0 1024 1024" version="1.1" xmlns="http://www.w3.org/2000/svg" p-id="22552" xmlns:xlink="http://www.w3.org/1999/xlink" width="200" height="200"><path d="M861.712 349.712C861.712 156.88 704.864 0 512.04 0 319.2 0 162.296 156.88 162.296 349.712c0 88.664 33.232 169.68 87.824 231.384 0.24 0.32 0.4 0.68 0.656 1 37.664 46.528 97.44 171.576 97.44 309.048 0 8.864 3.8 17.344 10.448 23.232a31.008 31.008 0 0 0 24.304 7.656l5.024-0.592c12.44 58.52 64.48 102.56 126.664 102.56 71.448 0 129.648-58.104 129.648-129.536 0-1.088-0.208-2.112-0.32-3.168l9.744-1.152a31.104 31.104 0 0 0 27.456-30.888c0-127.928 43.136-221.544 80-262.848 1.616-1.816 2.912-3.792 4.032-5.832 59.712-62.768 96.496-147.576 96.496-240.864z m-452.424 506.6a589.624 589.624 0 0 0-4.728-45.152l218.664-24.128a600.04 600.04 0 0 0-3.648 44.488l-210.288 24.792zM634.536 723.2l-241.776 26.68a663.12 663.12 0 0 0-25.768-82.072 347.632 347.632 0 0 0 145.048 31.616 347.68 347.68 0 0 0 137.928-28.408 504.68 504.68 0 0 0-15.432 52.184zM512.04 62.2c158.504 0 287.472 128.968 287.472 287.512 0 158.552-128.968 287.512-287.472 287.512-158.544 0-287.544-128.96-287.544-287.512 0-158.544 129-287.512 287.544-287.512z m2.616 899.6c-30.28 0-55.96-20.12-64.392-47.688l131.624-15.504c-2.168 35.192-31.448 63.192-67.232 63.192z" fill="#2c2c2c" p-id="22553"></path><path d="M321.664 356.672l127.448 68.28a31.336 31.336 0 0 0 14.704 3.672 31.096 31.096 0 0 0 23.264-10.448l68.112-76.72 116.992 67c14.944 8.504 33.96 3.368 42.464-11.536a31.064 31.064 0 0 0-11.536-42.464l-138.928-79.544a31.072 31.072 0 0 0-38.704 6.344l-68.616 77.272-105.792-56.704a31.168 31.168 0 0 0-42.128 12.728 31.12 31.12 0 0 0 12.72 42.12z" fill="#2c2c2c" p-id="22554"></path></svg>