<?xml version="1.0" standalone="no"?><!DOCTYPE svg PUBLIC "-//W3C//DTD SVG 1.1//EN" "http://www.w3.org/Graphics/SVG/1.1/DTD/svg11.dtd"><svg t="1689151066580" viewBox="0 0 1024 1024" version="1.1" xmlns="http://www.w3.org/2000/svg" p-id="26106" xmlns:xlink="http://www.w3.org/1999/xlink" width="200" height="200"><path d="M827.45216 104.91264c-2.40512-0.74752-4.96128-1.15072-7.61216-1.15072L204.896 103.76192c-2.65088 0-5.20832 0.4032-7.61216 1.15072-10.42176 3.24096-17.98784 12.96128-17.98784 24.44928l0 197.08672 0 569.37728c0 14.13888 11.46112 25.6 25.6 25.6L819.84 921.42592c14.13888 0 25.6-11.46112 25.6-25.6L845.44 326.44736 845.44 129.36064C845.44 117.87392 837.87392 108.1536 827.45216 104.91264zM794.24 300.84736 473.6 300.84736 473.6 154.96064l320.64 0L794.24 300.84736zM381.44 300.84736 381.44 154.96064l60.16 0 0 145.88672L381.44 300.84736zM230.496 154.96064 349.44 154.96064l0 145.88672-118.944 0L230.496 154.96064zM230.496 870.22464 230.496 352.04736 794.24 352.04736l0 518.17728L230.496 870.22464zM512 488.99456c-81.51936 0-147.84 66.32064-147.84 147.84s66.32064 147.84 147.84 147.84c81.51936 0 147.84-66.32064 147.84-147.84S593.51936 488.99456 512 488.99456zM512 752.67456c-63.87456 0-115.84-51.96544-115.84-115.84s51.96544-115.84 115.84-115.84c63.87456 0 115.84 51.96544 115.84 115.84S575.87456 752.67456 512 752.67456z" p-id="26107"></path></svg>