<?xml version="1.0" standalone="no"?><!DOCTYPE svg PUBLIC "-//W3C//DTD SVG 1.1//EN" "http://www.w3.org/Graphics/SVG/1.1/DTD/svg11.dtd"><svg t="1689150794079" viewBox="0 0 1024 1024" version="1.1" xmlns="http://www.w3.org/2000/svg" p-id="15521" xmlns:xlink="http://www.w3.org/1999/xlink" width="200" height="200"><path d="M985.42962 658.613903h-21.97955V222.838806c0-17.457569-14.146157-31.603725-31.589399-31.603726h-105.420794v-25.629676c0-11.623712-9.442027-21.049366-21.064716-21.049366-11.638038 0-21.080066 9.425655-21.080066 21.049366v25.629676H239.675229v-25.629676c0-11.623712-9.425655-21.049366-21.05039-21.049366-11.652364 0-21.078019 9.425655-21.078019 21.049366v25.629676H92.139329c-17.443243 0-31.589399 14.146157-31.589399 31.603726v435.775097h-21.980573c-17.457569 0-31.589399 14.145133-31.589399 31.589399 0 17.443243 14.132854 31.603725 31.589399 31.603725h946.861286c17.458592 0 31.590423-14.160483 31.590423-31.603725-0.001023-17.444266-14.133877-31.589399-31.591446-31.589399z m-861.699868 0V343.167094h589.469241c11.638038 0 21.078019-9.439981 21.078019-21.063692 0-11.638038-9.439981-21.063693-21.078019-21.063693H123.729752v-46.609458h776.527193v46.609458h-71.183083c-11.624735 0-21.05039 9.425655-21.05039 21.063693 0 11.624735 9.425655 21.063693 21.05039 21.063692h71.183083v315.446809H123.729752zM185.063533 112.641228h67.096007c11.638038 0 21.078019-9.425655 21.078018-21.063693 0-11.623712-9.439981-21.064716-21.078018-21.064716h-67.096007c-11.639061 0-21.065739 9.441004-21.065739 21.064716 0 11.637015 9.426678 21.063693 21.065739 21.063693zM771.826134 112.641228h67.111357c11.638038 0 21.063693-9.425655 21.063692-21.063693 0-11.623712-9.425655-21.064716-21.063692-21.064716h-67.111357c-11.623712 0-21.064716 9.441004-21.064716 21.064716 0 11.637015 9.439981 21.063693 21.064716 21.063693zM602.859176 890.309406h-59.262614v-83.807587c0-17.443243-14.132854-31.603725-31.603725-31.603726-17.458592 0-31.590423 14.160483-31.590423 31.603726v83.807587h-59.248287c-17.457569 0-31.589399 14.146157-31.589399 31.589399s14.132854 31.589399 31.589399 31.589399H602.859176c17.443243 0 31.589399-14.146157 31.589399-31.589399s-14.146157-31.589399-31.589399-31.589399z" fill="#2c2c2c" p-id="15522"></path></svg>