<?xml version="1.0" standalone="no"?><!DOCTYPE svg PUBLIC "-//W3C//DTD SVG 1.1//EN" "http://www.w3.org/Graphics/SVG/1.1/DTD/svg11.dtd"><svg t="1689151739186" viewBox="0 0 1024 1024" version="1.1" xmlns="http://www.w3.org/2000/svg" p-id="45759" xmlns:xlink="http://www.w3.org/1999/xlink" width="200" height="200"><path d="M667.123215 1023.8755a31.125051 31.125051 0 0 0 22.067661-9.18189l123.56645-123.924389a31.358488 31.358488 0 0 0 0-44.275384L178.226484 210.079929a31.125051 31.125051 0 0 0-44.150884 0l-123.566451 123.924389a31.358488 31.358488 0 0 0 0 44.275384l634.530842 636.382783a31.125051 31.125051 0 0 0 22.083224 9.213015zM156.14326 276.547474l590.395521 592.076274-79.368879 79.649004L76.774382 356.180916z m517.594028 545.34201a23.343788 23.343788 0 0 0-33.117054 0l-20.044532 20.106783a23.452726 23.452726 0 1 0 33.117053 33.225992l20.044533-20.106783a23.514976 23.514976 0 0 0 0-33.225992z m-113.264059-80.396005l-20.044532 20.09122a23.452726 23.452726 0 1 0 33.117053 33.225992l20.044533-20.091221a23.483851 23.483851 0 0 0-33.194866-33.225991z m-80.162567-80.380443l-20.02897 20.106783a23.452726 23.452726 0 1 0 33.117053 33.210429l20.02897-20.106783a23.483851 23.483851 0 0 0-33.194866-33.210429z m-80.147005-80.380443l-20.02897 20.09122a23.514976 23.514976 0 0 0 0 33.210429 23.343788 23.343788 0 0 0 33.101491 0l20.044532-20.09122a23.483851 23.483851 0 0 0-33.194866-33.210429z m-80.147006-80.396005l-20.044532 20.106782a23.452726 23.452726 0 1 0 33.101491 33.225992l20.060095-20.106783a23.483851 23.483851 0 0 0-33.194866-33.225991z m-80.147005-80.380443l-20.044532 20.09122a23.530538 23.530538 0 0 0 0 33.210429 23.343788 23.343788 0 0 0 33.117054 0l20.060095-20.09122a23.483851 23.483851 0 0 0-33.210429-33.210429z m-80.162567-80.380443l-20.044533 20.106782a23.546101 23.546101 0 0 0 0 33.210429 23.343788 23.343788 0 0 0 33.117054 0l20.044533-20.106782a23.483851 23.483851 0 1 0-33.194867-33.210429z m853.511135 305.959246L378.609559 9.167728a31.125051 31.125051 0 0 0-44.150884 0l-123.582013 123.924389a31.374051 31.374051 0 0 0 0 44.275384L845.423067 813.734721a31.125051 31.125051 0 0 0 44.150884 0l123.56645-123.924388a31.358488 31.358488 0 0 0 0-44.275385z m-145.649674 101.778915L277.188582 155.23759l79.368879-79.649004 590.348833 592.029586z m-30.051236-66.202982a23.343788 23.343788 0 0 0 16.558527-6.878636l20.044532-20.09122a23.452726 23.452726 0 0 0-33.117054-33.210429l-20.044532 20.09122a23.483851 23.483851 0 0 0 16.480714 40.089065z m-80.162568-80.380443a23.343788 23.343788 0 0 0 16.558527-6.878636l20.044533-20.09122a23.452726 23.452726 0 1 0-33.101492-33.225992l-20.060095 20.09122a23.499413 23.499413 0 0 0 16.480715 40.073503z m-80.147005-80.380443a23.343788 23.343788 0 0 0 16.558527-6.878636l20.02897-20.106783a23.437163 23.437163 0 1 0-33.101491-33.210429l-20.044533 20.106783a23.546101 23.546101 0 0 0 0 33.210429 23.343788 23.343788 0 0 0 16.480715 6.878636z m-80.147005-80.396005a23.343788 23.343788 0 0 0 16.558527-6.878637l20.02897-20.09122a23.452726 23.452726 0 1 0-33.117054-33.210429l-20.169033 20.169033a23.483851 23.483851 0 0 0 16.620777 40.011253z m-80.147005-80.380443a23.343788 23.343788 0 0 0 16.558527-6.878636l20.02897-20.091221a23.452726 23.452726 0 1 0-33.117054-33.210428l-20.02897 20.09122a23.483851 23.483851 0 0 0 16.480714 40.089065z m-80.162568-80.380443a23.343788 23.343788 0 0 0 16.558527-6.878636l20.044533-20.091221a23.452726 23.452726 0 0 0-33.117054-33.225991l-20.044532 20.106783a23.483851 23.483851 0 0 0 16.480714 40.089065z m-96.705532-87.243517a23.343788 23.343788 0 0 0 33.117054 0l20.02897-20.09122a23.452726 23.452726 0 1 0-33.117054-33.210429l-20.02897 20.09122a23.546101 23.546101 0 0 0-0.077812 33.210429z" fill="#2c2c2c" p-id="45760"></path></svg>