<?xml version="1.0" standalone="no"?><!DOCTYPE svg PUBLIC "-//W3C//DTD SVG 1.1//EN" "http://www.w3.org/Graphics/SVG/1.1/DTD/svg11.dtd"><svg t="1689150937941" viewBox="0 0 1024 1024" version="1.1" xmlns="http://www.w3.org/2000/svg" p-id="20037" xmlns:xlink="http://www.w3.org/1999/xlink" width="200" height="200"><path d="M512 0h-0.699932c-3.099697 0-6.099404 0-9.199101 0.09999-1.199883 0-2.299775 0.09999-3.399668 0.09999-0.699932 0-1.399863 0-2.099795 0.099991h-0.499951c-1.499854 0.09999-2.999707 0.09999-4.499561 0.19998-1.599844 0.09999-3.299678 0.19998-4.899522 0.299971-195.180939 12.79875-350.865736 172.283175-358.365003 368.364027-0.19998 4.899522-0.299971 9.899033-0.299971 14.898545v5.799434c0 1.399863 0 2.799727 0.099991 4.199589 0 1.599844 0.09999 3.299678 0.19998 4.899522v0.299971c0.09999 1.599844 0.09999 3.099697 0.199981 4.699541s0.19998 3.299678 0.29997 4.899521c0.499951 8.199199 1.299873 16.198418 2.299776 24.297627l0.599941 4.799532c0.19998 1.199883 0.299971 2.399766 0.499951 3.599648 0.09999 0.599941 0.19998 1.199883 0.299971 1.899815 0.09999 0.799922 0.299971 1.699834 0.399961 2.499756 0.09999 0.899912 0.299971 1.699834 0.399961 2.499755 0.09999 0.799922 0.299971 1.599844 0.399961 2.399766 0.09999 0.799922 0.299971 1.499854 0.399961 2.199785 0.19998 0.999902 0.299971 1.899814 0.499951 2.799727 0.09999 0.599941 0.19998 1.099893 0.299971 1.699834 0.19998 1.099893 0.399961 2.199785 0.699931 3.399668 0.09999 0.499951 0.19998 0.999902 0.299971 1.399863 0.19998 0.999902 0.399961 2.099795 0.699932 3.099697 0.19998 0.999902 0.399961 1.999805 0.699931 2.999708 0.09999 0.299971 0.09999 0.599941 0.199981 0.899912 0.299971 1.199883 0.499951 2.399766 0.799922 3.599648 0.09999 0.499951 0.299971 1.099893 0.399961 1.599844 0.19998 0.999902 0.499951 1.999805 0.699931 2.999707 0.699932 2.799727 1.399863 5.499463 2.099795 8.199199 0.299971 1.099893 0.599941 2.299775 0.999902 3.399668 1.899814 6.499365 3.899619 12.998731 6.099405 19.398106 0.399961 1.199883 0.799922 2.399766 1.299873 3.599648 0.19998 0.399961 0.299971 0.799922 0.399961 1.199883 0.399961 1.199883 0.899912 2.499756 1.299873 3.699639v0.09999c0.499951 1.299873 0.999902 2.699736 1.499853 3.99961 0.399961 1.199883 0.899912 2.299775 1.299873 3.499658 0 0.09999 0.09999 0.19998 0.099991 0.29997 0.399961 1.099893 0.899912 2.199785 1.299873 3.299678 0.19998 0.499951 0.399961 1.099893 0.699931 1.599844 0.399961 0.999902 0.799922 1.999805 1.199883 2.899717 0.499951 1.199883 0.999902 2.399766 1.599844 3.699639 0.399961 0.799922 0.699932 1.699834 1.099893 2.499755 0.299971 0.799922 0.699932 1.599844 0.999902 2.299776 0.299971 0.599941 0.499951 1.199883 0.799922 1.799824 0.399961 0.799922 0.799922 1.699834 1.099892 2.499756 0.299971 0.699932 0.699932 1.499854 0.999903 2.199785 0.999902 2.099795 1.999805 4.0996 2.999707 6.199395 0.399961 0.799922 0.699932 1.499854 1.099892 2.299775 0.399961 0.799922 0.799922 1.699834 1.299873 2.499756 0.599941 1.199883 1.299873 2.499756 1.899815 3.699639 0.399961 0.799922 0.899912 1.599844 1.299873 2.399765 0.399961 0.799922 0.799922 1.499854 1.199883 2.299776 2.199785 4.0996 4.499561 8.099209 6.899326 12.098818 2.399766 3.999609 4.799531 7.899229 7.299287 11.798848 0.799922 1.199883 1.499854 2.399766 2.299776 3.499658 0.999902 1.599844 2.099795 3.199688 3.199687 4.799532 0.599941 0.899912 1.199883 1.799824 1.899815 2.699736 0.19998 0.299971 0.399961 0.499951 0.599941 0.799922 0.799922 1.099893 1.499854 2.199785 2.299775 3.299678 0.699932 0.999902 1.399863 1.899814 1.999805 2.899716 0.499951 0.599941 0.899912 1.299873 1.399863 1.899815 0.699932 0.999902 1.399863 1.999805 2.199786 2.899717 0.799922 1.099893 1.699834 2.299775 2.599746 3.399668l5.399472 6.899326c0.699932 0.899912 1.399863 1.799824 2.199786 2.699736 1.699834 2.099795 3.399668 4.19959 5.199492 6.199395 0.699932 0.799922 1.299873 1.599844 1.999805 2.299775 4.999512 5.799434 10.199004 11.498877 15.598476 16.99834l2.499756 2.499756 0.999903 0.999903c0.899912 0.899912 1.699834 1.699834 2.599746 2.499755l0.599941 0.599942c0.699932 0.699932 1.399863 1.299873 2.099795 1.999805 0.699932 0.699932 1.399863 1.299873 1.999805 1.999804 0.299971 0.299971 0.599941 0.599941 0.899912 0.799922 0.799922 0.699932 1.499854 1.499854 2.299775 2.199785 0.799922 0.799922 1.599844 1.499854 2.399766 2.199785l0.299971 0.299971c0.499951 0.499951 0.999902 0.999902 1.599843 1.399863 50.99502 45.795528 80.492139 110.789181 80.49214 179.282492v56.994435c0 65.093643 52.794844 117.888487 117.888487 117.888487h116.188654c65.093643 0 117.888487-52.794844 117.888487-117.888487v-56.994435c0-68.593301 29.59711-133.586954 80.59213-179.482472 0.399961-0.399961 0.799922-0.699932 1.199883-1.099893l2.999707-2.699736c0.599941-0.499951 1.199883-1.099893 1.799824-1.699834 0.599941-0.599941 1.299873-1.199883 1.899814-1.799824 9.099111-8.69915 17.798262-17.798262 25.997462-27.297334 0.699932-0.799922 1.299873-1.499854 1.899814-2.299776 0.399961-0.499951 0.799922-0.899912 1.199883-1.399863 0.699932-0.899912 1.499854-1.799824 2.199785-2.699736 0.699932-0.899912 1.399863-1.699834 2.199785-2.599747 0.799922-0.899912 1.499854-1.899814 2.299776-2.799726 0.299971-0.299971 0.499951-0.599941 0.699931-0.899912 0.599941-0.699932 1.099893-1.399863 1.699834-2.099795 0.699932-0.899912 1.299873-1.699834 1.999805-2.599746 0.19998-0.19998 0.299971-0.399961 0.499951-0.599942 0.899912-1.099893 1.699834-2.199785 2.499756-3.399668 0.799922-0.999902 1.599844-2.099795 2.299776-3.099697 0.399961-0.599941 0.899912-1.199883 1.299873-1.799824 0.599941-0.799922 1.199883-1.699834 1.799824-2.499756 0.899912-1.199883 1.699834-2.499756 2.599746-3.699639 1.199883-1.699834 2.399766-3.499658 3.499658-5.199492 0.599941-0.799922 1.099893-1.699834 1.699834-2.499756 1.699834-2.599746 3.399668-5.199492 4.999512-7.799238 1.699834-2.699736 3.299678-5.399473 4.899521-8.099209 0.799922-1.299873 1.499854-2.499756 2.199786-3.799629 0.799922-1.299873 1.499854-2.699736 2.299775-3.99961l1.799824-3.299678c0.599941-1.099893 1.199883-2.199785 1.699834-3.199687s1.099893-1.999805 1.599844-2.999707c0.299971-0.499951 0.499951-0.999902 0.699932-1.399863 0.399961-0.799922 0.899912-1.699834 1.299873-2.499756 0.399961-0.699932 0.699932-1.399863 1.099892-2.099795 0.299971-0.599941 0.599941-1.299873 0.999903-1.999805 0.499951-0.899912 0.899912-1.899814 1.399863-2.799727 0.19998-0.299971 0.299971-0.599941 0.499951-0.999902 0.499951-0.999902 0.999902-1.999805 1.399863-2.999707 4.699541-9.999024 8.999121-20.298018 12.798751-30.796992 0.399961-0.999902 0.699932-1.999805 1.099892-2.999708 0.299971-0.699932 0.499951-1.399863 0.799922-2.099794 0.499951-1.299873 0.899912-2.699736 1.399863-3.99961 0.299971-0.799922 0.599941-1.699834 0.799922-2.499756 0.399961-1.099893 0.699932-2.199785 1.099893-3.299678 0-0.09999 0.09999-0.299971 0.09999-0.39996 0.399961-1.199883 0.799922-2.399766 1.099893-3.499659 0.299971-0.899912 0.499951-1.799824 0.799922-2.699736 0.19998-0.499951 0.299971-0.999902 0.39996-1.399863 0.299971-0.999902 0.599941-1.999805 0.899913-3.099698 0.19998-0.699932 0.399961-1.299873 0.599941-1.999804 0.19998-0.799922 0.499951-1.599844 0.699932-2.399766 0.19998-0.799922 0.399961-1.499854 0.599941-2.299775 0.299971-0.899912 0.499951-1.899814 0.699932-2.799727 0.399961-1.399863 0.699932-2.799727 1.099892-4.19959 0.299971-1.299873 0.699932-2.699736 0.999903-3.999609 0.09999-0.19998 0.09999-0.499951 0.19998-0.699932 0.19998-0.799922 0.399961-1.699834 0.599942-2.499756 0.19998-0.899912 0.399961-1.899814 0.599941-2.799726 1.699834-7.899229 3.199688-15.898447 4.39957-23.997657 0.19998-1.399863 0.399961-2.899717 0.599942-4.29958 0.19998-1.499854 0.399961-2.999707 0.599941-4.599551v-0.399961c0.09999-0.999902 0.19998-1.899814 0.399961-2.799726 0.19998-1.299873 0.299971-2.599746 0.399961-3.799629v-0.199981c0.19998-1.499854 0.299971-2.899717 0.499951-4.39957 0.09999-0.499951 0.09999-0.899912 0.09999-1.399863l0.299971-3.299678c0.09999-0.699932 0.09999-1.399863 0.199981-2.099795 0.09999-0.899912 0.09999-1.799824 0.19998-2.699737 0.09999-0.899912 0.09999-1.699834 0.199981-2.599746 0-0.699932 0.09999-1.499854 0.09999-2.199785 0.09999-0.999902 0.09999-1.899814 0.19998-2.899717 0-0.799922 0.09999-1.499854 0.09999-2.299775 0-0.899912 0.09999-1.799824 0.099991-2.699736 0-0.599941 0-1.199883 0.09999-1.799825 0-1.199883 0.09999-2.399766 0.09999-3.599648 0-1.499854 0.09999-3.099697 0.09999-4.599551v-5.299482C895.962504 171.883215 724.079289 0 512 0z m291.371546 516.449565C784.973342 556.74563 758.975881 592.242164 725.879113 621.939264c-37.896299 34.09667-66.293526 76.59252-83.391856 123.18797C601.691241 759.925788 557.795528 767.925007 512 767.925007s-89.691241-7.999219-130.387267-22.697783c-16.99834-46.69544-45.395567-89.0913-83.291866-123.08798-32.796797-29.397129-58.694268-64.593692-77.092471-104.389805-18.998145-41.195977-28.797188-85.19168-29.197149-130.887219-0.399961-43.295772 7.799238-85.391661 24.297627-125.087784 15.998438-38.39625 38.996192-72.892882 68.393321-102.689972 29.397129-29.6971 63.69378-53.094815 101.89005-69.493213C426.108388 72.692901 468.004296 64.093741 511.400059 63.993751h0.599941c43.195782 0 85.09169 8.49917 124.487843 25.097549 38.09628 16.098428 72.29294 39.196172 101.690069 68.593301 29.397129 29.397129 52.494874 63.59379 68.593302 101.690069C823.469583 298.870813 831.968753 340.766722 831.968753 383.962504c0 46.195489-9.599063 90.791134-28.597207 132.487061z" p-id="20038"></path><path d="M543.796895 560.645249l10.298994-92.190996c1.099893-9.499072-6.399375-17.798262-15.898447-17.798262h-27.797286c-12.89874 0-20.497998-14.498584-13.198711-25.097549L610.990333 260.474563c9.399082-13.698662 30.896983-5.699443 29.097158 10.898936l-10.298994 92.190997c-1.099893 9.499072 6.399375 17.798262 15.898448 17.798262h27.797285c12.89874 0 20.497998 14.498584 13.198711 25.097549l-113.788888 164.983888c-9.399082 13.698662-30.896983 5.699443-29.097158-10.798946z" p-id="20039"></path></svg>