<?xml version="1.0" standalone="no"?><!DOCTYPE svg PUBLIC "-//W3C//DTD SVG 1.1//EN" "http://www.w3.org/Graphics/SVG/1.1/DTD/svg11.dtd"><svg t="1689150941855" viewBox="0 0 1024 1024" version="1.1" xmlns="http://www.w3.org/2000/svg" p-id="20195" xmlns:xlink="http://www.w3.org/1999/xlink" width="200" height="200"><path d="M686 571.4c-5.6 0-11-2.2-15-6.8-7.2-8.2-6.4-21 1.8-28.2 5.8-5 11.2-10.4 16.4-15.8 7.6-8 20.2-8.4 28.2-0.8 8 7.6 8.4 20.2 0.8 28.2-6 6.2-12.4 12.4-19 18.2-3.8 3.6-8.6 5.2-13.2 5.2zM324 571.4c-4.6 0-9.4-1.6-13.2-5-6.6-5.8-13-12-19-18.2-7.6-8-7.2-20.6 0.8-28.2 8-7.6 20.6-7.2 28.2 0.8 5.2 5.4 10.6 10.6 16.4 15.8 8.2 7.4 9 20 1.8 28.2-4 4.2-9.4 6.6-15 6.6z" fill="#262435" p-id="20196"></path><path d="M306.4 554.4c-5.2 0-10.6-2-14.4-6.2-52.2-54.8-80.8-126.8-80.8-202.6 0-162.2 131.8-294 294-294s294 131.8 294 294c0 75.8-28.8 147.6-80.8 202.6-7.6 8-20.2 8.4-28.2 0.8-8-7.6-8.4-20.2-0.8-28.2 45-47.4 69.8-109.6 69.8-175 0-140-114-254-254-254s-254 114-254 254c0 65.4 24.8 127.6 69.8 175 7.6 8 7.2 20.6-0.8 28.2-4 3.6-9 5.4-13.8 5.4zM377 885.8c-11 0-20.2-9-20.2-20v-178.8c0-11 9-20 20-20s20 9 20 20V866c0.2 10.8-8.8 19.8-19.8 19.8zM633 885.8c-11 0-20-9-20-20v-178.8c0-11 9-20 20-20s20 9 20 20v178.8c0 11-8.8 20-20 20z" fill="#262435" p-id="20197"></path><path d="M505 949.4c-84.4 0-148.2-34.6-148.2-80.4 0-1.8 0.2-3.6 0.4-5.4 1.2-11 11.2-18.8 22-17.6 11 1.2 18.8 11.2 17.6 22v1c0 16 43.2 40.4 108.2 40.4s108.2-24.4 108.2-40.4v-1c-1.2-11 6.6-20.8 17.6-22.2 11-1.2 20.8 6.6 22.2 17.6 0.2 1.8 0.4 3.6 0.4 5.4-0.4 46-64 80.6-148.4 80.6z" fill="#262435" p-id="20198"></path><path d="M505 878.2c-84.4 0-148.2-34.6-148.2-80.4 0-1.8 0.2-3.6 0.4-5.4 1.2-11 11.2-18.8 22-17.6 11 1.2 18.8 11.2 17.6 22v1c0 16 43.2 40.4 108.2 40.4s108.2-24.4 108.2-40.4v-1c-1.2-11 6.6-20.8 17.6-22.2 11-1.2 20.8 6.6 22.2 17.6 0.2 1.8 0.4 3.6 0.4 5.4-0.4 46-64 80.6-148.4 80.6z" fill="#262435" p-id="20199"></path><path d="M505 807.2c-84.4 0-148.2-34.6-148.2-80.4 0-1.8 0.2-3.6 0.4-5.4 1.2-11 11.2-18.8 22-17.6 11 1.2 18.8 11.2 17.6 22v1c0 16 43.2 40.4 108.2 40.4s108.2-24.4 108.2-40.4v-1c-1.2-11 6.6-20.8 17.6-22.2 11-1.2 20.8 6.6 22.2 17.6 0.2 1.8 0.4 3.6 0.4 5.4-0.4 46-64 80.6-148.4 80.6z" fill="#262435" p-id="20200"></path><path d="M505 736c-37.8 0-73.8-7-101-19.6-32.2-14.8-50-36.4-50-60.8 0-1.8 0.2-3.6 0.4-5.6 1.2-11 11.2-18.8 22.2-17.6 11 1.2 18.8 11.2 17.6 22.2v1c0 16 44.4 40.4 111 40.4 66.8 0 111-24.2 111-40.4v-1c-1.2-11 6.6-20.8 17.6-22.2 11-1.2 20.8 6.6 22.2 17.6 0.2 1.8 0.4 3.8 0.4 5.6 0 24.4-17.8 46-50 60.8-27.8 12.6-63.6 19.6-101.4 19.6z" fill="#262435" p-id="20201"></path><path d="M633 706.8c-11 0-20-9-20-20 0-55.4 20.6-108.2 58.2-149 7.4-8.2 20.2-8.6 28.2-1.2 8.2 7.4 8.6 20.2 1.2 28.2-30.6 33.4-47.6 76.6-47.6 122 0 11.2-8.8 20-20 20z" fill="#262435" p-id="20202"></path><path d="M686 571.4c-4.8 0-9.6-1.8-13.6-5.2-8.2-7.4-8.6-20.2-1.2-28.2 6-6.6 12.6-12.8 19.4-18.6 8.4-7.2 21-6.2 28.2 2.2 7.2 8.4 6.2 21-2.2 28.2-5.6 4.8-11 9.8-15.8 15.2-4 4.2-9.4 6.4-14.8 6.4zM376.8 706.8c-11 0-20-9-20-20 0-45.4-16.8-88.6-47.6-122-7.4-8.2-7-20.8 1.2-28.2 8.2-7.4 20.8-7 28.2 1.2 37.4 40.8 58.2 93.6 58.2 149 0 11.2-9 20-20 20z" fill="#262435" p-id="20203"></path><path d="M324 571.4c-5.4 0-10.8-2.2-14.8-6.4-5-5.4-10.2-10.6-15.8-15.2-8.4-7.2-9.4-19.8-2.2-28.2 7.2-8.4 19.8-9.4 28.2-2.2 6.8 5.8 13.4 12 19.4 18.6 7.4 8.2 7 20.8-1.2 28.2-4 3.4-8.8 5.2-13.6 5.2z" fill="#262435" p-id="20204"></path><path d="M461.8 572c-10.8 0-19.6-8.6-20-19.4 0-1.8-7-189-82-264.2-6.2-6.2-7.6-15.8-3.6-23.6 4.2-7.8 12.8-12 21.4-10.2 10.2 2 87.4 17.8 127.4 58.6 40-40.8 117.2-56.6 127.4-58.6 8.6-1.6 17.4 2.6 21.4 10.2 4.2 7.8 2.6 17.2-3.6 23.6-75 75.2-82 262.4-82 264.2-0.4 11-9.6 19.8-20.6 19.4-11-0.4-19.6-9.6-19.4-20.6 0.2-7 5.4-145.6 57.4-241.2-28 11.2-54.4 27-62.2 45.6-3.2 7.4-10.4 12.2-18.4 12.2s-15.2-4.8-18.4-12.2c-8.2-19.4-35.4-34.8-62.2-45.4 52 95.8 57.2 234.2 57.4 241.2 0.4 11-8.4 20.2-19.4 20.6-0.2-0.2-0.4-0.2-0.6-0.2z" fill="#262435" p-id="20205"></path></svg>