<?xml version="1.0" standalone="no"?><!DOCTYPE svg PUBLIC "-//W3C//DTD SVG 1.1//EN" "http://www.w3.org/Graphics/SVG/1.1/DTD/svg11.dtd"><svg t="1689151235233" viewBox="0 0 1024 1024" version="1.1" xmlns="http://www.w3.org/2000/svg" p-id="33728" xmlns:xlink="http://www.w3.org/1999/xlink" width="200" height="200"><path d="M624.603856 1024h-225.207712a314.456693 314.456693 0 0 1-313.900624-314.178659V426.50448h55.606842v283.316861a257.45968 257.45968 0 0 0 257.181646 257.181646h225.207711a257.45968 257.45968 0 0 0 257.181645-257.181646V426.50448h56.997013v283.316861a314.456693 314.456693 0 0 1-313.066521 314.178659z" p-id="33729"></path><path d="M28.498507 398.14499h967.002986v56.997014H28.498507zM938.782514 398.14499h-56.997013v-29.74966c0-105.931034-169.322835-194.623948-369.785501-194.623948s-369.785501 89.80505-369.785501 194.623948v29.74966h-55.606842v-29.74966c0-141.519414 187.395058-252.455064 426.50448-252.455064s426.782514 111.213684 426.782514 252.455064z" p-id="33730"></path><path d="M654.353516 142.075482h-56.997013a85.356503 85.356503 0 0 0-170.713006 0h-55.606842a142.353516 142.353516 0 0 1 284.428998 0z" p-id="33731"></path></svg>