<?xml version="1.0" standalone="no"?><!DOCTYPE svg PUBLIC "-//W3C//DTD SVG 1.1//EN" "http://www.w3.org/Graphics/SVG/1.1/DTD/svg11.dtd"><svg t="1689151219971" viewBox="0 0 1024 1024" version="1.1" xmlns="http://www.w3.org/2000/svg" p-id="33287" xmlns:xlink="http://www.w3.org/1999/xlink" width="200" height="200"><path d="M725.1 890.5H298.9c-61.3-0.2-111.8-48.1-115.2-109.3L171.1 591l-78.8-37.9c-14.1-6.8-20-23.8-13.2-37.9 4.7-9.8 14.6-16 25.4-16.1 4.2 0 8.4 0.9 12.2 2.8l50.1 24.1-4.8-72.2h-15.3c-15.7-0.3-28.1-13.2-27.9-28.8 0.3-15.3 12.6-27.6 27.9-27.9h8.7v-61.7c-0.1-62.3 50.3-112.9 112.6-113.2h215.8v-32.1h-69.6c-15.7 0-28.3-12.7-28.3-28.4s12.7-28.3 28.3-28.3h195.6c15.7 0 28.3 12.7 28.3 28.4s-12.7 28.3-28.3 28.3h-69.6v32.1H756c62.3 0.2 112.7 50.9 112.6 113.2v61.7h8.7c15.7 0 28.4 12.7 28.4 28.4s-12.7 28.4-28.4 28.4H862l-4.8 72.2 50.1-24.1c3.8-1.8 7.9-2.8 12.2-2.8 15.7 0.1 28.3 12.9 28.2 28.5-0.1 10.8-6.3 20.7-16 25.4L852.8 591l-12.6 190.4c-3.4 61.1-53.9 109-115.1 109.1zM228 597.1l11.9 180.6c1.7 31.4 27.5 56 58.9 56.1h426.3c31.3-0.1 57.1-24.6 58.9-55.9l21.4-324H218.6l5.7 86.5h363.8c15.7 0 28.4 12.7 28.4 28.4s-12.7 28.4-28.4 28.4H228zM268 279c-31.1 0.1-56.2 25.4-56.2 56.5v60h600.4v-60c0-31.1-25.1-56.4-56.2-56.5H268z m404.8 318.1c-1.9 0-3.7-0.2-5.5-0.6-1.8-0.3-3.6-0.9-5.3-1.6-1.7-0.7-3.3-1.6-4.8-2.6s-3-2.2-4.3-3.5c-11-11.1-11-29 0-40.1 1.3-1.3 2.7-2.5 4.3-3.5 1.5-1 3.2-1.9 4.8-2.6 1.7-0.7 3.5-1.2 5.3-1.6 3.6-0.7 7.4-0.7 11 0 1.8 0.4 3.6 0.9 5.3 1.6 1.7 0.7 3.3 1.6 4.9 2.6 1.5 1 3 2.2 4.3 3.5 11 11.1 11 29 0 40.1-1.3 1.3-2.7 2.5-4.3 3.5-1.5 1-3.2 1.9-4.9 2.6-1.7 0.7-3.5 1.3-5.3 1.6-1.8 0.4-3.7 0.6-5.5 0.6z m323-77.9c-1.8 0-3.7-0.2-5.5-0.6-1.8-0.4-3.6-0.9-5.3-1.6-1.7-0.7-3.3-1.6-4.9-2.6-1.5-1-3-2.2-4.3-3.5-1.3-1.3-2.5-2.8-3.5-4.3-2-3.1-3.5-6.6-4.2-10.2-0.4-1.8-0.6-3.7-0.6-5.5 0-1.9 0.2-3.7 0.6-5.6 0.4-1.8 0.9-3.6 1.6-5.3 0.7-1.7 1.6-3.3 2.6-4.9 1-1.5 2.2-3 3.5-4.3 1.3-1.3 2.7-2.5 4.3-3.6 3.1-2.1 6.5-3.5 10.2-4.2 3.6-0.7 7.4-0.7 11 0 1.8 0.4 3.6 0.9 5.3 1.6 1.7 0.7 3.3 1.6 4.9 2.6 1.5 1 3 2.2 4.3 3.6 2.6 2.6 4.7 5.7 6.1 9.2 0.7 1.7 1.2 3.5 1.6 5.3 0.4 1.8 0.5 3.7 0.5 5.6 0 1.9-0.2 3.7-0.5 5.5-0.4 1.8-0.9 3.6-1.6 5.3-0.7 1.7-1.6 3.4-2.6 4.9-1 1.5-2.2 3-3.5 4.3-1.3 1.3-2.7 2.5-4.3 3.5-1.5 1-3.2 1.9-4.9 2.6-1.7 0.7-3.5 1.2-5.3 1.6-1.8 0.4-3.7 0.6-5.5 0.6z m-967.6 0c-1.9 0-3.7-0.2-5.5-0.6-1.8-0.4-3.6-0.9-5.3-1.6-1.7-0.7-3.3-1.6-4.9-2.6-1.5-1-3-2.2-4.3-3.5C3 505.5 0 498.3 0 490.8c0-1.9 0.2-3.7 0.5-5.6 0.4-1.8 0.9-3.6 1.6-5.3 0.7-1.7 1.6-3.3 2.6-4.9 1-1.5 2.2-3 3.5-4.3 1.3-1.3 2.7-2.5 4.3-3.6 3.1-2.1 6.5-3.5 10.1-4.2 5.5-1.1 11.2-0.5 16.3 1.6 1.7 0.7 3.3 1.6 4.9 2.6 1.5 1 3 2.2 4.3 3.6 1.3 1.3 2.5 2.8 3.5 4.3s1.9 3.2 2.6 4.9c0.7 1.7 1.2 3.5 1.6 5.3 1.9 9.3-1 18.9-7.7 25.6-1.3 1.3-2.7 2.5-4.3 3.5-1.5 1-3.2 1.9-4.9 2.6-1.7 0.7-3.5 1.2-5.3 1.6-1.7 0.5-3.6 0.7-5.4 0.7z" fill="#333333" p-id="33288"></path></svg>