<?xml version="1.0" standalone="no"?><!DOCTYPE svg PUBLIC "-//W3C//DTD SVG 1.1//EN" "http://www.w3.org/Graphics/SVG/1.1/DTD/svg11.dtd"><svg t="1689151305517" viewBox="0 0 1024 1024" version="1.1" xmlns="http://www.w3.org/2000/svg" p-id="37510" xmlns:xlink="http://www.w3.org/1999/xlink" width="200" height="200"><path d="M361.9 225.4c20.6 23.1 30.9 34.7-4.8 86.9-6.5 9.5-4.1 22.5 5.5 29.1 3.6 2.5 7.7 3.6 11.8 3.6 6.7 0 13.2-3.2 17.3-9.1 50.1-73.3 30.3-106 1.5-138.3-8.2-9.2-15.9-17.8-20.5-28.6-2.6-6.1-2.8-11.4-0.5-17.1 6.9-17 33-31.3 41.6-35 10.6-4.5 15.6-16.7 11.2-27.3-4.5-10.7-16.7-15.7-27.4-11.2-5 2.1-49.5 21.6-64.2 57.8-6.5 16-6.2 33 0.7 49.3 7.4 17 18.3 29.2 27.8 39.9zM518.8 225.4c20.6 23.1 30.9 34.7-4.8 86.9-6.5 9.5-4.1 22.5 5.5 29.1 3.6 2.5 7.7 3.6 11.8 3.6 6.7 0 13.2-3.2 17.3-9.1 50.1-73.3 30.3-106 1.5-138.3-8.2-9.2-15.9-17.8-20.5-28.6-2.6-6.1-2.8-11.4-0.5-17.1 6.9-17 33-31.3 41.6-35 10.6-4.5 15.6-16.7 11.2-27.3-4.4-10.7-16.7-15.7-27.4-11.2-5 2.1-49.5 21.6-64.2 57.8-6.5 16-6.2 33 0.7 49.3 7.3 17 18.2 29.2 27.8 39.9zM665.1 225.4c20.6 23.1 30.9 34.7-4.8 86.9-6.5 9.5-4.1 22.5 5.5 29.1 3.6 2.5 7.7 3.6 11.8 3.6 6.7 0 13.2-3.2 17.3-9.1 50.1-73.3 30.3-106 1.5-138.3-8.2-9.2-15.9-17.8-20.5-28.6-2.6-6.1-2.8-11.4-0.5-17.1 6.9-17 33-31.3 41.6-35 10.6-4.5 15.6-16.7 11.2-27.3-4.5-10.7-16.7-15.7-27.4-11.2-5 2.1-49.5 21.6-64.2 57.8-6.5 16-6.2 33 0.7 49.3 7.4 17 18.3 29.2 27.8 39.9zM913.6 523.9c-4-5.1-10-8-16.5-8h-57.7l-16.4-37c-12.7-25.3-43.7-35.6-69-22.9l-32.8 16.5c-3.2 1.6-6.1 3.5-8.8 5.6-2.5-6.6-5.8-12.7-9.6-17.7l-39.6-52.2c-8.3-10.9-20.4-18-34-19.9-7.7-1-15.3-0.4-22.4 1.9-15.8-19.5-39.7-31.2-65.2-31.2-37.3 0-69 24.6-79.7 58.4-12.4 0.1-24.5 3.6-35 9.9-5.4-8-12.9-14.5-21.9-18.5l-30.3-13.4c-25.9-11.4-56.3 0.3-67.8 26.2l-18.1 40.9c-10.4-6.2-22.3-9.5-34.7-9.5-35.7 0-65.1 27.7-67.7 62.7h-63c-6.4 0-12.5 3-16.5 8-4 5.1-5.4 11.7-3.8 17.9 29.6 118.8 135 213 269.8 251.7L303.2 876c-9.1 10.8-11.1 24.6-5.4 36.9 7 15.2 24.5 24.9 44.6 24.9h335.8c20 0 37.5-9.8 44.6-24.9 5.7-12.4 3.7-26.2-5.4-36.9l-69.7-82.5c134.8-38.7 240.1-132.9 269.8-251.7a21 21 0 0 0-3.9-17.9z m-178.3-23.4l32.8-16.5c9.9-5 21.9-0.9 26.6 8.2l10.4 23.6h-80.7c0.2-1.3 0.4-2.5 0.9-3.8 1.6-5 5.2-9.1 10-11.5z m-110.4-81.1c5.3 0.7 10 3.5 13.2 7.7l39.6 52.2c7.8 10.3 10.7 28.5 8 36.5H545.1c4.9-14.1 4.8-28.9 0.6-42.4l0.3 0.2c1.3-2.2 3-4 5.1-5.6l58.9-44.7c4.4-3.2 9.6-4.6 14.9-3.9z m-83.3-29c14.6 0 28.4 6.1 38.1 16.5L532.1 443c-1.1 0.8-2.1 1.7-3.1 2.6-5.8-5.8-12.7-10.7-20.6-14.2l-15.8-7c7.4-19.8 26.6-34 49-34zM477 451.9l18.7 8.3c18.5 8.2 26.8 29.8 18.7 48.3l-3.3 7.4H409.9c0.5-2.8 1.4-5.6 2.5-8.3l16.4-37c8.1-18.5 29.8-26.8 48.2-18.7z m-115-27.7l30.3 13.4c5.3 2.3 9.2 6.6 11 12.1l1.4-0.5c-1.7 2.7-3.3 5.6-4.6 8.7l-3.5 7.9-62.7-27.6 1.7-3.8c4.4-10.1 16.3-14.7 26.4-10.2z m-52.9 70.2l12.1-27.5 62.7 27.6-0.2 0.4c-3 6.7-4.8 13.8-5.5 20.9h-65.7c-5.1-5.6-6.7-14-3.4-21.4z m-55-9.9c8.4 0 16.4 2.8 22.8 8-1.6 7.9-1.2 15.9 0.8 23.4h-59.9c2.7-17.8 17.9-31.4 36.3-31.4zM679.5 896H341.1l77.5-91.7c29.6 5.5 60.4 8.4 91.7 8.4 31.4 0 62.1-2.9 91.7-8.4l77.5 91.7z m-61.6-137.7l-0.7-0.9-1.8 1.5c-33.5 7.8-68.8 12-105.1 12s-71.6-4.2-105.1-12l-1.7-1.5-0.7 0.9c-119.1-28.6-215-103.5-251-200.6h373.9l1 0.5 0.2-0.5h341.9c-35.9 97.1-131.9 172-250.9 200.6z" fill="#2c2c2c" p-id="37511"></path><path d="M663.7 490.4l-41.8-52.3c-5.4-6.8-15.2-7.9-22-2.5-6.8 5.4-7.9 15.3-2.4 22l41.8 52.3c3.1 3.9 7.6 5.9 12.3 5.9 3.4 0 6.9-1.1 9.8-3.4 6.6-5.4 7.7-15.3 2.3-22zM394.4 683.7c-66.9-19.1-116.5-87.5-117-88.1-5-7-14.8-8.7-21.9-3.6-7 5-8.7 14.8-3.6 21.9 2.3 3.2 56.4 77.9 133.9 100.1 1.4 0.4 2.9 0.6 4.3 0.6 6.8 0 13.1-4.5 15.1-11.4 2.3-8.4-2.5-17.1-10.8-19.5z" fill="#2c2c2c" p-id="37512"></path><path d="M484.1 489.7m-15.7 0a15.7 15.7 0 1 0 31.4 0 15.7 15.7 0 1 0-31.4 0Z" fill="#2c2c2c" p-id="37513"></path></svg>