<?xml version="1.0" standalone="no"?><!DOCTYPE svg PUBLIC "-//W3C//DTD SVG 1.1//EN" "http://www.w3.org/Graphics/SVG/1.1/DTD/svg11.dtd"><svg t="1689151261163" viewBox="0 0 1025 1024" version="1.1" xmlns="http://www.w3.org/2000/svg" p-id="34378" xmlns:xlink="http://www.w3.org/1999/xlink" width="200.1953125" height="200"><path d="M105.936668 1023.996766a26.947283 26.947283 0 0 1-19.671517-8.084185L8.387503 937.495987a26.947283 26.947283 0 0 1 0-39.073561L242.828867 664.520007a29.372539 29.372539 0 0 1 19.132572-8.084185h76.799757a28.294647 28.294647 0 0 1 19.671517 7.814712 29.103066 29.103066 0 0 1 8.353658 19.402044v78.95554a28.294647 28.294647 0 0 1-8.084185 19.94099l-233.363474 232.824528a26.947283 26.947283 0 0 1-19.402044 8.62313z m-39.073561-105.902823l39.073561 38.804088 206.146718-206.146718v-39.881979h-37.99567zM664.014906 731.079797a137.700618 137.700618 0 0 1-55.511404-11.587332L404.512567 629.758011a26.947283 26.947283 0 0 1-14.28206-14.28206l-87.309198-200.757261a137.161672 137.161672 0 0 1 29.103066-152.25215l223.392979-223.392979a141.203765 141.203765 0 0 1 194.828858 0l233.90242 233.902419a137.700618 137.700618 0 0 1 0 194.828859l-222.854033 223.123505a138.239563 138.239563 0 0 1-97.279693 40.151453z m-226.896126-147.40164l193.750967 85.422888a82.997633 82.997633 0 0 0 91.890236-17.246261l223.123506-222.854033a82.997633 82.997633 0 0 0 0-116.95121L711.98107 78.147122a84.61447 84.61447 0 0 0-116.951209 0l-223.392979 223.392978a80.84185 80.84185 0 0 0-17.515734 91.351291z" p-id="34379"></path><path d="M456.709455 372.249772l194.936648-194.936648 39.073561 39.073561-194.936648 194.9097zM612.4917 528.058964l194.936648-194.9097 39.07356 39.073561-194.936647 194.9097zM27.816494 956.871084L417.662842 566.970841l39.07356 39.073561L66.863107 995.917697z" p-id="34380"></path></svg>