<?xml version="1.0" standalone="no"?><!DOCTYPE svg PUBLIC "-//W3C//DTD SVG 1.1//EN" "http://www.w3.org/Graphics/SVG/1.1/DTD/svg11.dtd"><svg t="1689151224379" viewBox="0 0 1024 1024" version="1.1" xmlns="http://www.w3.org/2000/svg" p-id="33434" xmlns:xlink="http://www.w3.org/1999/xlink" width="200" height="200"><path d="M535.60014 883.2H137.00014C61.10014 882.9-0.09986 821.3 0.00014 745.5V365.2c-0.1-68.3 55.1-123.8 123.4-124.1h90.4v-44h-28.3c-15.6-0.6-27.7-13.7-27.1-29.2 0.6-14.7 12.4-26.6 27.1-27.1H487.00014c15.6 0 28.2 12.6 28.2 28.2s-12.6 28.2-28.2 28.2h-28.3v44h90.4c68.3 0.3 123.5 55.8 123.4 124V473h265.7c47.4 0 85.8 38.4 85.8 85.8s-38.4 85.7-85.8 85.8H672.50014v101c0.1 75.7-61.1 137.3-136.9 137.6zM56.10014 458v287.5c-0.1 44.8 36.1 81.1 80.9 81.3h398.6c44.8-0.2 80.9-36.5 80.9-81.3V588.2H225.80014c-15.6-0.3-28-13.1-27.7-28.7 0.3-15.2 12.5-27.5 27.7-27.7h390.7V458H56.10014z m731 71.4v58.8h151.2c16.2 0 29.4-13.2 29.4-29.4s-13.2-29.4-29.4-29.4H787.10014z m-114.6 0v58.8H731.00014v-58.8h-58.5zM123.40014 297.5c-37.3 0.1-67.4 30.4-67.3 67.7v36.4h560.4v-36.4c0.1-37.3-30.1-67.5-67.3-67.7H123.40014z m146.5-100.3v44h132.7v-44H269.90014z m-128.3 391c-1.8 0-3.7-0.2-5.5-0.6-3.6-0.7-7-2.2-10.1-4.2-1.5-1-3-2.2-4.3-3.5-8-8.1-10.4-20.2-6.1-30.7 0.7-1.7 1.6-3.3 2.6-4.9 2-3.1 4.7-5.7 7.7-7.8 1.5-1 3.2-1.9 4.9-2.6 6.9-2.9 14.6-2.9 21.4 0 1.7 0.7 3.3 1.6 4.9 2.6 1.5 1 2.9 2.2 4.2 3.5 1.3 1.3 2.5 2.7 3.5 4.3 2 3.1 3.5 6.5 4.2 10.1 0.4 1.8 0.5 3.7 0.5 5.5 0 7.5-3 14.6-8.2 19.9-5.1 5.4-12.3 8.3-19.7 8.4z" fill="#333333" p-id="33435"></path></svg>