<?xml version="1.0" standalone="no"?><!DOCTYPE svg PUBLIC "-//W3C//DTD SVG 1.1//EN" "http://www.w3.org/Graphics/SVG/1.1/DTD/svg11.dtd"><svg t="1689151877374" viewBox="0 0 1024 1024" version="1.1" xmlns="http://www.w3.org/2000/svg" p-id="48863" xmlns:xlink="http://www.w3.org/1999/xlink" width="200" height="200"><path d="M533.333333 298.666667V64a21.333333 21.333333 0 0 0-42.666666 0v234.666667a270.293333 270.293333 0 0 0-256 268.16V640a64 64 0 0 0 64 64h121.6a97.493333 97.493333 0 0 0 91.733333 91.733333 97.493333 97.493333 0 0 0 91.733333-91.733333H725.333333a64 64 0 0 0 64-64v-73.173333A274.773333 274.773333 0 0 0 533.333333 298.666667z m-21.333333 454.4a53.333333 53.333333 0 0 1-49.066667-49.066667h98.133334a53.333333 53.333333 0 0 1-49.066667 49.066667zM725.333333 661.333333H298.666667a21.333333 21.333333 0 0 1-21.333334-21.333333v-21.333333h469.333334v21.333333a21.333333 21.333333 0 0 1-21.333334 21.333333z m-448-85.333333v-9.173333A230.826667 230.826667 0 0 1 507.306667 341.333333h7.04A232.106667 232.106667 0 0 1 746.666667 566.826667V576H277.333333zM301.226667 799.146667l-60.373334 60.373333a21.333333 21.333333 0 0 0 30.08 30.08l60.373334-60.373333a21.333333 21.333333 0 0 0-30.08-30.08zM722.773333 799.146667a21.333333 21.333333 0 0 0-30.08 30.08l60.373334 60.373333a21.333333 21.333333 0 0 0 30.08-30.08zM512 853.333333a21.333333 21.333333 0 0 0-21.333333 21.333334v85.333333a21.333333 21.333333 0 0 0 42.666666 0v-85.333333a21.333333 21.333333 0 0 0-21.333333-21.333334z" fill="#2c2c2c" p-id="48864"></path></svg>