<?xml version="1.0" standalone="no"?><!DOCTYPE svg PUBLIC "-//W3C//DTD SVG 1.1//EN" "http://www.w3.org/Graphics/SVG/1.1/DTD/svg11.dtd"><svg t="1689151900547" viewBox="0 0 1024 1024" version="1.1" xmlns="http://www.w3.org/2000/svg" p-id="49502" xmlns:xlink="http://www.w3.org/1999/xlink" width="200" height="200"><path d="M873.70752 81.92a29.72672 29.72672 0 1 1 0 59.45344H652.71808a148.86912 148.86912 0 0 1-106.02496 113.57184v568.40192c37.1712 38.144 78.70464 56.59648 125.93152 56.59648 43.28448 0 80.0768-35.44064 109.9264-113.47968a59.43296 59.43296 0 0 1-27.76064-50.3296c0-9.14432 2.06848-17.8176 5.75488-25.55904-71.81312-19.28192-124.672-84.82816-124.672-162.7136v-88.53504a20.48 20.48 0 0 1 20.48-20.48h49.31584c4.6592-50.39104 47.0528-89.84576 98.6624-89.84576s94.0032 39.45472 98.67264 89.84576H952.32a20.48 20.48 0 0 1 20.48 20.48v88.5248c0 71.68-44.7488 132.88448-107.83744 157.2352a59.45344 59.45344 0 0 1-22.80448 83.56864 29.3888 29.3888 0 0 1-1.73056 12.8c-37.888 102.73792-93.65504 157.94176-167.80288 157.94176-59.2896 0-112.37376-21.8112-158.1568-64.41984-45.7728 42.61888-98.85696 64.41984-158.14656 64.41984-74.14784 0-129.91488-55.1936-167.80288-157.93152a29.66528 29.66528 0 0 1-1.8432-10.52672 59.45344 59.45344 0 0 1-27.62752-85.8624C95.9488 660.736 51.2 599.52128 51.2 527.85152v-88.5248a20.48 20.48 0 0 1 20.48-20.48h49.31584c4.6592-50.39104 47.06304-89.84576 98.67264-89.84576 51.6096 0 94.0032 39.45472 98.6624 89.84576h49.31584a20.48 20.48 0 0 1 20.48 20.48v88.5248c0 77.89568-52.85888 143.44192-124.672 162.7136a59.2896 59.2896 0 0 1 5.75488 25.56928c0 19.47648-9.35936 36.7616-23.82848 47.616l-1.0752-2.8672c30.208 81.93024 67.71712 119.06048 112.0256 119.06048 45.13792 0 85.07392-16.86528 120.9856-51.6608l-0.01024-570.96192A148.81792 148.81792 0 0 1 361.3696 141.38368H160.2048a29.72672 29.72672 0 0 1 0-59.46368h713.50272z m-663.9616 614.4a19.8144 19.8144 0 1 0 0 39.63904 19.8144 19.8144 0 0 0 0-39.63904z m604.49792 0a19.8144 19.8144 0 1 0 0 39.63904 19.8144 19.8144 0 0 0 0-39.63904z m-495.8208-218.0096h-197.5296a10.24 10.24 0 0 0-10.24 10.24v39.30112c0 59.24864 47.26784 107.45856 106.15808 108.97408l2.85696 0.04096c59.2384 0 107.44832-47.26784 108.96384-106.15808l0.04096-2.85696V488.5504a10.24 10.24 0 0 0-10.24-10.24z m584.68352 0h-197.5296a10.24 10.24 0 0 0-10.24 10.24v39.30112c0 59.24864 47.2576 107.45856 106.1376 108.97408l2.8672 0.04096c59.2384 0 107.44832-47.26784 108.96384-106.15808l0.04096-2.85696V488.5504a10.24 10.24 0 0 0-10.24-10.24z m-98.77504-89.856a39.65952 39.65952 0 0 0-38.5536 30.39232h77.1072a39.65952 39.65952 0 0 0-38.5536-30.39232z m-584.66304 0a39.65952 39.65952 0 0 0-38.5536 30.39232h77.1072a39.65952 39.65952 0 0 0-38.5536-30.39232zM591.1552 141.38368H422.93248a89.22112 89.22112 0 0 0 168.22272 0z" fill="#050505" p-id="49503"></path></svg>