<?xml version="1.0" standalone="no"?><!DOCTYPE svg PUBLIC "-//W3C//DTD SVG 1.1//EN" "http://www.w3.org/Graphics/SVG/1.1/DTD/svg11.dtd"><svg t="1689151230656" viewBox="0 0 1024 1024" version="1.1" xmlns="http://www.w3.org/2000/svg" p-id="33581" xmlns:xlink="http://www.w3.org/1999/xlink" width="200" height="200"><path d="M435.3 895.6H227.6C102 895.5 0.1 793.6 0 668V431.7c0-15.9 12.9-28.8 28.8-28.8h605.3c15.9 0 28.8 12.9 28.8 28.8v44.2h273.3c48.5 0 87.7 39.3 87.7 87.7s-39.3 87.7-87.7 87.7H662.9V668c-0.1 125.6-101.9 227.5-227.6 227.6zM57.7 460.5V668c0.1 93.8 76.1 169.8 169.9 169.9h207.7c93.8-0.1 169.8-76.1 169.9-169.9v-74.3h-373c-15.9 0-28.8-12.9-28.8-28.9 0-15.9 12.9-28.8 28.8-28.8h373v-75.5H57.7z m723 73.1v60.1h155.5c16.6-0.3 29.8-13.9 29.6-30.5-0.3-16.2-13.3-29.3-29.6-29.6H780.7z m-117.8 0v60.1H723v-60.1h-60.1z m-517.2 60.1c-1.9 0-3.8-0.2-5.6-0.6-1.8-0.4-3.7-0.9-5.4-1.6-1.7-0.7-3.4-1.6-5-2.7-1.6-1-3.1-2.2-4.4-3.6-1.3-1.3-2.5-2.8-3.6-4.4-1-1.6-1.9-3.2-2.7-5-0.7-1.7-1.3-3.5-1.6-5.4-0.4-1.8-0.6-3.7-0.6-5.6 0-3.8 0.8-7.5 2.2-11 0.7-1.7 1.6-3.4 2.7-5 1-1.6 2.2-3 3.6-4.4 1.3-1.3 2.8-2.5 4.4-3.6 1.6-1 3.2-1.9 5-2.7 1.7-0.7 3.5-1.3 5.4-1.6 3.7-0.7 7.6-0.7 11.3 0 1.8 0.4 3.7 0.9 5.4 1.6 7.1 2.9 12.7 8.5 15.6 15.6 0.7 1.7 1.3 3.5 1.6 5.4 0.4 1.9 0.5 3.8 0.5 5.7 0 1.9-0.2 3.8-0.5 5.6-0.7 3.7-2.2 7.2-4.3 10.4-1.1 1.6-2.3 3-3.6 4.4-1.3 1.3-2.8 2.5-4.4 3.6-1.6 1-3.2 1.9-5 2.7-1.7 0.7-3.6 1.3-5.4 1.6-1.8 0.5-3.7 0.7-5.6 0.6z m54.2-244.5c-9.7 0-18.8-4.9-24.2-13-19.3-29.4-13.6-62.8 15.1-89.3 4.4-3.5 6.2-9.3 4.7-14.8-0.8-4.9-4.4-9-9.1-10.5-14.4-6.8-20.6-23.9-13.9-38.4 4.8-10.1 15-16.6 26.2-16.6 4.2 0 8.4 0.9 12.2 2.7 20.6 9 35.8 27.2 40.7 49.2 6.4 25.8-1.9 52.9-21.6 70.7-10.1 9.2-8.2 12.1-6.1 15.3 8.7 13.3 5 31.2-8.3 39.9-4.6 3.2-10.1 4.8-15.7 4.8z m259.6 0c-8.3 0-16.1-3.6-21.6-9.8-23.6-26.7-18.5-63.9 12.6-92.6 4.4-3.5 6.2-9.3 4.7-14.8-0.8-4.9-4.4-9-9.1-10.5-14.5-6.6-20.9-23.7-14.3-38.2 6.6-14.5 23.7-20.9 38.2-14.3l0.6 0.3c20.6 9 35.8 27.2 40.7 49.2 6.3 25.8-2 53-21.7 70.7-3.8 3.2-6.8 7.2-8.8 11.8l0.2 0.3c10.5 11.9 9.4 30.2-2.5 40.7-5.2 4.6-12 7.2-19 7.2z m-133-4.1c-9 0-17.5-4.2-22.9-11.3-24.5-32-17.9-73.3 16.7-105.3 7.9-6.3 11.4-16.6 9.1-26.4-2-8.7-8.3-15.7-16.7-18.6-14.4-6.8-20.7-23.9-13.9-38.4 6.8-14.4 23.9-20.7 38.4-13.9 24.3 10.3 42.3 31.6 48.3 57.3 7.1 30.2-2.8 61.8-26 82.4-12.2 11.3-15.6 20.7-10.1 27.9 9.7 12.6 7.3 30.7-5.3 40.4-5.1 3.8-11.3 5.9-17.6 5.9z" fill="#333333" p-id="33582"></path></svg>