<?xml version="1.0" standalone="no"?><!DOCTYPE svg PUBLIC "-//W3C//DTD SVG 1.1//EN" "http://www.w3.org/Graphics/SVG/1.1/DTD/svg11.dtd"><svg t="1689152222812" viewBox="0 0 1024 1024" version="1.1" xmlns="http://www.w3.org/2000/svg" p-id="62400" xmlns:xlink="http://www.w3.org/1999/xlink" width="200" height="200"><path d="M792 534.4H232c-10.2 0-19.8-4.6-26.2-12.6-6.4-7.9-8.8-18.4-6.6-28.3l89.6-403.2c3.4-15.4 17-26.3 32.8-26.3h380.8c15.8 0 29.4 10.9 32.8 26.3l89.6 403.2c2.2 10-0.2 20.4-6.6 28.3-6.4 8-16 12.6-26.2 12.6z m-518.1-67.2h476.2l-74.7-336H348.5l-74.6 336zM803.2 960H220.8v-87.6c0-1.1 0.9-2 2-2h578.3c1.1 0 2 0.9 2 2V960z" fill="#2c2c2c" p-id="62401"></path><path d="M489.6 512h67.2v369.6h-67.2zM399 892.8h-65.2c-0.6 0-1-0.4-1-1v-65.2c0-0.6 0.4-1 1-1H399c0.6 0 1 0.4 1 1v65.2c0 0.6-0.4 1-1 1z" fill="#2c2c2c" p-id="62402"></path></svg>