<?xml version="1.0" standalone="no"?><!DOCTYPE svg PUBLIC "-//W3C//DTD SVG 1.1//EN" "http://www.w3.org/Graphics/SVG/1.1/DTD/svg11.dtd"><svg t="1689150356247" viewBox="0 0 1024 1024" version="1.1" xmlns="http://www.w3.org/2000/svg" p-id="4942" xmlns:xlink="http://www.w3.org/1999/xlink" width="200" height="200"><path d="M339.3 228.9v207.2h-77.9V228.9h77.9m40-40H221.4v274.7c0 7 5.6 12.6 12.6 12.6h145.3V188.9z" p-id="4943"></path><path d="M428.8 270.4H307.7c-10.2 0-18.4 8.2-18.4 18.4 0 12.8 10.4 23.2 23.2 23.2h116.4c10.2 0 18.4-8.2 18.4-18.4v-4.8c-0.1-10.1-8.3-18.4-18.5-18.4zM671.4 372.5c14.4 0 26.2 11.8 26.2 26.2v37.4H484.8v-37.4c0-14.4 11.8-26.2 26.2-26.2h160.4m0-40H511c-36.6 0-66.2 29.6-66.2 66.2v77.4h292.8v-77.4c0-36.6-29.6-66.2-66.2-66.2z" p-id="4944"></path><path d="M759.3 476.5c-7.8 47.1-29.4 91.2-62.6 127.1-42.5 45.8-100.4 74.8-163.2 81.4l-35.8 3.8v106.4H397.1v-132l-19.5-11.6c-34.9-20.9-64.1-50.1-84.4-84.7-16.3-27.8-26.6-58.6-30.3-90.4h496.4m43.3-40H221.4v13.4c0 99.9 54.3 187.4 135.7 236v149.2h180.5V724.7c149-15.8 265-138.8 265-288.2z" p-id="4945"></path></svg>