<?xml version="1.0" standalone="no"?><!DOCTYPE svg PUBLIC "-//W3C//DTD SVG 1.1//EN" "http://www.w3.org/Graphics/SVG/1.1/DTD/svg11.dtd"><svg t="1689151265917" viewBox="0 0 1024 1024" version="1.1" xmlns="http://www.w3.org/2000/svg" p-id="34526" xmlns:xlink="http://www.w3.org/1999/xlink" width="200" height="200"><path d="M804.465474 939.99498l-56.780194-198.642765c-0.031969-0.115089-0.079923-0.220586-0.115089-0.335675a21.473597 21.473597 0 0 0-0.386825-1.131703 23.305423 23.305423 0 0 0-0.418794-1.090144c-0.047954-0.111892-0.079923-0.22698-0.131073-0.342069-0.086316-0.195011-0.191814-0.370841-0.284525-0.562655a19.059936 19.059936 0 0 0-1.070962-1.988474 22.777934 22.777934 0 0 0-0.674547-1.058174c-0.191814-0.281327-0.396416-0.553064-0.601017-0.824801a24.136618 24.136618 0 0 0-0.706516-0.895133 26.099516 26.099516 0 0 0-1.457788-1.576073 27.947326 27.947326 0 0 0-1.601648-1.429016 27.678786 27.678786 0 0 0-1.745509-1.275564 23.423708 23.423708 0 0 0-3.849071-2.036428 22.761949 22.761949 0 0 0-6.291505-1.563285 18.816971 18.816971 0 0 0-0.946284-0.067135 21.46081 21.46081 0 0 0-3.363142 0.063938c-0.377235 0.035166-0.751272 0.089513-1.128506 0.143861-0.351659 0.05115-0.706516 0.105498-1.058175 0.175829a20.786263 20.786263 0 0 0-1.154082 0.26854c-0.22698 0.057544-0.457157 0.09271-0.684138 0.159845-0.13427 0.038363-0.255752 0.09271-0.386825 0.131073-0.332478 0.102301-0.661759 0.220586-0.994237 0.338872-0.415597 0.150254-0.827998 0.300509-1.230807 0.473142-0.095907 0.04156-0.195011 0.070332-0.290919 0.111891-65.232806 28.86164-134.78143 43.497062-206.714944 43.497062-71.939908 0-141.488533-14.635422-206.718142-43.500259-0.108695-0.047954-0.220586-0.079923-0.329281-0.127876a21.898786 21.898786 0 0 0-1.134901-0.434779 19.449958 19.449958 0 0 0-1.077356-0.367643c-0.121482-0.038363-0.236571-0.089513-0.36125-0.12468-0.214193-0.060741-0.428385-0.095907-0.642578-0.150254a23.017702 23.017702 0 0 0-1.214823-0.281328 24.657713 24.657713 0 0 0-2.177091-0.31969 25.687116 25.687116 0 0 0-2.154712-0.102301c-0.406007 0-0.80562 0.015985-1.20843 0.038363a20.962093 20.962093 0 0 0-2.199469 0.233374c-0.284524 0.044757-0.569049 0.089513-0.850376 0.147058a21.342524 21.342524 0 0 0-2.093972 0.517898 23.113609 23.113609 0 0 0-4.028097 1.643208 22.35914 22.35914 0 0 0-2.74614 1.710343 22.298398 22.298398 0 0 0-2.499978 2.109956 20.907746 20.907746 0 0 0-0.738485 0.767257 22.180113 22.180113 0 0 0-0.728894 0.818407c-0.242965 0.287721-0.473142 0.58823-0.703318 0.888739-0.207799 0.278131-0.415597 0.556261-0.613806 0.843982a23.999151 23.999151 0 0 0-1.716737 2.995498c-0.095907 0.201405-0.210996 0.393219-0.303705 0.601018-0.054347 0.121482-0.089513 0.246162-0.140664 0.367644-0.140664 0.335675-0.265343 0.677743-0.393219 1.023009-0.147058 0.399613-0.287721 0.799226-0.409204 1.202036-0.031969 0.105498-0.076726 0.204602-0.105498 0.313296l-56.780194 198.642765a22.375124 22.375124 0 0 0 21.518354 28.529162h545.100734a22.378321 22.378321 0 0 0 21.518354-28.529162z m-536.945434-16.22748l41.732372-145.999363c64.027573 24.891087 131.565346 37.528444 201.14594 37.528444 69.577397 0 137.11517-12.634161 201.145939-37.525247l41.732372 145.996166H267.52004z" fill="#2c2c2c" p-id="34527"></path><path d="M996.880672 403.238163h-88.809965a403.887134 403.887134 0 0 0 5.14062-64.212994c0-12.359227-10.313209-22.378321-22.672437-22.378321h-225.896362l-59.775693-245.221641a22.378321 22.378321 0 0 0-21.73894-17.077856h-145.459087a22.378321 22.378321 0 0 0-21.742137 17.077856l-59.775692 245.221641H129.960501a22.378321 22.378321 0 0 0-22.378321 22.378321c0 20.862989 1.595255 41.358334 4.667478 61.374144H31.415966a22.378321 22.378321 0 1 0 0 44.756642h90.382841c46.693965 170.781755 203.207942 296.682189 388.596348 296.682189 184.365396 0 340.182448-124.503387 387.825893-293.843339h98.656427a22.378321 22.378321 0 0 0 0.003197-44.756642zM439.874671 162.162905a39.90694 39.90694 0 0 1 23.567569 16.841285 39.954894 39.954894 0 0 1 5.732047 30.239505 39.945303 39.945303 0 0 1-17.327214 25.43456 39.942106 39.942106 0 0 1-30.236308 5.732048c-0.258949-0.054347-0.517898-0.076726-0.776848-0.121483l19.040754-78.125915z m-29.612912 121.482314c0.7225 0.22698 1.460985 0.421991 2.218651 0.581836 5.827954 1.211626 11.68468 1.812644 17.499847 1.812644 16.364946 0 32.387824-4.747401 46.396653-13.925709 18.98321-12.43915 31.985015-31.52466 36.61413-53.746334 4.625919-22.218476 0.326084-44.910093-12.113066-63.893303-11.80936-18.020942-29.612912-30.635921-50.392782-35.830889l4.763386-19.539471h110.302744l53.02703 217.542855h-216.360001l8.043408-33.001629z m100.136593 413.436283c-189.91522 0-345.770635-148.633611-357.365802-335.678012h714.731603c-11.595167 187.044401-167.450582 335.678012-357.365801 335.678012z" fill="#2c2c2c" p-id="34528"></path></svg>