<?xml version="1.0" standalone="no"?><!DOCTYPE svg PUBLIC "-//W3C//DTD SVG 1.1//EN" "http://www.w3.org/Graphics/SVG/1.1/DTD/svg11.dtd"><svg t="1689151895312" viewBox="0 0 1024 1024" version="1.1" xmlns="http://www.w3.org/2000/svg" p-id="49359" xmlns:xlink="http://www.w3.org/1999/xlink" width="200" height="200"><path d="M817.7 498.5c-8.9-15.4-23-26.2-39.5-30.9-1.8-11.5-6.3-26.6-17.5-38.6-11.1-11.8-26.6-18-44.7-18-23.2 0-37.3 9.9-44.9 18.2-11.1 12-15.3 27.2-16.7 38.5-16.3 4.7-30.3 15.4-39.2 30.8-12.1 20.9-12.1 45.8 0 66.7l43.6 75.4c8.6 14.8 21.9 25.4 37.6 30.3-0.7 14.3-4.4 40.2-21.2 58.5-13.5 14.5-33.7 21.9-60.1 21.9-26.1 0-46.3-7.4-60.1-22-18.4-19.4-22.5-47.7-23.3-62.3 0.2-5.1 0.1-8.8 0.1-10.7V375.1c0.5-5.8 2.2-14 6.7-18.9 1.2-1.3 4.9-5.3 15.5-5.3 9.4 0 13.4 3.1 15.6 5.5 7.2 7.6 7.9 22.2 7.7 25.7-0.6 11 7.8 20.5 18.8 21.1h1.2c10.5 0 19.3-8.2 19.9-18.8 0.2-3.5 1.4-34.4-18.5-55.5-11.1-11.8-26.6-18-44.7-18-8.6 0-16 1.4-22.2 3.5v-41.8h105.1v-40H382.2v40h109.4v42c-6.4-2.3-13.9-3.7-22.9-3.7-18.1 0-33.6 6.2-44.7 18-19.9 21.1-18.7 52-18.5 55.5 0.6 10.6 9.4 18.8 19.9 18.8h1.2c11-0.6 19.4-10.1 18.8-21.1-0.2-3.5 0.5-18.1 7.7-25.7 2.2-2.3 6.2-5.5 15.6-5.5 10.5 0 14.3 4 15.5 5.3 6.4 6.9 7.1 20.3 6.9 24.5v-0.1h0.3c0 1.5 0.1 2.6 0.1 3.1v270.1c-0.1 0.4-0.1 0.8-0.1 1.2 0 0.6-0.3 5 0 11.9-0.8 14.5-4.9 42.8-23.1 62.2-13.8 14.7-34.1 22.2-60.2 22.2-26.4 0-46.6-7.4-60.1-21.9-16.8-18.1-20.5-43.9-21.2-58.2 16.1-4.7 29.8-15.5 38.6-30.6l43.6-75.4c12.1-20.9 12.1-45.8 0-66.7-8.9-15.4-23-26.2-39.5-30.9-1.8-11.5-6.3-26.6-17.5-38.6-11.1-11.8-26.6-18-44.7-18-23.2 0-37.3 9.9-44.9 18.2-11.1 12-15.3 27.2-16.7 38.5-16.3 4.7-30.3 15.4-39.2 30.8-12.1 20.9-12.1 45.8 0 66.7l43.6 75.4c8.4 14.6 21.5 25.1 36.8 30.1 0.7 19.8 5.7 57.3 31.7 85.6 21.3 23.2 51.5 35 89.7 35 37.7 0 67.7-11.7 89.4-34.8 5.5-5.9 10.1-12.1 14-18.6 3.9 6.4 8.5 12.7 14 18.6 21.7 23.1 51.8 34.8 89.4 34.8 38.2 0 68.3-11.8 89.7-35 25.8-28.1 30.9-65.4 31.7-85.3 15.8-4.9 29.3-15.5 37.9-30.4l43.6-75.4c11.7-20.9 11.7-45.9-0.3-66.7z m-510.5-47.4c9.3 0 13.3 3.1 15.5 5.4 2.3 2.4 3.9 5.5 5 8.7h-40.9c1.1-3.3 2.6-6.4 4.8-8.8 1.3-1.4 5.1-5.3 15.6-5.3z m-66.2 94c-7-12-2.3-22.7 0-26.7s9.2-13.3 23.1-13.3h87.1c13.9 0 20.8 9.3 23.1 13.3 2.3 4 7 14.6 0 26.7l-43.6 75.4c-4.9 8.5-13.3 13.3-23.1 13.3s-18.2-4.9-23.1-13.3L241 545.1z m474.9-94c9.3 0 13.3 3.1 15.5 5.4 2.3 2.4 3.9 5.5 5 8.7h-40.9c1.1-3.3 2.6-6.4 4.8-8.8 1.3-1.4 5-5.3 15.6-5.3z m67.1 94l-43.6 75.4c-4.9 8.5-13.3 13.3-23.1 13.3s-18.2-4.9-23.1-13.3l-43.6-75.4c-7-12-2.3-22.7 0-26.7s9.2-13.3 23.1-13.3h87.1c13.9 0 20.8 9.3 23.1 13.3 2.4 4.1 7.1 14.7 0.1 26.7z" p-id="49360"></path></svg>