<?xml version="1.0" standalone="no"?><!DOCTYPE svg PUBLIC "-//W3C//DTD SVG 1.1//EN" "http://www.w3.org/Graphics/SVG/1.1/DTD/svg11.dtd"><svg t="1689150429704" viewBox="0 0 1024 1024" version="1.1" xmlns="http://www.w3.org/2000/svg" p-id="6405" xmlns:xlink="http://www.w3.org/1999/xlink" width="200" height="200"><path d="M395.928 0c-146.664 0-266 119.328-266 266v497.984c0 38.32 26.424 70.576 62 79.528v64.52c0 41.88-34.08 75.96-75.96 75.96C74.08 984 40 949.92 40 908.024V265.968a20 20 0 1 0-40 0v642.064c0 63.936 52.024 115.96 115.968 115.96s115.96-52.024 115.96-115.96v-64.512c35.584-8.96 62-41.216 62-79.536V511.648a264.544 264.544 0 0 0 102 20.344c75.032 0 136.072-61.04 136.072-136.056V136.064C532 61.04 470.96 0 395.92 0z m-142 763.984a42.048 42.048 0 0 1-41.992 42.008 42.056 42.056 0 0 1-42-42.008V406.12a268.08 268.08 0 0 0 84 84.704v273.16z m122-272.88c-115.28-10.16-206-107.232-206-225.104 0-117.88 90.72-214.952 206-225.104v450.208z m481.848 374.888a19.944 19.944 0 0 1 20.392 19.608c0.064 3.456 0.104 6.92 0.104 10.392a20 20 0 1 1-40 0c0-3.208-0.032-6.416-0.096-9.6a20 20 0 0 1 19.6-20.4z m-8.896-69.408a20 20 0 0 1 22.888 16.616c0.544 3.416 1.056 6.84 1.528 10.288a20 20 0 0 1-39.616 5.48 488.824 488.824 0 0 0-1.416-9.496 20 20 0 0 1 16.616-22.888z m108.776-57.904a20 20 0 0 1 23.8 15.28c0.736 3.352 1.44 6.72 2.12 10.088a20 20 0 1 1-39.208 7.92 606.88 606.88 0 0 0-1.992-9.48 20 20 0 0 1 15.28-23.808z m-127.328-9.584a20 20 0 0 1 25 13.232c1.016 3.304 2.008 6.632 2.96 9.968a20 20 0 0 1-38.456 11 482.96 482.96 0 0 0-2.728-9.2 20 20 0 0 1 13.224-25z m106.488-57.232a20 20 0 0 1 25.36 12.528c1.104 3.256 2.176 6.52 3.232 9.8a20 20 0 0 1-38.088 12.224 602.48 602.48 0 0 0-3.032-9.2 20 20 0 0 1 12.528-25.36z m-134.528-6.936a20 20 0 0 1 26.64 9.488c1.496 3.144 2.96 6.312 4.392 9.496a20 20 0 0 1-36.48 16.392 454.8 454.8 0 0 0-4.04-8.728 20 20 0 0 1 9.488-26.64z m106.248-57.128a20 20 0 0 1 26.624 9.56c1.464 3.12 2.92 6.264 4.344 9.424a20 20 0 0 1-36.472 16.44 576.864 576.864 0 0 0-4.056-8.808 20 20 0 0 1 9.56-26.616z m-143.384-2.272a20 20 0 0 1 27.752 5.464c1.936 2.896 3.848 5.808 5.728 8.744a20 20 0 0 1-33.68 21.576 443.712 443.712 0 0 0-5.264-8.032 20 20 0 0 1 5.464-27.752z m-45.648-53.12a20 20 0 0 1 28.264 1.2c2.352 2.56 4.688 5.152 6.992 7.784a20 20 0 1 1-30.048 26.4c-2.112-2.4-4.24-4.776-6.4-7.128a20 20 0 0 1 1.2-28.256z m153.52-5.016a20 20 0 0 1 27.552 6.416 600 600 0 0 1 5.4 8.848 20 20 0 0 1-34.312 20.56 596.584 596.584 0 0 0-5.048-8.272 20 20 0 0 1 6.408-27.552z m116.2-17.568a20 20 0 0 1 27.28 7.504c1.688 2.984 3.36 5.984 5.024 8.992a20 20 0 1 1-35.064 19.256 675.352 675.352 0 0 0-4.736-8.48 20 20 0 0 1 7.496-27.272zM666.16 507.056a20 20 0 0 1 28.096-3.256c2.736 2.168 5.44 4.368 8.136 6.6a20 20 0 0 1-25.56 30.768 408.904 408.904 0 0 0-7.416-6.016 20 20 0 0 1-3.256-28.096z m164.424-15.408a20 20 0 0 1 28.12 3.064c2.16 2.696 4.304 5.408 6.424 8.144a20 20 0 1 1-31.616 24.504 568.256 568.256 0 0 0-5.992-7.6 20 20 0 0 1 3.064-28.112z m119.44-19.824a20 20 0 0 1 27.872 4.776c1.976 2.8 3.936 5.616 5.88 8.44a20 20 0 1 1-32.976 22.64 661.44 661.44 0 0 0-5.56-7.976 20 20 0 0 1 4.776-27.88z m-343.84-0.84a20 20 0 0 1 27.176-7.816c3.056 1.688 6.096 3.416 9.112 5.184a20 20 0 0 1-20.208 34.528c-2.736-1.6-5.496-3.176-8.264-4.712a20 20 0 0 1-7.824-27.184zM415.92 42.096a96.04 96.04 0 0 1 49.656 27.904h-3.088a20 20 0 1 0 0 40h25.888c2.344 8.296 3.616 17.04 3.616 26.064V180h-13a20 20 0 1 0 0 40H492v70h-13a20 20 0 1 0 0 40H492v65.936c0 1.36-0.04 2.72-0.088 4.064h-20.912a20 20 0 1 0 0 40h10.28a96.424 96.424 0 0 1-65.352 49.904V42.096z m365.704 399.456a20 20 0 0 1 28.28-0.44c2.488 2.408 4.952 4.84 7.392 7.296a20 20 0 1 1-28.36 28.208c-2.272-2.28-4.56-4.544-6.872-6.784a20 20 0 0 1-0.44-28.28z m-240.632 4.024a20 20 0 0 1 25.456-12.328c3.304 1.152 6.592 2.336 9.864 3.56a20 20 0 1 1-14.064 37.456c-2.96-1.12-5.936-2.192-8.928-3.232a20 20 0 0 1-12.328-25.456z m364.296-27.6a20 20 0 0 1 28.208 2.008c2.24 2.592 4.472 5.2 6.68 7.816a20 20 0 1 1-30.592 25.776c-2.08-2.48-4.192-4.944-6.32-7.392a20 20 0 0 1 2.024-28.216z m-178.584-19.864a20 20 0 0 1 27.992-4.072c2.768 2.072 5.52 4.16 8.264 6.288a20 20 0 1 1-24.52 31.6c-2.536-1.968-5.096-3.912-7.672-5.832a20 20 0 0 1-4.064-27.984z m128.784-29.328a20 20 0 0 1 28.272-0.76c2.488 2.352 4.96 4.728 7.416 7.12a20 20 0 0 1-27.912 28.656c-2.32-2.264-4.656-4.512-7.008-6.744a20 20 0 0 1-0.768-28.272z m-188.968-6.424a20 20 0 0 1 27.2-7.776c3.016 1.68 6.032 3.392 9.024 5.128a20 20 0 0 1-20.08 34.592c-2.784-1.616-5.568-3.2-8.368-4.752a20 20 0 0 1-7.776-27.192z m-64.512-27.088a20 20 0 0 1 25.848-11.48c3.232 1.248 6.448 2.52 9.656 3.832a20 20 0 0 1-15.104 37.04 468.96 468.96 0 0 0-8.92-3.544 20 20 0 0 1-11.48-25.84z m381.808-13.312a20 20 0 0 1 28.256 1.312c2.296 2.52 4.576 5.048 6.848 7.6a20 20 0 1 1-29.864 26.608c-2.168-2.44-4.352-4.856-6.544-7.264a20 20 0 0 1 1.304-28.256z m-182.72 2.784a20 20 0 0 1 28.064-3.552c2.712 2.104 5.4 4.224 8.08 6.36a20 20 0 0 1-24.96 31.256 714.64 714.64 0 0 0-7.632-6 20 20 0 0 1-3.544-28.064zM542.592 319.2a20 20 0 0 1 24.224-14.608l1.56 0.392a20 20 0 0 1-9.68 38.808l-1.496-0.368a20 20 0 0 1-14.608-24.224z m200.072-32.936a20 20 0 0 1 27.576-6.296c2.896 1.824 5.784 3.664 8.656 5.52a20 20 0 1 1-21.752 33.568c-2.72-1.76-5.44-3.496-8.184-5.216a20 20 0 0 1-6.296-27.576z m190.68-12.792a20 20 0 0 1 28.264-1.08c2.504 2.32 4.992 4.656 7.472 7.008a20 20 0 1 1-27.536 29.008c-2.36-2.24-4.728-4.464-7.12-6.672a20 20 0 0 1-1.08-28.264z m-252.64-19.712a20 20 0 0 1 26.824-8.984c3.064 1.52 6.12 3.072 9.16 4.64a20 20 0 1 1-18.328 35.544 701.76 701.76 0 0 0-8.656-4.384 20 20 0 0 1-8.992-26.816z m198.28-24.392a20 20 0 0 1 28.08-3.432c2.688 2.104 5.36 4.224 8.024 6.352a20 20 0 1 1-25.008 31.216 794.76 794.76 0 0 0-7.656-6.056 20 20 0 0 1-3.44-28.08zM615.84 227.6a20 20 0 0 1 25.784-11.616c3.2 1.216 6.4 2.448 9.576 3.704a20 20 0 0 1-14.712 37.2 664.4 664.4 0 0 0-9.04-3.504 20 20 0 0 1-11.608-25.784z m-67.12-19.6a20 20 0 0 1 24.504-14.12c3.304 0.888 6.592 1.8 9.88 2.736a20 20 0 0 1-10.928 38.48c-3.104-0.88-6.216-1.744-9.344-2.584a20 20 0 0 1-14.12-24.512z m272.4-17.976a20 20 0 0 1 27.68-5.792 808 808 0 0 1 8.536 5.664 20 20 0 0 1-22.304 33.2c-2.696-1.808-5.408-3.6-8.128-5.384a20 20 0 0 1-5.792-27.68z m-60.976-34.36a20 20 0 0 1 27.104-8.096c3 1.624 6 3.256 8.976 4.92a20 20 0 0 1-19.432 34.96 784.4 784.4 0 0 0-8.552-4.68 20 20 0 0 1-8.096-27.104z m-63.648-29.088a20 20 0 0 1 26.32-10.352c3.136 1.36 6.248 2.744 9.36 4.136a20 20 0 0 1-16.4 36.48c-2.968-1.328-5.944-2.64-8.928-3.944a20 20 0 0 1-10.344-26.32z m-65.88-23.568a20 20 0 0 1 25.352-12.552c3.232 1.088 6.456 2.2 9.664 3.328a20 20 0 1 1-13.248 37.744c-3.064-1.08-6.136-2.136-9.216-3.176a20 20 0 0 1-12.552-25.344z m-67.624-17.896a20 20 0 0 1 24.184-14.664c3.312 0.816 6.616 1.648 9.92 2.496a20 20 0 0 1-10 38.728c-3.144-0.808-6.296-1.6-9.448-2.376a20 20 0 0 1-14.656-24.184z" fill="#2c2c2c" p-id="6406"></path></svg>