<?xml version="1.0" standalone="no"?><!DOCTYPE svg PUBLIC "-//W3C//DTD SVG 1.1//EN" "http://www.w3.org/Graphics/SVG/1.1/DTD/svg11.dtd"><svg t="1689150188088" viewBox="0 0 1024 1024" version="1.1" xmlns="http://www.w3.org/2000/svg" p-id="2921" xmlns:xlink="http://www.w3.org/1999/xlink" width="200" height="200"><path d="M774.4 404.8c-6.4-4-9.6-10.4-11.2-17.6L708 53.6c0-0.8-6.4-17.6-17.6-19.2H572.8c-8 0-16-3.2-20.8-9.6-9.6-11.2-24-19.2-40-19.2s-30.4 8-40 19.2c-5.6 6.4-12.8 9.6-20.8 9.6H327.2s-1.6 0.8-3.2 0.8c-5.6 2.4-11.2 6.4-14.4 11.2-2.4 3.2-3.2 7.2-4 11.2l-38.4 324c-0.8 8.8-6.4 16-13.6 20.8-17.6 10.4-29.6 28-29.6 48.8V496c2.4 97.6 52.8 184 129.6 235.2 9.6 6.4 14.4 17.6 12 28.8l-44 214.4V984c0 0.8 0.8 2.4 0.8 3.2 0 0.8 0.8 0.8 0.8 2.4s0.8 0.8 0.8 2.4c0 0.8 0.8 0.8 0.8 2.4 0 0.8 0.8 0.8 0.8 2.4l0.8 0.8c0.8 0.8 0.8 0.8 2.4 0.8 0.8 0 0.8 0.8 2.4 0.8l0.8 0.8c0.8 0.8 3.2 0.8 4.8 0.8h338.4c2.4 0 3.2 0 5.6-0.8h0.8c0.8 0 0.8 0 2.4-0.8 0.8 0 0.8-0.8 2.4-0.8 0.8 0 0.8-0.8 2.4-0.8 0.8 0 0.8-0.8 2.4-0.8l0.8-0.8c0-0.8 0.8-0.8 0.8-2.4 0 0 0.8-0.8 0.8-2.4s0.8-0.8 0.8-2.4c0-0.8 0.8-0.8 0.8-2.4 0-0.8 0-0.8 0.8-2.4v-2.4-3.2-2.4-2.4L645.6 768c-3.2-12 2.4-24 12-30.4 80.8-50.4 136-139.2 138.4-240v-44.8c3.2-20-6.4-37.6-21.6-48zM512 28.8c6.4 0 12 2.4 17.6 5.6h-35.2c5.6-3.2 11.2-5.6 17.6-5.6zM349.6 80h315.2l3.2 20.8H347.2l2.4-20.8z m-4.8 44h328.8l45.6 270.4H312.8l32-270.4z m304.8 832.8H428.8l-56.8-0.8 40-195.2c31.2 11.2 64 17.6 98.4 17.6 31.2 0 60.8-5.6 89.6-14.4l49.6 192.8zM511.2 732c-124.8 0-228-96-240-219.2H752c-11.2 123.2-115.2 219.2-240.8 219.2z m242.4-264.8H270.4v-15.2c0-5.6 5.6-11.2 12-11.2h459.2c6.4 0 12 5.6 12 11.2v15.2z" fill="" p-id="2922"></path></svg>