<?xml version="1.0" standalone="no"?><!DOCTYPE svg PUBLIC "-//W3C//DTD SVG 1.1//EN" "http://www.w3.org/Graphics/SVG/1.1/DTD/svg11.dtd"><svg t="1689152105408" viewBox="0 0 1024 1024" version="1.1" xmlns="http://www.w3.org/2000/svg" p-id="57171" xmlns:xlink="http://www.w3.org/1999/xlink" width="200" height="200"><path d="M218.3 515.7c-11 0-20-9-20-20V204.4c0-22.4 20-40.7 44.5-40.7h543.7c24.6 0 44.5 18.3 44.5 40.7v290.5c0 11-9 20-20 20s-20-9-20-20V205.1c-0.6-0.5-2.2-1.4-4.5-1.4H242.8c-2.5 0-4 0.9-4.5 1.4v290.6c0 11.1-8.9 20-20 20zM942.4 827.5H87c-11 0-20-9-20-20v-186c0-11 9-20 20-20h855.3c11 0 20 9 20 20v186c0.1 11-8.9 20-19.9 20z m-835.4-40h815.3v-146H107v146z" p-id="57172"></path><path d="M87 897.5c-11 0-20-9-20-20v-68c0-11 9-20 20-20s20 9 20 20v68c0 11-8.9 20-20 20zM942.4 897.5c-11 0-20-9-20-20v-68c0-11 9-20 20-20s20 9 20 20v68c0 11-9 20-20 20zM87 639.7c-8.3 0-15.7-5.1-18.7-12.8-3-7.7-0.8-16.5 5.3-22l144-129.2c3.7-3.3 8.4-5.1 13.4-5.1h567.3c4.9 0 9.7 1.8 13.4 5.1l144 129.2c6.2 5.5 8.3 14.3 5.3 22-3 7.7-10.4 12.8-18.7 12.8H87z m151.7-129.2l-99.4 89.2h750.8l-99.4-89.2h-552z" p-id="57173"></path><path d="M462.2 496c-11 0-20-9-20-20V336.1H327.1V476c0 11-9 20-20 20s-20-9-20-20V331.2c0-19.4 14.3-35.1 31.9-35.1h131.4c17.6 0 31.9 15.8 31.9 35.1V476c-0.1 11-9 20-20.1 20zM722.2 496c-11 0-20-9-20-20V336.1h-115V476c0 11-9 20-20 20s-20-9-20-20V331.2c0-19.4 14.3-35.1 31.9-35.1h131.4c17.6 0 31.9 15.8 31.9 35.1V476c-0.2 11-9.1 20-20.2 20z" p-id="57174"></path></svg>