<?xml version="1.0" standalone="no"?><!DOCTYPE svg PUBLIC "-//W3C//DTD SVG 1.1//EN" "http://www.w3.org/Graphics/SVG/1.1/DTD/svg11.dtd"><svg t="1689150342320" viewBox="0 0 1024 1024" version="1.1" xmlns="http://www.w3.org/2000/svg" p-id="4795" xmlns:xlink="http://www.w3.org/1999/xlink" width="200" height="200"><path d="M603.1 1024H312.3c-15.8 0-28.7-12.8-28.7-28.7 0-1 0.1-2 0.2-3l19.8-187.2c-85-50.7-139.7-139.8-146.5-238.5-15.8-4.5-29.8-14-39.9-27-10.3-13.3-15.9-29.6-15.8-46.5 0.1-42.1 34.2-76.3 76.3-76.3h5.2l-30.8-181.6C131.4 128.1 201.4 24.4 308.5 3.6c12.4-2.4 25-3.6 37.6-3.6h223.3C678.5 0 767 88.5 767 197.6c0 5.2-0.2 10.5-0.6 15.7h41.4c15.8 0 28.7 12.8 28.7 28.7s-12.8 28.7-28.7 28.7h-50.5l-24.8 146.1h5.2c42.1 0 76.3 34.2 76.3 76.3 0 16.8-5.5 33.2-15.8 46.4-10.1 13-24 22.5-39.9 27-6.7 98.7-61.5 187.8-146.4 238.5l19.8 187.2c1.7 15.8-9.7 29.9-25.5 31.6-1.1 0.1-2.1 0.2-3.1 0.2zM358.5 830.9l-14.3 135.7h227l-14.3-135.7c-17.2 6-34.9 10.4-52.9 13.1l-1.3 0.2-0.7 0.1c-3.5 0.5-6.9 1-10.3 1.3-2 0.2-3.9 0.4-5.6 0.6l-0.9 0.1c-1.2 0.1-2.4 0.2-3.5 0.3-3 0.2-6.3 0.4-9.9 0.6l-2.1 0.1h-0.7c-4.3 0.2-7.8 0.2-11.2 0.2-4.1 0-8.1-0.1-11.2-0.2h-0.7c-0.7 0-1.4 0-2.1-0.1-3.4-0.2-6.7-0.4-9.9-0.6l-3.6-0.3-0.9-0.1c-1.6-0.2-3.3-0.3-5.5-0.6-3.3-0.4-6.8-0.8-10.5-1.4l-0.8-0.1h-0.1l-1-0.1c-18.1-2.7-35.8-7.1-53-13.1zM214.9 569.4c11.7 120.4 109.6 214.1 230.4 220.4h1.5c3.9 0.2 7.5 0.3 10.9 0.3 3.3 0 6.8-0.1 10.9-0.3h1.5c120.8-6.3 218.8-100.1 230.4-220.4H214.9z m-37.2-95.2c-10.4 0.4-18.6 9.2-18.1 19.7 0.4 9.8 8.3 17.7 18.1 18.1h560c10.5 0 18.9-8.5 18.9-18.9 0-10.4-8.5-18.9-18.9-18.9h-560zM346.1 57.4c-77.4 0-140.2 62.7-140.2 140.2 0 9.1 0.9 18.1 2.6 27l0.1 0.7 32.2 189.9h433.7L699 270.8H406c-15.8 0-28.7-12.8-28.7-28.7 0-15.8 12.8-28.7 28.7-28.7h302.5c8.7-76.9-46.5-146.3-123.4-155-5.2-0.6-10.5-0.9-15.8-0.9l-223.2-0.1z m547.8 213.3c-1.9 0-3.8-0.2-5.6-0.6-1.8-0.4-3.6-0.9-5.4-1.6-1.7-0.7-3.4-1.6-5-2.6s-3-2.2-4.4-3.6c-1.3-1.3-2.5-2.8-3.6-4.4-1-1.6-1.9-3.2-2.6-5-0.7-1.7-1.3-3.5-1.6-5.4-0.4-1.8-0.6-3.7-0.6-5.6 0-3.8 0.8-7.5 2.2-11 0.7-1.7 1.6-3.4 2.6-4.9 2.1-3.2 4.8-5.9 7.9-8 1.6-1 3.2-1.9 5-2.6 1.7-0.7 3.5-1.2 5.4-1.6 1.8-0.4 3.7-0.6 5.6-0.6 1.9 0 3.8 0.2 5.6 0.6 1.8 0.4 3.6 0.9 5.4 1.6 1.7 0.7 3.4 1.6 4.9 2.6 1.6 1 3 2.2 4.4 3.6 1.3 1.4 2.5 2.8 3.6 4.4 1 1.6 1.9 3.2 2.6 4.9 0.7 1.7 1.3 3.5 1.7 5.4 0.4 1.8 0.5 3.7 0.5 5.6 0 1.9-0.2 3.8-0.5 5.6-0.4 1.8-0.9 3.6-1.7 5.4-0.7 1.7-1.6 3.4-2.6 5-1.1 1.6-2.3 3-3.6 4.4-1.3 1.3-2.8 2.5-4.4 3.6-1.6 1-3.2 1.9-4.9 2.6-1.7 0.7-3.5 1.2-5.4 1.6-1.7 0.4-3.6 0.6-5.5 0.6z m-573.9 0c-1.9 0-3.8-0.2-5.6-0.6-1.8-0.4-3.6-0.9-5.4-1.6-1.7-0.7-3.4-1.6-4.9-2.6-1.6-1-3-2.2-4.4-3.6-1.3-1.3-2.5-2.8-3.6-4.4-1-1.6-1.9-3.2-2.6-5-0.7-1.7-1.2-3.5-1.6-5.4-0.7-3.7-0.7-7.5 0-11.2 0.4-1.8 0.9-3.6 1.6-5.4 2.2-5.2 5.9-9.7 10.6-12.9 1.6-1 3.2-1.9 4.9-2.6 1.7-0.7 3.5-1.2 5.4-1.6 3.7-0.7 7.5-0.7 11.2 0 1.8 0.4 3.6 0.9 5.4 1.6 1.7 0.7 3.4 1.6 5 2.6 1.6 1.1 3 2.3 4.4 3.6 8.2 8.2 10.7 20.5 6.2 31.2-0.7 1.7-1.6 3.4-2.6 5s-2.2 3-3.6 4.4c-1.3 1.3-2.8 2.5-4.4 3.6-1.6 1-3.2 1.9-5 2.6-1.7 0.7-3.5 1.2-5.4 1.6-1.8 0.5-3.7 0.7-5.6 0.7z" fill="#333333" p-id="4796"></path></svg>