<?xml version="1.0" standalone="no"?><!DOCTYPE svg PUBLIC "-//W3C//DTD SVG 1.1//EN" "http://www.w3.org/Graphics/SVG/1.1/DTD/svg11.dtd"><svg t="1689150178611" viewBox="0 0 1024 1024" version="1.1" xmlns="http://www.w3.org/2000/svg" p-id="2773" xmlns:xlink="http://www.w3.org/1999/xlink" width="200" height="200"><path d="M546.4 515.2v25.6c0 14.4 12 26.4 26.4 26.4 14.4 0 26.4-12 26.4-26.4v-25.6c0-14.4-12-26.4-26.4-26.4-15.2 0-26.4 12-26.4 26.4zM656 488.8c-14.4 0-26.4 12-26.4 26.4v25.6c0 14.4 12 26.4 26.4 26.4s26.4-12 26.4-26.4v-25.6c0-14.4-12-26.4-26.4-26.4zM462.4 515.2v25.6c0 14.4 12 26.4 26.4 26.4 14.4 0 26.4-12 26.4-26.4v-25.6c0-14.4-12-26.4-26.4-26.4-14.4 0-26.4 12-26.4 26.4z" fill="" p-id="2774"></path><path d="M738.4 957.6l-410.4 4.8V172C328 112.8 376 64 436 64 495.2 64 544 112.8 544 172v121.6c-59.2 12-104 64.8-104 128h1.6c-0.8 2.4-1.6 5.6-1.6 8 0 14.4 12 26.4 26.4 26.4h208.8c14.4 0 26.4-12 26.4-26.4 0-3.2-0.8-5.6-1.6-8h1.6c0-63.2-44.8-115.2-104-128V172c0-88-72-160-160-160s-160 72-160 160v791.2l-39.2 0.8c-14.4 0-25.6 12-25.6 26.4 0 14.4 12 25.6 26.4 25.6l502.4-6.4c14.4 0 25.6-12 25.6-26.4-2.4-14.4-14.4-26.4-28.8-25.6zM645.6 403.2h-152c8-34.4 39.2-60 76-60s68 25.6 76 60z" fill="" p-id="2775"></path></svg>