<?xml version="1.0" standalone="no"?><!DOCTYPE svg PUBLIC "-//W3C//DTD SVG 1.1//EN" "http://www.w3.org/Graphics/SVG/1.1/DTD/svg11.dtd"><svg t="1689150462696" viewBox="0 0 1024 1024" version="1.1" xmlns="http://www.w3.org/2000/svg" p-id="7019" xmlns:xlink="http://www.w3.org/1999/xlink" width="200" height="200"><path d="M963.708913 970.653274H168.842702V654.040458h53.346725V666.843672a26.673363 26.673363 0 1 0 53.346726 0v-80.020088a26.673363 26.673363 0 0 0-53.346726 0v13.336681h-53.346725V192.858015l190.181076-137.367818 28.540499 39.743311a198.449819 198.449819 0 0 0-32.541503 264.333025l14.937083 21.605424 328.349096-222.72258-14.403616-21.872157A197.916352 197.916352 0 0 0 433.709194 66.159542L399.033823 19.747891a47.745319 47.745319 0 0 0-66.683407-10.669345L135.500998 151.247569a46.945119 46.945119 0 0 0-19.204821 31.207835 29.340699 29.340699 0 0 0 0 6.935074v781.262796H60.282115a26.673363 26.673363 0 0 0 0 53.346726h903.426798a26.673363 26.673363 0 0 0 0-53.346726zM517.463553 99.767979a150.7045 150.7045 0 0 1 28.807232 2.93407 143.769425 143.769425 0 0 1 76.819285 42.410647l-237.659662 160.040177a145.103094 145.103094 0 0 1 50.679389-181.112134 142.435757 142.435757 0 0 1 81.353756-24.27276zM166.975566 186.723142a4.001004 4.001004 0 0 1 0 2.667336h-2.667336z" fill="#231815" p-id="7020"></path><path d="M465.183762 360.900201a29.874166 29.874166 0 0 0-8.002009 41.610446l7.201808 10.669345A30.1409 30.1409 0 0 0 513.729283 379.038088l-7.201808-10.402612a29.874166 29.874166 0 0 0-41.343713-7.735275zM560.407667 295.550462a29.874166 29.874166 0 0 0-7.735275 41.610446l7.201808 10.402612a29.874166 29.874166 0 0 0 41.610446 8.002008 30.407634 30.407634 0 0 0 8.002009-41.877179l-7.201808-10.402612a30.407634 30.407634 0 0 0-41.87718-7.735275zM655.898306 230.200723a29.874166 29.874166 0 0 0-8.80221 41.610446l7.201808 10.402612a30.1409 30.1409 0 0 0 41.610446 8.002009 30.407634 30.407634 0 0 0 7.735276-41.87718l-7.201808-10.402611a29.874166 29.874166 0 0 0-40.543512-7.735276z" fill="#231815" p-id="7021"></path></svg>