<?xml version="1.0" standalone="no"?><!DOCTYPE svg PUBLIC "-//W3C//DTD SVG 1.1//EN" "http://www.w3.org/Graphics/SVG/1.1/DTD/svg11.dtd"><svg t="1689151055165" viewBox="0 0 1024 1024" version="1.1" xmlns="http://www.w3.org/2000/svg" p-id="25759" xmlns:xlink="http://www.w3.org/1999/xlink" width="200" height="200"><path d="M832 32H192c-35.296 0-64 28.704-64 64v832c0 35.296 28.704 64 64 64h640c35.296 0 64-28.704 64-64V96c0-35.296-28.704-64-64-64zM192 96h640v134.656H192V96z m0 832V294.656h640L832.064 928H192z" p-id="25760" fill="#2c2c2c"></path><path d="M512 352c-141.152 0-256 114.848-256 256s114.848 256 256 256 256-114.848 256-256-114.848-256-256-256z m0 448c-105.888 0-192-86.112-192-192s86.112-192 192-192 192 86.112 192 192-86.112 192-192 192z" p-id="25761" fill="#2c2c2c"></path><path d="M451.776 466.432a149.152 149.152 0 0 0-48.704 32.576 149.216 149.216 0 0 0-32.608 48.736A32.032 32.032 0 0 0 400 592a31.936 31.936 0 0 0 29.568-19.744 86.08 86.08 0 0 1 46.688-46.688 32 32 0 1 0-24.48-59.136zM768 134.656h-128a32 32 0 1 0 0 64h128a32 32 0 1 0 0-64z" p-id="25762" fill="#2c2c2c"></path></svg>