<?xml version="1.0" standalone="no"?><!DOCTYPE svg PUBLIC "-//W3C//DTD SVG 1.1//EN" "http://www.w3.org/Graphics/SVG/1.1/DTD/svg11.dtd"><svg t="1689150321349" viewBox="0 0 1675 1024" version="1.1" xmlns="http://www.w3.org/2000/svg" p-id="4420" xmlns:xlink="http://www.w3.org/1999/xlink" width="327.1484375" height="200"><path d="M691.20946632 513.14484305c126.21387231 0.20085021 252.42774462 0.15063764 378.65165996 0.15063635h84.78864762c97.73340247 0 195.47684799 0.01004303 293.21025046-0.01004174 14.3507024 0 21.9629007-7.62224133 22.01311456-21.90264642 0.03012779-7.55194403-0.06025428-15.10388806 0.0301265-22.65583209a19.62300336 19.62300336 0 0 0-4.16762875-12.64348086c-5.00115475-6.44727181-11.94050774-7.58207182-19.64308812-7.5720288-251.35320017 0.08034034-502.70639906 0.04016953-754.05959925 0.21089194-6.31671891 0-8.12436555-1.21514035-8.11432253-7.91347361 0.23097669-147.1423981 0.05021255-294.28479621 0.40169911-441.42719432 0.03012779-12.45267369-8.96793329-22.29430251-22.42485541-22.24408995-110.24633174 0.41174214-220.50270522 0.42178387-330.74903566 0-13.75819611-0.05021255-22.71608638 9.62069516-22.69600161 22.63574733 0.32135877 200.64872515 0.28118925 401.30749204 0.18076415 601.95621591-0.02008476 43.49397582 3.76592963 86.5762095 13.06526472 129.06593689 27.305499 124.77779828 88.58470503 229.88238065 183.30536356 315.5447238 3.21359287 2.90227583 6.39705925 4.2881386 10.86596201 4.28813861 248.98317504-0.11046684 497.9663501-0.11046684 746.93948211-0.02008477 4.16762875 0 7.240627-1.16492781 10.34375303-3.92661031 58.95939216-52.70292884 105.61674831-114.66502195 139.64066663-186.02687524 30.42871108-63.82999533 48.56542658-131.04430465 54.79176343-201.53246243 2.72151169-30.80028241 2.14909017-61.63069132 2.27964305-92.47114454 0.07029731-18.28735315-6.56778166-24.86517783-24.8852626-24.86517655H692.85643228c-1.72730629 0-3.46465564-0.14059462-5.17187588 0.0301265-2.91231886 0.29123228-3.70567406-1.00424842-3.63537804-3.73580184 0.15063764-5.82463774 0.42178387-11.67940324-0.06025428-17.46387017-0.48203946-5.7442974 1.12475699-7.48164672 7.22054224-7.47160369zM380.53534437 41.96178427c78.10035739 0.18076415 156.20071348 0.18076415 234.30107086 0 4.98106999-0.01004303 5.96523235 1.40594753 5.9451476 6.11586871-0.20085021 37.74967713-0.20085021 75.50939729 0 113.26911744 0.03012779 4.91077268-1.01429014 6.48744133-6.26650636 6.44727181-39.04515783-0.24101972-78.10035739-0.13055159-117.14551392-0.1305529-38.8342646 0-77.66853049-0.11046684-116.50279636 0.1305529-5.24217447 0.03012779-6.29663415-1.52645739-6.26650637-6.44727181 0.20085021-37.74967713 0.19080718-75.50939729 0-113.26911744-0.03012779-4.69987945 0.94399284-6.13595476 5.93510455-6.11586871z m1018.11653457 564.36721816c6.63807898-0.01004303 8.05406823 1.65700898 7.89338886 8.08419603-3.69563233 143.79825234-56.21779572 266.54747031-158.08870045 368.18739706-3.03282874 3.03282874-6.19620905 3.2236359-9.89184137 3.2236346-116.07096947-0.03012779-232.13189593-0.02008476-348.20286411-0.02008475-115.63914257 0-231.27828515-0.03012779-346.90738471 0.12050986-5.15179111 0.01004303-8.76708438-1.34569196-12.43258892-4.9810687-80.62101887-80.19923501-130.4618414-176.35596883-149.42204116-288.40994721a485.51367642 485.51367642 0 0 1-6.96947948-81.69556331c0.14059462-123.62291351 0.11046684-247.23578399-0.09038207-370.85869749-0.01004303-6.12591173 1.26535291-7.772879 7.61219832-7.75279295 77.23670358 0.25106146 154.47340717 0.24101972 231.70006902 0.01004303 5.90497807-0.02008476 6.91926822 1.64696595 6.91926823 7.13015887-0.16067938 114.9863807-0.13055159 229.98280446-0.12050987 344.96918646 0 14.97333518 7.16028795 22.17379264 22.03319804 22.17379265 252.00596075-0.01004303 503.99183673 0.02008476 755.96766967-0.18076415z" p-id="4421"></path></svg>