<?xml version="1.0" standalone="no"?><!DOCTYPE svg PUBLIC "-//W3C//DTD SVG 1.1//EN" "http://www.w3.org/Graphics/SVG/1.1/DTD/svg11.dtd"><svg t="1689152109627" viewBox="0 0 1251 1024" version="1.1" xmlns="http://www.w3.org/2000/svg" p-id="57320" xmlns:xlink="http://www.w3.org/1999/xlink" width="244.3359375" height="200"><path d="M1243.747108 696.598639l-68.709957-270.09029a94.990724 94.990724 0 0 0-92.141001-71.559679H1076.563435V94.990724a94.990724 94.990724 0 0 0-94.990724-94.990724H268.825649a94.990724 94.990724 0 0 0-94.990724 94.990724v259.008039H167.818846a94.990724 94.990724 0 0 0-92.141002 71.876314L2.218351 720.979592a70.293135 70.293135 0 0 0-2.21645 18.048237v189.981447a94.990724 94.990724 0 0 0 94.990724 94.990724h1060.729746a94.990724 94.990724 0 0 0 94.990724-94.990724v-176.36611a246.34261 246.34261 0 0 0-6.965987-56.044527zM335.319155 237.476809l218.478664-2.21645V348.29932h-216.895485zM696.60054 237.476809l218.162029-2.21645V348.29932H696.60054zM237.162074 94.990724a31.663575 31.663575 0 0 1 31.663575-31.663575H981.572711a31.663575 31.663575 0 0 1 31.663575 31.663575v253.308596h-36.729747V235.260359a61.427335 61.427335 0 0 0-61.110699-61.110699H696.60054a61.427335 61.427335 0 0 0-63.327149 61.110699V348.29932h-16.465058V235.260359a61.427335 61.427335 0 0 0-61.110699-61.110699h-221.645022a61.427335 61.427335 0 0 0-59.844156 61.110699V348.29932H237.162074zM137.105179 441.073593a31.663575 31.663575 0 0 1 31.663574-23.747681H1082.89615a31.663575 31.663575 0 0 1 31.663574 23.747681l68.709957 270.090291a5.382808 5.382808 0 0 0 0 2.21645H69.345129zM1155.722371 960.039579H94.992625a31.663575 31.663575 0 0 1-31.663575-31.663574v-151.668522h1124.056896v151.668522a31.663575 31.663575 0 0 1-31.663575 31.663574z" fill="#040000" p-id="57321"></path></svg>