<?xml version="1.0" standalone="no"?><!DOCTYPE svg PUBLIC "-//W3C//DTD SVG 1.1//EN" "http://www.w3.org/Graphics/SVG/1.1/DTD/svg11.dtd"><svg t="1689151025655" viewBox="0 0 1024 1024" version="1.1" xmlns="http://www.w3.org/2000/svg" p-id="24067" xmlns:xlink="http://www.w3.org/1999/xlink" width="200" height="200"><path d="M579.3792 93.7472l16.41472 9.48224a88.23808 88.23808 0 0 1 37.95968 108.81024l-6.36928 16.1792c2.79552 0.50176 5.55008 1.42336 8.192 2.78528l1.56672 0.8704 191.83616 113.9712 0.23552 0.13312a88.23808 88.23808 0 1 1 40.31488 163.06176L749.7728 871.9872h184.7296a29.40928 29.40928 0 0 1 0 58.8288H503.11168a29.40928 29.40928 0 1 1 0-58.81856h186.27584c0-2.5088 0.31744-5.04832 0.99328-7.56736l0.49152-1.64864 123.1872-373.32992c0.43008-1.3312 0.95232-2.60096 1.54624-3.81952a87.98208 87.98208 0 0 1-28.16-64.63488c0-10.01472 1.65888-19.64032 4.73088-28.61056L607.09888 282.43968l-0.91136-0.57344-9.79968 24.832-0.18432 0.45056c64.59392 92.69248 72.42752 222.23872 11.12064 332.2368l-2.56 4.5056a29.37856 29.37856 0 0 1-22.9888 14.60224l-1.7408 0.1024h-1.7408a29.2864 29.2864 0 0 1-13.70112-3.9424l-111.2064-64.2048c-42.3936 47.4112-113.59232 60.3136-170.86464 27.24864-57.27232-33.05472-81.70496-101.1712-61.8496-161.5872L106.0864 389.9392a29.40928 29.40928 0 0 1-10.752-40.17152c66.89792-115.87584 192.33792-175.872 311.06048-159.25248l59.77088-75.23328A88.23808 88.23808 0 0 1 579.3792 93.7472zM162.304 354.48832l404.8896 233.74848c51.95776-116.97152 14.53056-251.99616-89.69216-312.1664-104.22272-60.17024-239.872-25.06752-315.1872 78.41792z m149.62688 212.2752a78.45888 78.45888 0 0 0 88.49408-6.88128l-126.78144-73.20576a78.45888 78.45888 0 0 0 38.28736 80.0768z m563.74272-175.16544a29.40928 29.40928 0 1 0 0 58.81856 29.40928 29.40928 0 0 0 0-58.81856zM498.2784 137.984l-1.41312 1.6896-47.88224 60.25216a277.9136 277.9136 0 0 1 57.93792 25.1904 277.53472 277.53472 0 0 1 60.79488 47.4112l29.56288-74.88512a49.01888 49.01888 0 0 0-19.21024-59.31008l-1.88416-1.13664-16.41472-9.48224a49.01888 49.01888 0 0 0-61.4912 10.27072z" fill="#050505" p-id="24068"></path><path d="M167.2192 547.29728a29.40928 29.40928 0 0 1 24.43264 53.48352l-1.57696 0.7168-98.02752 41.34912a29.40928 29.40928 0 0 1-24.43264-53.48352l1.57696-0.7168 98.01728-41.34912zM222.3616 644.85376a29.40928 29.40928 0 0 1 51.11808 29.05088l-0.89088 1.55648-61.184 100.41344a29.40928 29.40928 0 0 1-51.11808-29.05088l0.88064-1.55648 61.19424-100.41344zM379.27936 655.9232c15.6672 0 28.4672 12.24704 29.35808 27.68896l0.0512 1.73056V815.2064a29.40928 29.40928 0 0 1-58.7776 1.73056l-0.0512-1.7408V685.35296a29.40928 29.40928 0 0 1 29.41952-29.41952z" fill="#050505" p-id="24069"></path></svg>