<?xml version="1.0" standalone="no"?><!DOCTYPE svg PUBLIC "-//W3C//DTD SVG 1.1//EN" "http://www.w3.org/Graphics/SVG/1.1/DTD/svg11.dtd"><svg t="1689151051546" viewBox="0 0 1024 1024" version="1.1" xmlns="http://www.w3.org/2000/svg" p-id="25604" xmlns:xlink="http://www.w3.org/1999/xlink" width="200" height="200"><path d="M511.317333 855.222044a229.489778 229.489778 0 0 0 229.717334-229.717333A229.489778 229.489778 0 0 0 511.317333 395.787378a229.489778 229.489778 0 0 0-229.740089 229.717333A229.489778 229.489778 0 0 0 511.317333 855.222044z m0-388.3008c87.404089 0 158.560711 71.156622 158.560711 158.583467 0 87.404089-71.156622 158.560711-158.560711 158.560711-87.426844 0-158.583467-71.156622-158.583466-158.560711 0-87.426844 71.156622-158.583467 158.583466-158.583467z" fill="#000000" p-id="25605"></path><path d="M887.3984 0.364089H135.213511C80.327111 0.364089 34.588444 45.101511 34.588444 100.989156v814.193777c0 54.909156 44.714667 100.647822 100.625067 100.647823h753.208889c54.8864 0 100.625067-44.714667 100.625067-100.625067V101.011911C988.046222 45.078756 943.3088 0.341333 887.3984 0.341333z m29.4912 913.8176c0 16.270222-13.198222 29.468444-29.4912 29.468444H135.213511c-16.270222 0-29.468444-13.198222-29.468444-29.468444V311.409778h811.144533v602.771911z m0-673.928533H105.745067v-139.264c0-16.247467 13.198222-29.468444 29.468444-29.468445h753.208889c16.270222 0 29.4912 13.198222 29.4912 29.468445v139.264h-1.024z" fill="#000000" p-id="25606"></path><path d="M161.632711 153.850311a38.616178 38.616178 0 1 0 77.255111 0 38.616178 38.616178 0 0 0-77.255111 0zM296.823467 153.850311a38.616178 38.616178 0 1 0 77.255111 0 38.616178 38.616178 0 0 0-77.255111 0zM432.036978 153.850311a38.616178 38.616178 0 1 0 77.232355 0 38.616178 38.616178 0 0 0-77.232355 0z" fill="#000000" p-id="25607"></path></svg>