<?xml version="1.0" standalone="no"?><!DOCTYPE svg PUBLIC "-//W3C//DTD SVG 1.1//EN" "http://www.w3.org/Graphics/SVG/1.1/DTD/svg11.dtd"><svg t="1689151184746" viewBox="0 0 1024 1024" version="1.1" xmlns="http://www.w3.org/2000/svg" p-id="30492" xmlns:xlink="http://www.w3.org/1999/xlink" width="200" height="200"><path d="M858.026667 620.231111h-412.444445a26.737778 26.737778 0 0 0 0 53.333333h412.444445a26.737778 26.737778 0 1 0 0-53.333333zM293.973333 620.231111h-128a26.737778 26.737778 0 1 0 0 53.333333h128a26.737778 26.737778 0 0 0 0-53.333333z" fill="#2c2c2c" p-id="30493"></path><path d="M949.191111 258.702222a74.382222 74.382222 0 0 0-31.146667-47.644444l-86.755555-58.88a74.24 74.24 0 0 0-114.773333 75.377778 68.693333 68.693333 0 0 0 6.826666 19.2l-199.111111 257.422222h-132.693333a26.311111 26.311111 0 0 0 0-3.271111c49.635556-7.537778 99.555556-41.386667 115.484444-81.493334a139.377778 139.377778 0 0 0 8.96-69.262222 165.404444 165.404444 0 0 1 19.2-94.862222 26.453333 26.453333 0 0 0-2.133333-26.168889 26.168889 26.168889 0 0 0-23.608889-11.52c-84.053333 4.977778-146.204444 28.444444-184.888889 67.697778a171.946667 171.946667 0 0 0-56.888889-32.711111c-27.306667-10.097778-79.644444-23.466667-125.155555 0a26.453333 26.453333 0 0 0-14.222223 17.351111 26.88 26.88 0 0 0 4.124445 21.76 114.488889 114.488889 0 0 1 23.466667 65.991111 120.604444 120.604444 0 0 0 21.333333 65.422222 92.728889 92.728889 0 0 0 27.591111 25.173333 26.311111 26.311111 0 0 0 14.222222 3.982223 26.595556 26.595556 0 0 0 14.222222-49.351111 40.391111 40.391111 0 0 1-11.946666-10.666667 69.262222 69.262222 0 0 1-11.662222-39.395556 167.68 167.68 0 0 0-14.222223-60.16 142.222222 142.222222 0 0 1 53.76 9.528889 110.506667 110.506667 0 0 1 39.395556 22.471111c1.564444 1.706667 2.702222 3.697778 4.124444 5.546667a162.702222 162.702222 0 0 0-11.52 91.733333 26.737778 26.737778 0 0 0 52.764445-8.533333A105.528889 105.528889 0 0 1 355.555556 330.808889c22.471111-28.444444 62.151111-46.791111 116.195555-55.608889a197.262222 197.262222 0 0 0-7.68 78.506667 88.462222 88.462222 0 0 1-5.12 45.653333 93.724444 93.724444 0 0 1-54.613333 43.377778 256 256 0 0 1 19.342222-55.04 26.595556 26.595556 0 0 0-47.075556-25.031111c-22.044444 41.813333-33.422222 106.524444-38.115555 141.368889H144.782222a26.453333 26.453333 0 0 0-26.595555 27.164444 394.666667 394.666667 0 0 0 188.586666 328.248889v41.102222a26.595556 26.595556 0 0 0 26.737778 26.595556h356.977778a26.595556 26.595556 0 0 0 26.737778-26.595556v-41.102222a394.666667 394.666667 0 0 0 188.586666-328.248889 26.595556 26.595556 0 0 0-7.537777-19.2 26.88 26.88 0 0 0-19.057778-7.964444h-103.537778l94.008889-157.582223h6.4a78.222222 78.222222 0 0 0 14.222222-1.28 74.097778 74.097778 0 0 0 59.164445-86.897777z m-341.333333 591.928889h-1.848889a342.186667 342.186667 0 0 1-58.168889 11.377778h-6.826667c-9.528889 0.853333-19.2 1.422222-28.444444 1.422222s-19.484444 0-28.444445-1.422222h-6.826666a342.186667 342.186667 0 0 1-58.168889-11.377778h-1.848889a343.182222 343.182222 0 0 1-244.195556-293.262222h677.831112a343.182222 343.182222 0 0 1-243.057778 293.262222z m105.813333-346.595555h-121.742222L761.457778 284.444444l59.164444 40.248889zM893.582222 284.444444a21.902222 21.902222 0 0 1-13.511111 8.817778 20.906667 20.906667 0 0 1-15.644444-3.271111l-86.755556-59.022222a21.048889 21.048889 0 0 1-5.546667-28.444445 20.48 20.48 0 0 1 14.222223-8.817777h3.84a20.764444 20.764444 0 0 1 11.804444 3.697777L888.035556 256a21.048889 21.048889 0 0 1 5.546666 28.444444z" fill="#2c2c2c" p-id="30494"></path></svg>