<?xml version="1.0" standalone="no"?><!DOCTYPE svg PUBLIC "-//W3C//DTD SVG 1.1//EN" "http://www.w3.org/Graphics/SVG/1.1/DTD/svg11.dtd"><svg t="1689151554786" viewBox="0 0 1368 1024" version="1.1" xmlns="http://www.w3.org/2000/svg" p-id="39608" xmlns:xlink="http://www.w3.org/1999/xlink" width="267.1875" height="200"><path d="M1263.83428 202.884063h-128.641497V102.639492a102.639492 102.639492 0 0 0-102.639492-102.639492H333.920481a102.639492 102.639492 0 0 0-102.639492 102.639492v100.244571H102.639492a102.639492 102.639492 0 0 0-102.639492 102.639492v553.911126a102.639492 102.639492 0 0 0 102.639492 102.639492h75.611093a26.002005 26.002005 0 0 0 0 5.474106v22.238557a34.213164 34.213164 0 0 0 68.426328 0v-22.238557a26.002005 26.002005 0 0 0 0-5.474106h872.435683a26.002005 26.002005 0 0 0 0 5.474106v22.238557a34.213164 34.213164 0 0 0 68.426328 0v-22.238557a25.659873 25.659873 0 0 0 0-5.474106h78.690277a102.639492 102.639492 0 0 0 102.639493-102.639492V305.523555a102.639492 102.639492 0 0 0-105.034414-102.639492zM1066.766455 102.639492v444.771133H716.081524V68.426328h316.471767a34.213164 34.213164 0 0 1 34.213164 34.213164zM299.707317 102.639492a34.213164 34.213164 0 0 1 34.213164-34.213164h313.734714v478.984297H299.707317V102.639492z m998.340127 756.795189a34.213164 34.213164 0 0 1-34.213164 34.213164H102.639492a34.213164 34.213164 0 0 1-34.213164-34.213164V305.523555a34.213164 34.213164 0 0 1 34.213164-34.213164h128.641497v278.495155H183.040428a34.213164 34.213164 0 0 0 0 68.426328h1003.12997a34.213164 34.213164 0 0 0 0-68.426328h-50.977615V271.310391h128.641497a34.213164 34.213164 0 0 1 34.213164 34.213164z" fill="#231815" p-id="39609"></path></svg>