<?xml version="1.0" standalone="no"?><!DOCTYPE svg PUBLIC "-//W3C//DTD SVG 1.1//EN" "http://www.w3.org/Graphics/SVG/1.1/DTD/svg11.dtd"><svg t="1689150194714" viewBox="0 0 1024 1024" version="1.1" xmlns="http://www.w3.org/2000/svg" p-id="3068" xmlns:xlink="http://www.w3.org/1999/xlink" width="200" height="200"><path d="M852.541 573.487c0-39.122-31.824-70.946-70.946-70.946h-437.5V284.973c0-36.508 29.704-66.216 66.216-66.216 22.682 0 42.723 11.476 54.662 28.914-26.863 14.332-45.203 42.623-45.203 75.14v75.676h170.27v-75.676c0-40.129-27.937-73.77-65.359-82.722C506.701 194.441 462.27 162 410.311 162c-67.81 0-122.973 55.168-122.973 122.973v217.568h-44.932c-39.122 0-70.946 31.824-70.946 70.946 0 30.822 19.787 57.039 47.297 66.807v23.057c0 59.63 37.016 110.684 89.234 131.647l-26.867 26.868L321.258 862l56.757-56.757h263.241L698.013 862l40.133-40.133-25.599-25.598c54.026-20.067 92.696-71.99 92.696-132.917v-23.057c27.51-9.77 47.298-35.987 47.298-66.808zM533.284 341.73h-56.757v-18.919c0-15.649 12.73-28.378 28.378-28.378s28.378 12.73 28.378 28.378v18.919zM242.405 559.297h539.189c7.69 0 14.189 6.494 14.189 14.189s-6.499 14.189-14.189 14.189H242.406c-7.69 0-14.189-6.494-14.189-14.189-0.001-7.695 6.498-14.189 14.188-14.189z m420.946 189.19H360.649c-46.942 0-85.135-38.189-85.135-85.135v-18.919h472.973v18.919c0 46.946-38.194 85.135-85.136 85.135z" fill="#787878" opacity=".95" p-id="3069"></path><path d="M438.689 407.946h56.757v56.757h-56.757zM514.365 407.946h56.757v56.757h-56.757z" fill="#787878" opacity=".95" p-id="3070"></path></svg>