<?xml version="1.0" standalone="no"?><!DOCTYPE svg PUBLIC "-//W3C//DTD SVG 1.1//EN" "http://www.w3.org/Graphics/SVG/1.1/DTD/svg11.dtd"><svg t="1689150501371" viewBox="0 0 1024 1024" version="1.1" xmlns="http://www.w3.org/2000/svg" p-id="8642" xmlns:xlink="http://www.w3.org/1999/xlink" width="200" height="200"><path d="M512 1024c-1.9 0-3.899999-0.2-5.799999-0.6-1.9-0.4-3.799999-0.9-5.499999-1.7-1.8-0.7-3.499999-1.6-5.099999-2.699999a28.699995 28.699995 0 0 1-10.899998-13.199998c-0.7-1.8-1.3-3.599999-1.7-5.499999-0.4-1.9-0.6-3.799999-0.6-5.699999 0-1.9 0.2-3.899999 0.6-5.799999 0.4-1.9 1-3.699999 1.7-5.499999 0.7-1.8 1.7-3.499999 2.699999-5.099999 2.2-3.199999 4.899999-5.999999 8.199999-8.199999 1.6-1.1 3.299999-2 5.099999-2.7 1.8-0.7 3.599999-1.3 5.499999-1.699999 1.9-0.4 3.799999-0.6 5.799999-0.6 1.9 0 3.899999 0.2 5.799999 0.6 1.9 0.4 3.799999 0.9 5.499999 1.699999 1.8 0.7 3.499999 1.6 5.099999 2.7 1.6 1.1 3.099999 2.3 4.5 3.699999 1.4 1.4 2.6 2.9 3.699999 4.5s2 3.299999 2.699999 5.099999c1.5 3.599999 2.3 7.399999 2.3 11.299998 0 1.9-0.2 3.899999-0.6 5.699999-0.4 1.9-0.9 3.699999-1.7 5.499999-0.7 1.8-1.7 3.499999-2.699999 5.099999-1.1 1.6-2.3 3.099999-3.699999 4.499999-1.4 1.4-2.9 2.6-4.5 3.7-3.199999 2.1-6.899999 3.599999-10.699998 4.399999-1.8 0.3-3.799999 0.5-5.699999 0.5z m0-88.399985c-16.299997 0-29.599995-13.199998-29.599995-29.499995v-86.899986H231.000047c-99.199984 0.2-179.79997-79.899987-180.19997-179.09997V491.800088c-42.299993-21.999996-58.69999-74.199988-36.599994-116.59998 14.999998-28.799995 44.799993-46.699992 77.199987-46.499993h324.199946v-138.999976h-16.299997c-16.299997 0-29.499995-13.199998-29.499995-29.499996s13.199998-29.499995 29.499995-29.499995h16.299997V96.300154C415.600016 43.100163 458.800009-0.09983 512 0.00017c53.199991 0 96.299984 43.099993 96.299984 96.299984v34.399994h16.299997c16.299997 0 29.499995 13.199998 29.499995 29.499995s-13.199998 29.499995-29.499995 29.499996h-16.299997v139.099976h324.199946c47.699992-0.3 86.699986 38.099994 86.999986 85.799986 0.2 32.399995-17.699997 62.29999-46.499993 77.299987V640.000064c-0.4 99.199984-80.999987 179.29997-180.19997 179.09997H541.699995V906.00002c-0.1 16.399997-13.399998 29.499995-29.699995 29.599995zM110.100067 612.500068v27.599996c0.3 66.499989 54.299991 120.29998 120.89998 120.19998h561.999906c66.499989 0.1 120.59998-53.599991 120.89998-120.19998V501.800087H110.100067v51.699991h550.199908c16.299997 0 29.499995 13.199998 29.499995 29.499995s-13.199998 29.499995-29.499995 29.499995H110.100067zM91.40007 387.700106c-15.199997 0-27.599995 12.299998-27.599996 27.599995 0 15.199997 12.299998 27.599995 27.599996 27.599995h841.19986c15.199997 0 27.599995-12.299998 27.599996-27.599995 0-15.199997-12.299998-27.599995-27.599996-27.599995H91.40007z m383.499936-197.999967v139.099976H548.999994V189.700139h-74.099988zM512 59.50016c-20.399997 0-36.999994 16.499997-37.099994 36.899994v34.399994H548.999994V96.300154c0-20.399997-16.599997-36.899994-36.999994-36.799994z m237.299961 552.999908c-7.899999 0-15.399997-3.099999-20.999997-8.599998-5.499999-5.499999-8.599999-12.999998-8.699998-20.799997 0-1.9 0.2-3.899999 0.599999-5.799999 0.4-1.9 0.9-3.699999 1.7-5.499999 0.7-1.8 1.7-3.499999 2.7-5.099999 1.1-1.6 2.3-3.099999 3.699999-4.499999 11.599998-11.499998 30.299995-11.499998 41.899993 0 1.4 1.4 2.6 2.9 3.7 4.499999s2 3.299999 2.699999 5.099999c0.8 1.8 1.3 3.599999 1.7 5.499999 0.4 1.9 0.6 3.799999 0.6 5.799999 0 7.799999-3.199999 15.299997-8.699999 20.799997-5.499999 5.499999-13.099998 8.599999-20.899996 8.599998z m79.799986-330.199945c-7.899999 0-15.399997-3.099999-20.999996-8.599998l-26.199996-26.099996-26.199995 26.099996c-11.599998 11.499998-30.299995 11.499998-41.899994 0-11.499998-11.399998-11.599998-29.999995-0.099999-41.499994l0.099999-0.1L739.999962 206.000136l-26.199996-26.099996c-11.499998-11.399998-11.599998-29.999995-0.099999-41.499993l0.099999-0.1c11.599998-11.499998 30.299995-11.499998 41.899994 0l26.199995 26.099996 26.199996-26.099996c11.599998-11.499998 30.299995-11.499998 41.899993 0 11.499998 11.399998 11.599998 29.999995 0.1 41.499993l-0.1 0.1-26.099996 26.099996 26.199996 26.099995c11.499998 11.399998 11.599998 29.999995 0.1 41.499994l-0.1 0.1c-5.599999 5.599999-13.099998 8.599999-20.999997 8.599998z m-539.89991 0c-7.899999 0-15.399997-3.099999-20.999997-8.599998L242.000045 247.600129l-26.199996 26.099996c-11.599998 11.499998-30.299995 11.499998-41.899993 0-11.499998-11.399998-11.599998-29.999995-0.1-41.499994l0.1-0.1 26.199996-26.099995-26.199996-26.099996c-11.499998-11.399998-11.599998-29.999995-0.1-41.499993l0.1-0.1c11.599998-11.499998 30.299995-11.499998 41.899993 0l26.199996 26.099996 26.199995-26.099996c11.599998-11.499998 30.299995-11.499998 41.899994 0 11.499998 11.399998 11.599998 29.999995 0.1 41.499993l-0.1 0.1-26.299996 25.999996L310.000034 232.000131c11.499998 11.399998 11.599998 29.999995 0.1 41.499994l-0.1 0.1c-5.399999 5.599999-12.899998 8.699999-20.799997 8.699998z" fill="#333333" p-id="8643"></path></svg>