<?xml version="1.0" standalone="no"?><!DOCTYPE svg PUBLIC "-//W3C//DTD SVG 1.1//EN" "http://www.w3.org/Graphics/SVG/1.1/DTD/svg11.dtd"><svg t="1689152291606" viewBox="0 0 1024 1024" version="1.1" xmlns="http://www.w3.org/2000/svg" p-id="64895" xmlns:xlink="http://www.w3.org/1999/xlink" width="200" height="200"><path d="M261.68 850.432C164.28 809.04 96 712.496 96 600V512h824v88c0 118.136-75.312 218.68-180.544 256.24l38.096 60.96a24 24 0 1 1-40.712 25.44l-42.392-67.84a24 24 0 0 1-2.776-6.288A273.952 273.952 0 0 1 648 872H368c-21.04 0-41.52-2.392-61.192-6.912a23.92 23.92 0 0 1-3.376 9.104l-38.16 61.056a24 24 0 1 1-40.704-25.44l37.104-59.376zM144 560v40c0 123.712 100.288 224 224 224h280c123.712 0 224-100.288 224-224v-40H144z m669.392-48.08h-48V234.72c0-66.264-53.72-120-120-120a120 120 0 0 0-5.72 0.144C577.416 117.832 552 136.816 552 173.464h-48c0-66.424 48.272-102.48 133.384-106.544a168 168 0 0 1 8.008-0.192c92.784 0 168 75.216 168 168v277.184z" p-id="64896" fill="#2c2c2c"></path><path d="M640 270.048C640 189.84 574.544 128 488 128s-152 61.84-152 142.048V344h304v-73.952zM384 296v-25.952C384 216.976 427.376 176 488 176s104 40.976 104 94.048V296H384z" p-id="64897" fill="#2c2c2c"></path></svg>