<?xml version="1.0" standalone="no"?><!DOCTYPE svg PUBLIC "-//W3C//DTD SVG 1.1//EN" "http://www.w3.org/Graphics/SVG/1.1/DTD/svg11.dtd"><svg t="1689151884508" viewBox="0 0 1024 1024" version="1.1" xmlns="http://www.w3.org/2000/svg" p-id="49050" xmlns:xlink="http://www.w3.org/1999/xlink" width="200" height="200"><path d="M550.4 394.24V38.4c0-21.76-17.92-38.4-38.4-38.4s-38.4 17.92-38.4 38.4v355.84c-209.92 19.2-373.76 192-373.76 372.48 0 111.36 61.44 200.96 157.44 257.28h509.44c96-56.32 157.44-145.92 157.44-257.28 0-180.48-163.84-353.28-373.76-372.48zM387.84 947.2c21.76-46.08 69.12-78.08 124.16-78.08s102.4 32 124.16 78.08H387.84z m357.12 0h-25.6c-25.6-89.6-108.8-156.16-207.36-156.16S331.52 856.32 304.64 947.2h-25.6c-44.8-30.72-102.4-87.04-102.4-179.2 0-71.68 34.56-145.92 96-202.24 65.28-61.44 149.76-94.72 239.36-94.72s174.08 33.28 239.36 94.72c61.44 57.6 96 130.56 96 202.24 0 90.88-58.88 148.48-102.4 179.2z" fill="" p-id="49051"></path></svg>