<?xml version="1.0" standalone="no"?><!DOCTYPE svg PUBLIC "-//W3C//DTD SVG 1.1//EN" "http://www.w3.org/Graphics/SVG/1.1/DTD/svg11.dtd"><svg t="1689151889591" viewBox="0 0 1024 1024" version="1.1" xmlns="http://www.w3.org/2000/svg" p-id="49201" xmlns:xlink="http://www.w3.org/1999/xlink" width="200" height="200"><path d="M634.8 771c-1.9 34.4-16.2 66.5-40.8 91-26.5 26.4-61.6 41-99 41s-72.5-14.6-99-41c-24.6-24.5-38.9-56.6-40.8-91h-60.1c4.2 106.8 92.1 192 199.8 192 107.8 0 195.6-85.2 199.8-192h-59.9zM786.5 379c-68-68-159.6-112.4-261.5-119.9-10.1-0.7-20.2-1.1-30.5-1.1-9.9 0-19.8 0.4-29.5 1C250.7 274.2 81.5 452.8 81.5 671v39.7c0 33.3 27 60.3 60.3 60.3h705.4c33.3 0 60.3-27 60.3-60.3V671c0-114-46.2-217.3-121-292z m61 331.8c0 0.1-0.1 0.2-0.2 0.2H141.7c-0.1 0-0.2-0.1-0.2-0.2V671c0-47.7 9.3-93.9 27.7-137.4 17.8-42 43.2-79.8 75.7-112.2 32.4-32.4 70.2-57.9 112.2-75.7 43.5-18.4 89.7-27.7 137.4-27.7s93.9 9.3 137.4 27.7c42 17.8 79.8 43.2 112.2 75.7 32.4 32.4 57.9 70.2 75.7 112.2 18.4 43.5 27.7 89.7 27.7 137.4v39.8z" fill="#333333" p-id="49202"></path><path d="M525 88v171.1c-10.1-0.7-20.2-1.1-30.5-1.1-9.9 0-19.8 0.4-29.5 1V88c0-16.6 13.4-30 30-30s30 13.4 30 30z" fill="#333333" p-id="49203"></path></svg>