<?xml version="1.0" standalone="no"?><!DOCTYPE svg PUBLIC "-//W3C//DTD SVG 1.1//EN" "http://www.w3.org/Graphics/SVG/1.1/DTD/svg11.dtd"><svg t="1689152334671" viewBox="0 0 1028 1024" version="1.1" xmlns="http://www.w3.org/2000/svg" p-id="66659" xmlns:xlink="http://www.w3.org/1999/xlink" width="200.78125" height="200"><path d="M885.136 961.04l-6.016 5.264-60.064-68.624 6.016-5.272zM822.4 895.2l60 68.8-60-68.8z" fill="" p-id="66660"></path><path d="M882.4 988.8c-6.4 0-13.6-3.2-18.4-8L804 912c-4-4.8-6.4-12-6.4-18.4 0-7.2 3.2-13.6 8-17.6 4.8-4 11.2-6.4 17.6-6.4 7.2 0 13.6 3.2 18.4 8l60 68c4 4.8 6.4 12 6.4 18.4 0 7.2-3.2 13.6-8 17.6-5.6 5.6-11.2 7.2-17.6 7.2zM222.344 897.72l-61.392 68.52-5.952-5.336 61.392-68.52zM219.2 895.2l-61.6 68.8 61.6-68.8z" fill="" p-id="66661"></path><path d="M157.6 988.8c-7.2 0-12-2.4-16.8-7.2-4.8-4-8-10.4-8-17.6 0-7.2 2.4-13.6 7.2-18.4l60-68c4.8-5.6 11.2-8.8 19.2-8.8 6.4 0 12.8 2.4 16.8 7.2 4.8 4 8 10.4 8 17.6 0 7.2-2.4 13.6-7.2 18.4l-58.4 68c-5.6 6.4-12.8 8.8-20.8 8.8z" fill="" p-id="66662"></path><path d="M343.2 950.4C196.8 950.4 68 824.8 68 681.6c0-13.6 12-25.6 25.6-25.6s25.6 12 25.6 25.6c0 116 104.8 218.4 224 218.4h362.4c113.6 0 221.6-116 221.6-238.4 0-13.6 12-25.6 25.6-25.6 13.6 0 25.6 12 25.6 25.6 0 151.2-128.8 288.8-270.4 288.8H343.2zM96.8 601.6c-13.6 0-25.6-12-25.6-25.6V158.4c0-69.6 49.6-119.2 118.4-119.2 64.8 0 118.4 60 118.4 133.6 0 13.6-12 25.6-25.6 25.6-14.4 0-25.6-11.2-25.6-25.6 0-40-27.2-83.2-67.2-83.2-40.8 0-67.2 27.2-67.2 68.8V576c0 13.6-12 25.6-25.6 25.6z" fill="" p-id="66663"></path><path d="M58.4 680c-32 0-58.4-26.4-58.4-58.4v-7.2c0-31.2 26.4-56.8 58.4-56.8h904.8c32 0 58.4 26.4 58.4 58.4v7.2c-1.6 31.2-28 56.8-59.2 56.8H58.4z m0-71.2c-4.8 0-7.2 2.4-7.2 7.2v7.2c0 4 2.4 5.6 7.2 5.6h904.8c3.2 0 7.2-2.4 7.2-7.2v-7.2c0-3.2-2.4-7.2-7.2-7.2H62.4v1.6h-4z" fill="" p-id="66664"></path></svg>