<?xml version="1.0" standalone="no"?><!DOCTYPE svg PUBLIC "-//W3C//DTD SVG 1.1//EN" "http://www.w3.org/Graphics/SVG/1.1/DTD/svg11.dtd"><svg t="1689151603995" viewBox="0 0 1024 1024" version="1.1" xmlns="http://www.w3.org/2000/svg" p-id="40976" xmlns:xlink="http://www.w3.org/1999/xlink" width="200" height="200"><path d="M833.622 521.459h-83.915l17.698-274.324c0-46.946-38.193-85.135-85.135-85.135H341.73c-46.942 0-85.135 38.189-85.135 85.135l17.698 274.324h-83.915V672.81h66.893L237.676 862h57.269l18.113-189.189h29.351l8.783 139.007h57.269l-10.265-139.007h227.609L615.54 811.818h57.269l8.783-139.007h29.351L729.055 862h57.269l-19.596-189.189h66.893V521.459zM313.351 247.135c0-15.649 12.73-28.378 28.378-28.378H682.27c15.649 0 28.378 12.73 28.378 28.378L692.95 521.459h-361.9l-17.699-274.324z m463.514 368.919h-529.73v-37.838h529.73v37.838z" fill="#2c2c2c" p-id="40977"></path><path d="M389.027 426.865h245.946v56.757H389.027z" fill="#2c2c2c" p-id="40978"></path></svg>