<?xml version="1.0" standalone="no"?><!DOCTYPE svg PUBLIC "-//W3C//DTD SVG 1.1//EN" "http://www.w3.org/Graphics/SVG/1.1/DTD/svg11.dtd"><svg t="1689152340434" viewBox="0 0 1024 1024" version="1.1" xmlns="http://www.w3.org/2000/svg" p-id="66810" xmlns:xlink="http://www.w3.org/1999/xlink" width="200" height="200"><path d="M830.5 669.1H716.7c-15.1 0-27.4-12.2-27.4-27.2s12.3-27.2 27.4-27.2h113.8c14.2 0 25.7-11.5 25.7-25.5v-4.4c0-14.1-11.5-25.5-25.7-25.5h-637c-14.2 0-25.7 11.5-25.7 25.5v4.4c0 14.1 11.5 25.5 25.7 25.5h372.9c15.1 0 27.4 12.2 27.4 27.2s-12.3 27.2-27.4 27.2H193.5c-44.3 0-80.4-35.8-80.4-79.9v-4.4c0-44 36.1-79.9 80.4-79.9h636.9c44.3 0 80.4 35.8 80.4 79.9v4.4c0.1 44.1-36 79.9-80.3 79.9z" fill="#53524C" p-id="66811"></path><path d="M659.4 890.2H364.6c-32.3 0-65.7-16.3-94.2-46-27.8-29-46.1-67.6-52.8-111.8l-9.4-61.6c-2.4-15.7 7.7-30.5 22.7-33 14.8-2.6 29 8.1 31.4 23.9l9.4 61.6c4.9 32 17.8 59.7 37.2 80 10.5 11 31.8 29.3 55.7 29.3h294.9c30.7 0 56.7-19.9 77.4-59.2 7.4-14.1 12.5-30.1 15.2-47.7l9.8-63.9c2.4-15.7 16.4-26.5 31.4-23.9 14.9 2.5 25.1 17.3 22.7 33l-9.8 63.9c-3.7 24.2-10.9 46.5-21.4 66.5-30.7 58.2-74 88.9-125.4 88.9zM320.5 553.8c-15.1 0-27.4-12.2-27.4-27.2V252.9c0-65.7 53.8-119.2 120-119.2s120 53.5 120 119.2v77.2c0 15-12.3 27.2-27.4 27.2-15.1 0-27.4-12.2-27.4-27.2v-77.2c0-35.7-29.3-64.8-65.2-64.8-36 0-65.2 29.1-65.2 64.8v273.7c-0.1 15-12.3 27.2-27.4 27.2z" fill="#53524C" p-id="66812"></path><path d="M694.3 740.4H588.8c-27.4 0-49.7-22.1-49.7-49.4V532.1c0-15 12.3-27.2 27.4-27.2s27.4 12.2 27.4 27.2v154h95.5v-154c0-15 12.3-27.2 27.4-27.2 15.1 0 27.4 12.2 27.4 27.2V691c-0.2 27.3-22.5 49.4-49.9 49.4z" fill="#53524C" p-id="66813"></path></svg>