<?xml version="1.0" standalone="no"?><!DOCTYPE svg PUBLIC "-//W3C//DTD SVG 1.1//EN" "http://www.w3.org/Graphics/SVG/1.1/DTD/svg11.dtd"><svg t="1689152353284" viewBox="0 0 1024 1024" version="1.1" xmlns="http://www.w3.org/2000/svg" p-id="67127" xmlns:xlink="http://www.w3.org/1999/xlink" width="200" height="200"><path d="M944.64 895.301818L864.814545 814.545455A382.370909 382.370909 0 0 0 954.181818 570.181818V535.272727H139.636364V302.545455c0-89.6 63.069091-162.909091 139.636363-162.909091a126.370909 126.370909 0 0 1 73.076364 23.272727 162.909091 162.909091 0 0 0-93.090909 147.083636v34.909091h325.818182v-34.909091a162.909091 162.909091 0 0 0-149.643637-162.909091A199.68 199.68 0 0 0 279.272727 69.818182C162.909091 69.818182 69.818182 174.08 69.818182 302.545455v288.581818a33.047273 33.047273 0 0 0 1.629091 9.774545 382.836364 382.836364 0 0 0 87.738182 215.04l-79.127273 79.36a35.141818 35.141818 0 0 0 0 49.338182 35.607273 35.607273 0 0 0 23.970909 9.541818 34.676364 34.676364 0 0 0 24.669091-10.24l79.36-79.36A381.905455 381.905455 0 0 0 453.12 954.181818h116.363636A383.069091 383.069091 0 0 0 814.545455 864.814545l79.825454 79.825455a34.676364 34.676364 0 0 0 24.669091 10.24 35.607273 35.607273 0 0 0 24.669091-10.24 35.141818 35.141818 0 0 0 0.930909-49.338182z m-435.2-619.52h-173.381818a93.090909 93.090909 0 0 1 173.381818 0zM453.12 884.363636A314.414545 314.414545 0 0 1 141.032727 605.090909h740.770909a314.647273 314.647273 0 0 1-312.32 279.272727z" p-id="67128" fill="#2c2c2c"></path><path d="M271.592727 405.876364v23.272727a34.909091 34.909091 0 0 0 69.818182 0v-23.272727a34.909091 34.909091 0 1 0-69.818182 0zM387.723636 405.876364v23.272727a34.909091 34.909091 0 0 0 69.818182 0v-23.272727a34.909091 34.909091 0 1 0-69.818182 0zM503.854545 405.876364v23.272727a34.909091 34.909091 0 1 0 69.818182 0v-23.272727a34.909091 34.909091 0 1 0-69.818182 0z" p-id="67129" fill="#2c2c2c"></path></svg>