<?xml version="1.0" standalone="no"?><!DOCTYPE svg PUBLIC "-//W3C//DTD SVG 1.1//EN" "http://www.w3.org/Graphics/SVG/1.1/DTD/svg11.dtd"><svg t="1689150366473" viewBox="0 0 1024 1024" version="1.1" xmlns="http://www.w3.org/2000/svg" p-id="5087" xmlns:xlink="http://www.w3.org/1999/xlink" width="200" height="200"><path d="M781 135c0-44.2-35.8-80-80-80H321c-44.2 0-80 35.8-80 80l-15.8 219h571.5L781 135zM285.5 353l8.4-116 4.3-60 2.7-37.7c0.1-1.4 0.2-2.9 0.2-4.3 0-11 9-20 20-20h380c11 0 20 9 20 20 0 1.4 0.1 2.9 0.2 4.3L724 177l4.3 60 8.4 116H285.5zM871.1 354H152.9c-22.6 0-40.9 18.3-40.9 40.9V454c0 139.2 71.1 261.8 179 333.5V880c0 44.2 35.8 80 80 80h280c44.2 0 80-35.8 80-80v-91.2C840 717.3 912 594.1 912 454v-59.1c0-22.6-18.3-40.9-40.9-40.9zM852 454c0 6.7-0.2 13.4-0.6 20-1.2 20.3-4.1 40.4-8.9 60-0.5 2.1-1 4.1-1.6 6.2-7.1 27.1-17.6 53.3-31.1 77.9-26.8 48.4-65.4 90.1-111.8 120.5-16.9 11.1-27.1 29.9-27.1 50.2V880c0 11-9 20-20 20H371c-11 0-20-9-20-20v-92.5c0-20.1-10.1-38.9-26.8-50-72.5-48.2-122.8-121-142.7-203.5-4.7-19.5-7.7-39.6-8.9-60-0.4-6.6-0.6-13.3-0.6-20v-40h680v40z" fill="#333333" p-id="5088"></path><path d="M851.4 474c-1.2 20.3-4.1 40.4-8.9 60h-661c-4.7-19.5-7.7-39.6-8.9-60h678.8zM728.2 237H293.8l4.3-60h425.8z" fill="#333333" p-id="5089"></path></svg>