<?xml version="1.0" standalone="no"?><!DOCTYPE svg PUBLIC "-//W3C//DTD SVG 1.1//EN" "http://www.w3.org/Graphics/SVG/1.1/DTD/svg11.dtd"><svg t="1689151630602" viewBox="0 0 1024 1024" version="1.1" xmlns="http://www.w3.org/2000/svg" p-id="41564" xmlns:xlink="http://www.w3.org/1999/xlink" width="200" height="200"><path d="M856.32 976.64L739.84 499.2c3.84-3.84 6.4-7.68 10.24-11.52C883.2 326.4 824.32 42.24 821.76 30.72 817.92 10.24 797.44-3.84 775.68 1.28 755.2 5.12 742.4 25.6 746.24 46.08c0 2.56 52.48 259.84-56.32 391.68-44.8 55.04-110.08 80.64-202.24 78.08H289.28c-17.92 0-34.56 12.8-38.4 30.72L166.4 977.92c-3.84 20.48 8.96 40.96 30.72 44.8 2.56 0 5.12 1.28 7.68 1.28 17.92 0 34.56-12.8 38.4-30.72l79.36-399.36h166.4c72.96 1.28 134.4-12.8 185.6-42.24l108.8 442.88c3.84 17.92 20.48 29.44 37.12 29.44 2.56 0 6.4 0 8.96-1.28 19.2-5.12 32-25.6 26.88-46.08z" fill="" p-id="41565"></path></svg>