<?xml version="1.0" standalone="no"?><!DOCTYPE svg PUBLIC "-//W3C//DTD SVG 1.1//EN" "http://www.w3.org/Graphics/SVG/1.1/DTD/svg11.dtd"><svg t="1689152322269" viewBox="0 0 1024 1024" version="1.1" xmlns="http://www.w3.org/2000/svg" p-id="66307" xmlns:xlink="http://www.w3.org/1999/xlink" width="200" height="200"><path d="M985.6 453.12h-40.96V244.48c0-113.92-53.76-200.96-138.24-220.16C737.28 8.96 640 42.24 570.88 183.04c-8.96 19.2-1.28 42.24 17.92 51.2 19.2 8.96 42.24 1.28 51.2-17.92 40.96-84.48 98.56-129.28 149.76-116.48 47.36 11.52 78.08 67.84 78.08 145.92v207.36H38.4c-21.76 0-38.4 16.64-38.4 38.4s16.64 38.4 38.4 38.4h40.96v131.84c0 99.84 64 184.32 152.32 216.32L217.6 957.44c-3.84 20.48 10.24 40.96 30.72 44.8 2.56 0 5.12 1.28 6.4 1.28 17.92 0 34.56-12.8 37.12-30.72l15.36-80.64h403.2l15.36 80.64c3.84 17.92 19.2 30.72 37.12 30.72 2.56 0 5.12 0 6.4-1.28 20.48-3.84 34.56-24.32 30.72-44.8l-14.08-76.8c94.72-28.16 162.56-116.48 162.56-220.16V529.92H985.6c21.76 0 38.4-16.64 38.4-38.4s-16.64-38.4-38.4-38.4z m-112.64 207.36c0 84.48-69.12 153.6-153.6 153.6H308.48c-84.48 0-153.6-69.12-153.6-153.6V531.2h716.8v129.28z" fill="" p-id="66308"></path><path d="M432.64 295.68m-53.76 0a53.76 53.76 0 1 0 107.52 0 53.76 53.76 0 1 0-107.52 0Z" fill="" p-id="66309"></path><path d="M640 355.84m-53.76 0a53.76 53.76 0 1 0 107.52 0 53.76 53.76 0 1 0-107.52 0Z" fill="" p-id="66310"></path></svg>