<?xml version="1.0" standalone="no"?><!DOCTYPE svg PUBLIC "-//W3C//DTD SVG 1.1//EN" "http://www.w3.org/Graphics/SVG/1.1/DTD/svg11.dtd"><svg t="1689150933823" viewBox="0 0 1024 1024" version="1.1" xmlns="http://www.w3.org/2000/svg" p-id="19889" xmlns:xlink="http://www.w3.org/1999/xlink" width="200" height="200"><path d="M511.976464 6.972794c-192.194939 0-348.566047 156.384411-348.566047 348.614143 0 137.490123 78.650134 259.410673 202.163968 316.332989v40.11557c0 17.358308 14.047919 31.433857 31.433857 31.433857H626.978455c17.358308 0 31.448183-14.075549 31.448183-31.433857v-40.11557c123.511788-56.922317 202.162945-178.842867 202.162945-316.332989 0-192.228708-156.372131-348.614142-348.613119-348.614143z m103.587033 614.872767a31.45023 31.45023 0 0 0-20.034249 29.293105v29.46195H428.457449V651.138666c0-12.963217-7.948003-24.601255-20.036295-29.293105-110.634529-43.072918-182.12665-147.592181-182.12665-266.257601 0-157.554047 128.161682-285.731079 285.68196-285.731079 157.553024 0 285.715729 128.176008 285.715729 285.731079 0 118.636767-71.463469 223.171379-182.128696 266.257601z" fill="#474747" p-id="19890"></path><path d="M747.953472 302.28507c-2.536771-11.271695-13.751161-18.331471-25.081185-15.837678-11.270672 2.550074-18.34375 13.780837-15.806979 25.066858a201.791486 201.791486 0 0 1 4.875021 44.07371c0 7.59394-0.451277 15.301467-1.325179 22.839126-1.325179 11.512172 6.932886 21.909965 18.429707 23.219794 0.81762 0.112563 1.63524 0.141216 2.424208 0.141216 10.510357 0 19.585018-7.889675 20.797634-18.5699a244.919663 244.919663 0 0 0 1.576911-27.630236c0-18.035736-1.971907-35.943558-5.890138-53.30289zM706.192429 211.391102c-35.959931-48.300979-88.064532-81.341424-146.789911-93.021417-11.300348-2.22671-22.374545 5.1288-24.628884 16.48543-2.254339 11.34128 5.100148 22.374545 16.456777 24.64321 48.525083 9.624176 91.585722 36.971979 121.313731 76.91768a20.939873 20.939873 0 0 0 16.824144 8.453516c4.369509 0 8.735948-1.367134 12.483287-4.169965 9.299788-6.905256 11.244066-20.037319 4.340856-29.308454zM588.766231 783.569573H431.584666c-17.373658 0-31.448183 14.062246-31.448183 31.43488 0 17.374681 14.075549 31.435904 31.448183 31.435904h157.181565c17.358308 0 31.448183-14.061222 31.448183-31.435904 0-17.372635-14.089875-31.43488-31.448183-31.43488zM572.253172 881.748443H451.733525c-17.359332 0-31.433857 14.076572-31.433857 31.449207 0 17.343982 14.074525 31.43488 31.433857 31.43488h120.519647c17.356262 0 31.448183-14.090898 31.448183-31.43488 0.001023-17.372635-14.091921-31.449207-31.448183-31.449207zM538.77373 975.109597h-53.562809c-11.581756 0-20.965455 9.384722-20.965456 20.952153 0 11.595059 9.383699 20.965455 20.965456 20.965456h53.562809c11.581756 0 20.965455-9.370396 20.965455-20.965456 0.001023-11.56743-9.382676-20.952153-20.965455-20.952153zM620.974729 345.316033c-10.820418-4.212943-22.966015 1.057073-27.221937 11.807907l-81.776328 206.967358-70.415605-178.294376h87.4352c11.581756 0 20.965455-9.412352 20.965455-20.965455 0-11.568453-9.383699-20.966479-20.965455-20.966479H410.746101c-0.549514 0-1.057073 0.12689-1.593285 0.154519-0.760315 0.070608-1.534956 0.098237-2.323924 0.239453-0.81762 0.169868-1.563609 0.422625-2.33825 0.662078-0.47993 0.155542-0.973162 0.211824-1.436719 0.394995a0.471743 0.471743 0 0 1-0.197497 0.112564c-0.831946 0.352017-1.606588 0.803294-2.381229 1.225918-0.436951 0.253779-0.901531 0.451277-1.324156 0.732686-0.647752 0.394995-1.197266 0.943486-1.775432 1.436719-0.450254 0.366343-0.958836 0.71836-1.380438 1.113355-0.549514 0.549514-0.958836 1.15531-1.436719 1.732454-0.380669 0.478906-0.81762 0.888228-1.127681 1.352808-0.507559 0.732686-0.887205 1.550306-1.29755 2.324947-0.197498 0.422625-0.450254 0.788968-0.633425 1.197266-0.295735 0.676404-0.465603 1.394764-0.69073 2.127449-0.168845 0.578167-0.422625 1.169637-0.535188 1.775433-0.141216 0.520862-0.141216 1.070376-0.210801 1.605564-0.099261 0.859575-0.239453 1.677196-0.268106 2.5644v0.211824c0 0.507559 0.098237 0.985442 0.140193 1.478674 0.057305 0.816597 0.085958 1.61989 0.22615 2.437511 0.169868 0.803294 0.422625 1.577935 0.677428 2.323924 0.140193 0.493233 0.224104 0.972139 0.421601 1.466395l100.039237 253.224799c3.240804 8.242715 11.159132 13.285558 19.493944 13.285558 0.393972 0 0.788968-0.11154 1.210569-0.125867 0.396019 0.014326 0.791014 0.125866 1.213639 0.125867 8.3123 0 16.230627-5.043866 19.501107-13.285558l100.038214-253.224799c4.251829-10.776416-1.016141-22.936339-11.782324-27.219891z" fill="#474747" p-id="19891"></path></svg>