<?xml version="1.0" standalone="no"?><!DOCTYPE svg PUBLIC "-//W3C//DTD SVG 1.1//EN" "http://www.w3.org/Graphics/SVG/1.1/DTD/svg11.dtd"><svg t="1689151807521" viewBox="0 0 1024 1024" version="1.1" xmlns="http://www.w3.org/2000/svg" p-id="46876" xmlns:xlink="http://www.w3.org/1999/xlink" width="200" height="200"><path d="M512 67c61.032 0 120.059 11.885 173.104 34.373C808.109 153.519 888 257.602 888 374.71l-0.007 1.957a269.24 269.24 0 0 1-0.111 5.932l-0.035 1.029 0.041 0.392c0.283 3.007 0.139 6.1-0.487 9.203l-0.051 0.235-0.063 0.968c-5.304 75.22-39.895 167.448-92.433 246.551l-1.165 1.744-46.125 122.181c-8.678 22.99-25.557 41.198-46.563 51.805L701 861c0 52.49-42.125 95.14-94.412 95.987L605 957H420c-52.49 0-95.14-42.125-95.987-94.412L324 861v-43.358c-21.948-10.485-39.622-29.165-48.536-52.934l-46.511-124.023-1.148-1.736c-51.809-78.682-85.845-169.997-91.094-244.559l-0.062-0.932-0.056-0.267a31.648 31.648 0 0 1-0.479-9.198l0.039-0.363-0.035-1.031a266.926 266.926 0 0 1-0.118-7.89c0-117.761 80.785-222.316 204.851-274.16C393.4 78.593 451.723 67 512 67z m125 760H388v34c0 17.321 13.762 31.428 30.949 31.983l0.522 0.013 0.529 0.004h185c17.496 0 31.713-14.042 31.996-31.47L637 861v-34zM512 131c-51.842 0-101.777 9.924-146.473 28.601C263.837 202.094 200 284.714 200 374.71v1.488c0.028 2.987 0.119 6.044 0.278 9.169l0.019 0.468 0.028 0.418c3.537 64.595 35.196 149.526 83.851 221.885a32 32 0 0 1 3.408 6.62l47.805 127.478A32 32 0 0 0 365.352 763h24.265l-66.443-238.506c-7.406-26.584 20.005-49.308 44.64-37.453l0.745 0.37 77.999 39.851 36.53-79.608c11.102-24.195 45.055-24.975 57.363-1.632l0.366 0.714 40.071 80.474 74.04-39.532c24.385-13.02 52.392 8.876 46.283 35.307l-0.196 0.803-0.219 0.813L633.495 763h24.255a32 32 0 0 0 29.938-20.7l47.44-125.662a32 32 0 0 1 3.455-6.663l1.475-2.186c48.503-72.257 80.085-157.011 83.617-221.54l0.027-0.414 0.02-0.468c0.185-3.645 0.278-7.2 0.278-10.657 0-89.482-63.102-171.692-163.876-214.414C615.017 141.174 564.488 131 512 131z m1.351 404.158l-22.545 49.133c-7.515 16.378-27.039 23.293-43.156 15.394l-0.488-0.244-42.758-21.847L456.054 763h110.939l51.796-183.475-36.799 19.648c-15.588 8.323-34.895 2.42-43.223-13.012l-0.25-0.471-0.244-0.481-24.922-50.051z" fill="#2c2c2c" p-id="46877"></path></svg>