<?xml version="1.0" standalone="no"?><!DOCTYPE svg PUBLIC "-//W3C//DTD SVG 1.1//EN" "http://www.w3.org/Graphics/SVG/1.1/DTD/svg11.dtd"><svg t="1689150915142" viewBox="0 0 1024 1024" version="1.1" xmlns="http://www.w3.org/2000/svg" p-id="19295" xmlns:xlink="http://www.w3.org/1999/xlink" width="200" height="200"><path d="M850.4 769.6H125.6c-31.2 0-56.8-25.6-56.8-56.8v-54.4c0-231.2 188-419.2 419.2-419.2s419.2 188 419.2 419.2v54.4c0 31.2-25.6 56.8-56.8 56.8z m-720.8-61.6h716v-49.6c0-197.6-160.8-358.4-358.4-358.4S129.6 460.8 129.6 658.4v49.6z m204 126.4l-30.4 8c-8.8 2.4-13.6 11.2-11.2 19.2 2.4 8.8 11.2 13.6 19.2 11.2l30.4-8c8.8-2.4 13.6-11.2 11.2-19.2-2.4-8.8-11.2-13.6-19.2-11.2z m37.6 91.2l-22.4 22.4c-6.4 6.4-6.4 16 0 22.4s16 6.4 22.4 0l22.4-22.4c6.4-6.4 6.4-16 0-22.4-6.4-5.6-16.8-5.6-22.4 0z m301.6-79.2l-32-8c-8.8-2.4-17.6 2.4-20 11.2s3.2 16.8 11.2 19.2l32 8c8.8 2.4 17.6-2.4 20-11.2 2.4-8-2.4-16.8-11.2-19.2z m-71.2 84c-6.4-6.4-16.8-6.4-23.2 0s-6.4 16 0 22.4l23.2 22.4c6.4 6.4 16.8 6.4 23.2 0s6.4-16 0-22.4l-23.2-22.4z m-106.4 2.4c-8.8 0-16 7.2-16 16v31.2c0 8.8 7.2 16 16 16s16-7.2 16-16v-31.2c0-8.8-7.2-16-16-16z" fill="" p-id="19296"></path><path d="M488 900c-74.4 0-135.2-60.8-135.2-135.2v-15.2c0-17.6 14.4-32 32-32h206.4c17.6 0 32 14.4 32 32v15.2c0 74.4-60.8 135.2-135.2 135.2zM401.6 766.4c0.8 47.2 39.2 84.8 86.4 84.8s85.6-37.6 86.4-84.8H401.6zM488 293.6c-14.4 0-25.6-11.2-25.6-25.6V33.6C462.4 19.2 473.6 8 488 8s25.6 11.2 25.6 25.6v233.6c0 14.4-11.2 26.4-25.6 26.4z" fill="" p-id="19297"></path></svg>