<svg xmlns="http://www.w3.org/2000/svg" xmlns:xlink="http://www.w3.org/1999/xlink" width="11px" viewBox="0 0 11 19">
<path fill-rule="evenodd" fill="#fff" d="M10.230,3.314 L8.478,3.314 C7.836,3.314 7.404,3.454 7.181,3.732 C6.930,4.085 6.812,4.513 6.847,4.943 L6.847,4.937 L6.847,7.029 L10.123,7.029 L9.705,10.339 L6.848,10.339 L6.848,18.820 L3.430,18.820 L3.430,10.339 L0.581,10.339 L0.581,7.029 L3.430,7.029 L3.430,4.593 C3.430,3.199 3.818,2.124 4.593,1.368 C5.428,0.576 6.550,0.162 7.698,0.221 L7.689,0.221 C8.571,0.207 9.453,0.254 10.329,0.364 L10.238,0.354 L10.230,3.314 Z"></path>
</svg>