<svg xmlns="http://www.w3.org/2000/svg" xmlns:xlink="http://www.w3.org/1999/xlink" width="18px" viewBox="0 0 18 19">
<path fill-rule="evenodd"  fill="#fff" d="M17.931,6.938 C17.945,6.059 17.829,5.182 17.586,4.338 C17.298,3.432 16.737,2.637 15.981,2.060 C15.395,1.623 14.718,1.324 14.001,1.183 C13.329,1.056 12.647,0.994 11.963,0.997 C10.300,0.952 8.633,0.967 6.968,0.979 C6.057,0.959 5.147,1.012 4.244,1.139 C3.409,1.262 2.620,1.598 1.952,2.115 C0.803,3.029 0.283,4.261 0.143,5.685 C0.073,6.389 0.062,7.095 0.055,7.801 C0.046,8.783 0.048,9.765 0.045,10.746 C0.051,11.778 0.051,12.810 0.117,13.840 C0.149,14.509 0.285,15.168 0.520,15.795 C0.733,16.342 1.048,16.844 1.448,17.273 C1.764,17.620 2.134,17.913 2.545,18.140 C3.110,18.443 3.724,18.646 4.359,18.739 C4.614,18.782 4.872,18.811 5.130,18.824 C5.367,18.834 5.605,18.852 5.843,18.856 C8.211,18.884 10.579,18.922 12.944,18.806 C13.505,18.780 14.060,18.679 14.593,18.505 C15.238,18.300 15.831,17.958 16.329,17.500 C17.045,16.826 17.534,15.946 17.731,14.983 C17.866,14.300 17.932,13.606 17.929,12.910 C17.975,10.919 17.975,8.928 17.931,6.938 L17.931,6.938 ZM16.326,12.994 C16.335,13.586 16.274,14.176 16.143,14.754 C16.039,15.211 15.832,15.637 15.540,16.002 C15.085,16.568 14.444,16.951 13.731,17.086 C13.316,17.172 12.895,17.221 12.471,17.230 C10.560,17.308 8.648,17.271 6.737,17.263 C6.109,17.267 5.481,17.240 4.856,17.178 C3.285,17.149 1.977,15.966 1.790,14.406 C1.685,13.596 1.639,12.782 1.654,11.967 C1.641,11.417 1.651,10.867 1.651,10.319 C1.651,8.874 1.624,7.429 1.721,5.986 C1.746,5.539 1.837,5.098 1.992,4.678 C2.293,3.844 2.954,3.191 3.791,2.903 C4.313,2.726 4.858,2.632 5.408,2.621 C7.147,2.542 8.888,2.578 10.627,2.575 C11.218,2.575 11.808,2.584 12.398,2.616 C12.946,2.620 13.491,2.695 14.021,2.838 C15.167,3.165 16.015,4.132 16.190,5.312 C16.282,5.818 16.327,6.331 16.326,6.845 C16.372,8.896 16.376,10.946 16.324,12.994 L16.326,12.994 ZM8.220,5.405 C6.591,5.663 5.234,6.792 4.683,8.346 C4.481,8.861 4.385,9.412 4.403,9.966 C4.412,10.466 4.499,10.964 4.663,11.438 C4.857,12.007 5.165,12.530 5.568,12.976 C6.771,14.332 8.661,14.854 10.390,14.306 C12.119,13.759 13.364,12.245 13.567,10.443 C13.644,9.790 13.578,9.128 13.372,8.504 C12.671,6.328 10.470,5.004 8.220,5.405 L8.220,5.405 ZM11.525,11.526 C11.421,11.696 11.296,11.851 11.152,11.990 C10.989,12.162 10.806,12.318 10.608,12.450 C9.278,13.295 7.521,12.965 6.588,11.696 C6.235,11.220 6.035,10.650 6.012,10.059 C5.940,8.466 7.129,7.097 8.715,6.946 C10.302,6.793 11.729,7.913 11.959,9.490 C12.080,10.199 11.925,10.927 11.525,11.526 L11.525,11.526 ZM13.757,4.082 C13.166,4.091 12.694,4.576 12.702,5.166 C12.709,5.757 13.193,6.231 13.784,6.225 C14.374,6.219 14.849,5.737 14.845,5.146 C14.842,4.860 14.726,4.587 14.522,4.388 C14.318,4.188 14.043,4.078 13.757,4.082 L13.757,4.082 Z"></path>
</svg>