<svg xmlns="http://www.w3.org/2000/svg" xmlns:xlink="http://www.w3.org/1999/xlink" width="18px" viewBox="0 0 18 17">
<path fill-rule="evenodd" fill="#fff" d="M4.562,16.277 L0.999,16.277 L0.999,5.962 L4.562,5.962 L4.562,16.277 ZM2.836,4.556 C2.314,4.598 1.797,4.418 1.412,4.063 C1.027,3.707 0.809,3.205 0.811,2.680 C0.809,2.155 1.027,1.654 1.412,1.299 C1.797,0.942 2.314,0.763 2.836,0.804 C3.359,0.763 3.876,0.942 4.261,1.299 C4.646,1.654 4.864,2.155 4.862,2.680 C4.864,3.205 4.646,3.707 4.261,4.063 C3.876,4.418 3.359,4.598 2.836,4.556 L2.836,4.556 ZM17.465,16.183 L13.883,16.183 L13.883,10.407 C13.883,9.372 13.043,8.531 12.007,8.531 C11.108,8.512 10.321,9.134 10.132,10.014 L10.132,16.315 L6.662,16.315 L6.662,5.962 L10.226,5.962 L10.226,7.838 C10.431,6.833 11.225,6.055 12.232,5.869 C13.035,5.759 13.849,5.759 14.652,5.869 C16.278,6.079 17.488,7.475 17.465,9.114 L17.465,16.183 Z"></path>
</svg>