<svg xmlns="http://www.w3.org/2000/svg" xmlns:xlink="http://www.w3.org/1999/xlink" width="17px" viewBox="0 0 17 15">
<path fill-rule="evenodd" fill="#fff" d="M0.189,12.863 C0.448,12.896 0.712,12.914 0.980,12.914 C2.533,12.917 3.963,12.356 5.096,11.415 C3.645,11.381 2.421,10.356 2.000,8.947 C2.202,8.990 2.411,9.014 2.623,9.016 C2.926,9.017 3.218,8.977 3.496,8.897 C1.980,8.561 0.836,7.122 0.836,5.408 L0.836,5.363 C1.284,5.633 1.794,5.797 2.338,5.822 C1.450,5.179 0.865,4.088 0.865,2.860 C0.865,2.212 1.029,1.605 1.314,1.087 C2.949,3.249 5.392,4.684 8.146,4.862 C8.089,4.605 8.060,4.336 8.060,4.062 C8.060,2.123 9.544,0.577 11.374,0.607 C12.328,0.623 13.190,1.062 13.794,1.749 C14.550,1.604 15.259,1.326 15.899,0.937 C15.652,1.746 15.125,2.419 14.441,2.842 C15.112,2.766 15.750,2.589 16.344,2.320 C15.900,3.011 15.338,3.616 14.690,4.099 C14.697,4.248 14.700,4.398 14.700,4.548 C14.700,9.151 11.365,14.458 5.268,14.456 C3.398,14.457 1.655,13.871 0.189,12.863 L0.189,12.863 Z"></path>
</svg>