<svg xmlns="http://www.w3.org/2000/svg" xmlns:xlink="http://www.w3.org/1999/xlink" width="18px" viewBox="0 0 18 13">
<path fill-rule="evenodd" fill="#fff" d="M17.244,3.037 C16.879,1.825 16.591,1.155 15.380,1.009 C15.380,1.009 12.136,0.844 8.910,0.844 C5.720,0.844 2.549,1.009 2.549,1.009 C1.265,1.155 0.959,1.863 0.630,3.037 C0.630,3.037 0.301,4.908 0.301,6.803 C0.301,8.745 0.630,10.713 0.630,10.713 C0.886,11.852 1.411,12.596 2.549,12.742 C2.549,12.742 6.069,12.962 9.422,12.962 C12.470,12.962 15.380,12.742 15.380,12.742 C16.518,12.523 16.915,11.924 17.244,10.713 C17.244,10.713 17.573,8.915 17.573,7.059 C17.573,5.080 17.244,3.037 17.244,3.037 L17.244,3.037 ZM7.210,10.111 L7.210,3.640 L12.200,6.875 L7.210,10.111 Z"></path>
</svg>