<svg viewBox="0 0 1024 1024" version="1.1" xmlns="http://www.w3.org/2000/svg"><path d="M272.566857 357.156571V923.428571H84.004571V357.156571h188.562286z m11.995429-174.884571c0.585143 54.272-40.557714 97.718857-106.276572 97.718857h-1.133714C113.737143 279.990857 73.142857 236.544 73.142857 182.272c0-55.442286 42.276571-97.718857 106.276572-97.718857 64.585143 0 104.557714 42.276571 105.142857 97.718857zM950.857143 598.857143v324.571428h-188.013714v-302.848c0-75.995429-27.428571-128-95.414858-128-52.004571 0-82.870857 34.852571-96.585142 68.571429-4.571429 12.580571-6.290286 29.147429-6.290286 46.299429v316.013714H376.539429c2.304-513.133714 0-566.272 0-566.272h188.013714v82.285714h-1.133714c24.576-38.838857 69.156571-95.414857 170.861714-95.414857 124.013714 0 216.576 81.152 216.576 254.866286z"  /></svg>