<svg viewBox="0 0 1024 1024" version="1.1" xmlns="http://www.w3.org/2000/svg"><path d="M900.135587 904.575981M983.479524 433.45771c-76.88655-29.095869-135.304072-77.02202-173.265677-142.438806-9.076466-15.398383-15.65427-29.92374-20.772012-42.973982 8.293753-4.696281 15.428487-12.252477 19.868881-21.645039 11.274085-24.805997 1.098809-54.443745-23.02984-66.319918-24.33938-11.921329-53.224519-1.324592-64.67923 23.496457-11.620285 24.89631-1.429957 54.443745 23.195414 66.440335 6.06603 2.724445 12.463207 4.575864 19.206585 4.696281 5.328473 14.389887 12.734147 31.218227 22.89437 48.994855 28.283052 49.085168 83.900867 115.691077 187.655564 155.007379 6.532647 2.348141 13.411495-0.632192 16.391827-6.773482 0-0.406409 0.270939-0.662296 0.421461-1.30954C993.639747 443.648038 990.343319 436.227311 983.479524 433.45771zM861.496634 284.99803c-4.470498 5.749934-3.522211 14.239365 2.062149 18.815229 5.599412 4.575864 13.983478 3.507159 18.318507-2.227723 6.848743-8.880788 12.47826-18.694811 17.550845-28.975452 34.875908-74.688931 3.672733-164.80635-69.345406-200.299397C757.019433 36.652065 669.295311 68.637954 634.645186 143.582772c-34.770542 74.959871-3.567367 164.776246 69.495928 200.419815 20.922534 10.20538 44.178157 15.142496 67.117683 14.61567 7.330413-0.376305 13.050243-6.517595 12.734147-13.968426-0.120417-7.390622-6.246656-13.155608-13.501808-13.005086-18.935646 0.767661-37.826136-3.401793-55.226459-11.755755-60.223784-29.366809-85.827547-103.137557-56.897251-164.655828 28.373365-61.849419 100.322799-87.964957 160.365956-58.598148 60.223784 28.945348 85.64692 102.987035 57.062825 164.505306C871.972953 269.614699 867.096046 277.848243 861.496634 284.99803zM104.718036 933.611642c-13.381391-147.827488 17.039071-283.221873 89.726062-394.743496 17.09928-26.386477 34.650125-52.140761 50.846274-69.887285 13.983478 9.919389 30.766662 15.819844 48.994855 15.819844 47.474585 0 85.526503-39.16578 85.526503-87.889696 0-48.468029-38.051918-87.633809-85.526503-87.633809-47.23375 0-85.661973 39.135675-85.661973 87.633809 0 12.523416 2.543819 24.414641 7.134735 35.116743-18.333559 19.853829-38.578745 44.795296-58.327209 75.065236-54.865207 83.313832-116.202852 231.457416-98.772424 430.688108 1.143966 12.252477 11.063354 28.523887 22.7589 28.523887l2.302984 0C96.318918 966.304983 105.741585 946.571571 104.718036 933.611642zM91.095811 532.937586c11.620285-5.870351 16.045627-20.079612 10.06991-31.594532-15.548905-30.947288-23.315831-64.513656-23.315831-99.389563 0-120.101367 95.491048-217.895399 212.581979-217.895399 117.376922 0 212.717448 97.763928 212.717448 217.895399 0 120.101367-95.340526 217.925503-212.717448 217.925503-16.150992 0-32.317037-1.821314-47.865941-5.478995-12.312686-2.995384-24.444745 4.952168-27.485286 17.79168-2.543819 12.508364 4.846803 25.182302 17.31001 28.177686 18.830281 4.304924 38.578745 6.5477 58.041217 6.5477 142.694694 0 258.686815-118.957401 258.686815-264.948523 0.015052-146.201852-115.962017-265.159253-258.65671-265.159253-142.574276 0-258.521241 118.957401-258.521241 265.189358 0 41.799912 9.678554 83.840659 28.358313 120.929237C66.169396 534.533118 79.776569 539.108981 91.095811 532.937586z" /></svg>