<svg viewBox="0 0 1063 1024" version="1.1" xmlns="http://www.w3.org/2000/svg"><path d="M921.995015 551.690835c-27.374754-65.621634-95.313265-74.12674-114.373257-77.251044-19.250336-3.246083-35.875766-13.122485-16.31433-32.748393 13.81325-13.875674 19.001661-54.626705 15.06379-68.375483-3.938894-13.750825-9.623633-64.62284-105.874291-67.12392-69.878792-2.001683-152.75215 45.873947-161.626687 37.372935-12.564756-11.624293 16.877175-37.372935 12.751007-78.62234-4.003366-41.00073-18.874765-49.626591-38.500673-62.751123-19.625908-13.249381-73.750145-23.375481-168.375715 23.376505-101.063498 50.125989-207.252983 181.623049-244.503115 229.248981-35.498148 45.37762-155.252207 256.376083 84.250794 382.754321 239.626827 126.376191 544.128239 39.375641 638.253388-47.37521C913.997494 706.068073 948.247148 614.440934 921.995015 551.690835zM488.306255 816.816606c-166.814075 22.749188-314.000196-46.998615-328.688414-155.751604-14.875492-108.500221 108.373325-215.123608 275.250848-237.751017 166.812028-22.622292 314.000196 47.128581 328.81531 155.750581C778.370171 687.692706 655.12033 794.192267 488.306255 816.816606zM597.743869 613.439069c-15.059696-75.372164-99.499811-122.122103-188.623823-104.122307-89.188483 17.752144-149.251252 93.249157-134.188485 168.624391 14.93587 75.251408 99.499811 122.001347 188.561398 104.249203C552.743867 764.19056 612.743188 688.815326 597.743869 613.439069zM395.868619 716.566675c-31.376073 7.377368-61.876154-7.998545-68.062337-34.249655-6.126828-26.250086 14.437496-53.499991 45.937395-60.874289 31.498876-7.372251 61.997933 8.000592 68.124761 34.125829C447.995267 681.817623 427.49132 709.192377 395.868619 716.566675zM474.741681 636.191327c-12.996612 2.876652-25.495874-3.495782-27.811727-14.247152-2.31176-10.750347 6.437928-21.626567 19.56246-24.502196 13.125555-2.750779 25.562392 3.625748 27.811727 14.251246C496.617947 622.565352 487.869282 633.442595 474.741681 636.191327zM899.245827 259.814557c-29.748938-40.748984-94.810797-50.750235-119.374394-44.998979-24.624998 5.747163-37.125283 17.249677-37.125283 36.99941 0 19.624884 12.875856 30.75285 42.313694 29.250564 31.439521-1.501262 46.685468 11.499443 61.06361 29.499239 14.248176 18.001843 10.622428 44.877199 8.37207 63.127718-2.247288 18.377414 11.750165 38.871127 30.751826 38.871127 18.936166 0 31.37505-8.24722 34.250678-22.746118C938.745294 326.31423 919.247306 284.065007 899.245827 259.814557zM961.370656 136.064295c-96.688654-76.748576-200.375012-58.124534-216.251346-55.124056-15.936712 2.875628-37.625704 18.872718-37.625704 40.376483 0 22.622292 18.250518 40.750007 40.812432 40.750007 4.940759 0 68.501356-28.375595 163.93947 34.872878 95.378759 63.376393 61.376757 212.503819 61.376757 215.626076 0 22.627409 18.186047 40.876904 40.748984 40.876904 22.500513 0 35.250496-19.000638 40.688606-41.624976C1079.062655 300.566611 1047.309987 204.442849 961.370656 136.064295z" /></svg>