<svg t="1665302648357"  viewBox="0 0 1024 1024" version="1.1" xmlns="http://www.w3.org/2000/svg" p-id="4372"><path d="M936.8 588.114286c4.685714-25.714286 7.2-52 7.2-78.285715 0-58.285714-11.428571-114.857143-33.942857-168-21.714286-51.428571-52.914286-97.6-92.571429-137.257142a429.474286 429.474286 0 0 0-137.257143-92.457143c-53.257143-22.514286-109.714286-33.942857-168-33.942857-27.428571 0-54.971429 2.628571-81.714285 7.771428A257.257143 257.257143 0 0 0 310.4 56c-68.228571 0-132.457143 26.628571-180.685714 74.857143A254 254 0 0 0 54.857143 311.542857c0 43.428571 11.2 86.171429 32.114286 123.885714-4.228571 24.457143-6.514286 49.485714-6.514286 74.4 0 58.285714 11.428571 114.857143 33.942857 168 21.714286 51.428571 52.8 97.6 92.457143 137.257143 39.657143 39.657143 85.828571 70.742857 137.257143 92.457143 53.257143 22.514286 109.714286 33.942857 168 33.942857 25.371429 0 50.742857-2.285714 75.657143-6.742857 38.285714 21.6 81.485714 33.142857 125.714285 33.142857 68.228571 0 132.457143-26.514286 180.685715-74.857143 48.342857-48.228571 74.857143-112.457143 74.857142-180.685714 0.114286-43.428571-11.085714-86.285714-32.228571-124.228571z m-100.685714 246.857143C803.314286 867.885714 760 885.714286 713.6 885.714286c-29.828571 0-59.2-7.771429-85.257143-22.514286l-25.714286-14.514286-29.142857 5.142857c-20.342857 3.657143-40.914286 5.485714-61.257143 5.485715-47.314286 0-92.914286-9.257143-136.114285-27.542857-41.485714-17.485714-78.857143-42.628571-111.085715-74.857143a347.76 347.76 0 0 1-74.857142-110.971429c-18.285714-43.085714-27.428571-88.685714-27.428572-136 0-19.885714 1.828571-40.228571 5.257143-60.342857l5.028571-28.685714L158.857143 395.428571a172.594286 172.594286 0 0 1-21.828572-83.885714c0-46.4 17.942857-89.714286 50.742858-122.514286C220.685714 156.228571 264 138.285714 310.4 138.285714a174.857143 174.857143 0 0 1 81.6 20.457143l25.6 13.485714 28.342857-5.485714c21.6-4.114286 43.885714-6.285714 66.285714-6.285714 47.314286 0 92.914286 9.257143 136 27.428571 41.714286 17.6 78.971429 42.742857 111.085715 74.857143 32.228571 32.114286 57.371429 69.485714 74.971428 111.085714 18.285714 43.085714 27.428571 88.685714 27.428572 136 0 21.028571-1.942857 42.285714-5.828572 63.428572l-5.371428 29.142857 14.4 25.828571c14.4 25.714286 21.942857 54.857143 21.942857 84.228572 0 46.514286-17.942857 89.714286-50.742857 122.514286zM593.6 459.657143L492.571429 437.257143c-38.4-8.8-82.628571-20.342857-82.628572-56.571429s30.971429-61.6 86.971429-61.6c112.8 0 102.514286 77.485714 158.514285 77.485715 29.485714 0 55.314286-17.371429 55.314286-47.085715 0-69.485714-111.314286-121.714286-205.714286-121.714285-102.514286 0-211.657143 43.542857-211.657142 159.428571 0 55.771429 19.885714 115.2 129.828571 142.742857l136.457143 34.057143c41.257143 10.171429 51.657143 33.371429 51.657143 54.4 0 34.857143-34.628571 68.914286-97.371429 68.914286-122.514286 0-105.485714-94.285714-171.085714-94.285715-29.485714 0-50.857143 20.342857-50.857143 49.257143 0 56.457143 68.571429 131.885714 221.942857 131.885715 145.942857 0 218.285714-70.285714 218.285714-164.571429 0-60.685714-28-125.257143-138.628571-149.942857z" p-id="4373"></path></svg>