<svg 
 xmlns="http://www.w3.org/2000/svg"
 xmlns:xlink="http://www.w3.org/1999/xlink"
 width="22px" height="26px">
<path fill-rule="evenodd"
 d="M21.969,10.763 C19.803,10.763 17.697,10.070 15.964,8.788 L15.964,17.733 C15.964,22.301 12.391,25.1000 7.982,25.1000 C3.573,25.1000 -0.000,22.301 -0.000,17.733 C-0.000,13.165 3.573,9.466 7.982,9.466 C8.423,9.466 8.851,9.504 9.269,9.575 L9.269,14.313 C8.869,14.158 8.444,14.079 8.015,14.079 C6.048,14.079 4.452,15.730 4.452,17.768 C4.452,19.805 6.048,21.458 8.015,21.458 C9.980,21.458 11.576,19.805 11.576,17.768 L11.576,-0.000 L16.029,-0.000 C16.029,3.415 18.702,6.183 21.1000,6.183 L21.1000,10.760 L21.969,10.763 "/>
</svg>