<svg 
 xmlns="http://www.w3.org/2000/svg"
 xmlns:xlink="http://www.w3.org/1999/xlink"
 width="26px" height="26px">
<path fill-rule="evenodd"
 d="M25.1000,13.079 C25.1000,5.855 20.180,-0.000 12.1000,-0.000 C5.820,-0.000 -0.000,5.855 -0.000,13.079 C-0.000,19.607 4.754,25.017 10.969,25.998 L10.969,16.859 L7.668,16.859 L7.668,13.079 L10.969,13.079 L10.969,10.197 C10.969,6.919 12.910,5.109 15.879,5.109 C17.301,5.109 18.789,5.364 18.789,5.364 L18.789,8.583 L17.150,8.583 C15.535,8.583 15.031,9.591 15.031,10.625 L15.031,13.079 L18.637,13.079 L18.060,16.859 L15.031,16.859 L15.031,25.998 C21.246,25.017 25.1000,19.607 25.1000,13.079 Z"/>
</svg>