<svg 
 xmlns="http://www.w3.org/2000/svg"
 xmlns:xlink="http://www.w3.org/1999/xlink"
 width="26px" height="23px">
<path fill-rule="evenodd"
 d="M25.306,4.185 L24.554,4.898 L21.167,1.751 L21.954,1.005 C22.903,0.131 24.365,0.113 25.306,1.005 C26.227,1.879 26.227,3.311 25.306,4.185 ZM17.662,11.433 C17.571,11.518 17.454,11.574 17.327,11.592 L14.395,11.989 C14.003,12.042 13.668,11.725 13.723,11.354 L14.142,8.572 C14.161,8.452 14.219,8.340 14.310,8.254 L20.329,2.546 L23.716,5.693 L17.662,11.433 ZM12.713,8.379 L12.294,11.160 C12.117,12.343 13.354,13.515 14.601,13.344 L17.531,12.947 C17.532,12.947 17.533,12.946 17.534,12.946 C17.966,12.887 18.375,12.693 18.683,12.401 L18.684,12.399 L22.517,8.766 L22.517,16.591 C22.517,17.826 21.450,18.839 20.147,18.839 L9.703,18.839 L5.760,22.111 C5.462,22.358 5.037,22.394 4.718,22.257 C4.400,22.120 4.148,21.793 4.148,21.418 L4.148,18.839 L2.370,18.839 C1.067,18.840 -0.000,17.826 -0.000,16.591 L-0.000,4.357 C-0.000,3.778 0.187,3.210 0.601,2.784 C1.014,2.358 1.645,2.109 2.370,2.109 L18.748,2.109 L13.289,7.286 C12.980,7.579 12.775,7.969 12.713,8.379 Z"/>
</svg>