<svg 
 xmlns="http://www.w3.org/2000/svg"
 xmlns:xlink="http://www.w3.org/1999/xlink"
 width="26px" height="26px">
<path fill-rule="evenodd"
 d="M12.1000,25.1000 C5.820,25.1000 -0.000,20.180 -0.000,12.1000 C-0.000,5.820 5.820,-0.000 12.1000,-0.000 C20.180,-0.000 25.1000,5.820 25.1000,12.1000 C25.1000,20.180 20.180,25.1000 12.1000,25.1000 ZM20.639,9.831 C20.602,9.013 20.472,8.455 20.282,7.966 C20.085,7.460 19.823,7.032 19.395,6.605 C18.968,6.177 18.539,5.914 18.034,5.718 C17.545,5.528 16.987,5.398 16.169,5.361 C15.349,5.324 15.087,5.315 12.1000,5.315 C10.913,5.315 10.651,5.324 9.831,5.361 C9.013,5.398 8.455,5.528 7.966,5.718 C7.460,5.914 7.032,6.177 6.605,6.605 C6.177,7.032 5.914,7.460 5.718,7.966 C5.528,8.455 5.398,9.013 5.361,9.831 C5.323,10.651 5.315,10.913 5.315,12.1000 C5.315,15.087 5.323,15.349 5.361,16.169 C5.398,16.987 5.528,17.545 5.718,18.034 C5.914,18.540 6.177,18.968 6.605,19.395 C7.032,19.823 7.460,20.085 7.966,20.282 C8.455,20.472 9.013,20.602 9.831,20.639 C10.651,20.676 10.913,20.685 12.1000,20.685 C15.087,20.685 15.349,20.676 16.169,20.639 C16.987,20.602 17.545,20.472 18.034,20.282 C18.539,20.085 18.968,19.823 19.395,19.395 C19.823,18.968 20.085,18.540 20.282,18.034 C20.472,17.545 20.602,16.987 20.639,16.169 C20.676,15.349 20.685,15.087 20.685,12.1000 C20.685,10.913 20.676,10.651 20.639,9.831 ZM18.991,17.533 C18.852,17.891 18.685,18.147 18.416,18.416 C18.147,18.685 17.891,18.852 17.533,18.991 C17.262,19.096 16.855,19.222 16.105,19.256 C15.295,19.293 15.052,19.301 12.1000,19.301 C10.948,19.301 10.705,19.293 9.894,19.256 C9.145,19.222 8.738,19.096 8.467,18.991 C8.109,18.852 7.853,18.685 7.584,18.416 C7.315,18.147 7.148,17.891 7.009,17.533 C6.904,17.262 6.778,16.855 6.744,16.106 C6.707,15.295 6.699,15.052 6.699,12.1000 C6.699,10.948 6.707,10.705 6.744,9.894 C6.778,9.145 6.904,8.738 7.009,8.467 C7.148,8.109 7.315,7.853 7.584,7.584 C7.853,7.315 8.109,7.148 8.467,7.009 C8.738,6.904 9.145,6.778 9.894,6.744 C10.705,6.707 10.948,6.699 12.1000,6.699 C15.052,6.699 15.295,6.707 16.105,6.744 C16.855,6.778 17.262,6.904 17.533,7.009 C17.891,7.148 18.147,7.315 18.416,7.584 C18.685,7.853 18.852,8.109 18.991,8.467 C19.096,8.738 19.222,9.145 19.256,9.894 C19.293,10.705 19.301,10.948 19.301,12.1000 C19.301,15.052 19.293,15.295 19.256,16.105 C19.222,16.855 19.096,17.262 18.991,17.533 ZM12.1000,9.053 C10.820,9.053 9.053,10.820 9.053,12.1000 C9.053,15.180 10.820,16.946 12.1000,16.946 C15.179,16.946 16.946,15.180 16.946,12.1000 C16.946,10.820 15.179,9.053 12.1000,9.053 ZM17.102,7.975 C16.593,7.975 16.180,8.388 16.180,8.898 C16.180,9.407 16.593,9.820 17.102,9.820 C17.612,9.820 18.025,9.407 18.025,8.898 C18.025,8.388 17.612,7.975 17.102,7.975 ZM12.1000,15.562 C11.585,15.562 10.438,14.415 10.438,12.1000 C10.438,11.585 11.585,10.438 12.1000,10.438 C14.415,10.438 15.562,11.585 15.562,12.1000 C15.562,14.415 14.415,15.562 12.1000,15.562 Z"/>
</svg>