<svg 
 xmlns="http://www.w3.org/2000/svg"
 xmlns:xlink="http://www.w3.org/1999/xlink"
 width="26px" height="26px">
<path fill-rule="evenodd"
 d="M12.1000,25.1000 C5.820,25.1000 -0.000,20.180 -0.000,12.1000 C-0.000,5.820 5.820,-0.000 12.1000,-0.000 C20.180,-0.000 25.1000,5.820 25.1000,12.1000 C25.1000,20.180 20.180,25.1000 12.1000,25.1000 ZM7.468,18.481 C8.198,18.476 8.928,18.474 9.657,18.482 C9.805,18.484 9.841,18.441 9.840,18.298 C9.835,17.014 9.837,15.730 9.837,14.445 C9.837,13.151 9.836,11.856 9.839,10.561 C9.840,10.439 9.820,10.384 9.678,10.385 C8.938,10.392 8.198,10.391 7.457,10.386 C7.343,10.385 7.317,10.424 7.317,10.531 C7.320,13.132 7.320,15.732 7.316,18.332 C7.316,18.453 7.352,18.482 7.468,18.481 ZM8.583,6.359 C7.780,6.359 7.121,7.019 7.123,7.822 C7.126,8.616 7.786,9.273 8.580,9.273 C9.385,9.273 10.039,8.616 10.038,7.809 C10.037,7.015 9.380,6.360 8.583,6.359 ZM19.059,12.071 C18.812,11.202 18.295,10.589 17.404,10.331 C17.015,10.219 16.616,10.190 16.212,10.186 C15.478,10.180 14.849,10.433 14.317,10.934 C14.144,11.097 14.005,11.289 13.836,11.479 C13.836,11.168 13.832,10.858 13.839,10.548 C13.842,10.426 13.808,10.385 13.680,10.386 C12.982,10.392 12.283,10.391 11.585,10.386 C11.464,10.385 11.422,10.415 11.422,10.543 C11.425,13.139 11.425,15.735 11.422,18.331 C11.422,18.450 11.456,18.482 11.574,18.481 C12.309,18.476 13.044,18.475 13.780,18.482 C13.913,18.483 13.946,18.444 13.945,18.314 C13.941,17.003 13.943,15.691 13.942,14.380 C13.942,14.168 13.954,13.958 13.981,13.748 C14.091,12.868 14.541,12.439 15.407,12.393 C16.041,12.360 16.474,12.668 16.648,13.273 C16.743,13.602 16.765,13.939 16.766,14.277 C16.770,15.625 16.769,16.974 16.765,18.322 C16.765,18.443 16.792,18.483 16.921,18.482 C17.651,18.475 18.381,18.476 19.111,18.482 C19.241,18.483 19.278,18.448 19.278,18.315 C19.275,16.898 19.282,15.482 19.279,14.065 C19.278,13.393 19.244,12.723 19.059,12.071 Z"/>
</svg>