<svg 
 xmlns="http://www.w3.org/2000/svg"
 xmlns:xlink="http://www.w3.org/1999/xlink"
 width="18px" height="27px">
<path fill-rule="evenodd"
 d="M-0.000,3.090 C0.005,1.402 1.299,0.036 2.897,0.032 L15.103,0.032 C16.700,0.028 17.997,1.394 17.1000,3.081 L17.1000,22.972 C17.995,24.660 16.700,26.027 15.103,26.031 L2.897,26.031 C1.300,26.034 0.003,24.668 -0.000,22.981 L-0.000,3.090 ZM8.1000,24.551 C9.826,24.529 10.481,23.808 10.468,22.935 C10.454,22.062 9.776,21.364 8.950,21.371 C8.123,21.379 7.457,22.088 7.457,22.962 C7.467,23.850 8.158,24.562 8.1000,24.551 L8.1000,24.551 ZM16.000,19.1000 L16.000,3.000 L1.1000,3.000 L1.1000,19.1000 L16.000,19.1000 Z"/>
</svg>