<svg 
 xmlns="http://www.w3.org/2000/svg"
 xmlns:xlink="http://www.w3.org/1999/xlink"
 width="26px" height="26px">
<path fill-rule="evenodd"
 d="M22.244,19.501 C22.099,21.191 21.233,22.751 19.788,23.791 C21.089,24.311 22.966,24.830 22.966,26.000 L3.033,26.000 C3.033,24.960 4.911,24.311 6.066,23.791 C4.767,22.621 3.900,21.061 3.611,19.501 L3.611,18.981 L1.155,21.191 C0.578,21.711 -0.000,21.711 -0.000,20.021 C-0.000,18.981 3.755,10.792 3.755,10.792 L3.755,8.193 C3.900,3.513 8.089,-0.126 13.288,0.004 C18.199,0.134 22.099,3.643 22.244,8.063 L22.244,10.792 C22.244,10.792 25.999,18.981 25.999,20.021 C25.999,21.711 25.422,21.711 24.699,21.061 C22.822,19.501 22.244,18.851 22.244,18.851 L22.244,19.501 Z"/>
</svg>