<svg 
 xmlns="http://www.w3.org/2000/svg"
 xmlns:xlink="http://www.w3.org/1999/xlink"
 width="25px" height="26px">
<path fill-rule="evenodd"
 d="M24.281,18.613 L23.482,19.463 L20.801,16.621 L21.602,15.763 C22.345,14.983 23.539,14.983 24.281,15.763 C25.024,16.553 25.024,17.823 24.281,18.613 ZM19.240,16.163 L14.270,21.451 C13.921,21.788 13.694,22.250 13.640,22.697 L13.281,24.910 C13.224,25.279 13.265,25.648 13.377,25.992 L3.984,25.992 C2.263,25.992 0.882,24.512 0.882,22.692 L0.882,5.503 C0.882,3.683 2.263,2.204 3.984,2.204 L5.291,2.204 L5.286,2.216 C4.975,3.046 5.070,3.983 5.542,4.724 C6.013,5.466 6.797,5.908 7.638,5.908 L14.563,5.908 C15.405,5.908 16.189,5.465 16.660,4.724 C17.131,3.984 17.227,3.046 16.914,2.217 L16.910,2.204 L18.217,2.204 C19.928,2.204 21.320,3.683 21.318,5.503 L21.318,14.146 C21.061,14.300 20.816,14.478 20.599,14.706 L19.240,16.163 ZM6.675,11.573 L5.817,11.573 C5.350,11.573 4.971,11.976 4.971,12.473 C4.971,12.970 5.350,13.373 5.817,13.373 L6.674,13.373 C7.141,13.373 7.521,12.970 7.521,12.473 C7.521,11.976 7.142,11.573 6.675,11.573 ZM6.675,17.034 L5.817,17.034 C5.350,17.034 4.971,17.437 4.971,17.934 C4.971,18.431 5.350,18.834 5.817,18.834 L6.674,18.834 C7.141,18.834 7.521,18.431 7.521,17.934 C7.521,17.437 7.142,17.034 6.675,17.034 ZM10.067,18.833 L14.251,18.833 C14.719,18.833 15.097,18.430 15.097,17.933 C15.097,17.436 14.718,17.033 14.251,17.033 L10.067,17.033 C9.600,17.033 9.221,17.436 9.221,17.933 C9.221,18.430 9.600,18.833 10.067,18.833 ZM16.384,11.573 L10.066,11.573 C9.598,11.573 9.219,11.976 9.219,12.473 C9.219,12.970 9.598,13.373 10.066,13.373 L16.384,13.373 C16.851,13.373 17.230,12.970 17.230,12.473 C17.230,11.976 16.851,11.573 16.384,11.573 ZM14.562,4.407 L7.638,4.407 C6.845,4.407 6.301,3.556 6.596,2.772 L7.355,0.746 C7.525,0.293 7.939,-0.005 8.398,-0.005 L13.802,-0.005 C14.261,-0.005 14.674,0.292 14.844,0.746 L15.605,2.772 C15.899,3.556 15.356,4.407 14.562,4.407 ZM15.218,22.562 L19.806,17.683 L22.486,20.523 L17.888,25.412 C17.794,25.512 17.663,25.582 17.531,25.612 L15.453,25.982 C14.993,26.062 14.598,25.642 14.673,25.152 L15.030,22.952 C15.049,22.802 15.115,22.662 15.218,22.562 Z"/>
</svg>