<svg 
 xmlns="http://www.w3.org/2000/svg"
 xmlns:xlink="http://www.w3.org/1999/xlink"
 width="31px" height="23px">
<path fill-rule="evenodd"
 d="M30.081,9.642 L30.073,9.642 C29.940,10.486 29.484,10.553 28.942,10.553 C28.292,10.553 27.768,10.178 27.768,9.582 C27.768,9.064 28.001,8.540 28.001,8.540 C28.070,8.321 28.620,6.970 27.638,4.950 C25.842,2.181 22.228,2.141 21.799,2.299 C21.369,2.455 20.733,2.532 20.733,2.532 C20.080,2.532 19.556,2.045 19.556,1.452 C19.556,0.953 19.919,0.532 20.413,0.403 C20.413,0.403 20.426,0.386 20.442,0.383 C20.477,0.376 20.514,0.343 20.554,0.339 C21.058,0.250 22.852,-0.073 24.597,0.304 C27.722,0.973 32.009,3.745 30.081,9.642 ZM21.544,5.660 C21.096,5.660 20.737,5.327 20.737,4.918 C20.737,4.503 21.096,4.171 21.544,4.171 C21.544,4.171 26.594,3.313 25.990,8.293 C25.990,8.323 25.986,8.347 25.979,8.372 C25.922,8.726 25.584,8.995 25.186,8.995 C24.736,8.995 24.371,8.666 24.371,8.254 C24.371,8.254 25.172,4.925 21.544,5.660 ZM21.955,7.066 C23.322,8.323 22.180,10.049 22.180,10.049 C22.180,10.049 21.612,10.625 22.780,10.834 C23.950,11.049 27.631,12.613 25.606,16.569 C23.580,20.516 16.901,22.441 11.952,22.083 C7.249,21.743 1.201,20.308 0.577,15.085 C0.577,15.085 0.245,12.719 2.746,9.659 C2.746,9.659 6.340,5.050 10.528,3.735 C14.718,2.426 15.206,4.641 15.206,5.948 C14.984,7.061 14.567,7.713 16.139,7.264 C16.139,7.264 20.259,5.512 21.955,7.066 ZM12.320,9.914 C7.408,10.121 3.436,12.538 3.436,15.549 C3.436,18.559 7.408,20.819 12.320,20.609 C17.234,20.404 21.215,17.581 21.215,14.571 C21.215,11.566 17.236,9.706 12.320,9.914 ZM8.295,18.707 C6.919,18.023 6.970,16.677 6.970,16.677 C6.970,16.677 6.398,12.428 11.341,11.897 C16.288,11.371 17.172,15.709 15.667,17.490 C14.162,19.273 11.186,20.143 8.295,18.707 ZM10.011,15.230 C9.088,15.319 8.428,16.058 8.428,16.764 C8.428,17.471 9.171,17.960 10.094,17.860 C11.011,17.764 11.760,17.112 11.760,16.408 C11.760,15.700 11.071,15.139 10.011,15.230 ZM13.264,14.721 C13.099,14.470 12.719,14.398 12.352,14.648 C12.036,14.858 11.971,15.260 12.144,15.510 C12.307,15.767 12.693,15.798 13.005,15.584 C13.311,15.362 13.430,14.976 13.264,14.721 Z"/>
</svg>