<?xml version="1.0" encoding="UTF-8"?>
<svg xmlns="http://www.w3.org/2000/svg" viewBox="0 0 26 26">
  <path class="cls-1" d="m11.94,11.59c-.98-.48-.43-1.47.96-1.47,1.92,0,1.29,1.56,2.48,1.56.99,0,1.32-1.26.1-2.21-1.33-1.02-4.41-.94-5.46.41-.55.72-.56,1.72-.02,2.45,1.13,1.39,3.6,1.08,4.46,1.88.32.3.39.93-.21,1.33-.61.41-1.65.39-2.14.16-1.06-.5-.73-1.72-1.78-1.72-1.39,0-1.11,1.94.51,2.8,1.13.59,3,.59,4.14.12h0c1.02-.41,1.68-1.21,1.68-2.29,0-2.59-3.38-2.36-4.72-3.02Z"/>
  <path class="cls-1" d="m13,0C5.83,0,0,5.83,0,13s5.83,13,13,13,13-5.83,13-13S20.17,0,13,0Zm1.19,19.03c-4.32.78-8.04-2.98-7.17-7.2-.32-.54-.49-1.15-.49-1.78,0-2.8,3.13-4.44,5.48-2.99,4.33-.73,8.01,3.09,7.08,7.3,1.54,3.06-1.84,6.29-4.9,4.67Z"/>
</svg>