<svg 
 xmlns="http://www.w3.org/2000/svg"
 xmlns:xlink="http://www.w3.org/1999/xlink"
 width="21px" height="27px">
<path fill-rule="evenodd"
 d="M20.317,23.207 C19.995,24.024 19.372,24.587 18.265,25.284 C18.193,25.329 17.555,25.721 17.392,25.826 C14.813,27.503 8.904,23.666 4.655,17.110 C0.393,10.538 -0.710,3.529 1.903,1.828 L2.247,1.598 L2.622,1.342 C3.943,0.444 4.789,0.084 5.791,0.263 C6.792,0.444 7.645,1.223 8.363,2.646 C9.883,5.651 9.549,7.078 7.594,8.374 C7.453,8.470 6.954,8.786 6.909,8.818 C6.429,9.129 7.240,11.221 9.126,14.131 C11.034,17.071 12.630,18.679 13.152,18.340 L13.153,18.340 L13.839,17.891 C14.109,17.721 14.330,17.594 14.552,17.488 C16.109,16.742 17.480,17.270 19.294,19.505 C20.417,20.888 20.750,22.115 20.317,23.207 ZM10.473,13.734 L10.528,13.734 L10.528,13.792 L10.473,13.792 L10.473,13.734 Z"/>
</svg>