<?xml version="1.0" encoding="UTF-8"?>
<svg xmlns="http://www.w3.org/2000/svg" viewBox="0 0 26 26">
  <path class="cls-1" d="m24.99,7.94c-.65-1.55-1.59-2.94-2.79-4.13-1.19-1.19-2.58-2.13-4.13-2.79-1.6-.68-3.31-1.02-5.06-1.02s-3.46.34-5.06,1.02c-1.55.65-2.94,1.59-4.13,2.79-1.19,1.19-2.13,2.58-2.79,4.13C.35,9.54.01,11.25.01,13c0,2.28.59,4.51,1.72,6.47L.05,24.67c-.12.36-.02.76.25,1.03.19.19.45.3.72.3.1,0,.21-.02.31-.05l5.2-1.68c1.96,1.13,4.19,1.72,6.47,1.72,1.75,0,3.46-.34,5.06-1.02,1.55-.65,2.94-1.59,4.13-2.79,1.19-1.19,2.13-2.58,2.79-4.13.68-1.6,1.02-3.31,1.02-5.06.01-1.74-.33-3.45-1.01-5.05ZM7.94,14.27c-.7,0-1.27-.57-1.27-1.27s.57-1.27,1.27-1.27,1.27.57,1.27,1.27c0,.7-.57,1.27-1.27,1.27Zm5.07,0c-.7,0-1.27-.57-1.27-1.27s.57-1.27,1.27-1.27,1.27.57,1.27,1.27c0,.7-.56,1.27-1.27,1.27Zm5.08,0c-.7,0-1.27-.57-1.27-1.27s.57-1.27,1.27-1.27,1.27.57,1.27,1.27-.57,1.27-1.27,1.27Z"/>
</svg>