<svg 
 xmlns="http://www.w3.org/2000/svg"
 xmlns:xlink="http://www.w3.org/1999/xlink"
 width="28px" height="23px">
<path fill-rule="evenodd"
 d="M8.005,0.576 C0.036,1.979 -2.620,10.861 3.719,14.926 C4.066,15.146 4.066,15.121 3.545,16.656 L3.098,17.970 L4.704,17.121 L6.309,16.273 L7.161,16.477 C8.055,16.697 9.197,16.852 9.958,16.852 L10.413,16.852 L10.256,16.256 C9.007,11.717 13.326,7.220 18.945,7.220 L19.706,7.220 L19.549,6.681 C18.316,2.429 13.111,-0.322 8.005,0.576 L8.005,0.576 ZM7.310,4.551 C8.154,5.114 8.204,6.330 7.393,6.853 C6.077,7.702 4.538,6.208 5.423,4.934 C5.812,4.363 6.747,4.175 7.310,4.551 L7.310,4.551 ZM14.096,4.551 C15.486,5.473 14.443,7.604 12.887,7.016 C11.762,6.592 11.630,5.065 12.680,4.518 C13.094,4.298 13.740,4.314 14.096,4.551 L14.096,4.551 ZM17.166,7.914 C13.219,8.624 10.479,11.579 10.637,14.975 C10.844,19.521 16.247,22.656 21.436,21.252 L22.048,21.089 L23.339,21.774 C24.051,22.158 24.647,22.435 24.663,22.403 C24.680,22.362 24.539,21.872 24.357,21.309 C23.943,20.052 23.935,20.142 24.489,19.750 C30.729,15.334 25.250,6.469 17.166,7.914 L17.166,7.914 ZM17.009,11.579 C17.356,11.808 17.538,12.379 17.389,12.795 C17.074,13.685 15.726,13.750 15.362,12.893 C14.948,11.905 16.090,10.991 17.009,11.579 L17.009,11.579 ZM22.536,11.677 C23.082,12.191 22.992,13.065 22.354,13.391 C21.378,13.881 20.352,12.901 20.856,11.963 C21.188,11.359 22.040,11.212 22.536,11.677 L22.536,11.677 Z"/>
</svg>