<svg 
 xmlns="http://www.w3.org/2000/svg"
 xmlns:xlink="http://www.w3.org/1999/xlink"
 width="26px" height="26px">
<path fill-rule="evenodd"
 d="M12.1000,-0.000 C5.820,-0.000 -0.000,5.820 -0.000,12.1000 C-0.000,20.180 5.820,25.1000 12.1000,25.1000 C20.180,25.1000 25.1000,20.180 25.1000,12.1000 C25.1000,5.820 20.180,-0.000 12.1000,-0.000 ZM20.689,11.895 C20.068,12.862 19.117,13.572 18.013,13.892 C17.971,13.892 17.971,13.892 17.929,13.936 C17.758,13.977 17.587,14.020 17.376,14.020 C16.568,14.020 16.144,13.468 16.356,12.831 C16.526,12.363 16.993,11.937 17.545,11.768 C18.439,11.427 19.033,10.705 19.033,9.856 C19.033,8.710 17.929,7.776 16.568,7.776 C15.208,7.776 14.103,8.710 14.103,9.856 L14.103,16.187 C14.103,17.714 13.213,19.032 11.896,19.797 C11.146,20.226 10.295,20.445 9.431,20.434 C6.841,20.434 4.758,18.523 4.758,16.187 C4.758,15.423 4.969,14.742 5.353,14.105 C5.973,13.137 6.923,12.427 8.027,12.106 C8.240,12.066 8.409,12.023 8.622,12.023 C9.430,12.023 9.854,12.576 9.643,13.213 C9.472,13.679 9.048,14.061 8.538,14.274 C8.474,14.285 8.415,14.314 8.369,14.358 C7.559,14.700 7.007,15.381 7.007,16.229 C7.007,17.376 8.112,18.309 9.472,18.309 C10.832,18.309 11.935,17.376 11.935,16.229 L11.935,9.899 C11.935,8.369 12.829,7.052 14.145,6.289 C14.895,5.860 15.746,5.639 16.609,5.650 C19.201,5.650 21.282,7.563 21.282,9.898 C21.276,10.607 21.070,11.299 20.688,11.897 L20.689,11.895 Z"/>
</svg>