<svg 
 xmlns="http://www.w3.org/2000/svg"
 xmlns:xlink="http://www.w3.org/1999/xlink"
 width="27px" height="27px">
<path fill-rule="evenodd"
 d="M26.087,19.802 C26.080,21.311 25.762,22.729 24.765,23.925 C23.782,25.106 22.540,25.825 21.001,25.960 C20.101,26.039 19.195,26.078 18.292,26.081 C14.680,26.095 11.069,26.103 7.457,26.076 C6.477,26.069 5.481,26.015 4.520,25.835 C2.191,25.398 0.425,23.377 0.222,21.003 C0.147,20.123 0.104,19.238 0.101,18.355 C0.088,14.714 0.090,11.073 0.099,7.432 C0.102,6.297 0.115,5.159 0.452,4.057 C1.097,1.947 2.960,0.418 5.168,0.216 C5.928,0.147 6.692,0.105 7.455,0.103 C11.479,0.092 15.503,0.088 19.527,0.103 C20.694,0.108 21.862,0.194 22.921,0.766 C24.792,1.779 25.900,3.346 26.012,5.473 C26.120,7.529 26.071,9.594 26.089,11.655 C26.093,12.138 26.090,12.620 26.090,13.103 C26.090,15.336 26.097,17.569 26.087,19.802 ZM4.067,11.218 C3.766,11.226 3.464,11.232 3.163,11.217 C2.930,11.205 2.860,11.292 2.840,11.524 C2.752,12.532 2.642,13.539 2.541,14.546 C2.536,14.595 2.531,14.650 2.550,14.692 C2.773,15.194 3.001,15.694 3.269,16.287 C3.426,16.032 3.564,15.876 3.626,15.694 C3.795,15.192 3.996,14.688 4.069,14.169 C4.193,13.275 4.227,12.369 4.304,11.468 C4.320,11.282 4.250,11.214 4.067,11.218 ZM6.406,9.361 C6.094,9.371 5.782,9.372 5.471,9.363 C5.278,9.357 5.198,9.426 5.204,9.624 C5.213,9.985 5.207,10.347 5.206,10.709 C5.204,12.208 5.202,13.706 5.200,15.204 C5.199,15.613 5.176,15.636 4.778,15.638 C4.630,15.639 4.481,15.638 4.235,15.638 C4.360,15.926 4.472,16.128 4.535,16.343 C4.658,16.763 4.899,16.906 5.349,16.880 C6.158,16.833 6.635,16.446 6.642,15.646 C6.660,13.636 6.646,11.624 6.649,9.613 C6.649,9.437 6.593,9.356 6.406,9.361 ZM9.280,14.519 C9.239,14.242 9.183,13.967 9.159,13.689 C9.094,12.949 9.047,12.208 8.979,11.469 C8.971,11.385 8.880,11.241 8.822,11.238 C8.405,11.218 7.987,11.228 7.552,11.228 C7.552,11.374 7.545,11.482 7.553,11.589 C7.609,12.359 7.667,13.129 7.728,13.899 C7.783,14.598 7.951,15.265 8.303,15.876 C8.370,15.992 8.463,16.093 8.582,16.253 C8.836,15.685 9.065,15.175 9.288,14.663 C9.305,14.623 9.287,14.567 9.280,14.519 ZM9.677,16.878 C10.229,16.896 10.782,16.890 11.334,16.882 C11.410,16.881 11.524,16.830 11.554,16.769 C11.756,16.357 11.940,15.936 12.162,15.445 C11.968,15.445 11.850,15.448 11.733,15.445 C11.222,15.430 10.706,15.447 10.201,15.383 C9.953,15.352 9.860,15.408 9.778,15.617 C9.669,15.897 9.538,16.168 9.412,16.442 C9.258,16.781 9.296,16.865 9.677,16.878 ZM11.632,10.909 C11.774,10.576 11.923,10.247 12.069,9.916 C12.151,9.729 12.234,9.541 12.342,9.298 C11.852,9.298 11.433,9.291 11.013,9.304 C10.943,9.307 10.842,9.380 10.812,9.446 C10.450,10.241 10.085,11.035 9.749,11.841 C9.573,12.261 9.775,12.547 10.235,12.586 C10.401,12.599 10.569,12.588 10.787,12.588 C10.727,12.748 10.691,12.859 10.645,12.966 C10.477,13.353 10.296,13.734 10.139,14.126 C9.945,14.607 10.148,14.919 10.669,14.937 C11.110,14.952 11.553,14.945 11.995,14.940 C12.068,14.939 12.182,14.914 12.207,14.865 C12.383,14.511 12.541,14.148 12.734,13.723 C12.387,13.723 12.123,13.723 11.768,13.723 C12.153,12.857 12.500,12.076 12.876,11.227 C12.481,11.227 12.163,11.230 11.845,11.226 C11.550,11.221 11.518,11.174 11.632,10.909 ZM16.223,11.259 C16.420,11.252 16.493,11.178 16.489,10.988 C16.482,10.666 16.484,10.344 16.488,10.023 C16.491,9.855 16.419,9.794 16.252,9.794 C15.327,9.799 14.401,9.800 13.476,9.794 C13.289,9.793 13.227,9.869 13.234,10.046 C13.243,10.267 13.235,10.489 13.235,10.710 C13.237,11.318 13.189,11.264 13.762,11.246 C14.047,11.237 14.120,11.337 14.117,11.607 C14.108,12.804 14.117,14.001 14.117,15.197 C14.117,15.264 14.096,15.331 14.081,15.419 C13.746,15.419 13.425,15.411 13.105,15.425 C13.007,15.429 12.860,15.470 12.825,15.539 C12.616,15.948 12.434,16.369 12.232,16.811 C12.325,16.842 12.353,16.860 12.380,16.860 C13.829,16.864 15.277,16.865 16.726,16.871 C16.899,16.871 16.952,16.790 16.949,16.629 C16.942,16.328 16.934,16.025 16.952,15.724 C16.966,15.485 16.879,15.403 16.643,15.414 C16.306,15.429 15.967,15.417 15.602,15.417 C15.602,15.259 15.602,15.150 15.602,15.042 C15.601,13.996 15.601,12.950 15.601,11.904 C15.601,11.287 15.602,11.280 16.223,11.259 ZM22.927,9.798 C22.548,9.780 22.221,10.070 22.177,10.469 C22.165,10.578 22.171,10.689 22.171,10.799 C22.171,11.264 22.172,11.264 22.647,11.260 C22.747,11.260 22.848,11.268 22.947,11.258 C23.332,11.220 23.634,10.880 23.621,10.505 C23.608,10.143 23.285,9.815 22.927,9.798 ZM22.191,12.443 C22.112,12.430 21.999,12.310 21.992,12.231 C21.965,11.941 21.988,11.648 21.971,11.357 C21.918,10.492 21.434,9.964 20.577,9.844 C20.290,9.804 19.998,9.807 19.675,9.789 C19.667,9.716 19.653,9.666 19.658,9.619 C19.689,9.373 19.591,9.275 19.337,9.293 C19.067,9.312 18.794,9.307 18.523,9.294 C18.303,9.284 18.171,9.340 18.199,9.591 C18.215,9.738 18.155,9.807 17.995,9.815 C17.762,9.826 17.434,9.784 17.325,9.914 C17.203,10.059 17.275,10.372 17.273,10.612 C17.270,11.253 17.272,11.253 17.923,11.274 C17.943,11.275 17.971,11.266 17.982,11.276 C18.057,11.344 18.183,11.410 18.191,11.488 C18.218,11.736 18.218,11.991 18.192,12.239 C18.183,12.316 18.061,12.434 17.983,12.440 C17.673,12.463 17.361,12.455 17.049,12.447 C16.867,12.443 16.796,12.516 16.800,12.697 C16.807,13.018 16.808,13.340 16.800,13.662 C16.795,13.842 16.867,13.919 17.047,13.915 C17.308,13.910 17.571,13.932 17.831,13.910 C18.115,13.885 18.216,13.972 18.208,14.272 C18.187,15.046 18.207,15.820 18.198,16.594 C18.196,16.815 18.271,16.902 18.495,16.891 C18.786,16.877 19.079,16.876 19.370,16.891 C19.602,16.903 19.661,16.804 19.657,16.589 C19.647,15.966 19.653,15.342 19.653,14.719 C19.653,14.462 19.653,14.204 19.653,13.912 C19.996,13.912 20.296,13.911 20.595,13.912 C20.987,13.914 21.380,13.902 21.771,13.924 C22.028,13.939 22.162,14.110 22.165,14.371 C22.167,14.652 22.168,14.934 22.166,15.215 C22.165,15.586 22.105,15.643 21.722,15.645 C21.426,15.646 21.129,15.645 20.808,15.645 C20.830,15.760 20.834,15.819 20.852,15.874 C21.204,16.892 21.317,16.965 22.395,16.880 C23.136,16.821 23.611,16.318 23.620,15.572 C23.626,15.079 23.621,14.587 23.621,14.094 C23.620,13.039 23.240,12.607 22.191,12.443 ZM19.755,11.764 C19.755,11.381 19.755,11.015 19.755,10.610 C19.989,10.610 20.210,10.586 20.421,10.622 C20.511,10.637 20.590,10.773 20.653,10.868 C20.681,10.909 20.660,10.985 20.660,11.045 C20.664,11.896 20.660,11.899 19.755,11.764 Z"/>
</svg>