<svg 
 xmlns="http://www.w3.org/2000/svg"
 xmlns:xlink="http://www.w3.org/1999/xlink"
 width="26px" height="26px">
<path fill-rule="evenodd"
 d="M13.000,25.1000 C5.820,25.1000 0.000,20.180 0.000,13.000 C0.000,5.820 5.820,0.000 13.000,0.000 C20.180,0.000 25.1000,5.820 25.1000,13.000 C25.1000,20.180 20.180,25.1000 13.000,25.1000 ZM19.557,9.706 C19.400,9.117 18.936,8.653 18.347,8.495 C17.280,8.209 12.1000,8.209 12.1000,8.209 C12.1000,8.209 8.720,8.209 7.652,8.495 C7.064,8.653 6.600,9.117 6.442,9.706 C6.156,10.773 6.156,12.1000 6.156,12.1000 C6.156,12.1000 6.156,15.227 6.442,16.294 C6.600,16.883 7.064,17.347 7.652,17.504 C8.720,17.790 12.1000,17.790 12.1000,17.790 C12.1000,17.790 17.280,17.790 18.347,17.504 C18.936,17.347 19.400,16.883 19.557,16.294 C19.843,15.227 19.843,12.1000 19.843,12.1000 C19.843,12.1000 19.843,10.773 19.557,9.706 ZM11.631,10.947 L15.187,13.000 L11.631,15.053 L11.631,10.947 Z"/>
</svg>