<svg 
 xmlns="http://www.w3.org/2000/svg"
 xmlns:xlink="http://www.w3.org/1999/xlink"
 width="109.5px" height="69.5px">
<path fill-rule="evenodd"  stroke="rgb(36, 149, 252)" stroke-width="1px" stroke-linecap="butt" stroke-linejoin="miter" fill-opacity="0" fill="rgb(36, 149, 252)"
 d="M96.662,60.104 L96.662,4.278 C96.662,2.189 95.100,0.500 93.170,0.500 L15.447,0.500 C13.517,0.500 11.954,2.189 11.954,4.278 L11.954,60.104 L0.500,60.104 L0.500,64.723 C0.500,66.811 2.065,68.500 3.992,68.500 L105.005,68.500 C106.935,68.500 108.500,66.811 108.500,64.723 L108.500,60.104 L96.662,60.104 ZM71.654,62.690 L37.346,62.690 L37.346,60.239 L71.654,60.239 L71.654,62.690 ZM89.476,59.515 L19.142,59.515 L19.142,8.288 L89.476,8.288 L89.476,59.515 Z"/>
</svg>