<svg 
 xmlns="http://www.w3.org/2000/svg"
 xmlns:xlink="http://www.w3.org/1999/xlink"
 width="91.5px" height="80.5px" viewBox='0 0 91.5 80.5'>
<path fill-rule="evenodd"  stroke="rgb(85, 208, 174)" stroke-width="1px" stroke-linecap="butt" stroke-linejoin="miter" fill-opacity="0" fill="rgb(36, 149, 252)"
 d="M90.500,41.500 L86.500,41.500 L86.500,45.500 L84.500,45.500 L84.500,41.500 L80.500,41.500 L80.500,39.500 L84.500,39.500 L84.500,35.500 L86.500,35.500 L86.500,39.500 L90.500,39.500 L90.500,41.500 ZM65.445,79.498 L36.554,79.498 C34.158,79.503 31.857,78.554 30.159,76.860 C28.461,75.166 27.504,72.867 27.500,70.468 L27.500,9.559 C27.515,4.560 31.561,0.514 36.554,0.501 L65.445,0.501 C67.842,0.497 70.143,1.446 71.841,3.140 C73.539,4.833 74.496,7.133 74.500,9.532 L74.500,70.441 C74.485,75.439 70.439,79.487 65.445,79.498 ZM49.259,75.778 C49.739,76.246 50.387,76.504 51.058,76.495 C52.431,76.461 53.519,75.329 53.496,73.959 C53.473,72.590 52.348,71.495 50.975,71.506 C49.602,71.518 48.495,72.632 48.495,74.001 C48.503,74.671 48.778,75.310 49.259,75.778 ZM69.636,5.597 L32.504,5.597 L32.504,68.293 L69.636,68.293 L69.636,5.597 ZM15.500,13.500 L13.500,13.500 L13.500,9.500 L9.500,9.500 L9.500,7.500 L13.500,7.500 L13.500,3.500 L15.500,3.500 L15.500,7.500 L19.500,7.500 L19.500,9.500 L15.500,9.500 L15.500,13.500 ZM10.500,31.500 L6.500,31.500 L6.500,35.500 L4.500,35.500 L4.500,31.500 L0.500,31.500 L0.500,29.500 L4.500,29.500 L4.500,25.500 L6.500,25.500 L6.500,29.500 L10.500,29.500 L10.500,31.500 Z"/>
</svg>