<svg 
 xmlns="http://www.w3.org/2000/svg"
 xmlns:xlink="http://www.w3.org/1999/xlink"
 width="23px" height="21px">
<path fill-rule="evenodd"
 d="M15.574,7.033 C15.838,7.033 16.099,7.055 16.358,7.085 C15.654,3.584 12.147,0.983 8.145,0.983 C3.669,0.983 0.003,4.239 0.003,8.372 C0.003,10.759 1.223,12.719 3.261,14.239 L2.447,16.854 L5.293,15.331 C6.312,15.545 7.128,15.766 8.145,15.766 C8.400,15.766 8.653,15.753 8.904,15.732 C8.745,15.151 8.653,14.541 8.653,13.911 C8.653,10.114 11.707,7.033 15.574,7.033 L15.574,7.033 ZM11.197,4.675 C11.810,4.675 12.216,5.108 12.216,5.761 C12.216,6.414 11.810,6.849 11.197,6.849 C10.587,6.849 9.975,6.414 9.975,5.761 C9.975,5.108 10.587,4.675 11.197,4.675 L11.197,4.675 ZM5.500,6.849 C4.889,6.849 4.274,6.414 4.274,5.761 C4.274,5.108 4.889,4.675 5.500,4.675 C6.110,4.675 6.516,5.108 6.516,5.761 C6.516,6.414 6.110,6.849 5.500,6.849 L5.500,6.849 ZM23.004,13.806 C23.004,10.332 19.747,7.500 16.089,7.500 C12.216,7.500 9.166,10.332 9.166,13.806 C9.166,17.286 12.216,20.112 16.089,20.112 C16.900,20.112 17.718,19.895 18.532,19.677 L20.765,20.982 L20.153,18.811 C21.787,17.501 23.004,15.766 23.004,13.806 L23.004,13.806 ZM13.844,12.719 C13.439,12.719 13.030,12.289 13.030,11.850 C13.030,11.417 13.439,10.981 13.844,10.981 C14.460,10.981 14.863,11.417 14.863,11.850 C14.863,12.289 14.460,12.719 13.844,12.719 L13.844,12.719 ZM18.322,12.719 C17.920,12.719 17.514,12.289 17.514,11.850 C17.514,11.417 17.920,10.981 18.322,10.981 C18.933,10.981 19.341,11.417 19.341,11.850 C19.341,12.289 18.933,12.719 18.322,12.719 L18.322,12.719 Z"/>
</svg>