<svg 
 xmlns="http://www.w3.org/2000/svg"
 xmlns:xlink="http://www.w3.org/1999/xlink"
 width="20px" height="21px">
<path fill-rule="evenodd"
 d="M0.679,12.091 C-0.102,13.934 -0.229,15.693 0.398,16.021 C0.831,16.248 1.509,15.732 2.144,14.786 C2.396,15.817 3.018,16.750 3.906,17.499 C2.974,17.844 2.366,18.407 2.366,19.045 C2.366,20.095 4.013,20.943 6.046,20.943 C7.881,20.943 9.400,20.254 9.680,19.347 C9.755,19.346 10.045,19.346 10.118,19.347 C10.399,20.252 11.920,20.943 13.752,20.943 C15.786,20.943 17.433,20.093 17.433,19.045 C17.433,18.408 16.825,17.844 15.892,17.499 C16.780,16.749 17.404,15.817 17.655,14.786 C18.289,15.732 18.966,16.248 19.399,16.021 C20.027,15.693 19.903,13.933 19.119,12.091 C18.505,10.642 17.672,9.575 17.035,9.340 C17.044,9.248 17.049,9.154 17.049,9.061 C17.049,8.502 16.893,7.984 16.628,7.563 C16.633,7.530 16.633,7.496 16.633,7.464 C16.633,7.206 16.571,6.965 16.467,6.756 C16.306,2.990 13.859,-0.000 9.899,-0.000 C5.938,-0.000 3.490,2.990 3.330,6.756 C3.225,6.966 3.164,7.207 3.164,7.464 C3.164,7.496 3.166,7.530 3.167,7.563 C2.904,7.984 2.749,8.501 2.749,9.061 C2.749,9.154 2.753,9.247 2.761,9.340 C2.128,9.575 1.292,10.643 0.679,12.091 L0.679,12.091 Z"/>
</svg>