<svg 
 xmlns="http://www.w3.org/2000/svg"
 xmlns:xlink="http://www.w3.org/1999/xlink"
 width="18px" height="20px">
<path fill-rule="evenodd"
 d="M13.889,20.000 L13.889,12.064 C13.889,10.967 13.014,10.080 11.933,10.080 C10.853,10.080 9.978,10.967 9.978,12.064 L9.978,20.000 L6.067,20.000 L6.067,6.111 L9.978,6.111 L9.978,8.575 C10.784,7.451 12.017,6.111 13.400,6.111 C15.830,6.111 17.800,8.333 17.800,11.071 L17.800,20.000 L13.889,20.000 ZM0.200,6.111 L4.111,6.111 L4.111,20.000 L0.200,20.000 L0.200,6.111 ZM2.156,4.127 C1.075,4.127 0.200,3.239 0.200,2.143 C0.200,1.047 1.075,0.159 2.156,0.159 C3.236,0.159 4.111,1.047 4.111,2.143 C4.111,3.239 3.236,4.127 2.156,4.127 Z"/>
</svg>