<svg 
 xmlns="http://www.w3.org/2000/svg"
 xmlns:xlink="http://www.w3.org/1999/xlink"
 width="24px" height="20px">
<path fill-rule="evenodd"
 d="M22.275,7.577 C23.227,7.578 23.998,8.367 24.000,9.340 L24.000,18.134 L22.835,18.134 L22.835,19.094 C22.835,19.580 22.449,19.975 21.973,19.975 C21.498,19.975 21.112,19.580 21.112,19.094 L21.112,18.134 L3.100,18.134 L3.100,19.094 C3.100,19.408 2.935,19.699 2.669,19.856 C2.402,20.014 2.074,20.014 1.807,19.856 C1.540,19.699 1.376,19.408 1.376,19.094 L1.376,18.134 L-0.000,18.134 L-0.000,9.340 C-0.000,8.367 0.773,7.577 1.723,7.577 L2.046,7.577 L2.225,6.958 L0.862,6.958 C0.385,6.958 -0.000,6.563 -0.000,6.076 C-0.000,5.590 0.385,5.195 0.862,5.195 L2.734,5.195 L3.675,1.929 C4.079,0.805 5.254,-0.002 6.426,-0.002 L17.297,-0.002 C18.469,-0.002 19.645,0.805 20.030,1.874 L20.988,5.195 L23.138,5.195 C23.614,5.195 24.000,5.590 24.000,6.076 C24.000,6.563 23.614,6.958 23.138,6.958 L21.497,6.958 L21.675,7.577 L22.275,7.577 ZM1.723,16.370 L22.275,16.370 L22.275,12.478 L19.858,12.478 C19.141,12.476 18.499,12.022 18.245,11.336 L17.597,9.583 C17.568,9.502 17.564,9.420 17.558,9.340 L6.010,9.340 C6.004,9.420 6.001,9.502 5.971,9.583 L5.323,11.338 C5.072,12.019 4.424,12.478 3.711,12.478 L1.723,12.478 L1.723,16.370 ZM1.723,9.340 L1.723,10.717 L3.711,10.717 L4.219,9.340 L1.723,9.340 ZM18.394,2.427 C18.292,2.149 17.779,1.761 17.297,1.761 L6.426,1.761 C5.944,1.761 5.431,2.149 5.310,2.484 L4.237,6.206 C4.226,6.298 4.200,6.387 4.161,6.470 L3.843,7.576 L19.878,7.576 L18.394,2.427 ZM19.350,9.339 L19.858,10.714 L22.275,10.716 L22.275,9.339 L19.350,9.339 ZM8.959,11.960 L15.040,11.960 C15.516,11.960 15.902,12.355 15.902,12.842 C15.902,13.329 15.516,13.724 15.040,13.724 L8.959,13.724 C8.483,13.724 8.097,13.329 8.097,12.842 C8.097,12.355 8.483,11.960 8.959,11.960 Z"/>
</svg>