<svg 
 xmlns="http://www.w3.org/2000/svg"
 xmlns:xlink="http://www.w3.org/1999/xlink"
 width="24px" height="24px">
<path fill-rule="evenodd"
 d="M23.375,7.812 C23.719,7.812 24.000,7.531 24.000,7.187 L24.000,3.437 C24.000,3.093 23.719,2.812 23.375,2.812 L9.812,2.812 L9.687,0.593 C9.656,0.249 9.406,-0.001 9.062,-0.001 L5.312,-0.001 C4.969,-0.001 4.719,0.249 4.687,0.593 L4.562,2.812 L0.625,2.812 C0.281,2.812 -0.000,3.093 -0.000,3.437 L-0.000,7.187 C-0.000,7.531 0.281,7.812 0.625,7.812 L4.312,7.812 L3.469,22.750 L0.625,22.750 C0.281,22.750 -0.000,23.031 -0.000,23.374 C-0.000,23.718 0.281,23.999 0.625,23.999 L13.750,23.999 C14.094,23.999 14.375,23.718 14.375,23.374 C14.375,23.031 14.094,22.750 13.750,22.750 L10.906,22.750 L10.062,7.812 L18.375,7.812 L18.375,8.749 C16.937,9.031 15.875,10.312 15.875,11.812 C15.875,12.843 16.375,13.750 17.125,14.312 L17.125,15.499 L14.625,15.499 C14.281,15.499 14.000,15.780 14.000,16.124 L14.000,19.249 C14.000,19.593 14.281,19.874 14.625,19.874 L23.375,19.874 C23.719,19.874 24.000,19.593 24.000,19.249 L24.000,16.124 C24.000,15.780 23.719,15.499 23.375,15.499 L20.875,15.499 L20.875,14.312 C21.625,13.750 22.125,12.843 22.125,11.812 C22.125,10.312 21.062,9.031 19.625,8.749 L19.625,7.812 L23.375,7.812 ZM22.750,18.624 L15.250,18.624 L15.250,16.749 L22.750,16.749 L22.750,18.624 ZM19.625,15.499 L18.375,15.499 L18.375,14.874 C18.562,14.905 18.781,14.937 19.000,14.937 C19.219,14.937 19.437,14.905 19.625,14.874 L19.625,15.499 ZM20.875,11.812 C20.875,12.843 20.031,13.687 19.000,13.687 C17.969,13.687 17.125,12.843 17.125,11.812 C17.125,10.781 17.969,9.937 19.000,9.937 C20.031,9.937 20.875,10.781 20.875,11.812 L20.875,11.812 ZM1.250,6.562 L1.250,4.062 L4.500,4.062 L4.375,6.562 L1.250,6.562 ZM4.719,22.750 L5.906,1.249 L8.469,1.249 L9.656,22.750 L4.719,22.750 ZM9.875,4.062 L22.750,4.062 L22.750,6.562 L10.000,6.562 L9.875,4.062 Z"/>
</svg>