<svg 
 xmlns="http://www.w3.org/2000/svg"
 xmlns:xlink="http://www.w3.org/1999/xlink"
 width="24px" height="24px">
<path fill-rule="evenodd"
 d="M23.729,19.564 C24.160,20.542 23.992,21.275 23.799,21.573 C23.518,22.008 22.904,22.181 22.359,22.181 L13.123,22.181 L13.747,22.720 C14.051,22.979 14.088,23.437 13.828,23.744 C13.686,23.912 13.482,23.999 13.278,23.999 C13.112,23.999 12.851,23.941 12.716,23.825 L10.369,21.808 C10.065,21.548 10.028,21.088 10.288,20.783 L12.291,18.419 C12.549,18.113 13.101,18.077 13.403,18.338 C13.706,18.599 13.743,19.058 13.483,19.363 L12.329,20.632 L22.232,20.632 C22.284,20.632 22.329,20.617 22.342,20.598 C22.366,20.560 22.396,20.495 22.263,20.181 L18.942,14.170 C18.748,13.819 18.999,13.376 19.348,13.181 C19.695,12.985 20.168,13.111 20.361,13.463 L23.716,19.533 L23.729,19.564 ZM16.297,9.788 L15.330,9.421 C14.957,9.280 14.423,9.471 14.282,9.846 C14.142,10.223 14.362,10.753 14.791,10.877 L17.870,11.683 C17.951,11.714 18.036,11.730 18.123,11.730 C18.415,11.730 18.784,11.518 18.893,11.226 L19.977,8.317 C20.118,7.941 19.999,7.384 19.617,7.266 C19.138,7.115 18.703,7.367 18.561,7.742 L18.001,9.248 L13.359,0.847 C13.084,0.308 12.645,-0.001 12.147,-0.001 L12.145,-0.001 C11.622,-0.001 11.156,0.333 10.862,0.916 L8.120,5.823 C7.925,6.174 7.989,6.705 8.332,6.909 C8.758,7.164 9.408,7.105 9.604,6.755 L12.097,2.091 L16.297,9.788 ZM7.783,9.128 L7.751,9.064 C7.697,8.871 7.569,8.718 7.408,8.627 C7.247,8.537 7.020,8.572 6.827,8.627 L3.671,9.603 C3.287,9.713 2.957,10.220 3.065,10.605 C3.156,10.925 3.553,11.094 3.868,11.094 C3.933,11.094 4.000,11.086 4.066,11.067 L5.385,10.671 L0.144,19.793 L0.120,19.879 C-0.059,20.525 -0.124,21.233 0.211,21.680 C0.518,22.089 1.218,22.214 1.759,22.214 L7.193,22.214 C7.592,22.214 8.136,21.855 8.136,21.453 C8.136,21.053 7.813,20.475 7.414,20.475 L2.043,20.475 C2.003,20.475 1.905,20.468 1.860,20.408 C1.823,20.358 1.801,20.243 1.839,20.064 L6.708,11.402 L6.986,12.610 C7.077,12.930 7.366,13.137 7.680,13.137 C7.747,13.137 7.812,13.158 7.878,13.142 C8.263,13.031 8.517,12.565 8.407,12.178 L7.783,9.128 Z"/>
</svg>