<svg 
 xmlns="http://www.w3.org/2000/svg"
 xmlns:xlink="http://www.w3.org/1999/xlink"
 width="25px" height="22px">
<path fill-rule="evenodd" 
 d="M24.200,19.020 L21.942,19.020 C21.548,20.750 19.989,21.999 18.208,21.999 C16.427,21.999 14.868,20.750 14.474,19.020 L10.526,19.020 C10.132,20.750 8.574,21.999 6.793,21.999 C5.011,21.999 3.452,20.750 3.058,19.020 L0.801,19.020 C0.407,19.020 0.001,18.719 0.001,18.212 C0.001,17.817 0.300,17.405 0.801,17.405 L2.969,17.405 C3.363,15.675 4.922,14.428 6.701,14.428 C8.484,14.428 10.043,15.675 10.437,17.405 L14.385,17.405 C14.779,15.675 16.337,14.428 18.118,14.428 C19.900,14.428 21.460,15.675 21.854,17.405 L23.313,17.405 L23.313,11.339 L15.451,11.339 C15.057,11.339 14.653,11.037 14.653,10.532 L14.653,1.612 L4.558,1.612 C4.056,1.612 3.757,1.202 3.757,0.806 C3.757,0.410 4.056,-0.001 4.558,-0.001 L15.540,-0.001 C15.933,-0.001 16.341,0.301 16.341,0.806 L16.341,3.790 L19.387,3.790 C19.571,3.790 19.779,3.790 19.983,3.996 L24.910,9.424 L24.910,9.451 C24.910,9.476 24.928,9.510 24.946,9.547 C24.972,9.596 25.000,9.654 25.000,9.721 L25.000,18.212 C25.000,18.606 24.700,19.020 24.200,19.020 ZM6.793,16.131 C5.585,16.131 4.640,17.085 4.640,18.302 C4.640,19.521 5.585,20.475 6.793,20.475 C7.998,20.475 8.943,19.521 8.943,18.302 C8.943,17.085 7.998,16.131 6.793,16.131 ZM18.208,16.131 C17.002,16.131 16.056,17.085 16.056,18.302 C16.056,19.521 17.002,20.475 18.208,20.475 C19.414,20.475 20.360,19.521 20.360,18.302 C20.360,17.085 19.414,16.131 18.208,16.131 ZM18.986,5.404 L16.341,5.404 L16.341,9.726 L23.143,9.726 L18.986,5.404 ZM0.821,8.819 L11.264,8.817 C11.658,8.817 12.065,9.118 12.065,9.623 C12.065,10.019 11.765,10.430 11.264,10.430 L0.799,10.430 C0.372,10.430 -0.000,10.011 -0.000,9.532 C-0.000,9.156 0.335,8.802 0.686,8.802 C0.730,8.802 0.776,8.809 0.821,8.819 ZM12.065,6.109 C12.065,6.505 11.765,6.916 11.264,6.916 L0.799,6.916 C0.372,6.916 -0.000,6.497 -0.000,6.020 C-0.000,5.644 0.335,5.288 0.688,5.288 C0.733,5.288 0.776,5.295 0.821,5.305 L11.264,5.303 C11.658,5.303 12.065,5.604 12.065,6.109 Z"/>
</svg>