<?xml version="1.0" standalone="no"?><!DOCTYPE svg PUBLIC "-//W3C//DTD SVG 1.1//EN" "http://www.w3.org/Graphics/SVG/1.1/DTD/svg11.dtd"><svg t="1694073013411" class="icon" viewBox="0 0 1024 1024" version="1.1" xmlns="http://www.w3.org/2000/svg" p-id="13168" xmlns:xlink="http://www.w3.org/1999/xlink" width="200" height="200"><path d="M936.598448 283.049379c-0.292557-12.970049-0.04876-25.891339-0.146279-38.861388a265.34965 265.34965 0 0 1-50.612447-5.509833 247.064806 247.064806 0 0 1-79.868197-32.66892c-1.560307-1.755345-3.120613-3.656969-5.168516-4.875959-33.400314-20.283986-59.486691-51.148802-77.430217-85.573068a268.519023 268.519023 0 0 1-25.208705-70.701395h-0.975191a234.679872 234.679872 0 0 1-3.803248-44.517499c-58.41398 0-116.779201 0.04876-175.144421-0.04876-0.292557 84.744155 0.292557 169.53707-0.390077 254.232466v443.809723a147.351459 147.351459 0 0 1-68.848531 122.72787c-42.908433 27.549164-101.078615 30.230941-145.693634 5.168516a179.727822 179.727822 0 0 1-44.176182-36.520928 139.744965 139.744965 0 0 1-33.400314-75.577353 150.228275 150.228275 0 0 1 14.969192-83.866483c7.752774-15.16423 18.626161-28.621875 31.644969-39.544021 21.210419-17.943526 47.296795-29.499548 74.260845-35.740775 22.575687-5.461073 46.955478-5.607352 68.99481 2.145422V469.603543c-0.243798-17.065854 0.585115-34.131708-0.390077-51.197562-0.585115-13.652683-0.097519-27.402886-0.243798-41.055569a318.887672 318.887672 0 0 0-211.957907 44.468739A324.251226 324.251226 0 0 0 96.568354 528.943955a320.35046 320.35046 0 0 0-46.8092 158.029808 320.691777 320.691777 0 0 0 44.46874 173.291558A319.862864 319.862864 0 0 0 185.310795 959.198514l2.389219 1.999143a314.743107 314.743107 0 0 0 115.950288 50.466169 368.573687 368.573687 0 0 0 89.815152 7.216418 293.825246 293.825246 0 0 0 165.928861-56.561116 332.199038 332.199038 0 0 0 90.546545-101.71249 349.118613 349.118613 0 0 0 46.8092-149.984477c1.072711-14.384077 0.438836-28.768154 0.390076-43.152231a38421.234798 38421.234798 0 0 1-1.023951-324.251226 412.457312 412.457312 0 0 0 240.677301 75.869911c-0.04876-45.346412 0.292557-90.692824-0.146279-136.039236z" p-id="13169"></path></svg>