<svg 
 xmlns="http://www.w3.org/2000/svg"
 xmlns:xlink="http://www.w3.org/1999/xlink"
 width="24px" height="22px">
<path fill-rule="evenodd"  fill="rgb(255, 255, 255)"
 d="M23.160,18.493 L0.840,18.493 C0.376,18.493 -0.000,18.103 -0.000,17.621 L-0.000,0.872 C-0.000,0.391 0.376,0.000 0.840,0.000 L23.160,0.000 C23.624,0.000 24.000,0.391 24.000,0.872 L24.000,17.621 C24.000,18.103 23.624,18.493 23.160,18.493 ZM22.319,1.745 L1.681,1.745 L1.681,16.749 L22.319,16.749 L22.319,1.745 ZM6.118,9.491 L6.538,9.491 L6.538,4.990 C6.538,4.749 6.726,4.554 6.958,4.554 C7.190,4.554 7.378,4.749 7.378,4.990 L7.378,9.491 L7.798,9.491 C8.030,9.491 8.218,9.686 8.218,9.927 C8.218,10.168 8.030,10.363 7.798,10.363 L6.118,10.363 C5.885,10.363 5.697,10.168 5.697,9.927 C5.697,9.686 5.885,9.491 6.118,9.491 ZM6.958,11.253 C7.190,11.253 7.378,11.448 7.378,11.689 L7.378,13.434 C7.378,13.675 7.190,13.870 6.958,13.870 C6.726,13.870 6.538,13.675 6.538,13.434 L6.538,11.689 C6.538,11.448 6.726,11.253 6.958,11.253 ZM11.160,7.868 L11.580,7.868 L11.580,4.990 C11.580,4.749 11.768,4.554 12.000,4.554 C12.232,4.554 12.420,4.749 12.420,4.990 L12.420,7.868 L12.840,7.868 C13.072,7.868 13.260,8.064 13.260,8.304 C13.260,8.545 13.072,8.741 12.840,8.741 L11.160,8.741 C10.928,8.741 10.739,8.545 10.739,8.304 C10.739,8.064 10.928,7.868 11.160,7.868 ZM12.000,9.491 C12.232,9.491 12.420,9.686 12.420,9.927 L12.420,13.416 C12.420,13.657 12.232,13.852 12.000,13.852 C11.768,13.852 11.580,13.657 11.580,13.416 L11.580,9.927 C11.580,9.686 11.768,9.491 12.000,9.491 ZM16.202,8.479 L16.655,8.479 L16.655,4.990 C16.655,4.749 16.843,4.554 17.076,4.554 C17.308,4.554 17.496,4.749 17.496,4.990 L17.496,8.584 L17.882,8.584 C18.114,8.584 18.302,8.779 18.302,9.020 C18.302,9.261 18.114,9.456 17.882,9.456 L16.202,9.456 L16.202,9.351 C15.970,9.351 15.782,9.156 15.782,8.915 C15.782,8.674 15.970,8.479 16.202,8.479 ZM17.042,10.224 C17.156,10.223 17.266,10.272 17.345,10.357 C17.424,10.443 17.467,10.559 17.462,10.677 L17.462,13.451 C17.462,13.692 17.274,13.887 17.042,13.887 C16.810,13.887 16.622,13.692 16.622,13.451 L16.622,10.660 C16.622,10.419 16.810,10.224 17.042,10.224 ZM7.798,20.255 L16.202,20.255 C16.666,20.255 17.042,20.646 17.042,21.128 C17.042,21.609 16.666,22.000 16.202,22.000 L7.798,22.000 C7.334,22.000 6.958,21.609 6.958,21.128 C6.958,20.646 7.334,20.255 7.798,20.255 Z"/>
</svg>