<svg 
 xmlns="http://www.w3.org/2000/svg"
 xmlns:xlink="http://www.w3.org/1999/xlink"
 width="25px" height="25px">
<path fill-rule="evenodd"  fill="rgb(255, 255, 255)"
 d="M6.337,15.720 C6.438,15.384 6.797,14.092 6.870,13.870 C6.906,13.752 6.950,13.637 7.002,13.525 C7.050,13.425 7.050,13.425 7.162,13.267 C7.360,13.019 7.360,13.019 8.113,12.932 C8.725,13.295 8.725,13.295 8.813,13.563 C8.864,13.739 9.302,16.584 11.424,18.658 C11.797,19.023 12.969,20.390 13.403,21.115 C13.083,21.531 8.595,18.056 7.910,16.979 C7.721,17.517 7.541,17.938 7.340,18.263 C6.757,19.205 5.706,19.504 4.990,18.456 C3.914,16.888 3.730,13.154 4.164,10.051 C2.831,8.728 1.627,6.251 2.017,5.070 C1.979,5.191 1.740,4.714 1.311,4.074 L1.221,3.941 C0.722,3.206 0.613,3.040 0.443,2.728 C0.067,2.035 -0.063,1.522 0.342,0.961 C1.060,-0.041 2.323,0.356 5.008,1.816 C8.283,1.831 11.100,3.151 13.403,5.741 C15.242,7.806 15.534,8.331 16.382,11.209 C16.618,12.003 16.794,12.455 17.044,12.839 C19.392,13.688 20.949,14.544 21.902,15.429 C22.318,15.813 22.614,16.200 22.823,16.599 C22.944,16.836 23.044,17.086 23.117,17.342 C23.234,17.637 23.199,17.972 23.024,18.236 C22.850,18.500 22.558,18.658 22.246,18.658 C21.522,18.657 20.800,18.665 20.077,18.684 L20.294,18.815 C20.338,18.845 23.862,23.355 24.094,24.406 C20.862,21.788 17.885,19.524 16.860,18.910 C15.835,18.293 16.315,17.518 17.012,17.223 C17.745,16.911 18.879,16.790 20.571,16.754 L20.598,16.754 C19.917,16.068 18.687,15.443 16.153,14.549 C15.984,14.490 15.836,14.383 15.724,14.240 C15.200,13.571 14.927,12.918 14.584,11.763 C13.809,9.133 13.618,8.833 12.013,7.028 C10.011,4.776 7.621,3.690 4.788,3.732 C4.628,3.735 4.470,3.695 4.329,3.618 C3.806,3.328 3.274,3.057 2.733,2.804 L2.860,2.991 C3.774,4.350 4.055,4.910 3.800,5.682 C3.683,6.035 4.822,8.201 5.743,8.916 C6.021,9.133 6.159,9.489 6.100,9.841 C5.738,11.988 5.743,14.740 6.132,16.349 C6.199,16.161 6.265,15.950 6.337,15.720 L6.337,15.720 ZM7.002,6.826 C6.782,6.236 6.447,5.699 6.017,5.246 C6.447,4.997 6.994,5.131 7.266,5.553 C7.548,6.030 7.450,6.546 7.002,6.826 L7.002,6.826 Z"/>
</svg>