<svg 
 xmlns="http://www.w3.org/2000/svg"
 xmlns:xlink="http://www.w3.org/1999/xlink"
 width="30px" height="13px">
<path fill-rule="evenodd"  fill="rgb(255, 255, 255)"
 d="M0.980,12.960 L0.980,0.977 L4.449,0.977 C5.764,0.977 6.620,1.037 7.020,1.157 C7.633,1.336 8.147,1.727 8.560,2.329 C8.974,2.931 9.181,3.709 9.181,4.663 C9.181,5.399 9.062,6.017 8.823,6.518 C8.585,7.020 8.281,7.413 7.914,7.699 C7.547,7.986 7.173,8.175 6.793,8.268 C6.277,8.382 5.530,8.439 4.551,8.439 L3.142,8.439 L3.142,12.960 L0.980,12.960 ZM3.142,3.004 L3.142,6.404 L4.325,6.404 C5.177,6.404 5.747,6.342 6.034,6.216 C6.322,6.091 6.547,5.895 6.709,5.628 C6.872,5.361 6.954,5.050 6.954,4.696 C6.954,4.260 6.840,3.900 6.611,3.617 C6.382,3.334 6.092,3.157 5.742,3.086 C5.484,3.032 4.965,3.004 4.186,3.004 L3.142,3.004 L3.142,3.004 ZM10.963,12.960 L10.963,0.977 L13.125,0.977 L13.125,5.693 L17.360,5.693 L17.360,0.977 L19.522,0.977 L19.522,12.960 L17.360,12.960 L17.360,7.720 L13.125,7.720 L13.125,12.960 L10.963,12.960 ZM21.756,12.960 L21.756,0.977 L25.225,0.977 C26.539,0.977 27.396,1.037 27.795,1.157 C28.409,1.336 28.923,1.727 29.336,2.329 C29.750,2.931 29.957,3.709 29.957,4.663 C29.957,5.399 29.838,6.017 29.599,6.518 C29.360,7.020 29.058,7.413 28.690,7.699 C28.322,7.986 27.949,8.175 27.569,8.268 C27.053,8.382 26.306,8.439 25.328,8.439 L23.918,8.439 L23.918,12.960 L21.756,12.960 ZM23.918,3.004 L23.918,6.404 L25.101,6.404 C25.953,6.404 26.522,6.342 26.810,6.216 C27.097,6.091 27.322,5.895 27.485,5.628 C27.648,5.361 27.730,5.050 27.730,4.696 C27.730,4.260 27.615,3.900 27.387,3.617 C27.158,3.334 26.868,3.157 26.518,3.086 C26.260,3.032 25.741,3.004 24.962,3.004 L23.918,3.004 L23.918,3.004 Z"/>
</svg>