<svg 
 xmlns="http://www.w3.org/2000/svg"
 xmlns:xlink="http://www.w3.org/1999/xlink"
 width="22px" height="21px">
<path fill-rule="evenodd"  fill="rgb(255, 255, 255)"
 d="M20.308,6.887 C19.841,6.887 19.462,6.498 19.462,6.017 L19.462,1.895 L1.692,1.895 L1.692,15.809 L7.192,15.809 C7.660,15.809 8.038,16.198 8.038,16.678 C8.038,17.158 7.660,17.548 7.192,17.548 L1.692,17.548 C0.758,17.548 -0.000,16.769 -0.000,15.809 L-0.000,1.895 C-0.000,0.935 0.758,0.156 1.692,0.156 L19.462,0.156 C20.396,0.156 21.154,0.935 21.154,1.895 L21.154,6.017 C21.154,6.498 20.775,6.887 20.308,6.887 ZM5.077,18.417 L9.308,18.417 C9.775,18.417 10.154,18.807 10.154,19.287 C10.154,19.767 9.775,20.157 9.308,20.157 L5.077,20.157 C4.610,20.157 4.231,19.767 4.231,19.287 C4.231,18.807 4.610,18.417 5.077,18.417 ZM15.231,6.243 C18.969,6.243 22.000,9.358 22.000,13.200 C22.000,17.042 18.969,20.157 15.231,20.157 C11.492,20.157 8.462,17.042 8.462,13.200 C8.462,9.358 11.492,6.243 15.231,6.243 ZM15.231,18.417 C18.035,18.417 20.308,16.081 20.308,13.200 C20.308,10.318 18.035,7.982 15.231,7.982 C12.427,7.982 10.154,10.318 10.154,13.200 C10.154,16.081 12.427,18.417 15.231,18.417 ZM15.231,9.722 C15.698,9.722 16.077,10.111 16.077,10.591 L16.077,12.843 L17.524,14.322 C17.684,14.485 17.774,14.707 17.774,14.939 C17.774,15.171 17.684,15.393 17.524,15.556 C17.364,15.719 17.148,15.810 16.923,15.809 C16.698,15.810 16.482,15.719 16.322,15.556 L14.630,13.817 C14.472,13.653 14.383,13.431 14.385,13.200 L14.385,10.591 C14.385,10.111 14.763,9.722 15.231,9.722 Z"/>
</svg>