<svg 
 xmlns="http://www.w3.org/2000/svg"
 xmlns:xlink="http://www.w3.org/1999/xlink"
 width="24px" height="22px">
<path fill-rule="evenodd"  fill="rgb(255, 255, 255)"
 d="M23.405,15.869 L19.735,15.869 C19.378,15.869 19.140,15.426 19.140,15.076 C19.140,14.726 19.378,14.282 19.735,14.282 L22.373,14.282 L22.373,2.056 L1.626,2.056 L1.626,14.282 L4.264,14.282 C4.621,14.282 4.859,14.726 4.859,15.076 C4.859,15.426 4.621,15.869 4.264,15.869 L0.595,15.869 C0.238,15.869 -0.000,15.636 -0.000,15.286 L-0.000,1.052 C-0.000,0.703 0.238,0.469 0.595,0.469 L23.405,0.469 C23.762,0.469 24.000,0.703 24.000,1.052 L24.000,15.286 C24.000,15.636 23.762,15.869 23.405,15.869 ZM10.841,5.528 L10.841,4.847 C10.841,4.094 11.204,3.717 11.931,3.717 C12.659,3.717 13.022,4.094 13.022,4.848 L13.022,5.528 C13.022,6.282 12.658,6.658 11.931,6.658 C11.204,6.658 10.841,6.281 10.841,5.528 ZM11.932,10.017 C11.329,10.017 10.841,9.511 10.841,8.887 C10.841,8.263 11.329,7.757 11.932,7.757 C12.534,7.757 13.023,8.263 13.023,8.887 C13.023,9.511 12.534,10.017 11.932,10.017 ZM11.524,12.369 C11.643,12.194 11.821,12.136 12.000,12.136 C12.178,12.136 12.357,12.194 12.476,12.311 L19.616,20.477 C19.676,20.594 19.735,20.769 19.735,20.886 C19.735,21.236 19.497,21.469 19.140,21.469 L4.859,21.469 C4.502,21.469 4.264,21.236 4.264,20.886 C4.264,20.769 4.324,20.594 4.383,20.536 L11.524,12.369 ZM17.068,19.987 L12.000,14.119 L6.932,19.987 L17.068,19.987 Z"/>
</svg>