<svg 
 xmlns="http://www.w3.org/2000/svg"
 xmlns:xlink="http://www.w3.org/1999/xlink"
 width="31px" height="24px">
<path fill-rule="evenodd"  fill=""
 d="M30.999,22.212 C30.999,22.530 30.933,22.831 30.903,23.142 L29.10,23.142 C29.46,22.833 29.107,22.530 29.107,22.212 C29.103,17.672 25.401,13.967 20.775,13.874 C20.209,13.368 19.601,12.907 18.958,12.496 C19.60,12.264 19.115,12.12 19.195,11.770 C19.640,11.905 20.101,11.999 20.591,11.999 C23.204,11.999 25.322,9.920 25.322,7.356 C25.322,4.792 23.204,2.712 20.591,2.712 C19.485,2.717 18.416,3.105 17.573,3.806 C17.163,3.331 16.701,2.903 16.193,2.529 C17.398,1.456 18.965,0.860 20.591,0.855 C23.491,0.859 26.51,2.712 26.910,5.429 C27.770,8.146 26.728,11.97 24.340,12.710 C28.347,14.223 30.994,17.999 30.999,22.212 L30.999,22.212 ZM14.878,14.567 C18.555,15.966 21.106,19.288 21.464,23.142 L19.549,23.142 C19.73,18.968 15.508,15.713 11.130,15.713 C6.751,15.713 3.185,18.968 2.708,23.142 L0.795,23.142 C1.152,19.288 3.704,15.965 7.381,14.567 C4.988,12.955 3.944,10.2 4.804,7.283 C5.664,4.562 8.228,2.709 11.130,2.709 C14.31,2.709 16.596,4.562 17.455,7.283 C18.315,10.2 17.271,12.955 14.878,14.567 L14.878,14.567 ZM11.130,4.570 C8.517,4.570 6.399,6.649 6.399,9.213 C6.399,11.777 8.517,13.856 11.130,13.856 C13.742,13.856 15.860,11.777 15.860,9.213 C15.860,6.649 13.742,4.570 11.130,4.570 L11.130,4.570 Z"/>
</svg>