<svg 
 xmlns="http://www.w3.org/2000/svg"
 xmlns:xlink="http://www.w3.org/1999/xlink"
 width="24px" height="22px">
<path fill-rule="evenodd"
 d="M22.076,14.825 C23.102,14.829 23.946,15.652 23.997,16.700 L24.000,16.808 L24.000,20.015 C24.004,21.064 23.206,21.934 22.181,21.997 L22.077,21.999 L12.714,21.999 C11.689,21.995 12.846,21.171 12.794,20.124 L12.791,20.015 L12.791,16.808 C12.787,15.759 13.585,14.890 14.609,14.828 L14.714,14.825 L22.076,14.825 ZM8.625,16.413 C9.621,16.413 10.423,17.249 10.476,18.289 L10.478,18.398 L10.478,20.015 C10.478,21.067 9.709,21.939 8.727,21.997 L8.625,21.999 L4.268,21.999 C3.271,21.999 2.469,21.163 2.417,20.123 L2.414,20.015 L2.414,18.398 C2.414,17.344 3.183,16.474 4.166,16.417 L4.268,16.413 L8.625,16.413 ZM8.624,17.556 L4.268,17.556 C3.886,17.556 3.562,17.883 3.525,18.315 L3.522,18.398 L3.522,20.015 C3.522,20.458 3.824,20.812 4.197,20.852 L4.268,20.856 L8.624,20.856 C9.005,20.856 9.330,20.528 9.366,20.097 L9.370,20.015 L9.370,18.398 C9.370,17.953 9.069,17.600 8.695,17.560 L8.624,17.556 ZM22.076,15.968 L14.714,15.968 C14.290,15.968 11.942,16.300 11.902,16.727 L13.899,16.808 L13.899,20.015 C13.899,20.452 14.223,20.812 14.635,20.852 L14.714,20.856 L22.076,20.856 C22.499,20.856 22.848,20.522 22.887,20.097 L22.892,20.015 L22.892,16.808 C22.892,16.371 22.569,16.012 22.155,15.971 L22.076,15.967 L22.076,15.968 ZM11.023,-0.001 C12.019,-0.001 12.822,0.835 12.874,1.875 L12.877,1.983 L12.877,2.052 L10.934,14.409 C10.659,15.465 10.097,16.187 9.208,16.241 L9.099,16.245 L3.739,16.245 C2.819,16.245 2.282,15.629 1.941,14.530 L1.902,14.395 L-0.000,2.051 L-0.000,1.983 C-0.000,0.932 0.770,0.060 1.751,0.003 L1.854,-0.001 L11.024,-0.001 L11.023,-0.001 ZM1.854,1.141 C1.472,1.141 1.148,1.470 1.111,1.901 L1.110,1.924 L2.971,14.100 C3.155,14.741 3.352,15.031 3.625,15.091 L3.681,15.100 L3.739,15.103 L9.099,15.103 C9.404,15.103 9.659,14.812 9.829,14.242 L9.861,14.126 L11.766,1.924 L11.766,1.901 C11.734,1.524 11.481,1.225 11.163,1.156 L1.854,1.141 ZM20.145,10.739 C21.175,10.743 22.015,11.589 22.044,12.651 C22.072,13.713 21.277,14.607 20.250,14.669 L20.144,14.672 L16.643,14.672 C15.669,14.666 14.854,13.914 14.750,12.923 L14.740,12.816 L14.737,12.706 C14.733,11.666 15.524,10.803 16.539,10.741 L16.643,10.738 L20.145,10.738 L20.145,10.739 ZM20.145,11.880 L16.643,11.880 C16.228,11.880 15.887,12.208 15.848,12.611 L15.845,12.687 L15.846,12.761 C15.872,13.161 16.176,13.484 16.566,13.525 L16.643,13.529 L20.145,13.529 C20.570,13.524 20.918,13.179 20.936,12.744 C20.958,12.310 20.645,11.933 20.222,11.885 L20.144,11.881 L20.145,11.880 Z"/>
</svg>