<svg 
 xmlns="http://www.w3.org/2000/svg"
 xmlns:xlink="http://www.w3.org/1999/xlink"
 width="24px" height="23px">
<path fill-rule="evenodd"
 d="M14.999,6.220 L9.001,6.220 C7.776,6.216 6.780,7.246 6.775,8.522 L6.775,14.727 C6.780,16.002 7.776,17.032 9.001,17.028 L14.999,17.028 C16.223,17.032 17.219,16.002 17.225,14.727 L17.225,8.522 C17.219,7.246 16.223,6.216 14.999,6.220 L14.999,6.220 ZM15.474,14.727 C15.474,14.997 15.261,15.218 14.999,15.218 L9.001,15.218 C8.739,15.219 8.526,14.999 8.525,14.727 L8.525,8.522 C8.525,8.250 8.738,8.029 9.001,8.029 L14.999,8.029 C15.262,8.029 15.474,8.250 15.474,8.522 L15.474,14.727 ZM23.125,12.317 C23.356,12.318 23.579,12.223 23.743,12.054 C23.907,11.883 23.999,11.652 24.000,11.411 C23.999,11.171 23.907,10.940 23.743,10.770 C23.578,10.601 23.356,10.506 23.125,10.507 L20.487,10.507 L20.487,8.764 L23.125,8.764 C23.356,8.765 23.578,8.670 23.742,8.501 C23.906,8.331 23.999,8.101 24.000,7.860 C23.999,7.620 23.907,7.389 23.743,7.219 C23.578,7.050 23.356,6.955 23.125,6.956 L20.487,6.956 L20.487,3.577 C20.486,3.335 20.394,3.104 20.230,2.934 C20.065,2.764 19.843,2.670 19.611,2.671 L16.309,2.671 L16.309,0.904 C16.308,0.663 16.216,0.432 16.051,0.262 C15.887,0.093 15.665,-0.002 15.434,-0.001 C15.202,-0.002 14.980,0.093 14.816,0.263 C14.652,0.433 14.560,0.663 14.559,0.904 L14.559,2.670 L12.874,2.670 L12.874,0.904 C12.874,0.663 12.781,0.433 12.617,0.263 C12.453,0.093 12.231,-0.002 12.000,-0.001 C11.769,-0.002 11.546,0.093 11.382,0.263 C11.218,0.433 11.126,0.663 11.125,0.904 L11.125,2.670 L9.440,2.670 L9.440,0.904 C9.439,0.663 9.347,0.433 9.183,0.263 C9.019,0.094 8.797,-0.001 8.566,-0.001 C8.335,-0.002 8.112,0.093 7.948,0.262 C7.784,0.432 7.691,0.663 7.690,0.904 L7.690,2.670 L6.535,2.670 C6.286,2.670 6.048,2.781 5.883,2.970 L3.738,5.448 C3.593,5.613 3.513,5.829 3.513,6.052 L3.513,6.958 L0.874,6.958 C0.643,6.957 0.421,7.052 0.257,7.221 C0.093,7.391 0.000,7.621 -0.000,7.862 C-0.000,8.363 0.391,8.768 0.874,8.768 L3.513,8.768 L3.513,10.509 L0.874,10.509 C0.643,10.508 0.421,10.604 0.257,10.773 C0.093,10.943 0.000,11.174 -0.000,11.414 C-0.000,11.915 0.391,12.320 0.874,12.320 L3.513,12.320 L3.513,14.061 L0.874,14.061 C0.643,14.060 0.421,14.155 0.257,14.325 C0.093,14.495 0.000,14.726 -0.000,14.967 C-0.000,15.467 0.391,15.871 0.874,15.871 L3.513,15.871 L3.513,19.322 C3.513,19.822 3.904,20.227 4.388,20.227 L7.690,20.227 L7.690,22.094 C7.690,22.594 8.081,22.999 8.566,22.999 C8.797,23.000 9.019,22.905 9.183,22.736 C9.347,22.566 9.440,22.336 9.441,22.094 L9.441,20.224 L11.125,20.224 L11.125,22.094 C11.125,22.594 11.516,22.999 12.000,22.999 C12.231,23.000 12.453,22.905 12.617,22.736 C12.781,22.566 12.874,22.336 12.874,22.094 L12.874,20.224 L14.559,20.224 L14.559,22.094 C14.559,22.594 14.950,22.999 15.434,22.999 C15.665,23.001 15.887,22.906 16.051,22.736 C16.216,22.566 16.308,22.336 16.309,22.094 L16.309,20.224 L17.205,20.224 C17.438,20.224 17.659,20.128 17.824,19.957 L20.229,17.470 C20.394,17.301 20.486,17.071 20.487,16.831 L20.487,15.868 L23.125,15.868 C23.356,15.869 23.578,15.774 23.742,15.605 C23.906,15.435 23.999,15.205 24.000,14.964 C23.999,14.723 23.907,14.492 23.743,14.323 C23.579,14.152 23.356,14.057 23.125,14.058 L20.487,14.058 L20.487,12.317 L23.125,12.317 ZM16.842,18.414 L5.263,18.414 L5.263,6.397 L6.925,4.481 L18.738,4.481 L18.738,16.453 L16.842,18.413 L16.842,18.414 Z"/>
</svg>