<svg 
 xmlns="http://www.w3.org/2000/svg"
 xmlns:xlink="http://www.w3.org/1999/xlink"
 width="24px" height="20px">
<path fill-rule="evenodd"
 d="M23.951,6.881 L21.785,1.421 C21.710,1.196 21.560,1.047 21.336,1.047 L12.074,-0.001 L11.925,-0.001 L2.738,1.121 C2.514,1.121 2.290,1.271 2.215,1.495 L0.049,6.881 C-0.026,7.031 -0.026,7.256 0.124,7.405 C0.198,7.555 0.422,7.629 0.572,7.629 L2.140,7.629 L2.140,18.278 C2.140,18.578 2.364,18.802 2.663,18.877 L11.925,20.000 L12.074,20.000 L21.336,18.877 C21.635,18.877 21.859,18.578 21.859,18.278 L21.859,7.704 L23.428,7.704 C23.652,7.704 23.801,7.629 23.876,7.479 C24.025,7.256 24.025,7.105 23.951,6.881 L23.951,6.881 ZM3.335,7.704 L8.191,7.704 C8.415,7.704 8.564,7.629 8.713,7.405 L11.402,2.767 L11.402,18.802 L3.335,17.905 L3.335,7.704 ZM10.879,1.271 L7.817,6.507 L1.468,6.507 L3.186,2.168 L10.879,1.271 ZM12.597,2.767 L15.286,7.405 C15.361,7.555 15.585,7.704 15.809,7.704 L20.664,7.704 L20.664,17.905 L12.597,18.877 L12.597,2.767 ZM16.108,6.507 L13.045,1.271 L20.814,2.168 L22.531,6.507 L16.108,6.507 Z"/>
</svg>