<svg 
 xmlns="http://www.w3.org/2000/svg"
 xmlns:xlink="http://www.w3.org/1999/xlink"
 width="24px" height="25px">
<path fill-rule="evenodd"
 d="M23.917,16.659 C23.773,17.271 23.453,17.796 22.991,18.178 C22.670,18.443 22.296,18.626 21.891,18.720 C22.306,19.446 22.545,20.299 22.545,21.211 C22.545,23.851 20.543,24.999 18.083,24.999 C16.111,24.999 14.434,23.619 13.846,21.711 C13.287,21.977 12.713,22.182 12.090,22.239 C11.976,22.250 11.862,22.255 11.749,22.255 C11.126,22.255 10.503,22.097 9.866,21.777 C9.260,23.650 7.599,24.999 5.650,24.999 C3.190,24.999 1.188,23.851 1.188,21.211 C1.188,20.272 1.442,19.396 1.879,18.656 C1.563,18.552 1.269,18.392 1.010,18.178 C0.548,17.796 0.228,17.271 0.084,16.659 C-0.160,15.618 0.136,14.407 0.917,13.250 C1.769,11.987 3.171,10.794 5.067,9.696 C4.673,8.765 4.450,7.742 4.450,6.665 C4.450,6.191 4.493,5.719 4.578,5.253 C3.639,4.654 3.015,4.593 3.015,3.383 C3.015,1.514 4.504,-0.001 6.341,-0.001 C7.184,-0.001 7.954,0.319 8.540,0.845 C9.572,0.305 10.743,-0.001 11.983,-0.001 C13.240,-0.001 14.423,0.312 15.465,0.866 C16.054,0.327 16.832,-0.001 17.687,-0.001 C19.523,-0.001 21.012,1.514 21.012,3.383 C21.012,4.616 20.364,4.696 19.395,5.287 C19.475,5.734 19.517,6.195 19.517,6.665 C19.517,7.736 19.298,8.754 18.908,9.680 C20.818,10.782 22.228,11.982 23.084,13.250 C23.865,14.407 24.161,15.618 23.917,16.659 ZM18.083,23.496 C19.729,23.496 21.067,23.022 21.067,21.211 C21.067,19.400 19.729,17.927 18.083,17.927 C16.438,17.927 15.100,19.400 15.100,21.211 C15.100,23.022 16.438,23.496 18.083,23.496 ZM5.650,23.496 C7.295,23.496 8.634,23.022 8.634,21.211 C8.634,19.400 7.295,17.927 5.650,17.927 C5.352,17.927 5.057,17.975 4.775,18.071 C4.478,18.292 4.174,18.458 3.874,18.574 C3.141,19.173 2.666,20.132 2.666,21.211 C2.666,23.022 4.004,23.496 5.650,23.496 ZM6.341,1.502 C5.322,1.502 4.492,2.346 4.492,3.383 C4.492,3.900 4.698,4.368 5.031,4.709 C5.511,3.540 6.268,2.518 7.218,1.728 C6.949,1.580 6.647,1.502 6.341,1.502 ZM15.887,2.954 C15.493,2.614 15.063,2.330 14.606,2.107 C13.798,1.712 12.907,1.502 11.984,1.502 C11.080,1.502 10.206,1.703 9.412,2.082 C8.955,2.300 8.525,2.577 8.130,2.911 C7.981,3.036 7.838,3.168 7.701,3.307 C7.140,3.878 6.703,4.541 6.403,5.263 C6.205,5.738 6.068,5.238 5.993,5.749 C5.950,6.050 5.927,6.356 5.927,6.665 C5.927,8.311 6.557,9.859 7.701,11.022 C8.845,12.186 10.366,12.828 11.984,12.828 C13.601,12.828 15.122,12.186 16.266,11.022 C17.410,9.859 18.040,8.311 18.040,6.665 C18.040,6.360 18.018,6.057 17.975,5.755 C17.900,5.241 17.762,5.738 17.563,5.260 C17.262,4.539 16.826,3.877 16.266,3.307 C16.145,3.184 16.018,3.066 15.887,2.954 ZM19.535,3.383 C19.535,2.346 18.706,1.502 17.687,1.502 C17.367,1.502 17.052,1.587 16.774,1.749 C17.724,2.546 18.478,3.576 18.953,4.751 C19.311,4.409 19.535,3.922 19.535,3.383 ZM21.866,14.101 C21.150,13.040 19.877,11.970 18.194,10.996 C16.836,13.007 14.563,14.331 11.983,14.331 C9.410,14.331 7.143,13.013 5.784,11.010 C4.113,11.980 2.847,13.045 2.135,14.101 C1.593,14.903 1.375,15.688 1.521,16.310 C1.657,16.889 2.104,17.263 2.688,17.288 C2.848,17.294 3.014,17.273 3.180,17.226 C3.451,17.032 3.743,16.869 4.050,16.742 C4.067,16.727 4.084,16.714 4.101,16.699 C4.690,16.174 5.182,15.333 5.524,14.269 C5.650,13.875 6.067,13.659 6.455,13.788 C6.843,13.917 7.055,14.341 6.928,14.736 C6.714,15.402 6.458,15.973 6.174,16.457 C8.383,16.736 10.103,18.753 10.111,21.195 C11.483,22.073 12.411,21.790 13.623,21.145 C13.655,18.633 15.499,16.582 17.813,16.433 C17.534,15.954 17.284,15.391 17.073,14.736 C16.946,14.341 17.158,13.917 17.546,13.788 C17.934,13.659 18.351,13.875 18.477,14.269 C18.819,15.333 19.311,16.174 19.900,16.699 C20.348,17.098 20.850,17.307 21.313,17.288 C21.897,17.263 22.344,16.889 22.480,16.310 C22.626,15.688 22.408,14.903 21.866,14.101 ZM14.850,6.696 C14.328,6.696 13.905,6.265 13.905,5.734 C13.905,5.202 14.328,4.772 14.850,4.772 C15.372,4.772 15.796,5.202 15.796,5.734 C15.796,6.265 15.372,6.696 14.850,6.696 ZM14.983,9.432 C14.983,10.549 13.721,11.391 12.044,11.402 C12.041,11.402 12.038,11.404 12.035,11.404 C12.031,11.404 12.028,11.403 12.024,11.403 C12.021,11.403 12.017,11.404 12.014,11.404 C12.010,11.404 12.008,11.402 12.004,11.402 C10.327,11.391 9.066,10.549 9.066,9.432 C9.066,9.017 9.396,8.680 9.804,8.680 C10.208,8.680 10.535,9.008 10.543,9.417 C10.563,9.457 10.662,9.572 10.915,9.686 C11.218,9.823 11.612,9.898 12.024,9.899 C12.437,9.898 12.831,9.823 13.134,9.686 C13.386,9.572 13.485,9.457 13.506,9.417 C13.514,9.008 13.841,8.680 14.244,8.680 C14.652,8.680 14.983,9.017 14.983,9.432 ZM12.035,9.041 C11.247,9.041 10.609,8.603 10.609,8.063 C10.609,7.714 10.880,7.391 11.322,7.217 C11.763,7.043 12.307,7.043 12.748,7.217 C13.190,7.391 13.462,7.714 13.462,8.063 C13.462,8.603 12.823,9.041 12.035,9.041 ZM9.177,6.696 C8.655,6.696 8.232,6.265 8.232,5.734 C8.232,5.202 8.655,4.772 9.177,4.772 C9.700,4.772 10.123,5.202 10.123,5.734 C10.123,6.265 9.700,6.696 9.177,6.696 Z"/>
</svg>