<svg 
 xmlns="http://www.w3.org/2000/svg"
 xmlns:xlink="http://www.w3.org/1999/xlink"
 width="24px" height="22px">
<path fill-rule="evenodd"
 d="M7.287,19.980 L0.021,19.980 L0.021,-0.000 L11.777,-0.000 L11.777,3.268 C11.777,3.559 11.542,3.794 11.252,3.794 C10.962,3.794 10.727,3.559 10.727,3.268 L10.727,1.045 L1.071,1.045 L1.071,18.935 L7.287,18.935 C7.474,18.935 7.646,19.034 7.739,19.197 C7.833,19.358 7.833,19.558 7.739,19.719 C7.646,19.881 7.474,19.980 7.287,19.980 L7.287,19.980 ZM11.022,7.941 L0.522,7.941 C0.234,7.941 -0.000,7.707 -0.000,7.418 C-0.000,7.130 0.234,6.895 0.522,6.895 L11.022,6.895 C11.311,6.895 11.544,7.130 11.544,7.418 C11.544,7.707 11.311,7.941 11.022,7.941 L11.022,7.941 ZM3.147,6.373 L2.097,6.373 L2.097,3.759 L3.147,3.759 L3.147,6.373 L3.147,6.373 ZM3.147,13.691 L2.097,13.691 L2.097,9.509 L3.147,9.509 L3.147,13.691 L3.147,13.691 ZM24.000,21.999 L7.018,21.999 L7.018,2.867 L24.000,2.867 L24.000,21.999 ZM8.068,20.954 L22.950,20.954 L22.950,3.913 L8.068,3.913 L8.068,20.954 ZM23.622,7.941 L7.347,7.941 L7.347,6.895 L23.623,6.895 L23.623,7.941 L23.622,7.941 ZM15.162,19.647 C12.332,19.631 10.049,17.322 10.060,14.487 C10.071,11.652 12.372,9.361 15.203,9.367 C18.033,9.372 20.325,11.672 20.325,14.507 C20.313,17.353 18.004,19.652 15.162,19.647 L15.162,19.647 ZM15.162,10.413 C12.908,10.425 11.089,12.265 11.098,14.523 C11.107,16.781 12.939,18.606 15.194,18.602 C17.449,18.597 19.275,16.765 19.275,14.507 C19.266,12.240 17.426,10.408 15.162,10.413 L15.162,10.413 ZM21.522,5.851 L19.422,5.851 L19.422,4.805 L21.522,4.805 L21.522,5.851 ZM18.897,5.851 L17.847,5.851 L17.847,4.805 L18.897,4.805 L18.897,5.851 ZM17.322,5.851 L16.273,5.851 L16.273,4.805 L17.323,4.805 L17.323,5.851 L17.322,5.851 ZM15.162,17.469 C13.531,17.460 12.215,16.130 12.222,14.496 C12.228,12.862 13.554,11.542 15.185,11.545 C16.817,11.548 18.137,12.873 18.137,14.507 C18.131,16.147 16.800,17.472 15.162,17.469 L15.162,17.469 ZM15.162,12.590 C14.107,12.596 13.255,13.457 13.259,14.514 C13.263,15.572 14.121,16.426 15.177,16.424 C16.233,16.422 17.087,15.564 17.087,14.507 C17.083,13.446 16.222,12.588 15.162,12.590 L15.162,12.590 Z"/>
</svg>