<svg 
 xmlns="http://www.w3.org/2000/svg"
 xmlns:xlink="http://www.w3.org/1999/xlink"
 width="21px" height="23px">
<path fill-rule="evenodd"  fill=""
 d="M16.961,8.432 C19.191,8.432 20.999,10.149 20.999,12.266 L20.999,20.699 C20.999,21.969 19.914,22.999 18.576,22.999 L15.346,22.999 C14.7,22.999 12.923,21.969 12.923,20.699 L12.923,16.443 L12.212,17.118 C11.310,17.974 9.863,18.20 8.903,17.222 L8.786,17.118 L8.76,16.444 L8.76,20.699 C8.76,21.917 7.76,22.923 5.795,22.995 L5.653,22.999 L2.423,22.999 C1.84,22.999 0.0,21.969 0.0,20.699 L0.0,12.266 C0.0,10.149 1.808,8.432 4.38,8.432 C6.268,8.432 8.76,10.149 8.76,12.266 L8.76,14.275 L9.928,16.34 C10.216,16.307 10.673,16.335 10.994,16.97 L11.70,16.34 L12.923,14.274 L12.923,12.266 C12.923,10.213 14.626,8.525 16.786,8.436 L16.961,8.432 ZM4.38,9.966 C2.700,9.966 1.615,10.995 1.615,12.266 L1.615,20.699 C1.615,21.122 1.976,21.466 2.423,21.466 L5.653,21.466 C6.99,21.466 6.461,21.122 6.461,20.699 L6.461,12.266 C6.461,10.995 5.376,9.966 4.38,9.966 L4.38,9.966 ZM16.961,9.966 C15.623,9.966 14.538,10.995 14.538,12.266 L14.538,20.699 C14.538,21.122 14.899,21.466 15.346,21.466 L18.576,21.466 C19.22,21.466 19.384,21.122 19.384,20.699 L19.384,12.266 C19.384,10.995 18.299,9.966 16.961,9.966 L16.961,9.966 ZM4.38,0.0 C6.268,0.0 8.76,1.716 8.76,3.833 C8.76,5.949 6.268,7.665 4.38,7.665 C1.808,7.665 0.0,5.949 0.0,3.833 C0.0,1.716 1.808,0.0 4.38,0.0 L4.38,0.0 ZM16.961,0.0 C19.191,0.0 20.999,1.716 20.999,3.833 C20.999,5.949 19.191,7.665 16.961,7.665 C14.731,7.665 12.923,5.949 12.923,3.833 C12.923,1.716 14.731,0.0 16.961,0.0 L16.961,0.0 ZM4.38,1.533 C2.700,1.533 1.615,2.562 1.615,3.833 C1.615,5.103 2.700,6.132 4.38,6.132 C5.376,6.132 6.461,5.103 6.461,3.833 C6.461,2.562 5.376,1.533 4.38,1.533 L4.38,1.533 ZM16.961,1.533 C15.623,1.533 14.538,2.562 14.538,3.833 C14.538,5.103 15.623,6.132 16.961,6.132 C18.299,6.132 19.384,5.103 19.384,3.833 C19.384,2.562 18.299,1.533 16.961,1.533 L16.961,1.533 Z"/>
</svg>