<?xml version="1.0" standalone="no"?><!DOCTYPE svg PUBLIC "-//W3C//DTD SVG 1.1//EN" "http://www.w3.org/Graphics/SVG/1.1/DTD/svg11.dtd"><svg t="1687265570026" viewBox="0 0 1024 1024" version="1.1" xmlns="http://www.w3.org/2000/svg" p-id="2765" xmlns:xlink="http://www.w3.org/1999/xlink" width="200" height="200"><path d="M578.844444 396.8h66.844445v66.844444c0 38.4 31.288889 71.111111 71.111111 71.111112 38.4 0 71.111111-31.288889 71.111111-71.111112v-66.844444H853.333333c38.4 0 71.111111-31.288889 71.111111-71.111111s-31.288889-71.111111-71.111111-71.111111h-66.844444v-66.844445c0-38.4-31.288889-71.111111-71.111111-71.111111-38.4 0-71.111111 31.288889-71.111111 71.111111v66.844445h-66.844445c-38.4 0-71.111111 31.288889-71.111111 71.111111s32.711111 71.111111 72.533333 71.111111z m0-113.777778h81.066667c8.533333 0 14.222222-5.688889 14.222222-14.222222v-81.066667c0-22.755556 18.488889-42.666667 42.666667-42.666666s42.666667 18.488889 42.666667 42.666666v81.066667c0 8.533333 5.688889 14.222222 14.222222 14.222222H853.333333c22.755556 0 42.666667 18.488889 42.666667 42.666667s-18.488889 42.666667-42.666667 42.666667h-81.066666c-8.533333 0-14.222222 5.688889-14.222223 14.222222v81.066666c0 22.755556-18.488889 42.666667-42.666666 42.666667s-42.666667-18.488889-42.666667-42.666667v-81.066666c0-8.533333-5.688889-14.222222-14.222222-14.222222h-81.066667c-22.755556 0-42.666667-18.488889-42.666666-42.666667s19.911111-42.666667 44.088888-42.666667z" fill="#000000" p-id="2766"></path><path d="M890.311111 728.177778l-128-91.022222c-24.177778-17.066667-56.888889-14.222222-76.8 7.111111L645.688889 682.666667c-11.377778 11.377778-28.444444 14.222222-42.666667 7.111111-108.088889-51.2-196.266667-140.8-248.888889-248.888889-7.111111-14.222222-4.266667-31.288889 7.111111-42.666667l39.822223-39.822222c21.333333-21.333333 24.177778-52.622222 7.111111-76.8l-91.022222-128-9.955556-11.377778c-9.955556-14.222222-25.6-24.177778-44.088889-25.6-17.066667-1.422222-35.555556 4.266667-46.933333 17.066667l-15.644445 15.644444C153.6 196.266667 128 258.844444 128 325.688889c0 49.777778 14.222222 98.133333 41.244444 139.377778l31.288889 49.777777c82.488889 128 189.155556 236.088889 317.155556 318.577778l49.777778 32.711111c41.244444 27.022222 88.177778 41.244444 137.955555 41.244445 66.844444 0 130.844444-25.6 179.2-73.955556l14.222222-14.222222c12.8-12.8 18.488889-29.866667 17.066667-46.933333-1.422222-18.488889-11.377778-34.133333-25.6-44.088889z m-12.8 71.111111l-14.222222 14.222222c-42.666667 42.666667-98.133333 65.422222-157.866667 65.422222-44.088889 0-85.333333-12.8-122.311111-36.977777l-49.777778-32.711112c-123.733333-81.066667-227.555556-184.888889-308.622222-310.044444l-31.288889-49.777778C169.244444 412.444444 156.444444 369.777778 156.444444 325.688889c0-58.311111 22.755556-113.777778 64-155.022222l15.644445-15.644445c7.111111-7.111111 15.644444-9.955556 25.6-8.533333 9.955556 1.422222 17.066667 5.688889 24.177778 14.222222l8.533333 11.377778 91.022222 128c8.533333 12.8 7.111111 29.866667-2.844444 41.244444L341.333333 378.311111c-19.911111 19.911111-25.6 49.777778-12.8 75.377778 54.044444 113.777778 147.911111 207.644444 261.688889 261.688889 25.6 11.377778 55.466667 7.111111 75.377778-12.8l39.822222-39.822222c11.377778-11.377778 28.444444-12.8 41.244445-2.844445l128 91.022222c7.111111 5.688889 12.8 14.222222 12.8 22.755556 0 9.955556-2.844444 18.488889-9.955556 25.6z" fill="#000000" p-id="2767"></path></svg>