<?xml version="1.0" standalone="no"?><!DOCTYPE svg PUBLIC "-//W3C//DTD SVG 1.1//EN" "http://www.w3.org/Graphics/SVG/1.1/DTD/svg11.dtd"><svg t="1687265587987" viewBox="0 0 1024 1024" version="1.1" xmlns="http://www.w3.org/2000/svg" p-id="3351" xmlns:xlink="http://www.w3.org/1999/xlink" width="200" height="200"><path d="M706.844444 243.2c-27.022222-1.422222-49.777778 21.333333-49.777777 49.777778 0 12.8 4.266667 25.6 14.222222 35.555555s21.333333 14.222222 35.555555 14.222223c12.8 0 25.6-5.688889 34.133334-14.222223 9.955556-9.955556 14.222222-21.333333 15.644444-35.555555-1.422222-27.022222-22.755556-49.777778-49.777778-49.777778z m14.222223 65.422222c-4.266667 4.266667-9.955556 5.688889-15.644445 5.688889-5.688889 0-11.377778-2.844444-15.644444-7.111111-4.266667-4.266667-5.688889-9.955556-5.688889-15.644444 0-11.377778 9.955556-21.333333 21.333333-21.333334s21.333333 9.955556 21.333334 21.333334c0 7.111111-1.422222 12.8-5.688889 17.066666z m73.955555-102.4c-8.533333-8.533333-21.333333-8.533333-29.866666 0-8.533333 8.533333-8.533333 21.333333 0 29.866667 8.533333 8.533333 21.333333 8.533333 29.866666 0 7.111111-8.533333 8.533333-21.333333 0-29.866667z" fill="#000000" p-id="3352"></path><path d="M593.066667 349.866667l1.422222-93.866667c0-4.266667-1.422222-7.111111-4.266667-9.955556-2.844444-2.844444-7.111111-4.266667-9.955555-4.266666h-79.644445l1.422222-99.555556 73.955556 1.422222 76.8 72.533334c2.844444 2.844444 5.688889 4.266667 9.955556 4.266666 4.266667 0 7.111111-1.422222 9.955555-4.266666 5.688889-5.688889 5.688889-14.222222 0-19.911111l-81.066667-76.8c-4.266667-4.266667-7.111111-5.688889-9.955555-5.688889l-186.311111-1.422222c-8.533333 0-14.222222 5.688889-14.222222 14.222222s5.688889 14.222222 14.222222 14.222222l78.222222 1.422222-1.422222 99.555556-78.222222-1.422222c-8.533333 0-14.222222 5.688889-14.222223 14.222222l-1.422222 92.444444c-98.133333 41.244444-164.977778 139.377778-166.4 246.044445l-2.844444 270.222222c0 24.177778 18.488889 42.666667 42.666666 42.666667l455.111111 4.266666c11.377778 0 21.333333-4.266667 29.866667-12.8 8.533333-8.533333 12.8-18.488889 12.8-29.866666l1.422222-85.333334 1.422223-184.888889c1.422222-106.666667-61.155556-203.377778-159.288889-247.466666zM396.8 369.777778c5.688889-1.422222 8.533333-7.111111 8.533333-12.8l1.422223-88.177778 157.866666 1.422222-1.422222 89.6c0 5.688889 2.844444 11.377778 8.533333 12.8 92.444444 36.977778 152.177778 126.577778 150.755556 226.133334l-1.422222 170.666666-483.555556-5.688889 1.422222-170.666666c2.844444-98.133333 65.422222-187.733333 157.866667-223.288889z m320 509.155555c-2.844444 2.844444-5.688889 4.266667-9.955556 4.266667l-455.111111-4.266667c-8.533333 0-14.222222-7.111111-14.222222-14.222222l1.422222-71.111111 483.555556 5.688889-1.422222 71.111111c0 2.844444-1.422222 5.688889-4.266667 8.533333z" fill="#000000" p-id="3353"></path><path d="M482.133333 684.088889c24.177778 0 46.933333-8.533333 65.422223-27.022222 31.288889-31.288889 36.977778-78.222222 14.222222-115.2l-65.422222-105.244445c-2.844444-4.266667-7.111111-7.111111-11.377778-7.111111-4.266667 0-9.955556 2.844444-11.377778 7.111111L403.911111 540.444444c-24.177778 36.977778-18.488889 85.333333 11.377778 116.622223 18.488889 17.066667 42.666667 27.022222 66.844444 27.022222zM428.088889 554.666667l55.466667-85.333334 54.044444 85.333334c15.644444 25.6 12.8 58.311111-9.955556 81.066666-12.8 11.377778-28.444444 18.488889-45.511111 18.488889-17.066667 0-34.133333-7.111111-45.511111-19.911111-21.333333-19.911111-25.6-54.044444-8.533333-79.644444z" fill="#000000" p-id="3354"></path></svg>