<?xml version="1.0" standalone="no"?><!DOCTYPE svg PUBLIC "-//W3C//DTD SVG 1.1//EN" "http://www.w3.org/Graphics/SVG/1.1/DTD/svg11.dtd"><svg t="1687265893567" viewBox="0 0 1024 1024" version="1.1" xmlns="http://www.w3.org/2000/svg" p-id="12528" xmlns:xlink="http://www.w3.org/1999/xlink" width="200" height="200"><path d="M864.711111 156.444444c-25.6-27.022222-61.155556-42.666667-98.133333-42.666666H257.422222c-36.977778 0-72.533333 15.644444-98.133333 42.666666-25.6 27.022222-36.977778 64-34.133333 100.977778l49.777777 531.911111c5.688889 68.266667 62.577778 119.466667 130.844445 119.466667h411.022222c68.266667 0 125.155556-51.2 130.844444-119.466667l49.777778-531.911111c4.266667-36.977778-8.533333-72.533333-32.711111-100.977778z m5.688889 99.555556l-49.777778 531.911111c-4.266667 54.044444-49.777778 93.866667-102.4 93.866667h-412.444444c-54.044444 0-98.133333-39.822222-102.4-93.866667l-49.777778-531.911111c-2.844444-28.444444 7.111111-58.311111 27.022222-79.644444s46.933333-34.133333 76.8-34.133334h509.155556c28.444444 0 56.888889 12.8 76.8 34.133334 19.911111 21.333333 29.866667 49.777778 27.022222 79.644444z" fill="#000000" p-id="12529"></path><path d="M512 183.466667c-86.755556 0-167.822222 32.711111-230.4 93.866666-5.688889 5.688889-8.533333 12.8-8.533333 21.333334s4.266667 15.644444 9.955555 21.333333l59.733334 52.622222c5.688889 4.266667 11.377778 7.111111 18.488888 7.111111s14.222222-2.844444 19.911112-7.111111c35.555556-32.711111 81.066667-49.777778 129.422222-49.777778 46.933333 0 91.022222 17.066667 126.577778 48.355556 11.377778 9.955556 28.444444 8.533333 38.4-1.422222l56.888888-56.888889c5.688889-5.688889 8.533333-12.8 8.533334-21.333333 0-7.111111-2.844444-14.222222-8.533334-19.911112C672.711111 213.333333 594.488889 183.466667 512 183.466667z m145.066667 163.555555l9.955555 9.955556-9.955555-9.955556c-36.977778-31.288889-82.488889-51.2-130.844445-54.044444v-29.866667c0-8.533333-5.688889-14.222222-14.222222-14.222222s-14.222222 5.688889-14.222222 14.222222v29.866667c-49.777778 2.844444-98.133333 22.755556-135.111111 58.311111l-61.155556-52.622222c56.888889-55.466667 130.844444-85.333333 210.488889-85.333334 75.377778 0 146.488889 28.444444 201.955556 78.222223l-56.888889 55.466666z" fill="#000000" p-id="12530"></path><path d="M312.888889 770.844444m-21.333333 0a21.333333 21.333333 0 1 0 42.666666 0 21.333333 21.333333 0 1 0-42.666666 0Z" fill="#000000" p-id="12531"></path><path d="M695.466667 756.622222c-8.533333 8.533333-8.533333 21.333333 0 29.866667 8.533333 8.533333 21.333333 8.533333 29.866666 0 8.533333-8.533333 8.533333-21.333333 0-29.866667-7.111111-8.533333-21.333333-8.533333-29.866666 0z" fill="#000000" p-id="12532"></path></svg>