<?xml version="1.0" standalone="no"?><!DOCTYPE svg PUBLIC "-//W3C//DTD SVG 1.1//EN" "http://www.w3.org/Graphics/SVG/1.1/DTD/svg11.dtd"><svg t="1687265597098" viewBox="0 0 1024 1024" version="1.1" xmlns="http://www.w3.org/2000/svg" p-id="3643" xmlns:xlink="http://www.w3.org/1999/xlink" width="200" height="200"><path d="M792.433778 477.212444a1904.497778 1904.497778 0 0 1-23.182222 23.552c-1.948444 1.934222-3.569778 5.745778-4.152889 8.391112a14.222222 14.222222 0 0 0 0.142222 6.670222c0.625778 2.318222 60.444444 232.561778-6.442667 352.341333-4.764444 8.504889-14.336 13.795556-25.002666 13.795556a27.306667 27.306667 0 0 1-26.510223-20.821334c-26.254222-105.984-57.144889-168.675556-94.904889-191.914666l-2.133333-1.208889a203.804444 203.804444 0 0 0-100.807111-26.552889c-34.901333 0-69.788444 8.874667-100.878222 26.595555-38.314667 21.703111-69.944889 84.664889-96.711111 192.469334a28.088889 28.088889 0 0 1-27.278223 21.432889c-10.254222 0-19.484444-5.091556-24.106666-13.297778-67.342222-119.637333-7.338667-350.520889-6.727111-352.853333a14.179556 14.179556 0 0 0-0.327111-8.32 14.023111 14.023111 0 0 0-3.797334-6.755556c-6.641778-6.613333-13.226667-13.255111-19.768889-19.968-73.6-75.591111-78.990222-188.885333-12.8-269.411556l14.549334-17.692444c73.742222-68.949333 193.180444-68.778667 266.666666 0.597333a14.222222 14.222222 0 0 0 19.313778 0.199111l4.323556-3.896888a192.398222 192.398222 0 0 1 90.396444-45.44 24.689778 24.689778 0 0 1 20.565333 5.12c5.973333 4.892444 9.386667 12.088889 9.386667 19.768888v1.507556c0 98.133333 79.857778 177.976889 178.005333 177.976889 7.736889 0 14.933333 3.470222 19.811556 9.500444 4.807111 5.973333 6.599111 13.681778 4.963556 21.12a203.022222 203.022222 0 0 1-52.593778 97.095111m80.355555-90.965333a53.290667 53.290667 0 0 0-10.538666-45.041778 53.617778 53.617778 0 0 0-41.998223-20.152889c-82.460444 0-149.546667-67.086222-149.546666-149.532444v-1.493333a53.774222 53.774222 0 0 0-19.868445-41.813334 53.091556 53.091556 0 0 0-44.245333-10.951111 221.496889 221.496889 0 0 0-98.574222 47.644445c-84.963556-70.940444-215.296-68.053333-296.590222 8.661333-0.426667 0.426667-0.853333 0.853333-1.223112 1.322667l-15.118222 18.403555C119.509333 285.198222 125.568 414.435556 209.479111 500.622222c4.949333 5.077333 9.927111 10.097778 14.933333 15.146667-10.24 41.898667-55.523556 248.177778 11.264 366.848 9.656889 17.137778 28.387556 27.790222 48.896 27.790222a56.504889 56.504889 0 0 0 54.883556-43.008c30.435556-122.624 62.008889-162.616889 83.157333-174.606222a176.199111 176.199111 0 0 1 173.582223-0.056889l1.692444 0.967111c20.792889 12.8 51.854222 53.432889 81.777778 174.279111a55.694222 55.694222 0 0 0 54.129778 42.424889c20.963556 0 40.049778-10.88 49.834666-28.373333 66.375111-118.826667 21.091556-324.707556 10.908445-366.364445 6.172444-6.172444 12.288-12.416 18.346666-18.688 30.051556-31.089778 50.759111-69.361778 59.918223-110.734222" fill="#000000" p-id="3644"></path></svg>