<?xml version="1.0" standalone="no"?><!DOCTYPE svg PUBLIC "-//W3C//DTD SVG 1.1//EN" "http://www.w3.org/Graphics/SVG/1.1/DTD/svg11.dtd"><svg t="1687265574968" viewBox="0 0 1024 1024" version="1.1" xmlns="http://www.w3.org/2000/svg" p-id="2911" xmlns:xlink="http://www.w3.org/1999/xlink" width="200" height="200"><path d="M859.022222 280.177778l-41.244444-41.244445c-15.644444-15.644444-36.977778-24.177778-58.311111-24.177777-21.333333 0-42.666667 8.533333-58.311111 24.177777L568.888889 371.2c-15.644444 15.644444-24.177778 36.977778-24.177778 58.311111 0 22.755556 8.533333 42.666667 24.177778 58.311111l28.444444 28.444445 1.422223 1.422222c-32.711111 22.755556-72.533333 34.133333-112.355556 32.711111-59.733333-2.844444-118.044444 21.333333-160.711111 62.577778L150.755556 786.488889c-25.6 25.6-25.6 68.266667 0 93.866667 12.8 12.8 29.866667 19.911111 46.933333 19.911111 17.066667 0 32.711111-5.688889 45.511111-18.488889l179.2-174.933334c35.555556-34.133333 81.066667-52.622222 129.422222-54.044444h4.266667c56.888889 0 110.933333-22.755556 152.177778-64l149.333333-149.333333c45.511111-44.088889 45.511111-115.2 1.422222-159.288889zM682.666667 295.822222l69.688889 69.688889-56.888889 56.888889-69.688889-69.688889 56.888889-56.888889z m75.377777-54.044444c14.222222 0 28.444444 5.688889 38.4 15.644444l31.288889 31.288889-56.888889 56.888889-69.688888-69.688889 18.488888-18.488889c9.955556-9.955556 24.177778-15.644444 38.4-15.644444z m-142.222222 253.155555l-28.444444-28.444444c-9.955556-9.955556-15.644444-24.177778-15.644445-38.4 0-14.222222 5.688889-28.444444 15.644445-38.4l18.488889-18.488889 69.688889 69.688889-52.622223 52.622222c-1.422222 4.266667-5.688889 4.266667-7.111111 1.422222zM839.111111 419.555556L689.777778 567.466667c-35.555556 35.555556-82.488889 54.044444-132.266667 55.466666h-4.266667c-56.888889 0-109.511111 22.755556-149.333333 61.155556L224.711111 860.444444c-14.222222 14.222222-38.4 14.222222-52.622222 0s-14.222222-38.4 0-52.622222l173.511111-173.511111c35.555556-35.555556 83.911111-55.466667 132.266667-55.466667h5.688889c59.733333 1.422222 118.044444-21.333333 159.288888-62.577777l102.4-102.4 102.4-102.4c9.955556 14.222222 15.644444 31.288889 15.644445 48.355555 0 22.755556-8.533333 42.666667-24.177778 59.733334zM500.622222 398.222222c4.266667 0 7.111111-1.422222 9.955556-4.266666L668.444444 236.088889c32.711111-32.711111 32.711111-85.333333 0-118.044445-28.444444-28.444444-75.377778-28.444444-105.244444 0-5.688889 5.688889-5.688889 14.222222 0 19.911112 17.066667 17.066667 17.066667 45.511111 0 61.155555l-73.955556 73.955556c-32.711111 32.711111-32.711111 86.755556 0 120.888889 4.266667 2.844444 7.111111 4.266667 11.377778 4.266666z m9.955556-103.822222l73.955555-73.955556c24.177778-24.177778 27.022222-61.155556 9.955556-89.6 17.066667-9.955556 39.822222-7.111111 54.044444 7.111112 21.333333 21.333333 21.333333 56.888889 0 78.222222L502.044444 362.666667c-12.8-21.333333-9.955556-49.777778 8.533334-68.266667z" fill="#000000" p-id="2912"></path></svg>