<?xml version="1.0" standalone="no"?><!DOCTYPE svg PUBLIC "-//W3C//DTD SVG 1.1//EN" "http://www.w3.org/Graphics/SVG/1.1/DTD/svg11.dtd"><svg t="1687265629967" viewBox="0 0 1024 1024" version="1.1" xmlns="http://www.w3.org/2000/svg" p-id="4516" xmlns:xlink="http://www.w3.org/1999/xlink" width="200" height="200"><path d="M819.484444 868.252444H273.379556a73.628444 73.628444 0 0 1-53.888-23.153777 73.870222 73.870222 0 0 1-20.280889-55.139556c2.033778-38.741333 37.546667-70.257778 79.175111-70.257778h559.132444v60.046223H347.918222a14.222222 14.222222 0 0 0 0 28.444444h489.6v42.012444c0 9.955556-8.092444 18.048-18.033778 18.048M313.912889 142.222222h3.342222v549.034667h-38.869333A110.364444 110.364444 0 0 0 199.111111 725.063111V257.038222C199.111111 193.735111 250.609778 142.222222 313.912889 142.222222m523.605333 18.048v530.986667h-491.804444V142.222222H819.484444c9.955556 0 18.033778 8.106667 18.033778 18.048M819.484444 113.777778H313.912889C234.922667 113.777778 170.666667 178.048 170.666667 257.038222v528.654222c0 0.497778 0.227556 0.938667 0.284444 1.436445-0.028444 0.440889-0.113778 0.867556-0.142222 1.336889a101.930667 101.930667 0 0 0 28.060444 76.216889 101.831111 101.831111 0 0 0 74.524445 32.014222H819.484444a46.535111 46.535111 0 0 0 46.478223-46.492445V160.270222A46.535111 46.535111 0 0 0 819.484444 113.777778" fill="#000000" p-id="4517"></path><path d="M491.960889 381.923556h53.944889a14.222222 14.222222 0 0 0 14.222222-14.222223v-53.930666c0-12.999111 10.567111-23.566222 23.566222-23.566223 12.984889 0 23.552 10.567111 23.552 23.566223v53.930666a14.222222 14.222222 0 0 0 14.222222 14.222223h53.944889c12.999111 0 23.566222 10.567111 23.566223 23.566222s-10.567111 23.566222-23.566223 23.566222h-53.944889a14.222222 14.222222 0 0 0-14.222222 14.222222v53.930667c0 13.013333-10.567111 23.580444-23.552 23.580444a23.594667 23.594667 0 0 1-23.566222-23.580444v-53.930667a14.222222 14.222222 0 0 0-14.222222-14.222222h-53.944889a23.580444 23.580444 0 0 1-23.566222-23.566222c0-12.999111 10.567111-23.566222 23.566222-23.566222m0 75.576888h39.722667v39.708445a52.081778 52.081778 0 0 0 52.010666 52.024889 52.067556 52.067556 0 0 0 51.996445-52.024889v-39.708445h39.722666a52.053333 52.053333 0 0 0 52.010667-52.010666 52.067556 52.067556 0 0 0-52.010667-52.010667h-39.722666v-39.708444a52.053333 52.053333 0 0 0-51.996445-52.010667 52.067556 52.067556 0 0 0-52.010666 52.010667v39.708444h-39.722667a52.081778 52.081778 0 0 0-52.010667 52.010667 52.067556 52.067556 0 0 0 52.010667 52.010666" fill="#000000" p-id="4518"></path></svg>