<?xml version="1.0" standalone="no"?><!DOCTYPE svg PUBLIC "-//W3C//DTD SVG 1.1//EN" "http://www.w3.org/Graphics/SVG/1.1/DTD/svg11.dtd"><svg t="1687265988338" viewBox="0 0 1024 1024" version="1.1" xmlns="http://www.w3.org/2000/svg" p-id="15595" xmlns:xlink="http://www.w3.org/1999/xlink" width="200" height="200"><path d="M837.688889 726.755556H696.888889c-32.711111 0-65.422222-7.111111-95.288889-21.333334 4.266667-8.533333 7.111111-18.488889 7.111111-28.444444 0-17.066667-7.111111-32.711111-18.488889-44.088889l-126.577778-126.577778c-38.4-38.4-91.022222-59.733333-145.066666-59.733333h-45.511111c-8.533333-19.911111-28.444444-34.133333-52.622223-34.133334h-52.622222c-31.288889 0-56.888889 25.6-56.888889 56.888889v204.8c0 31.288889 25.6 56.888889 56.888889 56.888889h52.622222c19.911111 0 36.977778-9.955556 48.355556-27.022222 22.755556 7.111111 79.644444 28.444444 110.933333 59.733333l1.422223 1.422223c69.688889 69.688889 163.555556 108.088889 261.688888 108.088888h193.422223c39.822222 0 72.533333-32.711111 72.533333-72.533333s-29.866667-73.955556-71.111111-73.955555z m-614.4-27.022223H170.666667c-15.644444 0-28.444444-12.8-28.444445-28.444444V466.488889c0-15.644444 12.8-28.444444 28.444445-28.444445h52.622222c15.644444 0 28.444444 12.8 28.444444 28.444445v204.8c-1.422222 15.644444-12.8 28.444444-28.444444 28.444444z m614.4 143.644445H644.266667c-91.022222 0-176.355556-35.555556-241.777778-99.555556l-1.422222-1.422222c-36.977778-36.977778-98.133333-59.733333-122.311111-66.844444V473.6h41.244444c46.933333 0 92.444444 18.488889 125.155556 51.2l126.577777 126.577778c12.8 12.8 12.8 34.133333 0 46.933333-12.8 12.8-34.133333 12.8-46.933333 0L423.822222 597.333333c-5.688889-5.688889-14.222222-5.688889-19.911111 0-5.688889 5.688889-5.688889 14.222222 0 19.911111l100.977778 100.977778c11.377778 11.377778 27.022222 18.488889 44.088889 18.488889 12.8 0 25.6-4.266667 35.555555-11.377778 35.555556 18.488889 73.955556 28.444444 115.2 28.444445h140.8c24.177778 0 44.088889 19.911111 44.088889 44.088889 0 24.177778-21.333333 45.511111-46.933333 45.511111zM797.866667 611.555556c25.6 0 52.622222-9.955556 71.111111-29.866667 31.288889-31.288889 38.4-78.222222 18.488889-118.044445L810.666667 311.466667c-4.266667-9.955556-19.911111-9.955556-25.6 0l-78.222223 152.177777c-19.911111 39.822222-12.8 86.755556 18.488889 118.044445 19.911111 19.911111 46.933333 29.866667 72.533334 29.866667z m-65.422223-133.688889l65.422223-128 65.422222 128c14.222222 28.444444 8.533333 62.577778-12.8 85.333333-28.444444 28.444444-75.377778 28.444444-103.822222 0-22.755556-24.177778-28.444444-58.311111-14.222223-85.333333z m-150.755555-64c22.755556 0 44.088889-8.533333 61.155555-25.6 27.022222-27.022222 32.711111-66.844444 15.644445-100.977778l-65.422222-128c-2.844444-4.266667-7.111111-7.111111-12.8-7.111111s-9.955556 2.844444-12.8 7.111111l-65.422223 128c-17.066667 34.133333-11.377778 73.955556 15.644445 100.977778 18.488889 17.066667 41.244444 25.6 64 25.6z m-52.622222-113.777778l52.622222-102.4 52.622222 102.4c11.377778 22.755556 7.111111 49.777778-11.377778 68.266667-22.755556 22.755556-59.733333 22.755556-82.488889 0-18.488889-18.488889-22.755556-45.511111-11.377777-68.266667z" fill="#000000" p-id="15596"></path></svg>