<?xml version="1.0" standalone="no"?><!DOCTYPE svg PUBLIC "-//W3C//DTD SVG 1.1//EN" "http://www.w3.org/Graphics/SVG/1.1/DTD/svg11.dtd"><svg t="1687265601102" viewBox="0 0 1024 1024" version="1.1" xmlns="http://www.w3.org/2000/svg" p-id="3788" xmlns:xlink="http://www.w3.org/1999/xlink" width="200" height="200"><path d="M881.777778 419.043556a19.911111 19.911111 0 0 1-19.896889 19.896888h-60.586667v-117.546666h60.586667A19.911111 19.911111 0 0 1 881.777778 341.276444v77.767112z m-303.388445 385.28a189.937778 189.937778 0 0 1-12.145777-66.517334c0-105.315556 85.688889-191.018667 191.018666-191.018666 27.790222 0 55.224889 6.428444 80.284445 18.033777-28.458667 124.444444-131.328 220.8-259.157334 239.502223z m180.280889-365.383112a58.837333 58.837333 0 0 1-58.780444-58.766222 58.837333 58.837333 0 0 1 58.780444-58.780444h14.179556v117.546666h-14.179556z m-267.662222 368.711112c-4.423111 0-8.803556-0.156444-13.184-0.327112a207.530667 207.530667 0 0 0 15.857778-79.402666c0-115.726222-94.136889-209.863111-209.863111-209.863111-35.683556 0-70.471111 9.045333-101.404445 26.154666a311.694222 311.694222 0 0 1-3.882666-49.038222v-28.472889h86.798222a87.324444 87.324444 0 0 0 87.224889-87.224889 87.324444 87.324444 0 0 0-87.224889-87.224889h-86.798222v-24.903111A54.072889 54.072889 0 0 1 232.547556 213.333333h558.904888a54.087111 54.087111 0 0 1 54.016 54.016v25.6h-86.798222a87.324444 87.324444 0 0 0-87.224889 87.224889 87.324444 87.324444 0 0 0 87.224889 87.210667h86.798222v27.790222c0 13.752889-0.995556 27.278222-2.730666 40.576a219.975111 219.975111 0 0 0-85.475556-17.408c-121.002667 0-219.463111 98.446222-219.463111 219.463111 0 23.879111 3.953778 47.132444 11.420445 69.432889-5.376 0.270222-10.794667 0.412444-16.227556 0.412445h-41.984z m-302.506667-234.055112a180.835556 180.835556 0 0 1 95.317334-27.093333c100.039111 0 181.418667 81.393778 181.418666 181.418667 0 26.894222-5.959111 52.636444-17.237333 76.700444-125.923556-17.408-228.124444-110.08-259.498667-231.025778z m76.828445-252.899555a58.837333 58.837333 0 0 1 58.780444 58.780444 58.851556 58.851556 0 0 1-58.780444 58.780445h-14.179556v-117.560889h14.179556zM142.222222 418.346667v-77.767111a19.911111 19.911111 0 0 1 19.896889-19.882667h60.586667v117.560889h-60.586667a19.911111 19.911111 0 0 1-19.896889-19.911111z m731.690667-123.704889v-27.292445A82.56 82.56 0 0 0 791.452444 184.888889H232.547556a82.56 82.56 0 0 0-82.460445 82.460444v26.609778A48.270222 48.270222 0 0 0 113.777778 340.579556v77.767111a48.284444 48.284444 0 0 0 36.309333 46.634666v30.193778c0 187.975111 152.931556 340.920889 340.920889 340.920889h41.984c187.975111 0 340.920889-152.945778 340.920889-340.920889v-29.496889A48.284444 48.284444 0 0 0 910.222222 419.043556v-77.767112c0-22.471111-15.488-41.244444-36.309333-46.634666z" fill="#000000" p-id="3789"></path></svg>