<?xml version="1.0" standalone="no"?><!DOCTYPE svg PUBLIC "-//W3C//DTD SVG 1.1//EN" "http://www.w3.org/Graphics/SVG/1.1/DTD/svg11.dtd"><svg t="1687265972602" viewBox="0 0 1024 1024" version="1.1" xmlns="http://www.w3.org/2000/svg" p-id="15009" xmlns:xlink="http://www.w3.org/1999/xlink" width="200" height="200"><path d="M896 753.777778h-113.777778V536.177778c0-92.444444-75.377778-167.822222-167.822222-167.822222H264.533333c-14.222222-93.866667-58.311111-182.044444-126.577777-250.311112-5.688889-5.688889-14.222222-5.688889-19.911112 0-5.688889 5.688889-5.688889 14.222222 0 19.911112 79.644444 79.644444 123.733333 186.311111 123.733334 298.666666V513.422222c-75.377778 31.288889-128 105.244444-128 190.577778 0 113.777778 92.444444 206.222222 206.222222 206.222222 86.755556 0 159.288889-52.622222 190.577778-128h197.688889c-11.377778 14.222222-18.488889 31.288889-18.488889 49.777778 0 42.666667 35.555556 78.222222 78.222222 78.222222s78.222222-35.555556 78.222222-78.222222c0-18.488889-7.111111-35.555556-18.488889-49.777778H896c8.533333 0 14.222222-5.688889 14.222222-14.222222s-5.688889-14.222222-14.222222-14.222222zM268.8 396.8h345.6c76.8 0 139.377778 62.577778 139.377778 139.377778v41.244444H482.133333c-38.4-48.355556-96.711111-79.644444-162.133333-79.644444-17.066667 0-34.133333 2.844444-49.777778 5.688889v-66.844445c0-12.8 0-27.022222-1.422222-39.822222zM320 881.777778C221.866667 881.777778 142.222222 802.133333 142.222222 704S221.866667 526.222222 320 526.222222 497.777778 605.866667 497.777778 704 418.133333 881.777778 320 881.777778z m182.044444-275.911111H753.777778V753.777778H520.533333c4.266667-15.644444 5.688889-32.711111 5.688889-49.777778 0-35.555556-8.533333-68.266667-24.177778-98.133333z m315.733334 226.133333c0 27.022222-22.755556 49.777778-49.777778 49.777778s-49.777778-22.755556-49.777778-49.777778S740.977778 782.222222 768 782.222222s49.777778 22.755556 49.777778 49.777778z" fill="#000000" p-id="15010"></path><path d="M320 704m-25.6 0a25.6 25.6 0 1 0 51.2 0 25.6 25.6 0 1 0-51.2 0Z" fill="#000000" p-id="15011"></path></svg>