<?xml version="1.0" standalone="no"?><!DOCTYPE svg PUBLIC "-//W3C//DTD SVG 1.1//EN" "http://www.w3.org/Graphics/SVG/1.1/DTD/svg11.dtd"><svg t="1687265610711" viewBox="0 0 1024 1024" version="1.1" xmlns="http://www.w3.org/2000/svg" p-id="4078" xmlns:xlink="http://www.w3.org/1999/xlink" width="200" height="200"><path d="M839.111111 113.777778H184.888889c-39.822222 0-71.111111 31.288889-71.111111 71.111111v654.222222c0 39.822222 31.288889 71.111111 71.111111 71.111111h654.222222c39.822222 0 71.111111-31.288889 71.111111-71.111111V184.888889c0-39.822222-31.288889-71.111111-71.111111-71.111111z m42.666667 725.333333c0 24.177778-18.488889 42.666667-42.666667 42.666667H184.888889c-24.177778 0-42.666667-18.488889-42.666667-42.666667V184.888889c0-24.177778 18.488889-42.666667 42.666667-42.666667h654.222222c24.177778 0 42.666667 18.488889 42.666667 42.666667v654.222222z" fill="#000000" p-id="4079"></path><path d="M312.888889 696.888889h398.222222c39.822222 0 71.111111-31.288889 71.111111-71.111111V283.022222c0-39.822222-31.288889-71.111111-71.111111-71.111111H312.888889c-39.822222 0-71.111111 31.288889-71.111111 71.111111V625.777778c0 39.822222 31.288889 71.111111 71.111111 71.111111z m398.222222-28.444445H312.888889c-24.177778 0-42.666667-18.488889-42.666667-42.666666V473.6h65.422222l75.377778 108.088889c2.844444 4.266667 7.111111 5.688889 11.377778 5.688889 4.266667 0 8.533333-2.844444 11.377778-5.688889l160.711111-223.288889 79.644444 108.088889c2.844444 4.266667 7.111111 5.688889 11.377778 5.688889H753.777778V625.777778c0 24.177778-18.488889 42.666667-42.666667 42.666666zM312.888889 240.355556h398.222222c24.177778 0 42.666667 18.488889 42.666667 42.666666v162.133334h-61.155556L605.866667 327.111111c-2.844444-4.266667-7.111111-5.688889-11.377778-5.688889-4.266667 0-8.533333 2.844444-11.377778 5.688889L422.4 548.977778l-68.266667-98.133334c-2.844444-4.266667-7.111111-5.688889-11.377777-5.688888H270.222222V283.022222c0-24.177778 18.488889-42.666667 42.666667-42.666666z m-19.911111 497.777777c-27.022222 0-49.777778 22.755556-49.777778 49.777778s22.755556 49.777778 49.777778 49.777778 49.777778-22.755556 49.777778-49.777778-22.755556-49.777778-49.777778-49.777778z m0 71.111111c-11.377778 0-21.333333-9.955556-21.333334-21.333333s9.955556-21.333333 21.333334-21.333333 21.333333 9.955556 21.333333 21.333333-9.955556 21.333333-21.333333 21.333333z m139.377778-71.111111c-27.022222 0-49.777778 22.755556-49.777778 49.777778s22.755556 49.777778 49.777778 49.777778 49.777778-22.755556 49.777777-49.777778-22.755556-49.777778-49.777777-49.777778z m0 71.111111c-11.377778 0-21.333333-9.955556-21.333334-21.333333s9.955556-21.333333 21.333334-21.333333 21.333333 9.955556 21.333333 21.333333-9.955556 21.333333-21.333333 21.333333z m337.066666-64h-199.111111c-8.533333 0-14.222222 5.688889-14.222222 14.222223s5.688889 14.222222 14.222222 14.222222h199.111111c8.533333 0 14.222222-5.688889 14.222222-14.222222s-5.688889-14.222222-14.222222-14.222223zM769.422222 802.133333h-199.111111c-8.533333 0-14.222222 5.688889-14.222222 14.222223s5.688889 14.222222 14.222222 14.222222h199.111111c8.533333 0 14.222222-5.688889 14.222222-14.222222s-5.688889-14.222222-14.222222-14.222223z" fill="#000000" p-id="4080"></path></svg>