<?xml version="1.0" standalone="no"?><!DOCTYPE svg PUBLIC "-//W3C//DTD SVG 1.1//EN" "http://www.w3.org/Graphics/SVG/1.1/DTD/svg11.dtd"><svg t="1687265615460" viewBox="0 0 1024 1024" version="1.1" xmlns="http://www.w3.org/2000/svg" p-id="4224" xmlns:xlink="http://www.w3.org/1999/xlink" width="200" height="200"><path d="M824.888889 206.222222h-106.666667v-42.666666c0-8.533333-5.688889-14.222222-14.222222-14.222223s-14.222222 5.688889-14.222222 14.222223v42.666666H526.222222v-42.666666c0-8.533333-5.688889-14.222222-14.222222-14.222223s-14.222222 5.688889-14.222222 14.222223v42.666666H334.222222v-42.666666c0-8.533333-5.688889-14.222222-14.222222-14.222223s-14.222222 5.688889-14.222222 14.222223v42.666666H199.111111c-46.933333 0-85.333333 38.4-85.333333 85.333334v497.777777c0 46.933333 38.4 85.333333 85.333333 85.333334h625.777778c46.933333 0 85.333333-38.4 85.333333-85.333334v-497.777777c0-46.933333-38.4-85.333333-85.333333-85.333334z m56.888889 583.111111c0 31.288889-25.6 56.888889-56.888889 56.888889H199.111111c-31.288889 0-56.888889-25.6-56.888889-56.888889v-497.777777c0-31.288889 25.6-56.888889 56.888889-56.888889h106.666667v56.888889c0 8.533333 5.688889 14.222222 14.222222 14.222222s14.222222-5.688889 14.222222-14.222222v-56.888889H497.777778v56.888889c0 8.533333 5.688889 14.222222 14.222222 14.222222s14.222222-5.688889 14.222222-14.222222v-56.888889h163.555556v56.888889c0 8.533333 5.688889 14.222222 14.222222 14.222222s14.222222-5.688889 14.222222-14.222222v-56.888889H824.888889c31.288889 0 56.888889 25.6 56.888889 56.888889v497.777777z" fill="#000000" p-id="4225"></path><path d="M752.355556 605.866667c-5.688889-5.688889-14.222222-5.688889-19.911112 0L696.888889 641.422222l-35.555556-35.555555c-5.688889-5.688889-14.222222-5.688889-19.911111 0-5.688889 5.688889-5.688889 14.222222 0 19.911111l35.555556 35.555555-35.555556 35.555556c-5.688889 5.688889-5.688889 14.222222 0 19.911111 2.844444 2.844444 7.111111 4.266667 9.955556 4.266667 2.844444 0 7.111111-1.422222 9.955555-4.266667l35.555556-35.555556 35.555555 35.555556c2.844444 2.844444 7.111111 4.266667 9.955556 4.266667 2.844444 0 7.111111-1.422222 9.955556-4.266667 5.688889-5.688889 5.688889-14.222222 0-19.911111l-35.555556-35.555556 35.555556-35.555555c5.688889-5.688889 5.688889-14.222222 0-19.911111zM320 426.666667c-27.022222 0-49.777778 22.755556-49.777778 49.777777s22.755556 49.777778 49.777778 49.777778 49.777778-22.755556 49.777778-49.777778-21.333333-49.777778-49.777778-49.777777z m0 71.111111c-11.377778 0-21.333333-9.955556-21.333333-21.333334s9.955556-21.333333 21.333333-21.333333 21.333333 9.955556 21.333333 21.333333-8.533333 21.333333-21.333333 21.333334zM512 426.666667c-27.022222 0-49.777778 22.755556-49.777778 49.777777S484.977778 526.222222 512 526.222222s49.777778-22.755556 49.777778-49.777778S540.444444 426.666667 512 426.666667z m0 71.111111c-11.377778 0-21.333333-9.955556-21.333333-21.333334S500.622222 455.111111 512 455.111111s21.333333 9.955556 21.333333 21.333333S524.8 497.777778 512 497.777778z m-192 113.777778c-27.022222 0-49.777778 22.755556-49.777778 49.777777s22.755556 49.777778 49.777778 49.777778 49.777778-22.755556 49.777778-49.777778-22.755556-49.777778-49.777778-49.777777z m0 71.111111c-11.377778 0-21.333333-9.955556-21.333333-21.333334s9.955556-21.333333 21.333333-21.333333 21.333333 9.955556 21.333333 21.333333-9.955556 21.333333-21.333333 21.333334zM512 611.555556c-27.022222 0-49.777778 22.755556-49.777778 49.777777S483.555556 711.111111 512 711.111111s49.777778-22.755556 49.777778-49.777778S539.022222 611.555556 512 611.555556z m0 71.111111c-11.377778 0-21.333333-9.955556-21.333333-21.333334S499.2 640 512 640s21.333333 9.955556 21.333333 21.333333S523.377778 682.666667 512 682.666667z m184.888889-156.444445c27.022222 0 49.777778-22.755556 49.777778-49.777778S725.333333 426.666667 696.888889 426.666667s-49.777778 22.755556-49.777778 49.777777S669.866667 526.222222 696.888889 526.222222z m0-71.111111c11.377778 0 21.333333 9.955556 21.333333 21.333333S709.688889 497.777778 696.888889 497.777778s-21.333333-9.955556-21.333333-21.333334 9.955556-21.333333 21.333333-21.333333z" fill="#000000" p-id="4226"></path></svg>