<?xml version="1.0" standalone="no"?><!DOCTYPE svg PUBLIC "-//W3C//DTD SVG 1.1//EN" "http://www.w3.org/Graphics/SVG/1.1/DTD/svg11.dtd"><svg t="1687265605631" viewBox="0 0 1024 1024" version="1.1" xmlns="http://www.w3.org/2000/svg" p-id="3933" xmlns:xlink="http://www.w3.org/1999/xlink" width="200" height="200"><path d="M765.013333 751.928889a12.942222 12.942222 0 0 0-5.873777 1.479111c-59.946667-3.825778-107.591111-53.688889-107.591112-114.574222a14.222222 14.222222 0 1 0-28.444444 0c0 73.415111 55.495111 134.030222 126.72 142.336-6.997333 56.376889-54.485333 100.167111-112 100.167111-62.293333 0-112.981333-51.342222-112.981333-114.460445 0-0.625778-0.256-1.137778-0.341334-1.749333V254.919111c0-1.180444-0.142222-2.318222-0.170666-3.484444C526.193778 190.919111 576 142.222222 637.112889 142.222222c62.293333 0 112.981333 50.56 112.981333 112.696889 0 39.68-32.284444 71.964444-71.964444 71.964445a14.222222 14.222222 0 0 0 0 28.444444c50.289778 0 91.932444-37.191111 99.171555-85.475556 56.519111 6.115556 100.693333 53.973333 100.693334 112 0 62.151111-50.688 112.696889-112.981334 112.696889h-63.943111a14.222222 14.222222 0 0 0 0 28.444445h63.957334c62.293333 0 112.967111 51.356444 112.967111 114.488889 0 63.104-50.688 114.446222-112.981334 114.446222m-382.264889 129.422222c-62.151111 0-112.696889-51.100444-112.952888-114.716444a69.034667 69.034667 0 0 1 68.949333-68.736 14.222222 14.222222 0 1 0 0-28.444445c-48.355556 0-88.462222 35.427556-96.028445 81.678222-56.263111-6.485333-100.138667-54.954667-100.138666-113.664 0-63.118222 50.673778-114.474667 112.952889-114.474666h63.616a14.222222 14.222222 0 1 0 0-28.444445h-63.957334c-62.293333 0-112.967111-50.545778-112.967111-112.696889 0-57.628444 43.605333-105.230222 100.167111-111.857777 8.760889 66.346667 74.410667 118.087111 153.955556 118.087111a14.222222 14.222222 0 1 0 0-28.444445c-69.262222 0-125.610667-46.250667-126.492445-103.381333 0.042667-0.455111 0.270222-0.853333 0.270223-1.336889 0-62.136889 50.688-112.696889 112.981333-112.696889 61.098667 0 110.890667 48.696889 112.782222 109.226667-0.028444 1.152-0.184889 2.289778-0.184889 3.470222 0 0.625778 0.284444 1.152 0.355556 1.749333v508.458667c-0.071111 0.597333-0.355556 1.137778-0.355556 1.749333 0 63.104-50.673778 114.460444-112.952889 114.460445m443.548445-372.48c47.331556-22.826667 80.142222-71.111111 80.142222-127.004445 0-73.315556-56.263111-133.745778-128.568889-140.515555C771.015111 169.856 710.528 113.777778 637.112889 113.777778c-55.793778 0-104.021333 32.512-127.004445 79.502222C487.111111 146.289778 438.897778 113.777778 383.104 113.777778c-73.386667 0-133.873778 56.049778-140.771556 127.502222-71.964444 6.499556-128.568889 67.072-128.568888 140.572444 0 55.964444 32.910222 104.291556 80.341333 127.089778a143.118222 143.118222 0 0 0-79.971556 128.526222c0 74.140444 56.177778 135.281778 127.758223 142.236445 6.442667 72.817778 67.157333 130.076444 140.856888 130.076444 56.234667 0 104.775111-33.450667 127.530667-81.607111 22.755556 48.156444 71.310222 81.607111 127.559111 81.607111 73.472 0 134.044444-56.945778 140.8-130.062222 71.608889-6.940444 127.800889-68.081778 127.800889-142.250667 0-56.590222-32.824889-105.472-80.156444-128.611555" fill="#000000" p-id="3934"></path></svg>