<?xml version="1.0" standalone="no"?><!DOCTYPE svg PUBLIC "-//W3C//DTD SVG 1.1//EN" "http://www.w3.org/Graphics/SVG/1.1/DTD/svg11.dtd"><svg t="1687265579338" viewBox="0 0 1024 1024" version="1.1" xmlns="http://www.w3.org/2000/svg" p-id="3054" xmlns:xlink="http://www.w3.org/1999/xlink" width="200" height="200"><path d="M381.155556 113.777778C314.311111 113.777778 260.266667 167.822222 260.266667 234.666667c0 61.155556 46.933333 112.355556 106.666666 119.466666v145.066667c-32.711111 7.111111-56.888889 35.555556-56.888889 69.688889v270.222222c0 39.822222 31.288889 71.111111 71.111112 71.111111s71.111111-31.288889 71.111111-71.111111V568.888889c0-34.133333-24.177778-62.577778-56.888889-69.688889V354.133333c59.733333-7.111111 106.666667-58.311111 106.666666-119.466666 0-66.844444-54.044444-120.888889-120.888888-120.888889z m0 768c-22.755556 0-42.666667-18.488889-42.666667-42.666667V651.377778h85.333333V839.111111c0 24.177778-18.488889 42.666667-42.666666 42.666667z m42.666666-312.888889v54.044444h-85.333333V568.888889c0-22.755556 18.488889-42.666667 42.666667-42.666667s42.666667 18.488889 42.666666 42.666667z m-42.666666-241.777778c-51.2 0-92.444444-41.244444-92.444445-92.444444S329.955556 142.222222 381.155556 142.222222s92.444444 41.244444 92.444444 92.444445S432.355556 327.111111 381.155556 327.111111z" fill="#000000" p-id="3055"></path><path d="M381.155556 234.666667m-35.555556 0a35.555556 35.555556 0 1 0 71.111111 0 35.555556 35.555556 0 1 0-71.111111 0Z" fill="#000000" p-id="3056"></path><path d="M786.488889 137.955556c5.688889-5.688889 5.688889-14.222222 1.422222-19.911112-5.688889-5.688889-14.222222-5.688889-19.911111-1.422222l-139.377778 128c-2.844444 2.844444-4.266667 7.111111-4.266666 9.955556V497.777778c-32.711111 7.111111-56.888889 35.555556-56.888889 69.688889v270.222222c0 39.822222 31.288889 71.111111 71.111111 71.111111s71.111111-31.288889 71.111111-71.111111V568.888889c0-34.133333-24.177778-62.577778-56.888889-69.688889V261.688889l133.688889-123.733333zM638.577778 881.777778c-22.755556 0-42.666667-18.488889-42.666667-42.666667V651.377778h85.333333V839.111111c0 24.177778-19.911111 42.666667-42.666666 42.666667z m42.666666-312.888889v54.044444h-85.333333V568.888889c0-22.755556 18.488889-42.666667 42.666667-42.666667s42.666667 18.488889 42.666666 42.666667z" fill="#000000" p-id="3057"></path></svg>