<?xml version="1.0" standalone="no"?><!DOCTYPE svg PUBLIC "-//W3C//DTD SVG 1.1//EN" "http://www.w3.org/Graphics/SVG/1.1/DTD/svg11.dtd"><svg t="1687265759101" viewBox="0 0 1024 1024" version="1.1" xmlns="http://www.w3.org/2000/svg" p-id="8444" xmlns:xlink="http://www.w3.org/1999/xlink" width="200" height="200"><path d="M396.8 540.444444h-42.666667c-7.111111 0-14.222222 4.266667-18.488889 9.955556l-38.4 49.777778-32.711111-118.044445c-2.844444-11.377778-11.377778-19.911111-21.333333-21.333333-9.955556-1.422222-18.488889 2.844444-24.177778 11.377778l-42.666666 66.844444H129.422222c-8.533333 0-14.222222 5.688889-14.222222 14.222222s5.688889 14.222222 14.222222 14.222223h48.355556c8.533333 0 15.644444-4.266667 21.333333-12.8l38.4-61.155556 32.711111 116.622222c2.844444 11.377778 11.377778 18.488889 19.911111 21.333334h4.266667c7.111111 0 14.222222-2.844444 18.488889-9.955556l42.666667-54.044444h41.244444c8.533333 0 14.222222-5.688889 14.222222-14.222223s-5.688889-12.8-14.222222-12.8z m290.133333-386.844444h-25.6c-145.066667 0-264.533333 118.044444-264.533333 264.533333v38.4c0 8.533333 5.688889 14.222222 14.222222 14.222223s14.222222-5.688889 14.222222-14.222223v-38.4c0-129.422222 105.244444-236.088889 236.088889-236.088889h25.6c106.666667 0 193.422222 86.755556 193.422223 193.422223 0 51.2-19.911111 98.133333-54.044445 135.111111L796.444444 540.444444c-62.577778 62.577778-100.977778 100.977778-100.977777 207.644445v9.955555c0 46.933333-38.4 85.333333-85.333334 85.333334s-85.333333-38.4-85.333333-85.333334v-98.133333c0-8.533333-5.688889-14.222222-14.222222-14.222222s-14.222222 5.688889-14.222222 14.222222v98.133333c0 62.577778 51.2 113.777778 113.777777 113.777778s113.777778-51.2 113.777778-113.777778v-9.955555c0-95.288889 31.288889-126.577778 92.444445-187.733333l29.866666-29.866667c39.822222-41.244444 62.577778-96.711111 62.577778-155.022222 0-122.311111-99.555556-221.866667-221.866667-221.866667z" fill="#000000" p-id="8445"></path><path d="M512 554.666667c-8.533333 0-14.222222 5.688889-14.222222 14.222222s5.688889 14.222222 14.222222 14.222222c55.466667 0 99.555556-45.511111 99.555556-99.555555 0-49.777778-36.977778-91.022222-85.333334-98.133334 5.688889-66.844444 61.155556-119.466667 129.422222-119.466666 71.111111 0 130.844444 58.311111 130.844445 130.844444 0 8.533333 5.688889 14.222222 14.222222 14.222222s14.222222-5.688889 14.222222-14.222222c0-86.755556-71.111111-159.288889-159.288889-159.288889-88.177778 0-157.866667 71.111111-157.866666 157.866667v2.844444c0 8.533333 5.688889 14.222222 14.222222 14.222222 39.822222 0 71.111111 32.711111 71.111111 71.111112s-31.288889 71.111111-71.111111 71.111111z" fill="#000000" p-id="8446"></path></svg>