<?xml version="1.0" standalone="no"?><!DOCTYPE svg PUBLIC "-//W3C//DTD SVG 1.1//EN" "http://www.w3.org/Graphics/SVG/1.1/DTD/svg11.dtd"><svg t="1687265635061" viewBox="0 0 1024 1024" version="1.1" xmlns="http://www.w3.org/2000/svg" p-id="4662" xmlns:xlink="http://www.w3.org/1999/xlink" width="200" height="200"><path d="M837.688889 742.4H696.888889c-32.711111 0-65.422222-7.111111-95.288889-21.333333 12.8-22.755556 8.533333-52.622222-11.377778-72.533334l-126.577778-126.577777c-38.4-38.4-91.022222-59.733333-145.066666-59.733334h-45.511111c-8.533333-19.911111-28.444444-34.133333-52.622223-34.133333h-52.622222c-31.288889 0-56.888889 25.6-56.888889 56.888889v204.8c0 31.288889 25.6 56.888889 56.888889 56.888889h52.622222c19.911111 0 36.977778-9.955556 48.355556-27.022223 22.755556 7.111111 79.644444 28.444444 110.933333 59.733334l1.422223 1.422222c69.688889 69.688889 163.555556 108.088889 261.688888 108.088889h193.422223c39.822222 0 72.533333-32.711111 72.533333-72.533333 2.844444-41.244444-29.866667-73.955556-71.111111-73.955556z m-614.4-25.6H170.666667c-15.644444 0-28.444444-12.8-28.444445-28.444444V483.555556c0-15.644444 12.8-28.444444 28.444445-28.444445h52.622222c15.644444 0 28.444444 12.8 28.444444 28.444445v204.8c-1.422222 15.644444-12.8 28.444444-28.444444 28.444444z m614.4 143.644444H644.266667c-91.022222 0-176.355556-35.555556-241.777778-100.977777l-1.422222-1.422223c-36.977778-36.977778-98.133333-59.733333-122.311111-66.844444V489.244444h41.244444c46.933333 0 92.444444 18.488889 125.155556 51.2l126.577777 126.577778c12.8 12.8 12.8 34.133333 0 46.933334-12.8 12.8-34.133333 12.8-46.933333 0l-100.977778-100.977778c-5.688889-5.688889-14.222222-5.688889-19.911111 0-5.688889 5.688889-5.688889 14.222222 0 19.911111l100.977778 100.977778c21.333333 21.333333 55.466667 24.177778 79.644444 7.111111 35.555556 18.488889 73.955556 28.444444 115.2 28.444444h140.8c24.177778 0 44.088889 19.911111 44.088889 44.088889-1.422222 27.022222-21.333333 46.933333-46.933333 46.933333z m-356.977778-469.333333c8.533333 0 14.222222-5.688889 14.222222-14.222222v-5.688889h41.244445c2.844444 31.288889 15.644444 59.733333 34.133333 82.488889l-28.444444 29.866667-2.844445-2.844445c-5.688889-5.688889-14.222222-5.688889-19.911111 0-5.688889 5.688889-5.688889 14.222222 0 19.911111l27.022222 27.022222c2.844444 2.844444 7.111111 4.266667 9.955556 4.266667 2.844444 0 7.111111-1.422222 9.955555-4.266667 5.688889-5.688889 5.688889-14.222222 0-19.911111l-2.844444-2.844444 29.866667-29.866667c22.755556 18.488889 51.2 31.288889 82.488889 34.133334v41.244444h-5.688889c-8.533333 0-14.222222 5.688889-14.222223 14.222222s5.688889 14.222222 14.222223 14.222222h38.4c8.533333 0 14.222222-5.688889 14.222222-14.222222s-5.688889-14.222222-14.222222-14.222222h-5.688889v-41.244444c31.288889-2.844444 59.733333-15.644444 82.488889-34.133334l29.866666 29.866667-2.844444 2.844444c-5.688889 5.688889-5.688889 14.222222 0 19.911111 2.844444 2.844444 7.111111 4.266667 9.955555 4.266667 2.844444 0 7.111111-1.422222 9.955556-4.266667l14.222222-14.222222 14.222222-14.222222c5.688889-5.688889 5.688889-14.222222 0-19.911111-5.688889-5.688889-14.222222-5.688889-19.911111 0l-5.688889 4.266667-28.444444-28.444445c18.488889-22.755556 31.288889-51.2 34.133333-82.488889H881.777778v5.688889c0 8.533333 5.688889 14.222222 14.222222 14.222222s14.222222-5.688889 14.222222-14.222222v-38.4c0-8.533333-5.688889-14.222222-14.222222-14.222222s-14.222222 5.688889-14.222222 14.222222v5.688889h-41.244445c-2.844444-31.288889-15.644444-59.733333-34.133333-82.488889l29.866667-29.866667 2.844444 2.844445c2.844444 2.844444 7.111111 4.266667 9.955556 4.266667 2.844444 0 7.111111-1.422222 9.955555-4.266667 5.688889-5.688889 5.688889-14.222222 0-19.911111l-27.022222-27.022222c-5.688889-5.688889-14.222222-5.688889-19.911111 0-5.688889 5.688889-5.688889 14.222222 0 19.911111l2.844444 2.844444-29.866666 29.866667c-22.755556-18.488889-51.2-31.288889-82.488889-34.133334v-41.244444h5.688889c8.533333 0 14.222222-5.688889 14.222222-14.222222s-5.688889-14.222222-14.222222-14.222222h-38.4c-8.533333 0-14.222222 5.688889-14.222223 14.222222s5.688889 14.222222 14.222223 14.222222h5.688889v41.244444c-31.288889 2.844444-59.733333 15.644444-82.488889 34.133334l-29.866667-29.866667 2.844444-2.844444c5.688889-5.688889 5.688889-14.222222 0-19.911111-5.688889-5.688889-14.222222-5.688889-19.911111 0l-27.022222 27.022222c-5.688889 5.688889-5.688889 14.222222 0 19.911111 2.844444 2.844444 7.111111 4.266667 9.955556 4.266667 2.844444 0 7.111111-1.422222 9.955555-4.266667l2.844445-2.844445 29.866666 29.866667c-18.488889 22.755556-31.288889 51.2-34.133333 82.488889h-41.244444v-5.688889c0-8.533333-5.688889-14.222222-14.222223-14.222222s-14.222222 5.688889-14.222222 14.222222v38.4c-1.422222 5.688889 5.688889 12.8 12.8 12.8z m207.644445-157.866667c68.266667 0 123.733333 55.466667 123.733333 123.733334 0 68.266667-55.466667 123.733333-123.733333 123.733333-68.266667 0-123.733333-55.466667-123.733334-123.733333 0-68.266667 55.466667-123.733333 123.733334-123.733334z" fill="#000000" p-id="4663"></path><path d="M688.355556 329.955556c9.955556 0 19.911111-8.533333 19.911111-19.911112 0-9.955556-8.533333-19.911111-19.911111-19.911111-9.955556 0-19.911111 8.533333-19.911112 19.911111 1.422222 11.377778 9.955556 19.911111 19.911112 19.911112z m-38.4 78.222222c9.955556 0 19.911111-8.533333 19.911111-19.911111 0-9.955556-8.533333-19.911111-19.911111-19.911111-9.955556 0-19.911111 8.533333-19.911112 19.911111 1.422222 11.377778 9.955556 19.911111 19.911112 19.911111z m76.8 0c9.955556 0 19.911111-8.533333 19.911111-19.911111 0-9.955556-8.533333-19.911111-19.911111-19.911111-9.955556 0-19.911111 8.533333-19.911112 19.911111 1.422222 11.377778 9.955556 19.911111 19.911112 19.911111z" fill="#000000" p-id="4664"></path></svg>