<?xml version="1.0" standalone="no"?><!DOCTYPE svg PUBLIC "-//W3C//DTD SVG 1.1//EN" "http://www.w3.org/Graphics/SVG/1.1/DTD/svg11.dtd"><svg t="1687265699201" viewBox="0 0 1024 1024" version="1.1" xmlns="http://www.w3.org/2000/svg" p-id="6553" xmlns:xlink="http://www.w3.org/1999/xlink" width="200" height="200"><path d="M512 287.288889c8.533333 0 14.222222-5.688889 14.222222-14.222222V192c0-8.533333-5.688889-14.222222-14.222222-14.222222s-14.222222 5.688889-14.222222 14.222222v81.066667c0 8.533333 5.688889 14.222222 14.222222 14.222222z m184.888889 17.066667c4.266667 0 7.111111-1.422222 9.955555-4.266667l56.888889-56.888889c5.688889-5.688889 5.688889-14.222222 0-19.911111-5.688889-5.688889-14.222222-5.688889-19.911111 0l-56.888889 56.888889c-5.688889 5.688889-5.688889 14.222222 0 19.911111 2.844444 2.844444 5.688889 4.266667 9.955556 4.266667z m-379.733333-4.266667c2.844444 2.844444 7.111111 4.266667 9.955555 4.266667 2.844444 0 7.111111-1.422222 9.955556-4.266667 5.688889-5.688889 5.688889-14.222222 0-19.911111l-56.888889-56.888889c-5.688889-5.688889-14.222222-5.688889-19.911111 0-5.688889 5.688889-5.688889 14.222222 0 19.911111l56.888889 56.888889z" fill="#000000" p-id="6554"></path><path d="M705.422222 386.844444c-106.666667-106.666667-278.755556-106.666667-385.422222 0L129.422222 576l189.155556 189.155556c52.622222 52.622222 122.311111 79.644444 193.422222 79.644444s139.377778-27.022222 193.422222-79.644444l189.155556-189.155556-189.155556-189.155556z m-21.333333 358.4c-95.288889 95.288889-250.311111 95.288889-345.6 0L170.666667 576l169.244444-169.244444c95.288889-95.288889 250.311111-95.288889 345.6 0L853.333333 576 684.088889 745.244444z" fill="#000000" p-id="6555"></path><path d="M510.577778 420.977778c-86.755556 0-156.444444 69.688889-156.444445 156.444444s69.688889 156.444444 156.444445 156.444445 156.444444-69.688889 156.444444-156.444445-69.688889-156.444444-156.444444-156.444444z m0 284.444444c-71.111111 0-128-56.888889-128-128s56.888889-128 128-128 128 56.888889 128 128-56.888889 128-128 128z" fill="#000000" p-id="6556"></path><path d="M510.577778 577.422222m-49.777778 0a49.777778 49.777778 0 1 0 99.555556 0 49.777778 49.777778 0 1 0-99.555556 0Z" fill="#000000" p-id="6557"></path></svg>