<?xml version="1.0" standalone="no"?><!DOCTYPE svg PUBLIC "-//W3C//DTD SVG 1.1//EN" "http://www.w3.org/Graphics/SVG/1.1/DTD/svg11.dtd"><svg t="1687265717107" viewBox="0 0 1024 1024" version="1.1" xmlns="http://www.w3.org/2000/svg" p-id="7139" xmlns:xlink="http://www.w3.org/1999/xlink" width="200" height="200"><path d="M664.817778 375.324444l-12.216889-3.925333-3.925333-12.231111a218.353778 218.353778 0 0 1-10.012445-81.265778l57.415111 57.415111a14.151111 14.151111 0 0 0 10.055111 4.167111 14.208 14.208 0 0 0 10.055111-24.277333l-72.391111-72.405333a217.059556 217.059556 0 0 1 16.597334-46.449778l167.267555 167.253333a217.244444 217.244444 0 0 1-162.844444 11.719111z m-47.829334 214.186667c-0.270222-0.327111-0.369778-0.711111-0.668444-1.024l-181.617778-181.617778c40.675556-33.848889 95.431111-45.027556 146.545778-28.558222l48.753778 15.687111 15.701333 48.768c6.357333 19.740444 8.419556 40.035556 6.869333 59.875556l-81.848888-81.834667a14.222222 14.222222 0 0 0-20.110223 20.110222l95.36 95.345778a154.794667 154.794667 0 0 1-28.984889 53.248zM450.275556 638.193778l-48.768-15.701334-15.701334-48.782222a155.434667 155.434667 0 0 1-6.798222-62.165333l84.152889 84.167111a14.208 14.208 0 1 0 20.110222-20.110222l-97.166222-97.180445a154.410667 154.410667 0 0 1 28.458667-51.456l181.646222 181.617778c0.298667 0.327111 0.711111 0.426667 1.024 0.696889-40.704 34.119111-95.687111 45.425778-146.958222 28.913778z m-67.441778 19.128889c12.771556 39.68 13.767111 81.052444 4.081778 119.751111l-86.243556-86.215111a14.208 14.208 0 1 0-20.110222 20.110222l96.341333 96.327111a217.728 217.728 0 0 1-22.570667 41.201778c-0.455111-0.668444-0.739556-1.422222-1.322666-2.019556L175.928889 669.383111a217.073778 217.073778 0 0 1 190.776889-28.216889l12.202666 3.939556 3.939556 12.216889z m523.235555-335.402667a14.208 14.208 0 0 0-20.124444 0 218.680889 218.680889 0 0 1-33.095111 27.136c-0.369778-0.455111-0.540444-1.024-0.981334-1.450667L675.157333 170.88a219.335111 219.335111 0 0 1 26.922667-32.824889 14.208 14.208 0 1 0-20.110222-20.110222 245.504 245.504 0 0 0-62.407111 242.816l-29.582223-9.528889a182.983111 182.983111 0 0 0-186.268444 44.984889 182.983111 182.983111 0 0 0-44.984889 186.225778l9.528889 29.624889c-86.442667-25.031111-178.872889-1.564444-242.816 62.392888l-7.509333 7.523556a14.222222 14.222222 0 0 0 20.124444 20.110222l7.509333-7.537778c2.56-2.56 5.262222-4.949333 7.921778-7.367111l179.413334 179.399111c1.379556 1.379556 2.986667 2.417778 4.693333 3.114667-2.673778 2.958222-5.347556 5.902222-8.177778 8.732445l-7.509333 7.509333a14.222222 14.222222 0 0 0 20.124444 20.110222l7.509334-7.509333a245.504 245.504 0 0 0 62.407111-242.801778l29.610666 9.528889a183.04 183.04 0 0 0 186.24-44.970667 183.096889 183.096889 0 0 0 44.984889-186.254222l-9.528889-29.610667a245.418667 245.418667 0 0 0 242.801778-62.407111 14.208 14.208 0 0 0 0-20.110222z" fill="#000000" p-id="7140"></path></svg>