<?xml version="1.0" standalone="no"?><!DOCTYPE svg PUBLIC "-//W3C//DTD SVG 1.1//EN" "http://www.w3.org/Graphics/SVG/1.1/DTD/svg11.dtd"><svg t="1687265644720" viewBox="0 0 1024 1024" version="1.1" xmlns="http://www.w3.org/2000/svg" p-id="4954" xmlns:xlink="http://www.w3.org/1999/xlink" width="200" height="200"><path d="M888.888889 513.422222c-45.511111-45.511111-119.466667-45.511111-163.555556 0L527.644444 711.111111c-45.511111 45.511111-45.511111 119.466667 0 163.555556 22.755556 22.755556 52.622222 34.133333 82.488889 34.133333 29.866667 0 59.733333-11.377778 82.488889-34.133333l197.688889-197.688889c21.333333-21.333333 34.133333-51.2 34.133333-82.488889-1.422222-29.866667-12.8-59.733333-35.555555-81.066667z m-217.6 341.333334c-34.133333 34.133333-89.6 34.133333-123.733333 0-34.133333-34.133333-34.133333-89.6 0-123.733334l85.333333-85.333333c31.288889 49.777778 73.955556 92.444444 123.733333 123.733333l-85.333333 85.333334z m197.688889-197.688889l-92.444445 92.444444c-49.777778-31.288889-92.444444-73.955556-123.733333-123.733333l92.444444-92.444445c34.133333-34.133333 89.6-34.133333 123.733334 0 17.066667 17.066667 25.6 38.4 25.6 62.577778 0 22.755556-8.533333 44.088889-25.6 61.155556z m-199.111111-271.644445c0-149.333333-120.888889-270.222222-270.222223-270.222222s-270.222222 120.888889-270.222222 270.222222 120.888889 270.222222 270.222222 270.222222 270.222222-122.311111 270.222223-270.222222z m-270.222223 241.777778c-133.688889 0-241.777778-108.088889-241.777777-241.777778s108.088889-241.777778 241.777777-241.777778 241.777778 108.088889 241.777778 241.777778c0 132.266667-109.511111 241.777778-241.777778 241.777778z" fill="#000000" p-id="4955"></path><path d="M527.644444 371.2h-113.777777v-113.777778c0-8.533333-5.688889-14.222222-14.222223-14.222222s-14.222222 5.688889-14.222222 14.222222v128c0 8.533333 5.688889 14.222222 14.222222 14.222222h128c8.533333 0 14.222222-5.688889 14.222223-14.222222s-7.111111-14.222222-14.222223-14.222222z" fill="#000000" p-id="4956"></path></svg>