<?xml version="1.0" standalone="no"?><!DOCTYPE svg PUBLIC "-//W3C//DTD SVG 1.1//EN" "http://www.w3.org/Graphics/SVG/1.1/DTD/svg11.dtd"><svg t="1687265550309" viewBox="0 0 1024 1024" version="1.1" xmlns="http://www.w3.org/2000/svg" p-id="2182" xmlns:xlink="http://www.w3.org/1999/xlink" width="200" height="200"><path d="M851.911111 512c0-105.244444-86.755556-192-192-192-21.333333 0-41.244444 2.844444-59.733333 9.955556L466.488889 128c-5.688889-8.533333-18.488889-8.533333-24.177778 0L219.022222 460.8c-75.377778 112.355556-59.733333 263.111111 35.555556 358.4 55.466667 55.466667 128 82.488889 200.533333 82.488889s145.066667-27.022222 200.533333-82.488889c34.133333-34.133333 59.733333-78.222222 72.533334-125.155556v-1.422222c72.533333-28.444444 123.733333-98.133333 123.733333-180.622222zM634.311111 799.288889c-99.555556 99.555556-260.266667 99.555556-359.822222 0-85.333333-85.333333-99.555556-220.444444-31.288889-321.422222L455.111111 162.133333 574.577778 341.333333c-62.577778 31.288889-106.666667 96.711111-106.666667 172.088889 0 105.244444 86.755556 192 192 192 11.377778 0 24.177778-1.422222 35.555556-2.844444-12.8 35.555556-32.711111 68.266667-61.155556 96.711111z m25.6-123.733333c-89.6 0-163.555556-73.955556-163.555555-163.555556s73.955556-163.555556 163.555555-163.555556S823.466667 422.4 823.466667 512s-72.533333 163.555556-163.555556 163.555556z" fill="#000000" p-id="2183"></path><path d="M590.222222 430.933333c-31.288889 0-56.888889 25.6-56.888889 56.888889v88.177778c0 8.533333 5.688889 14.222222 14.222223 14.222222s14.222222-5.688889 14.222222-14.222222v-45.511111h58.311111v45.511111c0 8.533333 5.688889 14.222222 14.222222 14.222222s14.222222-5.688889 14.222222-14.222222v-88.177778c-1.422222-31.288889-27.022222-56.888889-58.311111-56.888889z m-29.866666 72.533334v-15.644445c0-15.644444 12.8-28.444444 28.444444-28.444444s28.444444 12.8 28.444444 28.444444v15.644445h-56.888888z m231.822222-17.066667c0-25.6-19.911111-45.511111-45.511111-45.511111h-58.311111c-8.533333 0-14.222222 5.688889-14.222223 14.222222v125.155556c0 8.533333 5.688889 14.222222 14.222223 14.222222h58.311111c25.6 0 45.511111-19.911111 45.511111-45.511111 0-11.377778-4.266667-22.755556-12.8-31.288889 8.533333-8.533333 12.8-19.911111 12.8-31.288889zM702.577778 469.333333h44.088889c9.955556 0 17.066667 7.111111 17.066666 17.066667s-7.111111 17.066667-17.066666 17.066667h-44.088889V469.333333z m44.088889 95.288889h-44.088889v-34.133333h44.088889c9.955556 0 17.066667 7.111111 17.066666 17.066667s-7.111111 17.066667-17.066666 17.066666z" fill="#000000" p-id="2184"></path></svg>