<?xml version="1.0" standalone="no"?><!DOCTYPE svg PUBLIC "-//W3C//DTD SVG 1.1//EN" "http://www.w3.org/Graphics/SVG/1.1/DTD/svg11.dtd"><svg t="1687265665198" viewBox="0 0 1024 1024" version="1.1" xmlns="http://www.w3.org/2000/svg" p-id="5536" xmlns:xlink="http://www.w3.org/1999/xlink" width="200" height="200"><path d="M512 513.422222c115.2 0 210.488889-93.866667 210.488889-210.488889 0-27.022222-5.688889-52.622222-14.222222-76.8v-1.422222c-31.288889-78.222222-106.666667-132.266667-194.844445-132.266667-115.2 0-210.488889 93.866667-210.488889 210.488889 0 116.622222 92.444444 210.488889 209.066667 210.488889z m0-392.533333c69.688889 0 129.422222 38.4 160.711111 95.288889h-139.377778c-7.111111-29.866667-34.133333-52.622222-66.844444-52.622222-32.711111 0-59.733333 22.755556-66.844445 52.622222h-46.933333c29.866667-55.466667 89.6-95.288889 159.288889-95.288889z m-46.933333 71.111111c22.755556 0 39.822222 18.488889 39.822222 39.822222 0 21.333333-18.488889 39.822222-39.822222 39.822222-21.333333 0-39.822222-18.488889-39.822223-39.822222 0-21.333333 17.066667-39.822222 39.822223-39.822222z m-126.577778 54.044444h58.311111c5.688889 31.288889 34.133333 55.466667 66.844444 55.466667 32.711111 0 61.155556-24.177778 66.844445-55.466667H682.666667c5.688889 18.488889 9.955556 36.977778 9.955555 56.888889 0 99.555556-81.066667 182.044444-182.044444 182.044445-100.977778 0-182.044444-81.066667-182.044445-182.044445 1.422222-19.911111 4.266667-39.822222 9.955556-56.888889z" fill="#000000" p-id="5537"></path><path d="M723.911111 490.666667h-28.444444c-15.644444 0-28.444444 8.533333-36.977778 21.333333l-125.155556 176.355556c-5.688889 7.111111-14.222222 11.377778-22.755555 11.377777-9.955556 0-18.488889-4.266667-22.755556-11.377777L362.666667 512c-7.111111-12.8-21.333333-21.333333-36.977778-21.333333h-28.444445c-102.4 0-184.888889 82.488889-184.888888 184.888889v241.777777c0 8.533333 5.688889 14.222222 14.222222 14.222223h768c8.533333 0 14.222222-5.688889 14.222222-14.222223v-241.777777c1.422222-100.977778-82.488889-184.888889-184.888889-184.888889z m157.866667 412.444444H142.222222v-227.555555c0-86.755556 69.688889-156.444444 156.444445-156.444445h28.444444c5.688889 0 9.955556 2.844444 12.8 7.111111 0 0 0 1.422222 1.422222 1.422222l125.155556 177.777778c9.955556 15.644444 28.444444 24.177778 46.933333 24.177778 18.488889 0 35.555556-8.533333 46.933334-24.177778l125.155555-177.777778s0-1.422222 1.422222-1.422222c2.844444-4.266667 7.111111-7.111111 12.8-7.111111h28.444445c86.755556 0 156.444444 69.688889 156.444444 156.444445v227.555555H881.777778z" fill="#000000" p-id="5538"></path><path d="M810.666667 753.777778h-49.777778v-49.777778c0-8.533333-5.688889-14.222222-14.222222-14.222222s-14.222222 5.688889-14.222223 14.222222V753.777778H682.666667c-8.533333 0-14.222222 5.688889-14.222223 14.222222s5.688889 14.222222 14.222223 14.222222h49.777777v49.777778c0 8.533333 5.688889 14.222222 14.222223 14.222222s14.222222-5.688889 14.222222-14.222222V782.222222H810.666667c8.533333 0 14.222222-5.688889 14.222222-14.222222s-7.111111-14.222222-14.222222-14.222222z" fill="#000000" p-id="5539"></path></svg>