<?xml version="1.0" standalone="no"?><!DOCTYPE svg PUBLIC "-//W3C//DTD SVG 1.1//EN" "http://www.w3.org/Graphics/SVG/1.1/DTD/svg11.dtd"><svg t="1687265654239" viewBox="0 0 1024 1024" version="1.1" xmlns="http://www.w3.org/2000/svg" p-id="5246" xmlns:xlink="http://www.w3.org/1999/xlink" width="200" height="200"><path d="M904.533333 837.688889L874.666667 782.222222c-4.266667-8.533333-19.911111-8.533333-25.6 0l-29.866667 55.466667c-9.955556 18.488889-7.111111 42.666667 8.533333 58.311111 9.955556 9.955556 21.333333 14.222222 34.133334 14.222222 12.8 0 25.6-4.266667 34.133333-14.222222 15.644444-15.644444 18.488889-39.822222 8.533333-58.311111z m-28.444444 36.977778c-8.533333 8.533333-21.333333 8.533333-28.444445 0-5.688889-5.688889-7.111111-15.644444-2.844444-24.177778l18.488889-32.711111 18.488889 32.711111c1.422222 8.533333 0 18.488889-5.688889 24.177778z m-78.222222-142.222223l-28.444445-28.444444c2.844444-25.6-7.111111-52.622222-27.022222-72.533333L499.2 386.844444l36.977778-36.977777c14.222222-14.222222 21.333333-32.711111 21.333333-52.622223 0-19.911111-7.111111-38.4-21.333333-52.622222-27.022222-27.022222-68.266667-28.444444-98.133334-7.111111L356.977778 156.444444C301.511111 100.977778 211.911111 100.977778 156.444444 156.444444c-28.444444 27.022222-42.666667 62.577778-42.666666 100.977778 0 38.4 14.222222 73.955556 41.244444 100.977778l81.066667 81.066667c-22.755556 29.866667-19.911111 71.111111 7.111111 98.133333 14.222222 14.222222 34.133333 21.333333 52.622222 21.333333 18.488889 0 38.4-7.111111 52.622222-21.333333l35.555556-35.555556 244.622222 244.622223c21.333333 21.333333 51.2 31.288889 78.222222 27.022222l25.6 25.6c9.955556 9.955556 21.333333 14.222222 34.133334 15.644444h2.844444c11.377778 0 22.755556-4.266667 31.288889-12.8 18.488889-19.911111 17.066667-49.777778-2.844444-69.688889zM174.933333 176.355556c44.088889-44.088889 116.622222-44.088889 160.711111 0l81.066667 81.066666L256 418.133333l-81.066667-81.066666c-44.088889-44.088889-44.088889-116.622222 0-160.711111z m153.6 339.911111c-18.488889 18.488889-46.933333 18.488889-65.422222 0-18.488889-18.488889-18.488889-46.933333 0-65.422223l2.844445-2.844444 180.622222-180.622222 2.844444-2.844445c18.488889-18.488889 46.933333-18.488889 65.422222 0 8.533333 8.533333 14.222222 19.911111 14.222223 32.711111 0 12.8-4.266667 24.177778-14.222223 32.711112L328.533333 516.266667z m452.266667 264.533333c-2.844444 2.844444-7.111111 4.266667-12.8 4.266667s-11.377778-2.844444-15.644444-7.111111c-31.288889-31.288889-35.555556-35.555556-41.244445-35.555556h-2.844444-1.422223c-19.911111 5.688889-42.666667-1.422222-58.311111-18.488889l-243.2-241.777778 73.955556-73.955555 55.466667 55.466666-34.133334 34.133334c-5.688889 5.688889-5.688889 14.222222 0 19.911111 2.844444 2.844444 7.111111 4.266667 9.955556 4.266667 2.844444 0 7.111111-1.422222 9.955555-4.266667L554.666667 483.555556l55.466666 55.466666-34.133333 34.133334c-5.688889 5.688889-5.688889 14.222222 0 19.911111 2.844444 2.844444 7.111111 4.266667 9.955556 4.266666 2.844444 0 7.111111-1.422222 9.955555-4.266666l34.133333-34.133334 55.466667 55.466667-34.133333 34.133333c-5.688889 5.688889-5.688889 14.222222 0 19.911111 2.844444 2.844444 7.111111 4.266667 9.955555 4.266667 2.844444 0 7.111111-1.422222 9.955556-4.266667l34.133333-34.133333 17.066667 17.066667c15.644444 15.644444 22.755556 36.977778 18.488889 55.466666-1.422222 4.266667 0 9.955556 4.266666 12.8l32.711112 32.711112c8.533333 8.533333 9.955556 21.333333 2.844444 28.444444z" fill="#000000" p-id="5247"></path></svg>