<?xml version="1.0" standalone="no"?><!DOCTYPE svg PUBLIC "-//W3C//DTD SVG 1.1//EN" "http://www.w3.org/Graphics/SVG/1.1/DTD/svg11.dtd"><svg t="1687265649417" viewBox="0 0 1024 1024" version="1.1" xmlns="http://www.w3.org/2000/svg" p-id="5100" xmlns:xlink="http://www.w3.org/1999/xlink" width="200" height="200"><path d="M896 128H128c-8.533333 0-14.222222 5.688889-14.222222 14.222222s5.688889 14.222222 14.222222 14.222222h113.777778v725.333334c0 24.177778 18.488889 42.666667 42.666666 42.666666h455.111112c24.177778 0 42.666667-18.488889 42.666666-42.666666V156.444444h113.777778c8.533333 0 14.222222-5.688889 14.222222-14.222222 0-7.111111-5.688889-14.222222-14.222222-14.222222zM753.777778 881.777778c0 8.533333-5.688889 14.222222-14.222222 14.222222H284.444444c-8.533333 0-14.222222-5.688889-14.222222-14.222222V156.444444h483.555556v725.333334z" fill="#000000" p-id="5101"></path><path d="M419.555556 476.444444h184.888888c8.533333 0 14.222222-5.688889 14.222223-14.222222s-5.688889-14.222222-14.222223-14.222222h-170.666666V384h170.666666c8.533333 0 14.222222-5.688889 14.222223-14.222222s-5.688889-14.222222-14.222223-14.222222h-170.666666v-64h170.666666c8.533333 0 14.222222-5.688889 14.222223-14.222223s-5.688889-14.222222-14.222223-14.222222h-184.888888c-8.533333 0-14.222222 5.688889-14.222223 14.222222v184.888889c0 8.533333 5.688889 14.222222 14.222223 14.222222zM355.555556 740.977778c8.533333 0 14.222222-5.688889 14.222222-14.222222v-42.666667h56.888889c8.533333 0 14.222222-5.688889 14.222222-14.222222s-5.688889-14.222222-14.222222-14.222223h-56.888889v-28.444444h85.333333c8.533333 0 14.222222-5.688889 14.222222-14.222222s-5.688889-14.222222-14.222222-14.222222h-99.555555c-8.533333 0-14.222222 5.688889-14.222223 14.222222v113.777778c0 7.111111 5.688889 14.222222 14.222223 14.222222z m213.333333-128v113.777778c0 8.533333 5.688889 14.222222 14.222222 14.222222s14.222222-5.688889 14.222222-14.222222v-42.666667h56.888889c24.177778 0 42.666667-18.488889 42.666667-42.666667s-18.488889-42.666667-42.666667-42.666666h-71.111111c-8.533333 0-14.222222 5.688889-14.222222 14.222222z m28.444444 14.222222h56.888889c8.533333 0 14.222222 5.688889 14.222222 14.222222s-5.688889 14.222222-14.222222 14.222222h-56.888889v-28.444444z" fill="#000000" p-id="5102"></path></svg>