<?xml version="1.0" standalone="no"?><!DOCTYPE svg PUBLIC "-//W3C//DTD SVG 1.1//EN" "http://www.w3.org/Graphics/SVG/1.1/DTD/svg11.dtd"><svg t="1687265695029" viewBox="0 0 1024 1024" version="1.1" xmlns="http://www.w3.org/2000/svg" p-id="6407" xmlns:xlink="http://www.w3.org/1999/xlink" width="200" height="200"><path d="M753.777778 301.511111c4.266667 0 7.111111-1.422222 9.955555-4.266667l81.066667-81.066666c5.688889-5.688889 5.688889-14.222222 0-19.911111-5.688889-5.688889-14.222222-5.688889-19.911111 0l-81.066667 81.066666c-5.688889 5.688889-5.688889 14.222222 0 19.911111 2.844444 2.844444 5.688889 4.266667 9.955556 4.266667zM905.955556 355.555556h-71.111112c-8.533333 0-14.222222 5.688889-14.222222 14.222222s5.688889 14.222222 14.222222 14.222222h71.111112c8.533333 0 14.222222-5.688889 14.222222-14.222222s-5.688889-14.222222-14.222222-14.222222z m-234.666667-135.111112c8.533333 0 14.222222-5.688889 14.222222-14.222222v-71.111111c0-8.533333-5.688889-14.222222-14.222222-14.222222s-14.222222 5.688889-14.222222 14.222222v71.111111c0 7.111111 7.111111 14.222222 14.222222 14.222222z m-137.955556-44.088888c-15.644444-15.644444-44.088889-15.644444-61.155555 0L440.888889 209.066667c-82.488889 82.488889-102.4 204.8-61.155556 304.355555L189.155556 704l-27.022223 27.022222c-18.488889 18.488889-29.866667 44.088889-29.866666 71.111111s9.955556 52.622222 29.866666 71.111111c19.911111 19.911111 45.511111 29.866667 71.111111 29.866667 25.6 0 51.2-9.955556 71.111112-29.866667l216.177777-216.177777c32.711111 14.222222 66.844444 21.333333 103.822223 22.755555h5.688888c72.533333 0 140.8-28.444444 193.422223-79.644444l36.977777-36.977778c8.533333-8.533333 12.8-18.488889 12.8-29.866667s-4.266667-22.755556-12.8-29.866666l-327.111111-327.111111zM182.044444 853.333333c-14.222222-14.222222-21.333333-31.288889-21.333333-51.2s7.111111-36.977778 21.333333-51.2l17.066667-17.066666 102.4 102.4L284.444444 853.333333c-28.444444 28.444444-73.955556 28.444444-102.4 0z m139.377778-36.977777l-102.4-102.4L392.533333 540.444444c9.955556 18.488889 22.755556 35.555556 36.977778 51.2 19.911111 21.333333 41.244444 38.4 65.422222 51.2L321.422222 816.355556z m302.933334-164.977778c-66.844444-1.422222-129.422222-28.444444-174.933334-78.222222-82.488889-89.6-83.911111-230.4-5.688889-325.688889l344.177778 344.177777c-45.511111 38.4-102.4 59.733333-163.555555 59.733334zM839.111111 541.866667l-29.866667 29.866666-347.022222-345.6 29.866667-29.866666c2.844444-2.844444 5.688889-4.266667 9.955555-4.266667 4.266667 0 7.111111 1.422222 9.955556 4.266667l327.111111 324.266666c2.844444 2.844444 4.266667 7.111111 4.266667 9.955556 0 4.266667-1.422222 8.533333-4.266667 11.377778z" fill="#000000" p-id="6408"></path><path d="M379.733333 641.422222l-54.044444 54.044445c-5.688889 5.688889-5.688889 14.222222 0 19.911111 2.844444 2.844444 7.111111 4.266667 9.955555 4.266666 2.844444 0 7.111111-1.422222 9.955556-4.266666l54.044444-54.044445c5.688889-5.688889 5.688889-14.222222 0-19.911111-5.688889-5.688889-14.222222-5.688889-19.911111 0z" fill="#000000" p-id="6409"></path></svg>