<?xml version="1.0" standalone="no"?><!DOCTYPE svg PUBLIC "-//W3C//DTD SVG 1.1//EN" "http://www.w3.org/Graphics/SVG/1.1/DTD/svg11.dtd"><svg t="1687265703825" viewBox="0 0 1024 1024" version="1.1" xmlns="http://www.w3.org/2000/svg" p-id="6701" xmlns:xlink="http://www.w3.org/1999/xlink" width="200" height="200"><path d="M445.155556 135.111111h-27.022223C264.533333 135.111111 140.8 258.844444 140.8 412.444444v41.244445c0 8.533333 5.688889 14.222222 14.222222 14.222222s14.222222-5.688889 14.222222-14.222222V412.444444c0-136.533333 110.933333-248.888889 248.888889-248.888888h27.022223c112.355556 0 204.8 92.444444 204.8 204.8 0 54.044444-19.911111 103.822222-58.311112 142.222222l-31.288888 31.288889c-65.422222 65.422222-105.244444 105.244444-105.244445 217.6v9.955555c0 49.777778-39.822222 89.6-89.6 89.6s-89.6-39.822222-89.6-89.6v-103.822222c0-8.533333-5.688889-14.222222-14.222222-14.222222s-14.222222 5.688889-14.222222 14.222222v103.822222c0 65.422222 52.622222 118.044444 118.044444 118.044445 65.422222 0 118.044444-52.622222 118.044445-118.044445v-9.955555c0-100.977778 32.711111-133.688889 98.133333-197.688889l31.288889-31.288889c42.666667-44.088889 65.422222-100.977778 65.422222-162.133333 0-129.422222-105.244444-233.244444-233.244444-233.244445z" fill="#000000" p-id="6702"></path><path d="M260.266667 557.511111c-8.533333 0-14.222222 5.688889-14.222223 14.222222s5.688889 14.222222 14.222223 14.222223c58.311111 0 103.822222-46.933333 103.822222-103.822223 0-52.622222-38.4-96.711111-89.6-103.822222 5.688889-71.111111 65.422222-126.577778 137.955555-126.577778 75.377778 0 137.955556 61.155556 137.955556 137.955556 0 8.533333 5.688889 14.222222 14.222222 14.222222s14.222222-5.688889 14.222222-14.222222c0-91.022222-73.955556-166.4-166.4-166.4-92.444444 0-166.4 73.955556-166.4 166.4v2.844444c0 8.533333 5.688889 14.222222 14.222223 14.222223 41.244444 0 75.377778 34.133333 75.377777 75.377777s-32.711111 75.377778-75.377777 75.377778z m608.711111 73.955556h-113.777778c-8.533333 0-14.222222 5.688889-14.222222 14.222222s5.688889 14.222222 14.222222 14.222222h113.777778c8.533333 0 14.222222-5.688889 14.222222-14.222222s-5.688889-14.222222-14.222222-14.222222z m-103.822222 118.044444c-5.688889-5.688889-14.222222-5.688889-19.911112 0-5.688889 5.688889-5.688889 14.222222 0 19.911111l49.777778 49.777778c2.844444 2.844444 7.111111 4.266667 9.955556 4.266667 2.844444 0 7.111111-1.422222 9.955555-4.266667 5.688889-5.688889 5.688889-14.222222 0-19.911111l-49.777777-49.777778z m-9.955556-204.8c4.266667 0 7.111111-1.422222 9.955556-4.266667l49.777777-49.777777c5.688889-5.688889 5.688889-14.222222 0-19.911111-5.688889-5.688889-14.222222-5.688889-19.911111 0l-49.777778 49.777777c-5.688889 5.688889-5.688889 14.222222 0 19.911111 2.844444 2.844444 5.688889 4.266667 9.955556 4.266667z" fill="#000000" p-id="6703"></path></svg>