<?xml version="1.0" standalone="no"?><!DOCTYPE svg PUBLIC "-//W3C//DTD SVG 1.1//EN" "http://www.w3.org/Graphics/SVG/1.1/DTD/svg11.dtd"><svg t="1687265690334" viewBox="0 0 1024 1024" version="1.1" xmlns="http://www.w3.org/2000/svg" p-id="6264" xmlns:xlink="http://www.w3.org/1999/xlink" width="200" height="200"><path d="M466.488889 194.844444c27.022222 0 49.777778-22.755556 49.777778-49.777777s-22.755556-49.777778-49.777778-49.777778-49.777778 22.755556-49.777778 49.777778 21.333333 49.777778 49.777778 49.777777z m0-71.111111c11.377778 0 21.333333 9.955556 21.333333 21.333334s-9.955556 21.333333-21.333333 21.333333-21.333333-9.955556-21.333333-21.333333 9.955556-21.333333 21.333333-21.333334z m312.888889 698.311111L594.488889 540.444444c-7.111111-14.222222-11.377778-29.866667-11.377778-45.511111l-1.422222-180.622222c15.644444-7.111111 27.022222-22.755556 27.022222-41.244444 0-25.6-21.333333-46.933333-46.933333-46.933334h-98.133334c-25.6 0-46.933333 21.333333-46.933333 46.933334 0 17.066667 9.955556 32.711111 24.177778 41.244444v180.622222c0 15.644444-4.266667 32.711111-11.377778 45.511111l-184.888889 283.022223c-11.377778 22.755556-11.377778 48.355556 1.422222 69.688889 12.8 21.333333 35.555556 34.133333 61.155556 34.133333h409.6c25.6 0 48.355556-12.8 61.155556-34.133333 12.8-21.333333 12.8-46.933333 1.422222-71.111112zM463.644444 256h98.133334c9.955556 0 18.488889 8.533333 18.488889 18.488889 0 9.955556-8.533333 18.488889-18.488889 18.488889h-98.133334c-9.955556 0-18.488889-8.533333-18.488888-18.488889 0-11.377778 8.533333-18.488889 18.488888-18.488889zM455.111111 554.666667c9.955556-18.488889 14.222222-38.4 14.222222-59.733334v-18.488889h42.666667c8.533333 0 14.222222-5.688889 14.222222-14.222222s-5.688889-14.222222-14.222222-14.222222h-42.666667v-38.4h42.666667c8.533333 0 14.222222-5.688889 14.222222-14.222222s-5.688889-14.222222-14.222222-14.222222h-42.666667v-62.577778h82.488889l2.844445 177.777778c0 19.911111 5.688889 39.822222 15.644444 59.733333l85.333333 129.422222c-49.777778-14.222222-102.4-8.533333-149.333333 15.644445-46.933333 24.177778-100.977778 27.022222-150.755555 5.688888L455.111111 554.666667z m298.666667 324.266666c-7.111111 12.8-21.333333 19.911111-36.977778 19.911111H307.2c-15.644444 0-28.444444-7.111111-36.977778-19.911111-7.111111-12.8-8.533333-28.444444-1.422222-41.244444l69.688889-106.666667 1.422222 1.422222c27.022222 11.377778 54.044444 17.066667 82.488889 17.066667 32.711111 0 65.422222-8.533333 95.288889-24.177778 48.355556-25.6 103.822222-27.022222 153.6-5.688889l8.533333 4.266667 73.955556 112.355556c7.111111 14.222222 7.111111 29.866667 0 42.666666zM577.422222 192c8.533333-8.533333 8.533333-21.333333 0-29.866667-8.533333-8.533333-21.333333-8.533333-29.866666 0-8.533333 8.533333-8.533333 21.333333 0 29.866667 8.533333 8.533333 21.333333 8.533333 29.866666 0z" fill="#000000" p-id="6265"></path></svg>