<?xml version="1.0" standalone="no"?><!DOCTYPE svg PUBLIC "-//W3C//DTD SVG 1.1//EN" "http://www.w3.org/Graphics/SVG/1.1/DTD/svg11.dtd"><svg t="1687265686385" viewBox="0 0 1024 1024" version="1.1" xmlns="http://www.w3.org/2000/svg" p-id="6119" xmlns:xlink="http://www.w3.org/1999/xlink" width="200" height="200"><path d="M864.711111 588.8l-123.733333-71.111111 126.577778-64c28.444444-14.222222 39.822222-49.777778 25.6-78.222222l-46.933334-92.444445c-14.222222-28.444444-49.777778-39.822222-78.222222-25.6l-147.911111 75.377778V167.822222c0-31.288889-25.6-58.311111-58.311111-58.311111h-103.822222c-31.288889 0-58.311111 25.6-58.311112 58.311111v153.6l-133.688888-76.8c-27.022222-15.644444-62.577778-7.111111-79.644445 21.333334L137.955556 355.555556c-15.644444 27.022222-7.111111 62.577778 21.333333 79.644444l123.733333 71.111111-126.577778 64c-14.222222 7.111111-24.177778 18.488889-28.444444 34.133333-4.266667 15.644444-2.844444 29.866667 2.844444 44.088889l46.933334 92.444445c7.111111 14.222222 18.488889 24.177778 34.133333 28.444444 14.222222 4.266667 29.866667 4.266667 44.088889-2.844444l147.911111-75.377778v164.977778c0 31.288889 25.6 58.311111 58.311111 58.311111h103.822222c31.288889 0 58.311111-25.6 58.311112-58.311111V701.155556l133.688888 76.8c12.8 7.111111 28.444444 9.955556 44.088889 5.688888 15.644444-4.266667 27.022222-14.222222 35.555556-27.022222l51.2-89.6c12.8-27.022222 2.844444-62.577778-24.177778-78.222222z m-2.844444 65.422222L810.666667 743.822222c-4.266667 7.111111-9.955556 11.377778-18.488889 14.222222-8.533333 2.844444-15.644444 1.422222-22.755556-2.844444l-155.022222-89.6c-4.266667-2.844444-9.955556-2.844444-14.222222 0-4.266667 2.844444-7.111111 7.111111-7.111111 12.8v179.2c0 15.644444-12.8 29.866667-29.866667 29.866667h-103.822222c-15.644444 0-29.866667-12.8-29.866667-29.866667V667.022222c0-4.266667-2.844444-9.955556-7.111111-12.8-2.844444-1.422222-4.266667-1.422222-7.111111-1.422222s-4.266667 0-7.111111 1.422222l-167.822222 85.333334c-7.111111 4.266667-15.644444 4.266667-22.755556 1.422222-7.111111-2.844444-14.222222-7.111111-17.066667-14.222222l-46.933333-92.444445c-4.266667-7.111111-4.266667-15.644444-1.422222-22.755555 2.844444-7.111111 7.111111-14.222222 14.222222-17.066667l150.755556-76.8c4.266667-2.844444 7.111111-7.111111 7.111111-12.8s-2.844444-9.955556-7.111111-12.8L170.666667 408.177778c-14.222222-8.533333-18.488889-25.6-11.377778-39.822222l51.2-89.6c8.533333-14.222222 25.6-18.488889 39.822222-11.377778l155.022222 89.6c4.266667 2.844444 9.955556 2.844444 14.222223 0 4.266667-2.844444 7.111111-7.111111 7.111111-12.8V167.822222c0-15.644444 12.8-29.866667 29.866666-29.866666h103.822223c15.644444 0 29.866667 12.8 29.866666 29.866666V355.555556c0 4.266667 2.844444 9.955556 7.111111 12.8 4.266667 2.844444 9.955556 2.844444 14.222223 0l167.822222-85.333334c14.222222-7.111111 32.711111-1.422222 39.822222 12.8l46.933333 92.444445c7.111111 14.222222 1.422222 32.711111-12.8 39.822222l-150.755555 76.8c-4.266667 2.844444-7.111111 7.111111-7.111111 12.8s2.844444 9.955556 7.111111 12.8l146.488889 83.911111c15.644444 7.111111 19.911111 25.6 12.8 39.822222z" fill="#000000" p-id="6120"></path></svg>