<?xml version="1.0" standalone="no"?><!DOCTYPE svg PUBLIC "-//W3C//DTD SVG 1.1//EN" "http://www.w3.org/Graphics/SVG/1.1/DTD/svg11.dtd"><svg t="1687265521883" viewBox="0 0 1024 1024" version="1.1" xmlns="http://www.w3.org/2000/svg" p-id="1891" xmlns:xlink="http://www.w3.org/1999/xlink" width="200" height="200"><path d="M785.066667 755.2V512c0-147.911111-120.888889-268.8-268.8-268.8h-1.422223c-147.911111 0-268.8 120.888889-268.8 268.8v241.777778c-73.955556 4.266667-132.266667 66.844444-132.266666 142.222222 0 8.533333 5.688889 14.222222 14.222222 14.222222h770.844444c8.533333 0 14.222222-5.688889 14.222223-14.222222-1.422222-72.533333-56.888889-133.688889-128-140.8z m-270.222223-483.555556h1.422223c132.266667 0 240.355556 108.088889 240.355555 240.355556v241.777778H530.488889v-75.377778c39.822222-7.111111 71.111111-41.244444 71.111111-83.911111 0-46.933333-38.4-85.333333-85.333333-85.333333s-85.333333 38.4-85.333334 85.333333c0 42.666667 31.288889 76.8 71.111111 83.911111V753.777778H273.066667V512c0-132.266667 108.088889-240.355556 241.777777-240.355556z m1.422223 379.733334c-31.288889 0-56.888889-25.6-56.888889-56.888889s25.6-56.888889 56.888889-56.888889 56.888889 25.6 56.888889 56.888889-25.6 56.888889-56.888889 56.888889zM140.8 881.777778c7.111111-55.466667 55.466667-99.555556 112.355556-99.555556H768c58.311111 0 105.244444 44.088889 112.355556 99.555556h-739.555556z m374.044444-658.488889c8.533333 0 14.222222-5.688889 14.222223-14.222222V128c0-8.533333-5.688889-14.222222-14.222223-14.222222s-14.222222 5.688889-14.222222 14.222222v81.066667c0 7.111111 7.111111 14.222222 14.222222 14.222222z m287.288889 143.644444c2.844444 0 4.266667 0 7.111111-1.422222l69.688889-39.822222c7.111111-4.266667 8.533333-12.8 5.688889-19.911111-4.266667-7.111111-12.8-8.533333-19.911111-5.688889L795.022222 341.333333c-7.111111 4.266667-8.533333 12.8-5.688889 19.911111 2.844444 4.266667 7.111111 5.688889 12.8 5.688889z m-648.533333-41.244444l69.688889 39.822222c2.844444 1.422222 4.266667 1.422222 7.111111 1.422222 4.266667 0 9.955556-2.844444 12.8-7.111111 4.266667-7.111111 1.422222-15.644444-5.688889-19.911111l-69.688889-39.822222c-7.111111-4.266667-15.644444-1.422222-19.911111 5.688889-4.266667 7.111111-1.422222 15.644444 5.688889 19.911111z m540.444444-86.755556c4.266667 0 7.111111-1.422222 9.955556-4.266666l56.888889-56.888889c5.688889-5.688889 5.688889-14.222222 0-19.911111-5.688889-5.688889-14.222222-5.688889-19.911111 0l-56.888889 56.888889c-5.688889 5.688889-5.688889 14.222222 0 19.911111 2.844444 2.844444 5.688889 4.266667 9.955555 4.266666z m-378.311111-2.844444c2.844444 2.844444 7.111111 4.266667 9.955556 4.266667 2.844444 0 7.111111-1.422222 9.955555-4.266667 5.688889-5.688889 5.688889-14.222222 0-19.911111l-56.888888-56.888889c-5.688889-5.688889-14.222222-5.688889-19.911112 0-5.688889 5.688889-5.688889 14.222222 0 19.911111l56.888889 56.888889z" fill="#000000" p-id="1892"></path></svg>