<?xml version="1.0" standalone="no"?><!DOCTYPE svg PUBLIC "-//W3C//DTD SVG 1.1//EN" "http://www.w3.org/Graphics/SVG/1.1/DTD/svg11.dtd"><svg t="1687265658533" viewBox="0 0 1024 1024" version="1.1" xmlns="http://www.w3.org/2000/svg" p-id="5391" xmlns:xlink="http://www.w3.org/1999/xlink" width="200" height="200"><path d="M898.844444 634.311111v-2.844444l-119.466666-412.444445c-7.111111-25.6-28.444444-45.511111-54.044445-52.622222-27.022222-7.111111-54.044444 1.422222-72.533333 19.911111-5.688889 5.688889-5.688889 14.222222 0 19.911111 5.688889 5.688889 14.222222 5.688889 19.911111 0 11.377778-11.377778 28.444444-17.066667 45.511111-12.8 17.066667 4.266667 29.866667 17.066667 34.133334 32.711111l110.933333 381.155556c-5.688889-1.422222-11.377778-2.844444-18.488889-2.844445H634.311111c-19.911111 0-38.4 8.533333-51.2 24.177778-7.111111 8.533333-11.377778 18.488889-12.8 28.444445-36.977778-17.066667-79.644444-17.066667-116.622222 0-1.422222-9.955556-5.688889-19.911111-12.8-27.022223a65.422222 65.422222 0 0 0-51.2-24.177777H179.2c-5.688889 0-11.377778 1.422222-18.488889 2.844444L271.644444 227.555556c4.266667-15.644444 17.066667-28.444444 34.133334-32.711112 17.066667-4.266667 34.133333 0 45.511111 12.8 5.688889 5.688889 14.222222 5.688889 19.911111 0 5.688889-5.688889 5.688889-14.222222 0-19.911111-18.488889-19.911111-46.933333-27.022222-72.533333-19.911111-27.022222 7.111111-46.933333 25.6-54.044445 52.622222L126.577778 627.2v5.688889c-8.533333 12.8-12.8 28.444444-11.377778 44.088889l14.222222 128c4.266667 32.711111 31.288889 58.311111 65.422222 58.311111h167.822223c31.288889 0 56.888889-21.333333 64-51.2l27.022222-122.311111c36.977778-24.177778 83.911111-22.755556 119.466667 1.422222l27.022222 120.888889c7.111111 29.866667 32.711111 51.2 64 51.2h167.822222c32.711111 0 61.155556-25.6 65.422222-58.311111l14.222222-128c0-15.644444-4.266667-31.288889-12.8-42.666667z m-502.044444 170.666667c-4.266667 17.066667-18.488889 28.444444-35.555556 28.444444H193.422222c-18.488889 0-34.133333-14.222222-36.977778-32.711111l-14.222222-128c-1.422222-9.955556 1.422222-21.333333 8.533334-28.444444s17.066667-12.8 27.022222-12.8h210.488889c11.377778 0 21.333333 5.688889 28.444444 14.222222s9.955556 19.911111 7.111111 31.288889l-27.022222 128z m483.555556-132.266667l-14.222223 128c-1.422222 18.488889-18.488889 32.711111-36.977777 32.711111H662.755556c-17.066667 0-32.711111-11.377778-35.555556-28.444444l-28.444444-128c-2.844444-11.377778 0-22.755556 7.111111-31.288889 7.111111-8.533333 17.066667-14.222222 28.444444-14.222222h210.488889c9.955556 0 19.911111 4.266667 27.022222 12.8 7.111111 8.533333 9.955556 18.488889 8.533334 28.444444z" fill="#000000" p-id="5392"></path></svg>