<?xml version="1.0" standalone="no"?><!DOCTYPE svg PUBLIC "-//W3C//DTD SVG 1.1//EN" "http://www.w3.org/Graphics/SVG/1.1/DTD/svg11.dtd"><svg t="1687265768249" viewBox="0 0 1024 1024" version="1.1" xmlns="http://www.w3.org/2000/svg" p-id="8737" xmlns:xlink="http://www.w3.org/1999/xlink" width="200" height="200"><path d="M147.612444 523.776c0 41.514667 11.52 68.593778 32.782223 104.064a258.944 258.944 0 0 1 36.821333 133.048889v67.100444a43.207111 43.207111 0 0 0 43.150222 43.150223h95.36a43.207111 43.207111 0 0 0 43.164445-43.150223v-70.968889c0-34.915556 8.704-69.660444 25.173333-100.451555l22.599111-42.24c15.175111-28.359111 21.816889-43.804444 21.816889-72.704v-131.328c0-8.846222-9.415111-16.298667-20.565333-16.298667-11.150222 0-20.579556 7.452444-20.579556 16.298667v114.090667a14.222222 14.222222 0 1 1-28.444444 0V217.856c0-8.832-9.429333-16.284444-20.579556-16.284444s-20.565333 7.452444-20.565333 16.284444V413.297778a14.222222 14.222222 0 1 1-28.444445 0V169.173333c0-8.974222-9.244444-16.298667-20.579555-16.298666-11.349333 0-20.579556 7.324444-20.579556 16.298666V413.297778a14.222222 14.222222 0 1 1-28.444444 0V238.933333c0-8.832-9.415111-16.298667-20.565334-16.298666-11.150222 0-20.579556 7.466667-20.579555 16.298666v174.364445c0 5.105778-2.730667 9.813333-7.153778 12.359111a14.364444 14.364444 0 0 1-14.279111-0.085333l-1.336889-0.796445a14.222222 14.222222 0 0 1-7.011555-12.259555v-102.641778c0-8.988444-9.244444-16.312889-20.579556-16.312889-11.349333 0-20.579556 7.324444-20.579556 16.312889v213.902222z m208.113778 375.808h-95.36a71.68 71.68 0 0 1-71.594666-71.594667V760.888889c0-41.713778-11.335111-82.659556-32.782223-118.428445-22.570667-37.646222-35.925333-68.707556-36.778666-114.076444a14.464 14.464 0 0 1-0.042667-1.109333V309.873778c0-24.675556 21.987556-44.757333 49.024-44.757334 7.864889 0 15.317333 1.706667 21.902222 4.736V238.933333c0-24.675556 22.016-44.743111 49.038222-44.743111a52.764444 52.764444 0 0 1 20.565334 4.124445v-29.155556c0-24.661333 22.001778-44.728889 49.024-44.728889 27.022222 0 49.024 20.053333 49.024 44.743111v8.092445c6.257778-2.659556 13.226667-4.138667 20.565333-4.138667 27.022222 0 49.024 20.053333 49.024 44.728889v151.836444c6.257778-2.659556 13.226667-4.138667 20.579556-4.138666 27.022222 0 49.009778 20.053333 49.009777 44.743111v131.328c0 36.408889-9.528889 56.832-25.173333 86.129778l-22.613333 42.225777a185.130667 185.130667 0 0 0-21.802667 87.04v70.968889a71.68 71.68 0 0 1-71.608889 71.594667z" fill="#000000" p-id="8738"></path><path d="M404.593778 811.52H202.993778a14.222222 14.222222 0 1 1 0-28.444444h201.6a14.222222 14.222222 0 1 1 0 28.444444M577.422222 393.984c-11.150222 0-20.579556 7.452444-20.579555 16.298667v131.328c0 28.899556 6.656 44.344889 21.816889 72.704l22.613333 42.24a213.76 213.76 0 0 1 25.173333 100.465777v70.954667a43.207111 43.207111 0 0 0 43.150222 43.150222h95.374223a43.207111 43.207111 0 0 0 43.150222-43.150222V760.888889c0-46.862222 12.728889-92.871111 36.835555-133.048889 21.233778-35.470222 32.753778-62.549333 32.753778-104.064v-213.902222c0-8.988444-9.230222-16.312889-20.579555-16.312889-11.335111 0-20.565333 7.324444-20.565334 16.312889v102.641778c0 5.034667-2.673778 9.699556-7.011555 12.259555l-1.351111 0.796445c-4.408889 2.56-9.841778 2.602667-14.279111 0.085333a14.264889 14.264889 0 0 1-7.153778-12.373333V238.933333c0-8.817778-9.429333-16.284444-20.579556-16.284444s-20.565333 7.466667-20.565333 16.298667v174.364444a14.222222 14.222222 0 1 1-28.444445 0V169.173333c0-8.974222-9.230222-16.298667-20.579555-16.298666s-20.579556 7.324444-20.579556 16.298666V413.297778a14.222222 14.222222 0 1 1-28.444444 0V217.856c0-8.832-9.415111-16.284444-20.565333-16.284444-11.150222 0-20.579556 7.452444-20.579556 16.284444V524.373333a14.222222 14.222222 0 1 1-28.444444 0v-114.090666c0-8.846222-9.415111-16.298667-20.565334-16.298667m187.548445 505.585778h-95.374223a71.68 71.68 0 0 1-71.608888-71.594667v-70.968889c0-30.250667-7.537778-60.359111-21.816889-87.04l-22.584889-42.24c-15.672889-29.297778-25.173333-49.706667-25.173334-86.115555v-131.328c0-24.675556 21.987556-44.743111 49.009778-44.743111 7.338667 0 14.307556 1.479111 20.565334 4.124444V217.870222c0-24.661333 22.001778-44.728889 49.024-44.728889 7.338667 0 14.307556 1.479111 20.565333 4.124445v-8.078222c0-24.675556 22.001778-44.743111 49.024-44.743112 27.036444 0 49.024 20.053333 49.024 44.743112v29.155555a52.764444 52.764444 0 0 1 20.565333-4.138667c27.036444 0 49.024 20.053333 49.024 44.743112v30.919111a52.721778 52.721778 0 0 1 21.916445-4.736c27.036444 0 49.024 20.081778 49.024 44.757333v217.400889c0 0.369778 0 0.739556-0.042667 1.109333-0.839111 45.368889-14.208 76.430222-36.778667 114.062222a230.456889 230.456889 0 0 0-32.768 118.442667v67.100445a71.68 71.68 0 0 1-71.594666 71.594666" fill="#000000" p-id="8739"></path><path d="M822.343111 811.52h-202.097778a14.222222 14.222222 0 1 1 0-28.444444h202.097778a14.222222 14.222222 0 1 1 0 28.444444" fill="#000000" p-id="8740"></path></svg>