<?xml version="1.0" standalone="no"?><!DOCTYPE svg PUBLIC "-//W3C//DTD SVG 1.1//EN" "http://www.w3.org/Graphics/SVG/1.1/DTD/svg11.dtd"><svg t="1687265708620" viewBox="0 0 1024 1024" version="1.1" xmlns="http://www.w3.org/2000/svg" p-id="6847" xmlns:xlink="http://www.w3.org/1999/xlink" width="200" height="200"><path d="M635.733333 507.733333c-35.555556-32.711111-89.6-35.555556-128-8.533333-38.4-27.022222-92.444444-24.177778-126.577777 8.533333l-1.422223 1.422223-5.688889 7.111111c-34.133333 41.244444-31.288889 98.133333 5.688889 136.533333 34.133333 35.555556 72.533333 68.266667 113.777778 96.711111l5.688889 4.266667c2.844444 1.422222 5.688889 2.844444 8.533333 2.844444 2.844444 0 5.688889-1.422222 8.533334-2.844444 44.088889-29.866667 85.333333-64 120.888889-102.4 18.488889-19.911111 29.866667-45.511111 28.444444-72.533334 2.844444-25.6-8.533333-51.2-29.866667-71.111111 1.422222 1.422222 0 0 0 0z m-17.066666 125.155556c-32.711111 34.133333-69.688889 65.422222-109.511111 92.444444-38.4-27.022222-75.377778-58.311111-108.088889-91.022222-27.022222-27.022222-28.444444-69.688889-4.266667-98.133333l5.688889-7.111111c27.022222-24.177778 69.688889-24.177778 96.711111 0 5.688889 5.688889 14.222222 5.688889 19.911111 0l1.422222-1.422223c27.022222-24.177778 69.688889-24.177778 96.711111 1.422223l1.422223 1.422222c14.222222 14.222222 21.333333 31.288889 22.755555 51.2-1.422222 18.488889-8.533333 36.977778-22.755555 51.2zM324.266667 253.155556c-5.688889-51.2-48.355556-89.6-99.555556-89.6s-93.866667 38.4-99.555555 89.6l-14.222223 129.422222c-2.844444 32.711111 8.533333 64 32.711111 85.333333 11.377778 9.955556 17.066667 25.6 17.066667 42.666667v291.555555c0 32.711111 27.022222 59.733333 59.733333 59.733334 32.711111 0 59.733333-27.022222 59.733334-58.311111l1.422222-285.866667c0-18.488889 7.111111-35.555556 19.911111-45.511111 27.022222-21.333333 41.244444-55.466667 36.977778-88.177778l-14.222222-130.844444zM284.444444 448c-19.911111 15.644444-31.288889 39.822222-31.288888 66.844444l-1.422223 285.866667c0 17.066667-14.222222 31.288889-31.288889 31.288889-17.066667 0-31.288889-14.222222-31.288888-31.288889V510.577778c0-25.6-9.955556-48.355556-27.022223-64s-25.6-38.4-24.177777-61.155556l14.222222-129.422222c4.266667-36.977778 34.133333-64 71.111111-64s66.844444 27.022222 71.111111 64l14.222222 129.422222c4.266667 24.177778-5.688889 46.933333-24.177778 62.577778z m627.2-44.088889l-22.755555-221.866667c-1.422222-7.111111-7.111111-12.8-15.644445-12.8-7.111111 1.422222-12.8 7.111111-12.8 15.644445l22.755556 221.866667c1.422222 14.222222-5.688889 28.444444-17.066667 35.555555-18.488889 12.8-29.866667 32.711111-29.866666 55.466667v298.666666c0 15.644444-12.8 28.444444-28.444445 28.444445s-28.444444-12.8-28.444444-28.444445V497.777778c0-22.755556-11.377778-44.088889-29.866667-55.466667-11.377778-7.111111-18.488889-21.333333-17.066667-35.555555L755.2 184.888889c1.422222-7.111111-4.266667-14.222222-12.8-15.644445-7.111111-1.422222-14.222222 4.266667-15.644444 12.8l-22.755556 221.866667c-2.844444 25.6 8.533333 48.355556 29.866667 62.577778 11.377778 7.111111 17.066667 18.488889 17.066666 31.288889v298.666666c0 31.288889 25.6 56.888889 56.888889 56.888889s56.888889-25.6 56.888889-56.888889V497.777778c0-12.8 7.111111-24.177778 17.066667-31.288889 21.333333-12.8 32.711111-36.977778 29.866666-62.577778z" fill="#000000" p-id="6848"></path><path d="M807.822222 368.355556c8.533333 0 14.222222-5.688889 14.222222-14.222223v-170.666666c0-8.533333-5.688889-14.222222-14.222222-14.222223s-14.222222 5.688889-14.222222 14.222223v169.244444c0 8.533333 5.688889 15.644444 14.222222 15.644445z" fill="#000000" p-id="6849"></path></svg>