<?xml version="1.0" standalone="no"?><!DOCTYPE svg PUBLIC "-//W3C//DTD SVG 1.1//EN" "http://www.w3.org/Graphics/SVG/1.1/DTD/svg11.dtd"><svg t="1687265745084" viewBox="0 0 1024 1024" version="1.1" xmlns="http://www.w3.org/2000/svg" p-id="8010" xmlns:xlink="http://www.w3.org/1999/xlink" width="200" height="200"><path d="M688.355556 362.666667c-8.533333-17.066667-29.866667-24.177778-48.355556-15.644445l-62.577778 31.288889v-66.844444c0-19.911111-15.644444-35.555556-35.555555-35.555556h-51.2c-19.911111 0-35.555556 15.644444-35.555556 35.555556v61.155555L399.644444 341.333333c-17.066667-9.955556-38.4-4.266667-48.355555 12.8l-25.6 42.666667c-4.266667 8.533333-5.688889 17.066667-4.266667 27.022222 2.844444 8.533333 8.533333 17.066667 17.066667 21.333334l48.355555 27.022222-49.777777 24.177778c-8.533333 4.266667-15.644444 11.377778-18.488889 21.333333-2.844444 8.533333-1.422222 18.488889 2.844444 27.022222l22.755556 44.088889c8.533333 17.066667 29.866667 24.177778 48.355555 15.644444l62.577778-31.288888V640c0 19.911111 15.644444 35.555556 35.555556 35.555556h51.2c19.911111 0 35.555556-15.644444 35.555555-35.555556v-61.155556l55.466667 31.288889c17.066667 9.955556 38.4 4.266667 48.355555-12.8l25.6-42.666666c4.266667-8.533333 5.688889-17.066667 4.266667-27.022223-2.844444-8.533333-8.533333-17.066667-17.066667-21.333333l-48.355555-27.022222 49.777778-24.177778c8.533333-4.266667 15.644444-11.377778 18.488889-21.333333 2.844444-8.533333 1.422222-18.488889-2.844445-27.022222l-22.755555-44.088889z m-1.422223 61.155555c0 1.422222-1.422222 2.844444-4.266666 4.266667l-73.955556 36.977778c-4.266667 2.844444-7.111111 7.111111-8.533333 12.8 0 5.688889 2.844444 9.955556 7.111111 12.8l72.533333 39.822222c1.422222 1.422222 2.844444 2.844444 2.844445 4.266667v4.266666l-25.6 42.666667c-1.422222 2.844444-7.111111 4.266667-9.955556 2.844444l-76.8-42.666666c-4.266667-2.844444-9.955556-2.844444-14.222222 0-4.266667 2.844444-7.111111 7.111111-7.111111 12.8v85.333333c0 4.266667-2.844444 7.111111-7.111111 7.111111h-51.2c-4.266667 0-7.111111-2.844444-7.111111-7.111111v-89.6c0-4.266667-2.844444-9.955556-7.111112-11.377778-2.844444-1.422222-4.266667-2.844444-7.111111-2.844444s-4.266667 0-5.688889 1.422222l-82.488888 41.244444c-4.266667 1.422222-8.533333 0-9.955556-2.844444l-22.755556-44.088889c-1.422222-1.422222-1.422222-4.266667 0-4.266667 0-1.422222 1.422222-2.844444 4.266667-4.266666l73.955556-36.977778c4.266667-2.844444 7.111111-7.111111 8.533333-12.8 0-5.688889-2.844444-9.955556-7.111111-12.8L355.555556 420.977778c-1.422222-1.422222-2.844444-2.844444-2.844445-4.266667V412.444444l25.6-42.666666c1.422222-2.844444 7.111111-4.266667 9.955556-2.844445l76.8 42.666667c4.266667 2.844444 9.955556 2.844444 14.222222 0 4.266667-2.844444 7.111111-7.111111 7.111111-12.8v-85.333333c0-4.266667 2.844444-7.111111 7.111111-7.111111h51.2c4.266667 0 7.111111 2.844444 7.111111 7.111111v89.6c0 4.266667 2.844444 9.955556 7.111111 11.377777 4.266667 2.844444 9.955556 2.844444 14.222223 0l82.488888-41.244444c4.266667-1.422222 8.533333 0 9.955556 2.844444l22.755556 44.088889c0 2.844444 0 5.688889-1.422223 5.688889z" fill="#000000" p-id="8011"></path><path d="M797.866667 180.622222c-179.2-89.6-392.533333-89.6-571.733334 0-41.244444 19.911111-66.844444 62.577778-66.844444 108.088889v197.688889c0 51.2 9.955556 102.4 28.444444 150.755556 35.555556 89.6 102.4 163.555556 187.733334 207.644444l116.622222 61.155556c5.688889 2.844444 12.8 4.266667 19.911111 4.266666 7.111111 0 14.222222-1.422222 19.911111-4.266666l115.2-59.733334c83.911111-44.088889 150.755556-116.622222 186.311111-206.222222l1.422222-2.844444c19.911111-48.355556 29.866667-99.555556 29.866667-153.6V288.711111c0-45.511111-25.6-86.755556-66.844444-108.088889z m38.4 304.355556c0 48.355556-9.955556 96.711111-28.444445 142.222222l-1.422222 2.844444c-34.133333 82.488889-95.288889 149.333333-173.511111 190.577778l-115.2 59.733334c-4.266667 2.844444-8.533333 2.844444-12.8 0l-116.622222-61.155556c-79.644444-41.244444-140.8-109.511111-173.511111-193.422222-18.488889-44.088889-27.022222-91.022222-27.022223-139.377778V288.711111c0-35.555556 19.911111-66.844444 51.2-82.488889 85.333333-42.666667 179.2-64 273.066667-64s187.733333 21.333333 273.066667 64c31.288889 15.644444 51.2 46.933333 51.2 82.488889v196.266667z" fill="#000000" p-id="8012"></path></svg>