<?xml version="1.0" standalone="no"?><!DOCTYPE svg PUBLIC "-//W3C//DTD SVG 1.1//EN" "http://www.w3.org/Graphics/SVG/1.1/DTD/svg11.dtd"><svg t="1687265681231" viewBox="0 0 1024 1024" version="1.1" xmlns="http://www.w3.org/2000/svg" p-id="5974" xmlns:xlink="http://www.w3.org/1999/xlink" width="200" height="200"><path d="M910.122667 406.584889a13.852444 13.852444 0 0 0-1.009778-4.977778c-0.042667-0.099556-0.156444-0.199111-0.213333-0.327111a14.094222 14.094222 0 0 0-2.531556-3.783111c-0.341333-0.355556-0.711111-0.64-1.080889-0.967111a13.980444 13.980444 0 0 0-2.986667-2.005334c-0.440889-0.213333-0.853333-0.455111-1.336888-0.64a14.165333 14.165333 0 0 0-4.977778-0.995555h-127.786667a14.222222 14.222222 0 1 0 0 28.444444h93.468445L599.537778 683.477333c-2.744889 2.730667-6.343111 3.982222-10.296889 4.152889a13.994667 13.994667 0 0 1-10.140445-4.508444L470.755556 567.381333a42.296889 42.296889 0 0 0-30.435556-13.511111 43.548444 43.548444 0 0 0-30.876444 12.487111L117.944889 857.856A14.250667 14.250667 0 0 0 128 882.147556a14.179556 14.179556 0 0 0 10.055111-4.167112l291.484445-291.498666c2.759111-2.744889 6.442667-3.84 10.311111-4.167111a14.08 14.08 0 0 1 10.140444 4.508444l108.344889 115.754667c7.964444 8.504889 18.773333 13.297778 30.435556 13.496889 11.719111 0 22.613333-4.238222 30.862222-12.487111L881.777778 441.443556v96.398222a14.222222 14.222222 0 1 0 28.444444 0v-130.730667c0-0.199111-0.099556-0.327111-0.099555-0.526222m-686.151111-200.675556l7.452444-9.073777c36.764444-33.991111 96-33.834667 132.48 0.597333 5.390222 5.077333 13.795556 5.176889 19.299556 0.213333l2.304-2.090666c36.864-33.28 96.042667-32.597333 131.939555 1.564444l1.080889 1.024c19.256889 18.602667 30.008889 43.335111 30.293333 69.646222 0.270222 26.254222-9.884444 51.384889-28.600889 70.727111a971.861333 971.861333 0 0 1-145.664 123.52l-0.128-0.113777a973.454222 973.454222 0 0 1-144.014222-121.514667c-36.764444-37.745778-39.480889-94.321778-6.442666-134.499556m134.286222 279.424l8.206222 5.660445a14.151111 14.151111 0 0 0 16.042667 0.071111 1002.040889 1002.040889 0 0 0 158.165333-132.764445c23.950222-24.746667 36.949333-57.031111 36.593778-90.823111-0.369778-33.976889-14.208-65.848889-38.968889-89.770666l-1.237333-1.194667c-44.942222-42.752-115.015111-45.624889-163.441778-8.078222-47.744-36.295111-118.016-33.521778-162.346667 8.305778-0.426667 0.426667-0.839111 0.853333-1.223111 1.322666l-8.049778 9.784889c-42.410667 51.569778-39.025778 124.088889 8.035556 172.401778a1002.268444 1002.268444 0 0 0 148.224 125.084444" fill="#000000" p-id="5975"></path></svg>