<?xml version="1.0" standalone="no"?><!DOCTYPE svg PUBLIC "-//W3C//DTD SVG 1.1//EN" "http://www.w3.org/Graphics/SVG/1.1/DTD/svg11.dtd"><svg t="1687265675820" viewBox="0 0 1024 1024" version="1.1" xmlns="http://www.w3.org/2000/svg" p-id="5828" xmlns:xlink="http://www.w3.org/1999/xlink" width="200" height="200"><path d="M752.355556 708.266667l-1.422223-459.377778v-39.822222c0-52.622222-44.088889-96.711111-99.555555-96.711111L369.777778 113.777778c-25.6 0-51.2 9.955556-69.688889 28.444444-18.488889 18.488889-28.444444 42.666667-28.444445 68.266667l2.844445 500.622222v103.822222c0 52.622222 44.088889 96.711111 99.555555 96.711111L654.222222 910.222222c54.044444 0 98.133333-44.088889 98.133334-98.133333v-103.822222zM300.088889 265.955556l420.977778-1.422223 1.422222 430.933334-419.555556 1.422222-2.844444-430.933333z m19.911111-102.4c12.8-12.8 31.288889-19.911111 49.777778-19.911112l280.177778-1.422222c38.4 0 69.688889 29.866667 71.111111 68.266667v25.6l-420.977778 1.422222v-25.6c0-18.488889 7.111111-35.555556 19.911111-48.355555zM654.222222 881.777778H374.044444c-38.4 0-69.688889-29.866667-71.111111-68.266667v-89.6l420.977778-1.422222V812.088889c0 38.4-31.288889 68.266667-69.688889 69.688889z" fill="#000000" p-id="5829"></path><path d="M513.422222 746.666667c-12.8 0-25.6 5.688889-35.555555 14.222222-9.955556 9.955556-14.222222 21.333333-14.222223 35.555555 0 12.8 5.688889 25.6 14.222223 35.555556 9.955556 9.955556 21.333333 14.222222 35.555555 14.222222 12.8 0 25.6-5.688889 35.555556-14.222222s14.222222-21.333333 14.222222-35.555556c0-12.8-5.688889-25.6-14.222222-35.555555-9.955556-8.533333-22.755556-14.222222-35.555556-14.222222z m15.644445 65.422222c-4.266667 4.266667-9.955556 5.688889-15.644445 5.688889-5.688889 0-11.377778-2.844444-15.644444-5.688889-4.266667-4.266667-5.688889-9.955556-5.688889-15.644445 0-5.688889 2.844444-11.377778 5.688889-15.644444 4.266667-4.266667 9.955556-5.688889 15.644444-5.688889 5.688889 0 11.377778 2.844444 15.644445 5.688889 4.266667 4.266667 5.688889 9.955556 5.688889 15.644444 0 5.688889-2.844444 11.377778-5.688889 15.644445zM469.333333 203.377778h83.911111c8.533333 0 14.222222-7.111111 14.222223-14.222222 0-8.533333-5.688889-14.222222-14.222223-14.222223H469.333333c-8.533333 0-14.222222 7.111111-14.222222 14.222223 0 8.533333 5.688889 14.222222 14.222222 14.222222z m149.333334 199.111111c-29.866667-28.444444-75.377778-29.866667-108.088889-7.111111-32.711111-21.333333-78.222222-18.488889-108.088889 9.955555l-1.422222 1.422223-4.266667 5.688888c-28.444444 35.555556-25.6 85.333333 7.111111 116.622223 29.866667 29.866667 62.577778 55.466667 96.711111 79.644444l5.688889 2.844445c2.844444 1.422222 5.688889 2.844444 8.533333 2.844444 2.844444 0 5.688889-1.422222 8.533334-2.844444 36.977778-25.6 71.111111-55.466667 100.977778-86.755556 15.644444-17.066667 24.177778-39.822222 24.177777-62.577778-2.844444-21.333333-11.377778-42.666667-29.866666-59.733333z m-17.066667 103.822222c-27.022222 28.444444-56.888889 54.044444-88.177778 78.222222-32.711111-21.333333-62.577778-46.933333-89.6-73.955555-21.333333-21.333333-24.177778-55.466667-4.266666-79.644445l4.266666-5.688889c21.333333-19.911111 55.466667-19.911111 78.222222 0 5.688889 5.688889 14.222222 5.688889 19.911112 0l1.422222-1.422222c21.333333-19.911111 56.888889-19.911111 78.222222 0 11.377778 11.377778 18.488889 25.6 18.488889 41.244445-1.422222 14.222222-7.111111 29.866667-18.488889 41.244444z" fill="#000000" p-id="5830"></path></svg>