<?xml version="1.0" standalone="no"?><!DOCTYPE svg PUBLIC "-//W3C//DTD SVG 1.1//EN" "http://www.w3.org/Graphics/SVG/1.1/DTD/svg11.dtd"><svg t="1687265795061" viewBox="0 0 1024 1024" version="1.1" xmlns="http://www.w3.org/2000/svg" p-id="9611" xmlns:xlink="http://www.w3.org/1999/xlink" width="200" height="200"><path d="M741.347556 784.156444A97.735111 97.735111 0 0 1 643.726222 881.777778h-41.941333V522.083556a84.394667 84.394667 0 0 0-84.295111-84.295112H270.222222v-19.157333a92.984889 92.984889 0 0 1 43.676445-79.132444 121.144889 121.144889 0 0 0 56.803555-100.337778h270.165334a121.144889 121.144889 0 0 0 56.803555 100.337778 93.013333 93.013333 0 0 1 43.676445 79.132444v365.511111zM573.340444 881.777778H360.391111A90.254222 90.254222 0 0 1 270.222222 791.608889v-28.416a418.048 418.048 0 0 0 164.337778-90.737778 14.222222 14.222222 0 1 0-19.015111-21.148444 387.370667 387.370667 0 0 1-78.990222 54.741333 58.780444 58.780444 0 0 1 16.369777-51.441778l92.103112-92.103111c42.012444 51.342222 39.068444 127.459556-8.846223 175.36a59.022222 59.022222 0 0 1-70.456889 9.728 14.222222 14.222222 0 1 0-13.980444 24.775111 86.983111 86.983111 0 0 0 42.723556 11.178667 87.466667 87.466667 0 0 0 61.838222-25.571556c62.122667-62.122667 62.122667-163.228444-0.753778-226.104889a14.208 14.208 0 0 0-20.110222 0l-102.627556 102.627556a87.182222 87.182222 0 0 0-22.542222 84.138667c-13.070222 5.660444-26.439111 10.595556-40.049778 14.791111V466.232889h247.267556a55.907556 55.907556 0 0 1 55.850666 55.850667v359.68zM318.691556 184.661333v-5.333333a37.134222 37.134222 0 0 1 37.105777-37.12h35.768889v32.568889h-0.128v35.939555H344.746667a26.097778 26.097778 0 0 1-26.055111-26.055111zM420.010667 142.222222h78.151111v32.568889h-0.056889v35.925333h-78.094222V142.222222z m176.213333 0v62.677334c0 0.170667 0.099556 0.312889 0.113778 0.483555v5.333333h-69.660445V174.791111h-0.071111V142.222222h69.617778z m28.444444 0h38.570667a37.148444 37.148444 0 0 1 37.105778 37.105778v5.333333a26.112 26.112 0 0 1-26.069333 26.055111h-49.607112V142.222222z m88.149334 173.198222a92.871111 92.871111 0 0 1-43.505778-76.259555h4.963556a54.570667 54.570667 0 0 0 54.513777-54.499556v-5.333333a65.635556 65.635556 0 0 0-65.550222-65.564444H355.797333a65.621333 65.621333 0 0 0-65.550222 65.564444v5.333333c0 29.198222 23.139556 52.906667 52.024889 54.243556a92.942222 92.942222 0 0 1-43.52 76.515555A121.315556 121.315556 0 0 0 241.777778 418.631111V791.608889c0 65.408 53.205333 118.613333 118.613333 118.613333h290.787556c65.408 0 118.613333-53.205333 118.613333-118.613333V418.631111a121.358222 121.358222 0 0 0-56.974222-103.210667z" fill="#000000" p-id="9612"></path></svg>