<?xml version="1.0" standalone="no"?><!DOCTYPE svg PUBLIC "-//W3C//DTD SVG 1.1//EN" "http://www.w3.org/Graphics/SVG/1.1/DTD/svg11.dtd"><svg t="1687265640245" viewBox="0 0 1024 1024" version="1.1" xmlns="http://www.w3.org/2000/svg" p-id="4808" xmlns:xlink="http://www.w3.org/1999/xlink" width="200" height="200"><path d="M390.371556 540.928h-41.429334a14.222222 14.222222 0 0 0-14.222222 14.222222v41.429334a14.819556 14.819556 0 0 1-29.596444 0v-41.429334a14.222222 14.222222 0 0 0-14.222223-14.222222H249.457778a14.819556 14.819556 0 0 1-14.805334-14.791111c0-8.163556 6.641778-14.791111 14.791112-14.791111h41.443555a14.222222 14.222222 0 0 0 14.222222-14.222222V455.68a14.805333 14.805333 0 0 1 29.596445 0v41.429333a14.222222 14.222222 0 0 0 14.222222 14.222223h41.429333c8.163556 0 14.791111 6.641778 14.791111 14.805333 0 8.149333-6.627556 14.791111-14.791111 14.791111m0-58.026667h-27.207111V455.68A43.278222 43.278222 0 0 0 319.914667 412.444444a43.278222 43.278222 0 0 0-43.235556 43.235556v27.207111H249.457778a43.292444 43.292444 0 0 0-43.249778 43.249778 43.278222 43.278222 0 0 0 43.235556 43.235555h27.221333v27.207112a43.292444 43.292444 0 0 0 43.235555 43.249777 43.292444 43.292444 0 0 0 43.235556-43.235555v-27.221334h27.221333a43.278222 43.278222 0 0 0 43.235556-43.235555 43.292444 43.292444 0 0 0-43.235556-43.235556" fill="#000000" p-id="4809"></path><path d="M881.777778 796.444444c0 7.850667-6.385778 14.222222-14.222222 14.222223h-59.946667c-6.812444-40.291556-41.856-71.111111-84.053333-71.111111s-77.255111 30.819556-84.053334 71.111111h-255.004444c-6.812444-40.291556-41.856-71.111111-84.053334-71.111111s-77.255111 30.819556-84.053333 71.111111H156.444444c-7.836444 0-14.222222-6.371556-14.222222-14.222223V369.777778c0-54.883556 44.657778-99.555556 99.555556-99.555556h377.628444c6.556444 0 12.231111 4.437333 13.795556 10.808889l10.325333 41.571556h-103.068444c-13.795556 0-26.808889 6.328889-34.787556 16.924444a38.200889 38.200889 0 0 0-6.4 33.792l32.071111 111.985778c5.006222 17.507556 21.944889 29.724444 41.187556 29.724444h127.018666c0.256 0 0.455111-0.128 0.696889-0.142222a128 128 0 0 0 34.901334 33.493333l112.753777 73.088H796.444444a14.222222 14.222222 0 0 0 0 28.444445h85.176889c0.042667 0.426667 0.156444 0.824889 0.156445 1.237333V796.444444z m-158.222222 85.333334c-31.374222 0-56.888889-25.514667-56.888889-56.888889s25.514667-56.888889 56.888889-56.888889 56.888889 25.514667 56.888888 56.888889-25.514667 56.888889-56.888888 56.888889z m-423.111112 0c-31.374222 0-56.888889-25.514667-56.888888-56.888889s25.514667-56.888889 56.888888-56.888889 56.888889 25.514667 56.888889 56.888889-25.514667 56.888889-56.888889 56.888889z m71.111112-671.104c21.688889 0 40.931556 12.515556 50.488888 31.104h-101.063111a56.490667 56.490667 0 0 1 50.574223-31.104z m313.728 275.911111h-112.753778c-6.513778 0-12.330667-3.84-13.838222-9.116445l-32.071112-111.985777a9.813333 9.813333 0 0 1 1.763556-8.846223c2.645333-3.498667 7.153778-5.589333 12.074667-5.589333h110.122666l29.952 120.746667a128 128 0 0 0 4.750223 14.791111z m205.482666 128.782222l-140.145778-90.851555a99.271111 99.271111 0 0 1-42.481777-59.591112l-47.317334-190.748444A42.595556 42.595556 0 0 0 619.406222 241.777778h-166.826666c-11.121778-34.901333-43.704889-59.548444-81.024-59.548445A84.792889 84.792889 0 0 0 290.403556 241.777778H241.777778c-70.570667 0-128 57.415111-128 128v426.666666c0 23.523556 19.143111 42.666667 42.666666 42.666667h59.946667c6.798222 40.291556 41.856 71.111111 84.053333 71.111111s77.240889-30.819556 84.053334-71.111111h255.004444c6.798222 40.291556 41.856 71.111111 84.053334 71.111111s77.240889-30.819556 84.053333-71.111111H867.555556c23.523556 0 42.666667-19.143111 42.666666-42.666667V651.150222a42.453333 42.453333 0 0 0-19.456-35.783111zM371.555556 165.703111a14.222222 14.222222 0 0 0 14.222222-14.222222v-23.466667a14.222222 14.222222 0 1 0-28.444445 0v23.466667a14.222222 14.222222 0 0 0 14.222223 14.222222m62.805333 10.780445a14.179556 14.179556 0 0 0 10.055111-4.167112l16.611556-16.611555a14.222222 14.222222 0 0 0-20.110223-20.110222l-16.611555 16.611555a14.208 14.208 0 0 0 10.055111 24.277334m-135.665778-4.167112a14.179556 14.179556 0 0 0 20.110222 0 14.208 14.208 0 0 0 0-20.110222l-16.597333-16.611555a14.208 14.208 0 1 0-20.110222 20.110222l16.597333 16.611555z" fill="#000000" p-id="4810"></path></svg>