<?xml version="1.0" standalone="no"?><!DOCTYPE svg PUBLIC "-//W3C//DTD SVG 1.1//EN" "http://www.w3.org/Graphics/SVG/1.1/DTD/svg11.dtd"><svg t="1687265736398" viewBox="0 0 1024 1024" version="1.1" xmlns="http://www.w3.org/2000/svg" p-id="7717" xmlns:xlink="http://www.w3.org/1999/xlink" width="200" height="200"><path d="M832 228.977778l-2.844444-1.422222c-85.333333-85.333333-224.711111-89.6-314.311112-8.533334-41.244444-36.977778-95.288889-56.888889-150.755555-56.888889-61.155556 0-118.044444 24.177778-160.711111 66.844445l-1.422222 1.422222-15.644445 19.911111c-38.4 48.355556-56.888889 109.511111-55.466667 172.088889 0 8.533333 7.111111 14.222222 14.222223 14.222222 8.533333 0 14.222222-7.111111 14.222222-14.222222-2.844444-55.466667 15.644444-109.511111 48.355555-153.6l15.644445-19.911111c78.222222-76.8 203.377778-76.8 281.6 0 5.688889 5.688889 14.222222 5.688889 19.911111 0l4.266667-4.266667c78.222222-75.377778 203.377778-72.533333 280.177777 2.844445l2.844445 2.844444c85.333333 86.755556 86.755556 226.133333 4.266667 317.155556C725.333333 664.177778 625.777778 753.777778 517.688889 832l-8.533333-5.688889c-99.555556-73.955556-193.422222-156.444444-278.755556-247.466667-5.688889-5.688889-14.222222-5.688889-19.911111 0-5.688889 5.688889-5.688889 14.222222-1.422222 19.911112 85.333333 92.444444 180.622222 176.355556 283.022222 250.311111l15.644444 11.377777c2.844444 1.422222 5.688889 2.844444 8.533334 2.844445 2.844444 0 5.688889-1.422222 8.533333-2.844445 112.355556-81.066667 217.6-173.511111 311.466667-275.911111 92.444444-100.977778 91.022222-257.422222-4.266667-355.555555z" fill="#000000" p-id="7718"></path><path d="M258.844444 512l86.755556-110.933333c1.422222-1.422222 4.266667-4.266667 7.111111-2.844445 2.844444 0 5.688889 2.844444 7.111111 8.533334l69.688889 199.111111c4.266667 14.222222 15.644444 22.755556 28.444445 25.6 2.844444 0 4.266667 1.422222 7.111111 1.422222 9.955556 0 18.488889-4.266667 25.6-11.377778l86.755555-91.022222c1.422222-1.422222 2.844444-2.844444 5.688889-2.844445h38.4c5.688889 21.333333 25.6 36.977778 48.355556 36.977778 28.444444 0 51.2-22.755556 51.2-51.2s-22.755556-51.2-51.2-51.2c-22.755556 0-42.666667 15.644444-48.355556 36.977778H583.111111c-9.955556 0-18.488889 4.266667-25.6 11.377778l-86.755555 91.022222c-1.422222 2.844444-4.266667 2.844444-7.111112 2.844444s-5.688889-4.266667-7.111111-8.533333l-69.688889-199.111111c-5.688889-14.222222-15.644444-24.177778-29.866666-27.022222-12.8-2.844444-25.6 2.844444-34.133334 14.222222l-86.755555 110.933333c-1.422222 2.844444-4.266667 4.266667-5.688889 4.266667H133.688889c-8.533333 0-14.222222 5.688889-14.222222 14.222222s5.688889 14.222222 14.222222 14.222222h96.711111c11.377778-1.422222 21.333333-7.111111 28.444444-15.644444z m411.022223-22.755556c12.8 0 22.755556 9.955556 22.755555 22.755556 0 12.8-9.955556 22.755556-22.755555 22.755556-12.8 0-22.755556-9.955556-22.755556-22.755556 0-12.8 11.377778-22.755556 22.755556-22.755556z" fill="#000000" p-id="7719"></path></svg>