<?xml version="1.0" standalone="no"?><!DOCTYPE svg PUBLIC "-//W3C//DTD SVG 1.1//EN" "http://www.w3.org/Graphics/SVG/1.1/DTD/svg11.dtd"><svg t="1687265808501" viewBox="0 0 1024 1024" version="1.1" xmlns="http://www.w3.org/2000/svg" p-id="10048" xmlns:xlink="http://www.w3.org/1999/xlink" width="200" height="200"><path d="M341.333333 364.088889c2.844444 0 5.688889 2.844444 7.111111 7.111111l68.266667 194.844444c4.266667 12.8 15.644444 22.755556 28.444445 25.6 2.844444 0 4.266667 1.422222 7.111111 1.422223 9.955556 0 18.488889-4.266667 25.6-11.377778l85.333333-88.177778c1.422222-1.422222 2.844444-2.844444 5.688889-2.844444h36.977778C611.555556 512 631.466667 526.222222 654.222222 526.222222c27.022222 0 49.777778-22.755556 49.777778-49.777778S681.244444 426.666667 654.222222 426.666667c-22.755556 0-41.244444 15.644444-48.355555 35.555555H568.888889c-9.955556 0-18.488889 4.266667-25.6 11.377778l-85.333333 88.177778c-1.422222 1.422222-4.266667 2.844444-5.688889 2.844444-2.844444 0-5.688889-2.844444-7.111111-7.111111l-68.266667-194.844444c-4.266667-14.222222-15.644444-24.177778-29.866667-25.6-12.8-1.422222-25.6 2.844444-34.133333 14.222222l-85.333333 106.666667c-1.422222 2.844444-4.266667 2.844444-5.688889 2.844444H126.577778c-8.533333 0-14.222222 5.688889-14.222222 14.222222s5.688889 14.222222 14.222222 14.222222h95.288889c11.377778 0 21.333333-5.688889 28.444444-14.222222l83.911111-108.088889c1.422222-1.422222 4.266667-2.844444 7.111111-2.844444zM652.8 455.111111c11.377778 0 21.333333 9.955556 21.333333 21.333333s-9.955556 21.333333-21.333333 21.333334-21.333333-9.955556-21.333333-21.333334 8.533333-21.333333 21.333333-21.333333z" fill="#000000" p-id="10049"></path><path d="M907.377778 802.133333l-135.111111-135.111111c42.666667-49.777778 68.266667-113.777778 68.266666-184.888889 0-156.444444-128-284.444444-284.444444-284.444444-66.844444 0-130.844444 22.755556-182.044445 65.422222-5.688889 5.688889-7.111111 14.222222-1.422222 19.911111 5.688889 5.688889 14.222222 7.111111 19.911111 1.422222 45.511111-38.4 103.822222-59.733333 163.555556-59.733333 140.8 0 256 115.2 256 256s-115.2 256-256 256c-103.822222 0-196.266667-61.155556-236.088889-156.444444-2.844444-7.111111-11.377778-9.955556-18.488889-7.111111-7.111111 2.844444-9.955556 11.377778-7.111111 18.488888 42.666667 106.666667 146.488889 174.933333 260.266667 174.933334 76.8 0 145.066667-29.866667 196.266666-79.644445l135.111111 135.111111c2.844444 2.844444 7.111111 4.266667 9.955556 4.266667 2.844444 0 7.111111-1.422222 9.955556-4.266667 5.688889-5.688889 5.688889-14.222222 1.422222-19.911111z" fill="#000000" p-id="10050"></path></svg>