<?xml version="1.0" standalone="no"?><!DOCTYPE svg PUBLIC "-//W3C//DTD SVG 1.1//EN" "http://www.w3.org/Graphics/SVG/1.1/DTD/svg11.dtd"><svg t="1687265872672" viewBox="0 0 1024 1024" version="1.1" xmlns="http://www.w3.org/2000/svg" p-id="11947" xmlns:xlink="http://www.w3.org/1999/xlink" width="200" height="200"><path d="M718.222222 450.844444h-45.511111v-45.511111c0-31.288889-25.6-55.466667-55.466667-55.466666-29.866667 0-55.466667 25.6-55.466666 55.466666v45.511111h-45.511111c-31.288889 0-55.466667 25.6-55.466667 55.466667 0 29.866667 25.6 55.466667 55.466667 55.466667h45.511111v45.511111c0 31.288889 25.6 55.466667 55.466666 55.466667 29.866667 0 55.466667-25.6 55.466667-55.466667v-45.511111h45.511111c31.288889 0 55.466667-25.6 55.466667-55.466667 0-29.866667-24.177778-55.466667-55.466667-55.466667z m0 82.488889h-59.733333c-8.533333 0-14.222222 5.688889-14.222222 14.222223v59.733333c0 15.644444-12.8 27.022222-27.022223 27.022222-15.644444 0-27.022222-12.8-27.022222-27.022222v-59.733333c0-8.533333-5.688889-14.222222-14.222222-14.222223h-59.733333c-15.644444 0-27.022222-12.8-27.022223-27.022222 0-15.644444 12.8-27.022222 27.022223-27.022222h59.733333c8.533333 0 14.222222-5.688889 14.222222-14.222222v-59.733334c0-15.644444 12.8-27.022222 27.022222-27.022222 15.644444 0 27.022222 12.8 27.022223 27.022222v59.733334c0 8.533333 5.688889 14.222222 14.222222 14.222222h59.733333c15.644444 0 27.022222 12.8 27.022222 27.022222 1.422222 15.644444-11.377778 27.022222-27.022222 27.022222z" fill="#000000" p-id="11948"></path><path d="M612.977778 236.088889c-73.955556 0-140.8 29.866667-189.155556 78.222222h-130.844444v-123.733333c0-41.244444-34.133333-75.377778-75.377778-75.377778S142.222222 149.333333 142.222222 190.577778v644.266666c0 41.244444 34.133333 75.377778 75.377778 75.377778s75.377778-34.133333 75.377778-75.377778v-130.844444h135.111111c48.355556 45.511111 113.777778 73.955556 184.888889 73.955556 149.333333 0 270.222222-120.888889 270.222222-270.222223s-120.888889-271.644444-270.222222-271.644444zM264.533333 834.844444c0 25.6-21.333333 46.933333-46.933333 46.933334-25.6 0-46.933333-21.333333-46.933333-46.933334V189.155556c0-25.6 21.333333-46.933333 46.933333-46.933334 25.6 0 46.933333 21.333333 46.933333 46.933334v645.688888z m28.444445-492.088888H398.222222c-35.555556 45.511111-55.466667 102.4-55.466666 163.555555 0 64 22.755556 122.311111 59.733333 167.822222h-109.511111V342.755556z m320 405.333333c-133.688889 0-241.777778-108.088889-241.777778-241.777778s108.088889-241.777778 241.777778-241.777778 241.777778 108.088889 241.777778 241.777778-108.088889 241.777778-241.777778 241.777778z" fill="#000000" p-id="11949"></path></svg>