<?xml version="1.0" standalone="no"?><!DOCTYPE svg PUBLIC "-//W3C//DTD SVG 1.1//EN" "http://www.w3.org/Graphics/SVG/1.1/DTD/svg11.dtd"><svg t="1687265754724" viewBox="0 0 1024 1024" version="1.1" xmlns="http://www.w3.org/2000/svg" p-id="8301" xmlns:xlink="http://www.w3.org/1999/xlink" width="200" height="200"><path d="M860.444444 439.466667h-126.577777l39.822222-120.888889c2.844444-9.955556 14.222222-15.644444 22.755555-11.377778 15.644444 5.688889 31.288889 4.266667 45.511112-2.844444s25.6-19.911111 29.866666-35.555556c5.688889-15.644444 4.266667-31.288889-2.844444-45.511111s-19.911111-25.6-35.555556-29.866667l-149.333333-48.355555c-15.644444-5.688889-31.288889-4.266667-45.511111 2.844444s-25.6 19.911111-29.866667 35.555556c-5.688889 15.644444-4.266667 31.288889 2.844445 45.511111s19.911111 25.6 35.555555 29.866666c4.266667 1.422222 8.533333 4.266667 11.377778 8.533334 2.844444 4.266667 2.844444 9.955556 1.422222 14.222222l-42.666667 130.844444-8.533333 27.022223H356.977778c1.422222-34.133333 12.8-66.844444 31.288889-96.711111 12.8 9.955556 28.444444 14.222222 46.933333 15.644444h1.422222c39.822222 0 72.533333-27.022222 81.066667-66.844444l17.066667-85.333334c1.422222-8.533333-1.422222-17.066667-7.111112-22.755555-5.688889-5.688889-14.222222-8.533333-22.755555-7.111111l-85.333333 15.644444c-39.822222 7.111111-68.266667 41.244444-68.266667 82.488889 0 17.066667 5.688889 34.133333 14.222222 46.933333-8.533333 14.222222-17.066667 28.444444-22.755555 42.666667-8.533333-31.288889-22.755556-61.155556-41.244445-88.177778 11.377778-14.222222 18.488889-32.711111 18.488889-54.044444 0-39.822222-28.444444-73.955556-68.266667-81.066667l-85.333333-15.644444c-8.533333-1.422222-15.644444 1.422222-22.755556 7.111111s-8.533333 14.222222-7.111111 22.755555l17.066667 85.333334c8.533333 38.4 41.244444 66.844444 81.066667 66.844444h1.422222c14.222222 0 28.444444-4.266667 41.244444-11.377778 28.444444 42.666667 44.088889 91.022222 44.088889 143.644445H163.555556c-28.444444 0-52.622222 22.755556-52.622223 52.622222s22.755556 52.622222 52.622223 52.622222h18.488888v75.377778c0 110.933333 86.755556 201.955556 196.266667 207.644444-2.844444 5.688889-4.266667 12.8-4.266667 19.911111 0 27.022222 21.333333 48.355556 48.355556 48.355556H611.555556c27.022222 0 48.355556-21.333333 48.355555-48.355556 0-7.111111-1.422222-14.222222-4.266667-19.911111 109.511111-5.688889 196.266667-96.711111 196.266667-207.644444v-75.377778h7.111111c28.444444 0 52.622222-22.755556 52.622222-52.622222s-22.755556-52.622222-51.2-52.622222z m-217.6-18.488889l42.666667-130.844445c4.266667-11.377778 2.844444-24.177778-2.844444-35.555555s-15.644444-19.911111-27.022223-22.755556c-8.533333-2.844444-14.222222-8.533333-18.488888-15.644444-4.266667-7.111111-4.266667-15.644444-1.422223-24.177778 2.844444-8.533333 8.533333-14.222222 15.644445-18.488889 7.111111-4.266667 15.644444-4.266667 24.177778-1.422222L824.888889 220.444444c8.533333 2.844444 14.222222 8.533333 18.488889 15.644445 4.266667 7.111111 4.266667 15.644444 1.422222 24.177778-2.844444 8.533333-8.533333 14.222222-15.644444 18.488889-7.111111 4.266667-15.644444 4.266667-24.177778 1.422222-11.377778-4.266667-24.177778-2.844444-35.555556 2.844444s-19.911111 15.644444-22.755555 27.022222l-42.666667 129.422223h-65.422222l4.266666-18.488889zM379.733333 274.488889c0-25.6 18.488889-48.355556 44.088889-54.044445l79.644445-14.222222-17.066667 79.644445c-5.688889 25.6-27.022222 44.088889-52.622222 44.088889h-1.422222c-11.377778 0-21.333333-4.266667-29.866667-9.955556 7.111111-8.533333 15.644444-17.066667 24.177778-24.177778 5.688889-5.688889 7.111111-14.222222 1.422222-19.911111-5.688889-5.688889-14.222222-7.111111-19.911111-1.422222-8.533333 7.111111-17.066667 15.644444-24.177778 24.177778-1.422222-7.111111-4.266667-15.644444-4.266667-24.177778z m-139.377777 5.688889c-25.6 0-48.355556-18.488889-54.044445-44.088889L169.244444 156.444444l79.644445 14.222223c25.6 4.266667 44.088889 27.022222 44.088889 55.466666 0 9.955556-2.844444 19.911111-8.533334 28.444445-9.955556-12.8-22.755556-24.177778-35.555555-35.555556-5.688889-5.688889-15.644444-4.266667-19.911111 1.422222-5.688889 5.688889-4.266667 15.644444 1.422222 19.911112 11.377778 9.955556 22.755556 21.333333 32.711111 32.711111-5.688889 4.266667-14.222222 7.111111-22.755555 7.111111zM611.555556 867.555556H422.4c-11.377778 0-19.911111-8.533333-19.911111-19.911112 0-11.377778 8.533333-19.911111 19.911111-19.911111H611.555556c11.377778 0 19.911111 8.533333 19.911111 19.911111 0 11.377778-8.533333 19.911111-19.911111 19.911112z m211.911111-247.466667c0 99.555556-81.066667 180.622222-180.622223 180.622222H391.111111c-99.555556 0-180.622222-81.066667-180.622222-180.622222v-75.377778h612.977778v75.377778z m36.977777-103.822222h-696.888888c-12.8 0-24.177778-9.955556-24.177778-24.177778s9.955556-24.177778 24.177778-24.177778h695.466666c12.8 0 24.177778 9.955556 24.177778 24.177778s-9.955556 24.177778-22.755556 24.177778z" fill="#000000" p-id="8302"></path></svg>