<?xml version="1.0" standalone="no"?><!DOCTYPE svg PUBLIC "-//W3C//DTD SVG 1.1//EN" "http://www.w3.org/Graphics/SVG/1.1/DTD/svg11.dtd"><svg t="1687265732163" viewBox="0 0 1024 1024" version="1.1" xmlns="http://www.w3.org/2000/svg" p-id="7571" xmlns:xlink="http://www.w3.org/1999/xlink" width="200" height="200"><path d="M810.666667 500.622222c83.911111-86.755556 89.6-214.755556 14.222222-307.2l-14.222222-18.488889-1.422223-1.422222c-81.066667-76.8-213.333333-79.644444-298.666666-7.111111-85.333333-72.533333-216.177778-69.688889-298.666667 7.111111l-1.422222 1.422222-15.644445 18.488889c-75.377778 92.444444-69.688889 220.444444 14.222223 307.2 4.266667 5.688889 9.955556 9.955556 15.644444 15.644445-9.955556 41.244444-55.466667 248.888889 11.377778 366.933333 9.955556 17.066667 28.444444 28.444444 48.355555 28.444444 25.6 0 48.355556-17.066667 55.466667-42.666666 29.866667-122.311111 62.577778-162.133333 82.488889-174.933334 52.622222-29.866667 120.888889-29.866667 173.511111 0 21.333333 11.377778 52.622222 52.622222 82.488889 174.933334 5.688889 25.6 28.444444 42.666667 55.466667 42.666666 19.911111 0 39.822222-9.955556 48.355555-28.444444 66.844444-118.044444 21.333333-324.266667 11.377778-366.933333 7.111111-5.688889 12.8-9.955556 17.066667-15.644445z m-51.2 368.355556c-4.266667 8.533333-14.222222 12.8-24.177778 12.8-12.8 0-24.177778-8.533333-27.022222-21.333334-27.022222-108.088889-58.311111-170.666667-96.711111-192-31.288889-17.066667-65.422222-27.022222-100.977778-27.022222s-69.688889 9.955556-100.977778 27.022222c-38.4 21.333333-69.688889 85.333333-96.711111 192-2.844444 12.8-14.222222 21.333333-27.022222 21.333334-9.955556 0-19.911111-5.688889-24.177778-12.8-66.844444-119.466667-7.111111-349.866667-7.111111-352.711111v-8.533334c0-2.844444-1.422222-4.266667-4.266667-5.688889l-19.911111-19.911111c-73.955556-75.377778-79.644444-189.155556-12.8-268.8l14.222222-17.066666c73.955556-68.266667 193.422222-68.266667 267.377778 0 2.844444 2.844444 7.111111 4.266667 11.377778 4.266666 4.266667 0 8.533333-1.422222 11.377778-4.266666 73.955556-69.688889 193.422222-69.688889 267.377777 0l14.222223 17.066666c66.844444 81.066667 61.155556 193.422222-12.8 268.8l-19.911112 19.911111c-1.422222 1.422222-2.844444 5.688889-4.266666 7.111112-1.422222 2.844444-1.422222 5.688889 0 7.111111 1.422222 1.422222 61.155556 233.244444-7.111111 352.711111z" fill="#000000" p-id="7572"></path><path d="M611.555556 374.044444h-45.511112v-45.511111c0-31.288889-25.6-55.466667-55.466666-55.466666-29.866667 0-55.466667 25.6-55.466667 56.888889v45.511111h-45.511111c-31.288889 0-55.466667 25.6-55.466667 55.466666 0 29.866667 25.6 55.466667 55.466667 55.466667H455.111111v45.511111c0 31.288889 25.6 55.466667 55.466667 55.466667 29.866667 0 55.466667-25.6 55.466666-55.466667v-45.511111H611.555556c31.288889 0 55.466667-25.6 55.466666-55.466667 0-29.866667-24.177778-56.888889-55.466666-56.888889z m0 83.911112h-59.733334c-8.533333 0-14.222222 5.688889-14.222222 14.222222v59.733333c0 15.644444-12.8 27.022222-27.022222 27.022222-15.644444 0-27.022222-12.8-27.022222-27.022222v-59.733333c0-8.533333-5.688889-14.222222-14.222223-14.222222h-59.733333c-15.644444 0-27.022222-12.8-27.022222-27.022223 0-15.644444 12.8-27.022222 27.022222-27.022222H469.333333c8.533333 0 14.222222-5.688889 14.222223-14.222222v-59.733333c0-15.644444 12.8-27.022222 27.022222-27.022223 15.644444 0 27.022222 12.8 27.022222 27.022223v59.733333c0 8.533333 5.688889 14.222222 14.222222 14.222222H611.555556c15.644444 0 27.022222 12.8 27.022222 27.022222 0 14.222222-11.377778 27.022222-27.022222 27.022223z" fill="#000000" p-id="7573"></path></svg>