<?xml version="1.0" standalone="no"?><!DOCTYPE svg PUBLIC "-//W3C//DTD SVG 1.1//EN" "http://www.w3.org/Graphics/SVG/1.1/DTD/svg11.dtd"><svg t="1687265721797" viewBox="0 0 1024 1024" version="1.1" xmlns="http://www.w3.org/2000/svg" p-id="7282" xmlns:xlink="http://www.w3.org/1999/xlink" width="200" height="200"><path d="M687.246222 646.243556a50.659556 50.659556 0 0 1-50.602666 50.602666 50.659556 50.659556 0 0 1-50.602667-50.602666v-62.464a14.222222 14.222222 0 0 0-14.222222-14.222223H442.168889a14.222222 14.222222 0 0 0-14.222222 14.222223v63.786666a49.351111 49.351111 0 0 1-49.28 49.28 49.351111 49.351111 0 0 1-49.294223-49.28V385.962667a49.991111 49.991111 0 0 1 49.92-49.92 50.176 50.176 0 0 1 49.905778 48.924444l1.393778 69.447111a14.222222 14.222222 0 0 0 14.222222 13.937778h127.004445a14.222222 14.222222 0 0 0 14.222222-14.222222v-67.470222a50.673778 50.673778 0 0 1 50.602667-50.616889 50.673778 50.673778 0 0 1 50.602666 50.616889v259.584z m-50.602666-338.645334a79.146667 79.146667 0 0 0-79.047112 79.061334v53.248h-98.844444l-1.109333-55.495112c-0.853333-42.353778-35.996444-76.814222-78.350223-76.814222a78.464 78.464 0 0 0-78.364444 78.364445v261.603555a77.824 77.824 0 0 0 77.738667 77.724445 77.824 77.824 0 0 0 77.724444-77.724445v-49.564444h101.205333v48.241778a79.146667 79.146667 0 0 0 79.047112 79.047111 79.146667 79.146667 0 0 0 79.047111-79.047111V386.659556a79.146667 79.146667 0 0 0-79.047111-79.061334z" fill="#000000" p-id="7283"></path><path d="M884.949333 784.64c0 54.897778-44.657778 99.555556-99.555555 99.555556h-545.28c-54.897778 0-99.555556-44.657778-99.555556-99.555556V239.36c0-54.883556 44.657778-99.555556 99.555556-99.555556h545.28c54.897778 0 99.555556 44.672 99.555555 99.555556v545.28z m-99.555555-673.28h-545.28c-70.570667 0-128 57.415111-128 128v545.28c0 70.584889 57.429333 128 128 128h545.28c70.570667 0 128-57.415111 128-128V239.36c0-70.584889-57.429333-128-128-128z" fill="#000000" p-id="7284"></path></svg>