<?xml version="1.0" standalone="no"?><!DOCTYPE svg PUBLIC "-//W3C//DTD SVG 1.1//EN" "http://www.w3.org/Graphics/SVG/1.1/DTD/svg11.dtd"><svg t="1687265786749" viewBox="0 0 1024 1024" version="1.1" xmlns="http://www.w3.org/2000/svg" p-id="9320" xmlns:xlink="http://www.w3.org/1999/xlink" width="200" height="200"><path d="M824.888889 739.555556c-18.488889 0-35.555556 5.688889-49.777778 15.644444L546.133333 526.222222h285.866667c42.666667 0 78.222222-35.555556 78.222222-78.222222S874.666667 369.777778 832 369.777778H368.355556c-24.177778 0-46.933333-15.644444-54.044445-39.822222l-54.044444-164.977778c-9.955556-31.288889-38.4-51.2-71.111111-51.2-24.177778 0-46.933333 11.377778-61.155556 31.288889-14.222222 19.911111-18.488889 44.088889-9.955556 66.844444l85.333334 256c11.377778 35.555556 44.088889 58.311111 81.066666 58.311111h193.422223L248.888889 755.2c-14.222222-9.955556-31.288889-15.644444-49.777778-15.644444-46.933333 0-85.333333 38.4-85.333333 85.333333s38.4 85.333333 85.333333 85.333333c42.666667 0 76.8-31.288889 83.911111-71.111111h457.955556c7.111111 39.822222 41.244444 71.111111 83.911111 71.111111 46.933333 0 85.333333-38.4 85.333333-85.333333s-38.4-85.333333-85.333333-85.333333z m-556.088889 35.555555L512 531.911111l243.2 243.2c-7.111111 9.955556-12.8 22.755556-14.222222 35.555556H283.022222c-1.422222-12.8-7.111111-24.177778-14.222222-35.555556z m-38.4-315.733333l-85.333333-256c-4.266667-14.222222-2.844444-29.866667 5.688889-41.244445 8.533333-12.8 22.755556-19.911111 36.977777-19.911111 19.911111 0 38.4 12.8 44.088889 31.288889l54.044445 164.977778c11.377778 35.555556 44.088889 58.311111 81.066666 58.311111h463.644445c27.022222 0 49.777778 22.755556 49.777778 49.777778S859.022222 497.777778 832 497.777778H284.444444c-25.6 0-46.933333-15.644444-54.044444-38.4zM199.111111 881.777778c-31.288889 0-56.888889-25.6-56.888889-56.888889s25.6-56.888889 56.888889-56.888889 56.888889 25.6 56.888889 56.888889-25.6 56.888889-56.888889 56.888889z m625.777778 0c-31.288889 0-56.888889-25.6-56.888889-56.888889s25.6-56.888889 56.888889-56.888889 56.888889 25.6 56.888889 56.888889-25.6 56.888889-56.888889 56.888889z" fill="#000000" p-id="9321"></path></svg>