<?xml version="1.0" standalone="no"?><!DOCTYPE svg PUBLIC "-//W3C//DTD SVG 1.1//EN" "http://www.w3.org/Graphics/SVG/1.1/DTD/svg11.dtd"><svg t="1687265749740" viewBox="0 0 1024 1024" version="1.1" xmlns="http://www.w3.org/2000/svg" p-id="8156" xmlns:xlink="http://www.w3.org/1999/xlink" width="200" height="200"><path d="M594.488889 661.333333l147.911111-184.888889c41.244444-51.2 56.888889-116.622222 42.666667-180.622222s-55.466667-118.044444-113.777778-146.488889l-14.222222-7.111111c-42.666667-28.444444-93.866667-42.666667-145.066667-42.666666-51.2 0-100.977778 14.222222-145.066667 39.822222l-14.222222 7.111111c-58.311111 29.866667-99.555556 82.488889-113.777778 146.488889-14.222222 64 1.422222 129.422222 42.666667 180.622222l147.911111 184.888889-156.444444 194.844444c-9.955556 12.8-12.8 29.866667-5.688889 45.511111s21.333333 24.177778 38.4 24.177778h55.466666c12.8 0 25.6-5.688889 32.711112-15.644444L512 763.733333l116.622222 145.066667c8.533333 9.955556 19.911111 15.644444 32.711111 15.644444h55.466667c17.066667 0 31.288889-9.955556 38.4-24.177777s5.688889-32.711111-5.688889-45.511111L594.488889 661.333333z m41.244444-257.422222L512 558.933333l-123.733333-155.022222c-29.866667-36.977778-44.088889-83.911111-41.244445-129.422222 49.777778-31.288889 105.244444-48.355556 164.977778-48.355556 64 0 116.622222 15.644444 166.4 48.355556 1.422222 45.511111-11.377778 91.022222-42.666667 129.422222z m-12.8-250.311111c24.177778 24.177778 39.822222 54.044444 48.355556 83.911111-46.933333-27.022222-99.555556-39.822222-159.288889-39.822222-55.466667 0-109.511111 14.222222-159.288889 39.822222 8.533333-31.288889 24.177778-59.733333 46.933333-83.911111C435.2 136.533333 473.6 128 512 128s76.8 8.533333 110.933333 25.6zM302.933333 457.955556c-35.555556-44.088889-49.777778-102.4-36.977777-157.866667 9.955556-46.933333 36.977778-86.755556 75.377777-113.777778-38.4 73.955556-31.288889 166.4 22.755556 234.666667l128 159.288889-45.511111 56.888889-143.644445-179.2z m69.688889 432.355555c-2.844444 2.844444-7.111111 5.688889-11.377778 5.688889h-55.466666c-5.688889 0-9.955556-2.844444-12.8-8.533333-2.844444-5.688889-1.422222-11.377778 1.422222-15.644445l362.666667-452.266666c54.044444-68.266667 61.155556-160.711111 22.755555-234.666667 38.4 27.022222 65.422222 66.844444 75.377778 113.777778 11.377778 55.466667-1.422222 112.355556-36.977778 157.866666L372.622222 890.311111z m356.977778-2.844444c-2.844444 5.688889-7.111111 8.533333-12.8 8.533333h-55.466667c-4.266667 0-8.533333-1.422222-11.377777-5.688889L529.066667 739.555556l45.511111-56.888889 152.177778 189.155555c4.266667 5.688889 5.688889 11.377778 2.844444 15.644445z" fill="#000000" p-id="8157"></path></svg>