<?xml version="1.0" standalone="no"?><!DOCTYPE svg PUBLIC "-//W3C//DTD SVG 1.1//EN" "http://www.w3.org/Graphics/SVG/1.1/DTD/svg11.dtd"><svg t="1687265812881" viewBox="0 0 1024 1024" version="1.1" xmlns="http://www.w3.org/2000/svg" p-id="10194" xmlns:xlink="http://www.w3.org/1999/xlink" width="200" height="200"><path d="M512 113.777778C292.977778 113.777778 113.777778 292.977778 113.777778 512s179.2 398.222222 398.222222 398.222222 398.222222-179.2 398.222222-398.222222S731.022222 113.777778 512 113.777778z m0 768c-203.377778 0-369.777778-166.4-369.777778-369.777778s166.4-369.777778 369.777778-369.777778 369.777778 166.4 369.777778 369.777778-166.4 369.777778-369.777778 369.777778z" fill="#000000" p-id="10195"></path><path d="M705.422222 302.933333h-129.422222c-8.533333 0-14.222222 5.688889-14.222222 14.222223v118.044444h-99.555556l-2.844444-118.044444c0-7.111111-7.111111-14.222222-14.222222-14.222223h-126.577778c-8.533333 0-14.222222 5.688889-14.222222 14.222223v389.688888c0 8.533333 5.688889 14.222222 14.222222 14.222223h126.577778c8.533333 0 14.222222-5.688889 14.222222-14.222223v-113.777777h100.977778v113.777777c0 8.533333 5.688889 14.222222 14.222222 14.222223h129.422222c8.533333 0 14.222222-5.688889 14.222222-14.222223V317.155556c1.422222-7.111111-5.688889-14.222222-12.8-14.222223z m-14.222222 389.688889h-100.977778v-113.777778c0-8.533333-5.688889-14.222222-14.222222-14.222222h-129.422222c-8.533333 0-14.222222 5.688889-14.222222 14.222222v113.777778h-98.133334V331.377778h99.555556l2.844444 118.044444c0 7.111111 7.111111 14.222222 14.222222 14.222222h126.577778c8.533333 0 14.222222-5.688889 14.222222-14.222222v-118.044444h100.977778v361.244444h-1.422222z" fill="#000000" p-id="10196"></path></svg>