<?xml version="1.0" standalone="no"?><!DOCTYPE svg PUBLIC "-//W3C//DTD SVG 1.1//EN" "http://www.w3.org/Graphics/SVG/1.1/DTD/svg11.dtd"><svg t="1687265740699" viewBox="0 0 1024 1024" version="1.1" xmlns="http://www.w3.org/2000/svg" p-id="7863" xmlns:xlink="http://www.w3.org/1999/xlink" width="200" height="200"><path d="M512 220.444444c70.570667 0 128 57.415111 128 128s-57.429333 128-128 128-128-57.415111-128-128 57.429333-128 128-128m0 284.444445c86.257778 0 156.444444-70.186667 156.444444-156.444445s-70.186667-156.444444-156.444444-156.444444-156.444444 70.186667-156.444444 156.444444 70.186667 156.444444 156.444444 156.444445" fill="#000000" p-id="7864"></path><path d="M469.333333 405.333333a14.222222 14.222222 0 0 0 14.222223-14.222222v-28.444444h56.888888v28.444444a14.222222 14.222222 0 1 0 28.444445 0v-85.333333a14.222222 14.222222 0 1 0-28.444445 0v28.444444h-56.888888v-28.444444a14.222222 14.222222 0 1 0-28.444445 0v85.333333a14.222222 14.222222 0 0 0 14.222222 14.222222" fill="#000000" p-id="7865"></path><path d="M867.555556 881.777778h-85.333334v-105.400889h99.555556V867.555556c0 7.850667-6.385778 14.222222-14.222222 14.222222z m-465.692445 0V659.143111c0-15.687111 12.757333-28.444444 28.444445-28.444444h171.662222c15.687111 0 28.444444 12.757333 28.444444 28.444444V881.777778h-228.551111zM270.222222 509.639111V213.333333c0-39.210667 31.900444-71.111111 71.111111-71.111111h341.333334c39.210667 0 71.111111 31.900444 71.111111 71.111111v668.444445h-94.919111V659.143111c0-31.374222-25.528889-56.888889-56.888889-56.888889h-171.662222c-31.374222 0-56.888889 25.514667-56.888889 56.888889V881.777778H270.222222V509.639111zM142.222222 867.555556v-91.178667h99.555556V881.777778h-85.333334c-7.836444 0-14.222222-6.371556-14.222222-14.222222z m28.444445-343.694223h71.111111v95.288889h-99.555556v-66.844444c0-15.687111 12.757333-28.444444 28.444445-28.444445z m-28.444445 224.071111h99.555556v-100.337777h-99.555556v100.337777z m640 0h99.555556v-100.337777h-99.555556v100.337777z m71.111111-224.071111c15.687111 0 28.444444 12.757333 28.444445 28.444445v66.844444h-99.555556v-95.288889h71.111111z m0-28.444444h-71.111111V213.333333c0-54.883556-44.657778-99.555556-99.555555-99.555555H341.333333c-54.897778 0-99.555556 44.672-99.555555 99.555555v282.083556h-71.111111c-31.374222 0-56.888889 25.514667-56.888889 56.888889V867.555556c0 23.523556 19.143111 42.666667 42.666666 42.666666h711.111112c23.523556 0 42.666667-19.143111 42.666666-42.666666V552.305778c0-31.374222-25.514667-56.888889-56.888889-56.888889z" fill="#000000" p-id="7866"></path></svg>