<?xml version="1.0" standalone="no"?><!DOCTYPE svg PUBLIC "-//W3C//DTD SVG 1.1//EN" "http://www.w3.org/Graphics/SVG/1.1/DTD/svg11.dtd"><svg t="1687265727407" viewBox="0 0 1024 1024" version="1.1" xmlns="http://www.w3.org/2000/svg" p-id="7428" xmlns:xlink="http://www.w3.org/1999/xlink" width="200" height="200"><path d="M480.711111 153.6c-8.533333 0-14.222222 5.688889-14.222222 14.222222v412.444445l-56.888889-59.733334c-4.266667-17.066667-12.8-34.133333-25.6-48.355555 17.066667-21.333333 27.022222-49.777778 27.022222-78.222222 0-72.533333-62.577778-132.266667-137.955555-132.266667h-4.266667c-88.177778 0-160.711111 95.288889-160.711111 211.911111s72.533333 211.911111 160.711111 211.911111h7.111111c72.533333 0 130.844444-52.622222 137.955556-119.466667l52.622222 55.466667v233.244445c0 8.533333 5.688889 14.222222 14.222222 14.222222s14.222222-5.688889 14.222222-14.222222V167.822222c0-7.111111-7.111111-14.222222-14.222222-14.222222zM275.911111 657.066667h-7.111111c-72.533333 0-132.266667-82.488889-132.266667-183.466667 0-100.977778 59.733333-183.466667 132.266667-183.466667h4.266667c61.155556 0 109.511111 46.933333 109.511111 103.822223S332.8 497.777778 273.066667 497.777778c-8.533333 0-14.222222 5.688889-14.222223 14.222222s5.688889 14.222222 14.222223 14.222222c35.555556 0 66.844444-12.8 91.022222-32.711111 14.222222 17.066667 21.333333 38.4 21.333333 61.155556 0 55.466667-48.355556 102.4-109.511111 102.4z m479.288889-396.8h-4.266667c-76.8 0-137.955556 59.733333-137.955555 132.266666 0 29.866667 9.955556 56.888889 27.022222 78.222223-11.377778 14.222222-19.911111 31.288889-25.6 48.355555l-56.888889 59.733333v-412.444444c0-8.533333-5.688889-14.222222-14.222222-14.222222s-14.222222 5.688889-14.222222 14.222222V853.333333c0 8.533333 5.688889 14.222222 14.222222 14.222223s14.222222-5.688889 14.222222-14.222223V621.511111l52.622222-55.466667c7.111111 66.844444 65.422222 119.466667 137.955556 119.466667h7.111111c88.177778 0 160.711111-95.288889 160.711111-211.911111s-72.533333-213.333333-160.711111-213.333333z m0 396.8h-7.111111c-61.155556 0-109.511111-46.933333-109.511111-103.822223 0-22.755556 7.111111-44.088889 21.333333-61.155555 24.177778 19.911111 56.888889 32.711111 91.022222 32.711111 8.533333 0 14.222222-5.688889 14.222223-14.222222s-5.688889-14.222222-14.222223-14.222222c-61.155556 0-109.511111-46.933333-109.511111-103.822223s49.777778-103.822222 109.511111-103.822222h4.266667c72.533333 0 132.266667 82.488889 132.266667 183.466667 0 102.4-59.733333 184.888889-132.266667 184.888889z" fill="#000000" p-id="7429"></path></svg>