<?xml version="1.0" standalone="no"?><!DOCTYPE svg PUBLIC "-//W3C//DTD SVG 1.1//EN" "http://www.w3.org/Graphics/SVG/1.1/DTD/svg11.dtd"><svg t="1687265921557" viewBox="0 0 1024 1024" version="1.1" xmlns="http://www.w3.org/2000/svg" p-id="13403" xmlns:xlink="http://www.w3.org/1999/xlink" width="200" height="200"><path d="M839.111111 113.777778H184.888889c-39.822222 0-71.111111 31.288889-71.111111 71.111111v526.222222c0 39.822222 31.288889 71.111111 71.111111 71.111111h163.555555L298.666667 832c-12.8 12.8-17.066667 32.711111-9.955556 49.777778 7.111111 17.066667 24.177778 28.444444 42.666667 28.444444h359.822222c18.488889 0 35.555556-11.377778 42.666667-28.444444s2.844444-36.977778-9.955556-49.777778L675.555556 782.222222H839.111111c39.822222 0 71.111111-31.288889 71.111111-71.111111V184.888889c0-39.822222-31.288889-71.111111-71.111111-71.111111z m-654.222222 28.444444h654.222222c24.177778 0 42.666667 18.488889 42.666667 42.666667v416.711111H142.222222V184.888889c0-24.177778 18.488889-42.666667 42.666667-42.666667z m519.111111 709.688889c7.111111 7.111111 4.266667 17.066667 4.266667 18.488889 0 1.422222-5.688889 11.377778-17.066667 11.377778H332.8c-11.377778 0-15.644444-8.533333-15.644444-11.377778-1.422222-2.844444-4.266667-11.377778 4.266666-18.488889l68.266667-69.688889h246.044444l68.266667 69.688889zM839.111111 753.777778H184.888889c-24.177778 0-42.666667-18.488889-42.666667-42.666667v-81.066667h739.555556V711.111111c0 24.177778-18.488889 42.666667-42.666667 42.666667z" fill="#000000" p-id="13404"></path><path d="M512 641.422222c-27.022222 0-49.777778 22.755556-49.777778 49.777778s22.755556 49.777778 49.777778 49.777778 49.777778-22.755556 49.777778-49.777778-22.755556-49.777778-49.777778-49.777778z m0 71.111111c-11.377778 0-21.333333-9.955556-21.333333-21.333333s9.955556-21.333333 21.333333-21.333333 21.333333 9.955556 21.333333 21.333333-9.955556 21.333333-21.333333 21.333333z m-122.311111-241.777777c7.111111 14.222222 24.177778 19.911111 38.4 12.8l36.977778-18.488889v39.822222c0 15.644444 12.8 28.444444 29.866666 28.444444h35.555556c15.644444 0 29.866667-12.8 29.866667-28.444444V469.333333l31.288888 17.066667c14.222222 7.111111 31.288889 2.844444 39.822223-9.955556l17.066666-29.866666c4.266667-7.111111 5.688889-14.222222 2.844445-21.333334-1.422222-7.111111-7.111111-14.222222-14.222222-17.066666l-25.6-14.222222 27.022222-12.8c7.111111-2.844444 12.8-9.955556 14.222222-17.066667 2.844444-7.111111 1.422222-15.644444-1.422222-21.333333L635.733333 312.888889c-7.111111-14.222222-24.177778-19.911111-38.4-12.8l-36.977777 18.488889v-39.822222c0-15.644444-12.8-28.444444-29.866667-28.444445h-35.555556c-15.644444 0-29.866667 12.8-29.866666 28.444445V312.888889l-31.288889-17.066667c-14.222222-7.111111-31.288889-2.844444-39.822222 9.955556l-17.066667 29.866666c-4.266667 7.111111-5.688889 14.222222-2.844445 21.333334 1.422222 7.111111 7.111111 14.222222 14.222223 17.066666l25.6 14.222223-27.022223 12.8c-7.111111 2.844444-12.8 9.955556-14.222222 17.066666-4.266667 8.533333-2.844444 15.644444 0 22.755556l17.066667 29.866667z m59.733333-68.266667c4.266667-2.844444 7.111111-7.111111 8.533334-12.8 0-5.688889-2.844444-9.955556-7.111112-12.8l-49.777777-28.444445 18.488889-29.866666 52.622222 29.866666c4.266667 2.844444 9.955556 2.844444 14.222222 0 4.266667-2.844444 7.111111-7.111111 7.111111-12.8l1.422222-59.733333h35.555556v62.577778c0 4.266667 2.844444 9.955556 7.111111 11.377778 4.266667 2.844444 9.955556 2.844444 14.222222 0l58.311111-28.444445 15.644445 29.866667-51.2 25.6c-4.266667 2.844444-7.111111 7.111111-8.533334 12.8 0 5.688889 2.844444 9.955556 7.111112 12.8l49.777777 28.444444-18.488889 29.866667-52.622222-29.866667c-4.266667-2.844444-9.955556-2.844444-14.222222 0-4.266667 2.844444-7.111111 7.111111-7.111111 12.8l-1.422222 59.733334h-35.555556V440.888889c0-4.266667-2.844444-9.955556-7.111111-11.377778-2.844444-1.422222-4.266667-2.844444-7.111111-2.844444s-4.266667 0-5.688889 1.422222l-58.311111 28.444444-17.066667-28.444444 51.2-25.6z" fill="#000000" p-id="13405"></path></svg>