<?xml version="1.0" standalone="no"?><!DOCTYPE svg PUBLIC "-//W3C//DTD SVG 1.1//EN" "http://www.w3.org/Graphics/SVG/1.1/DTD/svg11.dtd"><svg t="1687265763392" viewBox="0 0 1024 1024" version="1.1" xmlns="http://www.w3.org/2000/svg" p-id="8590" xmlns:xlink="http://www.w3.org/1999/xlink" width="200" height="200"><path d="M587.377778 356.977778h-29.866667V327.111111c0-25.6-19.911111-45.511111-45.511111-45.511111-25.6 0-45.511111 19.911111-45.511111 45.511111v29.866667h-29.866667c-25.6 0-45.511111 19.911111-45.511111 45.511111 0 25.6 19.911111 45.511111 45.511111 45.511111h29.866667v29.866667c0 25.6 19.911111 45.511111 45.511111 45.511111 25.6 0 45.511111-19.911111 45.511111-45.511111v-29.866667h29.866667c25.6 0 45.511111-19.911111 45.511111-45.511111 0-25.6-19.911111-45.511111-45.511111-45.511111z m0 62.577778h-44.088889c-8.533333 0-14.222222 5.688889-14.222222 14.222222v44.088889c0 9.955556-7.111111 17.066667-17.066667 17.066666s-17.066667-7.111111-17.066667-17.066666v-44.088889c0-8.533333-5.688889-14.222222-14.222222-14.222222h-44.088889c-9.955556 0-17.066667-7.111111-17.066666-17.066667s7.111111-17.066667 17.066666-17.066667h44.088889c8.533333 0 14.222222-5.688889 14.222222-14.222222V327.111111c0-9.955556 7.111111-17.066667 17.066667-17.066667s17.066667 7.111111 17.066667 17.066667v44.088889c0 8.533333 5.688889 14.222222 14.222222 14.222222h44.088889c9.955556 0 17.066667 7.111111 17.066666 17.066667s-7.111111 17.066667-17.066666 17.066667z" fill="#000000" p-id="8591"></path><path d="M512 203.377778c-109.511111 0-199.111111 89.6-199.111111 199.111111s89.6 199.111111 199.111111 199.111111 199.111111-89.6 199.111111-199.111111-89.6-199.111111-199.111111-199.111111z m0 369.777778c-93.866667 0-170.666667-76.8-170.666667-170.666667s76.8-170.666667 170.666667-170.666667 170.666667 76.8 170.666667 170.666667-76.8 170.666667-170.666667 170.666667z" fill="#000000" p-id="8592"></path><path d="M803.555556 361.244444C776.533333 220.444444 654.222222 119.466667 512 119.466667c-163.555556 0-295.822222 132.266667-295.822222 295.822222 0 237.511111 258.844444 467.911111 270.222222 477.866667 7.111111 7.111111 17.066667 9.955556 27.022222 9.955555s19.911111-4.266667 27.022222-9.955555c9.955556-8.533333 254.577778-227.555556 268.8-457.955556V412.444444c-1.422222-17.066667-2.844444-34.133333-5.688888-51.2z m-283.022223 512c-4.266667 4.266667-11.377778 4.266667-15.644444 0-9.955556-9.955556-260.266667-231.822222-260.266667-456.533333 0-147.911111 119.466667-267.377778 267.377778-267.377778 128 0 238.933333 91.022222 263.111111 217.6 2.844444 15.644444 4.266667 31.288889 4.266667 46.933334v22.755555C766.577778 654.222222 530.488889 864.711111 520.533333 873.244444z" fill="#000000" p-id="8593"></path></svg>