<?xml version="1.0" standalone="no"?><!DOCTYPE svg PUBLIC "-//W3C//DTD SVG 1.1//EN" "http://www.w3.org/Graphics/SVG/1.1/DTD/svg11.dtd"><svg t="1687265555329" viewBox="0 0 1024 1024" version="1.1" xmlns="http://www.w3.org/2000/svg" p-id="2328" xmlns:xlink="http://www.w3.org/1999/xlink" width="200" height="200"><path d="M652.8 311.466667c-25.6-1.422222-52.622222 1.422222-79.644444 11.377777l-42.666667 15.644445c-4.266667 1.422222-8.533333 2.844444-14.222222 2.844444 2.844444-17.066667 1.422222-34.133333-2.844445-51.2h8.533334c31.288889 0 62.577778-12.8 86.755555-35.555555 31.288889-31.288889 42.666667-75.377778 31.288889-118.044445-1.422222-4.266667-5.688889-8.533333-9.955556-8.533333-42.666667-11.377778-86.755556 1.422222-118.044444 31.288889-17.066667 17.066667-28.444444 39.822222-32.711111 64-19.911111-22.755556-48.355556-39.822222-81.066667-48.355556-7.111111-1.422222-15.644444 2.844444-17.066666 9.955556-1.422222 7.111111 2.844444 15.644444 9.955555 17.066667 32.711111 7.111111 59.733333 27.022222 78.222222 55.466666 15.644444 24.177778 21.333333 51.2 18.488889 78.222222l-35.555555-12.8c-27.022222-9.955556-54.044444-12.8-79.644445-11.377777-125.155556 9.955556-223.288889 116.622222-223.288889 241.777777v8.533334c0 196.266667 128 338.488889 302.933334 338.488889 11.377778 0 22.755556-2.844444 35.555555-7.111111 17.066667-7.111111 35.555556-7.111111 51.2 0 11.377778 4.266667 24.177778 7.111111 35.555556 7.111111 174.933333 0 302.933333-142.222222 302.933333-338.488889v-8.533334c-1.422222-125.155556-99.555556-231.822222-224.711111-241.777777z m-120.888889-132.266667c21.333333-21.333333 52.622222-31.288889 82.488889-25.6 5.688889 29.866667-4.266667 61.155556-25.6 82.488889s-52.622222 31.288889-82.488889 25.6c-5.688889-31.288889 4.266667-61.155556 25.6-82.488889z m315.733333 382.577778c0 179.2-115.2 310.044444-274.488888 310.044444-7.111111 0-15.644444-1.422222-24.177778-5.688889-11.377778-4.266667-24.177778-7.111111-36.977778-7.111111-12.8 0-24.177778 2.844444-36.977778 7.111111-8.533333 2.844444-17.066667 5.688889-24.177778 5.688889-159.288889 0-274.488889-130.844444-274.488888-310.044444v-8.533334c0-110.933333 86.755556-204.8 197.688888-213.333333 21.333333-1.422222 45.511111 1.422222 68.266667 9.955556l44.088889 15.644444c8.533333 2.844444 14.222222 4.266667 21.333333 4.266667h4.266667c9.955556 0 18.488889-1.422222 28.444444-4.266667l42.666667-15.644444c24.177778-8.533333 46.933333-11.377778 68.266667-9.955556 110.933333 8.533333 197.688889 102.4 197.688889 213.333333v8.533334h-1.422223z" fill="#000000" p-id="2329"></path></svg>