<?xml version="1.0" standalone="no"?><!DOCTYPE svg PUBLIC "-//W3C//DTD SVG 1.1//EN" "http://www.w3.org/Graphics/SVG/1.1/DTD/svg11.dtd"><svg t="1687265804089" viewBox="0 0 1024 1024" version="1.1" xmlns="http://www.w3.org/2000/svg" p-id="9902" xmlns:xlink="http://www.w3.org/1999/xlink" width="200" height="200"><path d="M776.533333 238.933333h-28.444444v-28.444444c0-24.177778-19.911111-42.666667-42.666667-42.666667H399.644444c-7.111111-29.866667-31.288889-52.622222-62.577777-54.044444-18.488889-1.422222-36.977778 5.688889-51.2 18.488889-9.955556 9.955556-17.066667 21.333333-19.911111 35.555555h-19.911112c-24.177778 0-42.666667 19.911111-42.666666 42.666667V796.444444c0 24.177778 19.911111 42.666667 42.666666 42.666667h28.444445v28.444445c0 24.177778 19.911111 42.666667 42.666667 42.666666h456.533333c24.177778 0 42.666667-19.911111 42.666667-42.666666V281.6c2.844444-22.755556-17.066667-42.666667-39.822223-42.666667z m-469.333333-85.333333c8.533333-7.111111 18.488889-11.377778 29.866667-11.377778 15.644444 1.422222 28.444444 11.377778 34.133333 25.6H298.666667c1.422222-5.688889 4.266667-9.955556 8.533333-14.222222zM233.244444 796.444444V210.488889c0-8.533333 7.111111-14.222222 14.222223-14.222222h126.577777v91.022222c0 7.111111-5.688889 12.8-12.8 12.8s-12.8-5.688889-12.8-12.8v-34.133333c0-8.533333-5.688889-14.222222-14.222222-14.222223s-14.222222 5.688889-14.222222 14.222223v34.133333c0 22.755556 18.488889 41.244444 41.244444 41.244444 22.755556 0 41.244444-18.488889 41.244445-41.244444v-91.022222h302.933333c8.533333 0 14.222222 7.111111 14.222222 14.222222V796.444444c0 8.533333-7.111111 14.222222-14.222222 14.222223H247.466667c-7.111111 0-14.222222-7.111111-14.222223-14.222223z m557.511112 71.111112c0 8.533333-7.111111 14.222222-14.222223 14.222222H318.577778c-8.533333 0-14.222222-7.111111-14.222222-14.222222v-28.444445h399.644444c24.177778 0 42.666667-19.911111 42.666667-42.666667V267.377778h28.444444c8.533333 0 14.222222 7.111111 14.222222 14.222222V867.555556h1.422223z" fill="#000000" p-id="9903"></path><path d="M395.377778 496.355556h32.711111v32.711111c0 25.6 21.333333 46.933333 46.933333 46.933333 25.6 0 46.933333-21.333333 46.933334-46.933333v-32.711111H554.666667c25.6 0 46.933333-21.333333 46.933333-46.933334 0-25.6-21.333333-46.933333-46.933333-46.933333h-32.711111V369.777778c0-25.6-21.333333-46.933333-46.933334-46.933334-25.6 0-46.933333 21.333333-46.933333 46.933334v32.711111h-32.711111c-25.6 0-46.933333 21.333333-46.933334 46.933333 0 25.6 21.333333 46.933333 46.933334 46.933334z m0-66.844445h46.933333c8.533333 0 14.222222-5.688889 14.222222-14.222222v-46.933333c0-9.955556 8.533333-18.488889 18.488889-18.488889 9.955556 0 18.488889 8.533333 18.488889 18.488889v46.933333c0 8.533333 5.688889 14.222222 14.222222 14.222222H554.666667c9.955556 0 18.488889 8.533333 18.488889 18.488889 0 9.955556-8.533333 18.488889-18.488889 18.488889h-46.933334c-8.533333 0-14.222222 5.688889-14.222222 14.222222v46.933333c0 9.955556-8.533333 18.488889-18.488889 18.488889-9.955556 0-18.488889-8.533333-18.488889-18.488889v-46.933333c0-8.533333-5.688889-14.222222-14.222222-14.222222h-46.933333c-9.955556 0-18.488889-8.533333-18.488889-18.488889 0-9.955556 8.533333-18.488889 18.488889-18.488889z m209.066666 209.066667h-256c-8.533333 0-14.222222 5.688889-14.222222 14.222222s5.688889 14.222222 14.222222 14.222222h257.422223c8.533333 0 14.222222-5.688889 14.222222-14.222222s-7.111111-14.222222-15.644445-14.222222z m0 71.111111h-256c-8.533333 0-14.222222 5.688889-14.222222 14.222222s5.688889 14.222222 14.222222 14.222222h257.422223c8.533333 0 14.222222-5.688889 14.222222-14.222222s-7.111111-14.222222-15.644445-14.222222z" fill="#000000" p-id="9904"></path></svg>