<?xml version="1.0" standalone="no"?><!DOCTYPE svg PUBLIC "-//W3C//DTD SVG 1.1//EN" "http://www.w3.org/Graphics/SVG/1.1/DTD/svg11.dtd"><svg t="1687265773684" viewBox="0 0 1024 1024" version="1.1" xmlns="http://www.w3.org/2000/svg" p-id="8882" xmlns:xlink="http://www.w3.org/1999/xlink" width="200" height="200"><path d="M595.911111 385.422222h21.333333v21.333334c0 21.333333 17.066667 39.822222 38.4 39.822222 21.333333 0 38.4-17.066667 38.4-39.822222v-21.333334h21.333334c21.333333 0 38.4-17.066667 38.4-39.822222 0-22.755556-17.066667-39.822222-38.4-39.822222h-21.333334V284.444444c0-21.333333-17.066667-39.822222-38.4-39.822222-21.333333 0-38.4 17.066667-38.4 39.822222v21.333334h-21.333333c-21.333333 0-38.4 17.066667-38.4 39.822222 0 22.755556 15.644444 39.822222 38.4 39.822222z m0-49.777778h35.555556c8.533333 0 14.222222-5.688889 14.222222-14.222222v-35.555555c0-5.688889 4.266667-11.377778 9.955555-11.377778 5.688889 0 9.955556 4.266667 9.955556 11.377778v35.555555c0 8.533333 5.688889 14.222222 14.222222 14.222222h35.555556c5.688889 0 9.955556 4.266667 9.955555 11.377778 0 5.688889-4.266667 11.377778-9.955555 11.377778h-35.555556c-8.533333 0-14.222222 5.688889-14.222222 14.222222v35.555556c0 5.688889-4.266667 11.377778-9.955556 11.377778-5.688889 0-9.955556-4.266667-9.955555-11.377778v-35.555556c0-8.533333-5.688889-14.222222-14.222222-14.222222h-35.555556c-5.688889 0-9.955556-4.266667-9.955555-11.377778-1.422222-5.688889 2.844444-11.377778 9.955555-11.377778z" fill="#000000" p-id="8883"></path><path d="M860.444444 479.288889V201.955556c0-24.177778-18.488889-42.666667-42.666666-42.666667H493.511111c-24.177778 0-42.666667 18.488889-42.666667 42.666667v257.422222c-1.422222-1.422222-2.844444-4.266667-4.266666-5.688889l-38.4-65.422222c-12.8-21.333333-35.555556-35.555556-61.155556-35.555556H186.311111c-39.822222 0-71.111111 31.288889-71.111111 71.111111v398.222222c0 39.822222 31.288889 71.111111 71.111111 71.111112H839.111111c39.822222 0 71.111111-31.288889 71.111111-71.111112V546.133333c-1.422222-31.288889-21.333333-58.311111-49.777778-66.844444zM493.511111 187.733333h324.266667c8.533333 0 14.222222 5.688889 14.222222 14.222223v271.644444H477.866667V201.955556c1.422222-7.111111 7.111111-14.222222 15.644444-14.222223z m386.844445 634.311111c0 24.177778-18.488889 42.666667-42.666667 42.666667H186.311111c-24.177778 0-42.666667-18.488889-42.666667-42.666667v-398.222222c0-24.177778 18.488889-42.666667 42.666667-42.666666h160.711111c15.644444 0 29.866667 8.533333 36.977778 21.333333l38.4 65.422222c12.8 21.333333 35.555556 35.555556 61.155556 35.555556h355.555555c24.177778 0 42.666667 18.488889 42.666667 42.666666v275.911111h-1.422222z" fill="#000000" p-id="8884"></path><path d="M477.866667 640h-256c-8.533333 0-14.222222 5.688889-14.222223 14.222222s5.688889 14.222222 14.222223 14.222222h256c8.533333 0 14.222222-5.688889 14.222222-14.222222s-5.688889-14.222222-14.222222-14.222222z m0 71.111111h-256c-8.533333 0-14.222222 5.688889-14.222223 14.222222s5.688889 14.222222 14.222223 14.222223h256c8.533333 0 14.222222-5.688889 14.222222-14.222223s-5.688889-14.222222-14.222222-14.222222z" fill="#000000" p-id="8885"></path></svg>