<?xml version="1.0" standalone="no"?><!DOCTYPE svg PUBLIC "-//W3C//DTD SVG 1.1//EN" "http://www.w3.org/Graphics/SVG/1.1/DTD/svg11.dtd"><svg t="1687265860079" viewBox="0 0 1024 1024" version="1.1" xmlns="http://www.w3.org/2000/svg" p-id="11508" xmlns:xlink="http://www.w3.org/1999/xlink" width="200" height="200"><path d="M440.888889 746.666667c-27.022222 0-49.777778 22.755556-49.777778 49.777777 0 12.8 5.688889 25.6 14.222222 35.555556 9.955556 9.955556 21.333333 14.222222 35.555556 14.222222 12.8 0 25.6-5.688889 35.555555-14.222222s14.222222-21.333333 14.222223-35.555556c0-27.022222-22.755556-49.777778-49.777778-49.777777z m15.644444 65.422222c-4.266667 4.266667-9.955556 5.688889-15.644444 5.688889-5.688889 0-11.377778-2.844444-15.644445-5.688889-4.266667-4.266667-5.688889-9.955556-5.688888-15.644445 0-11.377778 9.955556-21.333333 21.333333-21.333333s21.333333 9.955556 21.333333 21.333333c0 5.688889-2.844444 11.377778-5.688889 15.644445z" fill="#000000" p-id="11509"></path><path d="M679.822222 742.4v-69.688889c0-8.533333-5.688889-14.222222-14.222222-14.222222s-14.222222 7.111111-14.222222 14.222222v21.333333l-420.977778 2.844445-2.844444-430.933333 420.977777-1.422223v28.444445c0 8.533333 5.688889 14.222222 14.222223 14.222222s14.222222-7.111111 14.222222-14.222222v-82.488889c0-52.622222-44.088889-96.711111-99.555556-96.711111H297.244444c-54.044444 0-98.133333 44.088889-98.133333 96.711111v39.822222l2.844445 483.555556v79.644444c0 25.6 9.955556 49.777778 29.866666 68.266667 18.488889 18.488889 42.666667 28.444444 69.688889 28.444444h280.177778c27.022222 0 51.2-9.955556 69.688889-28.444444 18.488889-18.488889 28.444444-42.666667 28.444444-68.266667v-71.111111zM297.244444 142.222222h280.177778c38.4 0 69.688889 29.866667 71.111111 68.266667v25.6l-420.977777 1.422222v-25.6c0-38.4 31.288889-68.266667 69.688888-69.688889z m334.222223 718.222222c-12.8 12.8-31.288889 19.911111-49.777778 19.911112l-280.177778 1.422222c-19.911111 0-36.977778-7.111111-49.777778-19.911111-12.8-12.8-21.333333-29.866667-21.333333-48.355556v-89.6l420.977778-1.422222v89.6c0 18.488889-7.111111 35.555556-19.911111 48.355555z" fill="#000000" p-id="11510"></path><path d="M396.8 203.377778h83.911111c8.533333 0 14.222222-7.111111 14.222222-14.222222 0-8.533333-5.688889-14.222222-14.222222-14.222223h-83.911111c-8.533333 0-14.222222 7.111111-14.222222 14.222223 0 8.533333 5.688889 14.222222 14.222222 14.222222zM768 426.666667h-46.933333v-46.933334c0-31.288889-25.6-56.888889-56.888889-56.888889s-56.888889 25.6-56.888889 56.888889V426.666667h-46.933333c-31.288889 0-56.888889 25.6-56.888889 56.888889s25.6 56.888889 56.888889 56.888888h46.933333v46.933334c0 31.288889 25.6 56.888889 56.888889 56.888889s56.888889-25.6 56.888889-56.888889V540.444444H768c31.288889 0 56.888889-25.6 56.888889-56.888888s-25.6-56.888889-56.888889-56.888889z m0 85.333333h-61.155556c-8.533333 0-14.222222 5.688889-14.222222 14.222222v61.155556c0 15.644444-12.8 28.444444-28.444444 28.444444s-28.444444-12.8-28.444445-28.444444V526.222222c0-8.533333-5.688889-14.222222-14.222222-14.222222h-61.155555c-15.644444 0-28.444444-12.8-28.444445-28.444444s12.8-28.444444 28.444445-28.444445h61.155555c8.533333 0 14.222222-5.688889 14.222222-14.222222v-61.155556c0-15.644444 12.8-28.444444 28.444445-28.444444s28.444444 12.8 28.444444 28.444444V440.888889c0 8.533333 5.688889 14.222222 14.222222 14.222222H768c15.644444 0 28.444444 12.8 28.444444 28.444445s-12.8 28.444444-28.444444 28.444444z" fill="#000000" p-id="11511"></path></svg>