<?xml version="1.0" standalone="no"?><!DOCTYPE svg PUBLIC "-//W3C//DTD SVG 1.1//EN" "http://www.w3.org/Graphics/SVG/1.1/DTD/svg11.dtd"><svg t="1687265869017" viewBox="0 0 1024 1024" version="1.1" xmlns="http://www.w3.org/2000/svg" p-id="11801" xmlns:xlink="http://www.w3.org/1999/xlink" width="200" height="200"><path d="M839.111111 271.644444h-14.222222v-18.488888c0-24.177778-18.488889-42.666667-42.666667-42.666667s-42.666667 18.488889-42.666666 42.666667v18.488888h-71.111112c-2.844444-68.266667-58.311111-122.311111-128-122.311111h-56.888888c-68.266667 0-125.155556 54.044444-128 122.311111h-71.111112v-18.488888c0-24.177778-18.488889-42.666667-42.666666-42.666667s-42.666667 18.488889-42.666667 42.666667v18.488888h-14.222222c-39.822222 0-71.111111 31.288889-71.111111 71.111112v460.8c0 39.822222 31.288889 71.111111 71.111111 71.111111h654.222222c39.822222 0 71.111111-31.288889 71.111111-71.111111V342.755556c0-38.4-31.288889-71.111111-71.111111-71.111112z m-71.111111-18.488888c0-8.533333 5.688889-14.222222 14.222222-14.222223s14.222222 5.688889 14.222222 14.222223v18.488888h-28.444444v-18.488888z m-284.444444-75.377778h56.888888c52.622222 0 96.711111 41.244444 99.555556 93.866666H384c2.844444-52.622222 46.933333-93.866667 99.555556-93.866666z m-256 75.377778c0-8.533333 5.688889-14.222222 14.222222-14.222223s14.222222 5.688889 14.222222 14.222223v18.488888h-28.444444v-18.488888z m-42.666667 46.933333h654.222222c24.177778 0 42.666667 18.488889 42.666667 42.666667v56.888888H142.222222v-56.888888c0-22.755556 18.488889-42.666667 42.666667-42.666667z m654.222222 546.133333H184.888889c-24.177778 0-42.666667-18.488889-42.666667-42.666666V428.088889h739.555556v375.466667c0 24.177778-18.488889 42.666667-42.666667 42.666666z" fill="#000000" p-id="11802"></path><path d="M600.177778 585.955556h-38.4v-38.4c0-28.444444-22.755556-51.2-51.2-51.2s-51.2 22.755556-51.2 51.2v38.4h-38.4c-28.444444 0-51.2 22.755556-51.2 51.2s22.755556 51.2 51.2 51.2h38.4V725.333333c0 28.444444 22.755556 51.2 51.2 51.2s51.2-22.755556 51.2-51.2v-38.4h38.4c28.444444 0 51.2-22.755556 51.2-51.2s-22.755556-49.777778-51.2-49.777777z m0 73.955555h-52.622222c-8.533333 0-14.222222 5.688889-14.222223 14.222222V725.333333c0 12.8-9.955556 22.755556-22.755555 22.755556-12.8 0-22.755556-9.955556-22.755556-22.755556v-52.622222c0-8.533333-5.688889-14.222222-14.222222-14.222222h-52.622222c-12.8 0-22.755556-9.955556-22.755556-22.755556 0-12.8 9.955556-22.755556 22.755556-22.755555h52.622222c8.533333 0 14.222222-5.688889 14.222222-14.222222v-52.622223c0-12.8 9.955556-22.755556 22.755556-22.755555 12.8 0 22.755556 9.955556 22.755555 22.755555v52.622223c0 8.533333 5.688889 14.222222 14.222223 14.222222h52.622222c12.8 0 22.755556 9.955556 22.755555 22.755555 0 14.222222-9.955556 24.177778-22.755555 24.177778z" fill="#000000" p-id="11803"></path></svg>