<?xml version="1.0" standalone="no"?><!DOCTYPE svg PUBLIC "-//W3C//DTD SVG 1.1//EN" "http://www.w3.org/Graphics/SVG/1.1/DTD/svg11.dtd"><svg t="1687265782567" viewBox="0 0 1024 1024" version="1.1" xmlns="http://www.w3.org/2000/svg" p-id="9174" xmlns:xlink="http://www.w3.org/1999/xlink" width="200" height="200"><path d="M497.777778 624.355556c-8.533333 8.533333-8.533333 21.333333 0 29.866666 8.533333 8.533333 21.333333 8.533333 29.866666 0 8.533333-8.533333 8.533333-21.333333 0-29.866666-8.533333-8.533333-22.755556-8.533333-29.866666 0z m42.666666 83.911111c-8.533333 8.533333-8.533333 21.333333 0 29.866666 8.533333 8.533333 21.333333 8.533333 29.866667 0 8.533333-8.533333 8.533333-21.333333 0-29.866666-8.533333-7.111111-22.755556-7.111111-29.866667 0z m-85.333333 0c-8.533333 8.533333-8.533333 21.333333 0 29.866666 8.533333 8.533333 21.333333 8.533333 29.866667 0 8.533333-8.533333 8.533333-21.333333 0-29.866666-8.533333-7.111111-22.755556-7.111111-29.866667 0z" fill="#000000" p-id="9175"></path><path d="M816.355556 684.088889c-17.066667-9.955556-38.4-12.8-58.311112-7.111111-7.111111 1.422222-12.8 4.266667-18.488888 8.533333l-28.444445-18.488889c45.511111-45.511111 71.111111-106.666667 71.111111-172.088889 29.866667-21.333333 49.777778-58.311111 49.777778-98.133333 0-45.511111-24.177778-83.911111-61.155556-105.244444-29.866667-98.133333-119.466667-164.977778-219.022222-164.977778h-81.066666c-99.555556 0-189.155556 68.266667-219.022223 164.977778-36.977778 21.333333-61.155556 59.733333-61.155555 105.244444 0 39.822222 19.911111 75.377778 49.777778 98.133333 0 65.422222 25.6 126.577778 71.111111 172.088889L284.444444 684.088889c-5.688889-2.844444-12.8-7.111111-18.488888-8.533333-19.911111-5.688889-39.822222-2.844444-58.311112 7.111111a76.942222 76.942222 0 0 0-28.444444 105.244444l41.244444 71.111111c9.955556 17.066667 27.022222 29.866667 46.933334 35.555556 7.111111 1.422222 12.8 2.844444 19.911111 2.844444 12.8 0 27.022222-2.844444 38.4-9.955555 24.177778-14.222222 38.4-39.822222 38.4-66.844445l42.666667-24.177778c28.444444 27.022222 65.422222 42.666667 106.666666 42.666667 41.244444 0 78.222222-15.644444 106.666667-42.666667l42.666667 24.177778c0 27.022222 12.8 52.622222 38.4 66.844445 11.377778 7.111111 25.6 9.955556 38.4 9.955555 7.111111 0 12.8-1.422222 19.911111-2.844444 19.911111-5.688889 36.977778-18.488889 46.933333-35.555556l41.244444-71.111111c18.488889-36.977778 5.688889-83.911111-31.288888-103.822222z m-12.8-287.288889c0 51.2-41.244444 92.444444-92.444445 92.444444s-92.444444-41.244444-92.444444-92.444444 41.244444-92.444444 92.444444-92.444444 92.444444 41.244444 92.444445 92.444444z m-583.111112 0c0-51.2 41.244444-92.444444 92.444445-92.444444s92.444444 41.244444 92.444444 92.444444-41.244444 92.444444-92.444444 92.444444-92.444444-41.244444-92.444445-92.444444z m51.2 113.777778c12.8 4.266667 27.022222 7.111111 41.244445 7.111111 66.844444 0 120.888889-54.044444 120.888889-120.888889s-54.044444-120.888889-120.888889-120.888889c-8.533333 0-17.066667 1.422222-24.177778 2.844445 31.288889-73.955556 103.822222-123.733333 183.466667-123.733334H497.777778v73.955556c0 8.533333 5.688889 14.222222 14.222222 14.222222s14.222222-5.688889 14.222222-14.222222v-73.955556h25.6c79.644444 0 152.177778 49.777778 183.466667 123.733334-8.533333-1.422222-15.644444-2.844444-24.177778-2.844445-66.844444 0-120.888889 54.044444-120.888889 120.888889s54.044444 120.888889 120.888889 120.888889c14.222222 0 28.444444-2.844444 41.244445-7.111111-4.266667 62.577778-35.555556 118.044444-85.333334 156.444444-7.111111-79.644444-73.955556-142.222222-155.022222-142.222222s-147.911111 62.577778-155.022222 142.222222c-49.777778-38.4-81.066667-93.866667-85.333334-156.444444z m38.4 351.288889c-11.377778 7.111111-24.177778 8.533333-36.977777 4.266666-12.8-2.844444-22.755556-11.377778-29.866667-22.755555l-41.244444-71.111111c-12.8-22.755556-5.688889-52.622222 17.066666-65.422223 11.377778-7.111111 24.177778-8.533333 36.977778-4.266666 12.8 2.844444 22.755556 11.377778 29.866667 22.755555l41.244444 71.111111c14.222222 22.755556 5.688889 52.622222-17.066667 65.422223z m42.666667-79.644445l-41.244444-71.111111c-1.422222-2.844444-2.844444-4.266667-5.688889-7.111111l29.866666-17.066667c7.111111 5.688889 14.222222 9.955556 21.333334 15.644445 2.844444 25.6 14.222222 49.777778 28.444444 71.111111L355.555556 790.755556c0-2.844444-1.422222-5.688889-2.844445-8.533334zM512 809.244444c-71.111111 0-128-56.888889-128-128s56.888889-128 128-128 128 56.888889 128 128-56.888889 128-128 128zM671.288889 782.222222l-4.266667 8.533334-29.866666-17.066667c15.644444-19.911111 25.6-45.511111 28.444444-71.111111 7.111111-4.266667 14.222222-9.955556 21.333333-15.644445l29.866667 17.066667c-1.422222 2.844444-4.266667 4.266667-5.688889 7.111111l-39.822222 71.111111z m149.333333-8.533333l-41.244444 71.111111c-7.111111 11.377778-17.066667 18.488889-29.866667 22.755556-12.8 2.844444-25.6 1.422222-36.977778-4.266667-22.755556-12.8-31.288889-42.666667-17.066666-65.422222l41.244444-71.111111c7.111111-11.377778 17.066667-18.488889 29.866667-22.755556 4.266667-1.422222 8.533333-1.422222 12.8-1.422222 8.533333 0 17.066667 2.844444 24.177778 7.111111 22.755556 11.377778 29.866667 41.244444 17.066666 64z" fill="#000000" p-id="9176"></path></svg>