<?xml version="1.0" standalone="no"?><!DOCTYPE svg PUBLIC "-//W3C//DTD SVG 1.1//EN" "http://www.w3.org/Graphics/SVG/1.1/DTD/svg11.dtd"><svg t="1687265777816" viewBox="0 0 1024 1024" version="1.1" xmlns="http://www.w3.org/2000/svg" p-id="9029" xmlns:xlink="http://www.w3.org/1999/xlink" width="200" height="200"><path d="M940.088889 792.177778l-19.911111-159.288889c-12.8-100.977778-41.244444-197.688889-83.911111-290.133333-25.6-52.622222-79.644444-86.755556-137.955556-86.755556-41.244444 0-73.955556 32.711111-73.955555 73.955556v152.177777l-14.222223-19.911111c-21.333333-29.866667-32.711111-66.844444-32.711111-103.822222V210.488889c0-27.022222-21.333333-49.777778-49.777778-49.777778h-2.844444c-27.022222 0-49.777778 21.333333-49.777778 49.777778v147.911111c0 36.977778-11.377778 73.955556-32.711111 103.822222l-14.222222 19.911111V329.955556c0-41.244444-32.711111-73.955556-73.955556-73.955556-58.311111 0-112.355556 34.133333-137.955555 88.177778-42.666667 92.444444-71.111111 189.155556-83.911111 290.133333L112.355556 792.177778c-2.844444 19.911111 4.266667 39.822222 18.488888 52.622222 11.377778 11.377778 27.022222 17.066667 42.666667 17.066667 4.266667 0 7.111111 0 11.377778-1.422223l150.755555-27.022222c52.622222-9.955556 91.022222-55.466667 91.022223-109.511111v-75.377778l98.133333-110.933333 98.133333 110.933333v75.377778c0 54.044444 38.4 99.555556 91.022223 109.511111l150.755555 27.022222c4.266667 0 7.111111 1.422222 11.377778 1.422223 15.644444 0 31.288889-5.688889 42.666667-17.066667 17.066667-12.8 22.755556-32.711111 21.333333-52.622222z m-540.444445-65.422222c0 39.822222-28.444444 73.955556-68.266666 81.066666l-150.755556 27.022222c-11.377778 1.422222-21.333333-1.422222-29.866666-8.533333-8.533333-7.111111-11.377778-18.488889-9.955556-28.444444l19.911111-159.288889c12.8-98.133333 39.822222-192 81.066667-281.6 19.911111-42.666667 64-71.111111 112.355555-71.111111 25.6 0 45.511111 19.911111 45.511111 45.511111v395.377778z m136.533334-219.022223c-1.422222-1.422222-2.844444-1.422222-2.844445-2.844444-1.422222 0-1.422222-1.422222-2.844444-1.422222h-11.377778c-1.422222 0-1.422222 1.422222-2.844444 1.422222 0 0-1.422222 0-1.422223 1.422222l-88.177777 99.555556v-76.8l36.977777-51.2c25.6-35.555556 38.4-76.8 38.4-120.888889V210.488889c0-11.377778 9.955556-21.333333 21.333334-21.333333h2.844444c11.377778 0 21.333333 9.955556 21.333334 21.333333v147.911111c0 44.088889 12.8 85.333333 38.4 120.888889l36.977777 51.2v76.8l-86.755555-99.555556zM900.266667 824.888889c-8.533333 7.111111-18.488889 11.377778-29.866667 8.533333l-150.755556-27.022222c-39.822222-7.111111-68.266667-41.244444-68.266666-81.066667V329.955556c0-25.6 19.911111-45.511111 45.511111-45.511112 48.355556 0 91.022222 28.444444 112.355555 71.111112 41.244444 89.6 68.266667 183.466667 81.066667 281.6L911.644444 796.444444c1.422222 9.955556-2.844444 21.333333-11.377777 28.444445z" fill="#000000" p-id="9030"></path></svg>