<?xml version="1.0" standalone="no"?><!DOCTYPE svg PUBLIC "-//W3C//DTD SVG 1.1//EN" "http://www.w3.org/Graphics/SVG/1.1/DTD/svg11.dtd"><svg t="1687265790884" viewBox="0 0 1024 1024" version="1.1" xmlns="http://www.w3.org/2000/svg" p-id="9465" xmlns:xlink="http://www.w3.org/1999/xlink" width="200" height="200"><path d="M512 412.444444c-55.466667 0-99.555556 44.088889-99.555556 99.555556s44.088889 99.555556 99.555556 99.555556 99.555556-44.088889 99.555556-99.555556-44.088889-99.555556-99.555556-99.555556z m0 170.666667c-39.822222 0-71.111111-31.288889-71.111111-71.111111s31.288889-71.111111 71.111111-71.111111 71.111111 31.288889 71.111111 71.111111-31.288889 71.111111-71.111111 71.111111z" fill="#000000" p-id="9466"></path><path d="M829.155556 512c0-11.377778-4.266667-22.755556-11.377778-31.288889 44.088889-76.8 49.777778-147.911111 17.066666-196.266667-31.288889-45.511111-95.288889-64-177.777777-52.622222-36.977778-72.533333-88.177778-115.2-146.488889-115.2-45.511111 0-89.6 28.444444-125.155556 81.066667-5.688889-1.422222-11.377778-2.844444-17.066666-2.844445-22.755556 0-41.244444 14.222222-46.933334 35.555556-61.155556 0-108.088889 18.488889-133.688889 55.466667-32.711111 46.933333-27.022222 113.777778 12.8 189.155555 7.111111 12.8 14.222222 25.6 22.755556 36.977778-8.533333 12.8-15.644444 25.6-22.755556 36.977778-41.244444 75.377778-45.511111 142.222222-12.8 189.155555 25.6 36.977778 71.111111 55.466667 132.266667 55.466667h2.844444c7.111111 17.066667 25.6 29.866667 45.511112 29.866667 5.688889 0 9.955556-1.422222 14.222222-2.844445 35.555556 54.044444 81.066667 85.333333 128 85.333334 58.311111 0 109.511111-44.088889 146.488889-115.2 15.644444 1.422222 31.288889 2.844444 45.511111 2.844444 61.155556 0 106.666667-19.911111 132.266666-55.466667 32.711111-46.933333 27.022222-118.044444-17.066666-196.266666 7.111111-7.111111 11.377778-18.488889 11.377778-29.866667zM640 759.466667c-31.288889-5.688889-62.577778-15.644444-95.288889-28.444445 28.444444-14.222222 56.888889-31.288889 83.911111-51.2 15.644444-11.377778 31.288889-22.755556 46.933334-35.555555-8.533333 42.666667-19.911111 82.488889-35.555556 115.2z m-226.133333-7.111111c-8.533333-15.644444-24.177778-27.022222-44.088889-27.022223-8.533333-25.6-15.644444-52.622222-21.333334-81.066666 15.644444 12.8 29.866667 24.177778 46.933334 35.555555 27.022222 19.911111 55.466667 35.555556 83.911111 51.2-22.755556 8.533333-44.088889 15.644444-65.422222 21.333334z m-42.666667-457.955556c17.066667 0 32.711111-9.955556 41.244444-22.755556 21.333333 5.688889 44.088889 12.8 66.844445 22.755556-28.444444 14.222222-56.888889 31.288889-83.911111 51.2-15.644444 11.377778-31.288889 22.755556-46.933334 35.555556 5.688889-31.288889 12.8-59.733333 22.755556-86.755556z m-61.155556 275.911111c-18.488889-18.488889-35.555556-38.4-49.777777-58.311111 14.222222-19.911111 31.288889-39.822222 49.777777-58.311111-1.422222 19.911111-2.844444 38.4-2.844444 58.311111 0 19.911111 1.422222 39.822222 2.844444 58.311111z m100.977778 86.755556c-25.6-17.066667-48.355556-35.555556-69.688889-55.466667-2.844444-28.444444-5.688889-58.311111-5.688889-88.177778 0-29.866667 1.422222-59.733333 5.688889-88.177778 21.333333-19.911111 45.511111-38.4 69.688889-55.466666 32.711111-22.755556 66.844444-42.666667 100.977778-59.733334 34.133333 15.644444 68.266667 35.555556 100.977778 59.733334 24.177778 17.066667 48.355556 35.555556 69.688889 55.466666 4.266667 28.444444 5.688889 58.311111 5.688889 89.6 0 29.866667-1.422222 59.733333-5.688889 89.6-21.333333 19.911111-45.511111 38.4-69.688889 55.466667-32.711111 22.755556-66.844444 42.666667-100.977778 59.733333-34.133333-19.911111-68.266667-39.822222-100.977778-62.577777z m264.533334-277.333334c-15.644444-12.8-29.866667-24.177778-46.933334-35.555555-27.022222-18.488889-55.466667-35.555556-83.911111-51.2 32.711111-12.8 64-22.755556 95.288889-28.444445 15.644444 32.711111 27.022222 72.533333 35.555556 115.2z m38.4 73.955556c8.533333 9.955556 18.488889 18.488889 25.6 28.444444-7.111111 8.533333-9.955556 18.488889-9.955556 29.866667s4.266667 21.333333 9.955556 29.866667c-8.533333 9.955556-17.066667 18.488889-25.6 28.444444 1.422222-18.488889 2.844444-38.4 2.844444-58.311111 0-19.911111-1.422222-39.822222-2.844444-58.311111z m44.088888 58.311111c0-11.377778 9.955556-21.333333 21.333334-21.333333s21.333333 9.955556 21.333333 21.333333-9.955556 21.333333-21.333333 21.333333-21.333333-9.955556-21.333334-21.333333z m54.044445-210.488889c27.022222 36.977778 19.911111 96.711111-17.066667 163.555556-4.266667-1.422222-9.955556-2.844444-15.644444-2.844445-5.688889 0-11.377778 1.422222-15.644445 2.844445-15.644444-18.488889-34.133333-38.4-54.044444-55.466667-7.111111-55.466667-21.333333-106.666667-39.822222-149.333333 68.266667-7.111111 118.044444 7.111111 142.222222 41.244444zM512 145.066667c44.088889 0 83.911111 35.555556 115.2 92.444444-36.977778 8.533333-76.8 21.333333-115.2 38.4-31.288889-14.222222-62.577778-25.6-92.444444-34.133333 0-9.955556-4.266667-19.911111-9.955556-28.444445 29.866667-42.666667 66.844444-68.266667 102.4-68.266666z m-142.222222 78.222222c11.377778 0 21.333333 9.955556 21.333333 21.333333s-9.955556 21.333333-21.333333 21.333334-21.333333-9.955556-21.333334-21.333334 9.955556-21.333333 21.333334-21.333333zM226.133333 460.8c-35.555556-65.422222-41.244444-122.311111-15.644444-159.288889 25.6-35.555556 71.111111-44.088889 110.933333-44.088889 2.844444 11.377778 11.377778 22.755556 21.333334 28.444445-12.8 36.977778-22.755556 78.222222-29.866667 122.311111-27.022222 25.6-51.2 51.2-72.533333 78.222222-4.266667-7.111111-8.533333-17.066667-14.222223-25.6z m-14.222222 261.688889c-25.6-36.977778-19.911111-93.866667 15.644445-159.288889 4.266667-8.533333 9.955556-17.066667 15.644444-27.022222 19.911111 27.022222 44.088889 52.622222 72.533333 78.222222 5.688889 42.666667 15.644444 82.488889 28.444445 119.466667-11.377778 7.111111-18.488889 18.488889-21.333334 32.711111-39.822222 0-86.755556-8.533333-110.933333-44.088889z m136.533333 52.622222c0-9.955556 7.111111-18.488889 15.644445-19.911111h4.266667c11.377778 0 21.333333 9.955556 21.333333 21.333333S381.155556 796.444444 369.777778 796.444444c-11.377778 0-21.333333-9.955556-21.333334-21.333333zM512 878.933333c-36.977778 0-73.955556-25.6-103.822222-72.533333 5.688889-7.111111 9.955556-15.644444 11.377778-25.6 31.288889-8.533333 62.577778-19.911111 93.866666-34.133333 39.822222 18.488889 78.222222 31.288889 115.2 38.4-32.711111 58.311111-72.533333 93.866667-116.622222 93.866666z m300.088889-156.444444c-24.177778 34.133333-73.955556 49.777778-142.222222 41.244444 18.488889-42.666667 31.288889-93.866667 39.822222-149.333333 19.911111-18.488889 36.977778-36.977778 54.044444-55.466667 5.688889 1.422222 9.955556 2.844444 15.644445 2.844445 5.688889 0 9.955556-1.422222 15.644444-2.844445 36.977778 66.844444 44.088889 125.155556 17.066667 163.555556z" fill="#000000" p-id="9467"></path></svg>