<?xml version="1.0" standalone="no"?><!DOCTYPE svg PUBLIC "-//W3C//DTD SVG 1.1//EN" "http://www.w3.org/Graphics/SVG/1.1/DTD/svg11.dtd"><svg t="1687265561163" viewBox="0 0 1024 1024" version="1.1" xmlns="http://www.w3.org/2000/svg" p-id="2473" xmlns:xlink="http://www.w3.org/1999/xlink" width="200" height="200"><path d="M851.911111 512c0-105.244444-86.755556-192-192-192-21.333333 0-41.244444 2.844444-59.733333 9.955556L466.488889 128c-5.688889-8.533333-18.488889-8.533333-24.177778 0L219.022222 460.8c-75.377778 112.355556-59.733333 263.111111 35.555556 358.4 55.466667 55.466667 128 82.488889 200.533333 82.488889s145.066667-27.022222 200.533333-82.488889c35.555556-35.555556 61.155556-79.644444 73.955556-128 71.111111-27.022222 122.311111-96.711111 122.311111-179.2zM634.311111 799.288889c-99.555556 99.555556-260.266667 99.555556-359.822222 0-85.333333-85.333333-99.555556-220.444444-31.288889-321.422222L455.111111 162.133333 574.577778 341.333333C512 372.622222 469.333333 438.044444 469.333333 513.422222c0 105.244444 86.755556 192 192 192 11.377778 0 24.177778-1.422222 35.555556-2.844444-14.222222 35.555556-34.133333 68.266667-62.577778 96.711111z m25.6-123.733333c-89.6 0-163.555556-73.955556-163.555555-163.555556s73.955556-163.555556 163.555555-163.555556S823.466667 422.4 823.466667 512s-72.533333 163.555556-163.555556 163.555556z" fill="#000000" p-id="2474"></path><path d="M743.822222 469.333333c0-31.288889-25.6-58.311111-58.311111-58.311111h-81.066667c-8.533333 0-14.222222 5.688889-14.222222 14.222222v173.511112c0 8.533333 5.688889 14.222222 14.222222 14.222222h81.066667c31.288889 0 58.311111-25.6 58.311111-58.311111 0-17.066667-8.533333-32.711111-19.911111-44.088889 11.377778-8.533333 19.911111-24.177778 19.911111-41.244445z m-28.444444 86.755556c0 15.644444-12.8 29.866667-29.866667 29.866667h-66.844444V526.222222h66.844444c15.644444 0 29.866667 12.8 29.866667 29.866667zM618.666667 497.777778v-58.311111h66.844444c15.644444 0 29.866667 12.8 29.866667 29.866666 0 17.066667-14.222222 28.444444-29.866667 28.444445h-66.844444z" fill="#000000" p-id="2475"></path></svg>