<?xml version="1.0" standalone="no"?><!DOCTYPE svg PUBLIC "-//W3C//DTD SVG 1.1//EN" "http://www.w3.org/Graphics/SVG/1.1/DTD/svg11.dtd"><svg t="1687265908702" viewBox="0 0 1024 1024" version="1.1" xmlns="http://www.w3.org/2000/svg" p-id="12967" xmlns:xlink="http://www.w3.org/1999/xlink" width="200" height="200"><path d="M610.133333 728.177778c-2.844444-4.266667-7.111111-7.111111-12.8-7.111111s-9.955556 2.844444-12.8 7.111111l-39.822222 78.222222c-11.377778 22.755556-7.111111 51.2 11.377778 68.266667 11.377778 11.377778 27.022222 17.066667 41.244444 17.066666 15.644444 0 29.866667-5.688889 41.244445-17.066666 18.488889-18.488889 22.755556-45.511111 11.377778-68.266667l-39.822223-78.222222z m8.533334 126.577778c-11.377778 11.377778-31.288889 11.377778-44.088889 0-9.955556-9.955556-11.377778-24.177778-5.688889-35.555556l27.022222-54.044444 27.022222 54.044444c8.533333 11.377778 5.688889 27.022222-4.266666 35.555556z m-173.511111-126.577778c-4.266667-9.955556-19.911111-9.955556-25.6 0l-39.822223 78.222222c-11.377778 22.755556-7.111111 51.2 11.377778 68.266667 11.377778 11.377778 27.022222 17.066667 41.244445 17.066666s29.866667-5.688889 41.244444-17.066666c18.488889-18.488889 22.755556-45.511111 11.377778-68.266667l-39.822222-78.222222z m8.533333 126.577778c-11.377778 11.377778-31.288889 11.377778-44.088889 0-9.955556-9.955556-11.377778-24.177778-5.688889-35.555556l27.022222-54.044444 27.022223 54.044444c8.533333 11.377778 5.688889 27.022222-4.266667 35.555556z m248.888889-402.488889c-14.222222-4.266667-25.6-15.644444-28.444445-29.866667l-52.622222-206.222222c-12.8-49.777778-58.311111-85.333333-109.511111-85.333334-51.2 0-96.711111 35.555556-109.511111 85.333334l-52.622222 206.222222c-4.266667 14.222222-14.222222 27.022222-28.444445 29.866667-66.844444 17.066667-106.666667 82.488889-93.866666 150.755555 9.955556 51.2 51.2 91.022222 100.977777 100.977778 8.533333 1.422222 17.066667 2.844444 24.177778 2.844444 29.866667 0 59.733333-11.377778 83.911111-29.866666 19.911111 19.911111 46.933333 31.288889 75.377778 31.288889s55.466667-11.377778 75.377778-29.866667c29.866667 24.177778 68.266667 34.133333 106.666666 27.022222 51.2-9.955556 91.022222-49.777778 100.977778-100.977778 14.222222-69.688889-25.6-133.688889-92.444444-152.177777zM768 597.333333c-7.111111 39.822222-39.822222 71.111111-78.222222 78.222223-31.288889 5.688889-61.155556-1.422222-83.911111-21.333334 8.533333-14.222222 12.8-29.866667 14.222222-46.933333h39.822222c8.533333 0 14.222222-5.688889 14.222222-14.222222s-5.688889-14.222222-14.222222-14.222223H611.555556c-11.377778 0-19.911111 8.533333-19.911112 19.911112 0 44.088889-35.555556 79.644444-79.644444 79.644444-44.088889 0-79.644444-35.555556-79.644444-79.644444 0-11.377778-8.533333-19.911111-19.911112-19.911112h-48.355555c-8.533333 0-14.222222 5.688889-14.222222 14.222223s5.688889 14.222222 14.222222 14.222222h39.822222c1.422222 15.644444 5.688889 31.288889 14.222222 45.511111-22.755556 19.911111-54.044444 28.444444-85.333333 22.755556-39.822222-7.111111-71.111111-38.4-78.222222-78.222223-9.955556-52.622222 21.333333-103.822222 72.533333-118.044444 24.177778-5.688889 42.666667-25.6 49.777778-51.2l52.622222-206.222222c9.955556-36.977778 42.666667-64 82.488889-64s72.533333 25.6 82.488889 64l52.622222 206.222222c5.688889 24.177778 25.6 44.088889 49.777778 51.2 51.2 14.222222 82.488889 65.422222 71.111111 118.044444z" fill="#000000" p-id="12968"></path></svg>