<?xml version="1.0" standalone="no"?><!DOCTYPE svg PUBLIC "-//W3C//DTD SVG 1.1//EN" "http://www.w3.org/Graphics/SVG/1.1/DTD/svg11.dtd"><svg t="1687265844172" viewBox="0 0 1024 1024" version="1.1" xmlns="http://www.w3.org/2000/svg" p-id="11072" xmlns:xlink="http://www.w3.org/1999/xlink" width="200" height="200"><path d="M512 910.222222C292.977778 910.222222 113.777778 731.022222 113.777778 512S292.977778 113.777778 512 113.777778s398.222222 179.2 398.222222 398.222222-179.2 398.222222-398.222222 398.222222z m0-768c-203.377778 0-369.777778 166.4-369.777778 369.777778s166.4 369.777778 369.777778 369.777778 369.777778-166.4 369.777778-369.777778-166.4-369.777778-369.777778-369.777778z" fill="#000000" p-id="11073"></path><path d="M512 597.333333c-46.933333 0-85.333333-38.4-85.333333-85.333333s38.4-85.333333 85.333333-85.333333 85.333333 38.4 85.333333 85.333333-38.4 85.333333-85.333333 85.333333z m0-142.222222c-31.288889 0-56.888889 25.6-56.888889 56.888889s25.6 56.888889 56.888889 56.888889 56.888889-25.6 56.888889-56.888889-25.6-56.888889-56.888889-56.888889z m-85.333333-81.066667c-12.8 0-24.177778-4.266667-34.133334-14.222222l-41.244444-41.244444c-9.955556-9.955556-14.222222-22.755556-14.222222-36.977778 1.422222-14.222222 8.533333-27.022222 19.911111-35.555556 45.511111-32.711111 99.555556-51.2 155.022222-51.2 56.888889 0 109.511111 17.066667 155.022222 51.2 11.377778 8.533333 18.488889 21.333333 19.911111 35.555556 1.422222 14.222222-4.266667 27.022222-14.222222 36.977778l-41.244444 41.244444c-15.644444 15.644444-41.244444 18.488889-59.733334 5.688889-35.555556-22.755556-83.911111-22.755556-119.466666 0-8.533333 5.688889-17.066667 8.533333-25.6 8.533333z m85.333333-150.755555c-49.777778 0-98.133333 15.644444-139.377778 45.511111-4.266667 2.844444-7.111111 8.533333-8.533333 14.222222 0 5.688889 1.422222 11.377778 5.688889 15.644445l41.244444 41.244444c5.688889 5.688889 15.644444 7.111111 24.177778 2.844445 45.511111-28.444444 106.666667-28.444444 150.755556 0 7.111111 4.266667 17.066667 4.266667 24.177777-2.844445l41.244445-41.244444c4.266667-4.266667 5.688889-9.955556 5.688889-15.644445 0-5.688889-2.844444-11.377778-8.533334-14.222222-38.4-29.866667-86.755556-45.511111-136.533333-45.511111zM645.688889 796.444444c-7.111111 0-14.222222-1.422222-21.333333-5.688888-12.8-5.688889-21.333333-17.066667-25.6-31.288889l-14.222223-56.888889c-5.688889-21.333333 5.688889-44.088889 25.6-54.044445 18.488889-9.955556 35.555556-24.177778 45.511111-42.666666 11.377778-18.488889 17.066667-39.822222 15.644445-61.155556-1.422222-22.755556 14.222222-42.666667 35.555555-48.355555l56.888889-14.222223c12.8-2.844444 28.444444 0 38.4 7.111111 11.377778 8.533333 18.488889 21.333333 19.911111 34.133334 5.688889 55.466667-7.111111 110.933333-36.977777 159.288889-28.444444 48.355556-71.111111 85.333333-123.733334 108.088889-2.844444 4.266667-9.955556 5.688889-15.644444 5.688888z m130.844444-285.866666h-4.266666l-56.888889 14.222222c-8.533333 2.844444-14.222222 9.955556-14.222222 18.488889 1.422222 27.022222-5.688889 52.622222-19.911112 76.8-14.222222 22.755556-34.133333 41.244444-58.311111 52.622222-8.533333 4.266667-12.8 12.8-9.955555 21.333333l14.222222 56.888889c1.422222 5.688889 4.266667 9.955556 9.955556 12.8 5.688889 2.844444 11.377778 2.844444 15.644444 0 45.511111-19.911111 83.911111-52.622222 109.511111-95.288889 25.6-42.666667 36.977778-92.444444 32.711111-142.222222 0-5.688889-2.844444-11.377778-8.533333-14.222222-2.844444 0-5.688889-1.422222-9.955556-1.422222zM378.311111 796.444444c-5.688889 0-12.8-1.422222-18.488889-4.266666-51.2-21.333333-93.866667-59.733333-123.733333-108.088889-28.444444-48.355556-41.244444-103.822222-36.977778-159.288889 1.422222-14.222222 8.533333-27.022222 19.911111-34.133333 11.377778-8.533333 25.6-11.377778 39.822222-7.111111l56.888889 14.222222c21.333333 5.688889 36.977778 25.6 35.555556 48.355555-1.422222 21.333333 4.266667 42.666667 15.644444 61.155556 11.377778 18.488889 27.022222 32.711111 45.511111 42.666667 19.911111 9.955556 29.866667 32.711111 25.6 54.044444l-14.222222 56.888889c-2.844444 12.8-12.8 24.177778-25.6 31.288889-4.266667 2.844444-12.8 4.266667-19.911111 4.266666z m-130.844444-285.866666c-4.266667 0-7.111111 1.422222-11.377778 2.844444-4.266667 2.844444-7.111111 8.533333-8.533333 14.222222-4.266667 49.777778 7.111111 99.555556 32.711111 142.222223 25.6 42.666667 64 76.8 109.511111 95.288889 5.688889 2.844444 11.377778 1.422222 15.644444 0 5.688889-2.844444 8.533333-7.111111 9.955556-12.8l14.222222-56.888889c2.844444-8.533333-1.422222-17.066667-9.955556-21.333334-24.177778-11.377778-44.088889-29.866667-58.311111-52.622222-14.222222-22.755556-21.333333-49.777778-19.911111-76.8 0-8.533333-5.688889-17.066667-14.222222-18.488889l-56.888889-14.222222c0-1.422222-1.422222-1.422222-2.844444-1.422222z" fill="#000000" p-id="11074"></path></svg>