<?xml version="1.0" standalone="no"?><!DOCTYPE svg PUBLIC "-//W3C//DTD SVG 1.1//EN" "http://www.w3.org/Graphics/SVG/1.1/DTD/svg11.dtd"><svg t="1687265913246" viewBox="0 0 1024 1024" version="1.1" xmlns="http://www.w3.org/2000/svg" p-id="13112" xmlns:xlink="http://www.w3.org/1999/xlink" width="200" height="200"><path d="M710.855111 873.713778c-85.873778 0-156.472889-66.190222-163.726222-150.229334h327.452444c-7.253333 84.039111-77.852444 150.229333-163.726222 150.229334z m-285.838222-98.673778c-64.597333 64.597333-169.671111 64.568889-234.282667 0-64.568889-64.597333-64.568889-169.699556 0-234.296889l160.426667-160.426667a718.819556 718.819556 0 0 0 204.743111 214.570667 191.800889 191.800889 0 0 0-35.413333 84.664889l-95.473778 95.488z m115.712-584.291556c64.583111-64.583111 169.671111-64.597333 234.282667 0 64.583111 64.597333 64.583111 169.699556 0 234.296889l-93.866667 93.866667a192.568889 192.568889 0 0 0-106.752 54.172444 689.322667 689.322667 0 0 1-202.595556-213.418666L540.728889 190.748444zM874.581333 695.04H547.128889c7.253333-84.024889 77.852444-150.215111 163.726222-150.215111s156.472889 66.190222 163.726222 150.215111zM723.271111 517.006222l71.850667-71.850666a192.824889 192.824889 0 0 0 56.846222-137.258667 192.853333 192.853333 0 0 0-56.846222-137.258667A192.839111 192.839111 0 0 0 657.877333 113.777778c-51.868444 0-100.608 20.195556-137.244444 56.860444l-350.008889 349.994667A192.824889 192.824889 0 0 0 113.777778 657.877333a192.853333 192.853333 0 0 0 56.846222 137.272889 192.839111 192.839111 0 0 0 137.258667 56.860445c51.854222 0 100.593778-20.195556 137.244444-56.860445l73.457778-73.472c6.456889 100.579556 90.097778 180.48 192.284444 180.48 106.353778 0 192.881778-86.528 192.881778-192.896 0-102.158222-79.914667-185.799111-180.48-192.256z" fill="#000000" p-id="13113"></path></svg>