<?xml version="1.0" standalone="no"?><!DOCTYPE svg PUBLIC "-//W3C//DTD SVG 1.1//EN" "http://www.w3.org/Graphics/SVG/1.1/DTD/svg11.dtd"><svg t="1687265835217" viewBox="0 0 1024 1024" version="1.1" xmlns="http://www.w3.org/2000/svg" p-id="10924" xmlns:xlink="http://www.w3.org/1999/xlink" width="200" height="200"><path d="M897.422222 237.511111l-110.933333-110.933333c-8.533333-8.533333-18.488889-12.8-29.866667-12.8H267.377778c-11.377778 0-22.755556 4.266667-29.866667 12.8l-110.933333 110.933333c-8.533333 8.533333-12.8 18.488889-12.8 29.866667V896c0 8.533333 5.688889 14.222222 14.222222 14.222222s14.222222-5.688889 14.222222-14.222222V267.377778c0-4.266667 1.422222-7.111111 4.266667-9.955556l110.933333-110.933333c2.844444-2.844444 5.688889-4.266667 9.955556-4.266667h487.822222c4.266667 0 7.111111 1.422222 9.955556 4.266667l110.933333 110.933333c2.844444 2.844444 4.266667 5.688889 4.266667 9.955556V896c0 8.533333 5.688889 14.222222 14.222222 14.222222s14.222222-5.688889 14.222222-14.222222V267.377778c1.422222-11.377778-2.844444-21.333333-11.377778-29.866667z" fill="#000000" p-id="10925"></path><path d="M512 348.444444c-89.6 0-163.555556 73.955556-163.555556 163.555556 0 8.533333 5.688889 14.222222 14.222223 14.222222s14.222222-5.688889 14.222222-14.222222c0-73.955556 61.155556-135.111111 135.111111-135.111111s135.111111 61.155556 135.111111 135.111111c0 8.533333 5.688889 14.222222 14.222222 14.222222s14.222222-5.688889 14.222223-14.222222c0-89.6-73.955556-163.555556-163.555556-163.555556z" fill="#000000" p-id="10926"></path><path d="M634.311111 759.466667l-32.711111-228.977778c-2.844444-18.488889-21.333333-32.711111-42.666667-32.711111h-92.444444c-21.333333 0-39.822222 14.222222-42.666667 32.711111l-32.711111 228.977778V810.666667c0 24.177778 18.488889 42.666667 42.666667 42.666666h157.866666c24.177778 0 42.666667-18.488889 42.666667-42.666666v-49.777778-1.422222zM452.266667 533.333333c0-4.266667 7.111111-8.533333 14.222222-8.533333h92.444444c7.111111 0 14.222222 4.266667 14.222223 8.533333l29.866666 213.333334H420.977778l31.288889-213.333334zM605.866667 810.666667c0 8.533333-5.688889 14.222222-14.222223 14.222222H433.777778c-8.533333 0-14.222222-5.688889-14.222222-14.222222v-35.555556h186.311111V810.666667z" fill="#000000" p-id="10927"></path><path d="M510.577778 240.355556c-149.333333 0-270.222222 120.888889-270.222222 270.222222 0 15.644444 1.422222 29.866667 4.266666 45.511111 1.422222 7.111111 8.533333 12.8 17.066667 11.377778 7.111111-1.422222 12.8-8.533333 11.377778-17.066667-2.844444-12.8-2.844444-27.022222-2.844445-39.822222 0-133.688889 108.088889-241.777778 241.777778-241.777778s241.777778 108.088889 241.777778 241.777778c0 14.222222-1.422222 27.022222-2.844445 41.244444-1.422222 7.111111 4.266667 15.644444 11.377778 17.066667h2.844445c7.111111 0 12.8-4.266667 14.222222-11.377778 2.844444-14.222222 4.266667-29.866667 4.266666-45.511111-2.844444-150.755556-123.733333-271.644444-273.066666-271.644444zM756.622222 241.777778c-14.222222 0-25.6 11.377778-25.6 25.6s11.377778 25.6 25.6 25.6 25.6-11.377778 25.6-25.6-11.377778-25.6-25.6-25.6z m-452.266666 25.6c0-14.222222-11.377778-25.6-25.6-25.6s-25.6 11.377778-25.6 25.6 11.377778 25.6 25.6 25.6c14.222222-1.422222 25.6-12.8 25.6-25.6z" fill="#000000" p-id="10928"></path></svg>