<?xml version="1.0" standalone="no"?><!DOCTYPE svg PUBLIC "-//W3C//DTD SVG 1.1//EN" "http://www.w3.org/Graphics/SVG/1.1/DTD/svg11.dtd"><svg t="1687265848884" viewBox="0 0 1024 1024" version="1.1" xmlns="http://www.w3.org/2000/svg" p-id="11218" xmlns:xlink="http://www.w3.org/1999/xlink" width="200" height="200"><path d="M863.288889 615.822222c-31.288889-34.133333-73.955556-55.466667-119.466667-58.311111L659.911111 227.555556c-17.066667-66.844444-78.222222-113.777778-147.911111-113.777778s-130.844444 46.933333-147.911111 115.2l-83.911111 329.955555c-45.511111 2.844444-88.177778 24.177778-119.466667 58.311111C128 654.222222 110.933333 704 116.622222 753.777778c8.533333 82.488889 75.377778 146.488889 157.866667 155.022222 5.688889 0 11.377778 1.422222 15.644444 1.422222 42.666667 0 85.333333-15.644444 116.622223-44.088889 27.022222 28.444444 64 46.933333 106.666666 46.933334 41.244444 0 78.222222-17.066667 105.244445-45.511111 35.555556 31.288889 82.488889 46.933333 130.844444 42.666666 82.488889-7.111111 149.333333-72.533333 157.866667-155.022222 5.688889-52.622222-9.955556-102.4-44.088889-139.377778z m15.644444 133.688889c-7.111111 68.266667-64 123.733333-132.266666 129.422222-41.244444 4.266667-81.066667-9.955556-110.933334-36.977777 12.8-21.333333 21.333333-45.511111 22.755556-72.533334h61.155555c8.533333 0 14.222222-5.688889 14.222223-14.222222s-5.688889-14.222222-14.222223-14.222222h-66.844444c-12.8 0-22.755556 9.955556-22.755556 22.755555 0 64-52.622222 116.622222-116.622222 116.622223-64 0-116.622222-52.622222-116.622222-116.622223 0-12.8-9.955556-22.755556-22.755556-22.755555h-66.844444c-8.533333 0-14.222222 5.688889-14.222222 14.222222s5.688889 14.222222 14.222222 14.222222h61.155556c1.422222 25.6 8.533333 49.777778 21.333333 69.688889-29.866667 28.444444-71.111111 42.666667-113.777778 38.4-68.266667-5.688889-125.155556-61.155556-132.266667-129.422222-4.266667-42.666667 8.533333-83.911111 36.977778-115.2 28.444444-31.288889 68.266667-48.355556 109.511111-48.355556 7.111111 0 12.8-4.266667 14.222223-11.377777l86.755555-339.911112c14.222222-55.466667 64-93.866667 120.888889-93.866666s106.666667 38.4 120.888889 93.866666l86.755555 339.911112c1.422222 5.688889 7.111111 11.377778 14.222223 11.377777 41.244444 0 81.066667 18.488889 109.511111 48.355556 27.022222 34.133333 39.822222 73.955556 35.555555 116.622222z" fill="#000000" p-id="11219"></path></svg>