<?xml version="1.0" standalone="no"?><!DOCTYPE svg PUBLIC "-//W3C//DTD SVG 1.1//EN" "http://www.w3.org/Graphics/SVG/1.1/DTD/svg11.dtd"><svg t="1687265816928" viewBox="0 0 1024 1024" version="1.1" xmlns="http://www.w3.org/2000/svg" p-id="10340" xmlns:xlink="http://www.w3.org/1999/xlink" width="200" height="200"><path d="M782.222222 576v-128c0-8.533333-5.688889-14.222222-14.222222-14.222222H254.577778c-42.666667 0-78.222222 35.555556-78.222222 78.222222s35.555556 78.222222 78.222222 78.222222H768c8.533333 0 14.222222-5.688889 14.222222-14.222222zM204.8 512c0-27.022222 22.755556-49.777778 49.777778-49.777778h118.044444v99.555556h-118.044444c-27.022222 0-49.777778-22.755556-49.777778-49.777778zM753.777778 561.777778H401.066667v-99.555556H753.777778v99.555556z" fill="#000000" p-id="10341"></path><path d="M804.977778 802.133333C878.933333 728.177778 924.444444 625.777778 924.444444 512 924.444444 284.444444 739.555556 99.555556 512 99.555556c-113.777778 0-216.177778 45.511111-290.133333 120.888888h-1.422223c-1.422222 0 0 0 0 1.422223C145.066667 295.822222 99.555556 398.222222 99.555556 512c0 227.555556 184.888889 412.444444 412.444444 412.444444 113.777778 0 216.177778-45.511111 290.133333-119.466666l2.844445-2.844445c-1.422222 1.422222-1.422222 1.422222 0 0zM128 512c0-100.977778 38.4-192 102.4-261.688889l142.222222 142.222222c2.844444 2.844444 7.111111 4.266667 9.955556 4.266667 2.844444 0 7.111111-1.422222 9.955555-4.266667 5.688889-5.688889 5.688889-14.222222 0-19.911111l-142.222222-142.222222C320 166.4 411.022222 128 512 128c211.911111 0 384 172.088889 384 384 0 100.977778-38.4 192-102.4 261.688889l-142.222222-142.222222c-5.688889-5.688889-14.222222-5.688889-19.911111 0-5.688889 5.688889-5.688889 14.222222 0 19.911111l142.222222 142.222222C704 857.6 612.977778 896 512 896 300.088889 896 128 723.911111 128 512z" fill="#000000" p-id="10342"></path><path d="M816.355556 433.777778c-8.533333 0-14.222222 5.688889-14.222223 14.222222v128c0 8.533333 5.688889 14.222222 14.222223 14.222222s14.222222-5.688889 14.222222-14.222222v-128c0-8.533333-5.688889-14.222222-14.222222-14.222222z m-268.8-91.022222h213.333333c22.755556 0 41.244444 18.488889 41.244444 41.244444 0 8.533333 5.688889 14.222222 14.222223 14.222222s14.222222-5.688889 14.222222-14.222222c0-38.4-31.288889-69.688889-69.688889-69.688889h-213.333333c-12.8 0-21.333333-9.955556-21.333334-21.333333 0-12.8 9.955556-21.333333 21.333334-21.333334h142.222222c8.533333 0 14.222222-5.688889 14.222222-14.222222s-5.688889-14.222222-14.222222-14.222222h-142.222222c-28.444444 0-49.777778 22.755556-49.777778 49.777778s22.755556 49.777778 49.777778 49.777778z" fill="#000000" p-id="10343"></path></svg>