<?xml version="1.0" standalone="no"?><!DOCTYPE svg PUBLIC "-//W3C//DTD SVG 1.1//EN" "http://www.w3.org/Graphics/SVG/1.1/DTD/svg11.dtd"><svg t="1687265799427" viewBox="0 0 1024 1024" version="1.1" xmlns="http://www.w3.org/2000/svg" p-id="9756" xmlns:xlink="http://www.w3.org/1999/xlink" width="200" height="200"><path d="M898.844444 183.466667l-58.311111-58.311111c-15.644444-15.644444-41.244444-15.644444-56.888889 0l-2.844444 2.844444c-15.644444 15.644444-15.644444 41.244444 0 56.888889l18.488889 18.488889-36.977778 36.977778c-39.822222-35.555556-89.6-54.044444-143.644444-54.044445-58.311111 0-112.355556 22.755556-153.6 64L177.777778 539.022222c-85.333333 85.333333-85.333333 223.288889 0 308.622222 41.244444 41.244444 95.288889 64 153.6 64 58.311111 0 112.355556-22.755556 153.6-64l287.288889-287.288888c41.244444-41.244444 64-95.288889 64-153.6 0-54.044444-19.911111-103.822222-54.044445-143.644445l7.111111-7.111111 38.4 38.4c2.844444 2.844444 7.111111 4.266667 9.955556 4.266667 2.844444 0 7.111111-1.422222 9.955555-4.266667 5.688889-5.688889 5.688889-14.222222 0-19.911111l-38.4-38.4 9.955556-9.955556 19.911111 19.911111c7.111111 7.111111 17.066667 11.377778 28.444445 11.377778s21.333333-4.266667 28.444444-11.377778l2.844444-2.844444c15.644444-18.488889 15.644444-44.088889 0-59.733333zM197.688889 826.311111c-71.111111-69.688889-73.955556-182.044444-9.955556-257.422222L455.111111 836.266667c-34.133333 29.866667-76.8 45.511111-123.733333 45.511111-51.2 0-98.133333-19.911111-133.688889-55.466667z m277.333333-9.955555L207.644444 548.977778l267.377778-267.377778 267.377778 267.377778-267.377778 267.377778z m287.288889-288.711112L496.355556 261.688889c34.133333-29.866667 78.222222-45.511111 123.733333-45.511111 51.2 0 98.133333 19.911111 133.688889 55.466666s55.466667 83.911111 55.466666 133.688889c0 45.511111-17.066667 88.177778-46.933333 122.311111z m116.622222-307.2l-2.844444 2.844445c-4.266667 4.266667-12.8 4.266667-17.066667 0l-58.311111-58.311111c-4.266667-4.266667-4.266667-12.8 0-17.066667l2.844445-2.844444c2.844444-2.844444 5.688889-2.844444 8.533333-2.844445 2.844444 0 5.688889 1.422222 8.533333 2.844445l58.311111 58.311111c4.266667 5.688889 4.266667 12.8 0 17.066666z" fill="#000000" p-id="9757"></path><path d="M520.533333 502.044444c0-24.177778-9.955556-46.933333-25.6-64-35.555556-35.555556-92.444444-35.555556-126.577777 0-35.555556 35.555556-35.555556 92.444444 0 126.577778 17.066667 17.066667 39.822222 25.6 64 25.6 24.177778 0 46.933333-9.955556 64-25.6 17.066667-15.644444 24.177778-39.822222 24.177777-62.577778z m-46.933333 42.666667c-11.377778 11.377778-27.022222 18.488889-42.666667 18.488889s-31.288889-5.688889-42.666666-18.488889c-24.177778-24.177778-24.177778-62.577778 0-86.755555 11.377778-11.377778 27.022222-18.488889 42.666666-18.488889s31.288889 5.688889 42.666667 18.488889c11.377778 11.377778 18.488889 27.022222 18.488889 42.666666s-7.111111 32.711111-18.488889 44.088889zM625.777778 576l-41.244445-41.244444c-5.688889-5.688889-14.222222-5.688889-19.911111 0-5.688889 5.688889-5.688889 14.222222 0 19.911111l41.244445 42.666666-29.866667 28.444445-29.866667-29.866667c-11.377778-11.377778-29.866667-11.377778-41.244444 0L475.022222 625.777778c-5.688889 5.688889-8.533333 12.8-8.533333 21.333333 0 7.111111 2.844444 15.644444 8.533333 21.333333l41.244445 41.244445c2.844444 2.844444 7.111111 4.266667 9.955555 4.266667 2.844444 0 7.111111-1.422222 9.955556-4.266667 5.688889-5.688889 5.688889-14.222222 0-19.911111l-41.244445-42.666667 31.288889-29.866667 29.866667 29.866667c11.377778 11.377778 29.866667 11.377778 41.244444 0l28.444445-28.444444c5.688889-5.688889 8.533333-12.8 8.533333-21.333334s-2.844444-17.066667-8.533333-21.333333z" fill="#000000" p-id="9758"></path></svg>