<?xml version="1.0" standalone="no"?><!DOCTYPE svg PUBLIC "-//W3C//DTD SVG 1.1//EN" "http://www.w3.org/Graphics/SVG/1.1/DTD/svg11.dtd"><svg t="1687265583910" viewBox="0 0 1024 1024" version="1.1" xmlns="http://www.w3.org/2000/svg" p-id="3201" xmlns:xlink="http://www.w3.org/1999/xlink" width="200" height="200"><path d="M868.977778 669.866667L354.133333 155.022222C298.666667 99.555556 209.066667 99.555556 155.022222 155.022222 99.555556 210.488889 99.555556 300.088889 155.022222 355.555556L668.444444 868.977778c27.022222 27.022222 64 41.244444 99.555556 41.244444s72.533333-14.222222 99.555556-41.244444c56.888889-55.466667 56.888889-145.066667 1.422222-199.111111z m-19.911111 179.2c-44.088889 44.088889-115.2 44.088889-159.288889 0L174.933333 334.222222c-44.088889-44.088889-44.088889-115.2 0-159.288889C196.266667 153.6 226.133333 142.222222 254.577778 142.222222c28.444444 0 58.311111 11.377778 79.644444 32.711111l513.422222 513.422223c45.511111 45.511111 45.511111 116.622222 1.422223 160.711111z" fill="#000000" p-id="3202"></path><path d="M257.422222 224.711111c-8.533333-8.533333-21.333333-8.533333-29.866666 0-8.533333 8.533333-8.533333 21.333333 0 29.866667 8.533333 8.533333 21.333333 8.533333 29.866666 0 8.533333-8.533333 7.111111-21.333333 0-29.866667z" fill="#000000" p-id="3203"></path><path d="M271.644444 331.377778m-21.333333 0a21.333333 21.333333 0 1 0 42.666667 0 21.333333 21.333333 0 1 0-42.666667 0Z" fill="#000000" p-id="3204"></path><path d="M317.155556 256c-8.533333 8.533333-8.533333 21.333333 0 29.866667 8.533333 8.533333 21.333333 8.533333 29.866666 0 8.533333-8.533333 8.533333-21.333333 0-29.866667-8.533333-8.533333-21.333333-8.533333-29.866666 0z m452.266666 512c-8.533333 8.533333-8.533333 21.333333 0 29.866667 8.533333 8.533333 21.333333 8.533333 29.866667 0 8.533333-8.533333 8.533333-21.333333 0-29.866667-8.533333-8.533333-21.333333-8.533333-29.866667 0z" fill="#000000" p-id="3205"></path><path d="M694.044444 752.355556m-21.333333 0a21.333333 21.333333 0 1 0 42.666667 0 21.333333 21.333333 0 1 0-42.666667 0Z" fill="#000000" p-id="3206"></path><path d="M769.422222 676.977778c-8.533333-8.533333-21.333333-8.533333-29.866666 0-8.533333 8.533333-8.533333 21.333333 0 29.866666 8.533333 8.533333 21.333333 8.533333 29.866666 0 7.111111-7.111111 7.111111-21.333333 0-29.866666zM551.822222 442.311111c-22.755556-22.755556-58.311111-22.755556-81.066666 0l-28.444445 28.444445c-22.755556 22.755556-22.755556 58.311111 0 81.066666l28.444445 28.444445C483.555556 593.066667 497.777778 597.333333 512 597.333333s28.444444-5.688889 39.822222-17.066666l28.444445-28.444445c22.755556-22.755556 22.755556-58.311111 0-81.066666l-28.444445-28.444445z m9.955556 89.6l-28.444445 28.444445c-11.377778 11.377778-28.444444 11.377778-39.822222 0l-28.444444-28.444445c-11.377778-11.377778-11.377778-28.444444 0-39.822222l28.444444-28.444445c11.377778-11.377778 28.444444-11.377778 39.822222 0l28.444445 28.444445c9.955556 11.377778 9.955556 28.444444 0 39.822222z" fill="#000000" p-id="3207"></path></svg>