<?xml version="1.0" standalone="no"?><!DOCTYPE svg PUBLIC "-//W3C//DTD SVG 1.1//EN" "http://www.w3.org/Graphics/SVG/1.1/DTD/svg11.dtd"><svg t="1687265930021" viewBox="0 0 1024 1024" version="1.1" xmlns="http://www.w3.org/2000/svg" p-id="13695" xmlns:xlink="http://www.w3.org/1999/xlink" width="200" height="200"><path d="M769.422222 248.888889c-78.222222 0-140.8 64-140.8 140.8v140.8c-27.022222 5.688889-48.355556 31.288889-48.355555 59.733333V654.222222c0 29.866667 19.911111 54.044444 48.355555 59.733334v21.333333c0 81.066667-65.422222 146.488889-146.488889 146.488889-81.066667 0-146.488889-65.422222-146.488889-146.488889V725.333333C440.888889 716.8 526.222222 628.622222 526.222222 519.111111V227.555556c0-24.177778-18.488889-42.666667-42.666666-42.666667H334.222222V128c0-8.533333-5.688889-14.222222-14.222222-14.222222s-14.222222 5.688889-14.222222 14.222222v56.888889H156.444444c-24.177778 0-42.666667 18.488889-42.666666 42.666667v291.555555c0 109.511111 85.333333 197.688889 192 204.8v9.955556C305.777778 832 384 910.222222 480.711111 910.222222c96.711111 0 174.933333-78.222222 174.933333-174.933333v-21.333333c27.022222-7.111111 46.933333-31.288889 46.933334-59.733334v-64c0-28.444444-19.911111-54.044444-46.933334-59.733333v-140.8c0-62.577778 51.2-112.355556 112.355556-112.355556 61.155556 0 113.777778 49.777778 113.777778 112.355556V512c0 8.533333 5.688889 14.222222 14.222222 14.222222s14.222222-5.688889 14.222222-14.222222v-122.311111c0-78.222222-64-140.8-140.8-140.8zM156.444444 213.333333h327.111112c8.533333 0 14.222222 5.688889 14.222222 14.222223v42.666666h-54.044445c-8.533333 0-14.222222 5.688889-14.222222 14.222222s5.688889 14.222222 14.222222 14.222223H497.777778v56.888889h-54.044445c-8.533333 0-14.222222 5.688889-14.222222 14.222222s5.688889 14.222222 14.222222 14.222222H497.777778v75.377778c-59.733333-27.022222-129.422222-22.755556-184.888889 11.377778l-2.844445 1.422222c-51.2 29.866667-115.2 31.288889-166.4 1.422222V227.555556c-1.422222-8.533333 4.266667-14.222222 12.8-14.222223z m-14.222222 305.777778v-11.377778c25.6 11.377778 54.044444 18.488889 81.066667 18.488889 34.133333 0 68.266667-8.533333 99.555555-27.022222l4.266667-2.844444c51.2-32.711111 116.622222-34.133333 170.666667-4.266667v27.022222C497.777778 617.244444 418.133333 696.888889 320 696.888889S142.222222 617.244444 142.222222 519.111111z m533.333334 71.111111V654.222222c0 18.488889-15.644444 32.711111-32.711112 32.711111-18.488889 0-32.711111-15.644444-32.711111-32.711111v-64c0-18.488889 15.644444-32.711111 32.711111-32.711111 17.066667-1.422222 32.711111 14.222222 32.711112 32.711111z" fill="#000000" p-id="13696"></path></svg>