<?xml version="1.0" standalone="no"?><!DOCTYPE svg PUBLIC "-//W3C//DTD SVG 1.1//EN" "http://www.w3.org/Graphics/SVG/1.1/DTD/svg11.dtd"><svg t="1687265963036" viewBox="0 0 1024 1024" version="1.1" xmlns="http://www.w3.org/2000/svg" p-id="14718" xmlns:xlink="http://www.w3.org/1999/xlink" width="200" height="200"><path d="M851.911111 512c0-105.244444-86.755556-192-192-192-21.333333 0-41.244444 2.844444-59.733333 9.955556L466.488889 128c-5.688889-8.533333-18.488889-8.533333-24.177778 0L219.022222 460.8c-75.377778 112.355556-59.733333 263.111111 35.555556 358.4 55.466667 55.466667 128 82.488889 200.533333 82.488889s145.066667-27.022222 200.533333-82.488889c35.555556-35.555556 61.155556-79.644444 73.955556-128 71.111111-27.022222 122.311111-96.711111 122.311111-179.2zM634.311111 799.288889c-99.555556 99.555556-260.266667 99.555556-359.822222 0-85.333333-85.333333-99.555556-220.444444-31.288889-321.422222L455.111111 162.133333 574.577778 341.333333c-62.577778 31.288889-106.666667 96.711111-106.666667 172.088889 0 105.244444 86.755556 192 192 192 11.377778 0 24.177778-1.422222 35.555556-2.844444-12.8 35.555556-32.711111 68.266667-61.155556 96.711111z m25.6-123.733333c-89.6 0-163.555556-73.955556-163.555555-163.555556s73.955556-163.555556 163.555555-163.555556S823.466667 422.4 823.466667 512s-72.533333 163.555556-163.555556 163.555556z" fill="#000000" p-id="14719"></path><path d="M722.488889 497.777778h-48.355556v-48.355556c0-8.533333-5.688889-14.222222-14.222222-14.222222s-14.222222 5.688889-14.222222 14.222222V497.777778H597.333333c-8.533333 0-14.222222 5.688889-14.222222 14.222222s5.688889 14.222222 14.222222 14.222222h48.355556v48.355556c0 8.533333 5.688889 14.222222 14.222222 14.222222s14.222222-5.688889 14.222222-14.222222V526.222222h48.355556c8.533333 0 14.222222-5.688889 14.222222-14.222222s-5.688889-14.222222-14.222222-14.222222z" fill="#000000" p-id="14720"></path></svg>