<?xml version="1.0" standalone="no"?><!DOCTYPE svg PUBLIC "-//W3C//DTD SVG 1.1//EN" "http://www.w3.org/Graphics/SVG/1.1/DTD/svg11.dtd"><svg t="1687265864076" viewBox="0 0 1024 1024" version="1.1" xmlns="http://www.w3.org/2000/svg" p-id="11655" xmlns:xlink="http://www.w3.org/1999/xlink" width="200" height="200"><path d="M719.644444 315.733333c-27.022222-17.066667-42.666667-45.511111-44.088888-76.8h4.266666c29.866667 0 54.044444-24.177778 54.044445-54.044444v-5.688889c0-35.555556-29.866667-65.422222-65.422223-65.422222H362.666667c-35.555556 0-65.422222 29.866667-65.422223 65.422222v5.688889c0 29.866667 22.755556 52.622222 52.622223 54.044444-1.422222 31.288889-17.066667 59.733333-44.088889 76.8-35.555556 22.755556-56.888889 61.155556-56.888889 103.822223v372.622222c0 65.422222 52.622222 118.044444 118.044444 118.044444h291.555556c65.422222 0 118.044444-52.622222 118.044444-118.044444V418.133333c0-41.244444-21.333333-79.644444-56.888889-102.4z m-12.8-136.533333v5.688889c0 14.222222-11.377778 25.6-25.6 25.6h-51.2c1.422222-1.422222 1.422222-4.266667 1.422223-5.688889V142.222222h38.4c19.911111 0 36.977778 17.066667 36.977777 36.977778zM426.666667 142.222222h78.222222v62.577778c0 1.422222 0 4.266667 1.422222 5.688889h-81.066667c1.422222-1.422222 1.422222-4.266667 1.422223-5.688889V142.222222z m106.666666 62.577778V142.222222h69.688889v62.577778c0 1.422222 0 4.266667 1.422222 5.688889h-72.533333c0-1.422222 1.422222-2.844444 1.422222-5.688889zM324.266667 184.888889v-5.688889c0-19.911111 17.066667-36.977778 36.977777-36.977778H398.222222v62.577778c0 1.422222 0 4.266667 1.422222 5.688889h-48.355555c-14.222222 0-27.022222-11.377778-27.022222-25.6z m243.2 696.888889H365.511111c-49.777778 0-89.6-39.822222-89.6-89.6V418.133333c0-32.711111 15.644444-62.577778 44.088889-79.644444 35.555556-21.333333 55.466667-59.733333 56.888889-100.977778h270.222222c1.422222 41.244444 21.333333 78.222222 56.888889 100.977778 27.022222 17.066667 44.088889 46.933333 44.088889 79.644444v365.511111c0 54.044444-44.088889 98.133333-98.133333 98.133334h-82.488889z" fill="#000000" p-id="11656"></path><path d="M686.933333 642.844444c0-41.244444-32.711111-73.955556-73.955555-73.955555h-7.111111c22.755556-32.711111 25.6-76.8 2.844444-112.355556L583.111111 415.288889c-2.844444-2.844444-5.688889-5.688889-9.955555-7.111111-4.266667 0-8.533333 0-11.377778 2.844444l-39.822222 34.133334c-22.755556 18.488889-51.2 29.866667-81.066667 29.866666-34.133333 0-61.155556 27.022222-61.155556 61.155556 0 12.8 4.266667 24.177778 9.955556 34.133333-34.133333 7.111111-58.311111 36.977778-58.311111 72.533333 0 41.244444 32.711111 73.955556 73.955555 73.955556h207.644445c39.822222 0 73.955556-32.711111 73.955555-73.955556z m-73.955555 45.511112H403.911111c-25.6 0-45.511111-19.911111-45.511111-45.511112 0-25.6 19.911111-45.511111 45.511111-45.511111H440.888889c8.533333 0 14.222222-5.688889 14.222222-14.222222s-5.688889-14.222222-14.222222-14.222222c-18.488889 0-32.711111-14.222222-32.711111-32.711111 0-18.488889 14.222222-32.711111 32.711111-32.711111 35.555556 0 71.111111-12.8 99.555555-35.555556l27.022223-22.755555 17.066666 27.022222c21.333333 34.133333 11.377778 78.222222-21.333333 99.555555-5.688889 2.844444-7.111111 9.955556-5.688889 15.644445 1.422222 5.688889 7.111111 9.955556 14.222222 9.955555h42.666667c25.6 0 45.511111 19.911111 45.511111 45.511111-1.422222 25.6-22.755556 45.511111-46.933333 45.511112z" fill="#000000" p-id="11657"></path></svg>