<?xml version="1.0" standalone="no"?><!DOCTYPE svg PUBLIC "-//W3C//DTD SVG 1.1//EN" "http://www.w3.org/Graphics/SVG/1.1/DTD/svg11.dtd"><svg t="1687266016159" viewBox="0 0 1024 1024" version="1.1" xmlns="http://www.w3.org/2000/svg" p-id="16615" xmlns:xlink="http://www.w3.org/1999/xlink" width="200" height="200"><path d="M616.192 555.52a27.306667 27.306667 0 0 1 27.264 27.278222 27.306667 27.306667 0 0 1-27.264 27.278222H556.942222a14.222222 14.222222 0 0 0-14.222222 14.222223v59.221333a27.306667 27.306667 0 0 1-27.278222 27.278222 27.306667 27.306667 0 0 1-27.264-27.278222v-59.221333a14.222222 14.222222 0 0 0-14.222222-14.222223H414.72a27.306667 27.306667 0 0 1-27.278222-27.278222 27.306667 27.306667 0 0 1 27.278222-27.278222h59.235556a14.222222 14.222222 0 0 0 14.222222-14.222222v-59.221334a27.306667 27.306667 0 0 1 27.264-27.278222 27.306667 27.306667 0 0 1 27.278222 27.278222v59.221334a14.222222 14.222222 0 0 0 14.222222 14.222222h59.235556z m-100.736-129.166222a55.779556 55.779556 0 0 0-55.708444 55.722666v44.999112H414.72a55.793778 55.793778 0 0 0-55.722667 55.722666 55.793778 55.793778 0 0 0 55.722667 55.722667h45.013333v44.999111a55.779556 55.779556 0 0 0 55.708445 55.722667 55.779556 55.779556 0 0 0 55.722666-55.722667v-44.999111h45.013334a55.779556 55.779556 0 0 0 55.708444-55.722667 55.779556 55.779556 0 0 0-55.708444-55.722666H571.164444v-44.999112a55.779556 55.779556 0 0 0-55.722666-55.722666z" fill="#000000" p-id="16616"></path><path d="M835.456 462.307556a14.222222 14.222222 0 0 0-14.222222 14.222222v327.480889c0 54.343111-44.188444 98.986667-98.503111 99.555555l-412.444445 4.323556a99.612444 99.612444 0 0 1-71.068444-28.771556 98.858667 98.858667 0 0 1-29.539556-70.784V483.242667a14.222222 14.222222 0 1 0-28.444444 0v325.091555c0 34.446222 13.482667 66.759111 37.973333 91.022222a127.132444 127.132444 0 0 0 89.984 36.977778h1.379556l412.444444-4.323555c69.845333-0.711111 126.663111-58.154667 126.663111-128V476.529778a14.222222 14.222222 0 0 0-14.222222-14.222222M904.007111 400.824889l-368.355555-251.121778a42.439111 42.439111 0 0 0-48.099556 0L119.992889 400.839111A14.236444 14.236444 0 0 0 128 426.794667a14.08 14.08 0 0 0 8.007111-2.474667L503.608889 173.198222a14.165333 14.165333 0 0 1 16.014222 0l368.355556 251.121778a14.222222 14.222222 0 1 0 16.042666-23.495111" fill="#000000" p-id="16617"></path></svg>