<?xml version="1.0" standalone="no"?><!DOCTYPE svg PUBLIC "-//W3C//DTD SVG 1.1//EN" "http://www.w3.org/Graphics/SVG/1.1/DTD/svg11.dtd"><svg t="1687266008481" viewBox="0 0 1024 1024" version="1.1" xmlns="http://www.w3.org/2000/svg" p-id="16325" xmlns:xlink="http://www.w3.org/1999/xlink" width="200" height="200"><path d="M793.6 652.8c29.866667-24.177778 48.355556-59.733333 48.355556-100.977778 0-71.111111-58.311111-129.422222-129.422223-129.422222h-42.666666c56.888889-59.733333 68.266667-150.755556 22.755555-223.288889l-49.777778-79.644444c-2.844444-2.844444-5.688889-5.688889-9.955555-7.111111-4.266667 0-8.533333 0-11.377778 2.844444l-76.8 64c-45.511111 38.4-105.244444 59.733333-164.977778 59.733333-58.311111 0-105.244444 46.933333-105.244444 105.244445 0 29.866667 12.8 56.888889 34.133333 76.8-69.688889 1.422222-126.577778 58.311111-126.577778 129.422222 0 41.244444 18.488889 76.8 48.355556 100.977778-65.422222 5.688889-116.622222 61.155556-116.622222 128 0 71.111111 58.311111 129.422222 129.422222 129.422222H782.222222c71.111111 0 129.422222-58.311111 129.422222-129.422222-1.422222-65.422222-52.622222-120.888889-118.044444-126.577778zM780.8 881.777778H243.2c-55.466667 0-100.977778-45.511111-100.977778-100.977778 0-55.466667 45.511111-100.977778 100.977778-100.977778h96.711111c8.533333 0 14.222222-5.688889 14.222222-14.222222s-5.688889-14.222222-14.222222-14.222222h-29.866667c-55.466667 0-99.555556-45.511111-99.555555-100.977778 0-55.466667 45.511111-100.977778 100.977778-100.977778h103.822222c8.533333 0 14.222222-5.688889 14.222222-14.222222s-5.688889-14.222222-14.222222-14.222222h-34.133333c-5.688889 0-9.955556 0-15.644445-1.422222-35.555556-7.111111-61.155556-38.4-61.155555-75.377778 0-42.666667 34.133333-76.8 76.8-76.8 66.844444 0 132.266667-24.177778 183.466666-66.844445l64-54.044444 41.244445 65.422222c44.088889 69.688889 25.6 160.711111-42.666667 207.644445h-52.622222c-8.533333 0-14.222222 5.688889-14.222222 14.222222s5.688889 14.222222 14.222222 14.222222h139.377778c55.466667 0 100.977778 45.511111 100.977777 100.977778 0 55.466667-44.088889 99.555556-99.555555 100.977778h-29.866667c-8.533333 0-14.222222 5.688889-14.222222 14.222222s5.688889 14.222222 14.222222 14.222222H782.222222c55.466667 0 100.977778 45.511111 100.977778 100.977778 0 55.466667-46.933333 102.4-102.4 102.4z" fill="#000000" p-id="16326"></path></svg>