<?xml version="1.0" standalone="no"?><!DOCTYPE svg PUBLIC "-//W3C//DTD SVG 1.1//EN" "http://www.w3.org/Graphics/SVG/1.1/DTD/svg11.dtd"><svg t="1687265899500" viewBox="0 0 1024 1024" version="1.1" xmlns="http://www.w3.org/2000/svg" p-id="12676" xmlns:xlink="http://www.w3.org/1999/xlink" width="200" height="200"><path d="M612.977778 442.311111h-45.511111v-45.511111c0-31.288889-25.6-55.466667-55.466667-55.466667-29.866667 0-55.466667 25.6-55.466667 55.466667v45.511111h-45.511111c-31.288889 0-55.466667 25.6-55.466666 55.466667 0 29.866667 25.6 55.466667 55.466666 55.466666h45.511111v45.511112c0 31.288889 25.6 55.466667 55.466667 55.466666 29.866667 0 55.466667-25.6 55.466667-55.466666v-45.511112h45.511111c31.288889 0 55.466667-25.6 55.466666-55.466666 0-29.866667-25.6-55.466667-55.466666-55.466667z m0 82.488889h-59.733334c-8.533333 0-14.222222 5.688889-14.222222 14.222222v59.733334c0 15.644444-12.8 27.022222-27.022222 27.022222-15.644444 0-27.022222-12.8-27.022222-27.022222v-59.733334c0-8.533333-5.688889-14.222222-14.222222-14.222222h-59.733334c-15.644444 0-27.022222-12.8-27.022222-27.022222 0-15.644444 12.8-27.022222 27.022222-27.022222h59.733334c8.533333 0 14.222222-5.688889 14.222222-14.222223v-59.733333c0-15.644444 12.8-27.022222 27.022222-27.022222 15.644444 0 27.022222 12.8 27.022222 27.022222v59.733333c0 8.533333 5.688889 14.222222 14.222222 14.222223h59.733334c15.644444 0 27.022222 12.8 27.022222 27.022222 0 15.644444-12.8 27.022222-27.022222 27.022222z" fill="#000000" p-id="12677"></path><path d="M903.111111 129.422222c-4.266667-2.844444-9.955556-1.422222-14.222222 1.422222l-7.111111 4.266667c-108.088889 75.377778-251.733333 75.377778-356.977778-1.422222l-2.844444-2.844445c-4.266667-2.844444-11.377778-4.266667-17.066667 0l-9.955556 7.111112c-109.511111 73.955556-253.155556 71.111111-358.4-7.111112-4.266667-2.844444-9.955556-4.266667-14.222222-1.422222-5.688889 2.844444-8.533333 7.111111-8.533333 12.8v244.622222c0 160.711111 79.644444 312.888889 213.333333 408.177778l176.355556 126.577778c2.844444 1.422222 5.688889 2.844444 8.533333 2.844444 2.844444 0 5.688889-1.422222 8.533333-2.844444L696.888889 795.022222c133.688889-95.288889 213.333333-247.466667 213.333333-408.177778V142.222222c0-5.688889-2.844444-9.955556-7.111111-12.8zM881.777778 386.844444c0 150.755556-75.377778 295.822222-201.955556 385.422223L512 893.155556l-167.822222-120.888889C217.6 682.666667 142.222222 539.022222 142.222222 386.844444V169.244444c112.355556 69.688889 257.422222 68.266667 368.355556-8.533333l1.422222-1.422222c110.933333 76.8 256 79.644444 369.777778 9.955555v217.6z" fill="#000000" p-id="12678"></path></svg>