<?xml version="1.0" standalone="no"?><!DOCTYPE svg PUBLIC "-//W3C//DTD SVG 1.1//EN" "http://www.w3.org/Graphics/SVG/1.1/DTD/svg11.dtd"><svg t="1687265885152" viewBox="0 0 1024 1024" version="1.1" xmlns="http://www.w3.org/2000/svg" p-id="12382" xmlns:xlink="http://www.w3.org/1999/xlink" width="200" height="200"><path d="M803.555556 113.777778h-583.111112c-24.177778 0-42.666667 18.488889-42.666666 42.666666v711.111112c0 24.177778 18.488889 42.666667 42.666666 42.666666h583.111112c24.177778 0 42.666667-18.488889 42.666666-42.666666V156.444444c0-24.177778-18.488889-42.666667-42.666666-42.666666z m14.222222 753.777778c0 8.533333-5.688889 14.222222-14.222222 14.222222h-583.111112c-8.533333 0-14.222222-5.688889-14.222222-14.222222V156.444444c0-8.533333 5.688889-14.222222 14.222222-14.222222h583.111112c8.533333 0 14.222222 5.688889 14.222222 14.222222v711.111112z" fill="#000000" p-id="12383"></path><path d="M369.777778 177.777778c-51.2 0-92.444444 41.244444-92.444445 92.444444s41.244444 92.444444 92.444445 92.444445 92.444444-41.244444 92.444444-92.444445-41.244444-92.444444-92.444444-92.444444z m64 92.444444c0 12.8-4.266667 24.177778-9.955556 34.133334l-91.022222-86.755556c9.955556-7.111111 22.755556-11.377778 36.977778-11.377778 35.555556 0 64 28.444444 64 64z m-128 0c0-11.377778 2.844444-21.333333 8.533333-31.288889l89.6 85.333334c-9.955556 5.688889-21.333333 9.955556-34.133333 9.955555-35.555556 0-64-28.444444-64-64zM369.777778 419.555556c-51.2 0-92.444444 41.244444-92.444445 92.444444s41.244444 92.444444 92.444445 92.444444 92.444444-41.244444 92.444444-92.444444-41.244444-92.444444-92.444444-92.444444z m0 28.444444c9.955556 0 19.911111 2.844444 28.444444 7.111111l-78.222222 98.133333c-9.955556-11.377778-15.644444-25.6-15.644444-41.244444 1.422222-35.555556 29.866667-64 65.422222-64z m0 128c-9.955556 0-18.488889-1.422222-25.6-5.688889l76.8-96.711111c8.533333 11.377778 12.8 24.177778 12.8 38.4 0 35.555556-28.444444 64-64 64z m0 85.333333c-51.2 0-92.444444 41.244444-92.444445 92.444445s41.244444 92.444444 92.444445 92.444444 92.444444-41.244444 92.444444-92.444444-41.244444-92.444444-92.444444-92.444445z m0 28.444445c29.866667 0 55.466667 21.333333 62.577778 49.777778h-125.155556c7.111111-28.444444 32.711111-49.777778 62.577778-49.777778z m0 128c-29.866667 0-55.466667-21.333333-62.577778-49.777778h125.155556c-7.111111 28.444444-32.711111 49.777778-62.577778 49.777778z m284.444444-398.222222c-51.2 0-92.444444 41.244444-92.444444 92.444444s41.244444 92.444444 92.444444 92.444444 92.444444-41.244444 92.444445-92.444444-41.244444-92.444444-92.444445-92.444444z m0 28.444444c29.866667 0 55.466667 21.333333 62.577778 49.777778h-125.155556c7.111111-28.444444 32.711111-49.777778 62.577778-49.777778z m0 128c-29.866667 0-55.466667-21.333333-62.577778-49.777778h125.155556c-7.111111 28.444444-32.711111 49.777778-62.577778 49.777778z m0 85.333333c-51.2 0-92.444444 41.244444-92.444444 92.444445s41.244444 92.444444 92.444444 92.444444 92.444444-41.244444 92.444445-92.444444-41.244444-92.444444-92.444445-92.444445zM590.222222 753.777778c0-14.222222 4.266667-27.022222 12.8-38.4l76.8 96.711111c-8.533333 2.844444-17.066667 5.688889-25.6 5.688889-35.555556 0-64-28.444444-64-64z m112.355556 41.244444L624.355556 696.888889c8.533333-4.266667 18.488889-7.111111 29.866666-7.111111 35.555556 0 64 28.444444 64 64 0 15.644444-5.688889 29.866667-15.644444 41.244444zM654.222222 177.777778c-51.2 0-92.444444 41.244444-92.444444 92.444444s41.244444 92.444444 92.444444 92.444445 92.444444-41.244444 92.444445-92.444445-41.244444-92.444444-92.444445-92.444444z m0 28.444444c15.644444 0 29.866667 5.688889 41.244445 15.644445l-100.977778 72.533333c-2.844444-7.111111-4.266667-15.644444-4.266667-24.177778 0-35.555556 28.444444-64 64-64z m0 128c-15.644444 0-31.288889-5.688889-42.666666-17.066666l100.977777-72.533334c2.844444 7.111111 5.688889 17.066667 5.688889 25.6 0 35.555556-28.444444 64-64 64z" fill="#000000" p-id="12384"></path></svg>