<?xml version="1.0" standalone="no"?><!DOCTYPE svg PUBLIC "-//W3C//DTD SVG 1.1//EN" "http://www.w3.org/Graphics/SVG/1.1/DTD/svg11.dtd"><svg t="1687265941612" viewBox="0 0 1024 1024" version="1.1" xmlns="http://www.w3.org/2000/svg" p-id="13986" xmlns:xlink="http://www.w3.org/1999/xlink" width="200" height="200"><path d="M721.066667 469.333333c-8.533333 0-14.222222 5.688889-14.222223 14.222223v4.266666h-36.977777c-2.844444-29.866667-14.222222-55.466667-32.711111-78.222222l27.022222-27.022222 2.844444 2.844444c2.844444 2.844444 7.111111 4.266667 9.955556 4.266667 2.844444 0 7.111111-1.422222 9.955555-4.266667 5.688889-5.688889 5.688889-14.222222 0-19.911111L661.333333 341.333333c-5.688889-5.688889-14.222222-5.688889-19.911111 0-5.688889 5.688889-5.688889 14.222222 0 19.911111l2.844445 2.844445-27.022223 27.022222c-21.333333-17.066667-48.355556-29.866667-78.222222-32.711111v-36.977778h4.266667c8.533333 0 14.222222-5.688889 14.222222-14.222222s-5.688889-14.222222-14.222222-14.222222h-36.977778c-8.533333 0-14.222222 5.688889-14.222222 14.222222s5.688889 14.222222 14.222222 14.222222h4.266667v36.977778c-29.866667 2.844444-55.466667 14.222222-78.222222 32.711111l-27.022223-27.022222 2.844445-2.844445c5.688889-5.688889 5.688889-14.222222 0-19.911111-5.688889-5.688889-14.222222-5.688889-19.911111 0l-25.6 25.6c-5.688889 5.688889-5.688889 14.222222 0 19.911111 2.844444 2.844444 7.111111 4.266667 9.955555 4.266667 2.844444 0 7.111111-1.422222 9.955556-4.266667l2.844444-2.844444 27.022222 27.022222c-17.066667 21.333333-29.866667 48.355556-32.711111 78.222222h-36.977777V483.555556c0-8.533333-5.688889-14.222222-14.222223-14.222223s-14.222222 5.688889-14.222222 14.222223v35.555555c0 8.533333 5.688889 14.222222 14.222222 14.222222s14.222222-5.688889 14.222223-14.222222v-4.266667h36.977777c2.844444 29.866667 14.222222 55.466667 32.711111 78.222223l-27.022222 27.022222-1.422222-2.844445c-5.688889-5.688889-14.222222-5.688889-19.911111 0-5.688889 5.688889-5.688889 14.222222 0 19.911112l25.6 25.6c2.844444 2.844444 7.111111 4.266667 9.955555 4.266666 2.844444 0 7.111111-1.422222 9.955556-4.266666 5.688889-5.688889 5.688889-14.222222 0-19.911112l-2.844444-2.844444 27.022222-27.022222c21.333333 17.066667 48.355556 29.866667 78.222222 32.711111V682.666667h-4.266667c-8.533333 0-14.222222 5.688889-14.222222 14.222222s5.688889 14.222222 14.222222 14.222222h36.977778c8.533333 0 14.222222-5.688889 14.222222-14.222222s-5.688889-14.222222-14.222222-14.222222H540.444444v-36.977778c29.866667-2.844444 55.466667-14.222222 78.222223-32.711111l27.022222 27.022222-2.844445 2.844444c-5.688889 5.688889-5.688889 14.222222 0 19.911112 2.844444 2.844444 7.111111 4.266667 9.955556 4.266666 2.844444 0 7.111111-1.422222 9.955556-4.266666l12.8-12.8 12.8-12.8c5.688889-5.688889 5.688889-14.222222 0-19.911112-5.688889-5.688889-14.222222-5.688889-19.911112 0l-2.844444 2.844445-27.022222-27.022222c17.066667-21.333333 29.866667-48.355556 32.711111-78.222223h36.977778v4.266667c0 8.533333 5.688889 14.222222 14.222222 14.222222s14.222222-5.688889 14.222222-14.222222V483.555556c-1.422222-7.111111-7.111111-14.222222-15.644444-14.222223zM524.8 618.666667c-64 0-116.622222-52.622222-116.622222-116.622223 0-64 52.622222-116.622222 116.622222-116.622222 64 0 116.622222 52.622222 116.622222 116.622222 0 64-52.622222 116.622222-116.622222 116.622223z" fill="#000000" p-id="13987"></path><path d="M524.8 440.888889c-9.955556 0-18.488889 8.533333-18.488889 18.488889 0 9.955556 8.533333 18.488889 18.488889 18.488889 9.955556 0 18.488889-8.533333 18.488889-18.488889 0-9.955556-8.533333-18.488889-18.488889-18.488889z" fill="#000000" p-id="13988"></path><path d="M489.244444 531.911111m-18.488888 0a18.488889 18.488889 0 1 0 36.977777 0 18.488889 18.488889 0 1 0-36.977777 0Z" fill="#000000" p-id="13989"></path><path d="M561.777778 531.911111m-18.488889 0a18.488889 18.488889 0 1 0 36.977778 0 18.488889 18.488889 0 1 0-36.977778 0Z" fill="#000000" p-id="13990"></path><path d="M923.022222 320c0-41.244444-34.133333-75.377778-75.377778-75.377778-27.022222 0-49.777778-22.755556-49.777777-49.777778 0-42.666667-35.555556-78.222222-78.222223-78.222222H339.911111c-44.088889 0-79.644444 34.133333-81.066667 78.222222v2.844445c-1.422222 27.022222-22.755556 46.933333-49.777777 46.933333h-5.688889C162.133333 244.622222 128 278.755556 128 320v197.688889c0 85.333333 35.555556 169.244444 96.711111 227.555555 24.177778 24.177778 52.622222 42.666667 83.911111 58.311112L526.222222 908.8l217.6-103.822222c31.288889-14.222222 58.311111-34.133333 82.488889-58.311111 61.155556-59.733333 96.711111-143.644444 96.711111-228.977778V320z m-115.2 406.755556c-22.755556 21.333333-48.355556 39.822222-75.377778 52.622222L526.222222 877.511111l-204.8-98.133333c-28.444444-12.8-54.044444-31.288889-76.8-52.622222C189.155556 672.711111 156.444444 597.333333 156.444444 519.111111v-199.111111c0-25.6 21.333333-46.933333 46.933334-46.933333h5.688889c41.244444 0 76.8-32.711111 78.222222-75.377778v-2.844445c1.422222-28.444444 24.177778-49.777778 52.622222-49.777777h378.311111c27.022222 0 49.777778 22.755556 49.777778 49.777777 0 42.666667 35.555556 78.222222 78.222222 78.222223 25.6 0 46.933333 21.333333 46.933334 46.933333l2.844444 199.111111c0 76.8-31.288889 153.6-88.177778 207.644445z" fill="#000000" p-id="13991"></path></svg>