<?xml version="1.0" standalone="no"?><!DOCTYPE svg PUBLIC "-//W3C//DTD SVG 1.1//EN" "http://www.w3.org/Graphics/SVG/1.1/DTD/svg11.dtd"><svg t="1687265821297" viewBox="0 0 1024 1024" version="1.1" xmlns="http://www.w3.org/2000/svg" p-id="10487" xmlns:xlink="http://www.w3.org/1999/xlink" width="200" height="200"><path d="M512 113.777778C292.977778 113.777778 113.777778 292.977778 113.777778 512s179.2 398.222222 398.222222 398.222222 398.222222-179.2 398.222222-398.222222S731.022222 113.777778 512 113.777778zM335.644444 457.955556h371.2c14.222222 0 25.6 11.377778 25.6 25.6s-11.377778 25.6-25.6 25.6H320c-14.222222 0-25.6-11.377778-25.6-25.6s11.377778-25.6 25.6-25.6h15.644444z m15.644445-28.444445c7.111111-83.911111 78.222222-149.333333 163.555555-149.333333s155.022222 65.422222 163.555556 149.333333h-327.111111zM512 881.777778c-203.377778 0-369.777778-166.4-369.777778-369.777778 0-199.111111 157.866667-361.244444 355.555556-369.777778v110.933334c-93.866667 7.111111-167.822222 82.488889-174.933334 176.355555h-2.844444c-29.866667 0-54.044444 24.177778-54.044444 54.044445 0 29.866667 24.177778 54.044444 54.044444 54.044444h388.266667c29.866667 0 54.044444-24.177778 54.044444-54.044444 0-29.866667-24.177778-54.044444-54.044444-54.044445h-2.844445c-7.111111-95.288889-83.911111-170.666667-179.2-177.777778V142.222222c197.688889 7.111111 355.555556 170.666667 355.555556 369.777778 0 203.377778-166.4 369.777778-369.777778 369.777778z" fill="#000000" p-id="10488"></path><path d="M513.422222 576c-8.533333 0-14.222222 5.688889-14.222222 14.222222v58.311111c0 8.533333 5.688889 14.222222 14.222222 14.222223s14.222222-5.688889 14.222222-14.222223v-58.311111c0-7.111111-5.688889-14.222222-14.222222-14.222222z m0 116.622222c-8.533333 0-14.222222 5.688889-14.222222 14.222222v58.311112c0 8.533333 5.688889 14.222222 14.222222 14.222222s14.222222-5.688889 14.222222-14.222222v-58.311112c0-7.111111-5.688889-14.222222-14.222222-14.222222z m130.844445-116.622222c-8.533333 0-14.222222 5.688889-14.222223 14.222222v58.311111c0 8.533333 5.688889 14.222222 14.222223 14.222223s14.222222-5.688889 14.222222-14.222223v-58.311111c0-7.111111-7.111111-14.222222-14.222222-14.222222z m0 116.622222c-8.533333 0-14.222222 5.688889-14.222223 14.222222v58.311112c0 8.533333 5.688889 14.222222 14.222223 14.222222s14.222222-5.688889 14.222222-14.222222v-58.311112c0-7.111111-7.111111-14.222222-14.222222-14.222222z m-254.577778-116.622222c-8.533333 0-14.222222 5.688889-14.222222 14.222222v58.311111c0 8.533333 5.688889 14.222222 14.222222 14.222223s14.222222-5.688889 14.222222-14.222223v-58.311111c0-7.111111-5.688889-14.222222-14.222222-14.222222z m0 116.622222c-8.533333 0-14.222222 5.688889-14.222222 14.222222v58.311112c0 8.533333 5.688889 14.222222 14.222222 14.222222s14.222222-5.688889 14.222222-14.222222v-58.311112c0-7.111111-5.688889-14.222222-14.222222-14.222222z" fill="#000000" p-id="10489"></path></svg>