<?xml version="1.0" standalone="no"?><!DOCTYPE svg PUBLIC "-//W3C//DTD SVG 1.1//EN" "http://www.w3.org/Graphics/SVG/1.1/DTD/svg11.dtd"><svg t="1687265954340" viewBox="0 0 1024 1024" version="1.1" xmlns="http://www.w3.org/2000/svg" p-id="14425" xmlns:xlink="http://www.w3.org/1999/xlink" width="200" height="200"><path d="M280.177778 669.866667c22.755556-2.844444 44.088889-9.955556 62.577778-24.177778l52.622222-38.4c9.955556-7.111111 19.911111-11.377778 31.288889-15.644445 38.4-11.377778 68.266667-39.822222 83.911111-75.377777l29.866666-68.266667c14.222222-34.133333 32.711111-66.844444 55.466667-95.288889 4.266667-5.688889 2.844444-14.222222-2.844444-19.911111-38.4-29.866667-64-73.955556-72.533334-120.888889l-4.266666-27.022222c-1.422222-7.111111-8.533333-12.8-17.066667-11.377778-7.111111 1.422222-12.8 8.533333-11.377778 17.066667l4.266667 25.6c8.533333 49.777778 34.133333 96.711111 72.533333 129.422222-19.911111 28.444444-36.977778 58.311111-51.2 91.022222L483.555556 504.888889c-12.8 28.444444-36.977778 49.777778-65.422223 59.733333-14.222222 4.266667-27.022222 11.377778-38.4 19.911111L327.111111 622.933333c-14.222222 9.955556-31.288889 17.066667-48.355555 18.488889l-9.955556 1.422222c-39.822222 4.266667-75.377778 25.6-96.711111 59.733334-12.8 19.911111-19.911111 44.088889-19.911111 68.266666l-1.422222 79.644445c0 8.533333 5.688889 14.222222 14.222222 14.222222 7.111111 0 14.222222-5.688889 14.222222-14.222222l1.422222-79.644445c0-18.488889 5.688889-36.977778 15.644445-52.622222 17.066667-25.6 44.088889-42.666667 75.377777-46.933333l8.533334-1.422222z" fill="#000000" p-id="14426"></path><path d="M816.355556 324.266667c-8.533333-12.8-19.911111-24.177778-32.711112-32.711111-21.333333-14.222222-46.933333-19.911111-72.533333-17.066667l-18.488889 1.422222c-19.911111 2.844444-41.244444-5.688889-54.044444-19.911111-8.533333-8.533333-14.222222-19.911111-17.066667-31.288889l-15.644444-72.533333c-1.422222-7.111111-8.533333-12.8-17.066667-11.377778-7.111111 1.422222-12.8 8.533333-11.377778 17.066667l15.644445 72.533333c4.266667 17.066667 11.377778 32.711111 24.177777 45.511111 19.911111 21.333333 49.777778 31.288889 78.222223 28.444445l18.488889-1.422223c18.488889-2.844444 38.4 2.844444 54.044444 12.8 9.955556 7.111111 18.488889 14.222222 24.177778 24.177778 34.133333 54.044444 52.622222 116.622222 52.622222 180.622222C844.8 704 696.888889 853.333333 513.422222 854.755556h-5.688889c-56.888889 0-109.511111-22.755556-150.755555-64L327.111111 760.888889c-7.111111-7.111111-15.644444-11.377778-24.177778-14.222222-15.644444-4.266667-31.288889-1.422222-44.088889 7.111111-12.8 8.533333-22.755556 21.333333-25.6 36.977778l-7.111111 48.355555c-1.422222 7.111111 4.266667 15.644444 11.377778 17.066667 7.111111 1.422222 15.644444-4.266667 17.066667-11.377778l8.533333-48.355556c1.422222-7.111111 5.688889-14.222222 12.8-18.488888 7.111111-4.266667 14.222222-5.688889 21.333333-2.844445 4.266667 1.422222 8.533333 4.266667 12.8 7.111111l29.866667 29.866667c45.511111 46.933333 106.666667 72.533333 170.666667 72.533333h7.111111c199.111111-1.422222 359.822222-164.977778 359.822222-362.666666-2.844444-71.111111-24.177778-139.377778-61.155555-197.688889z" fill="#000000" p-id="14427"></path><path d="M416.711111 689.777778c-25.6 22.755556-29.866667 61.155556-8.533333 89.6 15.644444 19.911111 39.822222 32.711111 65.422222 36.977778l29.866667 2.844444c8.533333 1.422222 17.066667 1.422222 25.6 1.422222 31.288889 0 62.577778-7.111111 91.022222-19.911111 58.311111-27.022222 108.088889-73.955556 136.533333-132.266667 17.066667-34.133333 19.911111-75.377778 5.688889-110.933333l-8.533333-21.333333c-1.422222-4.266667-5.688889-8.533333-9.955556-8.533334-4.266667-1.422222-9.955556 1.422222-12.8 4.266667-62.577778 68.266667-147.911111 113.777778-241.777778 125.155556-25.6 2.844444-51.2 14.222222-72.533333 32.711111z m320-123.733334c11.377778 29.866667 9.955556 61.155556-4.266667 88.177778-27.022222 52.622222-71.111111 93.866667-123.733333 118.044445-31.288889 14.222222-66.844444 19.911111-102.4 15.644444l-29.866667-2.844444c-18.488889-2.844444-35.555556-11.377778-46.933333-25.6-12.8-15.644444-9.955556-36.977778 4.266667-49.777778 17.066667-14.222222 36.977778-22.755556 58.311111-25.6 93.866667-11.377778 179.2-52.622222 244.622222-118.044445z" fill="#000000" p-id="14428"></path></svg>