<?xml version="1.0" standalone="no"?><!DOCTYPE svg PUBLIC "-//W3C//DTD SVG 1.1//EN" "http://www.w3.org/Graphics/SVG/1.1/DTD/svg11.dtd"><svg t="1687265855174" viewBox="0 0 1024 1024" version="1.1" xmlns="http://www.w3.org/2000/svg" p-id="11363" xmlns:xlink="http://www.w3.org/1999/xlink" width="200" height="200"><path d="M638.577778 113.777778H393.955556c-59.733333 0-116.622222 25.6-156.444445 71.111111-8.533333 8.533333-9.955556 21.333333-5.688889 32.711111 4.266667 11.377778 15.644444 18.488889 28.444445 18.488889 41.244444 0 75.377778 34.133333 75.377777 75.377778V384c-71.111111 8.533333-126.577778 69.688889-126.577777 143.644444V867.555556c0 24.177778 18.488889 42.666667 42.666666 42.666666h280.177778c24.177778 0 42.666667-18.488889 42.666667-42.666666V527.644444c0-73.955556-55.466667-133.688889-126.577778-143.644444v-73.955556c0-15.644444 4.266667-29.866667 12.8-42.666666 14.222222 58.311111 65.422222 100.977778 128 100.977778 8.533333 0 14.222222-5.688889 14.222222-14.222223s-5.688889-14.222222-14.222222-14.222222c-54.044444 0-98.133333-42.666667-102.4-95.288889 11.377778-7.111111 24.177778-9.955556 38.4-9.955555h112.355556c8.533333 0 14.222222-5.688889 14.222222-14.222223V128c1.422222-8.533333-5.688889-14.222222-12.8-14.222222zM420.977778 381.155556h-56.888889v-56.888889h56.888889v56.888889z m125.155555 376.888888h-130.844444V603.022222h130.844444v155.022222z m0-230.4v46.933334H402.488889c-8.533333 0-14.222222 5.688889-14.222222 14.222222v183.466667c0 8.533333 5.688889 14.222222 14.222222 14.222222h145.066667V867.555556c0 8.533333-5.688889 14.222222-14.222223 14.222222H251.733333c-8.533333 0-14.222222-5.688889-14.222222-14.222222V527.644444c0-64 52.622222-115.2 115.2-115.2h76.8c65.422222 0 116.622222 51.2 116.622222 115.2z m-125.155555-230.4h-58.311111c-7.111111-51.2-51.2-89.6-103.822223-89.6 0 0-1.422222 0-1.422222-1.422222v-1.422222c34.133333-38.4 83.911111-61.155556 136.533334-61.155556h152.177777v62.577778h-21.333333c-52.622222-1.422222-96.711111 38.4-103.822222 91.022222z m203.377778-92.444444h-48.355556V142.222222h48.355556v62.577778z m176.355555-58.311111h-81.066667c-8.533333 0-14.222222 5.688889-14.222222 14.222222s5.688889 14.222222 14.222222 14.222222h81.066667c8.533333 0 14.222222-5.688889 14.222222-14.222222s-7.111111-14.222222-14.222222-14.222222z m-71.111111 86.755555c-5.688889-5.688889-14.222222-5.688889-19.911111 0-5.688889 5.688889-5.688889 14.222222 0 19.911112l35.555555 35.555555c2.844444 2.844444 7.111111 4.266667 9.955556 4.266667 2.844444 0 7.111111-1.422222 9.955556-4.266667 5.688889-5.688889 5.688889-14.222222 0-19.911111l-35.555556-35.555556z" fill="#000000" p-id="11364"></path></svg>