<?xml version="1.0" standalone="no"?><!DOCTYPE svg PUBLIC "-//W3C//DTD SVG 1.1//EN" "http://www.w3.org/Graphics/SVG/1.1/DTD/svg11.dtd"><svg t="1687265825498" viewBox="0 0 1024 1024" version="1.1" xmlns="http://www.w3.org/2000/svg" p-id="10633" xmlns:xlink="http://www.w3.org/1999/xlink" width="200" height="200"><path d="M824.888889 422.4c-44.088889 0-81.066667 34.133333-85.333333 78.222222-62.577778 12.8-108.088889 68.266667-108.088889 132.266667v98.133333c0 82.488889-66.844444 150.755556-150.755556 150.755556-83.911111 0-150.755556-66.844444-150.755555-150.755556V521.955556c105.244444-7.111111 190.577778-95.288889 190.577777-203.377778v-98.133334c0-39.822222-31.288889-71.111111-71.111111-71.111111h-21.333333C423.822222 129.422222 403.911111 113.777778 382.577778 113.777778c-27.022222 0-49.777778 22.755556-49.777778 49.777778S355.555556 213.333333 382.577778 213.333333c22.755556 0 41.244444-15.644444 46.933333-35.555555h21.333333c24.177778 0 42.666667 18.488889 42.666667 42.666666v98.133334c0 96.711111-78.222222 176.355556-176.355555 176.355555S142.222222 415.288889 142.222222 318.577778v-98.133334c0-24.177778 18.488889-42.666667 42.666667-42.666666h17.066667c5.688889 19.911111 25.6 35.555556 46.933333 35.555555 27.022222 0 49.777778-22.755556 49.777778-49.777777S275.911111 113.777778 248.888889 113.777778c-22.755556 0-41.244444 15.644444-46.933333 35.555555H184.888889c-39.822222 0-71.111111 31.288889-71.111111 71.111111v98.133334c0 108.088889 83.911111 196.266667 190.577778 203.377778v210.488888C304.355556 830.577778 384 910.222222 482.133333 910.222222s179.2-79.644444 179.2-179.2v-98.133333c0-49.777778 34.133333-92.444444 81.066667-103.822222 9.955556 36.977778 42.666667 64 82.488889 64 46.933333 0 85.333333-38.4 85.333333-85.333334s-38.4-85.333333-85.333333-85.333333zM382.577778 184.888889c-11.377778 0-21.333333-9.955556-21.333334-21.333333S369.777778 142.222222 382.577778 142.222222s21.333333 9.955556 21.333333 21.333334-9.955556 21.333333-21.333333 21.333333z m-133.688889-42.666667c11.377778 0 21.333333 9.955556 21.333333 21.333334s-9.955556 21.333333-21.333333 21.333333-21.333333-9.955556-21.333333-21.333333 9.955556-21.333333 21.333333-21.333334zM824.888889 564.622222c-31.288889 0-56.888889-25.6-56.888889-56.888889s25.6-56.888889 56.888889-56.888889 56.888889 25.6 56.888889 56.888889-25.6 56.888889-56.888889 56.888889z" fill="#000000" p-id="10634"></path><path d="M809.244444 493.511111c-8.533333 8.533333-8.533333 21.333333 0 29.866667 8.533333 8.533333 21.333333 8.533333 29.866667 0 8.533333-8.533333 8.533333-21.333333 0-29.866667-7.111111-8.533333-21.333333-8.533333-29.866667 0z" fill="#000000" p-id="10635"></path></svg>