<?xml version="1.0" standalone="no"?><!DOCTYPE svg PUBLIC "-//W3C//DTD SVG 1.1//EN" "http://www.w3.org/Graphics/SVG/1.1/DTD/svg11.dtd"><svg t="1687265917525" viewBox="0 0 1024 1024" version="1.1" xmlns="http://www.w3.org/2000/svg" p-id="13257" xmlns:xlink="http://www.w3.org/1999/xlink" width="200" height="200"><path d="M800.042667 718.250667a625.536 625.536 0 0 1-90.638223 77.283555 624.071111 624.071111 0 0 1-89.671111-76.074666c-21.973333-22.570667-23.608889-56.348444-3.882666-80.327112l4.608-5.603555c21.888-20.024889 56.988444-19.84 78.606222 0.583111 5.404444 5.091556 13.795556 5.176889 19.313778 0.199111l1.464889-1.336889c21.930667-19.84 57.173333-19.413333 79.217777 1.550222a58.325333 58.325333 0 0 1 18.062223 41.500445 59.619556 59.619556 0 0 1-17.080889 42.225778m-91.278223-112.782223c-32.711111-22.542222-78.947556-19.896889-108.458666 7.950223a13.596444 13.596444 0 0 0-1.223111 1.322666l-5.205334 6.328889c-29.098667 35.370667-26.780444 85.091556 5.489778 118.215111a651.448889 651.448889 0 0 0 96.625778 81.564445l5.304889 3.669333a14.193778 14.193778 0 0 0 16.071111 0.085333 656.540444 656.540444 0 0 0 103.111111-86.570666 87.921778 87.921778 0 0 0 25.088-62.307556c-0.241778-23.338667-9.742222-45.226667-27.562667-62.449778-29.966222-28.501333-76.131556-31.203556-109.240889-7.808" fill="#000000" p-id="13258"></path><path d="M625.194667 502.826667a245.532444 245.532444 0 0 0-228.124445-0.042667 245.233778 245.233778 0 0 0-211.271111-7.054222c11.946667-168.504889 152.746667-301.937778 324.252445-301.937778 171.491556 0 312.32 133.489778 324.209777 302.023111a244.906667 244.906667 0 0 0-209.066666 6.997333m238.279111 16.839112c0.014222-0.256 0.156444-0.469333 0.156444-0.711112 0-189.809778-150.328889-345.102222-338.147555-353.223111V128a14.222222 14.222222 0 1 0-28.444445 0v37.660444C308.067556 172.529778 156.444444 328.305778 156.444444 518.940444c0 0.213333 0.113778 0.426667 0.142223 0.654223 0.028444 0.938667 0.312889 1.848889 0.540444 2.773333 0.241778 0.924444 0.426667 1.848889 0.824889 2.673778 0.099556 0.213333 0.085333 0.455111 0.199111 0.654222a14.179556 14.179556 0 0 0 2.417778 3.242667c0.071111 0.071111 0.170667 0.113778 0.241778 0.199111a14.435556 14.435556 0 0 0 4.977777 3.015111c1.564444 0.583111 3.157333 0.995556 4.849778 0.995555H170.666667a13.966222 13.966222 0 0 0 4.878222-0.995555c0.369778-0.128 0.725333-0.241778 1.066667-0.412445 0.284444-0.128 0.568889-0.184889 0.824888-0.312888l2.730667-1.479112c65.521778-35.456 143.601778-35.128889 210.062222 1.436445 4.266667 2.360889 9.400889 2.346667 13.667556 0.014222l2.588444-1.422222c28.444444-15.544889 59.335111-24.32 90.552889-26.339556v326.698667A51.484444 51.484444 0 0 1 445.610667 881.777778a51.498667 51.498667 0 0 1-51.441778-51.441778V768a14.222222 14.222222 0 1 0-28.444445 0v62.336A79.985778 79.985778 0 0 0 445.610667 910.222222a79.971556 79.971556 0 0 0 79.872-79.886222V503.694222a218.168889 218.168889 0 0 1 88.675555 25.472l4.266667 2.289778c4.266667 2.289778 9.486222 2.190222 13.710222-0.142222a216.888889 216.888889 0 0 1 210.403556 0.071111c0.213333 0.142222 0.469333 0.113778 0.711111 0.213333 0.824889 0.426667 1.749333 0.597333 2.673778 0.853334 0.938667 0.227556 1.820444 0.497778 2.759111 0.568888 0.256 0 0.469333 0.142222 0.725333 0.142223 0.654222 0 1.223111-0.312889 1.848889-0.398223a12.899556 12.899556 0 0 0 2.858667-0.568888c0.867556-0.312889 1.621333-0.768 2.417777-1.237334 0.768-0.455111 1.521778-0.881778 2.204445-1.493333 0.768-0.668444 1.336889-1.464889 1.934222-2.275556 0.369778-0.512 0.881778-0.853333 1.180444-1.408 0.113778-0.199111 0.099556-0.426667 0.213334-0.668444 0.426667-0.853333 0.611556-1.792 0.853333-2.730667 0.241778-0.924444 0.512-1.820444 0.568889-2.744889" fill="#000000" p-id="13259"></path></svg>