<?xml version="1.0" standalone="no"?><!DOCTYPE svg PUBLIC "-//W3C//DTD SVG 1.1//EN" "http://www.w3.org/Graphics/SVG/1.1/DTD/svg11.dtd"><svg t="1687265996114" viewBox="0 0 1024 1024" version="1.1" xmlns="http://www.w3.org/2000/svg" p-id="15887" xmlns:xlink="http://www.w3.org/1999/xlink" width="200" height="200"><path d="M783.644444 497.777778h-19.911111V139.377778c0-8.533333-5.688889-14.222222-14.222222-14.222222-79.644444 0-143.644444 64-143.644444 143.644444v147.911111c0 8.533333 5.688889 14.222222 14.222222 14.222222 21.333333 0 38.4 17.066667 38.4 38.4v28.444445h-12.8c-8.533333 0-14.222222 5.688889-14.222222 14.222222v311.466667c0 45.511111 36.977778 83.911111 83.911111 83.911111 45.511111 0 83.911111-36.977778 83.911111-83.911111V512c-1.422222-8.533333-8.533333-14.222222-15.644445-14.222222z m-125.155555 91.022222h110.933333v45.511111h-110.933333v-45.511111z m110.933333-28.444444h-110.933333V526.222222H769.422222v34.133334z m-136.533333-155.022223V270.222222c0-58.311111 44.088889-108.088889 100.977778-115.2V497.777778h-49.777778v-28.444445c1.422222-31.288889-21.333333-58.311111-51.2-64z m81.066667 472.177778c-29.866667 0-55.466667-24.177778-55.466667-55.466667V662.755556h110.933333v159.288888c0 31.288889-24.177778 55.466667-55.466666 55.466667z m-192-115.2c-15.644444 0-31.288889 5.688889-42.666667 14.222222V132.266667c0-8.533333-5.688889-14.222222-14.222222-14.222223-68.266667 0-125.155556 55.466667-125.155556 125.155556v534.755556c-11.377778-8.533333-27.022222-14.222222-42.666667-14.222223-39.822222 0-71.111111 31.288889-71.111111 71.111111s31.288889 71.111111 71.111111 71.111112 71.111111-31.288889 71.111112-71.111112V725.333333h82.488888v108.088889c0 39.822222 31.288889 71.111111 71.111112 71.111111s71.111111-31.288889 71.111111-71.111111-32.711111-71.111111-71.111111-71.111111z m-224.711112 113.777778c-24.177778 0-42.666667-18.488889-42.666666-42.666667s18.488889-42.666667 42.666666-42.666666 42.666667 18.488889 42.666667 42.666666-18.488889 42.666667-42.666667 42.666667zM450.844444 696.888889h-82.488888V241.777778c0-48.355556 35.555556-88.177778 82.488888-95.288889V696.888889z m71.111112 179.2c-24.177778 0-42.666667-18.488889-42.666667-42.666667s18.488889-42.666667 42.666667-42.666666 42.666667 18.488889 42.666666 42.666666-19.911111 42.666667-42.666666 42.666667z" fill="#000000" p-id="15888"></path></svg>