<?xml version="1.0" standalone="no"?><!DOCTYPE svg PUBLIC "-//W3C//DTD SVG 1.1//EN" "http://www.w3.org/Graphics/SVG/1.1/DTD/svg11.dtd"><svg t="1687265565709" viewBox="0 0 1024 1024" version="1.1" xmlns="http://www.w3.org/2000/svg" p-id="2619" xmlns:xlink="http://www.w3.org/1999/xlink" width="200" height="200"><path d="M654.222222 839.111111c-108.088889 68.266667-251.733333 52.622222-341.333333-38.4-96.711111-96.711111-106.666667-251.733333-24.177778-361.244444l219.022222-288.711111 219.022223 288.711111c68.266667 89.6 75.377778 210.488889 17.066666 307.2-4.266667 7.111111-1.422222 15.644444 4.266667 19.911111 7.111111 4.266667 15.644444 1.422222 19.911111-4.266667 64-106.666667 56.888889-240.355556-18.488889-339.911111L519.111111 119.466667c-5.688889-7.111111-17.066667-7.111111-22.755555 0L265.955556 422.4c-91.022222 120.888889-79.644444 291.555556 27.022222 398.222222 58.311111 58.311111 136.533333 88.177778 216.177778 88.177778 55.466667 0 112.355556-15.644444 162.133333-46.933333 7.111111-4.266667 8.533333-12.8 4.266667-19.911111-5.688889-5.688889-14.222222-7.111111-21.333334-2.844445z" fill="#000000" p-id="2620"></path><path d="M816.355556 886.044444L642.844444 712.533333c25.6-31.288889 42.666667-71.111111 42.666667-113.777777 0-98.133333-79.644444-176.355556-176.355555-176.355556-98.133333 0-176.355556 79.644444-176.355556 176.355556 0 96.711111 79.644444 176.355556 176.355556 176.355555 44.088889 0 83.911111-15.644444 113.777777-42.666667L796.444444 905.955556c2.844444 2.844444 7.111111 4.266667 9.955556 4.266666 2.844444 0 7.111111-1.422222 9.955556-4.266666 5.688889-5.688889 5.688889-14.222222 0-19.911112z m-308.622223-140.8c-81.066667 0-147.911111-66.844444-147.911111-147.911111S426.666667 449.422222 507.733333 449.422222 655.644444 516.266667 655.644444 597.333333s-66.844444 147.911111-147.911111 147.911111z" fill="#000000" p-id="2621"></path></svg>