<?xml version="1.0" standalone="no"?><!DOCTYPE svg PUBLIC "-//W3C//DTD SVG 1.1//EN" "http://www.w3.org/Graphics/SVG/1.1/DTD/svg11.dtd"><svg t="1687266000575" viewBox="0 0 1024 1024" version="1.1" xmlns="http://www.w3.org/2000/svg" p-id="16032" xmlns:xlink="http://www.w3.org/1999/xlink" width="200" height="200"><path d="M204.572444 801.991111a25.386667 25.386667 0 1 0-0.014222 50.773333 25.386667 25.386667 0 0 0 0-50.773333M256 705.550222a25.386667 25.386667 0 1 0 0 50.773334 25.386667 25.386667 0 0 0 0-50.773334m79.872 83.825778a25.386667 25.386667 0 1 0 0 50.773333 25.386667 25.386667 0 0 0 0-50.773333M440.504889 556.117333l71.281778-139.889777 71.281777 139.904a79.786667 79.786667 0 0 1-14.705777 92.871111 80.071111 80.071111 0 0 1-113.152 0 79.786667 79.786667 0 0 1-14.705778-92.871111m71.281778 144.711111a108.088889 108.088889 0 0 0 76.686222-31.715556 108.145778 108.145778 0 0 0 19.939555-125.923555l-82.403555-161.706667V128a14.222222 14.222222 0 0 0-28.444445 0v253.496889l-82.403555 161.706667a108.174222 108.174222 0 0 0 19.939555 125.923555 108.074667 108.074667 0 0 0 76.686223 31.715556" fill="#000000" p-id="16033"></path><path d="M142.222222 881.777778V678.812444a249.059556 249.059556 0 0 1 205.624889 2.659556 178.247111 178.247111 0 0 0 163.939556 107.889778 177.934222 177.934222 0 0 0 126.179555-52.195556 178.773333 178.773333 0 0 0 38.272-56.817778A249.173333 249.173333 0 0 1 881.777778 679.850667V881.777778H142.222222z m99.555556-355.555556h112.896l-1.905778 3.740445a178.048 178.048 0 0 0-15.928889 116.152889A277.276444 277.276444 0 0 0 142.222222 647.921778V625.777778c0-54.883556 44.657778-99.555556 99.555556-99.555556z m640 99.555556v23.182222a277.546667 277.546667 0 0 0-194.887111-3.768889 178.062222 178.062222 0 0 0-16.099556-115.228444L668.885333 526.222222H782.222222c54.897778 0 99.555556 44.672 99.555556 99.555556z m-99.555556-128h-136.547555c-0.170667 0-0.312889 0.085333-0.469334 0.099555-0.938667 0.028444-1.834667 0.327111-2.773333 0.554667-0.938667 0.241778-1.891556 0.369778-2.744889 0.768-0.156444 0.071111-0.327111 0.056889-0.469333 0.128-0.625778 0.312889-1.009778 0.853333-1.564445 1.223111-0.839111 0.597333-1.692444 1.137778-2.389333 1.905778-0.611556 0.682667-1.038222 1.464889-1.507556 2.232889-0.483556 0.782222-0.981333 1.507556-1.308444 2.360889-0.355556 0.967111-0.455111 1.962667-0.597333 2.972444-0.099556 0.668444-0.398222 1.28-0.398223 1.976889 0 0.170667 0.085333 0.298667 0.099556 0.483556 0.028444 0.952889 0.341333 1.848889 0.554667 2.787555 0.227556 0.924444 0.369778 1.863111 0.768 2.702222 0.056889 0.170667 0.042667 0.327111 0.128 0.483556l12.444444 24.419555a149.617778 149.617778 0 0 1-27.591111 174.179556c-58.496 58.496-153.656889 58.496-212.152889 0a149.632 149.632 0 0 1-27.591111-174.179556l12.444444-24.419555c0.085333-0.156444 0.071111-0.312889 0.142223-0.483556 0.398222-0.839111 0.526222-1.777778 0.753777-2.702222 0.227556-0.938667 0.526222-1.834667 0.554667-2.787555 0.014222-0.184889 0.099556-0.312889 0.099556-0.483556 0-0.696889-0.298667-1.308444-0.398223-1.976889-0.142222-1.009778-0.241778-2.005333-0.597333-2.972444-0.312889-0.853333-0.824889-1.578667-1.308444-2.360889-0.469333-0.768-0.881778-1.550222-1.507556-2.232889-0.696889-0.768-1.550222-1.308444-2.403555-1.905778-0.540444-0.369778-0.938667-0.910222-1.550223-1.223111-0.142222-0.071111-0.312889-0.056889-0.455111-0.128-0.867556-0.398222-1.806222-0.526222-2.759111-0.768-0.924444-0.227556-1.834667-0.526222-2.759111-0.554667-0.170667-0.014222-0.312889-0.099556-0.483556-0.099555H241.777778c-70.570667 0-128 57.415111-128 128v270.222222a14.222222 14.222222 0 0 0 14.222222 14.222222h768a14.222222 14.222222 0 0 0 14.222222-14.222222V625.777778c0-70.584889-57.429333-128-128-128z" fill="#000000" p-id="16034"></path><path d="M816.782222 801.991111a25.372444 25.372444 0 1 0 0 50.773333 25.372444 25.372444 0 0 0 0-50.773333m-51.441778-96.455111a25.386667 25.386667 0 1 0 0 50.773333 25.386667 25.386667 0 0 0 0-50.773333m-79.872 83.825778a25.386667 25.386667 0 1 0 0 50.773333 25.386667 25.386667 0 0 0 0-50.773333" fill="#000000" p-id="16035"></path></svg>