<?xml version="1.0" standalone="no"?><!DOCTYPE svg PUBLIC "-//W3C//DTD SVG 1.1//EN" "http://www.w3.org/Graphics/SVG/1.1/DTD/svg11.dtd"><svg t="1687265903189" viewBox="0 0 1024 1024" version="1.1" xmlns="http://www.w3.org/2000/svg" p-id="12822" xmlns:xlink="http://www.w3.org/1999/xlink" width="200" height="200"><path d="M907.377778 843.377778c-5.688889-5.688889-14.222222-5.688889-19.911111 0l-11.377778 11.377778-223.288889-221.866667c28.444444-32.711111 44.088889-73.955556 44.088889-118.044445 0-48.355556-18.488889-95.288889-54.044445-129.422222l-184.888888-184.888889 7.111111-7.111111c18.488889-18.488889 18.488889-48.355556 0-66.844444a47.217778 47.217778 0 0 0-66.844445 0L126.577778 398.222222a47.217778 47.217778 0 0 0 0 66.844445c9.955556 9.955556 21.333333 14.222222 34.133333 14.222222 12.8 0 24.177778-4.266667 34.133333-14.222222l7.111112-7.111111 184.888888 184.888888c35.555556 35.555556 82.488889 54.044444 129.422223 54.044445 42.666667 0 83.911111-14.222222 118.044444-44.088889l221.866667 221.866667-11.377778 11.377777c-5.688889 5.688889-5.688889 14.222222 0 19.911112 2.844444 2.844444 7.111111 4.266667 9.955556 4.266666 2.844444 0 7.111111-1.422222 9.955555-4.266666l21.333333-21.333334 21.333334-22.755555c5.688889-4.266667 5.688889-12.8 0-18.488889zM146.488889 446.577778c-7.111111-7.111111-7.111111-19.911111 0-27.022222l273.066667-273.066667c4.266667-4.266667 8.533333-5.688889 14.222222-5.688889s9.955556 1.422222 14.222222 5.688889c7.111111 7.111111 7.111111 19.911111 0 27.022222l-17.066667 17.066667-119.466666 119.466666-136.533334 136.533334c-8.533333 7.111111-21.333333 7.111111-28.444444 0z m159.288889-92.444445l133.688889-133.688889 136.533333 136.533334-219.022222 219.022222-136.533334-136.533333 85.333334-85.333334z m99.555555 268.8l-27.022222-27.022222 217.6-217.6 27.022222 27.022222c28.444444 28.444444 45.511111 68.266667 45.511111 109.511111 0 41.244444-15.644444 79.644444-45.511111 109.511112-59.733333 59.733333-157.866667 59.733333-217.6-1.422223z" fill="#000000" p-id="12823"></path></svg>