<?xml version="1.0" standalone="no"?><!DOCTYPE svg PUBLIC "-//W3C//DTD SVG 1.1//EN" "http://www.w3.org/Graphics/SVG/1.1/DTD/svg11.dtd"><svg t="1687265980699" viewBox="0 0 1024 1024" version="1.1" xmlns="http://www.w3.org/2000/svg" p-id="15301" xmlns:xlink="http://www.w3.org/1999/xlink" width="200" height="200"><path d="M843.377778 667.022222c-54.044444 28.444444-113.777778 44.088889-174.933334 44.088889-203.377778 0-369.777778-166.4-369.777777-369.777778 0-61.155556 15.644444-120.888889 44.088889-174.933333 2.844444-5.688889 1.422222-12.8-2.844445-17.066667-4.266667-4.266667-11.377778-5.688889-17.066667-2.844444C193.422222 216.177778 112.355556 351.288889 112.355556 497.777778c0 219.022222 179.2 398.222222 398.222222 398.222222 146.488889 0 281.6-81.066667 351.288889-210.488889 2.844444-5.688889 1.422222-12.8-2.844445-17.066667-4.266667-4.266667-9.955556-4.266667-15.644444-1.422222zM510.577778 867.555556c-203.377778 0-369.777778-166.4-369.777778-369.777778 0-120.888889 58.311111-233.244444 155.022222-301.511111C278.755556 241.777778 270.222222 291.555556 270.222222 341.333333c0 219.022222 179.2 398.222222 398.222222 398.222223 49.777778 0 98.133333-9.955556 145.066667-27.022223C743.822222 809.244444 631.466667 867.555556 510.577778 867.555556z m152.177778-711.111112h36.977777l-46.933333 46.933334c-4.266667 4.266667-5.688889 9.955556-2.844444 15.644444 2.844444 5.688889 7.111111 8.533333 12.8 8.533334h71.111111c8.533333 0 14.222222-5.688889 14.222222-14.222223s-5.688889-14.222222-14.222222-14.222222H696.888889l46.933333-46.933333c4.266667-4.266667 5.688889-9.955556 2.844445-15.644445-2.844444-5.688889-7.111111-8.533333-12.8-8.533333h-71.111111c-8.533333 0-14.222222 5.688889-14.222223 14.222222s7.111111 14.222222 14.222223 14.222222z m234.666666 265.955556h-93.866666l103.822222-103.822222c4.266667-4.266667 5.688889-9.955556 2.844444-15.644445-2.844444-5.688889-7.111111-8.533333-12.8-8.533333h-128c-8.533333 0-14.222222 5.688889-14.222222 14.222222s5.688889 14.222222 14.222222 14.222222h93.866667L759.466667 426.666667c-4.266667 4.266667-5.688889 9.955556-2.844445 15.644444 2.844444 5.688889 7.111111 8.533333 12.8 8.533333h128c8.533333 0 14.222222-5.688889 14.222222-14.222222s-7.111111-14.222222-14.222222-14.222222z" fill="#000000" p-id="15302"></path><path d="M536.177778 401.066667h51.2L526.222222 462.222222c-4.266667 4.266667-5.688889 9.955556-2.844444 15.644445 2.844444 5.688889 7.111111 8.533333 12.8 8.533333h85.333333c8.533333 0 14.222222-5.688889 14.222222-14.222222s-5.688889-14.222222-14.222222-14.222222h-51.2l61.155556-61.155556c4.266667-4.266667 5.688889-9.955556 2.844444-15.644444-2.844444-5.688889-7.111111-8.533333-12.8-8.533334h-85.333333c-8.533333 0-14.222222 5.688889-14.222222 14.222222s7.111111 14.222222 14.222222 14.222223z" fill="#000000" p-id="15303"></path></svg>