<?xml version="1.0" standalone="no"?><!DOCTYPE svg PUBLIC "-//W3C//DTD SVG 1.1//EN" "http://www.w3.org/Graphics/SVG/1.1/DTD/svg11.dtd"><svg t="1687265880947" viewBox="0 0 1024 1024" version="1.1" xmlns="http://www.w3.org/2000/svg" p-id="12239" xmlns:xlink="http://www.w3.org/1999/xlink" width="200" height="200"><path d="M857.6 496.355556c31.288889-18.488889 52.622222-51.2 52.622222-91.022223 0-58.311111-46.933333-105.244444-105.244444-105.244444h-170.666667c-59.733333 0-108.088889-48.355556-108.088889-108.088889 0-44.088889-36.977778-81.066667-81.066666-81.066667s-81.066667 36.977778-81.066667 81.066667c0 72.533333 24.177778 140.8 68.266667 197.688889h-213.333334c-58.311111 0-105.244444 46.933333-105.244444 105.244444 0 38.4 21.333333 72.533333 52.622222 91.022223C135.111111 605.866667 113.777778 638.577778 113.777778 676.977778c0 58.311111 46.933333 105.244444 105.244444 105.244444h228.977778c28.444444 0 49.777778 22.755556 49.777778 49.777778 0 42.666667 34.133333 78.222222 78.222222 78.222222s78.222222-34.133333 78.222222-78.222222c0-45.511111-14.222222-88.177778-39.822222-126.577778l-9.955556-14.222222h201.955556c58.311111 0 105.244444-46.933333 105.244444-105.244444-1.422222-36.977778-22.755556-71.111111-54.044444-89.6z m-52.622222 166.4H327.111111c-8.533333 0-14.222222 5.688889-14.222222 14.222222s5.688889 14.222222 14.222222 14.222222h241.777778l21.333333 31.288889c22.755556 32.711111 34.133333 69.688889 34.133334 109.511111 0 27.022222-21.333333 49.777778-49.777778 49.777778S526.222222 860.444444 526.222222 832c0-44.088889-35.555556-78.222222-78.222222-78.222222H219.022222c-42.666667 0-76.8-34.133333-76.8-76.8 0-42.666667 34.133333-76.8 76.8-76.8H696.888889c8.533333 0 14.222222-5.688889 14.222222-14.222222s-5.688889-14.222222-14.222222-14.222223H217.6c-42.666667 0-76.8-34.133333-76.8-76.8 0-42.666667 34.133333-76.8 76.8-76.8H696.888889c8.533333 0 14.222222-5.688889 14.222222-14.222222s-5.688889-14.222222-14.222222-14.222222H469.333333c-49.777778-54.044444-76.8-123.733333-76.8-197.688889 0-28.444444 24.177778-52.622222 52.622223-52.622222s52.622222 24.177778 52.622222 52.622222c0 75.377778 61.155556 136.533333 136.533333 136.533333h172.088889c42.666667 0 76.8 34.133333 76.8 76.8 0 42.666667-34.133333 76.8-76.8 76.8H327.111111c-8.533333 0-14.222222 5.688889-14.222222 14.222223s5.688889 14.222222 14.222222 14.222222h477.866667c42.666667 0 76.8 34.133333 76.8 76.8 0 42.666667-34.133333 75.377778-76.8 75.377778z" fill="#000000" p-id="12240"></path></svg>