<?xml version="1.0" standalone="no"?><!DOCTYPE svg PUBLIC "-//W3C//DTD SVG 1.1//EN" "http://www.w3.org/Graphics/SVG/1.1/DTD/svg11.dtd"><svg t="1687265976739" viewBox="0 0 1024 1024" version="1.1" xmlns="http://www.w3.org/2000/svg" p-id="15155" xmlns:xlink="http://www.w3.org/1999/xlink" width="200" height="200"><path d="M512 116.622222C322.844444 116.622222 167.822222 270.222222 167.822222 460.8v228.977778c0 8.533333 5.688889 14.222222 14.222222 14.222222h27.022223c35.555556 0 65.422222 29.866667 65.422222 65.422222v88.177778c0 27.022222 22.755556 49.777778 49.777778 49.777778h374.044444c27.022222 0 49.777778-22.755556 49.777778-49.777778v-88.177778c0-35.555556 29.866667-65.422222 65.422222-65.422222h27.022222c8.533333 0 14.222222-5.688889 14.222223-14.222222V460.8C856.177778 271.644444 701.155556 116.622222 512 116.622222z m315.733333 558.933334h-12.8c-51.2 0-93.866667 42.666667-93.866666 93.866666v88.177778c0 11.377778-9.955556 21.333333-21.333334 21.333333h-62.577777v-132.266666c0-8.533333-5.688889-14.222222-14.222223-14.222223s-14.222222 5.688889-14.222222 14.222223v132.266666H526.222222v-132.266666c0-8.533333-5.688889-14.222222-14.222222-14.222223s-14.222222 5.688889-14.222222 14.222223v132.266666h-82.488889v-132.266666c0-8.533333-5.688889-14.222222-14.222222-14.222223s-14.222222 5.688889-14.222223 14.222223v132.266666h-62.577777c-11.377778 0-21.333333-9.955556-21.333334-21.333333v-88.177778c0-51.2-42.666667-93.866667-93.866666-93.866666h-12.8V460.8c0-17.066667 1.422222-32.711111 4.266666-48.355556 55.466667 0 102.4-45.511111 102.4-102.4 0-8.533333-5.688889-14.222222-14.222222-14.222222s-14.222222 5.688889-14.222222 14.222222c0 38.4-29.866667 69.688889-66.844445 72.533334 34.133333-136.533333 157.866667-237.511111 305.777778-237.511111 146.488889 0 271.644444 100.977778 305.777778 237.511111-34.133333-5.688889-61.155556-35.555556-61.155556-72.533334 0-8.533333-5.688889-14.222222-14.222222-14.222222s-14.222222 5.688889-14.222222 14.222222c0 54.044444 42.666667 98.133333 95.288889 102.4 2.844444 15.644444 4.266667 31.288889 4.266667 48.355556v214.755556h-1.422223z" fill="#000000" p-id="15156"></path><path d="M388.266667 446.577778c-36.977778 0-66.844444 29.866667-66.844445 66.844444s29.866667 66.844444 66.844445 66.844445 66.844444-29.866667 66.844444-66.844445-31.288889-66.844444-66.844444-66.844444z m0 105.244444c-21.333333 0-38.4-17.066667-38.4-38.4 0-21.333333 17.066667-38.4 38.4-38.4 21.333333 0 38.4 17.066667 38.4 38.4 0 21.333333-18.488889 38.4-38.4 38.4z m247.466666-105.244444c-36.977778 0-66.844444 29.866667-66.844444 66.844444s29.866667 66.844444 66.844444 66.844445 66.844444-29.866667 66.844445-66.844445-29.866667-66.844444-66.844445-66.844444z m0 105.244444c-21.333333 0-38.4-17.066667-38.4-38.4 0-21.333333 17.066667-38.4 38.4-38.4 21.333333 0 38.4 17.066667 38.4 38.4 0 21.333333-17.066667 38.4-38.4 38.4z m-113.777777 48.355556c-5.688889-4.266667-12.8-4.266667-18.488889 0l-41.244445 35.555555c-5.688889 5.688889-7.111111 14.222222-1.422222 19.911111 5.688889 5.688889 14.222222 7.111111 19.911111 1.422223l32.711111-27.022223 32.711111 27.022223c2.844444 2.844444 5.688889 2.844444 9.955556 2.844444 4.266667 0 8.533333-1.422222 11.377778-4.266667 5.688889-5.688889 4.266667-14.222222-1.422223-19.911111l-44.088888-35.555555z" fill="#000000" p-id="15157"></path></svg>