<?xml version="1.0" standalone="no"?><!DOCTYPE svg PUBLIC "-//W3C//DTD SVG 1.1//EN" "http://www.w3.org/Graphics/SVG/1.1/DTD/svg11.dtd"><svg t="1687265945866" viewBox="0 0 1024 1024" version="1.1" xmlns="http://www.w3.org/2000/svg" p-id="14135" xmlns:xlink="http://www.w3.org/1999/xlink" width="200" height="200"><path d="M883.2 790.755556l-66.844444-66.844445c-39.822222-39.822222-71.111111-86.755556-92.444445-139.377778l-1.422222-4.266666c-22.755556-56.888889-56.888889-106.666667-99.555556-149.333334L355.555556 163.555556c-54.044444-54.044444-140.8-54.044444-193.422223 0-54.044444 54.044444-54.044444 140.8 0 193.422222l263.111111 263.111111c45.511111 45.511111 98.133333 79.644444 157.866667 102.4 55.466667 21.333333 105.244444 54.044444 147.911111 96.711111l12.8 12.8 48.355556 48.355556c12.8 12.8 28.444444 18.488889 45.511111 18.488888 17.066667 0 32.711111-5.688889 45.511111-18.488888 12.8-12.8 18.488889-28.444444 18.488889-45.511112 0-15.644444-5.688889-32.711111-18.488889-44.088888zM593.066667 696.888889c-55.466667-21.333333-105.244444-54.044444-147.911111-96.711111L182.044444 338.488889c-42.666667-42.666667-42.666667-110.933333 0-153.6 21.333333-21.333333 49.777778-31.288889 76.8-31.288889 28.444444 0 55.466667 9.955556 76.8 31.288889l265.955556 265.955555c39.822222 39.822222 71.111111 86.755556 92.444444 139.377778l1.422223 4.266667c22.755556 56.888889 56.888889 106.666667 99.555555 149.333333l8.533334 8.533334-49.777778 49.777777-2.844445-2.844444c-44.088889-44.088889-98.133333-79.644444-157.866666-102.4z m270.222222 164.977778c-14.222222 14.222222-36.977778 14.222222-51.2 0l-38.4-38.4 51.2-51.2 38.4 38.4c7.111111 7.111111 9.955556 15.644444 9.955555 25.6s-2.844444 18.488889-9.955555 25.6z" fill="#000000" p-id="14136"></path><path d="M428.088889 339.911111c-12.8-12.8-28.444444-18.488889-45.511111-18.488889-17.066667 0-32.711111 7.111111-45.511111 18.488889-12.8 12.8-18.488889 28.444444-18.488889 45.511111 0 17.066667 7.111111 32.711111 18.488889 45.511111l156.444444 156.444445c12.8 12.8 28.444444 18.488889 45.511111 18.488889 17.066667 0 32.711111-5.688889 45.511111-18.488889 25.6-25.6 25.6-65.422222 0-91.022222l-156.444444-156.444445z m136.533333 226.133333c-14.222222 14.222222-36.977778 14.222222-51.2 0l-156.444444-156.444444c-7.111111-7.111111-9.955556-15.644444-9.955556-25.6s4.266667-18.488889 9.955556-25.6c7.111111-7.111111 15.644444-9.955556 25.6-9.955556s18.488889 4.266667 25.6 9.955556l156.444444 156.444444c14.222222 15.644444 14.222222 38.4 0 51.2zM312.888889 230.4c-22.755556-22.755556-58.311111-22.755556-81.066667 0-22.755556 22.755556-22.755556 58.311111 0 81.066667 11.377778 11.377778 25.6 17.066667 39.822222 17.066666 14.222222 0 29.866667-5.688889 39.822223-17.066666 22.755556-22.755556 22.755556-59.733333 1.422222-81.066667z m-21.333333 59.733333c-11.377778 11.377778-29.866667 11.377778-39.822223 0-11.377778-11.377778-11.377778-28.444444 0-39.822222 5.688889-5.688889 12.8-8.533333 19.911111-8.533333 7.111111 0 14.222222 2.844444 19.911112 8.533333 11.377778 11.377778 11.377778 28.444444 0 39.822222z" fill="#000000" p-id="14137"></path></svg>