<?xml version="1.0" standalone="no"?><!DOCTYPE svg PUBLIC "-//W3C//DTD SVG 1.1//EN" "http://www.w3.org/Graphics/SVG/1.1/DTD/svg11.dtd"><svg t="1687265984629" viewBox="0 0 1024 1024" version="1.1" xmlns="http://www.w3.org/2000/svg" p-id="15447" xmlns:xlink="http://www.w3.org/1999/xlink" width="200" height="200"><path d="M512 426.666667m-35.555556 0a35.555556 35.555556 0 1 0 71.111112 0 35.555556 35.555556 0 1 0-71.111112 0Z" fill="#000000" p-id="15448"></path><path d="M440.888889 570.311111m-35.555556 0a35.555556 35.555556 0 1 0 71.111111 0 35.555556 35.555556 0 1 0-71.111111 0Z" fill="#000000" p-id="15449"></path><path d="M583.111111 570.311111m-35.555555 0a35.555556 35.555556 0 1 0 71.111111 0 35.555556 35.555556 0 1 0-71.111111 0Z" fill="#000000" p-id="15450"></path><path d="M896 462.222222c-8.533333 0-14.222222 5.688889-14.222222 14.222222V497.777778h-100.977778c-2.844444-64-28.444444-122.311111-68.266667-166.4l71.111111-71.111111 15.644445 15.644444c2.844444 2.844444 7.111111 4.266667 9.955555 4.266667 2.844444 0 7.111111-1.422222 9.955556-4.266667 5.688889-5.688889 5.688889-14.222222 0-19.911111L768 204.8c-5.688889-5.688889-14.222222-5.688889-19.911111 0-5.688889 5.688889-5.688889 14.222222 0 19.911111l15.644444 15.644445-71.111111 71.111111c-44.088889-39.822222-102.4-65.422222-166.4-68.266667V142.222222h21.333334c8.533333 0 14.222222-5.688889 14.222222-14.222222s-5.688889-14.222222-14.222222-14.222222h-71.111112c-8.533333 0-14.222222 5.688889-14.222222 14.222222s5.688889 14.222222 14.222222 14.222222H497.777778v100.977778c-64 2.844444-122.311111 28.444444-166.4 68.266667l-71.111111-71.111111 15.644444-15.644445c5.688889-5.688889 5.688889-14.222222 0-19.911111-5.688889-5.688889-14.222222-5.688889-19.911111 0L204.8 256c-5.688889 5.688889-5.688889 14.222222 0 19.911111 2.844444 2.844444 7.111111 4.266667 9.955556 4.266667 2.844444 0 7.111111-1.422222 9.955555-4.266667l15.644445-15.644444 71.111111 71.111111c-39.822222 44.088889-65.422222 102.4-68.266667 166.4H142.222222v-21.333334c0-8.533333-5.688889-14.222222-14.222222-14.222222s-14.222222 5.688889-14.222222 14.222222v71.111112c0 8.533333 5.688889 14.222222 14.222222 14.222222s14.222222-5.688889 14.222222-14.222222V526.222222h100.977778c2.844444 64 28.444444 122.311111 68.266667 166.4l-71.111111 71.111111-15.644445-15.644444c-5.688889-5.688889-14.222222-5.688889-19.911111 0-5.688889 5.688889-5.688889 14.222222 0 19.911111l49.777778 49.777778c2.844444 2.844444 7.111111 4.266667 9.955555 4.266666 2.844444 0 7.111111-1.422222 9.955556-4.266666 5.688889-5.688889 5.688889-14.222222 0-19.911111L258.844444 782.222222l71.111112-71.111111c44.088889 39.822222 102.4 65.422222 166.4 68.266667V881.777778h-21.333334c-8.533333 0-14.222222 5.688889-14.222222 14.222222s5.688889 14.222222 14.222222 14.222222h71.111111c8.533333 0 14.222222-5.688889 14.222223-14.222222s-5.688889-14.222222-14.222223-14.222222H526.222222v-100.977778c64-2.844444 122.311111-28.444444 166.4-68.266667l71.111111 71.111111-15.644444 15.644445c-5.688889 5.688889-5.688889 14.222222 0 19.911111 2.844444 2.844444 7.111111 4.266667 9.955555 4.266667 2.844444 0 7.111111-1.422222 9.955556-4.266667l49.777778-49.777778c5.688889-5.688889 5.688889-14.222222 0-19.911111-5.688889-5.688889-14.222222-5.688889-19.911111 0L782.222222 765.155556l-71.111111-71.111112c39.822222-44.088889 65.422222-102.4 68.266667-166.4H881.777778v21.333334c0 8.533333 5.688889 14.222222 14.222222 14.222222s14.222222-5.688889 14.222222-14.222222v-71.111111c0-9.955556-5.688889-15.644444-14.222222-15.644445zM512 753.777778c-133.688889 0-241.777778-108.088889-241.777778-241.777778s108.088889-241.777778 241.777778-241.777778 241.777778 108.088889 241.777778 241.777778-108.088889 241.777778-241.777778 241.777778z" fill="#000000" p-id="15451"></path></svg>