<?xml version="1.0" standalone="no"?><!DOCTYPE svg PUBLIC "-//W3C//DTD SVG 1.1//EN" "http://www.w3.org/Graphics/SVG/1.1/DTD/svg11.dtd"><svg t="1687266012160" viewBox="0 0 1024 1024" version="1.1" xmlns="http://www.w3.org/2000/svg" p-id="16470" xmlns:xlink="http://www.w3.org/1999/xlink" width="200" height="200"><path d="M905.955556 886.044444l-58.311112-58.311111 28.444445-28.444444c5.688889-5.688889 5.688889-14.222222 0-19.911111l-83.911111-83.911111c-1.422222-1.422222-2.844444-1.422222-2.844445-2.844445 4.266667-14.222222 5.688889-28.444444 5.688889-44.088889-1.422222-39.822222-18.488889-76.8-46.933333-106.666666L455.111111 251.733333l78.222222-78.222222c5.688889-5.688889 5.688889-14.222222 0-19.911111-5.688889-5.688889-14.222222-5.688889-19.911111 0l-78.222222 78.222222-51.2-51.2 42.666667-42.666666c5.688889-5.688889 5.688889-14.222222 0-19.911112-5.688889-5.688889-14.222222-5.688889-19.911111 0L118.044444 408.177778c-5.688889 5.688889-5.688889 14.222222 0 19.911111 2.844444 2.844444 5.688889 4.266667 9.955556 4.266667 4.266667 0 7.111111-1.422222 9.955556-4.266667l42.666666-42.666667 51.2 51.2-78.222222 78.222222c-5.688889 5.688889-5.688889 14.222222 0 19.911112 2.844444 2.844444 5.688889 4.266667 9.955556 4.266666 4.266667 0 7.111111-1.422222 9.955555-4.266666l78.222222-78.222223 291.555556 291.555556c31.288889 31.288889 72.533333 46.933333 112.355555 46.933333 12.8 0 25.6-1.422222 38.4-5.688889 0 1.422222 1.422222 2.844444 2.844445 4.266667l83.911111 83.911111c2.844444 2.844444 5.688889 4.266667 9.955556 4.266667 4.266667 0 7.111111-1.422222 9.955555-4.266667l28.444445-28.444444 58.311111 58.311111c2.844444 2.844444 5.688889 4.266667 9.955555 4.266666 4.266667 0 7.111111-1.422222 9.955556-4.266666 4.266667-7.111111 4.266667-15.644444-1.422222-21.333334zM200.533333 365.511111l164.977778-164.977778 51.2 51.2-164.977778 164.977778-51.2-51.2z m361.244445 361.244445L270.222222 435.2 435.2 270.222222l69.688889 69.688889-55.466667 55.466667c-5.688889 5.688889-5.688889 14.222222 0 19.911111 2.844444 2.844444 5.688889 4.266667 9.955556 4.266667 4.266667 0 7.111111-1.422222 9.955555-4.266667l55.466667-55.466667 71.111111 71.111111-55.466667 54.044445c-5.688889 5.688889-5.688889 14.222222 0 19.911111 2.844444 2.844444 5.688889 4.266667 9.955556 4.266667 4.266667 0 7.111111-1.422222 9.955556-4.266667l55.466666-55.466667 71.111111 71.111111-55.466666 55.466667c-5.688889 5.688889-5.688889 14.222222 0 19.911111 2.844444 2.844444 5.688889 4.266667 9.955555 4.266667 4.266667 0 7.111111-1.422222 9.955556-4.266667l55.466666-55.466667 22.755556 22.755556c24.177778 24.177778 38.4 55.466667 39.822222 88.177778 1.422222 32.711111-9.955556 62.577778-32.711111 83.911111-48.355556 44.088889-125.155556 41.244444-174.933333-8.533333z m227.555555 120.888888l-69.688889-69.688888c11.377778-5.688889 22.755556-14.222222 32.711112-24.177778 9.955556-9.955556 18.488889-21.333333 24.177777-32.711111l69.688889 69.688889-56.888889 56.888888z" fill="#000000" p-id="16471"></path></svg>