<?xml version="1.0" standalone="no"?><!DOCTYPE svg PUBLIC "-//W3C//DTD SVG 1.1//EN" "http://www.w3.org/Graphics/SVG/1.1/DTD/svg11.dtd"><svg t="1687265830272" viewBox="0 0 1024 1024" version="1.1" xmlns="http://www.w3.org/2000/svg" p-id="10779" xmlns:xlink="http://www.w3.org/1999/xlink" width="200" height="200"><path d="M904.533333 681.244444l-91.022222-91.022222c27.022222-32.711111 44.088889-73.955556 44.088889-119.466666 0-59.733333-28.444444-112.355556-72.533333-146.488889v-4.266667c-7.111111-44.088889-28.444444-83.911111-61.155556-115.2l-1.422222-1.422222c-73.955556-69.688889-194.844444-73.955556-271.644445-8.533334-78.222222-64-196.266667-61.155556-270.222222 8.533334l-1.422222 1.422222-14.222222 17.066667c-69.688889 83.911111-64 201.955556 12.8 281.6l12.8 12.8c-9.955556 39.822222-49.777778 226.133333 9.955555 334.222222 8.533333 15.644444 27.022222 25.6 45.511111 25.6 24.177778 0 45.511111-17.066667 51.2-39.822222 27.022222-110.933333 55.466667-146.488889 75.377778-157.866667 48.355556-27.022222 108.088889-27.022222 156.444445 0l1.422222 1.422222c18.488889 11.377778 46.933333 48.355556 73.955555 157.866667 5.688889 22.755556 27.022222 39.822222 49.777778 39.822222 19.911111 0 36.977778-9.955556 46.933334-27.022222 27.022222-48.355556 36.977778-116.622222 29.866666-204.8 22.755556-7.111111 42.666667-19.911111 61.155556-34.133333l91.022222 91.022222c2.844444 2.844444 7.111111 4.266667 9.955556 4.266666 2.844444 0 7.111111-1.422222 9.955555-4.266666 5.688889-7.111111 5.688889-15.644444 1.422222-21.333334z m-227.555555 155.022223c-4.266667 7.111111-12.8 11.377778-21.333334 11.377777-11.377778 0-19.911111-7.111111-22.755555-18.488888-24.177778-96.711111-52.622222-153.6-86.755556-174.933334l-1.422222-1.422222c-56.888889-32.711111-128-32.711111-184.888889 0-35.555556 19.911111-64 76.8-88.177778 176.355556-2.844444 11.377778-12.8 18.488889-24.177777 18.488888-8.533333 0-17.066667-4.266667-21.333334-11.377777-61.155556-108.088889-7.111111-317.155556-5.688889-320 1.422222-2.844444 0-5.688889 0-8.533334 0-2.844444-1.422222-4.266667-4.266666-7.111111l-18.488889-18.488889c-66.844444-68.266667-71.111111-170.666667-11.377778-243.2l12.8-15.644444c66.844444-62.577778 174.933333-62.577778 240.355556 0 5.688889 5.688889 14.222222 5.688889 19.911111 0l4.266666-2.844445c66.844444-59.733333 173.511111-59.733333 238.933334 2.844445l1.422222 1.422222c22.755556 21.333333 38.4 48.355556 46.933333 78.222222-24.177778-11.377778-51.2-18.488889-78.222222-18.488889-102.4 0-184.888889 82.488889-184.888889 184.888889s82.488889 184.888889 184.888889 184.888889c9.955556 0 21.333333-1.422222 31.288889-2.844444 5.688889 79.644444-4.266667 142.222222-27.022222 184.888889zM672.711111 625.777778c-85.333333 0-156.444444-69.688889-156.444444-156.444445s69.688889-156.444444 156.444444-156.444444 156.444444 69.688889 156.444445 156.444444-69.688889 156.444444-156.444445 156.444445z" fill="#000000" p-id="10780"></path></svg>