<?xml version="1.0" standalone="no"?><!DOCTYPE svg PUBLIC "-//W3C//DTD SVG 1.1//EN" "http://www.w3.org/Graphics/SVG/1.1/DTD/svg11.dtd"><svg t="1687265967312" viewBox="0 0 1024 1024" version="1.1" xmlns="http://www.w3.org/2000/svg" p-id="14864" xmlns:xlink="http://www.w3.org/1999/xlink" width="200" height="200"><path d="M758.314667 868.664889c-4.622222 8.192-13.852444 13.297778-24.106667 13.297778-12.942222 0-24.149333-8.817778-27.278222-21.418667-26.737778-107.804444-58.368-170.766222-96.682667-192.469333a204.202667 204.202667 0 0 0-100.864-26.737778 204.145778 204.145778 0 0 0-100.835555 26.737778c-38.300444 21.688889-69.944889 84.664889-96.711112 192.469333a28.117333 28.117333 0 0 1-27.264 21.418667c-10.254222 0-19.484444-5.105778-24.106666-13.297778-67.342222-119.637333-7.338667-350.520889-6.727111-352.853333 0.654222-2.488889 0.227556-6.485333-0.483556-8.96a14.151111 14.151111 0 0 0-3.640889-6.115556c-6.641778-6.613333-13.226667-13.269333-19.768889-19.968-73.614222-75.605333-78.990222-188.899556-12.8-269.425778l14.549334-17.692444c73.756444-68.977778 193.194667-68.778667 266.666666 0.611555 3.114667 2.915556 7.139556 4.167111 11.136 3.811556 3.911111 0.341333 8.021333-0.896 11.121778-3.811556 73.472-69.376 192.910222-69.575111 266.666667-0.611555l14.549333 17.692444c66.204444 80.526222 60.814222 193.820444-12.8 269.411556-6.542222 6.712889-13.127111 13.368889-19.768889 19.982222-1.706667 1.678222-3.342222 5.12-4.010666 7.395556a14.279111 14.279111 0 0 0-0.113778 7.694222c0.625778 2.318222 60.686222 233.073778-6.727111 352.853333m50.986666-368.071111c83.911111-86.158222 89.969778-215.409778 14.407111-307.313778l-15.132444-18.403555a13.468444 13.468444 0 0 0-1.223111-1.322667c-81.720889-77.127111-213.020444-79.644444-297.955556-7.509333-84.949333-72.135111-216.263111-69.617778-297.969777 7.509333-0.426667 0.426667-0.853333 0.853333-1.223112 1.322667l-15.132444 18.403555c-75.562667 91.904-69.504 221.155556 14.407111 307.313778 4.949333 5.077333 9.927111 10.126222 14.933333 15.160889-10.24 41.898667-55.523556 248.177778 11.264 366.833778 9.656889 17.152 28.387556 27.804444 48.896 27.804444a56.519111 56.519111 0 0 0 54.883556-43.008c30.435556-122.624 62.008889-162.616889 83.157333-174.606222 52.792889-30.08 120.775111-30.08 173.582223 0.014222 21.134222 11.975111 52.721778 51.982222 83.128888 174.592a56.519111 56.519111 0 0 0 54.883556 43.008c20.508444 0 39.239111-10.652444 48.896-27.804444 66.787556-118.656 21.475556-324.935111 11.264-366.833778 5.006222-5.034667 9.984-10.083556 14.933333-15.175111" fill="#000000" p-id="14865"></path></svg>