<?xml version="1.0" standalone="no"?><!DOCTYPE svg PUBLIC "-//W3C//DTD SVG 1.1//EN" "http://www.w3.org/Graphics/SVG/1.1/DTD/svg11.dtd"><svg t="1687266020441" viewBox="0 0 1024 1024" version="1.1" xmlns="http://www.w3.org/2000/svg" p-id="16761" xmlns:xlink="http://www.w3.org/1999/xlink" width="200" height="200"><path d="M571.676444 333.923556h73.415112c16.056889 0 29.112889 13.056 29.112888 29.112888v72.746667a14.222222 14.222222 0 1 0 28.444445 0v-72.746667a57.614222 57.614222 0 0 0-57.557333-57.557333h-73.415112a29.155556 29.155556 0 0 1-29.112888-29.112889 29.155556 29.155556 0 0 1 29.112888-29.112889h162.872889a57.614222 57.614222 0 0 0 57.557334-57.557333v-4.138667A57.628444 57.628444 0 0 0 734.549333 128h-50.830222a14.222222 14.222222 0 0 0 0 28.444444h50.830222c16.056889 0 29.112889 13.056 29.112889 29.112889v4.124445a29.141333 29.141333 0 0 1-29.112889 29.127111H571.676444a57.628444 57.628444 0 0 0-57.557333 57.557333 57.628444 57.628444 0 0 0 57.557333 57.557334" fill="#000000" p-id="16762"></path><path d="M695.637333 870.200889a12.416 12.416 0 0 1 0 24.803555H454.826667a12.416 12.416 0 0 1 0-24.803555H695.637333zM284.231111 702.321778c-54.769778 0-99.342222-44.558222-99.342222-99.328 0-54.784 44.572444-99.328 99.342222-99.328h1.28v114.232889a250.311111 250.311111 0 0 0 14.833778 84.423111h-16.113778z m210.204445-114.090667v44.984889a14.222222 14.222222 0 0 1-14.222223 14.222222h-44.970666c-7.836444 0-14.222222-6.371556-14.222223-14.222222V588.231111c0-7.850667 6.385778-14.222222 14.222223-14.222222h44.984889a14.222222 14.222222 0 0 1 14.222222 14.222222z m291.271111-172.231111H754.204444a14.222222 14.222222 0 0 0 0 28.444444h31.530667a50.872889 50.872889 0 0 1 50.816 50.830223v122.624c0 123.420444-100.423111 223.857778-223.857778 223.857777h-74.88c-123.420444 0-223.857778-100.437333-223.857777-223.857777v-122.624a50.858667 50.858667 0 0 1 50.816-50.816h81.194666v101.105777h-10.709333c-23.523556 0-42.666667 19.143111-42.666667 42.666667v44.984889c0 23.523556 19.143111 42.666667 42.666667 42.666667h44.984889c23.537778 0 42.666667-19.143111 42.666666-42.666667V588.231111c0-23.523556-19.128889-42.666667-42.666666-42.666667h-5.831111v-101.12h147.868444a14.222222 14.222222 0 1 0 0-28.444444H364.757333c-36.764444 0-67.669333 25.216-76.586666 59.221333h-3.939556c-70.456889 0-127.786667 57.315556-127.786667 127.772445s57.315556 127.772444 127.786667 127.772444h21.248c2.275556 0 4.337778-0.654222 6.229333-1.592889a253.582222 253.582222 0 0 0 122.353778 118.456889 40.732444 40.732444 0 0 0-20.067555 34.972445 40.888889 40.888889 0 0 0 40.846222 40.846222h240.782222a40.888889 40.888889 0 0 0 40.860445-40.846222c0-14.904889-8.106667-27.847111-20.067556-34.986667 87.466667-39.651556 148.565333-127.601778 148.565333-229.717333v-122.624a79.36 79.36 0 0 0-79.260444-79.260445z" fill="#000000" p-id="16763"></path></svg>