<?xml version="1.0" standalone="no"?><!DOCTYPE svg PUBLIC "-//W3C//DTD SVG 1.1//EN" "http://www.w3.org/Graphics/SVG/1.1/DTD/svg11.dtd"><svg t="1687265925679" viewBox="0 0 1024 1024" version="1.1" xmlns="http://www.w3.org/2000/svg" p-id="13549" xmlns:xlink="http://www.w3.org/1999/xlink" width="200" height="200"><path d="M778.24 589.511111c7.850667 0 14.222222 6.357333 14.222222 14.222222v23.978667c0 7.836444-6.371556 14.222222-14.222222 14.222222H753.777778V589.511111h24.462222zM604.145778 881.777778H371.982222a226.759111 226.759111 0 0 0-70.926222-150.513778l-19.441778-18.204444h406.513778l-18.488889 18.56A224.327111 224.327111 0 0 0 604.131556 881.777778zM371.982222 142.222222h232.149334a224.199111 224.199111 0 0 0 65.507555 150.144l18.488889 18.602667H281.642667l19.427555-18.204445A226.759111 226.759111 0 0 0 371.982222 142.222222z m347.335111 539.448889a13.795556 13.795556 0 0 1-8.206222 2.929778H256a13.937778 13.937778 0 0 1-6.912-2.048l-4.664889-4.380445a13.838222 13.838222 0 0 1-2.645333-7.793777v-316.728889c0-2.958222 1.109333-5.532444 2.645333-7.793778l4.693333-4.408889a13.909333 13.909333 0 0 1 6.883556-2.033778h455.111111c3.128889 0 5.859556 1.223111 8.220445 2.929778l3.114666 3.128889a13.880889 13.880889 0 0 1 2.887111 8.163556v316.743111a13.838222 13.838222 0 0 1-2.887111 8.149333l-3.128889 3.128889z m58.936889-285.368889c7.822222 0 14.222222 6.371556 14.222222 14.222222v64.782223c0 7.836444-6.4 14.222222-14.222222 14.222222H753.777778v-93.226667h24.462222z m0 121.671111c23.523556 0 42.666667-19.143111 42.666667-42.666666v-64.782223c0-23.523556-19.143111-42.666667-42.666667-42.666666H753.777778v-14.222222c0-9.870222-3.512889-18.872889-9.159111-26.112-0.085333-0.085333-0.113778-0.199111-0.184889-0.270223l-0.284445-0.284444a42.496 42.496 0 0 0-6.172444-6.215111l-48.170667-48.440889a196.138667 196.138667 0 0 1-57.415111-139.164445V128a14.222222 14.222222 0 0 0-14.222222-14.222222h-259.982222a14.222222 14.222222 0 0 0-14.222223 14.222222c0 54.343111-22.712889 106.837333-62.364444 144l-49.251556 46.165333A42.666667 42.666667 0 0 0 213.333333 353.635556v316.743111c0 14.791111 7.580444 27.818667 19.029334 35.470222l49.237333 46.165333A198.016 198.016 0 0 1 343.978667 896a14.222222 14.222222 0 0 0 14.222222 14.222222h259.968a14.222222 14.222222 0 0 0 14.222222-14.222222v-5.148444c0-52.508444 20.394667-101.944889 57.415111-139.178667l48.156445-48.426667c2.275556-1.848889 4.337778-3.925333 6.200889-6.200889l0.270222-0.284444c0.071111-0.085333 0.099556-0.199111 0.184889-0.284445A42.282667 42.282667 0 0 0 753.777778 670.378667h24.462222c23.537778 0 42.666667-19.143111 42.666667-42.666667V603.733333c0-23.523556-19.128889-42.666667-42.666667-42.666666H753.777778V517.973333h24.462222z" fill="#000000" p-id="13550"></path><path d="M403.512889 240.824889h160.085333a14.222222 14.222222 0 1 0 0-28.444445H403.512889a14.222222 14.222222 0 1 0 0 28.444445m160.085333 542.364444H403.512889a14.222222 14.222222 0 1 0 0 28.444445h160.085333a14.222222 14.222222 0 1 0 0-28.444445m-7.964444-260.835555a507.704889 507.704889 0 0 1-72.248889 61.809778 506.040889 506.040889 0 0 1-71.452445-60.871112c-17.038222-17.450667-18.304-43.619556-3.029333-62.208l3.640889-4.437333c16.924444-15.36 43.932444-15.175111 60.615111 0.568889a14.222222 14.222222 0 0 0 19.256889 0.241778l1.265778-1.137778c16.952889-15.317333 44.188444-14.990222 61.226666 1.208889 8.888889 8.604444 13.852444 19.996444 13.980445 32.099555a46.208 46.208 0 0 1-13.240889 32.711112m-72.817778-93.553778c-27.605333-18.048-65.848889-15.431111-90.424889 7.736889-0.426667 0.426667-0.853333 0.853333-1.223111 1.322666l-4.266666 5.176889c-24.632889 29.966222-22.684444 72.078222 4.622222 100.124445a537.173333 537.173333 0 0 0 79.402666 67.015111l4.337778 3.000889a14.264889 14.264889 0 0 0 16.071111 0.085333 538.183111 538.183111 0 0 0 84.750223-71.111111A74.467556 74.467556 0 0 0 597.333333 489.315556c-0.213333-19.768889-8.263111-38.343111-23.352889-52.906667-24.945778-23.736889-63.189333-26.382222-91.136-7.637333" fill="#000000" p-id="13551"></path></svg>