<?xml version="1.0" standalone="no"?><!DOCTYPE svg PUBLIC "-//W3C//DTD SVG 1.1//EN" "http://www.w3.org/Graphics/SVG/1.1/DTD/svg11.dtd"><svg t="1687265950049" viewBox="0 0 1024 1024" version="1.1" xmlns="http://www.w3.org/2000/svg" p-id="14279" xmlns:xlink="http://www.w3.org/1999/xlink" width="200" height="200"><path d="M640 112.355556c-149.333333 0-270.222222 120.888889-270.222222 270.222222 0 69.688889 27.022222 132.266667 69.688889 180.622222l-71.111111 71.111111-35.555556-35.555555c-5.688889-5.688889-14.222222-5.688889-19.911111 0L137.955556 775.111111c-31.288889 31.288889-31.288889 82.488889 0 113.777778 15.644444 15.644444 35.555556 24.177778 56.888888 24.177778s41.244444-8.533333 56.888889-24.177778L426.666667 712.533333c5.688889-5.688889 5.688889-14.222222 0-19.911111L388.266667 654.222222l71.111111-71.111111c48.355556 42.666667 110.933333 69.688889 180.622222 69.688889 149.333333 0 270.222222-120.888889 270.222222-270.222222s-120.888889-270.222222-270.222222-270.222222zM230.4 868.977778c-19.911111 19.911111-54.044444 19.911111-73.955556 0-19.911111-19.911111-19.911111-52.622222 0-73.955556l166.4-166.4 73.955556 73.955556-166.4 166.4zM640 624.355556c-133.688889 0-241.777778-108.088889-241.777778-241.777778s108.088889-241.777778 241.777778-241.777778 241.777778 108.088889 241.777778 241.777778-108.088889 241.777778-241.777778 241.777778z" fill="#000000" p-id="14280"></path><path d="M817.777778 312.888889h-58.311111c-2.844444-12.8-7.111111-24.177778-14.222223-35.555556l41.244445-41.244444c5.688889-5.688889 5.688889-14.222222 0-19.911111-5.688889-5.688889-14.222222-5.688889-19.911111 0L725.333333 257.422222c-14.222222-9.955556-31.288889-15.644444-49.777777-15.644444-18.488889 0-35.555556 5.688889-49.777778 15.644444l-41.244445-41.244444c-5.688889-5.688889-14.222222-5.688889-19.911111 0-5.688889 5.688889-5.688889 14.222222 0 19.911111l41.244445 41.244444c-7.111111 9.955556-12.8 22.755556-14.222223 35.555556h-58.311111c-8.533333 0-14.222222 5.688889-14.222222 14.222222s5.688889 14.222222 14.222222 14.222222h58.311111c2.844444 12.8 7.111111 24.177778 14.222223 35.555556l-41.244445 41.244444c-5.688889 5.688889-5.688889 14.222222 0 19.911111 2.844444 2.844444 7.111111 4.266667 9.955556 4.266667 2.844444 0 7.111111-1.422222 9.955555-4.266667l41.244445-41.244444c14.222222 9.955556 31.288889 15.644444 49.777778 15.644444 18.488889 0 35.555556-5.688889 49.777777-15.644444l41.244445 41.244444c2.844444 2.844444 7.111111 4.266667 9.955555 4.266667 2.844444 0 7.111111-1.422222 9.955556-4.266667 5.688889-5.688889 5.688889-14.222222 0-19.911111l-41.244445-41.244444c7.111111-9.955556 12.8-22.755556 14.222223-35.555556h58.311111c8.533333 0 14.222222-5.688889 14.222222-14.222222s-5.688889-14.222222-14.222222-14.222222z m-199.111111 14.222222c0-31.288889 25.6-56.888889 56.888889-56.888889s56.888889 25.6 56.888888 56.888889-25.6 56.888889-56.888888 56.888889-56.888889-25.6-56.888889-56.888889z m41.244444 233.244445c-25.6 0-46.933333-21.333333-46.933333-46.933334v-4.266666c0-8.533333-5.688889-14.222222-14.222222-14.222223s-14.222222 5.688889-14.222223 14.222223v4.266666c0 41.244444 34.133333 75.377778 75.377778 75.377778 8.533333 0 14.222222-5.688889 14.222222-14.222222s-5.688889-14.222222-14.222222-14.222222z" fill="#000000" p-id="14281"></path></svg>