<?xml version="1.0" standalone="no"?><!DOCTYPE svg PUBLIC "-//W3C//DTD SVG 1.1//EN" "http://www.w3.org/Graphics/SVG/1.1/DTD/svg11.dtd"><svg t="1687265592316" viewBox="0 0 1024 1024" version="1.1" xmlns="http://www.w3.org/2000/svg" p-id="3498" xmlns:xlink="http://www.w3.org/1999/xlink" width="200" height="200"><path d="M512 113.777778C292.977778 113.777778 113.777778 292.977778 113.777778 512s179.2 398.222222 398.222222 398.222222 398.222222-179.2 398.222222-398.222222S731.022222 113.777778 512 113.777778z m66.844444 34.133333c0 1.422222 0 1.422222 0 0v146.488889c0 8.533333 5.688889 14.222222 14.222223 14.222222 36.977778 0 66.844444 29.866667 66.844444 66.844445s-29.866667 66.844444-66.844444 66.844444S526.222222 412.444444 526.222222 375.466667c0-8.533333-5.688889-14.222222-14.222222-14.222223s-14.222222 5.688889-14.222222 14.222223c0 36.977778-29.866667 66.844444-66.844445 66.844444s-66.844444-29.866667-66.844444-66.844444 29.866667-66.844444 66.844444-66.844445c8.533333 0 14.222222-5.688889 14.222223-14.222222V149.333333v-1.422222c21.333333-4.266667 44.088889-5.688889 66.844444-5.688889s45.511111 2.844444 66.844444 5.688889z m-133.688888 728.177778v-156.444445c0-8.533333-5.688889-14.222222-14.222223-14.222222-36.977778 0-66.844444-29.866667-66.844444-66.844444s29.866667-66.844444 66.844444-66.844445 66.844444 29.866667 66.844445 66.844445c0 8.533333 5.688889 14.222222 14.222222 14.222222s14.222222-5.688889 14.222222-14.222222c0-36.977778 29.866667-66.844444 66.844445-66.844445s66.844444 29.866667 66.844444 66.844445-29.866667 66.844444-66.844444 66.844444c-8.533333 0-14.222222 5.688889-14.222223 14.222222v156.444445c-22.755556 2.844444-44.088889 5.688889-66.844444 5.688889s-44.088889-2.844444-66.844444-5.688889z m162.133333-7.111111v-137.955556c45.511111-7.111111 81.066667-45.511111 81.066667-93.866666 0-52.622222-42.666667-95.288889-95.288889-95.288889-34.133333 0-64 18.488889-81.066667 44.088889-17.066667-27.022222-46.933333-44.088889-81.066667-44.088889-52.622222 0-95.288889 42.666667-95.288889 95.288889 0 46.933333 35.555556 86.755556 81.066667 93.866666v137.955556C258.844444 827.733333 142.222222 682.666667 142.222222 512c0-170.666667 116.622222-315.733333 274.488889-356.977778v128c-45.511111 7.111111-81.066667 45.511111-81.066667 93.866667 0 52.622222 42.666667 95.288889 95.288889 95.288889 34.133333 0 64-18.488889 81.066667-44.088889 17.066667 27.022222 46.933333 44.088889 81.066667 44.088889 52.622222 0 95.288889-42.666667 95.288889-95.288889 0-46.933333-35.555556-86.755556-81.066667-93.866667v-128C765.155556 196.266667 881.777778 341.333333 881.777778 512c0 170.666667-116.622222 315.733333-274.488889 356.977778z" fill="#000000" p-id="3499"></path></svg>