<?xml version="1.0" standalone="no"?><!DOCTYPE svg PUBLIC "-//W3C//DTD SVG 1.1//EN" "http://www.w3.org/Graphics/SVG/1.1/DTD/svg11.dtd"><svg t="1687265991951" viewBox="0 0 1024 1024" version="1.1" xmlns="http://www.w3.org/2000/svg" p-id="15740" xmlns:xlink="http://www.w3.org/1999/xlink" width="200" height="200"><path d="M884.622222 321.422222L701.155556 139.377778c-34.133333-34.133333-88.177778-34.133333-122.311112 0-27.022222 27.022222-31.288889 65.422222-17.066666 98.133333L160.711111 640C130.844444 669.866667 113.777778 709.688889 113.777778 750.933333c0 42.666667 17.066667 82.488889 46.933333 112.355556 29.866667 29.866667 69.688889 46.933333 112.355556 46.933333s82.488889-17.066667 112.355555-46.933333l402.488889-402.488889c11.377778 5.688889 24.177778 8.533333 36.977778 8.533333 22.755556 0 44.088889-8.533333 61.155555-25.6 32.711111-32.711111 32.711111-88.177778-1.422222-122.311111zM364.088889 843.377778c-24.177778 24.177778-56.888889 38.4-92.444445 38.4s-66.844444-14.222222-92.444444-38.4c-25.6-24.177778-38.4-56.888889-38.4-92.444445 0-34.133333 14.222222-66.844444 38.4-92.444444l155.022222-155.022222c12.8 49.777778 52.622222 82.488889 108.088889 86.755555h4.266667c51.2 1.422222 83.911111 32.711111 88.177778 82.488889l-170.666667 170.666667z m399.644444-398.222222l-49.777777 49.777777-59.733334-58.311111c-5.688889-5.688889-14.222222-5.688889-19.911111 0-5.688889 5.688889-5.688889 14.222222 0 19.911111l58.311111 58.311111-49.777778 49.777778-58.311111-58.311111c-5.688889-5.688889-14.222222-5.688889-19.911111 0-5.688889 5.688889-5.688889 14.222222 0 19.911111l58.311111 58.311111-62.577777 62.577778c-12.8-51.2-54.044444-83.911111-110.933334-86.755555h-4.266666c-49.777778-2.844444-81.066667-34.133333-85.333334-82.488889l219.022222-219.022223 61.155556 61.155556 123.733333 125.155556c-1.422222-1.422222-1.422222-1.422222 0 0z m100.977778-21.333334c-11.377778 11.377778-25.6 17.066667-41.244444 17.066667-15.644444 0-29.866667-5.688889-41.244445-17.066667l-123.733333-123.733333-58.311111-58.311111c-22.755556-22.755556-22.755556-59.733333 0-82.488889 22.755556-22.755556 59.733333-22.755556 82.488889 0l183.466666 183.466667c11.377778 11.377778 17.066667 25.6 17.066667 41.244444 0 15.644444-7.111111 29.866667-18.488889 39.822222z" fill="#000000" p-id="15741"></path><path d="M349.866667 759.466667m-24.177778 0a24.177778 24.177778 0 1 0 48.355555 0 24.177778 24.177778 0 1 0-48.355555 0Z" fill="#000000" p-id="15742"></path><path d="M364.088889 627.2c0-12.8-11.377778-24.177778-24.177778-24.177778-12.8 0-24.177778 11.377778-24.177778 24.177778 0 12.8 11.377778 24.177778 24.177778 24.177778 12.8 0 24.177778-11.377778 24.177778-24.177778zM211.911111 716.8c-12.8 0-24.177778 11.377778-24.177778 24.177778 0 12.8 11.377778 24.177778 24.177778 24.177778 12.8 0 24.177778-11.377778 24.177778-24.177778 0-12.8-11.377778-24.177778-24.177778-24.177778z" fill="#000000" p-id="15743"></path></svg>