<?xml version="1.0" standalone="no"?><!DOCTYPE svg PUBLIC "-//W3C//DTD SVG 1.1//EN" "http://www.w3.org/Graphics/SVG/1.1/DTD/svg11.dtd"><svg t="1687266004608" viewBox="0 0 1024 1024" version="1.1" xmlns="http://www.w3.org/2000/svg" p-id="16179" xmlns:xlink="http://www.w3.org/1999/xlink" width="200" height="200"><path d="M752.355556 157.866667H322.844444C206.222222 157.866667 113.777778 263.111111 113.777778 391.111111v401.066667c0 18.488889 9.955556 35.555556 27.022222 45.511111 17.066667 9.955556 36.977778 8.533333 52.622222-1.422222l4.266667-2.844445c8.533333-5.688889 18.488889-4.266667 25.6 1.422222l28.444444 21.333334c17.066667 12.8 41.244444 12.8 59.733334 1.422222l34.133333-22.755556c8.533333-5.688889 18.488889-5.688889 25.6 0l32.711111 22.755556c8.533333 5.688889 18.488889 8.533333 29.866667 8.533333 9.955556 0 19.911111-2.844444 28.444444-8.533333l34.133334-22.755556c7.111111-5.688889 18.488889-5.688889 25.6 0 15.644444 9.955556 35.555556 11.377778 52.622222 1.422223 17.066667-8.533333 27.022222-25.6 27.022222-45.511111V625.777778H740.977778C834.844444 625.777778 910.222222 520.533333 910.222222 391.111111c0-123.733333-69.688889-226.133333-157.866666-233.244444zM574.577778 790.755556c0 8.533333-4.266667 17.066667-12.8 21.333333-7.111111 4.266667-17.066667 4.266667-24.177778-1.422222-17.066667-11.377778-39.822222-11.377778-56.888889 0l-34.133333 22.755555c-8.533333 5.688889-18.488889 5.688889-25.6 0L388.266667 810.666667c-17.066667-11.377778-39.822222-11.377778-58.311111 0l-34.133334 22.755555c-8.533333 5.688889-18.488889 5.688889-27.022222 0l-28.444444-21.333333c-17.066667-12.8-39.822222-12.8-58.311112-2.844445l-4.266666 2.844445c-7.111111 4.266667-15.644444 4.266667-24.177778 0-7.111111-4.266667-11.377778-11.377778-11.377778-19.911111V413.866667h91.022222c8.533333 0 14.222222-5.688889 14.222223-14.222223s-5.688889-14.222222-14.222223-14.222222H142.222222c2.844444-110.933333 82.488889-199.111111 179.2-199.111111h341.333334c-51.2 38.4-85.333333 113.777778-88.177778 199.111111H483.555556c-8.533333 0-14.222222 5.688889-14.222223 14.222222s5.688889 14.222222 14.222223 14.222223h91.022222v376.888889z m28.444444-193.422223v-75.377777c15.644444 31.288889 35.555556 56.888889 59.733334 75.377777h-59.733334z m139.377778 0c-76.8 0-139.377778-92.444444-139.377778-206.222222S665.6 184.888889 742.4 184.888889 881.777778 278.755556 881.777778 391.111111 819.2 597.333333 742.4 597.333333z" fill="#000000" p-id="16180"></path><path d="M742.4 267.377778c-49.777778 0-91.022222 55.466667-91.022222 123.733333 0 68.266667 41.244444 123.733333 91.022222 123.733333 49.777778 0 91.022222-55.466667 91.022222-123.733333 0-68.266667-39.822222-123.733333-91.022222-123.733333z m0 220.444444c-34.133333 0-62.577778-44.088889-62.577778-95.288889s28.444444-95.288889 62.577778-95.288889c34.133333 0 62.577778 44.088889 62.577778 95.288889s-28.444444 95.288889-62.577778 95.288889z m-337.066667-102.4H298.666667c-8.533333 0-14.222222 5.688889-14.222223 14.222222s5.688889 14.222222 14.222223 14.222223h105.244444c8.533333 0 14.222222-5.688889 14.222222-14.222223s-5.688889-14.222222-12.8-14.222222z" fill="#000000" p-id="16181"></path></svg>