<svg 
 xmlns="http://www.w3.org/2000/svg"
 xmlns:xlink="http://www.w3.org/1999/xlink"
 width="29px" height="30px">
<path fill-rule="evenodd"  fill="rgb(136, 136, 136)"
 d="M26.803,29.995 L2.197,30.000 C0.985,30.000 0.000,28.991 0.000,27.751 L0.000,5.926 C0.000,4.686 0.985,3.677 2.197,3.677 L2.197,5.177 C1.793,5.177 1.465,5.513 1.465,5.927 L1.465,27.751 C1.465,28.165 1.793,28.501 2.197,28.501 L3.838,28.501 C3.754,28.264 3.701,28.012 3.701,27.746 L3.701,2.249 C3.701,1.009 4.686,-0.000 5.898,-0.000 L26.803,-0.000 L26.803,0.000 C28.014,0.000 28.999,1.009 29.000,2.249 L29.000,27.745 C29.000,28.985 28.015,29.995 26.803,29.995 ZM27.536,2.249 C27.536,1.835 27.206,1.499 26.803,1.499 L5.898,1.499 C5.494,1.499 5.165,1.835 5.165,2.249 L5.165,27.746 C5.165,28.160 5.494,28.496 5.898,28.496 L26.803,28.496 C27.206,28.496 27.536,28.160 27.536,27.746 L27.536,2.249 ZM23.606,23.673 L9.095,23.673 C8.817,23.673 8.591,23.435 8.591,23.140 L8.591,22.834 C8.591,22.540 8.817,22.301 9.095,22.301 L23.605,22.301 C23.883,22.301 24.109,22.540 24.110,22.834 L24.110,23.140 C24.110,23.434 23.884,23.673 23.606,23.673 ZM23.606,19.832 L9.095,19.832 C8.817,19.832 8.591,19.594 8.591,19.299 L8.591,18.993 C8.591,18.699 8.817,18.460 9.095,18.460 L23.605,18.460 C23.883,18.460 24.109,18.699 24.110,18.993 L24.110,19.299 C24.110,19.593 23.884,19.832 23.606,19.832 ZM23.458,16.172 L19.192,16.172 C18.835,16.172 18.542,15.872 18.542,15.506 C18.542,15.140 18.834,14.840 19.192,14.840 L23.458,14.840 C23.816,14.840 24.109,15.140 24.109,15.506 C24.109,15.872 23.817,16.172 23.458,16.172 ZM23.458,12.464 L19.192,12.464 C18.835,12.464 18.542,12.164 18.542,11.798 C18.542,11.432 18.834,11.132 19.192,11.132 L23.458,11.132 C23.816,11.132 24.109,11.432 24.109,11.798 C24.109,12.164 23.817,12.464 23.458,12.464 ZM23.458,8.756 L19.192,8.756 C18.835,8.756 18.542,8.456 18.542,8.090 C18.542,7.724 18.834,7.424 19.192,7.424 L23.458,7.424 C23.816,7.424 24.109,7.724 24.109,8.090 C24.109,8.456 23.817,8.756 23.458,8.756 ZM16.038,16.238 L10.094,16.238 C9.266,16.238 8.592,15.548 8.592,14.699 L8.592,8.545 C8.592,7.696 9.266,7.006 10.094,7.006 L16.038,7.006 C16.866,7.006 17.540,7.696 17.540,8.545 L17.540,14.699 C17.540,15.548 16.866,16.238 16.038,16.238 ZM10.094,8.545 L10.094,14.699 L16.035,14.699 L16.038,8.545 L10.094,8.545 Z"/>
</svg>