<svg 
 xmlns="http://www.w3.org/2000/svg"
 xmlns:xlink="http://www.w3.org/1999/xlink"
 width="33px" height="22px">
<path fill-rule="evenodd"  fill="rgb(136, 136, 136)"
 d="M32.165,11.756 L23.674,20.156 C23.227,20.598 22.950,20.952 22.503,20.510 C22.057,20.068 22.146,19.882 22.593,19.440 L30.877,11.156 C30.931,11.103 30.961,11.031 30.961,10.956 C30.961,10.881 30.931,10.809 30.877,10.756 L22.637,2.604 C22.191,2.163 21.878,1.844 22.324,1.402 C22.771,0.960 23.227,1.314 23.674,1.755 L32.165,10.156 C32.612,10.598 32.612,11.314 32.165,11.756 ZM15.080,20.633 C14.938,21.242 14.770,21.578 14.153,21.437 C13.537,21.296 13.689,20.733 13.831,20.124 L18.228,1.304 C18.371,0.695 18.494,0.360 19.110,0.500 C19.726,0.641 19.619,1.028 19.476,1.637 L15.080,20.633 ZM2.126,10.750 C2.072,10.803 2.042,10.875 2.042,10.950 C2.042,11.025 2.072,11.097 2.126,11.150 L10.334,19.261 C10.781,19.703 11.139,19.978 10.692,20.420 C10.244,20.862 9.787,20.597 9.340,20.155 L0.835,11.750 C0.388,11.308 0.388,10.591 0.835,10.149 L9.340,1.745 C9.787,1.303 10.244,0.949 10.692,1.391 C11.139,1.833 10.871,2.108 10.423,2.550 L2.126,10.750 Z"/>
</svg>