<svg 
 xmlns="http://www.w3.org/2000/svg"
 xmlns:xlink="http://www.w3.org/1999/xlink"
 width="28px" height="31px">
<path fill-rule="evenodd"  fill="rgb(136, 136, 136)"
 d="M19.987,30.429 C19.856,30.435 19.724,30.438 19.593,30.438 C15.132,30.438 11.417,26.827 11.209,22.196 C10.995,17.430 14.578,13.387 19.213,13.167 C19.344,13.161 19.476,13.158 19.606,13.158 C24.067,13.158 27.783,16.768 27.991,21.399 C28.205,26.166 24.622,30.208 19.987,30.429 ZM24.348,16.672 C23.062,15.412 21.378,14.718 19.607,14.718 L19.606,14.718 C19.499,14.718 19.391,14.720 19.282,14.725 C17.446,14.813 15.752,15.630 14.514,17.028 C13.275,18.425 12.639,20.235 12.724,22.124 C12.806,23.956 13.562,25.660 14.852,26.924 C16.139,28.184 17.822,28.878 19.593,28.878 C19.701,28.878 19.810,28.875 19.917,28.870 C21.754,28.783 23.448,27.965 24.687,26.568 C25.925,25.170 26.561,23.360 26.476,21.471 C26.394,19.640 25.638,17.935 24.348,16.672 ZM18.581,17.655 L20.098,17.655 L20.098,23.140 L24.190,23.140 L24.190,24.700 L18.581,24.700 L18.581,17.655 ZM3.785,23.951 L3.785,22.391 L10.460,22.391 C10.492,22.916 10.567,23.438 10.683,23.951 L3.785,23.951 ZM3.785,10.833 L20.645,10.833 L20.645,12.393 L3.785,12.393 L3.785,10.833 ZM3.785,18.172 L3.785,16.612 L11.953,16.612 C11.635,17.105 11.364,17.627 11.142,18.172 L3.785,18.172 ZM22.774,5.454 C22.774,4.726 22.198,4.133 21.490,4.133 L18.536,4.133 L18.536,6.237 L17.020,6.237 L17.020,4.133 L7.341,4.133 L7.341,6.237 L5.825,6.237 L5.825,4.133 L2.800,4.133 C2.092,4.133 1.517,4.726 1.517,5.454 L1.517,25.998 C1.517,26.726 2.092,27.318 2.800,27.318 L12.177,27.318 C12.507,27.785 12.877,28.220 13.283,28.618 C13.374,28.707 13.466,28.793 13.560,28.878 L2.800,28.878 C1.253,28.878 0.000,27.588 0.000,25.998 L0.000,5.454 C0.000,3.863 1.253,2.574 2.800,2.574 L5.825,2.574 L5.825,0.437 L7.341,0.437 L7.341,2.574 L17.020,2.574 L17.020,0.437 L18.536,0.437 L18.536,2.574 L21.490,2.574 C23.036,2.574 24.290,3.863 24.290,5.454 L24.290,13.705 C23.808,13.408 23.300,13.158 22.774,12.958 L22.774,5.454 Z"/>
</svg>