<svg 
 xmlns="http://www.w3.org/2000/svg"
 xmlns:xlink="http://www.w3.org/1999/xlink"
 width="26px" height="30px">
<path fill-rule="evenodd"  fill="rgb(136, 136, 136)"
 d="M26.000,18.000 L26.000,19.200 L22.454,19.200 L22.454,21.642 C24.601,21.957 26.145,23.903 25.989,26.100 C25.834,28.298 24.033,30.000 21.863,30.000 C19.693,30.000 17.892,28.298 17.737,26.100 C17.581,23.903 19.125,21.957 21.272,21.642 L21.272,14.400 L26.000,14.400 L26.000,15.599 L22.454,15.599 L22.454,18.000 L26.000,18.000 ZM21.865,22.801 C20.233,22.801 18.911,24.144 18.911,25.800 C18.911,27.456 20.233,28.799 21.865,28.799 C23.496,28.799 24.818,27.456 24.818,25.800 C24.818,24.144 23.496,22.801 21.865,22.801 ZM14.182,16.801 C13.858,16.801 13.541,16.777 13.228,16.740 C10.232,16.694 7.311,17.843 5.072,19.900 C2.595,22.175 1.182,25.408 1.182,28.799 L0.000,28.799 C-0.000,25.090 1.537,21.551 4.235,19.050 C6.011,17.404 8.185,16.353 10.499,15.914 C7.780,14.538 5.909,11.694 5.909,8.400 C5.909,3.761 9.613,-0.000 14.182,-0.000 C18.751,-0.000 22.455,3.761 22.455,8.400 C22.455,13.040 18.751,16.801 14.182,16.801 ZM20.412,4.676 C19.090,2.386 16.651,1.001 14.037,1.054 C10.107,1.135 6.962,4.393 6.962,8.384 C6.962,12.375 10.321,15.595 14.182,15.675 C16.749,15.727 19.090,14.382 20.412,12.092 C21.735,9.802 21.735,6.965 20.412,4.676 Z"/>
</svg>