<svg 
 xmlns="http://www.w3.org/2000/svg"
 xmlns:xlink="http://www.w3.org/1999/xlink"
 width="30px" height="31px">
<path fill-rule="evenodd"  fill="rgb(136, 136, 136)"
 d="M28.928,15.939 L23.537,15.939 C23.437,17.564 21.885,19.557 19.286,19.557 C16.587,19.557 15.201,17.506 15.034,15.939 L1.071,15.939 C0.479,15.939 -0.000,15.860 -0.000,15.267 C-0.000,14.674 0.479,14.595 1.071,14.595 L15.034,14.595 C15.167,12.929 16.712,10.977 19.286,10.977 C21.909,10.977 23.404,12.937 23.537,14.595 L28.928,14.595 C29.521,14.595 30.000,14.674 30.000,15.267 C30.000,15.860 29.521,15.939 28.928,15.939 ZM19.300,12.463 C17.753,12.463 16.500,13.718 16.500,15.267 C16.500,16.816 17.753,18.072 19.300,18.072 C20.846,18.072 22.099,16.816 22.099,15.267 C22.099,13.718 20.846,12.463 19.300,12.463 ZM29.128,5.243 L14.966,5.243 C14.666,7.444 12.710,8.861 10.714,8.861 C8.715,8.861 6.613,7.168 6.562,5.243 L1.071,5.243 C0.479,5.243 -0.000,5.165 -0.000,4.572 C-0.000,3.978 0.479,3.899 1.071,3.899 L6.562,3.899 C6.638,1.999 8.544,0.282 10.714,0.282 C12.963,0.282 14.491,2.049 14.966,3.899 L28.928,3.899 C29.521,3.899 30.000,3.978 30.000,4.572 C30.000,5.165 29.721,5.243 29.128,5.243 ZM10.700,1.755 C9.154,1.755 7.901,3.010 7.901,4.558 C7.901,6.105 9.154,7.360 10.700,7.360 C12.247,7.360 13.500,6.105 13.500,4.558 C13.500,3.010 12.247,1.755 10.700,1.755 ZM1.071,25.319 L6.562,25.319 C6.638,23.419 8.544,21.702 10.714,21.702 C12.963,21.702 14.491,23.469 14.966,25.319 L28.928,25.319 C29.521,25.319 30.000,25.398 30.000,25.992 C30.000,26.585 29.721,26.663 29.128,26.663 L14.966,26.663 C14.666,28.864 12.710,30.281 10.714,30.281 C8.715,30.281 6.613,28.588 6.562,26.663 L1.071,26.663 C0.479,26.663 -0.000,26.585 -0.000,25.992 C-0.000,25.398 0.479,25.319 1.071,25.319 ZM10.700,28.780 C12.247,28.780 13.500,27.525 13.500,25.978 C13.500,24.430 12.247,23.175 10.700,23.175 C9.154,23.175 7.901,24.430 7.901,25.978 C7.901,27.525 9.154,28.780 10.700,28.780 Z"/>
</svg>