<svg 
 xmlns="http://www.w3.org/2000/svg"
 xmlns:xlink="http://www.w3.org/1999/xlink"
 width="30px" height="31px">
<path fill-rule="evenodd"  fill="rgb(136, 136, 136)"
 d="M28.937,28.361 C28.311,27.962 27.502,27.551 26.589,27.286 C25.718,27.033 24.873,26.944 24.087,27.025 C23.174,27.117 22.334,27.436 21.586,27.973 C20.235,28.941 18.524,29.440 16.571,29.440 C16.091,29.440 15.600,29.413 15.094,29.352 C14.392,29.268 13.755,29.137 13.229,29.003 C12.922,28.922 12.707,28.649 12.707,28.331 C12.707,27.878 13.129,27.547 13.567,27.659 C14.050,27.782 14.641,27.901 15.289,27.977 C17.522,28.239 19.372,27.858 20.780,26.848 C22.525,25.597 24.666,25.290 26.968,25.958 C27.989,26.253 28.921,26.710 29.673,27.190 C29.873,27.321 29.992,27.540 29.999,27.774 L29.999,27.778 C29.999,28.323 29.397,28.657 28.937,28.361 ZM28.937,24.445 C28.311,24.045 27.502,23.635 26.589,23.370 C25.718,23.116 24.873,23.028 24.087,23.108 C23.174,23.201 22.334,23.519 21.586,24.057 C20.235,25.024 18.524,25.524 16.571,25.524 C16.091,25.524 15.600,25.497 15.094,25.435 C14.392,25.351 13.755,25.220 13.229,25.086 C12.922,25.005 12.707,24.733 12.707,24.414 C12.707,23.961 13.129,23.631 13.567,23.742 C14.050,23.865 14.641,23.984 15.289,24.061 C17.522,24.322 19.372,23.942 20.780,22.932 C22.525,21.680 24.666,21.373 26.968,22.041 C27.989,22.337 28.921,22.794 29.673,23.274 C29.873,23.404 29.992,23.623 29.999,23.857 L29.999,23.861 C29.999,24.406 29.397,24.740 28.937,24.445 ZM29.692,17.080 C29.363,17.349 28.879,17.303 28.610,16.976 L21.367,8.217 C21.317,8.187 21.263,8.187 21.229,8.194 C21.186,8.202 21.129,8.229 21.094,8.302 L16.007,19.280 C15.776,19.779 15.335,20.132 14.794,20.244 C14.675,20.271 14.557,20.282 14.438,20.282 C14.019,20.282 13.620,20.132 13.298,19.848 L7.984,15.137 C7.919,15.079 7.815,15.075 7.743,15.129 L1.535,19.833 L1.535,26.560 C1.535,28.008 2.709,29.183 4.155,29.183 L10.394,29.183 C10.820,29.183 11.165,29.529 11.165,29.951 C11.165,30.373 10.820,30.719 10.397,30.719 L4.155,30.719 C1.865,30.719 -0.000,28.853 -0.000,26.560 L-0.000,4.877 C-0.000,2.584 1.865,0.718 4.155,0.718 L25.821,0.718 C28.112,0.718 29.973,2.584 29.973,4.877 L29.973,16.450 C29.973,16.477 29.973,16.508 29.969,16.535 C29.957,16.738 29.861,16.938 29.692,17.080 ZM28.442,4.877 C28.442,3.429 27.268,2.254 25.821,2.254 L4.155,2.254 C2.709,2.254 1.535,3.433 1.535,4.877 L1.535,17.906 L6.818,13.904 C7.470,13.409 8.391,13.443 9.005,13.989 L14.319,18.700 C14.376,18.754 14.441,18.754 14.484,18.746 C14.526,18.739 14.583,18.712 14.618,18.639 L19.709,7.657 C19.939,7.158 20.385,6.804 20.926,6.693 C21.466,6.582 22.015,6.731 22.426,7.100 L22.468,7.138 L28.442,14.361 L28.442,4.877 ZM5.805,8.239 C5.077,8.434 4.300,8.226 3.767,7.692 C3.234,7.159 3.025,6.381 3.221,5.652 C3.416,4.923 3.985,4.354 4.713,4.159 C5.441,3.963 6.218,4.172 6.751,4.706 C7.284,5.239 7.493,6.017 7.298,6.745 C7.103,7.474 6.534,8.044 5.805,8.239 Z"/>
</svg>